<?xml version="1.0" encoding="UTF-8"?>
<svg id="Layer_1" data-name="Layer 1" xmlns="http://www.w3.org/2000/svg" viewBox="0 0 46.354 46.354">
  <defs>
    <style>
      .cls-1 {
        fill: #fbfaf8;
      }

      .cls-2 {
        fill: #d55e00;
      }

      .cls-3 {
        fill: #e9e4a2;
      }

      .cls-4 {
        fill: #fed8c1;
      }

      .cls-5 {
        fill: #fdfcfb;
      }
    </style>
  </defs>
  <path class="cls-4" d="M0,25.958V0h46.354v46.354h-27.349c.657-.974,1.295-1.963,1.955-2.935s1.347-1.78,1.87-2.858c.661-1.362.521-2.769.672-4.242.091-.887.392-1.176.949-1.832.282-.333,1.148-1.297,1.515-1.405.327-.096,1.128.194,1.461.331.614.253,1.31.828,1.885.989.696.194,1.547.245,2.266.376,1.411.256,3.821.906,5.184.571.375-.092.473-.528.692-.791.174-.209.195-.113.383-.173.189-.06.281-.392.384-.543.227-.333.327-.3.424-.782s.173-.906-.357-1.122c.278-.155,1.139-1.203,1.307-1.498.05-.088.161-.431.177-.449.006-.008.128-.023.185-.07.057-.046.083-.14.103-.151.046-.027.13-.001.184-.024.264-.111.652-.966.834-1.253.235-.37.485-.737.733-1.098.029-.042.148-.105.205-.189.299-.431.759-1.119.721-1.642-.04-.542-.364-1.543-.994-1.602-.644-.06-1.195.049-1.694.465-.28-.007-.595.176-.86.187-.489.021-.75-.287-1.148-.474-.992-.467-2.039-.794-3.075-1.282-.133-.063-.283-.154-.433-.146.012-.162-.077-.237-.232-.232-.321-.497-.724-.965-1.158-1.368-.082-.076-.365-.238-.395-.3-.068-.14-.041-.465-.143-.691-.266-.59-1.345-1.649-1.846-2.116-.6-.561-1.318-1.223-1.952-1.734-.506-.408-2.056-1.137-2.693-1.201-.265-.026-.712.049-.933-.041-.152-.062-.552-.439-.739-.559-1.056-.679-2.194-1.234-3.273-1.872-.409-.242-1.454-.827-1.758-1.103-.493-.446-1.024-1.515-1.495-2.087-.658-.799-2.596-2.805-3.458-3.31-.315-.185-.686-.35-1-.057-.153.143-.568.777-.666.98-.324.675-.432,1.691-.51,2.434-.673-.433-1.491-.69-2.295-.741-1.414-.089-1.651.425-1.91,1.705-.338,1.678-.299,3.524.185,5.165.047.161.292.669.243.777-.349.315-.728.605-1.069.927-1.63,1.539-3.051,3.504-4.496,5.238-.965,1.159-1.905,2.338-2.943,3.431Z"/>
  <path class="cls-2" d="M0,25.958c1.037-1.093,1.977-2.272,2.943-3.431,1.445-1.735,2.866-3.7,4.496-5.238.341-.322.72-.613,1.069-.927.049-.108-.196-.616-.243-.777-.484-1.641-.523-3.487-.185-5.165.258-1.28.495-1.795,1.91-1.705.803.051,1.622.308,2.295.741.078-.743.186-1.759.51-2.434.097-.203.513-.837.666-.98.314-.293.685-.128,1,.057.862.505,2.8,2.511,3.458,3.31.471.572,1.002,1.641,1.495,2.087.305.276,1.349.861,1.758,1.103,1.079.638,2.217,1.193,3.273,1.872.187.12.587.497.739.559.221.09.668.014.933.041.636.064,2.187.793,2.693,1.201.634.511,1.353,1.173,1.952,1.734.5.468,1.58,1.526,1.846,2.116.102.226.075.551.143.691.03.062.314.225.395.3.434.403.837.871,1.158,1.368-.392.014-1.628,1.137-2.018,1.389l-.555.604c.074.099.107.014.168-.018.662-.344,1.55-.886,2.17-1.307.139-.094.454-.258.467-.436.151-.008.3.083.433.146,1.036.488,2.083.816,3.075,1.282.398.187.659.495,1.148.474.265-.011.58-.194.86-.187-.074.062-.246.225-.266.313-.09.389.138,1.362.367,1.696.13.19,1.005.697,1.258.828.127.065.256.126.403.131-.248.361-.497.728-.733,1.098-.182.287-.57,1.142-.834,1.253-.054.023-.138-.003-.184.024-.021.012-.046.105-.103.151-.057.047-.179.062-.185.07-.047-.052-.086-.116-.152-.149-.275-.141-1.074-.237-1.378-.221-.047.002-.215.009-.232,0-.009-.005.043-.074-.127-.125-.595-.179-1.259-.204-1.866-.292-.007-.001-.056-.035-.139-.046-.015-.002-.031.002-.046,0-.613-.078-1.443-.232-2.06-.136-.234.036-.212.174-.258.368,0-.004-.044.012-.046-.07-.002-.076.145-.583.023-.578-.515.443-.301,1.081-.031,1.606.262.511,1.595,1.491,2.126,1.814.575.35,2.087,1.097,2.729.847.139-.054.245-.206.25-.356.002-.058-.126-.37-.144-.382-.15-.094-.186.077-.228.103-.143.091-.411.078-.6.121.012-.243.121-.466.185-.695l.185.046c-.006.061.003.124,0,.185.125.018.22-.035.324-.093.53.216.454.638.357,1.122s-.196.448-.424.782c-.103.151-.195.483-.384.543-.188.06-.21-.036-.383.173-.219.263-.317.699-.692.791-1.363.335-3.773-.315-5.184-.571-.72-.131-1.57-.182-2.266-.376-.575-.16-1.271-.736-1.885-.989-.332-.137-1.134-.428-1.461-.331-.367.108-1.233,1.072-1.515,1.405-.557.656-.858.945-.949,1.832-.151,1.473-.011,2.88-.672,4.242-.523,1.079-1.21,1.887-1.87,2.858s-1.299,1.961-1.955,2.935H0v-20.396ZM15.37,13.371c-.655-.696-1.574-1.504-2.323-2.105-.977-.784-2.034-1.273-3.161-1.799-.409-.095-.617.273-.715.609-.419,1.435-.681,3.616-.269,5.057.135.471.4.883.601,1.324.105.017.11-.009.084-.107-.065-.248-.277-.571-.364-.841-.454-1.409-.283-4.043.291-5.414.037-.088.118-.316.235-.305.477.316,1.056.502,1.547.772,2.281,1.256,5.255,4.424,5.751,7.043.07.367.058,1.241.197,1.507.116.222.378.032.413-.225.249-1.791-1.093-4.246-2.286-5.514ZM20.674,13.906c.094-.503-.606-.527-.951-.648-.431-.152-.872-.301-1.298-.464-1.948-.744-3.459-1.826-5.228-2.884-.116-.069-.733-.536-.82-.454l.093.208c2.102,1.708,4.376,3.158,7.009,3.931.271.079.577.094.845.174.134.04.21.143.349.137ZM15.343,26.792c-.076-.688-.112-1.371-.094-2.064.014-.526.05-1.091.095-1.62.032-.376.345-.938-.277-.788-1.664-1.328-3.98-2.255-5.166-4.061-.299-.455-.678-1.351-1.046-1.688-.063-.058-.09-.086-.186-.069.003.064-.03.129-.022.192.025.184.759,1.431.911,1.676.911,1.463,2.682,2.619,4.101,3.594.406.279.866.643,1.36.704-.041.186-.086.435-.095.623-.044.939-.044,2.545.306,3.409.03.074-.005.113.113.093ZM32.633,20.767c-.24-.132-1.313.037-1.383.264-.035.114-.022.225.109.248.136.024,1.021-.277,1.167-.363.063-.037.125-.056.106-.148ZM33.699,21.787c-.284-.043-1.683.21-1.785.417-.025.051-.035.1-.017.155.018.056.111.106.167.114.127.018,1.429-.456,1.559-.554.053-.04.095-.049.077-.131ZM30.918,21.879h-1.066c-.52,1.657,1.074,1.238,1.066,0ZM11.16,23.838c-.392-.393-.795.93-.856,1.137-.392,1.343-.473,2.788-.523,4.182.126.032.105-.095.123-.176.336-1.452.4-3.264,1.027-4.63.064-.14.103-.308.284-.295.023-.025-.021-.182-.056-.218ZM35.632,25.87c-.212.053-.129.398.077.358.263-.05.128-.41-.077-.358ZM37.304,26.549c.184-.184-.122-.628-.399-.491-.222.27.18.71.399.491ZM35.171,27.06c.195-.173-.104-.552-.34-.364-.255.203.155.529.34.364ZM36.093,26.66c-.259.201.046.77.341.621.226-.114.029-.752-.341-.621ZM37.904,26.709c-.299.091-.019.747.338.571.297-.221-.021-.668-.338-.571ZM37.21,27.125c-.342.05-.165.616.182.629.394.015.157-.678-.182-.629ZM39.483,27.894c.161-.261-.276-.772-.5-.522-.274.306.346.703.5.522ZM38.509,28.404c.143-.267-.158-.583-.432-.409-.11.265.182.531.432.409ZM14.601,34.673c-.005-.291-.108-.571-.138-.858-.17-1.638-.125-3.534-.095-5.193.002-.112.055-.215.051-.322-.011-.33-.322-.358-.4-.027-.035.149-.056.503-.066.676-.073,1.303-.07,4.526.532,5.634.035.064-.004.114.116.09ZM11.217,29.25c-.093-.007-.166.013-.234.08-.34.341-.547,2.1-.6,2.631-.117,1.169-.159,2.355.139,3.5l.094-.07c-.143-.924-.086-1.853-.002-2.78.101-1.114.244-2.305.602-3.361ZM13.442,33.885c.045-.324-.066-.635-.092-.95-.069-.83-.068-1.63-.091-2.458-.01-.37-.119-.768-.006-1.151l-.113-.077c-.102,0-.146.133-.158.213-.133.862.109,3.402.372,4.258.016.053.017.172.088.166ZM8.019,32.031c.128-.711.383-1.409.497-2.122.021-.133.09-.665-.199-.431-.113.092-.263,1.031-.292,1.238-.044.319-.089.739-.101,1.058-.002.054-.02.371.094.257ZM1.345,38.196c.094.018.111-.042.142-.112.129-.288.207-.761.309-1.082.395-1.249.916-2.555,1.241-3.812.036-.141.213-.636.04-.691-.165-.053-.27.088-.336.21-.213.398-.452,1.341-.595,1.816-.359,1.199-.686,2.419-.801,3.671ZM14.926,37.408c-.08-.016-.094.02-.129.079-.184.318.066,1.888.198,2.285.034.103.062.288.209.278-.17-.867-.264-1.758-.278-2.642ZM12.794,41.255c.194-.12.049-.403.044-.577-.025-.864.042-1.736-.045-2.597-.015-.149-.041-.606-.253-.583-.158.035-.17.218-.164.348.024.56.08,1.159.141,1.717.061.565.15,1.138.278,1.692ZM19.932,37.593c-.139-.01-.174.146-.186.254-.085.738.096,1.594-.045,2.342.101.016.113-.039.136-.118.049-.166.083-.596.095-.786.033-.555-.023-1.134,0-1.691ZM7.509,43.016c-.174-1.142-.126-2.303-.183-3.455-.005-.099-.043-.187-.048-.277-.013-.232-.004-1.329-.089-1.441-.029-.038-.07-.062-.119-.063-.201-.015-.241.284-.256.438-.049.518.046,1.446.093,1.992.054.639.192,2.16.46,2.692.034.067.043.132.142.113ZM3.198,38.613c-.396-.08-.417.434-.458.725-.148,1.062-.146,2.25-.005,3.308l.092-.068.371-3.964ZM10.694,38.973c.09-.166-.263-.328-.378-.126-.151.266.028,1.153.082,1.489.241,1.493.607,3.102,1.306,4.441.095-.066.055-.093.038-.174-.098-.472-.297-1.002-.409-1.494-.178-.785-.342-1.607-.473-2.401-.075-.453-.244-1.236-.249-1.659,0-.084.076-.064.082-.077ZM17.794,41.123c-.086-.019-.233-.03-.266.07.002.892.059,1.839.185,2.723.016.114.117.859.203.863.095.004.039-.14.037-.174-.04-.864-.007-1.722-.06-2.583-.019-.308.05-.608-.099-.897Z"/>
  <path d="M41.811,27.395c-.146-.005-.276-.065-.403-.131-.253-.131-1.128-.637-1.258-.828-.229-.334-.456-1.307-.367-1.696.02-.087.192-.251.266-.313.498-.417,1.05-.525,1.694-.465.629.059.954,1.06.994,1.602.039.523-.422,1.211-.721,1.642-.058.083-.176.146-.205.189Z"/>
  <path class="cls-5" d="M39.772,29.991c-.016.018-.126.361-.177.449-.168.295-1.029,1.343-1.307,1.498-.104.058-.199.11-.324.093.003-.061-.006-.125,0-.185.016-.174.111-.342.136-.49.097-.576.065-1.163.142-1.735.304-.015,1.103.08,1.378.221.065.034.105.097.152.149Z"/>
  <path d="M34.302,22.482c.155-.006.244.07.232.232-.014.178-.328.342-.467.436-.62.421-1.508.963-2.17,1.307-.061.032-.093.117-.168.018l.555-.604c.39-.253,1.626-1.375,2.018-1.389Z"/>
  <path d="M15.37,13.371c1.194,1.269,2.535,3.724,2.286,5.514-.036.257-.297.447-.413.225-.139-.266-.127-1.139-.197-1.507-.496-2.619-3.469-5.787-5.751-7.043-.491-.27-1.07-.456-1.547-.772-.117-.011-.198.217-.235.305-.574,1.371-.745,4.005-.291,5.414.087.27.299.594.364.841.026.098.021.124-.084.107-.201-.441-.466-.853-.601-1.324-.412-1.441-.151-3.621.269-5.057.098-.336.305-.704.715-.609,1.128.526,2.184,1.015,3.161,1.799.749.601,1.668,1.409,2.323,2.105Z"/>
  <path d="M15.343,26.792c-.118.021-.083-.018-.113-.093-.35-.864-.35-2.47-.306-3.409.009-.188.054-.437.095-.623-.494-.061-.953-.425-1.36-.704-1.419-.975-3.191-2.131-4.101-3.594-.153-.245-.886-1.492-.911-1.676-.009-.064.025-.128.022-.192.095-.017.122.011.186.069.369.338.747,1.233,1.046,1.688,1.186,1.806,3.502,2.733,5.166,4.061.622-.151.309.412.277.788-.046.529-.082,1.094-.095,1.62-.018.694.018,1.377.094,2.064Z"/>
  <path class="cls-4" d="M35.832,29.157l.048.477c.272.476.277,1.086.276,1.655l-2.364-1.205c-.18-.266-.235-.366-.278-.695.046-.194.024-.331.258-.368.617-.096,1.447.058,2.06.136Z"/>
  <path class="cls-5" d="M36.017,29.203c.607.088,1.271.113,1.866.292.171.051.119.121.127.125-.021.14-.07.282-.118.415-.168.468-.542,1.179-.902,1.532-.171.168-.365.319-.556.464-.122-.056-.167-.082-.278-.139v-.603c0-.569-.004-1.18-.276-1.655l-.048-.477c.015.002.031-.002.046,0l.139.046Z"/>
  <path d="M20.674,13.906c-.14.006-.215-.096-.349-.137-.268-.081-.575-.095-.845-.174-2.633-.773-4.907-2.223-7.009-3.931l-.093-.208c.087-.082.704.385.82.454,1.769,1.058,3.281,2.14,5.228,2.884.426.163.867.312,1.298.464.344.121,1.045.145.951.648Z"/>
  <path d="M33.514,29.389c.043.33.098.429.278.695.303.449,1.434,1.305,1.933,1.613.141.087.299.126.431.194.111.057.156.083.278.139.064.029.243.105.278.139.01.01.016.092.066.14.136.131.419.282.608.28.116-.002.159-.085.207-.096.189-.043.457-.03.6-.121.042-.027.078-.197.228-.103.018.011.146.323.144.382-.005.149-.11.301-.25.356-.642.25-2.154-.496-2.729-.847-.531-.323-1.864-1.304-2.126-1.814-.27-.525-.484-1.163.031-1.606.122-.005-.024.502-.023.578.002.082.045.066.046.07Z"/>
  <path d="M14.601,34.673c-.12.024-.081-.026-.116-.09-.602-1.108-.605-4.331-.532-5.634.01-.172.031-.527.066-.676.078-.331.389-.303.4.027.004.106-.049.21-.051.322-.03,1.659-.075,3.555.095,5.193.03.287.134.567.138.858Z"/>
  <path d="M1.345,38.196c.116-1.252.442-2.472.801-3.671.142-.475.382-1.418.595-1.816.065-.122.17-.264.336-.21.173.056-.004.55-.04.691-.324,1.257-.845,2.563-1.241,3.812-.102.321-.18.793-.309,1.082-.031.07-.048.13-.142.112Z"/>
  <path d="M10.694,38.973c-.007.013-.083-.007-.082.077.005.422.174,1.205.249,1.659.131.794.294,1.617.473,2.401.112.492.311,1.022.409,1.494.017.081.057.108-.038.174-.699-1.339-1.066-2.948-1.306-4.441-.054-.336-.233-1.224-.082-1.489.115-.202.467-.04.378.126Z"/>
  <path d="M7.509,43.016c-.099.019-.108-.046-.142-.113-.268-.532-.406-2.053-.46-2.692-.046-.547-.141-1.474-.093-1.992.015-.154.055-.453.256-.438.048,0,.09.025.119.063.085.112.076,1.209.089,1.441.005.09.043.178.048.277.058,1.152.009,2.313.183,3.455Z"/>
  <path d="M11.16,23.838c.035.035.079.193.056.218-.181-.012-.22.156-.284.295-.627,1.366-.691,3.178-1.027,4.63-.019.081.002.208-.123.176.05-1.393.131-2.839.523-4.182.061-.208.464-1.53.856-1.137Z"/>
  <path d="M11.217,29.25c-.358,1.056-.501,2.247-.602,3.361-.084.927-.141,1.856.002,2.78l-.094.07c-.299-1.145-.256-2.331-.139-3.5.053-.531.26-2.291.6-2.631.068-.068.14-.087.234-.08Z"/>
  <path d="M3.198,38.613l-.371,3.964-.092.068c-.141-1.058-.143-2.247.005-3.308.041-.291.061-.804.458-.725Z"/>
  <path class="cls-1" d="M37.779,31.799c-.065.23-.173.452-.185.695-.047.011-.091.094-.207.096-.189.003-.471-.149-.608-.28-.05-.048-.056-.131-.066-.14.133-.171.28-.395.417-.556.094-.111.237-.209.322-.315.072-.089.303-.539.395-.519.261.056-.016.833-.068,1.019Z"/>
  <path d="M12.794,41.255c-.128-.554-.217-1.127-.278-1.692-.061-.558-.117-1.157-.141-1.717-.006-.131.007-.313.164-.348.212-.023.238.434.253.583.087.861.021,1.733.045,2.597.005.175.15.457-.044.577Z"/>
  <path d="M17.794,41.123c.149.289.08.589.099.897.053.861.02,1.72.06,2.583.002.034.058.179-.037.174-.086-.004-.186-.749-.203-.863-.126-.884-.183-1.831-.185-2.723.033-.099.179-.088.266-.07Z"/>
  <path d="M30.918,21.879c.007,1.238-1.586,1.657-1.066,0h1.066Z"/>
  <path d="M13.442,33.885c-.071.006-.072-.113-.088-.166-.262-.856-.505-3.396-.372-4.258.012-.08.056-.213.158-.213l.113.077c-.113.383-.005.781.006,1.151.023.828.022,1.628.091,2.458.026.315.137.627.092.95Z"/>
  <path class="cls-4" d="M38.242,29.62c-.078.572-.045,1.159-.142,1.735-.025.148-.12.316-.136.49l-.185-.046c.053-.186.329-.964.068-1.019-.092-.02-.324.43-.395.519-.085.106-.228.204-.322.315l-.139-.046c.359-.352.734-1.064.902-1.532.048-.133.097-.275.118-.415.016.009.185.002.232,0Z"/>
  <path d="M8.019,32.031c-.114.114-.096-.204-.094-.257.012-.319.057-.739.101-1.058.028-.207.178-1.146.292-1.238.289-.235.22.298.199.431-.114.713-.368,1.412-.497,2.122Z"/>
  <path d="M33.699,21.787c.018.082-.024.092-.077.131-.13.099-1.432.572-1.559.554-.056-.008-.149-.058-.167-.114-.018-.055-.008-.104.017-.155.102-.207,1.501-.46,1.785-.417Z"/>
  <path d="M14.926,37.408c.014.883.108,1.775.278,2.642-.147.011-.174-.174-.209-.278-.132-.397-.382-1.966-.198-2.285.034-.06.049-.096.129-.079Z"/>
  <path d="M32.633,20.767c.018.092-.044.111-.106.148-.146.087-1.031.387-1.167.363-.131-.023-.144-.133-.109-.248.07-.226,1.142-.395,1.383-.264Z"/>
  <path d="M19.932,37.593c-.023.557.033,1.136,0,1.691-.011.19-.046.62-.095.786-.023.079-.035.134-.136.118.141-.747-.04-1.604.045-2.342.012-.108.047-.264.186-.254Z"/>
  <path d="M37.904,26.709c.317-.097.635.35.338.571-.357.176-.637-.48-.338-.571Z"/>
  <path d="M39.483,27.894c-.154.181-.774-.216-.5-.522.224-.249.662.261.5.522Z"/>
  <path d="M37.21,27.125c.34-.049.577.643.182.629-.347-.013-.525-.579-.182-.629Z"/>
  <path d="M36.093,26.66c.37-.131.567.508.341.621-.295.148-.6-.42-.341-.621Z"/>
  <path d="M37.304,26.549c-.219.218-.621-.222-.399-.491.278-.137.583.308.399.491Z"/>
  <path d="M38.509,28.404c-.25.122-.542-.145-.432-.409.274-.174.575.142.432.409Z"/>
  <path d="M35.171,27.06c-.185.165-.596-.161-.34-.364.236-.188.535.191.34.364Z"/>
  <path d="M35.632,25.87c.205-.051.34.308.077.358-.206.039-.289-.305-.077-.358Z"/>
  <path class="cls-3" d="M36.017,29.203l-.139-.046c.083.011.132.045.139.046Z"/>
  <path class="cls-2" d="M33.792,30.084l2.364,1.205v.603c-.132-.068-.29-.107-.431-.194-.499-.308-1.63-1.164-1.933-1.613Z"/>
  <path class="cls-2" d="M37.13,31.614c-.137.161-.285.385-.417.556-.035-.034-.215-.11-.278-.139.191-.145.385-.296.556-.464l.139.046Z"/>
</svg>