<?xml version="1.0" encoding="UTF-8"?>
<svg id="Layer_1" data-name="Layer 1" xmlns="http://www.w3.org/2000/svg" viewBox="0 0 46.416 46.416">
  <defs>
    <style>
      .cls-1 {
        fill: #d55e00;
      }

      .cls-2 {
        fill: #1d1d1b;
      }

      .cls-3 {
        fill: #572c0d;
      }

      .cls-4 {
        fill: #fff;
      }

      .cls-5 {
        fill: #fed8c1;
      }

      .cls-6 {
        fill: #d86e79;
      }
    </style>
  </defs>
  <g>
    <g>
      <path class="cls-5" d="M1.437,46.416H0V0h46.416v32.969c-.197-.306-.372-.626-.584-.923-.682-.956-1.569-1.598-2.537-2.239-.065-.043-.195-.065-.218-.083-.129-.1-.038-.275-.049-.387-.229-2.267-.444-4.435-.323-6.733.07-.374.014-.802-.044-1.18.608-.312.709-1.407.325-1.925-.103-.139-.531-.387-.696-.394.116-.898-.092-2.077-.455-2.906-1.939-4.416-7.99-4.056-9.306.541-.23.804-.24,1.584-.162,2.412-.383-.102-.788.562-.868.871-.214.818.142,1.379.868,1.726l-.046,8.161c-1.149.341-3.247,1.321-3.986,2.262-1.292,1.644-1.655,3.578-1.857,5.597-.252,2.527-.32,5.576-.187,8.117.009.174.08.347.048.531h-9.83c.102-1.799-.947-3.344-1.153-5.083-.231-1.944.365-4.037-.018-5.964-.161-.812-.647-1.371-.979-2.081-.286-.612-.069-.769-.027-1.361.043-.614.036-1.761-.116-2.345-.03-.117-.165-.317-.162-.393.002-.073.552-1.09.637-1.309.769-1.985.695-3.756.336-5.829.422-.882.969-1.77,1.299-2.691.384-1.072.362-2.35.279-3.481-.039-.536-.164-1.076-.235-1.608-.021-.038-.284-.208-.326-.201-.132.022-1.061.625-1.246.748-.746.496-1.503,1.123-2.161,1.734-.673.625-1.317,1.3-1.834,2.062-.044.044-.088.057-.149.058-.505.003-1.077-.102-1.586-.129-.144-.008-.275.085-.409.008-.441-1.069-1.001-1.977-1.748-2.854-.667-.783-1.062-1.088-2.008-1.517-.323-.146-1.091-.545-1.402-.365-.421.244-.564.931-.656,1.384-.296,1.465-.119,2.71.368,4.102.287.821.745,1.512.732,2.423-.002.12-.45.938-.533,1.183-.4,1.178-.386,2.675-.352,3.918.008.286.102.636.095.924-.013.568-.402,1.195-.5,1.775-.107.635-.086,1.606-.059,2.263.015.364.142.865.132,1.204-.033,1.086-.248,2.089-.178,3.248.034.572.236,1.168.279,1.715.051.65-.081,1.441-.048,2.134.037.749.258,1.519.187,2.269-.073.772-.754,1.689-1.055,2.423-.211.515-.382,1.086-.475,1.635Z"/>
      <path class="cls-1" d="M1.437,46.416c.092-.55.264-1.121.475-1.635.301-.734.981-1.651,1.055-2.423.071-.751-.15-1.521-.187-2.269-.034-.693.099-1.484.048-2.134-.043-.546-.245-1.142-.279-1.715-.07-1.159.145-2.162.178-3.248.01-.339-.117-.84-.132-1.204-.027-.657-.048-1.628.059-2.263.098-.58.488-1.206.5-1.775.006-.288-.087-.638-.095-.924-.035-1.243-.049-2.741.352-3.918.083-.245.531-1.063.533-1.183.012-.911-.445-1.603-.732-2.423-.487-1.392-.665-2.637-.368-4.102.092-.454.235-1.14.656-1.384.311-.18,1.079.219,1.402.365.945.428,1.341.733,2.008,1.517.747.878,1.307,1.786,1.748,2.854.134.077.265-.016.409-.008.509.027,1.081.132,1.586.129.061,0,.105-.014.149-.058.516-.762,1.161-1.437,1.834-2.062.658-.611,1.415-1.238,2.161-1.734.185-.123,1.114-.726,1.246-.748.042-.007.305.162.326.201.07.533.195,1.072.235,1.608.083,1.131.105,2.409-.279,3.481-.33.921-.876,1.809-1.299,2.691.359,2.072.433,3.843-.336,5.829-.085.219-.634,1.236-.637,1.309-.002.075.132.276.162.393.151.585.159,1.731.116,2.345-.042.591-.259.748.027,1.361.332.71.818,1.269.979,2.081.383,1.927-.214,4.02.018,5.964.207,1.739,1.256,3.284,1.153,5.083h-3.524c.038-.229-.039-.457-.048-.67-.06-1.432-.037-3.365.2-4.765.153-.903.564-1.91.631-2.801.008-.11.047-.279-.11-.295-.088.072-.106.179-.14.278-.786,2.272-.942,4.821-.86,7.213l.095,1.041h-2.133c.026-1.718-.027-3.483-.487-5.147-.124-.449-.324-.721-.475-1.102-.025-.062.011-.19-.035-.197-.07-.011-.132.001-.155.077-.045.144.326,1.232.388,1.499.247,1.068.386,2.221.44,3.316.025.517-.05,1.044.047,1.553h-4.08l-.141-1.598c.05-1.219-.122-2.554.21-3.735.191-.681.528-1.367.652-2.084.009-.05.087-.351-.049-.327-.11.007-.147.149-.184.233-.219.488-.472,1.321-.648,1.856-.574,1.739-.244,3.86-.118,5.655h-1.808c-.048-1.576.063-3.182.002-4.755-.064-1.655-.415-2.4-1.055-3.861-.027-.063-.034-.155-.129-.149-.005.688.466,1.289.649,1.948.567,2.044.124,4.363.253,6.471.007.118.053.227.048.346H1.437ZM7.204,19.492c.114-.093.242-.14.35-.232-.029-1.199-.285-2.207-.969-3.194-.364-.526-.887-.942-1.454-1.235-.339-.175-.668-.255-1.052-.249l-.046.118c.978.166,1.898.799,2.43,1.627.571.888.771,1.748.865,2.795-.193.114-.336.336-.375.563.119.08.191-.145.249-.192ZM15.998,14.607c-.096-.007-.186-.005-.28.022-.903.253-2.748,2.32-3.264,3.135-.167.263-.616,1.072-.538,1.354.012.043.591.487.675.587.071.086.12.161.115.28.094.013.076.007.105-.059.139-.317-.492-.729-.712-.899.196-.844.724-1.513,1.278-2.15.735-.845,1.544-1.683,2.592-2.129l.029-.142ZM3.756,14.699c-.26-.054-.288.224-.347.417-.376,1.22.43,4.205,1.049,5.35.034.062.112.233.202.214l.05-.141c-.324-.611-.566-1.231-.745-1.899-.212-.789-.504-2.054-.439-2.851.03-.375.192-.719.231-1.09ZM15.997,15.812l-.139.116c.192,1.369-.272,2.765-.741,4.034-.052.14-.388.784-.325.857.098.021.105-.05.147-.108.399-.55.767-1.774.934-2.451.202-.814.324-1.619.124-2.449ZM7.111,22.658c.296.326.697.214.907-.139l-.877-.679c-.095.272-.26.565-.031.818ZM12.173,21.988l-.746.548c-.043.08.042.178.096.232.525.525,1.268-.314.65-.78ZM10.572,22.443l-1.716-.232c-.006.08-.015.147.078.177.251.079,1.309.181,1.569.148.064-.008.137-.027.069-.092ZM8.81,23.185h1.461c.035,0,.247-.037.325-.047.069-.008.143-.036.069-.092-.608.037-1.225-.133-1.827-.004l-.027.143ZM8.764,23.973h1.646c.03,0,.456-.098.348-.185-.285-.044-.588.041-.856.048-.295.008-.76-.049-1.022-.002-.08.015-.13.05-.116.139ZM6.677,26.059c-.024-.217-.346-.192-.509-.256-.46-.181-.333-.589-.582-.901-.077-.096-.208-.193-.28-.048-.027.054.31.661.325.79.24.422.6.426,1.046.415ZM12.149,26.384c.053.055.402-.225.492-.272.396-.205.913-.256,1.123-.686.092-.187.151-.543-.109-.295-.113.108-.133.291-.304.392-.365.215-1.226.333-1.202.861ZM10.052,25.745c-.044.01-.089.072-.155.081-.235.034-.968-.071-1.09.069-.027.031-.321.697-.324.746-.01.143.108.583.21.673.1.088.756.381.88.369.049-.005.8-.474.833-.513.138-.161.254-.778.201-.982-.044-.17-.364-.484-.555-.442ZM11.731,26.802c-.509.004-.792.97-1.204,1.091-.468.138-1.751.105-2.217-.058-.393-.137-.32-.401-.481-.725-.053-.108-.571-1.035-.735-.864.044.351.367.648.528.979.176.363.202.44.419.786.363.576.321.974,1.122,1.058.26.027,1.121.006,1.315-.158.07-.059.382-.697.459-.839.046-.084.048-.187.096-.275.143-.263.583-.621.674-.81.029-.061.03-.119.024-.184ZM6.491,28.981c.046-.301.242-.65.291-.94.026-.151-.09-.188-.164-.068-.111.181-.246.731-.221.938.008.064.031.139.093.07ZM11.963,28.517c-.262-.003-.026.531.039.68.033.078.085.278.194.247l-.232-.927ZM7.048,28.795l-.14.031-.138.757c.158-.048.326-.741.278-.788ZM11.128,29.583h-.139c-.091.088.19.837.257.974.033.066-.011.117.113.093l-.232-1.067ZM7.419,29.723c-.441.045-.211.774-.417,1.066l.176-.172.241-.894ZM10.503,30.001c-.056.012-.068.109-.074.161-.015.152.191,1.174.305,1.182.105-.068.037-.091.03-.167-.027-.267-.095-.525-.14-.788-.015-.089.039-.422-.121-.388ZM7.697,30.094c-.115-.024-.082.025-.12.086-.154.246-.177.51-.157.794.085-.015.078-.095.099-.156.032-.093.205-.692.179-.725ZM5.286,30.697c-.188-.036-.222.166-.279.3-.269.636-.423,1.387-.555,2.064l.114-.092.72-2.272ZM5.239,33.71c.069-.468.228-.933.294-1.401.045-.318-.142-.156-.223.057-.111.291-.202.97-.164,1.275.008.064.028.138.092.069ZM12.796,32.598h-.137c.005.157-.016.318.011.475.016.096.186.518.313.405l-.187-.88ZM12.566,34.684l-.567-1.681-.128-.08c-.008.07-.049.131-.045.204.01.16.485,1.292.592,1.45.04.06.052.127.148.107ZM6.074,33.247c-.054-.019-.185.02-.185.07v.881c0,.053-.154.287.046.255.019-.02.14-.495.14-.533v-.672ZM11.546,35.287c-.152-.641-.294-1.299-.513-1.921-.07-.198-.176-.133-.186.043-.01.163.476,1.59.583,1.788.035.065-.004.114.116.09ZM8.161,35.705c-.075.002-.166-.017-.232.022-.119.07-.489,1.586-.509,1.81-.01.115.004.232,0,.347l.128-.08.614-2.098ZM8.671,36.307h-.139c-.069.507-.113,1.017-.093,1.53.119.02.084-.017.106-.1.047-.176.188-1.371.125-1.43ZM10.294,37.606l-.163.045c-.061.474,0,.966.071,1.438.084-.017.086-.091.094-.161.049-.44-.139-.887-.002-1.323Z"/>
      <path class="cls-1" d="M40.295,27.497c.647.01.394.083.466.577.022.151.147.304.092.502.108.057.211.24.291.297.36.254.828.507,1.206.742.048.03.294.093.342.123.09.056.096.238.293.171l.093-.186c.023.018.153.04.218.083.969.641,1.855,1.283,2.537,2.239.212.297.387.617.584.923v13.447h-1.901c.005-.119-.042-.228-.048-.346-.084-1.542-.096-3.094-.139-4.637-.043-1.56-.028-3.137-.417-4.66-.649-.122-.301.87-.277,1.227.135,1.999.122,4.02.138,6.029l.187,2.386h-13.401c-.004-.935.004-1.872.002-2.807-.004-1.51.124-3.349,0-4.822-.052-.612-.325-.7-.374,0-.121,1.692.14,3.493-.093,5.193l.002,2.436h-3.756c.032-.184-.039-.358-.048-.531-.133-2.541-.065-5.59.187-8.117.202-2.019.566-3.953,1.857-5.597.739-.94,2.837-1.921,3.986-2.262.568-.169,1.083-.472,1.613-.645.161-.053.354-.062.486-.1.007-.002.127-.083.127-.09v-1.391c.166.029.459-.04.603,0,.017.005.028.085.115.096.594.076,2.704.078,3.296,0,.086-.011.061-.087.098-.095.143-.034.377.016.545-.004.357-.041.746-.188,1.092-.183Z"/>
      <path d="M43.958,46.416l-.187-2.386c-.016-2.01-.003-4.03-.138-6.029-.024-.357-.373-1.349.277-1.227.39,1.523.374,3.099.417,4.66.043,1.543.055,3.095.139,4.637.006.118.053.227.048.346h-.556Z"/>
      <path d="M30.557,46.416h-.464l-.002-2.436c.233-1.701-.028-3.502.093-5.193.05-.7.323-.612.374,0,.125,1.473-.004,3.312,0,4.822.002.936-.006,1.872-.002,2.807Z"/>
      <path d="M12.983,46.416h-.232l-.095-1.041c-.082-2.391.073-4.941.86-7.213.034-.099.052-.206.14-.278.157.016.118.185.11.295-.067.891-.478,1.898-.631,2.801-.237,1.401-.26,3.334-.2,4.765.009.214.087.442.048.67Z"/>
      <path d="M5.982,46.416c-.126-1.795-.456-3.916.118-5.655.177-.535.429-1.368.648-1.856.038-.084.074-.226.184-.233.136-.023.058.277.049.327-.124.716-.461,1.403-.652,2.084-.332,1.181-.16,2.517-.21,3.735l.141,1.598h-.278Z"/>
      <path d="M4.173,46.416h-.232c.005-.119-.041-.228-.048-.346-.128-2.107.315-4.427-.253-6.471-.183-.659-.654-1.26-.649-1.948.095-.006.102.086.129.149.64,1.46.991,2.205,1.055,3.861.061,1.573-.049,3.179-.002,4.755Z"/>
      <path d="M10.34,46.416c-.097-.509-.022-1.036-.047-1.553-.054-1.096-.193-2.248-.44-3.316-.062-.267-.434-1.355-.388-1.499.024-.076.085-.088.155-.077.046.007.01.135.035.197.151.381.351.653.475,1.102.46,1.664.513,3.429.487,5.147h-.278Z"/>
      <path class="cls-6" d="M32.366,19.15c.019.005.049.075.082.091.186.091.409.228.52.407.118.191.122.541.434.523.556-.446.699-1.124,1.024-1.721.107-.079.246-.023.364-.054.669-.171,2.553-1.073,3.07-1.52.075-.065.718-.866.766-.833.337.641.65,1.305,1.013,1.932.174.301.382.664.569.95.112.17.69.994.804,1.061.357.21.499-.673.815-.813.021-.01.438-.071.463-.07.165.006.593.254.696.394.384.518.283,1.613-.325,1.925-.079.04-.433.178-.546.219-.197.071-.919.181-.975.369-.066.221.015.729-.014,1.006-.094.895-.489,1.942-.968,2.699.113.509-.004,1.066.044,1.574.008.087.04.142.095.206-.346-.006-.735.142-1.092.183-.168.019-.402-.03-.545.004-.038.009-.012.084-.098.095-.592.077-2.702.076-3.296,0-.087-.011-.098-.091-.115-.096.056-.064.085-.119.095-.206.026-.24.016-.683,0-.932-.007-.109-.034-.415-.058-.499-.054-.187-.451-.284-.594-.426-.705-.701-.549-2.102-.699-3.011-.045-.27-.174-.802-.485-.859-.264-.049-.766-.016-1.041-.002-.726-.347-1.082-.908-.868-1.726.081-.308.485-.973.868-.871ZM39.17,19.165c-.58-.192-.629.947-.021.765.27-.081.234-.695.021-.765ZM35.227,19.206c-.29.086-.225.701-.001.77.617.189.562-.936.001-.77ZM37.281,20.356c-.29-.061-.35.117-.493.318-.144.203-.264.455-.397.67-.104.167-.553.595-.316.797.114.097.759.059.946.074.194.016.379.144.598.078.164-.049.164-.256,0-.305-.155-.046-.972-.092-1.033-.149.075-.216.83-1.348.695-1.484ZM35.844,26.199c-.098.095.379.403.463.441.764.342,2.36.069,2.965-.513.058-.055.116-.08.095-.181-.053-.079-.109-.085-.197-.062-.21.055-.641.38-.916.477-.574.202-1.23.248-1.806.046-.213-.075-.354-.264-.604-.207Z"/>
      <path class="cls-3" d="M42.289,19.104c-.025,0-.442.061-.463.07-.316.141-.458,1.023-.815.813-.114-.067-.692-.891-.804-1.061-.188-.286-.395-.65-.569-.95-.362-.627-.676-1.291-1.013-1.932-.048-.032-.69.768-.766.833-.517.448-2.402,1.35-3.07,1.52-.118.03-.256-.025-.364.054-.325.597-.468,1.274-1.024,1.721-.312.018-.316-.332-.434-.523-.111-.18-.334-.317-.52-.407-.033-.016-.063-.086-.082-.091-.078-.828-.068-1.608.162-2.412,1.316-4.597,7.367-4.957,9.306-.541.364.829.571,2.008.455,2.906Z"/>
      <path class="cls-3" d="M35.148,27.682c-.144-.04-.437.029-.603,0v1.391c0,.008-.119.088-.127.09-.132.038-.325.047-.486.1-.53.173-1.045.476-1.613.645l.046-8.161c.275-.014.777-.046,1.041.002.312.057.441.589.485.859.15.909-.006,2.31.699,3.011.143.142.54.239.594.426.024.083.051.389.058.499.016.249.026.692,0,.932-.01.087-.039.142-.095.206Z"/>
      <path class="cls-3" d="M42.66,21.423c.059.379.115.807.044,1.18-.121,2.298.094,4.465.323,6.733.011.112-.079.286.049.387l-.093.186c-.197.067-.203-.115-.293-.171-.048-.03-.293-.093-.342-.123-.378-.234-.846-.487-1.206-.742-.08-.056-.183-.24-.291-.297.055-.198-.07-.352-.092-.502-.072-.494.18-.567-.466-.577-.055-.064-.087-.119-.095-.206-.048-.508.07-1.066-.044-1.574.479-.757.874-1.804.968-2.699.029-.277-.052-.786.014-1.006.056-.189.779-.299.975-.369.113-.041.467-.179.546-.219Z"/>
      <path d="M10.052,25.745c.191-.042.511.272.555.442.053.205-.063.821-.201.982-.034.04-.785.508-.833.513-.124.012-.781-.281-.88-.369-.102-.091-.22-.53-.21-.673.003-.049.298-.715.324-.746.123-.14.856-.035,1.09-.069.065-.009.111-.071.155-.081Z"/>
      <path d="M11.731,26.802c.006.065.005.123-.024.184-.09.189-.531.547-.674.81-.048.088-.05.191-.096.275-.077.142-.389.78-.459.839-.194.164-1.055.185-1.315.158-.8-.084-.759-.481-1.122-1.058-.218-.346-.243-.423-.419-.786-.161-.331-.484-.628-.528-.979.164-.171.682.757.735.864.16.324.087.588.481.725.466.163,1.749.196,2.217.058.412-.121.695-1.086,1.204-1.091ZM8.568,28.156l-.221-.034c.148.228.242.58.555.626l-.334-.593ZM10.619,28.147c-.218-.171-.322.757-.607.527l-.111-.249-.16.303c-.199.135-.319-.259-.465-.349l-.139.417,1.196-.055.287-.593ZM9.737,28.193h-.324s.14.278.14.278c.09.064.218-.2.184-.278Z"/>
      <path d="M7.204,19.492c-.057.047-.13.272-.249.192.039-.226.182-.449.375-.563-.095-1.046-.295-1.907-.865-2.795-.532-.828-1.452-1.461-2.43-1.627l.046-.118c.384-.006.713.074,1.052.249.567.293,1.09.709,1.454,1.235.684.988.939,1.995.969,3.194-.108.092-.236.139-.35.232Z"/>
      <path d="M15.998,14.607l-.029.142c-1.047.446-1.856,1.284-2.592,2.129-.554.636-1.082,1.306-1.278,2.15.219.17.851.582.712.899-.029.066-.01.072-.105.059.005-.119-.044-.194-.115-.28-.083-.101-.663-.544-.675-.587-.078-.282.371-1.091.538-1.354.516-.815,2.361-2.882,3.264-3.135.094-.026.184-.028.28-.022Z"/>
      <path d="M3.756,14.699c-.038.371-.201.715-.231,1.09-.064.797.228,2.063.439,2.851.179.667.422,1.288.745,1.899l-.05.141c-.091.019-.169-.152-.202-.214-.619-1.145-1.425-4.13-1.049-5.35.059-.193.088-.471.347-.417Z"/>
      <path d="M15.997,15.812c.2.83.078,1.635-.124,2.449-.168.676-.536,1.901-.934,2.451-.042.057-.048.129-.147.108-.063-.073.274-.717.325-.857.469-1.269.933-2.666.741-4.034l.139-.116Z"/>
      <path d="M7.111,22.658c-.229-.253-.064-.546.031-.818l.877.679c-.21.354-.611.465-.907.139Z"/>
      <path d="M12.173,21.988c.619.465-.124,1.305-.65.78-.054-.054-.139-.152-.096-.232l.746-.548Z"/>
      <path d="M12.149,26.384c-.024-.528.836-.646,1.202-.861.171-.101.19-.283.304-.392.26-.248.201.107.109.295-.21.43-.727.48-1.123.686-.09.047-.44.327-.492.272Z"/>
      <path d="M8.161,35.705l-.614,2.098-.128.08c.004-.115-.01-.232,0-.347.02-.224.39-1.739.509-1.81.067-.04.158-.021.232-.022Z"/>
      <path d="M6.677,26.059c-.446.012-.805.008-1.046-.415-.015-.13-.352-.736-.325-.79.071-.146.203-.048.28.048.25.312.123.72.582.901.163.064.485.039.509.256Z"/>
      <path d="M5.286,30.697l-.72,2.272-.114.092c.132-.677.286-1.428.555-2.064.057-.134.091-.336.279-.3Z"/>
      <path d="M11.546,35.287c-.12.024-.081-.025-.116-.09-.107-.198-.593-1.625-.583-1.788.01-.176.116-.241.186-.043.219.622.361,1.28.513,1.921Z"/>
      <path d="M12.566,34.684c-.095.02-.108-.047-.148-.107-.107-.158-.582-1.29-.592-1.45-.005-.073.036-.135.045-.204l.128.08.567,1.681Z"/>
      <path d="M8.81,23.185l.027-.143c.602-.129,1.219.041,1.827.004.075.057,0,.084-.069.092-.078.009-.29.047-.325.047h-1.461Z"/>
      <path d="M8.764,23.973c-.014-.089.036-.124.116-.139.262-.048.727.009,1.022.002.268-.007.571-.092.856-.048.108.087-.317.185-.348.185h-1.646Z"/>
      <path d="M5.239,33.71c-.065.069-.084-.005-.092-.069-.039-.305.053-.984.164-1.275.081-.213.268-.375.223-.057-.066.467-.225.933-.294,1.401Z"/>
      <path d="M10.572,22.443c.068.065-.005.084-.069.092-.259.033-1.318-.069-1.569-.148-.093-.029-.084-.097-.078-.177l1.716.232Z"/>
      <path d="M8.671,36.307c.062.059-.079,1.254-.125,1.43-.022.083.013.12-.106.1-.021-.514.024-1.023.093-1.53h.139Z"/>
      <path d="M10.503,30.001c.159-.033.106.3.121.388.045.263.113.521.14.788.008.076.075.099-.03.167-.114-.008-.32-1.03-.305-1.182.005-.052.018-.149.074-.161Z"/>
      <path d="M10.294,37.606c-.138.436.051.883.002,1.323-.008.069-.01.143-.094.161-.07-.473-.133-.964-.071-1.438l.163-.045Z"/>
      <path d="M6.074,33.247v.672c0,.038-.12.514-.14.533-.2.032-.046-.202-.046-.255v-.881c0-.049.132-.088.185-.07Z"/>
      <path d="M6.491,28.981c-.063.069-.086-.006-.093-.07-.025-.207.11-.757.221-.938.074-.12.189-.083.164.068-.049.29-.245.639-.291.94Z"/>
      <path d="M11.128,29.583l.232,1.067c-.124.024-.081-.027-.113-.093-.067-.136-.348-.886-.257-.974h.139Z"/>
      <path d="M12.796,32.598l.187.88c-.127.113-.297-.309-.313-.405-.027-.157-.006-.318-.011-.476h.137Z"/>
      <path d="M7.419,29.723l-.241.894-.176.172c.207-.292-.024-1.021.417-1.066Z"/>
      <path d="M11.963,28.517l.232.927c-.108.031-.16-.169-.194-.247-.064-.15-.301-.683-.039-.68Z"/>
      <path d="M7.697,30.094c.026.033-.147.631-.179.725-.021.061-.014.141-.099.156-.02-.284.003-.549.157-.794.038-.061.005-.111.12-.086Z"/>
      <path d="M7.048,28.795c.049.047-.12.74-.278.788l.138-.757.14-.031Z"/>
      <path d="M37.281,20.356c.135.135-.621,1.268-.695,1.484.061.058.878.104,1.033.149.165.049.164.256,0,.305-.22.066-.404-.062-.598-.078-.187-.016-.832.023-.946-.074-.237-.202.213-.631.316-.797.133-.215.253-.466.397-.67.143-.201.203-.38.493-.318Z"/>
      <path d="M35.844,26.199c.25-.057.391.133.604.207.576.202,1.233.155,1.806-.046.275-.097.706-.422.916-.477.088-.023.144-.017.197.062.02.101-.038.126-.095.181-.605.583-2.201.855-2.965.513-.084-.038-.562-.346-.463-.441Z"/>
      <path d="M35.227,19.206c.561-.167.616.959-.001.77-.224-.069-.289-.684.001-.77Z"/>
      <path d="M39.17,19.165c.213.07.249.685-.021.765-.608.181-.559-.957.021-.765Z"/>
      <path class="cls-1" d="M10.619,28.147l-.287.593-1.196.055.139-.417c.146.091.266.485.465.349l.16-.303.111.249c.285.229.389-.698.607-.527Z"/>
      <path class="cls-1" d="M8.568,28.156l.334.593c-.313-.046-.407-.398-.555-.626l.221.034Z"/>
      <path class="cls-4" d="M9.806,28.193c-.019.194-.042.301-.149.426l-.296-.426h.445Z"/>
      <path class="cls-4" d="M9.13,28.193c.033.078-.035.325-.106.433l-.218-.432h.324Z"/>
      <path class="cls-4" d="M10.316,28.193c.033.078-.104.325-.175.433l-.218-.432h.393Z"/>
    </g>
    <g>
      <path d="M23.195,10.655l-6.607-.01c-.033.041.043.107.071.143.509.644,1.306,1.228,1.814,1.878.149.19.327.411.139.637-.224.27-.44.111-.638-.07-.652-.594-1.818-1.774-2.337-2.462-.1-.133-.218-.27-.21-.446.012-.233.207-.266.329-.407.727-.835,1.455-2.063,2.217-2.802.44-.426.928-.039.53.56-.435.655-1.076,1.343-1.568,1.984-.04.052-.091.089-.146.122l.138.07c1.642.009,3.287-.06,4.928-.044.331.003,1.511.031,1.857.097"/>
      <path d="M23.221,10.655l6.607-.01c.033.041-.043.107-.071.143-.509.644-1.306,1.228-1.814,1.878-.149.19-.327.411-.139.637.224.27.44.111.638-.07.652-.594,1.818-1.774,2.337-2.462.1-.133.218-.27.21-.446-.012-.233-.207-.266-.329-.407-.727-.835-1.455-2.063-2.217-2.802-.44-.426-.928-.039-.53.56.435.655,1.076,1.343,1.568,1.984.04.052.091.089.146.122l-.138.07c-1.642.009-3.287-.06-4.928-.044-.331.003-1.511.031-1.857.097"/>
    </g>
  </g>
  <path class="cls-2" d="M35.853,24.486c.196-.297.349-.726.642-.937.274.294.576.559.824.88l-.135.006c.215-.385.496-.717.782-1.043.254.338.587.702.685,1.119-.331-.162-.597-.423-.844-.671,0,0,.302.002.302.002-.257.28-.536.546-.854.769-.322-.206-.596-.469-.885-.713l.239-.013c-.169.215-.519.437-.728.626-.015.013-.04-.007-.029-.024h0Z"/>
</svg>