<?xml version="1.0" encoding="UTF-8"?>
<svg id="Layer_1" data-name="Layer 1" xmlns="http://www.w3.org/2000/svg" viewBox="0 0 47.059 47.075">
  <defs>
    <style>
      .cls-1 {
        fill: #fed8c1;
      }

      .cls-2 {
        fill: #d23647;
      }

      .cls-3 {
        fill: #fa8b96;
      }
    </style>
  </defs>
  <rect class="cls-1" y=".016" width="47.059" height="47.059"/>
  <rect class="cls-3" x="21.536" y="29.723" width="13.12" height="10.726"/>
  <rect class="cls-2" x="16.567" y="16.068" width="1.762" height="2.785"/>
  <rect class="cls-2" x="13.561" y="9.357" width="9.195" height="7.954"/>
  <g>
    <path class="cls-3" d="M42.454.051c-3.329,1.84-6.466,4.277-9.431,6.787-2.574,1.846-4.339,4.688-5.133,7.707-.455,1.595-1.54,2.724-2.661,3.849-1.814,1.795-2.994,4.296-4.117,6.42-1.37,1.129-2.024-1.578-1.948-2.563.156-1.45.755-2.824,1.256-4.146-.024-.416-.477.014-.645.176-3.037,3.101-6.379,5.96-9.553,8.806-.903.717-1.81,2.294-3.15,1.833-.265-.148-.399-.453-.393-.77.007-.648.303-1.335.694-1.849,2.103-2.807,4.619-5.29,6.907-7.877.308-1.061-1.362.83-1.589.953-2.519,2.163-5.054,4.382-7.57,6.506-.387.441-1.095.751-1.609.433-1.02-1.003-.229-1.987.56-2.809,2.346-2.683,4.652-5.512,7.355-7.896.21-.187.396-.483-.014-.292-2.913,2.093-5.778,4.363-8.689,6.579-.9.83-2.067.059-1.798-1.086.4-1.278,1.625-1.947,2.479-2.896,2.247-2.286,4.639-4.574,6.881-6.713-1.523.495-3.493,1.883-5.091,2.64-.484.29-.943.568-1.444.411-.662-.387-.651-1.175-.268-1.733,2.562-2.311,5.724-4.156,8.548-6.204,2.218-1.487,4.383-3.248,7.125-3.768,2.208-.336,4.356-.958,6.086-2.412.233-.178.175-.128.331-.134h.473c4.668.008,12.115-.021,16.456.013l-.048.034ZM19.014,10.662c.592-.46-.071-.944-.612-.871-.063.084-.31.127-.334.204-.028.092-.032.33-.013.423.006.03.232.19.263.237.038.056.008.162.082.225.168.142.217-.03.232-.036.133-.059.249-.078.382-.182ZM17.377,10.284c-.23-.148-.625-.186-.887-.11-.015.004-.219.204-.222.219-.016.081-.016.321,0,.402.004.022.297.303.318.312.017.008.336.099.361.102.16.019.433-.073.526-.207.023-.033.01-.103.032-.157.007-.016.069-.017.077-.049.04-.16-.066-.422-.205-.511ZM20.862,10.467c-.073-.028-.396-.03-.485-.018-.08.01-.055.071-.106.094-.034.015-.096-.005-.135.019-.016.01-.206.221-.207.243-.032.451.4.565.779.493.205-.039.206-.21.265-.337.037-.079.143-.05.087-.286-.003-.014-.184-.203-.198-.208ZM15.69,10.843c-.079-.03-.556-.03-.634,0-.013.005-.195.194-.198.208-.039.186.029.424.201.513.2.105.428.105.628,0,.172-.09.24-.328.201-.513-.003-.014-.184-.203-.198-.208ZM22.27,11.69c-.205-.075-.71-.022-.908.097-.189.114-.227.243-.306.413-.02.043-.08.04-.087.071-.046.198.026.58.097.776.014.04.07.036.084.075.052.139.243.731.344.777.276.124.523-.052.681-.266.025-.034.283-.463.293-.492.084-.231.106-.543.196-.774.017-.043.092-.039.093-.062.001-.113-.19-.454-.299-.523-.039-.024-.101-.004-.135-.019-.045-.02-.044-.071-.053-.074ZM15.122,11.974c-.236-.125-.526-.153-.77-.031-.223.112-.324.426-.234.659.008.02.283.285.304.291.151.043.465.058.607-.013.021-.01.297-.303.301-.334.02-.157-.059-.494-.207-.572ZM14.845,13.378c-.408-.224-1.049-.152-.928.426.015.073.36.296.449.313.225.042.191-.062.223-.075.091-.037.177-.013.25-.126.041-.062-.025-.166.113-.199l-.107-.34ZM21.799,15.236c.179-.524-.486-.745-.893-.645-.033.008-.024.073-.069.091-.042.017-.133-.013-.15.003s.013.108-.003.15c-.018.045-.082.035-.091.069-.062.236.204.457.413.516.173.049.378.072.55.018.026-.008.238-.188.243-.203ZM15.03,14.793c-.184-.068-.82-.019-.911.186-.084.19-.106.42-.011.607.019.037.538.566.575.585.072.037.877.287.925.279.047-.008.123-.067.18-.082.021-.108.018-.224-.005-.332-.036-.167-.327-.482-.35-.589-.05-.225.043-.397-.215-.561-.039-.024-.101-.004-.135-.019-.045-.02-.044-.071-.053-.074ZM21.238,16.202c-.078-.03-.462-.03-.54,0-.02.008-.288.281-.292.302-.043.205.023.404.205.51.173.101.407.162.607.113.031-.007.024-.066.07-.09.031-.016.102.011.14-.012.085-.051.124-.416.102-.521-.004-.021-.272-.294-.292-.302ZM17.192,16.928c.144-.423-.346-.736-.705-.645-.031.008-.033.07-.049.076-.055.021-.121.009-.157.032-.143.09-.138.356-.107.514.032.165.621.246.775.225.02-.003.237-.188.242-.203ZM17.569,17.708c-.421-.161-.673.551-.254.815.035.022.103.009.158.031.016.006.017.068.049.076.228.06.21-.049.287-.087.181-.089.297-.036.281-.343-.017-.321-.248-.328-.491-.43-.016-.007-.018-.058-.029-.062Z"/>
    <path class="cls-3" d="M7.608,46.978c2.309-2.087,4.686-4.439,6.625-6.897,1.942-2.621,2.714-5.76,3.667-8.754.404-.866.944-1.522,1.553-2.261,1.855-2.104,2.896-4.284,3.886-6.731.357-.585.473-1.682,1.35-1.536.547.122.906.623,1.112,1.164.793,1.642.206,3.508-.236,5.201-.135.446-.307.867-.407,1.291-.003.114.056.178.192.164,3.762-4.04,7.675-8.322,11.558-12.355.746-.834,2.51-1.385,2.499.262-.46,2.598-2.871,4.604-4.151,6.768-1.038,1.348-2.291,2.728-3.292,4.109-.126.144-.202.318-.114.459.227.26.41-.218.606-.375,2.995-2.918,5.885-5.984,8.844-8.943.395-.376,1.255-.808,1.662-.532.579.45.905,1.415.389,2.065-2.232,3.171-8.14,10.088-8.299,10.659.018.075.149.038.282-.084.54-.418,1.121-.908,1.636-1.391,2.17-2.073,4.65-3.975,6.774-6.071.354-.378.918-.722,1.364-.856.245-.069.502.062.744.278,1.372,1.661-.995,3.351-1.984,4.555-2.253,2.567-4.457,5.275-6.832,7.699-.111.16-.228.35.122.174,1.707-1.062,3.564-2.247,5.262-3.424.312-.194.689-.403,1.055-.401.999.079,1.083,1.341.623,2.019-.167.263-.696.742-.971,1.001-3.116,2.609-6.253,5.127-9.42,7.69-1.52,1.216-3.044,2.372-4.742,2.992-1.831.678-3.79.973-5.511,1.932-.479.348-.312.131-.814.189-4.282-.01-11.096.027-15.073-.017l.038-.044ZM25.183,35.297c.019-.306.12-.79.477-.937.178-.119.282-.343.432-.246.173.122.355.43.616.484.184.002.256-.267.352-.373.171-.185.768.044.979-.096.195-.075.263-.337.456-.214.074.411-.14.971-.173,1.412-.08.439.104.721.236,1.092.185.569.255,1.15.642,1.647.129.157.785,1.181.771.518-.449-.925-1.204-1.975-1.27-3.038.039-.355.083-1.037.275-1.39.074-.003.016.411-.066.75-.251.908.299,1.48.84,2.105.9.923,1.031.482.172-.347-.603-.584-.921-1.654-.482-2.367.133-.137,1.119.182,1.419.412.11.283.013.862.061,1.253-.061,1.455.772,2.715,1.414,3.971,1.299,1.199-1.081-2.564-.985-2.776-.028-.446-.066-1.564-.09-2.022-.028-.267.012-.353.1-.322.4.502-.031,2.094.509,2.659.642.528,1.367,1.036,2.058,1.399.442-.019.004-.404-.283-.624-.49-.461-1.364-.743-1.598-1.389-.032-.261-.098-.802-.15-1.222-.044-.431-.127-.668.049-.676.377-.009.958.427,1.409.192.288-.166.51-.473.532-.723.008-.278-.112-.316-.483-.487-.596-.304-1.931-.906-2.442-1.194.458-.243,3.855.363,3.409-.74-.244-.357-.897-.403-1.308-.376-1.226-.045-2.744.338-3.884.045.311-.067,3.678-.242,4.027-.318.213-.203.268-.562.164-.858-.061-.162-.184-.262-.354-.293-1.652.083-3.467.484-5.067.808-.248.063-.427-.073-.747-.097-.347.01-.688.127-.958.349-.195.143-.348.383-.485.386-.224-.031-.525-.873-.798-1.263-.515-.814-.654.375-.901.697-.107.055-.315-.201-.514-.206-.146-.014-.291.097-.373.254-.182.302-.043.814-.091,1.09-.008.245-.493.035-.603.307-.1.203.256.284.473.425.33.369.196.99.195,1.458-.017.309-.393.334-.731.373-.343.048-.413.295-.158.355,1.652.263,1.397-.863,1.336-1.977.08-.234.432-.143.545-.409.113-.265.172-.576.325-.404.368.302.562.586.403,1.107-.017.288.133.576.087.87-.032.228-.082.498-.172.669-.119.264-.591.043-.821.188-1.151.761.285,2.027,1.218,1.992.084-.029.252-.087.336-.116.375-.231.311-.756.218-.965-.021-.183-.428-.475-.526-.683l-.021-.119Z"/>
    <path class="cls-2" d="M22.314,11.668c.469.189.494.725.287,1.175-.116.418-.385.969-.9,1.066-.43-.031-.595-.655-.732-1.075-.242-.765.51-1.309,1.227-1.196l.119.03Z"/>
    <path class="cls-2" d="M15.049,14.795c.337.094.387.632.579.939.169.256.231.587.082.676-.114.094-.541-.055-.846-.16-.907-.372-1.272-1.595.084-1.48l.102.026Z"/>
    <path class="cls-2" d="M17.425,10.317c.404.437-.11,1.06-.663.855-.519-.136-.732-.738-.264-.987.24-.073.676-.04.841.067l.085.065Z"/>
    <path class="cls-2" d="M15.163,11.999c.63.723-.661,1.368-1.048.576-.2-.57.562-.855.973-.626l.075.05Z"/>
    <path class="cls-2" d="M18.985,10.701c-.147.048-.396.282-.553.178-.219-.225-.68-.852-.157-1.04.423-.258,1.316.289.801.782l-.091.079Z"/>
    <path class="cls-2" d="M21.789,15.274c-.368.516-1.703-.081-.992-.628.32-.213,1.146.028,1.037.533l-.044.096Z"/>
    <path class="cls-2" d="M21.271,16.218c.669.487-.031,1.243-.674.782-.529-.439.102-.925.599-.812l.074.03Z"/>
    <path class="cls-2" d="M20.914,10.491c.28.172.117.698-.21.797-1.233.163-.829-1.031.133-.833l.077.037Z"/>
    <path class="cls-2" d="M17.171,16.967c-.175.307-1.261.187-.979-.426.254-.514,1.104-.19,1.022.331l-.043.095Z"/>
    <path class="cls-2" d="M17.577,17.709c.036.078.525.156.509.499.023.315-.335.425-.52.418-.521-.042-.686-.932-.051-.942l.062.025Z"/>
    <path class="cls-2" d="M15.735,10.867c.465.369-.227,1.03-.685.682-.287-.173-.233-.633-.003-.687.137-.079.531-.035.618-.031l.07.036Z"/>
    <path class="cls-2" d="M14.888,13.416c.136.25-.002.557-.261.65-.134.163-.809-.077-.732-.466.182-.394.549-.373.916-.261l.077.078Z"/>
    <path d="M24.822,35.181l.002-.16c.121-.312.241-.701.183-1.036-.041-.24-.235-.394-.106-.721.021-.054.09-.058.109-.091.145-.257-.346-.653-.529-.817-.031-.028-.068-.183-.13-.06l-.197.667-.477.063c-.206.065.002.491.018.626.051.419.092,1.399-.453,1.478-.178.026-.75.047-.929.036-.182-.012-.289-.122-.167-.286.181-.244.88.015,1.104-.263-.1-.432.078-1.184-.084-1.564-.095-.225-.651-.179-.693-.351-.061-.251.207-.384.443-.339.084.016.173.153.238.047.072-.118-.07-.811-.023-1.057.006-.033.15-.33.173-.357.301-.358.618.094.859.284.059-.399.201-.807.386-1.165.047-.027.14-.018.192,0,.251.087.789,1.435,1.045,1.682l.449-.49c.42-.244.665-.433,1.185-.344.121.021.341.174.378.168.034-.006.074-.063.117-.072,1.287-.267,2.583-.516,3.884-.677.326-.04,1.051-.245,1.344-.112.351.16.299.899.063,1.142l-4.105.291c-.076.058,0,.085.069.094.304.039.807.009,1.131.002,1.085-.025,2.205-.158,3.289-.133.762.017,1.262.828.365.966-.208.032-.562.049-.786.06-.772.039-1.555.018-2.329.046l2.948,1.423c.067.081.083.322.06.425-.009.039-.078.037-.093.065-.157.319-.268.452-.612.606-.143-.03-.35-.053-.48-.088-.253-.069-.543-.235-.815-.267-.095-.011-.059,0-.068.068l.258,2.094c.18.08.297.228.452.347.472.364,1.114.731,1.525,1.154.174.179.111.165.02.377-.419-.232-.824-.506-1.217-.779-.214-.149-1.008-.663-1.105-.822-.058-.096-.082-.244-.117-.353l-.152-2.152-.228-.077.107,2.455,1.441,2.852-.201.094c-.41-.284-.516-.757-.718-1.164-.265-.534-.511-1.077-.774-1.613-.218-.443-.114-.612-.134-1.099-.005-.111-.047-.214-.051-.325-.014-.444.02-.892-.005-1.335l-1.471-.433c-.105.435-.237.877-.204,1.332.203.265.289.611.485.878.097.132.987.975.866,1.131-.108.14-.437-.189-.542-.28-.43-.377-.819-.857-1.054-1.353-.033-.071-.105-.182-.121-.245-.092-.372.196-1.116.213-1.528l-.094-.049c-.071.056-.29,1.419-.27,1.586.059.495.379,1.052.541,1.529.064.189.013.123.12.305.166.283.68.916.682,1.189.001.176-.107.224-.25.115l-.771-1.026c-.239-.489-.333-1.041-.499-1.559-.039-.124-.174-.305-.199-.412-.091-.399.21-1.331.224-1.777.003-.094-.031-.168-.049-.256-.112-.079-.309.382-.407.415-.192.066-.99-.103-1.05-.04.04.201-.071.522-.305.522-.257,0-.488-.589-.728-.71-.115.284-.249.637-.611.47.054.16-.054.259-.082.365-.041.158-.061.42-.107.575-.032.11-.152.461-.204.548-.014.023-.128.149-.171.11v-.846ZM25.95,33.018c.146-.263.043-.15-.086-.312-.425-.536-.688-1.273-1.066-1.85-.025-.063-.104-.027-.132-.002-.036.031-.206.752-.191.802.04.136.568.636.697.802.07.089.247.445.27.459.058.036.384-.019.509.101ZM23.918,31.623c-.045-.02-.083-.018-.129-.016-.08.29-.123.541-.094.847l.145-.028c.036-.199.329-.693.079-.803ZM26.702,34.052c.164-.255-.213-.778-.418-.437-.025.099.19.276.278.364.045.045.057.093.139.073Z"/>
    <path class="cls-2" d="M24.822,35.22c.023.129-.04.65.05.719.08.117.237-.292.285-.439.733.328.773.685.694,1.142-.075.495-.745.664-1.1.457-.376-.163-.849-.393-1.069-.798-.356-.758.253-1.429,1.047-1.141l.094.061Z"/>
    <path class="cls-3" d="M25.95,33.018c-.125-.12-.45-.065-.509-.101-.023-.014-.2-.369-.27-.459-.129-.165-.657-.666-.697-.802-.015-.051.155-.771.191-.802.028-.025.108-.061.132.002.378.577.641,1.314,1.066,1.85.129.162.232.049.086.312Z"/>
    <path class="cls-3" d="M23.918,31.623c.25.11-.043.604-.079.803l-.145.028c-.029-.306.014-.557.094-.847.047-.003.084-.004.129.016Z"/>
    <path class="cls-3" d="M26.702,34.052c-.082.02-.095-.029-.139-.073-.088-.088-.303-.264-.278-.364.204-.341.581.182.418.437Z"/>
  </g>
</svg>