<?xml version="1.0" encoding="UTF-8"?>
<svg id="Layer_1" data-name="Layer 1" xmlns="http://www.w3.org/2000/svg" viewBox="0 0 46.946 46.946">
  <defs>
    <style>
      .cls-1 {
        fill: #9f4d56;
      }

      .cls-2 {
        fill: #d55e00;
      }

      .cls-3 {
        fill: #9e4c54;
      }

      .cls-4 {
        fill: #fed8c1;
      }

      .cls-5 {
        fill: #e69f00;
      }

      .cls-6 {
        fill: #9e4d56;
      }

      .cls-7 {
        fill: #fdfdfd;
      }
    </style>
  </defs>
  <rect class="cls-4" width="46.946" height="46.946"/>
  <path class="cls-2" d="M46.946,4.102v1.215c-8.621-.145-17.338.074-25.94-.017-1.185-.013-2.481-.222-3.67-.084-.207.024-.397.092-.494.292.074.543.067,1.081.07,1.628,0,.186-.049,3.066-.049,3.08-.131-.083-.261-.146-.392-.192-.635-.222-1.278-.046-2.044.149h0c.052-.767.063-4.857.149-5.61.04-.359.085-.703.494-.757,1.293-.169,2.767.072,4.062.085,6.589.069,13.173.099,19.767.15,2.622.215,5.337.138,8.047.059Z"/>
  <g>
    <path d="M32.783,12.965c-.003-.256.009-1.714-.131-1.811l-4.03.247v-3.853c-.365-.182-.768-.286-1.166-.361-.253-.048-1.116-.212-1.264-.055-.097.103-.128.405-.141.552-.108,1.257.078,2.663.041,3.929l-4.968.482c-.042.825.056,1.637.149,2.454l.103.105,4.677-.376.079,4.782c.03.094.137.145.229.153.099.009.8-.105,1.363-.211.378-.071.695-.14.728-.167.058-.049.09-.105.097-.181l.011-1.587.021-2.962c.036-.052.636-.121.768-.134.969-.094,2.016-.088,2.976-.217.711-.095.462-.308.455-.788ZM32.434,13.269l-4.164.383-.118,3.932-.026.853-.105.103-.219.032-1.263.186v-4.928c-.151.019-.302.036-.454.053-.135.016-.272.03-.408.045-.435.047-.871.089-1.307.129-.122.012-.244.023-.366.034-.308.029-.617.056-.924.085-.004,0-.009,0-.013.002-.052.005-.105.009-.157.016-.094.009-.188.02-.282.03-.274.03-.548.06-.822.081-.065.005-.131.009-.196.013v-.556c-.063-.287-.075-.469-.069-.764l-.07-.625c.027-.002.054-.002.081-.002.059,0,.12,0,.18,0,.07.002.142.004.213.005.097.002.194.002.289-.004,1.006-.069,2.015-.197,3.02-.277.457-.037.948.112,1.346-.15l.007-4.293h1.562c.015,0,.078-.104.103-.07-.013.566.019,1.137.004,1.704-.016.581.002,1.559-.067,2.084-.011.088-.268.235-.144.516l4.303-.347v1.423c0,.047.132.208.064.307Z"/>
    <path class="cls-5" d="M22.236,12.372c1.006-.068,2.015-.197,3.02-.277.457-.036.948.112,1.346-.15l.007-4.293h1.562c.015,0,.079-.104.103-.069-.013.566.018,1.137.004,1.703-.015.582.002,1.559-.067,2.084-.012.088-.268.235-.144.516l4.304-.347v1.423c0,.047.132.208.064.307l-4.164.383-.144,4.784-.105.104-1.482.218v-4.928c-1.153.142-2.314.24-3.471.347.04-.201-.109-.15-.24-.138-.371.033-.74.223-1.149.139.059-.175-.046-.309-.069-.417-.063-.287-.075-.469-.069-.764.003-.162-.003-.325,0-.486.23-.013.53.074.694-.138Z"/>
  </g>
  <g>
    <path class="cls-7" d="M15.787,36.345c.001-1.092.12-2.68.234-3.789.067-.651.635-.368,1.124-.436,1.796-.253,3.598-.704,5.407-.92.341-.041.764-.112,1.078-.018.091.065.059,1.959.049,2.238-.067,1.856-.215,3.724-.316,5.581-.06,1.101-.114,2.204-.153,3.306l-.216.109c-2.085.151-4.257.784-6.319.948-.356.028-.714,0-1.07.013-.257-.245-.059-.568-.052-.824.019-.718,0-1.432.079-2.147.473.018,1.122.042,1.581-.02.342-.046,1.648-.534,1.876-.757.115-.112.162-.39.047-.462-.101-.064-.38.082-.379-.087.216-.005,1.225-.579.861-.823l-.47-.114c.227-.04.628-.454.622-.667l-.27-.27-.665.232c-.012-.113.109-.067.182-.173.213-.309.345-.641-.001-.911-.169-.053-1.327.517-1.625.618-.32.108-1.296.497-1.533.181.035-.258-.07-.599-.07-.808Z"/>
    <path class="cls-2" d="M46.946,35.558v1.555c-5.919-.032-23.115-.066-23.115-.066.011-.518-.024-1.045,0-1.562l23.115.072Z"/>
    <g>
      <path class="cls-5" d="M23.6,46.697c-.002.083-.004.166-.006.249h-14.873c.241-1.965.443-3.936.583-5.914,0-.012-.006-.284,0-.386.03-.462-.091-1.264,0-1.645.034.018.063.041.088.066.101.095.157.223.259.249,1.133.286,3.12.75,4.182.779.444.013.462.148.58.163.426.053.825.135,1.217.149-.08.715-.059,1.429-.079,2.147-.006.257-.205.58.052.825.356-.013.715.015,1.071-.013,2.062-.164,4.234-.797,6.319-.948l.216-.11c.038-1.102.093-2.206.153-3.306.078-.282.192-.354.39-.547.16,2.681-.088,5.524-.153,8.243Z"/>
      <g>
        <path d="M17.193,10.414c-.005.109.269.774.333.838.29.29,1.015.267,1.285.862.201.441-.017,1.593-.447,1.893-.006-.009-.153-.005-.19-.08-.192-.383-.398-1.015-.752-1.282-.227-.171-1.505-.569-1.736-.498-.171.053-.685.604-.889.753-.392.286-.808.496-1.237.715-.051.526-.21,1.873-.854,1.958-.55.072-1.399-.157-1.839.387-.461-1.066-.76-2.391-.351-3.514.407-1.116,1.393-1.96,2.585-2.101.323-.038.679.038.989-.026.245-.05.529-.294.838-.373.923-.235,1.498-.018,2.265.469Z"/>
        <path d="M11.335,17.131c.332-.034.727.156,1.062.226.218.045.489-.073.663.118.213.271-.019,1.293-.008,1.687-.742.962-2.24,1.217-2.764-.087-.318-.79.176-1.855,1.045-1.943Z"/>
        <g>
          <path class="cls-1" d="M15.787,36.345c0,.209.105.55.07.808.237.315,1.213-.073,1.533-.181.298-.101,1.456-.671,1.625-.618.346.271.214.603.001.911-.073.106-.194.06-.182.173,0,0,.489-.228.665-.232.217-.005.27.27.27.27.005.213-.395.627-.622.667l.47.114c.364.244-.645.818-.861.823,0,.169.279.023.379.087.115.072.068.35-.047.462-.229.223-1.534.711-1.876.757-.459.062-1.108.038-1.581.02-.391-.015-.791-.097-1.216-.15-.117-.015-.135-.15-.58-.162.055-.157-.14-.144-.155-.21-.03-.136-.01-.38,0-.532.039-.626.212-1.503.311-2.148.206-.133.519-.157.718-.242.101-.043.377-.273.473-.327.192-.106.415-.177.605-.29Z"/>
          <g>
            <path class="cls-3" d="M18.364,14.007c-.006-.009-.153-.005-.19-.08-.192-.383-.398-1.015-.752-1.282-.227-.171-1.505-.569-1.736-.498-.171.052-.685.605-.889.753-.392.286-.808.497-1.238.716-.052.527-.21,1.873-.854,1.958-.551.072-1.399-.157-1.839.387-.34.419.12.937.469,1.171.332-.034.726.156,1.062.226.218.045.49-.073.663.118.213.27-.019,1.293-.007,1.686.003.126.045.345.077.469.049.184.146.345.292.466.41-.103.738.123,1.073.162.54.063,1.839.061,2.251-.31.107-.096.178-.312.368-.473.789-.671,1.418-.966,1.622-2.167.07-.41-.185-3.022-.372-3.301ZM15.739,15.64c-.426.139-.43-.478-.223-.538.293-.085.505.446.223.538ZM17.036,19.396c-.391.005-1.109.077-1.092-.467.052-.052,1.289.297,1.092.467ZM16.334,17.756c.545.159.723.465,1.286.077l.118.194c-.376.578-1.318.415-1.404-.271ZM17.966,16.299c-.069.213-.929.345-1.163.364-.06-.398.426-.383.702-.469.099-.131-.612-.587-.468-.858.21-.202,1.022.674.93.963ZM18.079,15.311c-.156,0-.283-.127-.283-.283s.127-.283.283-.283.283.127.283.283-.127.283-.283.283Z"/>
            <path d="M16.802,16.662c-.06-.398.426-.383.702-.469.099-.131-.612-.587-.468-.858.209-.202,1.022.675.929.963-.068.213-.928.345-1.163.364Z"/>
            <path d="M16.334,17.757c.545.159.723.465,1.287.077l.118.194c-.377.578-1.318.415-1.405-.272Z"/>
            <path d="M17.036,19.396c-.391.004-1.109.076-1.093-.468.052-.052,1.29.297,1.093.468Z"/>
            <circle cx="18.079" cy="15.027" r=".283"/>
            <path d="M15.516,15.101c.293-.085.505.446.223.539-.426.139-.429-.479-.223-.539Z"/>
          </g>
          <g>
            <path class="cls-6" d="M36.216,16.814c-.067-.778-1.088.214-1.137.161l-.072-.28c-.258-.202-.601.314-.71.514-.016.028.016.188-.041.308-.12.254-1.588,1.224-1.756,1.098l1.249-.976c-.183-.095-.795.372-.781-.038.281-.065.631-.106.899-.186.131-.04.197.01.195-.205-.535.016-1.088.142-1.64.077.47-.396,1.329-.886.725-1.562-.547-.102-.94.275-1.43.428-.792.246-1.568.085-2.281.374-.368.149-.653.331-.876.538-.169.158-.303.331-.41.518-.171.297-.275.629-.35.988-.029.138-.053.282-.076.429-.052.348-.091.716-.146,1.099.005.004-.017.117.02.132.535.232,2.185.466,2.792.493.063-.206.14-.756.279-.854.246-.174,1.682-.271,2.16-.418.481-.147.996-.444,1.389-.758.168-.57.732-.987.703-1.641.243-.072.171.272.138.412-.04.167-.415.861-.529.994l.494-.247c.352-.322,1.235-.881,1.19-1.397ZM32.267,17.327c-.214.209-1.582.238-1.952.272.033-.146.194-.159.311-.196.545-.173,1.178-.117,1.718-.35.013.124.017.181-.077.273Z"/>
            <path d="M34.297,17.209c-.015.028.016.188-.04.308-.12.254-1.587,1.224-1.756,1.097l1.249-.976c-.183-.095-.796.372-.781-.038.281-.065.63-.105.898-.186.132-.04.198.01.195-.205.078-.002.156.002.234,0Z"/>
            <path d="M34.219,18.693c.168-.57.732-.987.703-1.641.243-.072.172.271.138.412-.04.167-.415.861-.529.994-.06.07-.227.166-.312.234Z"/>
            <path d="M32.344,17.054c.012.124.017.181-.078.273-.215.209-1.582.238-1.953.272.033-.146.194-.158.311-.196.546-.173,1.178-.117,1.719-.35Z"/>
          </g>
        </g>
        <g>
          <path class="cls-2" d="M30.69,20.737c-.096-.039-.2-.009-.298-.013-.607-.027-2.257-.261-2.792-.493-.037-.016-.014-.128-.02-.132-.033-.02-.491-.009-.571.016-.48.142-.223,2.038-.288,2.484,1.226.296,2.393.792,3.67.861v.232h-1.523l-2.226-.781c.022.443-.156.831-.156,1.132v1.328c0,.262-.142.72-.156,1.055l.315.13-.081,2.838c-.15.024-.21-.062-.234-.196-.088-.483-.019-1.674,0-2.225l-.459-.535c-1.103-1.767-2.253-3.965-3.636-5.526-.236-.267-.92-.656-1.256-.656h-3.046c-.057,0-.805-.585-.821-.781-.189.161-.261.377-.368.473-.412.371-1.711.372-2.251.31-.335-.039-.663-.264-1.073-.162-.146-.12-.243-.282-.292-.466-.534.33-.916.851-1.473,1.143-2.167,1.135-3.95,1.562-5.09,3.97-1.563,3.299-2.677,7.282-2.89,10.934-.023.389-.063,1.779.154,2.019.099.11,1.376.44,1.627.502,1.115.278,2.311.544,3.436.782.135.029.273.021.41.02l.077.039c.024-.102.091-.031.195-.039.233-.018,1.493.349,1.602.236.024-.445.089-.909.178-1.346.057-.282.439-1.243.214-1.429-.23-.19-1.556-.422-1.626-.714-.02-.083.061-.149.063-.183-.806-.264-1.603-.535-2.426-.75.417-1.293.955-2.545,1.404-3.825.133-.379.197-.845.318-1.205-.069-.277-.023-2.041.079-2.108.642-.075.344,1.255.233,1.639.024.433.22.89.294,1.307.293,1.637.205,3.29.097,4.941.496.163,1.119.484,1.557.591.646.157,1.605.2,2.212.522.34.18.258.239.214.528.206-.133.519-.157.718-.243.101-.044.376-.273.473-.326.192-.106.415-.177.605-.29.002-1.092.12-2.681.235-3.789.067-.651.635-.368,1.124-.437,1.796-.253,3.598-.704,5.407-.92.342-.041.764-.112,1.078-.018.091.066.059,1.959.049,2.238-.067,1.857-.215,3.724-.316,5.582.078-.282.192-.354.39-.547-.027-.46.069-.921.078-1.406.011-.518-.024-1.045,0-1.562.019-.391.135-.716.155-1.056.019-.325-.061-2.046.081-2.146l3.415,1.543c.334.017,1.319.116,1.504-.196.174-.293.11-.756.174-1.056.689-3.217,1.473-6.74,1.699-10.016.023-.318.06-1.667-.17-1.822ZM29.607,22.487c-.527-.176-.153-.566-.066-.896.774-.149.876,1.167.066.896ZM16.375,21.976c-.275-.027-.453-.597-.588-.471.002,1.045-.836.777-1.563.587-.559-.147-1.153-.452-1.471-.951-.149-.233-.443-.826-.011-.773.458,1.098,1.534,1.469,2.649,1.522.062-.185.12-.962.282-1.009.352-.1.596.811.841.77.563-.221.771-.673,1.124-1.066.069-.077.172-.18.257-.095.256.254-1.074,1.53-1.519,1.486ZM22.806,29.189c-.01.117-.299,1.647-.537,1.375-.016-.709.024-1.519-.086-2.217-.059-.366-.743-2.42-.617-2.546.262-.034.365.038.484.257.332.614.817,2.448.756,3.131Z"/>
          <path d="M13.991,37.204c.044-.29.126-.348-.214-.528-.607-.322-1.566-.365-2.212-.522-.438-.106-1.061-.428-1.557-.591-.002.034-.083.1-.063.183.07.293,1.396.524,1.626.714.225.185-.156,1.147-.214,1.429-.088.437-.153.901-.178,1.346-.109.113-1.368-.254-1.602-.236-.104.008-.171-.063-.195.039.004.009.007.018.011.027.064.151.13.212.24.243.006.002.013.005.019.006,1.133.286,3.12.75,4.182.779.055-.156-.14-.144-.155-.21-.031-.136-.009-.38,0-.532.039-.626.211-1.503.311-2.148ZM13.365,39.704c-.651.055-1.298-.108-1.84-.468-.034-.895.459-1.694.512-2.578l1.64.391c-.138.879-.353,1.76-.313,2.655Z"/>
          <path class="cls-4" d="M10.007,35.564c-.805-.264-1.603-.536-2.426-.75.417-1.293.954-2.545,1.404-3.826.133-.378.197-.845.319-1.204.009-.028.241-.221.312-.469.024.433.22.89.294,1.307.293,1.637.205,3.29.096,4.941Z"/>
          <path d="M15.391,21.89c.062-.186.119-.962.282-1.009.352-.1.596.811.841.77.562-.221.772-.673,1.123-1.066.069-.077.173-.18.258-.095.256.254-1.074,1.53-1.52,1.486-.275-.027-.453-.597-.588-.471.002,1.045-.837.777-1.563.586-.559-.147-1.153-.452-1.471-.95-.149-.233-.443-.826-.011-.773.458,1.098,1.534,1.469,2.649,1.522Z"/>
          <path d="M22.27,30.565c-.017-.709.024-1.519-.087-2.217-.058-.366-.743-2.42-.616-2.546.262-.033.366.038.484.257.331.614.817,2.448.756,3.131-.01.117-.299,1.647-.536,1.376Z"/>
          <path d="M26.721,22.599c1.226.296,2.393.792,3.671.861v.233s-1.523,0-1.523,0l-2.226-.781c-.003-.052-.106-.161-.084-.264l.162-.048Z"/>
          <path d="M26.331,26.426l.316.13-.082,2.837c-.15.024-.209-.061-.233-.195-.088-.483-.019-1.674,0-2.226.006-.182-.008-.365,0-.547Z"/>
          <path d="M9.616,29.316c-.071.248-.303.441-.312.469-.069-.277-.023-2.041.079-2.108.642-.075.344,1.255.233,1.64Z"/>
          <path d="M29.54,21.591c.774-.15.876,1.167.066.895-.526-.176-.152-.566-.066-.895Z"/>
          <path class="cls-2" d="M13.678,37.049c-.138.879-.353,1.759-.313,2.655-.651.055-1.298-.108-1.84-.468-.035-.895.458-1.693.512-2.578l1.64.392Z"/>
        </g>
      </g>
    </g>
  </g>
  <g>
    <path class="cls-5" d="M21.625,13.76c.023.108.128.241.069.416.408.084.777-.105,1.148-.138.13-.012.279-.062.239.138-.484.045-.97.112-1.456.139v-.555Z"/>
    <path class="cls-5" d="M22.249,12.373c-.165.212-.464.125-.694.138-.002.161.004.324,0,.486l-.07-.624c.252-.012.512.017.763,0Z"/>
  </g>
</svg>