<?xml version="1.0" encoding="UTF-8"?>
<svg id="Layer_1" data-name="Layer 1" xmlns="http://www.w3.org/2000/svg" viewBox="0 0 46.531 46.531">
  <defs>
    <style>
      .cls-1 {
        fill: #d55e00;
      }

      .cls-2 {
        fill: #fdfcfc;
      }

      .cls-3 {
        fill: #fed8c1;
      }

      .cls-4 {
        fill: #a04b54;
      }

      .cls-5 {
        fill: #5e2f34;
      }

      .cls-6 {
        fill: #fefefe;
      }

      .cls-7 {
        fill: #b2d5e8;
      }

      .cls-8 {
        fill: #7b555a;
      }
    </style>
  </defs>
  <path class="cls-3" d="M.046,0h46.485v46.485h-25.66l-.557-3.231-.084-3.616c1.045-1,1.965-2.046,2.895-3.148.398-.471.701-.655.955-1.277.751-1.838.733-4.119,1.206-6.046,1.445-2.012,4.226-4.57,3.475-7.33-.3-1.102-.968-1.373-2.042-1.092-.281.074-.502.24-.781.265-.022-.088.024-.132-.093-.186-.133-.091-.284-.089-.325-.279-.014-.065.01-.161,0-.232.094-.016.163-.147.186-.232.011-.041,0-.132,0-.186,0-.282-.089-.648-.093-.93,0-.031,0-.062,0-.093.11-.004.306-.136.326-.258.047-.288-.245-.369-.282-.6-.064-.405.249-.206.311-.536.024-.128-.073-.128-.076-.14-.013-.052.014-.136,0-.186-.027-.099-.138-.146-.232-.14.025-.173.196-.138.25-.335.027-.101.009-.234-.064-.315.008-.3.008-.118.105-.337.147-.333-.076-.434-.098-.577-.008-.055.077-.111.084-.18.014-.128-.025-.308,0-.409.009-.036.167-.08.235-.147.216-.214.222-.63.165-.909-.056-.276-.363-.48-.348-.721.006-.096.115-.138.147-.218.165-.403.304-.727.177-1.176-.074-.262-.238-.433-.515-.461l-.04-.054c-.053-.303.181-.532.052-.843-.028-.068-.122-.116-.141-.184-.151-.516.114-1.079.026-1.606-.063-.379-.258-.381-.429-.594-.025-.031-.314-.482-.327-.51-.136-.303.009-.729-.284-1.111-.333-.435-.591-.175-.857-.306-.054-.026-.072-.121-.128-.164-.105-.081-.386-.21-.429-.255-.1-.107-.129-.609-.348-.814-.122-.115-.277-.102-.393-.165-.084-.046-.151-.162-.24-.225-.423-.296-.706-.199-1.195-.223-.264-.587-.775-.664-1.34-.775-.698-.137-1.023-.232-1.648-.583-.295-.165-.375.015-.57.006-.133-.006-.272-.139-.39-.162-.36-.073-.295.026-.678-.159-.267-.129-.482-.182-.789-.12-.238.049-.324.284-.659.317-.567.056-.792-.286-1.348-.283-.434.002-.673.204-.989.27-.509.107-.58-.338-1.153-.269-.407.049-.663.442-1.114.422-.158-.007-.358-.164-.534-.213-.528-.148-.896-.081-1.196.398-.391-.062-1.125-.119-1.409.219-.196.233-.03.436-.441.476-.543.052-.922-.17-1.26.416-.587-.396-1.224-.161-1.324.556-.613-.153-.81.184-.805.752-.47.072-.746.373-.843.831-.048.225.024.435-.165.625-.1.101-.271.098-.41.194-.47.326-.569,1.318-.423,1.831-.562.059-.494.86-.413,1.274-.474.245-.684.836-.605,1.352.02.131.182.367.174.461-.008.084-.196.29-.233.415-.119.404-.023.799.282,1.086-.143.302-.232.619-.168.959.017.091.118.231.118.244,0,.029-.186.183-.231.269-.091.174-.12.508-.072.695.034.135.219.229.224.253.023.117-.086.4-.039.631.032.156.176.245.211.347.011.034.091.387.088.408s-.143.182-.179.269c-.178.422.042.827.52.776-.007.012.007.034,0,.046-.194.357-.351.6,0,.93-.015.116.046.292-.046.372-.295.082-.365.115-.232.465-.3-.045-.624-.076-.93-.093V0ZM35.645,5.592c-2.113.125-2.981,1.389-3.197,3.357-.27,2.456-.234,4.967-.324,7.439-.285,3.9-.127,7.81-.232,11.714-.015.552.022,1.456-.046,1.953-.036.261-.61.863-.783,1.122-1.383,2.065-1.347,5.077.386,6.941.632.679,2.745,1.235,3.671,1.303,1.517.111,3.219-.939,4.134-2.098,1.855-2.349,1.723-5.365-.483-7.41-.155-.144-.438-.237-.468-.462-.055-.422.045-.935.051-1.348.065-4.454.174-8.891.229-13.345.025-2.078.13-4.148-.144-6.22-.199-1.505-1.083-3.046-2.792-2.944Z"/>
  <path class="cls-6" d="M.046,20.081c0,2.602,0,5.207,0,7.809.001,6.197,0,12.397,0,18.594,1.425,0,2.852-.002,4.277,0,5.515.007,11.033,0,16.549,0h25.66v.046H0V0h.046v20.081Z"/>
  <path class="cls-3" d="M.046,27.891l1.008.851.04.121c.116,1.926.149,3.926.5,5.825.154.833.314,1.216.804,1.892.629.869,1.373,1.67,2.148,2.408.003.553.03,1.112.012,1.666-.033,1.001-.111,2.017-.143,3.018l-.091,2.814c-1.425-.002-2.852.001-4.277,0,0-6.197.001-12.397,0-18.594Z"/>
  <path class="cls-4" d="M1.255,18.362c.019-.033.227-.345.244-.36.059-.056.277-.076.346-.165.09-.117.113-.392.113-.539.455-.046.546-.463.235-.772.194-.169.269-.361.313-.609.01-.054-.04-.126-.03-.176.01-.054.235-.318.26-.482.021-.137-.124-.251-.119-.315.003-.039.371-.364.407-.649.05-.402-.071-.797-.512-.861.026-.175.176-.281.212-.462.032-.157-.03-.289-.007-.376.021-.08.144-.207.189-.324.205-.543.17-1.19-.104-1.698.009-.056.263-.15.338-.207.194-.151.721-.762.721-.999v-1.092l1.554.137c.478-.07.716-.796.944-.828.068-.01.37.199.551.223.262.034,1.062-.032,1.291-.142.139-.067.349-.261.478-.362.182.104.334.285.555.32.512.08,1.573-.093,2.051-.314.19-.088.726-.559.784-.567.319-.045.389.398.581.58.715.674,1.84.354,2.252-.484.399.382,1.428.625,1.908.372.414-.218.362-.548.435-.95l.207-.029c.104.304.166.457.453.625.228.134.606.332.846.455.685.351.853-.219,1.473-.335.176.997,1.432,1.224,2.231.837-.04.27-.243.249-.236.581.004.163.299.898.402,1.043.169.24.472.432.764.468-.267.547.08,1.485.626,1.722.076.033.153.024.21.044.28.096.313.252.139.511-.015.006-.038-.007-.046,0l-.046.093c-.035.029-.11-.047-.135.166-.028.235.03.461.203.626.091.087.286.151.326.231.01.021.116.422.117.446.008.177-.19.164-.267.333-.088.194-.091.61.014.797.115.204.336.441.438.701.034.086.091.317.088.399-.004.078-.072.112-.088.159-.328.311-.415.925.186.79.005.067-.033.124-.046.186-.173.129-.235.314-.136.522.023.049.116.047.122.157.012.226-.207.427-.116.73.05.168.247.13.326.175.083.047.145.188.316.182,0,.031,0,.062,0,.093-.24-.038-.457-.138-.558.139-.053.145-.032.152,0,.279.047.186.175.272.182.308.008.046-.087.126-.094.226-.016.224.139.435.377.395.01.072-.014.167,0,.232-.586.007-.56.354-.186.697.236.217.418.189.629-.049.053-.076-.012-.129-.025-.184.278-.025.5-.192.781-.265,1.074-.281,1.742-.009,2.042,1.092.751,2.759-2.03,5.318-3.475,7.33-.472,1.927-.455,4.208-1.206,6.046-.254.621-.557.805-.955,1.277-.93,1.102-1.85,2.148-2.895,3.148l.084,3.616.557,3.231c-5.515,0-11.033.007-16.549,0l.091-2.814c.032-1.001.11-2.017.143-3.018.018-.553-.009-1.112-.012-1.666-.775-.738-1.519-1.539-2.148-2.408-.49-.676-.65-1.059-.804-1.892-.351-1.899-.384-3.899-.5-5.825l-.04-.121-1.008-.851c0-2.602,0-5.207,0-7.809.306.016.63.048.93.093.027.004.079.074.128.08.436.052.663-.044.756-.498-.135.021-.234-.138-.349-.137-.026,0-.25.075-.303.09.093-.08.032-.256.046-.372.691.046.574-.838,0-.93.007-.012-.007-.035,0-.046ZM16.058,8.719c-.351-.453-.481.221-.568.52-.099.338-.137.675-.199,1.056-.011.07-.08.123-.089.19-.11.896.243,1.551,1.226,1.413.212-.03.273-.128.336-.315.312-.931-.183-1.943-.63-2.696-.027-.046.005-.063-.076-.167ZM10.168,11.265c-.39-.129-.445.344-.551.598-.184.439-.384.975-.558,1.487-.055.164-.15.467-.178.668-.029.212.009.559.107.75.012.023.348.358.37.372.032.02.368.194.39.2.175.041.594.048.769-.003.034-.01.03-.064.075-.085.033-.015.094.005.133-.019.015-.009.221-.235.232-.254.479-.839-.149-2.074-.418-2.806-.083-.224-.18-.475-.249-.659-.022-.059-.041-.222-.121-.248ZM19.373,13.402c-.087-.028-.176-.018-.265-.012.029.188-.135.349-.176.498-.093.334-.124.807-.199,1.142-.008.035-.083.028-.091.064-.078.326-.011.986.231,1.247.147.158.468.264.676.299.065.011.169.015.233.007.079-.011.054-.07.105-.093.033-.015.096.007.133-.018.089-.058.316-.313.35-.417.054-.166.063-.719.039-.897-.011-.087-.088-.06-.096-.098-.036-.167-.028-.362-.185-.468-.066-.159-.665-1.223-.757-1.253ZM17.137,20.191c-.212-.209-.505-.061-.491.235.023.493.911,1.631,1.297,1.957.776.656,1.987.96,2.993.854.257-.027.777-.154.672-.519-.1-.348-.52-.151-.717-.132-1.004.101-2.296-.41-2.946-1.182-.282-.334-.544-.955-.808-1.214ZM10.906,22.203c.21-.304.7-1.328.203-1.539-.471-.2-.554.457-.719.767-.443.832-1.335,1.515-2.281,1.628l-1.184-.076c-.409.278-.153.581.222.713,1.365.479,2.981-.369,3.758-1.492ZM15.925,26.848c-.954.792-2.573.94-3.561.137-.207-.169-.623-.794-.849-.76-.329.05-.221.506-.117.704.851,1.613,3.973,1.636,5.103.333.207-.238,1.104-1.509.35-1.512-.294-.001-.366.429-.514.65-.069.103-.309.363-.411.447ZM16.204,32.373c-.836-.754-2.195-1.06-3.289-.888-1.683.265-2.963,1.025-3.664,2.611-.108.244-.252.661-.176.921.06.204.33.285.481.128.06-.062.277-.727.361-.894.806-1.624,2.401-2.216,4.145-2.082,1.194.091,1.712.587,2.394,1.511.428.579.646,1.193.956,1.833.289.233.531,0,.484-.342-.023-.167-.332-.879-.423-1.066-.232-.475-.878-1.379-1.268-1.73ZM6.914,40.454c-.263-.271-.653.098-.425.495s1.794.988,2.262,1.132c1.82.559,4.102,1.011,5.963.454.757-.227,1.592-.601,2.301-.953.265-.132.969-.454,1.159-.607.306-.245.239-.748-.198-.616-.07.021-.335.234-.45.293-1.096.565-2.766,1.416-3.98,1.551-1.599.178-4.738-.54-6.149-1.326-.094-.052-.292-.143-.356-.202-.078-.073-.081-.174-.127-.221Z"/>
  <path d="M16.204,32.373c.39.352,1.036,1.255,1.268,1.73.091.187.4.9.423,1.066.048.342-.194.575-.484.342-.311-.64-.529-1.254-.956-1.833-.682-.924-1.2-1.42-2.394-1.511-1.744-.133-3.34.458-4.145,2.082-.083.167-.301.832-.361.894-.151.157-.421.076-.481-.128-.077-.26.068-.677.176-.921.701-1.586,1.981-2.346,3.664-2.611,1.094-.172,2.453.134,3.289.888Z"/>
  <path d="M6.914,40.454c.046.047.049.149.127.221.063.059.261.15.356.202,1.411.786,4.55,1.504,6.149,1.326,1.214-.135,2.884-.986,3.98-1.551.115-.059.38-.272.45-.293.437-.132.504.371.198.616-.191.153-.894.475-1.159.607-.709.352-1.544.726-2.301.953-1.86.558-4.142.106-5.963-.454-.467-.144-2.034-.734-2.262-1.132s.162-.766.425-.495Z"/>
  <path d="M15.925,26.848c.102-.085.342-.345.411-.447.148-.221.221-.651.514-.65.754.003-.144,1.273-.35,1.512-1.13,1.303-4.252,1.279-5.103-.333-.104-.197-.212-.654.117-.704.226-.034.642.592.849.76.987.803,2.607.654,3.561-.137Z"/>
  <path d="M10.906,22.203c-.777,1.123-2.393,1.971-3.758,1.492-.376-.132-.632-.435-.222-.713l1.184.076c.947-.113,1.838-.796,2.281-1.628.165-.31.248-.967.719-.767.497.211.007,1.235-.203,1.539Z"/>
  <path d="M17.137,20.191c.263.259.526.88.808,1.214.65.772,1.942,1.283,2.946,1.182.197-.02.617-.216.717.132.105.365-.415.491-.672.519-1.006.106-2.217-.198-2.993-.854-.386-.326-1.274-1.464-1.297-1.957-.014-.296.279-.444.491-.235Z"/>
  <g>
    <path class="cls-2" d="M35.645,5.592c1.709-.101,2.593,1.44,2.792,2.944.274,2.072.169,4.143.144,6.22-.054,4.454-.163,8.891-.229,13.345-.006.413-.106.926-.051,1.348.03.225.313.318.468.462,2.205,2.045,2.338,5.061.483,7.41-.915,1.159-2.617,2.209-4.134,2.098-.926-.068-3.04-.623-3.671-1.303-1.733-1.864-1.769-4.876-.386-6.941.174-.259.747-.861.783-1.122.069-.496.031-1.4.046-1.953.106-3.905-.053-7.814.232-11.714.09-2.472.054-4.983.324-7.439.216-1.968,1.085-3.232,3.197-3.357ZM37.885,15.015v-3.324c0-.016-.113-.097-.14-.139-.11-.178-.083-.273-.348-.303-1.149-.132-2.545.102-3.721,0-.124,0-.296.102-.336.221-.052.152-.096.641-.106.824-.035.607.023,1.25.004,1.863-.155,5-.289,10.013-.469,15.011-.015.407.059.971,0,1.347-.031.198-.554.618-.714.82-2.441,3.078-.501,7.907,3.656,7.235,3.425-.553,5.345-5.082,2.942-7.751-.279-.31-.546-.424-.861-.673v-5.973c-.579.002-1.157.092-1.737.041-.109-.01-.344-.039-.436-.076-.206-.083-.301-.367-.153-.548.147-.18.846-.242,1.092-.256.407-.024.827.021,1.234.002l.046-3.58-2.017.088c-.557-.04-.622-.676-.041-.774l2.058-.104.046-3.347c-.426.089-.848.075-1.278.094-.295.013-1.093.196-1.212-.185-.052-.167.013-.364.177-.432.037-.015.357-.081.384-.081h1.929Z"/>
    <path class="cls-1" d="M37.885,15.015h-1.929c-.027,0-.347.066-.384.081-.164.068-.229.265-.177.432.119.38.917.197,1.212.185.43-.019.852-.005,1.278-.094l-.046,3.347-2.058.104c-.581.097-.517.734.041.774l2.017-.088-.046,3.58c-.408.019-.827-.026-1.234-.002-.246.014-.945.076-1.092.256-.148.181-.053.465.153.548.092.037.327.066.436.076.58.051,1.159-.039,1.737-.041v5.973c.315.25.582.363.861.673,2.403,2.669.483,7.198-2.942,7.751-4.157.671-6.097-4.157-3.656-7.235.16-.202.683-.622.714-.82.06-.376-.014-.94,0-1.347.18-4.998.314-10.011.469-15.011.019-.613-.039-1.256-.004-1.863.01-.183.054-.672.106-.824.041-.119.213-.221.336-.221,1.176.102,2.571-.132,3.721,0,.265.03.237.125.348.303.026.042.14.124.14.139v3.324Z"/>
  </g>
  <path d="M1.255,18.362c-.478.05-.699-.354-.52-.776.036-.086.177-.248.179-.269s-.077-.374-.088-.408c-.035-.102-.178-.191-.211-.347-.048-.231.062-.514.039-.631-.005-.024-.189-.118-.224-.253-.047-.187-.019-.521.072-.695.045-.085.23-.24.231-.269,0-.014-.101-.154-.118-.244-.064-.34.025-.656.168-.959-.305-.287-.402-.682-.282-1.086.037-.125.225-.331.233-.415.009-.093-.154-.33-.174-.461-.079-.516.131-1.107.605-1.352-.081-.414-.149-1.215.413-1.274-.145-.512-.046-1.505.423-1.831.139-.097.31-.093.41-.194.189-.191.117-.4.165-.625.097-.458.372-.759.843-.831-.005-.568.192-.905.805-.752.1-.717.738-.952,1.324-.556.339-.586.717-.364,1.26-.416.411-.039.245-.242.441-.476.284-.338,1.018-.281,1.409-.219.3-.478.668-.545,1.196-.398.176.049.376.206.534.213.451.02.707-.374,1.114-.422.573-.068.644.376,1.153.269.316-.066.554-.268.989-.27.556-.003.781.339,1.348.283.336-.033.421-.269.659-.317.307-.063.522-.009.789.12.383.185.318.086.678.159.117.024.257.156.39.162.195.009.275-.172.57-.006.625.351.95.446,1.648.583.565.111,1.076.188,1.34.775.489.024.772-.073,1.195.223.089.063.155.178.24.225.115.063.271.05.393.165.219.205.248.708.348.814.043.045.324.175.429.255.056.043.074.137.128.164.266.131.524-.13.857.306.292.382.148.808.284,1.111.012.028.302.48.327.51.171.213.365.214.429.594.088.527-.177,1.09-.026,1.606.02.068.113.116.141.184.129.31-.105.539-.052.843l.04.054c.277.029.441.2.515.461.127.449-.012.773-.177,1.176-.033.08-.141.122-.147.218-.016.242.292.445.348.721.057.279.051.696-.165.909-.068.067-.226.111-.235.147-.025.101.014.281,0,.409-.008.068-.092.125-.084.18.021.143.245.245.098.577-.097.219-.096.037-.105.337-.009.325-.042.267-.232.465-.163-.043-.486.022-.618,0-.012-.002-.109-.148-.198-.138-.052-.06.128-.446.166-.561.117-.111.375-.158.373-.348l-.373-.21c-.102-.26-.323-.497-.438-.701-.106-.187-.103-.603-.014-.797.077-.169.274-.156.267-.333-.001-.024-.107-.425-.117-.446-.041-.08-.235-.144-.326-.231-.173-.165-.231-.391-.203-.626.026-.213.1-.137.135-.166.064-.053.042-.09.046-.093.008-.007.032.006.046,0,.535-.214.62-.058.907.372l.115-.115-.697-.745-.465-.023c-.058-.02-.135-.011-.21-.044-.547-.237-.893-1.175-.626-1.722-.292-.036-.595-.229-.764-.468-.103-.145-.398-.88-.402-1.043-.008-.332.196-.311.236-.581-.799.387-2.056.16-2.231-.837-.62.116-.789.686-1.473.335-.24-.123-.618-.322-.846-.455-.288-.169-.349-.321-.453-.625l-.207.029c-.073.402-.021.732-.435.95-.479.253-1.508.01-1.908-.372-.412.838-1.537,1.159-2.252.484-.192-.182-.262-.625-.581-.58-.058.008-.595.479-.784.567-.477.222-1.539.394-2.051.314-.22-.034-.372-.215-.555-.32-.128.102-.338.296-.478.362-.229.11-1.029.177-1.291.142-.181-.024-.483-.232-.551-.223-.228.033-.466.759-.944.828l-1.554-.137v1.092c0,.238-.527.849-.721.999-.074.058-.329.151-.338.207.274.508.309,1.155.104,1.698-.044.117-.167.245-.189.324-.023.087.038.219.007.376-.036.181-.186.287-.212.462.442.065.563.46.512.861-.036.285-.404.61-.407.649-.005.064.139.178.119.315-.025.164-.249.428-.26.482-.009.05.04.121.03.176-.045.248-.119.44-.313.609.312.309.221.727-.235.772,0,.146-.022.422-.113.539-.069.09-.287.109-.346.165-.016.015-.224.327-.244.36ZM12.69,5.16h.79c.006-.109.016-.082-.069-.093-.163-.021-.42-.007-.583.022-.049.009-.15.004-.138.071Z"/>
  <path d="M25.102,17.199c-.026.106-.121.212-.086.338.204.417.736.09.876-.199.003.013.1.012.076.14-.062.33-.375.131-.311.536.036.23.329.312.282.6-.02.122-.216.255-.326.258-.171.006-.232-.135-.316-.182-.079-.045-.276-.008-.326-.175-.091-.303.129-.504.116-.73-.006-.109-.099-.108-.122-.157-.099-.208-.037-.393.136-.522-.006.028.007.066,0,.093ZM25.501,18.149c-.14-.091-.21-.145-.399-.112-.051.182.099.222.159.329.099.176.216.602.493.299.193-.211-.083-.405-.253-.515Z"/>
  <path d="M25.055,19.105c.283-.153.549-.111.561.256.006.196-.149.361.09.534,0,.054.011.144,0,.186-.283.167-.52.12-.469-.259.014-.106.131-.028.097-.159-.189-.006-.148-.204-.279-.28-.032-.127-.053-.134,0-.279Z"/>
  <path d="M1.255,19.338c-.351-.33-.194-.572,0-.93.574.092.691.976,0,.93Z"/>
  <path d="M25.66,17.106c.078.014.157.018.232.046.014.05-.013.134,0,.186-.14.289-.672.616-.876.199-.035-.126.06-.232.086-.338.186-.202.322-.135.558-.093Z"/>
  <path d="M1.209,19.71c.053-.015.277-.09.303-.09.114,0,.213.159.349.137-.092.454-.32.55-.756.498-.049-.006-.101-.076-.128-.08-.132-.35-.063-.383.232-.465Z"/>
  <path d="M25.846,20.825c.117.054.071.098.093.186.013.055.078.108.025.184-.212.238-.393.265-.629.049-.15-.381.175-.572.511-.418Z"/>
  <path class="cls-5" d="M25.52,20.546c.041.19.192.187.325.279-.336-.153-.661.037-.511.418-.374-.343-.4-.691.186-.697Z"/>
  <path d="M25.613,18.966c.004.281.092.648.093.93-.238-.173-.083-.337-.09-.534-.012-.368-.278-.409-.561-.256.101-.278.318-.177.558-.139Z"/>
  <path class="cls-8" d="M25.846,16.363c.073.081.091.215.064.315-.053.197-.225.162-.25.335.095-.006.205.041.232.14-.075-.028-.154-.033-.232-.046l-.141-.12.012-.105c.026-.019.061-.031.083-.054.191-.198.223-.139.232-.465Z"/>
  <path d="M25.055,19.384c.131.076.09.274.279.28.034.131-.083.053-.097.159-.051.379.186.426.469.259-.022.085-.092.217-.186.232-.238.04-.393-.171-.377-.395.007-.1.101-.18.094-.226-.006-.037-.135-.122-.182-.308Z"/>
  <path class="cls-7" d="M10.115,11.191c.256.106.395.638.514.931.2.537.417,1.062.527,1.659.119.628.052,1.386-.56,1.678-.465.216-1.059.07-1.419-.29-.454-.426-.423-1.101-.256-1.654.145-.51.342-1.021.523-1.504.122-.28.281-.909.662-.824l.009.004Z"/>
  <path class="cls-7" d="M19.315,13.315c.368.149.555.622.75.952.293.552.504,1.073.407,1.675-.195,1.179-1.581,1.111-1.861.016-.15-.652.05-1.344.204-1.987.084-.303.237-.717.49-.658l.009.002Z"/>
  <path class="cls-7" d="M16.027,8.593c.556.789,1.182,2.224.737,3.164-.137.249-.446.309-.714.279-.909-.075-1.032-1.094-.815-1.836.098-.303.24-2.097.783-1.616l.009.009Z"/>
  <path d="M24.358,12.179c.174-.259.141-.415-.139-.511l.465.023.697.745-.115.115c-.287-.429-.372-.586-.907-.372Z"/>
  <path d="M24.962,16.13c-.038.115-.218.501-.166.561.09-.01.186.136.198.138.133.021.456-.044.618,0-.022.023-.057.035-.083.054l-.012.105.141.12c-.235-.042-.371-.109-.558.093.007-.027-.006-.065,0-.093.013-.062.051-.119.046-.186-.601.134-.514-.479-.186-.79Z"/>
  <path d="M24.962,15.572l.373.21c.002.19-.256.237-.373.348.015-.047.084-.081.088-.159.004-.081-.054-.312-.088-.399Z"/>
  <path d="M24.265,12.272l.046-.093s.018.04-.046.093Z"/>
  <path d="M12.69,5.16c-.012-.067.089-.062.138-.071.164-.029.42-.043.583-.022.085.011.075-.016.069.093h-.79Z"/>
  <path d="M25.501,18.149c.17.111.446.304.253.515-.277.303-.394-.123-.493-.299-.06-.107-.21-.146-.159-.329.189-.033.259.021.399.112Z"/>
</svg>