<?xml version="1.0" encoding="UTF-8"?>
<svg id="Layer_1" data-name="Layer 1" xmlns="http://www.w3.org/2000/svg" viewBox="0 0 46.438 46.966">
  <defs>
    <style>
      .cls-1 {
        fill: #dd6e7a;
      }

      .cls-2 {
        fill: #d55e00;
      }

      .cls-3 {
        fill: #a89fbc;
      }

      .cls-4 {
        fill: #dc6e79;
      }

      .cls-5 {
        fill: #f83c4e;
      }

      .cls-6 {
        fill: #fed8c1;
      }

      .cls-7 {
        fill: #fa8b96;
      }
    </style>
  </defs>
  <g>
    <path class="cls-6" d="M.056,0c0,6.776,0,14.694,0,21.469,1.868-.909,3.926-1.628,5.661-2.774,1.26-.833,3.452-2.927,4.082-4.334.236-.528.698-1.15,1.088-1.608-.369-.36-.619-.815-.499-1.29.047-.185.084-.51.091-.644.009-.162-.373-.502-.408-.709-.148-.878.616-.625,1.497-.803,1.67-.338,2.178.445,3.665.535.284.018,1.174-.059,1.498-.101.146-.021-.278-.762-.115-.743.161-.065-.005-.178-.004-.347,0-.162.056-.263.144-.322.023-.016.049-.029.076-.04.121-.046.278-.045.432-.032-.124-.287-.153.062,0,0,.242-.099.586-.187.88-.037.121.062.428-.16.463-.102h.046c.014-.072-.053.03,0,0,.216-.121.646.848.837.919.53.195,1.952,1.324,2.223,1.783.841.168.747.395,1.266,1.063.694.892.942.748.879,1.87-.028.493-.409,2.138-.381,2.607.006.114.61.409.653.514.358.882,2.953,1.827,3.844,2.366,3.861,2.331,7.191,4.046,10.537,7.139.481.444,1.708,1.81,1.793,2.431.023.168-.012.604-.052.773-.051.218-.971,1-1.198,1.163-1.581,1.131-2.403,1.415-4.267,1.963-.672.198-1.383.936-2.058,1.156.11.224.139.455.19.713.021.104.084.246.086.335.008.337-.158.26-.335.297-.036.008-.121.165-.138.17-.171.061-.39.081-.571.103-.494.059-1.486.507-2.043.651-.382.098-.882.229-1.216.398-.201.101-.304.334-.328.552-.022.199.005.547,0,.786-.065,2.531-.297,5.079-.186,7.646.171.253.096.751.096,1.085v.092h18.153V0H.056ZM23.458,3.683c-.384,1.234-.618,2.51-.974,3.75-.053.181-.21.809-.324.902-.168.139-.395.053-.44-.158-.048-.22.209-1.133.281-1.412.234-.905.517-1.959.82-2.838.045-.13.115-.411.191-.504.2-.243.552-.036.447.26ZM25.23,8.442c-.116.268-.11,1.531-.355,1.615-.201.067-.274-.071-.294-.248-.042-.361-.011-1.547.231-1.808.068-.073.175-.115.267-.15.742.008,1.495.319,2.237.34.11-.076.355-1.546.459-1.812.043-.11.086-.205.189-.275,1.048-.047,2.094-.131,3.12-.348.273.053.417.351.191.556-.358.324-2.434.358-2.986.418-.158.479-.23,1.928-.786,2.062-.758-.012-1.524-.211-2.271-.351ZM26.12,12.459c-.361-.363.687-.572.868-.614,1.264-.299,2.792-.643,4.066-.843.212-.033.748-.146.907-.054.275.159.07.435-.172.512-.372.119-.964.148-1.383.237-1.365.29-2.719.606-4.102.808-.059.008-.141-.004-.184-.046ZM32.453,17.495c-.166-.238-.429-1.099-.558-1.434-.026-.067-.045-.138-.045-.21-.068-.059-.548.248-.644.305-.372.222-.985.755-1.328.895-.15.061-.257.084-.407,0-.298-.171-.535-1.563-.63-1.94-.074-.076-1.479.827-1.666.903-.161.064-.477.158-.511-.095-.035-.255.254-.411.43-.54.33-.242,1.425-.928,1.781-.997.14-.028.313-.043.409.078l.53,1.856c.47-.267.909-.605,1.388-.858.36-.19.892-.564,1.136-.069.175.354.559,1.37.657,1.75.139.536-.297.708-.542.357ZM41.018,33.238c-.019.482.011,1.005-.043,1.485-.045.396-.513.403-.559.048-.018-.727.066-1.456.097-2.177.014-.328-.069-1.031.055-1.288.076-.157.251-.243.394-.114.064.057.099.243.107.332.051.564-.029,1.155-.051,1.714ZM40.763,25.342c.161-1.055.715-2.415,1.021-3.471.057-.197.108-.769.287-.824.494-.151.301.501.242.752-.287,1.234-.783,2.522-1.106,3.757-.184.372-.518.273-.444-.213ZM43.843,31.343c-.233-.197-1.796-.969-1.843-1.122-.032-.106,0-.25.118-.284.148-.042.45.107.6.169.367.155,1.088.505,1.399.732.387.283.138.622-.274.505ZM45.568,24.966c-.182.019-.566-.144-.682-.039-.243.222-.277,1.352-.581,1.595-.318.256-1.272-.29-1.636-.389-.098.03-.422,1.204-.794.832-.175-.175.126-.942.222-1.17.107-.256.158-.471.498-.433.25.028,1.121.524,1.269.487.291-.56.252-1.489,1.028-1.648.271.121.927-.025,1.058.263.121.265-.143.474-.382.501Z"/>
    <path class="cls-6" d="M7.169,41.992c-.082,1.49.084,2.882.002,4.365-.005.087.126.527.1.609l-7.141-.274v-16.022l.756.425,1.744.687c.008.494-.091,1.038.198,1.471.038.022.105,0,.135.015.552.289,1.142.559,1.689.845.695.363,1.381.692,2.092.997.084.036.504.161.519.222.032,1.198-.049,2.407-.004,3.606.041,1.072-.032,1.986-.09,3.055Z"/>
    <path d="M29.814,16.314c.471-.267.908-.605,1.388-.858.36-.19.893-.564,1.136-.069.174.354.559,1.37.658,1.75.139.536-.298.708-.542.357-.166-.238-.428-1.099-.558-1.434-.026-.067-.044-.137-.045-.21-.068-.059-.548.248-.644.305-.372.222-.986.755-1.328.894-.15.061-.258.085-.407,0-.298-.171-.535-1.563-.631-1.939-.074-.076-1.479.827-1.667.903-.16.064-.476.157-.51-.095-.034-.255.254-.411.431-.54.33-.241,1.424-.927,1.781-.997.14-.027.312-.043.409.078l.53,1.856Z"/>
    <path d="M28.287,6.731c-.158.479-.23,1.928-.786,2.062-.758-.011-1.524-.211-2.272-.351-.116.268-.109,1.531-.355,1.615-.201.068-.274-.071-.294-.247-.042-.361-.011-1.547.231-1.808.068-.073.175-.115.266-.15.742.009,1.495.319,2.237.34.111-.076.355-1.546.459-1.811.043-.111.085-.206.188-.275,1.048-.047,2.094-.131,3.121-.348.273.053.417.351.191.556-.357.324-2.434.358-2.986.418Z"/>
    <path d="M44.893,24.202c.271.121.927-.025,1.058.263.121.265-.143.475-.382.5-.182.02-.566-.144-.682-.039-.243.222-.278,1.352-.581,1.596-.318.255-1.272-.29-1.636-.389-.098.03-.422,1.203-.794.832-.176-.175.126-.942.221-1.17.107-.256.158-.471.498-.433.25.028,1.121.524,1.269.487.291-.56.252-1.489,1.029-1.648Z"/>
    <path d="M26.121,12.459c-.361-.363.687-.571.868-.614,1.264-.299,2.792-.643,4.066-.843.212-.033.748-.146.907-.054.275.159.07.435-.171.512-.372.119-.964.149-1.383.237-1.365.289-2.718.606-4.103.808-.059.008-.141-.004-.184-.047Z"/>
    <path d="M22.16,8.336c-.168.139-.395.052-.44-.159-.048-.22.209-1.133.281-1.412.234-.906.516-1.96.819-2.839.045-.13.115-.411.191-.503.2-.243.551-.036.447.26-.383,1.234-.618,2.51-.974,3.75-.052.181-.21.808-.324.902Z"/>
    <path d="M42.071,21.047c.494-.152.301.501.242.752-.288,1.234-.784,2.521-1.106,3.757-.184.372-.519.274-.444-.213.161-1.054.715-2.415,1.021-3.471.057-.198.108-.77.287-.825Z"/>
    <path d="M40.962,31.192c.064.057.099.243.107.332.051.564-.029,1.155-.051,1.714-.018.482.01,1.005-.044,1.485-.045.396-.513.403-.559.048-.018-.727.065-1.456.097-2.177.014-.328-.069-1.031.055-1.288.076-.157.251-.243.394-.114Z"/>
    <path d="M42.118,29.936c.147-.042.45.107.6.17.367.155,1.088.505,1.399.731.388.283.139.622-.274.505-.233-.196-1.796-.968-1.843-1.122-.033-.106,0-.25.119-.284Z"/>
    <g>
      <g>
        <path class="cls-6" d="M15.231,26.188c.009.157-.028.309-.046.464-.034.283-.082.511-.139.786-.012.063-.032.124-.046.185-.065.004-.139.008-.203-.002-1.127-.191-2.2-.22-3.338-.089-1.328.154-2.917-.451-4.217-.74-1.228-.272-2.38-.509-3.469-.746-.18-.039-.236-.11-.468-.093-.155.012-.192.083-.252.096-.141.03-.821-.124-1.02-.161-.518-.097-1.033-.227-1.547-.343-.047-.029-.038-.121-.027-.166.031-.129.541-.372.691-.468,1.541-.994,2.947-1.87,4.557-2.76,1.661-.917,3.351-1.825,4.998-2.738.053-.029.428-.198.451-.172-.046.12.039.257.046.324.004.03-.002.062,0,.093.03.42-.02.871,0,1.296.005.1.043.181.046.232.022.331.056.65.093.972v.093c.015.123.028.249.046.371.002.015-.002.031,0,.046.003.021.025.039.046.046.006.028-.005.064,0,.092.022.113.063.185.093.278.062.199.077.312.185.509.047.087.062.157.139.232,0,.068.026.119.092.139.054.2.162.304.278.463.052.071.05.195.185.185.043.136.378.487.509.555.03.016.034.037.093.046.029.093.131.097.185.139.27.206.301.222.602.371.137.067.199.128.371.185.077.026.143.064.231.046.219.119.583.192.834.232Z"/>
        <path class="cls-6" d="M32.644,27.716c-.05.003-.1.008-.15.012h0c-.116.011-.232.025-.347.038-.311.036-.62.071-.939.042-.002-.028.012-.057-.008-.083l-.292-.103-6.209.005c-.677-.18-1.542-.218-2.289-.189.08-.125-.03-.208-.046-.277-.056-.241-.093-.498-.139-.741-.015-.078-.033-.153-.046-.232-.021-.124-.029-.246-.046-.37l-.046-.093c-.021-.176-.036-.421-.046-.603-.003-.061.002-.124,0-.185-.002-.093,0-.185,0-.278,0-.046,0-.093,0-.139.002-.107-.005-.216,0-.324.012-.222.052-.52.093-.741.389-.092,1.158-.737,1.435-1.044.34-.376.579-.806.733-1.279.039-.118.073-.24.101-.363,2.188,1.894,4.201,4.053,6.561,5.734.233.166,1.53,1.08,1.682,1.119.003.03-.006.065,0,.093Z"/>
        <g>
          <path class="cls-7" d="M13.657,22.251c.047.018.095.023.141.021-.045-.009-.092-.015-.141-.021Z"/>
          <path class="cls-7" d="M21.244,18.391l-.502-.493c-.007-.012.006-.034,0-.046-.044-.083-.103-.182-.185-.232.002-.013.003-.034,0-.046-.022-.087-.222-.358-.277-.463-.002-.015.002-.032,0-.046-.018-.084-.124-.253-.185-.324,0-.015.002-.032,0-.046-.005-.031.021-.093-.024-.093l-.208.093c-.012.002-.023,0-.035,0,.178.411.436.815.84,1.252.185.2.482.313.526.579.035-.047.059-.093.051-.133Z"/>
          <path class="cls-7" d="M22.363,27.16c-.056-.241-.093-.498-.139-.741-.015-.078-.033-.153-.046-.232-.021-.124-.029-.246-.046-.37,0-.005-.036-.012-.046-.093-.021-.176-.036-.421-.046-.603-.003-.061.002-.124,0-.185-.002-.093,0-.185,0-.278,0-.046,0-.093,0-.139.002-.107-.005-.216,0-.324.012-.222.052-.52.093-.741-.121.029-.205.011-.324,0-.012-.026-.032-.077-.046-.093l-.093-.278c-.002-.031.002-.062,0-.093-.017-.217-.056-.286-.093-.463-.003-.015.003-.032,0-.046-.027-.124-.072-.199-.093-.278-.004-.014.004-.032,0-.046-.028-.102-.008-.24-.093-.324-.005-.06.009-.127,0-.185-.024-.175-.143-.397-.185-.555-.015-.056-.034-.098-.046-.139l-.023-.071c-.008-.023-.015-.045-.022-.068-.052-.166-.071-.32-.139-.509-.056-.157-.375-.848-.375-.903,0-.155.136-.195.209-.305.08-.12.138-.247.207-.372.002-.003.005-.006.008-.009.038-.049.117-.121.171-.193-.044-.267-.341-.379-.526-.579-.404-.437-.661-.841-.84-1.252-.004,0-.008,0-.012,0-.069.016-.1.074-.139.093-.012.006-.035-.006-.046,0-.232.129-.466.366-.695.185h-.046l-.218-.451c-.005-.013-.057-.062-.063-.075-.142-.3-.356-.554-.539-.832-.003-.015.009-.078.006-.092-.117-.453-.366-.916-.667-1.283-.005-.014.005-.033,0-.046-.027-.076-.091-.251-.169-.273-.039-.011-.535.053-.618.088-.061-.002-.124-.002-.185,0-.34.008-.697.076-1.019.09h-.002c-.015.002-.029.002-.044.002-.123.004-.247-.003-.371,0-.892.021-1.793.007-2.685,0-.062,0-.124,0-.185,0l-.648-.093c.063.21.051.433.031.649-.025.271-.05.535-.088.805-.026.186-.091.338-.09.526,0,.176.072.387.029.56-.008.031-.012.191.048.193l.995-.232c.031-.002.062.002.093,0,.146-.013.22-.07.324-.093.015-.004.032.003.046,0,.124-.029.24-.065.371-.046.016.012.029.033.046.046-.012.052.014.129-.009.198-.072.219-.554.065-.698.183-.031.002-.05.079-.08.082-.106.01-.261-.031-.345.041-.061.006-.104.047-.165.052-.212.018-.423.079-.648.046l-.002.71c.01.042.175.087.233.124.016.01.029.036.046.046.121.07.236.188.372.218.015.003.053.023.067.026.144.121.34.086.441.265,0,.015,0,.031,0,.046-.193.437-.735.494-1.019.834-.137.003-.258.136-.324-.139-.005-.026.003-.063,0-.093-.111-1.15.195-2.427-.004-3.589.107-.487.012-1.058.236-1.504-.141-.042-.343-.12-.442-.23-.117-.131-.12-.379-.19-.423-.092-.057-.38-.073-.536-.147-.049-.023-.379-.239-.406-.266-.391.458-.465,1.017-.701,1.545-.63,1.407-2.09,2.578-3.35,3.411-1.734,1.146-3.835,2.053-5.703,2.962l-.06,9.855.937.527,1.744.687c-.011-.718-.088-1.856-.003-2.527.011-.089.089-.044.1-.133.033-.262-.058-.685-.002-.92.111-.475.071-.979.183-1.453.03-.129.113-.282.131-.419.008-.057.043-.199-.038-.383-.141.03-.821-.124-1.02-.161-.518-.097-1.033-.227-1.547-.343-.047-.029-.038-.121-.027-.166.031-.129.541-.372.691-.468,1.541-.994,2.947-1.87,4.557-2.76,1.661-.917,3.351-1.825,4.998-2.738.053-.029.428-.198.451-.172-.046.12.039.257.046.324.004.03-.002.062,0,.093.03.42-.02.871,0,1.296.005.1.043.181.046.232.022.331.056.65.093.972.008.063,0,.085,0,.093.015.123.028.249.046.371.002.015-.002.031,0,.046.022.006.042.025.046.046.006.028-.005.064,0,.092.022.113.063.185.093.278.062.199.077.312.185.509.047.087.062.157.139.232,0,.068.026.119.092.139.054.2.162.304.278.463.052.071.05.195.185.185.043.136.378.487.509.555.03.016.034.037.093.046.029.093.131.097.185.139.27.206.301.222.602.371.137.067.199.128.371.185.077.026.143.064.231.046-.076-.041.018.055.046-.055.189-.021.186-.055.371-.037.03.002.062.066.093.069.011,0,.075-.026.156-.02.194.014.558.123.741.052.092,0,.122-.098.214-.102.15-.007.263-.036.371-.046.03-.003.063.003.093,0,.215-.026.453-.019.648-.139.015-.002.031.002.046,0,.116-.019.272-.015.405-.026.104-.009.016.05.065.054l.132-.074c.033.205-.08.242-.232.324-.006.004-.097.03-.139.046-.05.02-.076.028-.119.04-.006.002-.012.004-.019.006-.015.005-.032-.004-.046,0-.077.022-.168.04-.232.093-.113.012-.14.026-.232.046-.312.028-.675-.059-.973.046-.015-.002-.031.002-.046,0-.031-.003-.063.003-.093,0-.061-.006-.125.007-.185,0-.045-.005-.156-.034-.232-.046.009.157-.028.309-.046.464-.034.283-.082.511-.139.786-.012.063-.032.124-.046.185-.035.159-.087.227-.092.371-.002.03-.002.063,0,.093.002.03-.003.062,0,.092.084-.011.203.018.278,0v.092c.063.015.247-.019.278,0,.004.003-.019.08.031.093.065.018.17-.007.247,0,.027.002.085-.006.092,0,.089.08.401.174.556.185.03.002.062-.002.093,0,.06.003.124.002.185,0,0,.033-.019.1.028.093l2.825.002c.041.008.181-.076.203-.096.062,0,.124,0,.185,0,.236-.002.175-.083.217-.092.151-.033.252-.086.277-.092.099-.024.233.013.339-.002v-.093l.46-.096c.013-.029-.002-.061.002-.089h.093c.031,0,.062.002.093,0,.005-.031-.004-.063,0-.093.031,0,.062,0,.093,0,.134.003.257-.025.278-.185.161.053.16-.056.223-.089.135-.072.083-.049.148-.097.087-.064.158-.035.185-.185.031,0,.062.002.093,0,.08-.125-.03-.208-.046-.277ZM21.03,18.676c.002.008.002.018-.002.027.003-.009.003-.018.002-.027ZM12.036,20.538c-.015-.019.02-.08-.009-.093-.029-.084.002-.126.009-.185.002-.015-.002-.032,0-.046.103-.063.098-.201.139-.278.032-.059.098-.163.139-.232.172-.287.372-.591.555-.879.04-.063.068-.15.093-.185.027-.039.112-.154.139-.185.155-.181.106-.093.244.016l.007.07c-.054.042-.064.079-.073.09-.123.156-.113.302-.208.472-.039.071-.073.109-.104.167-.034.063-.045.194-.098.298-.036.071-.125.006-.159.115l-.028.115c-.002.015-.047,0-.049.014-.066.02-.051.099-.052.167-.059.056-.119.009-.153.059-.019.028-.039.252-.022.271.03.003.002.028.033.031.09.008.19.047.281.049.053.085.248.015.333.028.015.002.068.005.083.007.211.032.395.076.611.104.063.008.158.091.219.052.005.022.027.032.049.035l-.007.134-.073.117c-.031.002-.062-.002-.093,0-.168-.073-.41-.085-.602-.093-.015,0-.031,0-.046,0-.168-.077-.41-.079-.602-.093-.031-.002-.063.002-.093,0l-.464-.139ZM14.803,23.331c-.061.003,0,.048-.062.046-.378-.382-.424-.673-1.028-.742-.377-.042-.71.025-1.008.265-.066.053-.122.064-.128.07-.025.022-.067.076-.077,0v-.049c.002-.044-.098-.01-.094-.021.073-.243.126-.219.278-.37l.092-.093c.038-.015.077-.041.093-.046.007-.002.012-.005.019-.006.04-.015.065-.026.121-.04.015-.004.032.004.046,0,.093-.023.227-.003.298-.071.1-.002.208-.032.303-.021.049.006.097.012.141.021.356.063.583.195.831.489.014.016.032.029.046.046.009.012.063.098.093.139.062.086.049.207.091.267l-.056.118ZM16.419,19.104l-.307.091-.416.046c.158.053.253.135.408.197.056.022.036.029.086.046.023.008.065.093.103.092.012.032.07.001.08.031l-.023.129c-.016.015-.08.105-.099.108l-.131-.043-.008-.003c-.037-.008-.087-.033-.139-.046l-.139-.092c-.008-.008-.036.007-.046,0-.08-.059-.233-.167-.324-.185-.015-.003-.031.002-.046,0-.369-.354-.945-.464-.233-.834h0c.029-.015.064-.034.093-.046.102-.045.238-.055.324-.139.015-.002.031.003.046,0,.272-.053.5-.279.781-.17.004.031.021.036.023.066-.103.047-.108.109-.247.174-.199.093-.398.225-.604.301l.579.092.306.073-.069.115ZM16.883,17.612c.199.08-.443.039-.597.017-.15-.021-.256-.023-.402-.067-.13-.039-.292-.049-.426-.072-.097-.017-.198-.016-.294-.042-.095-.026-.176-.095-.276-.104-.031-.003-.043-.042-.074-.044-.164-.011-.46-.148-.284-.325.127-.127.295-.039.448-.006.403.088.775.233,1.184.294.234.035.488.025.706.129.066.032-.005.101.058.133.005.003-.043-.004.037.003.005,0-.032-.003-.037-.003-.192.01-.1.064-.044.086Z"/>
          <path d="M14.071,20.628c.034.064-.007.171-.084.212-.09.046-.204.017-.3-.003-.243-.045-.473-.045-.708-.103-.319-.042-.599-.035-.884-.166-.095-.042-.114-.117-.097-.213.168-.53.513-.971.804-1.45.102-.162.177-.342.312-.479.109-.128.295-.097.29.088-.006.062-.023.089-.048.14-.235.436-.455.905-.746,1.315-.051.116-.299.357-.022.349.431.029.838.114,1.261.202.077.016.178.029.219.099l.005.009Z"/>
          <path d="M16.12,19.207c-.121.014-.527.016-.226.122.178.083.724.211.467.471-.141.085-.306-.001-.446-.065-.253-.138-.514-.252-.754-.428-.235-.172-.434-.296-.291-.467.073-.089.18-.156.28-.208.279-.132.538-.201.829-.332.103-.044.21-.087.322-.098.087-.009.218.003.247.086.009.176-.483.352-.641.416-.121.046-.255.085-.225.112.063.04.247.052.372.075.162.033.33.008.491.036.093.023.05.144-.039.215-.104.08-.247.053-.372.063h-.015Z"/>
          <path d="M17.622,25.937c-.317.141-.641.246-1.001.27-.167.007-.336-.003-.503.007-.419.047-.786.056-1.217-.062-.183-.046-.389-.093-.549-.191-.18-.122.039-.144.153-.134.233.019.456.074.707.081.459-.01.935-.077,1.38-.115.34-.015.654-.172.981-.235.308-.035.305.235.062.371l-.012.007Z"/>
          <path d="M14.945,23.21c.032.109-.034.262-.146.235-.068-.015-.147-.08-.208-.152-.177-.213-.296-.45-.561-.568-.451-.183-1.022-.126-1.359.224-.105.114-.276.152-.264-.052.016-.111.073-.189.145-.269.162-.182.365-.284.595-.326.145-.038.294-.074.446-.065.408.016.78.193,1.036.503.108.139.265.299.314.456l.003.013Z"/>
          <path d="M17.021,17.607c-.21.279-1.256-.028-1.573-.104-.24-.044-.466-.11-.692-.173-.083-.025-.17-.059-.233-.116-.137-.118-.112-.301.073-.329.111-.02.233.004.343.027.357.077.709.235,1.081.314.213.051,1.051.072,1.004.373l-.004.008Z"/>
          <path class="cls-4" d="M21.029,18.703c.003-.009.003-.018.002-.027.002.008.002.018-.002.027Z"/>
          <path class="cls-4" d="M14.979,16.921l-.164-.041c.095.008.118.026.164.041Z"/>
          <path class="cls-4" d="M17.408,26.002c-.05.02-.076.028-.119.04l.119-.04Z"/>
          <path class="cls-4" d="M13.009,22.344l-.121.04c.04-.015.065-.026.121-.04Z"/>
          <path class="cls-4" d="M16.852,17.389l-.139-.046c.082.014.075.017.139.046Z"/>
          <path class="cls-4" d="M22.131,25.817c0-.005-.036-.012-.046-.093l.046.093Z"/>
          <path class="cls-4" d="M11.341,22.25v-.092c.008.063,0,.085,0,.092Z"/>
          <path class="cls-7" d="M11.97,18.347c-.022.118-.7.051-.719.032v-.371s.719.338.719.338Z"/>
          <path class="cls-1" d="M11.434,22.715c-.021-.007-.043-.026-.046-.046.022.006.042.025.046.046Z"/>
          <path class="cls-1" d="M21.029,18.703c.003-.009.003-.018.002-.027.002.008.002.018-.002.027Z"/>
        </g>
      </g>
      <g>
        <path class="cls-2" d="M33.06,35.015c.016.117-.003.223-.123.26-.079.024-.169.018-.235.067-.034.025-.057.061-.088.09-.066.061-.161.078-.25.094-.835.148-1.582.5-2.393.71-.382.098-.882.229-1.216.398-.201.101-.304.334-.328.552-.022.199.005.547,0,.786-.065,2.531-.297,5.079-.186,7.646.171.253.096.751.096,1.085-.192.005-.388-.008-.581,0-.089.003-.185-.048-.16.092H6.896c.026-.082.043-.165.048-.252.204-3.695.42-7.507.32-11.21-.015-.061-.384-.084-.468-.12-.711-.305-1.398-.634-2.092-.997-.547-.287-1.137-.556-1.689-.845-.03-.015-.304-.21-.342-.232-.305-.181-.112-2.179-.101-2.467.096-1.54.01-1.823.296-3.347.049-.263.062-.52.095-.781.018-.138.148-.361.09-.493.06-.012.097-.084.252-.096.232-.017.288.055.468.093,1.089.236,2.241.474,3.469.746,1.3.289,2.889.894,4.217.74,1.137-.131,2.21-.102,3.338.089.064.011.138.006.203.002-.035.159-.091.227-.092.37,0,0,.096.137.153.15.267.06.7.132.754.147.974.26,1.884.316,2.89.251.561-.036,1.106-.121,1.654-.251.443-.105.769-.121,1.138-.405.158-.122.884-.408.923-.615.031,0,.15.023.18.029.635.112,1.423.148,2.1.328l6.209-.005.292.103c.02.026.005.056.008.083.017.194.053.337.093.524.008.036.083.029.091.063.134.558.146,1.231.28,1.789.119.496.256.972.37,1.482.038.167.248.581.277.712.11.501.205,1,.403,1.458.019.044.039.088.06.131.11.224.139.455.19.713.016.078.071.212.088.334Z"/>
        <path class="cls-3" d="M28.337,46.702v.093h-.741c-.026-.14.071-.089.16-.093.193-.008.388.005.581,0Z"/>
      </g>
      <g>
        <path d="M24.349,15.536c-.113.026-.101-.058-.116-.136-.275-1.38-.26-2.371-1.253-3.519-.112-.129-.225-.248-.39-.12.137.146.122.34.182.512.153.435.431.827.373,1.317-.116.133-.279-.547-.302-.601-.135-.317-.303-.591-.414-.929-.197-.596-.274-1.471-.581-1.989.842.168,1.537.68,2.056,1.348.694.892.695,1.399.632,2.521-.028.493-.214,1.128-.187,1.596Z"/>
        <path d="M21.712,18.615c.015-.333-.327-.449-.531-.67-1.084-1.171-1.116-2.109-1.388-3.568-.388-2.084-1.703-2.322-2.721-3.808-.134-.196-.348-.557-.342-.829.002-.1.034-.188.109-.251.047-.04.112-.07.198-.088-.165-.144-.128-.272-.371-.301-.163-.019-.316-.012-.462.009-.324.042-.613.143-.897.125-1.487-.09-2.954-1.106-4.624-.769-.881.178-1.331.926-1.184,1.804.035.207.262.444.253.606-.007.134-.195.447-.242.632-.12.476-.067,1.029.301,1.389.027.027.357.243.406.266.156.073.444.09.536.147.07.044.073.293.19.423.099.11.301.189.442.23-.224.446-.128,1.017-.236,1.504.059,1.347-.107,2.439.004,3.589.003.03-.005.067,0,.093.066.275.139.19.324.139.409-.305.826-.397,1.019-.834,0-.015,0-.031,0-.046,0-.038-.076-.1-.103-.122-.04-.033-.086-.06-.131-.085-.122-.068-.257-.121-.387-.179-.137-.061-.257-.151-.392-.212-.037-.017-.136-.034-.147-.081l.002-.71c.139.02.279.003.417-.017.062-.009.124-.021.186-.027.067-.007.134.006.2-.008.08-.017.159-.047.238-.067.206-.052.418-.075.624-.124.1-.02.235-.052.271-.162.023-.069-.003-.146.009-.198-.018-.013-.03-.034-.046-.046-.148-.021-.296.013-.438.053-.133.037-.261.06-.395.086l-.995.232c-.04-.002-.029-.141-.024-.185.007-.057.012-.262.021-.304-.009-.263.019-.38.029-.551.012-.237.026-.393.043-.628.002-.03-.002-.062,0-.092.025-.319.092-.664,0-.973l.648.093c.062,0,.124,0,.185,0,.702.005,1.404.015,2.106.009.423-.004.846-.005,1.269-.028.214-.011.615-.074.83-.074.101,0,.14,0,.333,0,.087-.015.297-.065.384-.04.102.029.141.185.171.272.048.139.135.184.201.313.068.134.129.386.179.527.11.316.223.532.379.833.167.322.385.619.578.927.027.043.055.087.098.112.136.079.326.153.473.072.116-.064.2-.174.315-.238.012-.006.034.006.046,0,.039-.019.07-.076.139-.093.004,0,.008,0,.012,0,.012,0,.023.002.035,0l.208-.093c.045,0,.019.062.024.093.002.015,0,.032,0,.046.062.072.168.24.185.324.002.014-.002.031,0,.046.056.104.256.376.277.463.003.012.002.033,0,.046.083.049.141.149.185.232.006.012-.007.035,0,.046l.502.493c.008.039-.016.086-.051.133-.053.072-.133.144-.171.193-.003.003-.005.006-.008.009-.069.124-.127.252-.207.372-.073.11-.21.151-.209.305,0,.056.319.746.375.903.068.189.087.343.139.509.007.023.015.045.022.068.008.022.016.046.023.071.012.041.032.083.046.139.042.158.161.381.185.555.009.058-.005.125,0,.185.085.084.065.222.093.324.004.015-.004.032,0,.046.021.08.066.155.093.278.003.015-.003.032,0,.046.037.177.076.246.093.463.002.031-.002.062,0,.093l.093.278c.015.015.034.066.046.093.119.011.203.029.324,0,.389-.092,1.158-.737,1.435-1.044.34-.376.579-.806.733-1.279.039-.118.073-.24.101-.363-.867-.751-1.789-1.437-2.688-2.155ZM11.804,18.316c-.022.118-.515.054-.534.034l.026-.312.508.278Z"/>
        <g>
          <path class="cls-7" d="M41.432,28.761c-.085-.621-1.312-1.986-1.793-2.431-3.347-3.093-7.369-5.044-11.229-7.376-.892-.538-3.619-2.178-3.977-3.061-.043-.105-.077-.243-.083-.357-.113.026-.101-.058-.117-.136-.276-1.379-.26-2.37-1.253-3.518-.112-.129-.226-.248-.389-.12.137.146.121.34.182.512.153.435.43.827.372,1.317-.116.133-.279-.547-.301-.601-.135-.317-.303-.591-.415-.929-.196-.596-.273-1.472-.58-1.989-.271-.458-2.144-1.693-2.674-1.888-.083-.03-.219-.079-.364-.114-.139-.033-.286-.055-.402-.036-.112.018-.196.072-.219.186,1.124.627,2.739,1.69,3.185,2.951.027.078.133.299-.014.292-.263-.013-.394-.589-.506-.791-.234-.42-.871-.932-1.254-1.247-.426-.352-1.202-.794-1.457-1.205-.076-.124-.413-.288-.737-.36-.428-.094-.835-.029-.606.498-.319-.028-.651-.003-.652.394,0,.169.165.282.004.348.019.002.037.005.053.009.185.039.167.158.318.292-.594.124-.179.854.036,1.168,1.018,1.486,2.333,1.724,2.721,3.808.171.915.246,1.625.548,2.316.178.411.436.815.84,1.252.185.2.482.313.526.579.005.028.006.058.005.09.899.718,1.821,1.405,2.688,2.155.138.12.276.24.413.363,2.03,1.802,3.937,3.796,6.148,5.37.233.166,1.53,1.08,1.682,1.12.122.032.243.067.365.105.635.195,1.248.447,1.894.623.316.086,1.858.352,1.975.478.152.162-.007.285-.18.316-1.195-.226-2.429-.526-3.531-1.051-.158-.075-.43-.166-.507-.328-.008-.016-.014-.032-.017-.05-.311.02-.614.07-.922.093-.17.012-.341.015-.514,0,.031.003.038.226.041.251.022.171.098.324.131.492.043.216.084.432.125.648.08.425.127.866.232,1.285.073.29.944,3.516,1.045,3.483.149-.049.602-.08.756-.119.542-.143.804-.258,1.328-.413,1.864-.549,4.25-1.606,5.831-2.737.227-.162,1.147-.946,1.198-1.163.04-.169.075-.605.052-.774ZM16.883,8.391c.204.033.662.367.766.439.606.423,1.427,1.018,1.977,1.496.448.39.919.905,1.017,1.506-.254-.163-.332-.491-.509-.718-.311-.399-.873-.643-1.272-.95-.29-.223-.591-.551-.882-.785-.369-.297-.763-.561-1.149-.832l-.025-.116-.005-.025c.016-.017.045-.02.082-.015ZM16.593,9.608c-.029-.059-.029-.12-.024-.184.066-.009.121,0,.183.025.026.011.056.024.087.04.54.273,1.744,1.252,2.138,1.624.145.137.92.893.74,1.089-.106.116-.399-.452-.464-.531-.32-.395-.953-.868-1.374-1.174-.171-.124-.851-.527-1.15-.757-.073-.056-.124-.103-.138-.132ZM40.403,29.092c-.011.025-.348.354-.39.382-.342.23-.728.298-1.111.107-.217-.109-.359-.418-.433-.625-.015-.039-.08-.037-.087-.069-.136-.583.309-1.342.905-1.446.237-.042.46.072.65.202.387.265.664,1.01.467,1.449Z"/>
          <path d="M18.19,8.22c1.124.627,2.739,1.691,3.185,2.951.028.078.133.299-.014.292-.263-.013-.394-.589-.506-.791-.233-.421-.87-.932-1.253-1.247-.427-.351-1.202-.794-1.458-1.205h.046Z"/>
          <path class="cls-5" d="M39.936,27.643c.387.265.664,1.01.467,1.449-.011.025-.349.354-.391.382-.342.231-.728.298-1.11.107-.217-.109-.359-.417-.434-.625-.014-.039-.079-.037-.087-.069-.136-.583.309-1.342.904-1.446.237-.042.46.072.65.202Z"/>
          <path d="M32.129,27.715c-.005-.028.004-.063,0-.093.767.202,1.491.519,2.259.728.317.086,1.859.352,1.976.478.152.163-.007.285-.181.316-1.195-.225-2.429-.526-3.53-1.051-.173-.082-.486-.184-.524-.379Z"/>
          <path d="M20.644,11.832c-.254-.164-.332-.491-.509-.718-.311-.399-.873-.643-1.272-.95-.29-.223-.591-.551-.882-.785-.368-.296-.763-.561-1.149-.832l-.03-.141c.109-.11.726.339.849.424.606.422,1.427,1.018,1.977,1.496.448.39.919.905,1.018,1.506Z"/>
          <path d="M19.718,12.202c-.106.116-.4-.453-.464-.531-.32-.394-.953-.868-1.374-1.173-.213-.154-1.214-.74-1.287-.889-.029-.06-.029-.12-.024-.184.066-.009.121,0,.183.025.485.197,1.808,1.271,2.226,1.664.145.136.92.893.74,1.089Z"/>
        </g>
      </g>
    </g>
  </g>
  <path class="cls-7" d="M11.27,18.635v.288s.534-.238.534-.278c.002-.133-.534-.01-.534-.01Z"/>
</svg>