<?xml version="1.0" encoding="UTF-8"?>
<svg id="Layer_1" data-name="Layer 1" xmlns="http://www.w3.org/2000/svg" viewBox="0 0 46.368 46.593">
  <defs>
    <style>
      .cls-1 {
        fill: #2a1302;
      }

      .cls-2 {
        fill: #d55e00;
      }

      .cls-3 {
        fill: #e9e4a2;
      }

      .cls-4 {
        fill: #2c1403;
      }

      .cls-5 {
        fill: #fed8c1;
      }

      .cls-6 {
        fill: #e69f00;
      }

      .cls-7 {
        fill: #fefefe;
      }

      .cls-8 {
        fill: #2d1402;
      }

      .cls-9 {
        fill: #2c1302;
      }
    </style>
  </defs>
  <rect class="cls-5" x="2.968" y="13.832" width="16.284" height="18.417"/>
  <g>
    <path class="cls-5" d="M46.309.01c-.006,9.142.016,23.658.006,33.735.004,3.744-.003,10.823,0,12.722-.002.049.011.064-.026.068-.324-.061-9.405.045-12.62,0-9.707.017-25.019-.005-33.656-.006.014-8.718-.023-24.031-.006-33.819C-.013,9.574.02.223.007.031.01-.009.027.009.074.004c1.886-.003,8.939.002,12.661,0,10.005-.011,24.502.001,33.573.006h0ZM38.509,15.812c.185.209.143.533.281.784.162.313.495.2.681-.122.331-.603.556-1.502.059-1.987-.185-.119-.384-.015-.585.037-.186.056-.371.081-.568.051-.916-.184-1.856-.345-2.691-.808-.547-.244-.832-.635-.808-1.249-.006-.319.117-.63.419-.757.408-.199.985-.358,1.265-.722.443-.626-.242-1.061-.85-.809-.3.048-1.091.596-1.292.285-.096-.319.12-.715.213-1.028.293-.808.691-1.476,1.158-2.173.182-.254.367-.643.723-.611.183.011.422.125.628.113.252-.007.407-.247.375-.483-.056-.484-.512-.925-.922-1.311-.263-.271-.851-.537-.989-.025-.061.214.003.403-.052.594-.17.39-.434.613-.766,1.088-.543.716-1.213,1.602-1.547,2.042-.079.099-.168.22-.297.231-.083.007-.164-.031-.24-.068-.316-.181-.789-.472-1.178-.609-1.172-.327-.569-1.151-.717-2.025-.04-.439-.538-.709-.86-.351-.332.385-.356.985-.469,1.453-.101.545-.62.595-1.087.648-.283.037-.554-.028-.771-.23-.723-.741-1.206-1.677-1.791-2.524-.18-.26-.39-.599-.17-.889.174-.286.85-.718.499-1.095-.363-.27-.95.081-1.294.307-.403.289-1.387.781-.856,1.291.322.198.672.365.83.752.285.599,1.696,2.794,1.285,3.329-.664.741-1.426-.775-2.192-.544-.352.086-.404.511-.2.772.214.322.632.611.895.852.093.086.184.187.212.311.052.281-.103.595-.296.796-.326.313-.833.156-1.239.15-.504-.045-.947-.008-1.433-.055-.42-.039-.84-.165-1.254-.216-.181-.025-.366-.043-.53-.119-.261-.1-.444-.419-.731-.395-.522.172-.471,1.705-.118,2.039.404.437.587-.307.942-.379.263-.057.57.063.836.114.8.173,1.613.34,2.383.663.556.204,1.001.622,1.138,1.214.099.292.169.644-.13.819-.345.238-.92.407-1.262.674-.603.474-.073,1.192.61.951.547-.103,1.325-.683,1.841-.464.536.328,1.044.858.703,1.52-.502,1.168-1.376,2.133-2.103,3.173-.15.22-.33.423-.582.516-.249.103-.557.11-.66.284-.179.417.274.794.576,1.057.405.305.814.613,1.269.474.172-.065.279-.229.242-.421-.057-.298-.362-.568-.289-.896.046-.223.226-.419.377-.598.71-.816,1.619-1.71,2.474-2.414,2.236-1.885,1.361-.104,1.595,1.469.073.452.509.763.894.49.379-.28.275-.785.293-1.262.025-.538-.063-1.025.057-1.487.164-.313.577-.326.933-.248.434.133.746.533,1.058.854.865.969,1.669,2.093,2.268,3.252.115.304-.059.638-.002.927.223.579.996.157,1.327-.128.419-.347.935-.684,1.022-1.236.022-.235-.128-.426-.39-.414-.295,0-.578.233-.866.204-.246-.028-.386-.288-.509-.49-.562-.954-1.219-1.868-1.581-2.929-.313-.868.063-.647.625-.18.349.257.71.599,1.15.623.539.015.674-.578.367-.958-.196-.271-.474-.464-.764-.696-.346-.289-.79-.532-.867-.815.06-.66,2.794-.218,3.328-.196.319.055.71-.027.958.205l.008.008ZM12.34,13.679c.119-.312.36-.56.432-.896.284-1.345-1.627-2.496-2.213-.898-.203.559-.13,1.188.249,1.559.173.17.375.318.495.533.28.449-.061.953-.45,1.203-1.346.986-2.718,1.944-4.133,2.831-.373.23-.941.319-1.2-.102-.185-.281-.189-.641-.351-.99-.146-.327-.412-.647-.725-.774-.6-.271-1.165.255-1.391.837-.286.657.052,1.396.67,1.694.624.294,1.53.316,1.889,1.011.138.304.058.663.044.99-.094,1.365-.254,2.724-.363,4.09-.036.446-.072.898-.085,1.343-.012.34.003.679.013,1.02.011.29-.034.566-.208.812-.569.801-1.236.208-1.854.564-.46.306-.548,1.025-.398,1.515.21.735,1.144,1.062,1.75.586.374-.263.5-.751.724-1.111.234-.377.52-.568.959-.403,1.288.328,5.272,1.343,6.39,1.631.173.049.262.127.334.321.321.831-.461,1.56-.026,2.378.241.487.783.784,1.281.577.582-.234,1.004-.99.801-1.614-.123-.427-.679-.696-.681-1.183.013-.317.275-.558.521-.741,1.533-1.11,3.195-2.084,4.722-3.198.318-.189.836-.792,1.204-.587.204.15.279.435.398.655.221.453.69.722,1.162.605.796-.201,1.267-1.259.57-1.877-.721-.687-1.531-.133-2.08-.638-.166-.162-.236-.413-.27-.647-.209-1.493-.301-3.029-.547-4.541-.06-.375-.129-.749-.202-1.12-.024-.168-.094-.437.002-.546.025-.03.061-.049.099-.059.159-.044.524.018.782-.1.652-.249,1.21-1.069.844-1.729-.327-.649-1.32-.898-1.837-.313-.375.4-.426,1.044-1.065.791-1.926-.913-3.887-1.808-5.857-2.626-.374-.131-.58-.463-.403-.842l.005-.013ZM30.351,24.978c.246-.223.746-.111,1.023-.374.267-.216.264-.654-.058-.827-.386-.217-.89-.148-1.322-.165-.655.031-1.388-.246-1.99.09-.263.172-.293.52-.014.714.21.16.523.21.765.307.53.184.245,1.021.225,1.469-.075.474-.217.95-.329,1.426-.097.411-.191.907-.617,1.073-.958.476-1.145.316-1.666-.532-.16-.231-.321-.456-.55-.596-.537-.347-1.012.164-.763.712.11.287.339.631.512.923.136.241.334.486.283.77-.202.693-1.211.457-1.768.418-.611-.048-1.164-.093-1.77-.273-.491-.161-1.075-.201-1.013-.757.094-.801-.548-.869-.966-.295-.339.489-1.125,1.938-.626,2.434.441.31.668-.404.998-.562.499-.19,1.479.583,1.976.793.404.206.863.339,1.196.656.362.318.662.918.375,1.371-.376.512-1.559.245-2.051.745-.328.286-.168.797.212.945.551.327,1.826-.42,2.2.131.351.773-1.122,1.799-1.639,2.241-.241.18-.478.435-.774.507-.271.068-.545-.133-.79-.186-.432-.081-.275.472-.137.695.196.358.416.662.626,1.016.174.279.34.619.622.795.518.274.731-.333.546-.757-.097-.307-.18-.543.03-.768.372-.344,2.507-1.819,2.89-1.236.124.408-.222.803-.324,1.19-.164.442-.351,1.214.186,1.418.913.151.876-2.484,2.06-1.58.213.251.078.584.083.896-.042.59-.095,1.385-.129,1.847-.013.137-.028.28-.108.386-.15.185-.449.213-.589.414-.4.823,1.414,1.017,1.965,1.028.478.025,1.36.083,1.457-.524-.038-.569-.784-.598-1.22-.683-.584-.123-.441-.762-.317-1.182.19-.554.364-1.213.678-1.71.202-.263.545-.303.852-.358.331-.055.64-.182.936-.154.615.069.794,1.057,1.298,1.397.467.39,1.098.033.953-.578-.071-.48-.626-1.032-.687-1.453-.035-.332.285-.576.508-.804.478-.554.98-.64,1.697-.554.735.058,1.467.148,2.204.184.409.036.935.045,1.121.471.096.199.109.501.218.678.255.413.663-.053.795-.333.269-.58.506-1.319.483-1.985-.046-.433-.427-.581-.728-.305-.271.245-.506.475-.875.359-.998-.326-1.945-.849-2.785-1.466-.3-.202-.714-.719-.244-.956.421-.186,1.095-.19,1.53-.441.597-.288.526-.954-.134-1.034-.508-.092-1.174.175-1.649.038-.713-.325.392-1.366.657-1.731.435-.505.811-.9,1.286-1.313.287-.221.575-.542.933-.613.417-.019.593.514.986.59.364.105.679-.245.594-.601-.057-.501-1.583-2.759-2.069-1.921-.146.386.017.878-.395,1.17-.942.738-2.012,1.289-3.1,1.754-.297.129-.628.172-.925.033-.301-.153-.633-.329-.742-.634-.048-.259.115-.451.285-.725.164-.259.339-.519.406-.769.18-.582-.455-1.046-.939-.62-.334.286-.554.713-.803,1.081-.194.367-.736.822-.991.263-.148-.34-.097-.85-.157-1.245-.023-.487-.228-1.445.096-1.823l.008-.008Z"/>
    <path class="cls-7" d="M46.339.007c.057,8.871.009,23.951.024,33.849-.009,3.169.015,12.52-.007,12.724-1.565.025-3.969-.008-8.271.005-11.57-.019-27.275.044-38.075-.025,10.82-.07,26.495.006,38.077-.021,4.287-.008,6.661.011,8.223-.004.047-.272-.018-9.505.007-12.705.031-9.854-.049-25.006.022-33.822h0Z"/>
    <g>
      <path class="cls-2" d="M12.334,13.693c-.178.382.031.71.403.842,1.97.818,3.931,1.712,5.857,2.626.633.255.693-.394,1.065-.791.515-.583,1.512-.337,1.837.313.366.661-.191,1.479-.844,1.729-.259.117-.625.056-.782.1-.038.01-.074.029-.099.059-.096.11-.029.379-.002.546.074.371.142.746.202,1.12.246,1.512.338,3.048.547,4.541.034.234.104.485.27.647.555.507,1.354-.051,2.08.638.692.614.232,1.675-.57,1.877-.605.147-1.078-.3-1.282-.858-.09-.179-.182-.409-.394-.445-.403-.009-.755.425-1.088.63-1.527,1.114-3.189,2.088-4.722,3.198-.246.183-.508.424-.521.74.002.486.558.755.681,1.183.203.624-.219,1.38-.801,1.614-.498.205-1.04-.089-1.281-.577-.435-.817.346-1.547.026-2.378-.072-.194-.162-.272-.334-.321-1.253-.322-5.228-1.34-6.636-1.69-.308-.05-.561.216-.713.461-.224.359-.351.848-.724,1.111-.602.474-1.543.151-1.75-.586-.15-.49-.062-1.209.398-1.515.623-.357,1.282.239,1.854-.564.174-.246.219-.521.208-.812-.009-.34-.025-.68-.012-1.02.014-.446.049-.897.085-1.343.109-1.366.269-2.724.363-4.09.014-.327.094-.686-.044-.99-.36-.695-1.264-.717-1.889-1.011-.617-.297-.957-1.038-.67-1.694.228-.58.789-1.109,1.391-.837.313.126.58.446.725.774.162.35.166.71.351.99.26.422.826.332,1.2.102,1.415-.887,2.787-1.845,4.133-2.831.389-.249.731-.757.45-1.203-.12-.214-.322-.362-.495-.532-.379-.371-.452-1.001-.249-1.559.581-1.59,2.495-.46,2.213.898-.072.337-.313.584-.432.896l-.005.013ZM11.044,17.554c-.298.526-.646,1.022-.943,1.558-.129.24-.291.5-.433.721-.288.438.142.442.482.412.228-.02.46-.043.688-.062.984-.094,1.9-.192,2.864-.358.258-.032.521-.077.796-.102.159-.018.409-.036.506-.139.095-.129-.045-.25-.124-.365-.496-.594-.974-1.151-1.48-1.747-.337-.389-.669-.838-1.061-1.179-.447-.346-.713.327-.977.715-.106.175-.21.355-.31.532l-.008.013ZM15.328,17.97c.305.383.693.737,1.014,1.101.143.152.292.379.521.346.21-.045.368-.24.532-.376.239-.227.536-.487.612-.646.016-.034.026-.067.022-.098-.022-.112-.15-.147-.246-.197-.715-.324-2.771-1.258-3.486-1.582-.221-.099-.366-.142-.096.171.345.41.771.874,1.117,1.27l.01.011ZM9.523,18.265c.125-.195.249-.39.37-.588.188-.311.404-.674.352-.746-.081-.067-.29.106-.445.198-.617.411-1.319.971-1.849,1.366-.225.172-.497.31-.701.51-.259.251.029.495.228.657.199.154.444.388.692.345.256-.05.418-.365.608-.618.252-.367.501-.745.737-1.11l.009-.014ZM17.798,19.903c-.505.395-.198.755.079,1.151.182.257.361.556.543.857.065.098.687,1.19.594.618-.144-.788-.33-2.181-.51-2.935-.092-.23-.55.205-.692.298l-.013.011ZM7.019,20.43c-.285-.117-.32.229-.339.437-.108,1.136-.295,2.282-.258,3.426.026.504.401-.89.429-.974.207-.747.569-1.481.824-2.179.032-.143-.043-.265-.147-.361-.119-.113-.336-.28-.497-.345l-.011-.004ZM15.841,21.036c-.078-.105-.333-.129-.486-.134-.372-.011-.676.02-1.01.051-.47.053-.714.107-1.225.129-.291.008-.6.02-.882.053-.473.047-1.057.101-1.551.18-.352.049-.751.047-1.108.078-.204.013-.504.042-.494.284.008.271.238.549.388.792.611.878,1.241,1.766,1.814,2.678.368.564.8,1.111,1.204,1.648.175.22.426.554.707.537.276-.048.373-.377.478-.609.236-.627.477-1.325.736-1.938.37-.91.754-1.826,1.16-2.722.095-.219.195-.448.269-.671.045-.149.069-.256.006-.348l-.005-.007ZM18.889,24.677c-.555-.786-.98-1.577-1.563-2.339-.448-.64-.606.02-.784.426-.368.965-.771,1.932-1.298,2.832-.152.277-.328.578-.458.856-.159.335-.071.454.275.357.472-.1,1.114-.369,1.617-.54.344-.125.713-.179,1.043-.276.408-.121.904-.231,1.321-.386.454-.215.067-.591-.143-.916l-.009-.013ZM8.622,27.728c.731,0,1.477,0,2.212,0,.302-.015.563.04.719-.122.08-.134-.082-.33-.172-.462-.933-1.259-1.791-2.599-2.729-3.861-.307-.396-.671-.977-.929-.176-.257.566-.369,1.203-.556,1.783-.258.678-.497,1.367-.7,2.063-.2.583-.056.791.557.774.53,0,1.062,0,1.582,0h.016ZM16.422,27.783c-.011.07.052.034.005-.001h-.005ZM16.343,27.802c-.576.18-1.655.588-2.215.795-.167.067-.277.186-.286.374-.004.136-.026.458.162.456.052-.007.108-.04.158-.072.249-.17.701-.494,1.131-.796.279-.207.919-.627,1.05-.757h0ZM11.033,28.82c-.112-.001-1.424-.103-.81.093.509.144,1.785.49,2.358.647.366.116.43-.107.292-.432-.168-.338-.541-.3-.898-.3-.313.002-.622.004-.926-.008h-.016Z"/>
      <path class="cls-6" d="M15.846,21.042c.186.365-.199.938-.328,1.297-.321.71-.626,1.436-.925,2.156-.246.581-.471,1.173-.692,1.769-.176.492-.441,1.433-1.083.913-.175-.138-.373-.367-.512-.544-.456-.589-.901-1.194-1.304-1.822-.396-.615-.819-1.22-1.241-1.816-.197-.287-.422-.581-.578-.89-.071-.144-.164-.365-.147-.481.096-.453.992-.272,1.347-.334.732-.076,1.469-.184,2.204-.229.501-.031,1.007-.056,1.494-.12.438-.026,1.482-.275,1.763.102h0Z"/>
      <path class="cls-6" d="M7.07,25.196c.019-.47.186-.947.314-1.406.127-.347.285-1.041.657-1.083.302.004.496.434.676.658.875,1.18,1.688,2.414,2.554,3.599.091.13.246.336.289.479.118.39-.469.352-.742.353-.299.004-.596.002-.894.002-.594.003-1.214.023-1.678-.371-.599-.531-1.176-1.404-1.175-2.215v-.015Z"/>
      <path class="cls-6" d="M13.374,17.627c.448.212.77.643,1.108,1.002.177.234.845.889.429,1.052-.313.123-.607.069-.937.125-.204.027-.614.085-.818.113-.935.131-1.71.214-2.649.293-.228.014-.586.079-.804.013-.356-.132-.009-.622.115-.832.255-.397.485-.788.756-1.164.411-.618,1.001-.77,1.728-.764.356-.003.728.006,1.058.154l.014.006Z"/>
      <path class="cls-6" d="M18.023,25.861c-.36.246-.801.318-1.231.453-.661.149-2.79,1.356-1.864-.262.184-.343.451-.72.629-1.065.381-.727.668-1.497.973-2.255.078-.185.168-.434.3-.58.228-.267.517.061.666.276.32.43.594.874.872,1.321.587.867.52,1.464-.332,2.103l-.013.009Z"/>
      <path class="cls-5" d="M15.399,17.91c-.415-.241-.715-.684-1.033-1.046-.071-.097-.39-.423-.291-.45.864.326,2.915,1.363,3.731,1.722.441.172.12.421-.09.646-.478.474-.732.136-1.169-.212-.345-.27-.773-.441-1.134-.652l-.013-.008Z"/>
      <path class="cls-5" d="M7.483,19.547c-.168.002-.355-.121-.335-.304.042-.285.573-.524.816-.733.57-.439,1.44-1.152,2.021-1.52.105-.065.336-.206.252.037-.17.387-.41.83-.714,1.14-.27.27-.637.431-.954.666-.21.15-.411.32-.606.488-.134.115-.296.225-.466.226h-.012Z"/>
      <path class="cls-5" d="M17.935,19.93c.058-.187.283-.38.444-.408.103-.009.127.097.149.189.125.75.398,2.236.486,2.923-.004.165-.148-.043-.205-.114-.19-.262-.387-.554-.525-.852-.134-.295-.176-.552-.25-.886-.054-.273-.187-.563-.104-.839l.004-.014Z"/>
      <path class="cls-6" d="M7.199,20.524q.091.069.174.132c.195.153.33.28.286.496-.201.559-.449,1.115-.653,1.725-.07.197-.22.639-.264.157-.039-.416-.006-2.393.359-2.567l.097.057Z"/>
      <path class="cls-6" d="M9.451,18.317c.044.108-.094.262-.154.367-.248.359-.514.741-.764,1.062-.093.112-.183.216-.32.27-.218.082-.676-.237-.694-.323.008-.158.387-.461.645-.681.236-.175,1.043-.786,1.283-.699l.004.004Z"/>
      <path class="cls-5" d="M16.344,27.803c-.138.134-.768.548-1.05.757-.43.302-.883.626-1.131.796-.05.032-.107.065-.158.072-.189.002-.166-.321-.162-.456.01-.188.119-.307.286-.374.559-.207,1.64-.617,2.215-.795h0Z"/>
      <path class="cls-6" d="M15.439,17.947c.298-.129,1.6.736,1.67,1.077.072.19-.039.431-.25.439-.146.008-.267-.103-.397-.257-.106-.124-.258-.28-.381-.417-.17-.19-.641-.635-.713-.782l.071-.06Z"/>
      <path class="cls-5" d="M11.033,28.872c.298.07.614.172.935.185.305.027.658-.083.875.147.095.104.116.253.062.326-.057.079-.193.052-.292.029-.629-.179-1.86-.486-2.518-.698-.14-.069.109-.073.176-.075.236-.008.512.024.747.082l.015.004Z"/>
      <path class="cls-6" d="M17.847,19.977c.061.057.09.131.133.286.039.141.084.312.121.451.038.15.073.274.079.413-.002.062-.066.191-.126.191-.024,0-.222-.326-.332-.467-.1-.151-.204-.359-.208-.547-.001-.151.148-.312.253-.376l.08.049Z"/>
      <path class="cls-6" d="M11.094,28.891c.057-.048.193-.033.277-.039.348,0,.709-.005,1.061-.005.103.002.226.009.317.039.042.014.063.032.061.052-.157.241-1.537.157-1.718-.044v-.003Z"/>
      <path class="cls-3" d="M16.426,27.782c.047.035-.015.071-.005.001h.005Z"/>
    </g>
    <g>
      <g>
        <path class="cls-2" d="M30.343,24.986c-.325.381-.119,1.341-.096,1.823.06.394.009.905.157,1.245.167.398.564.287.792.008.352-.423.582-.994,1.002-1.352.472-.423,1.126.039.939.62-.082.471-.809,1.076-.679,1.533.266.461.939.811,1.456.632,1.109-.423,2.165-.994,3.135-1.695.62-.402.386-.75.559-1.299.493-.841,2.01,1.429,2.069,1.921.082.357-.227.704-.594.601-.393-.076-.569-.609-.986-.59-.358.07-.647.393-.933.613-.476.413-.851.808-1.286,1.313-.256.354-1.374,1.41-.657,1.731.475.137,1.141-.13,1.649-.038.649.078.739.742.134,1.034-.435.251-1.109.254-1.53.441-.471.237-.055.754.244.956.84.617,1.787,1.14,2.785,1.467.367.115.605-.113.875-.359.297-.277.687-.127.728.305.024.667-.215,1.404-.483,1.985-.129.281-.541.746-.795.333-.109-.177-.122-.479-.218-.678-.186-.426-.712-.435-1.121-.471-.736-.036-1.469-.126-2.204-.184-.723-.086-1.216,0-1.697.554-.223.229-.544.472-.508.804.061.42.616.973.687,1.453.143.606-.483.972-.953.578-.503-.338-.683-1.329-1.298-1.397-.295-.028-.605.098-.936.154-.306.055-.65.096-.852.358-.314.497-.488,1.156-.678,1.71-.124.419-.267,1.061.317,1.182.436.087,1.182.113,1.22.683-.061.88-2.433.478-2.943.265-.294-.101-.712-.448-.479-.769.167-.241.571-.236.654-.546.103-.592.105-1.385.172-2.101-.006-.31.13-.647-.083-.896-.172-.19-.543-.253-.775-.056-.323.322-.47.897-.721,1.288-.15.24-.343.404-.565.348-.537-.205-.348-.978-.186-1.418.077-.347.587-1,.234-1.285-.626-.232-2.006.756-2.544,1.121-.153.108-.324.231-.371.415-.094.41.485,1.144-.148,1.379-.469.065-.714-.521-.934-.853-.235-.406-.514-.757-.704-1.184-.106-.226-.124-.604.216-.527.823.335.899.223,1.564-.321.529-.451,1.789-1.326,1.688-2.102-.038-.246-.256-.349-.496-.35-.544-.004-1.28.304-1.754.079-.376-.148-.543-.658-.212-.945.492-.5,1.671-.231,2.051-.744.286-.454-.012-1.053-.375-1.371-.333-.317-.792-.45-1.196-.656-.512-.216-1.466-.98-1.976-.793-.335.157-.557.873-.998.562-.48-.5.218-1.739.499-2.249.248-.5,1.046-.933,1.096-.082-.092.753.347.738,1.01.948.606.18,1.159.224,1.77.273.539.036,1.447.256,1.739-.323.207-.465-.627-1.296-.765-1.787-.247-.544.222-1.063.763-.712.229.14.39.365.55.596.529.858.708,1.003,1.666.532.426-.165.519-.663.616-1.073.112-.476.254-.952.329-1.426.019-.455.305-1.28-.225-1.469-.242-.097-.555-.147-.765-.307-.278-.193-.249-.543.014-.714.255-.17.603-.175.904-.157.416.029.823.072,1.243.068.382.006.83-.031,1.166.163.376.205.302.728-.052.904-.284.176-.697.096-.913.297l-.008.008ZM32.292,31.626c-.275-.482-.938-1.073-1.526-1.069-.306.011-.492.294-.508.581-.041.493.292.994.751,1.18.465.224,1.579.026,1.29-.679l-.006-.013ZM26.562,33.74c.004.252-.393,1.25.19.828.352-.318.875-.856.902-1.215.022-.286-.301-.384-.537-.308-.31.071-.525.38-.553.68l-.003.015ZM32.367,35.43c.068-.148-.305-.245-.432-.258-.703-.066-1.439.508-1.533,1.218-.084.577.37.723.824.473.072-.042.267-.148.219-.213-.065-.026-.131-.004-.215-.004-.563.072-.33-.518-.014-.789.197-.174.449-.27.708-.306.139-.027.355-.037.439-.117l.004-.005Z"/>
        <path class="cls-1" d="M32.298,31.638c.289.705-.824.902-1.29.679-.459-.185-.792-.687-.751-1.18.016-.286.202-.57.508-.581.588-.003,1.251.588,1.526,1.069l.006.013ZM31.999,31.606c-.131-.163-.444-.303-.665-.417-.178-.073-.392-.255-.578-.164-.108.077-.087.365.027.569.151.266.45.428.752.442.246.032.663-.134.47-.422l-.007-.009Z"/>
        <path class="cls-9" d="M32.363,35.435c-.086.081-.3.09-.439.117-.259.036-.511.132-.708.306-.214.185-.44.576-.27.737.116.092.311.04.44.044.196.007-.08.185-.16.225-.304.177-.781.191-.825-.246-.073-.803.765-1.52,1.535-1.445.128.012.499.11.432.258l-.004.005Z"/>
        <path class="cls-9" d="M26.646,33.583c-.075-.174.267-.505.475-.534.219-.066.512,0,.533.256.03.298-.341.71-.664,1.054-.098.103-.217.217-.335.28-.173.095-.255-.005-.214-.193.043-.205.21-.414.339-.587.088-.123.229-.304.173-.314-.05.008-.238.119-.305.044l-.003-.005Z"/>
        <path class="cls-6" d="M26.586,34.088c.016-.065.007-.169.035-.232.035-.053.217-.231.308-.327.111-.096.233-.138.211-.082-.038.079-.104.137-.162.21-.092.108-.217.254-.301.353-.061.071-.09.1-.091.082v-.004Z"/>
        <path class="cls-2" d="M32.006,31.615c.192.288-.224.454-.47.422-.302-.015-.601-.176-.752-.442-.114-.204-.136-.492-.027-.569.185-.092.4.091.578.164.221.114.535.254.665.417l.007.009Z"/>
      </g>
      <g>
        <path class="cls-2" d="M38.502,15.803c-.247-.231-.639-.15-.957-.205-.867-.091-1.763-.189-2.643-.142-1.281.127-.484.65.182,1.153.289.231.567.424.764.696.303.376.176.976-.367.958-.762.067-2.515-2.275-1.654-.121.373.933.956,1.748,1.459,2.607.123.202.263.461.509.49.288.03.571-.203.866-.204.261-.013.414.18.39.414-.119.655-.813,1.068-1.324,1.448-.293.217-.898.351-1.025-.083-.053-.225.061-.461.041-.71-.01-.168-.062-.314-.148-.464-.815-1.31-1.672-2.672-2.85-3.674-.345-.271-.937-.323-1.239-.039-.1.117-.109.284-.117.436-.012.492.014,1.308-.013,1.821-.083,1.007-1.18.866-1.208-.103-.099-.423.224-1.943-.208-2.08-.818.02-3.233,2.545-3.829,3.23-.981.967.299,1.242-.205,1.841-.562.431-1.717-.538-1.965-1.064-.29-.808.764-.335,1.237-1.193.518-.863,2.672-3.084,2.097-4.043-.773-1.039-1.114-.713-2.146-.316-.328.133-.808.281-1.076.045-.279-.235-.24-.636.074-.866.395-.321,1.054-.438,1.399-.802.151-.186.057-.466-.007-.691-.136-.592-.583-1.01-1.138-1.214-.77-.323-1.583-.49-2.383-.663-.266-.051-.573-.171-.836-.114-.359.074-.538.816-.942.379-.364-.363-.391-1.821.1-2.035.328-.054.611.451.999.467.511.061,1.019.198,1.534.259.68.038,1.376.039,2.069.095.222.007.447-.028.603-.19.249-.26.461-.746.154-1.038-.344-.389-1.401-.914-.988-1.555.774-.702,1.621,1.11,2.367.47.377-.489-.169-1.205-.341-1.7-.266-.581-.598-1.131-.896-1.692-.153-.381-.513-.558-.83-.752-.536-.506.458-1.002.856-1.291.342-.229.931-.577,1.294-.307.135.099.116.319.019.475-.23.396-.837.689-.532,1.206.443.712.899,1.426,1.381,2.113.324.422.683,1.027,1.294.95.324-.034.673-.058.924-.242.262-.207.257-.612.335-.94.048-.222.102-.451.193-.654.138-.401.665-.631.929-.208.398.616-.282,1.672.376,2.11.291.172.641.261.941.426.253.125.504.294.683.388.213.144.408.037.537-.162.334-.44,1.004-1.326,1.547-2.042.332-.476.594-.696.766-1.088.072-.266-.066-.662.228-.844.561-.291,1.634,1.055,1.716,1.471.081.264-.048.588-.355.598-.522-.029-.799-.334-1.168.229-.605.866-1.132,1.75-1.46,2.776-.135.392-.3.992.381.729.441-.152.935-.471,1.401-.371.396.079.523.564.264.859-.398.581-1.553.519-1.661,1.236-.096.531.066,1.138.582,1.379.63.374,1.33.607,2.039.745.771.157.976.288,1.766.037.245-.044.403.189.464.401.15.474.006,1.145-.282,1.638-.188.321-.517.436-.681.122-.138-.252-.097-.575-.281-.784l-.008-.008ZM28.049,10.096c.073-.147-.091-.23-.297-.215-.438.055-.822.643-.695,1.073.154.456.722.272,1.02.062.516-.32,1.266-1.209.214-.577-.172.087-.545.348-.668.207-.021-.045.001-.098.027-.139.082-.138.329-.285.394-.403l.004-.008ZM31.309,13.56c-.568.535.158,2.128.924,1.396.32-.386.049-1.078-.35-1.395-.168-.136-.408-.164-.564-.011l-.01.009ZM28.001,14.462c-.386-.561-.477.244-.109.502.112.091.312.091.35-.072.056-.18-.13-.303-.233-.42l-.009-.011Z"/>
        <path class="cls-4" d="M28.045,10.104c-.065.118-.312.265-.394.403-.026.041-.048.094-.027.139.124.141.495-.119.668-.207,1.051-.632.302.257-.214.577-.298.21-.866.395-1.02-.062-.127-.43.257-1.018.695-1.073.207-.016.37.067.297.215l-.004.008Z"/>
        <path class="cls-8" d="M31.318,13.551c.157-.153.397-.126.564.011.399.317.67,1.008.35,1.395-.766.732-1.492-.861-.924-1.396l.01-.009ZM31.416,14.064c-.049.187.069.456.201.61.118.159.375.204.437-.015.084-.261-.203-.748-.416-.927-.041-.036-.125-.092-.147-.032-.04.108-.045.236-.073.352l-.002.012Z"/>
        <path class="cls-9" d="M28.01,14.473c.103.116.289.24.233.42-.039.163-.238.163-.35.072-.369-.258-.278-1.063.109-.502l.009.011Z"/>
        <path class="cls-2" d="M31.419,14.052c.028-.116.033-.244.073-.352.022-.06.106-.004.147.032.213.179.5.666.416.927-.062.219-.318.175-.437.015-.132-.154-.25-.424-.201-.61l.002-.012Z"/>
      </g>
    </g>
  </g>
</svg>