<?xml version="1.0" encoding="UTF-8"?>
<svg id="Layer_1" data-name="Layer 1" xmlns="http://www.w3.org/2000/svg" viewBox="0 0 47.522 47.481">
  <defs>
    <style>
      .cls-1 {
        fill: #d55e00;
      }

      .cls-2 {
        fill: #f83c4e;
      }

      .cls-3 {
        fill: #fed8c1;
      }

      .cls-4 {
        fill: #0072b2;
      }

      .cls-5 {
        fill: #019e73;
      }

      .cls-6 {
        fill: #fa8b96;
      }
    </style>
  </defs>
  <path class="cls-3" d="M47.418,47.393c-13.133.138-33.996.006-47.403.049C.013,35.453-.023,12.02.023.015c1.661.081,36.074-.059,47.341,0,.199-.067.001,20.64.069,31.999-.034,4.082.067,6.896-.038,7.222-.383-.034-.842-.315-1.23-.524-2.793-1.838-6.348-3.34-8.342-6.112-2.118-4.661-6.516-7.699-10.289-10.999-.148-.125-1.255-.367-1.043-.521.504-.367.675-1.325.245-1.819-.422-.657-1.189-.387-1.75-.075-.397.185-.755-.208-1.07-.435-1.016-.84-2.405-1.237-2.055-2.716.515-1.11.392-1.688.463-2.857.257-3.369-.814-6.653-4.502-6.866-1.402-.204-3.033.184-4.32-.226-.224-.291.03-.968-.652-.886-.451-.064-1.404.213-1.585-.18-.082-.277-.091-.861-.1-1.176.01-.404.055-.502.303-.492.702.036,2.323.14,2.985.181.539.107.569-.688.515-1.087-.113-1.332-3.227.001-4.083-.117-1.38-.101-2.794-.443-4.194-.359-.194.038-.299.17-.324.429.003.495-.104,1.309.639,1.138.707-.032,2.113-.1,2.785-.131.309-.009.471-.045.551.081.121.371.228,1.371-.019,1.679-.174.148-1.371.031-1.679.14-.268.104.042.79-.25.924-2.465.409-5.124.185-7.657.236-.189.014-.603-.064-.588.204.021,1.202-.033,4.322.017,5.602.078.076-.021.098.392.121,1.868-.008,3.564-.022,5.33-.032.643-.006,1.378-.007,2.127-.013,5.674-.034,8.568-.056,8.79-.052.846.126.934,1.705.775,2.172-.114.432.412,1.009.552,1.416.02.199-.45.419-.518.701-.085.586.743,1.372.448,1.884-.047.094-.167.423-.299.368-2.297-1.416-4.768-3.374-7.282-4.43-.802-.39-1.575.167-1.539,1.04.176,1.229,1.346,2.065,2.144,2.892.772.752,2.374,1.357,3.099,2.116.116.162-.025,1.993-.13,2.092-.053.065-.375-.529-.529-.609-1.985-1.393-4.189-3.006-6.325-4.115-1.516-.902-3.78-.553-2.445,1.592,1.973,2.895,5.31,4.728,7.929,7.093.623.5-.113,1.262-.519.885-1.85-.84-8.299-6.281-9.665-3.711-.083,1.082,1.132,2.092,1.925,2.715,4.39,3.178,8.847,6.297,13.154,9.429.774.57.021.691-.515.578-2.75-.963-6.762-2.876-9.488-.656-.42.439-.707,1.167-.035,1.49,4.757,1.099,9.053,3.879,13.422,5.892,2.275.944,4.794.79,7.198.853,1.719.053,3.512.284,4.982,1.279,1.076.6,2.176,1.628,3.262,2.037,2.714.065,10.11-.118,10.998.069l.014.025Z"/>
  <path class="cls-6" d="M27.008,21.043c3.27,2.533,7.315,5.977,9.687,9.168.713,1.081,1.154,2.487,2.059,3.403,2.359,2.009,5.515,3.908,8.259,5.44.407.199.539.259.503.492-.003,1.243.006,7.54-.005,7.873-2.582.136-7.784.002-10.141.047-.812-.039-.936.102-1.315-.13-1.494-.937-3.154-2.376-4.88-2.827-3.083-.762-6.099-.009-9.144-.876-4.357-1.498-8.016-4.45-12.5-5.683-1.718-.376-3.668-.807-1.54-2.619,1.954-1.257,5.423-.366,7.139.232.845.28,1.627.891,2.516.819.739-.085-.916-1.02-1.112-1.223-3.921-2.912-8.177-5.702-12.136-8.677-.905-.763-2.92-2.386-1.433-3.446.966-.48,2.17.089,3.075.483,1.955.984,4.049,2.352,5.958,3.654.258.257,1.227.787,1.189,1.184-.031,1.247.31,1.363,1.229,1.421.663.072,1.388-.207,1.962-.059.178.071.179.328.09.569-.226.689-.378,1.635.179,2.229.736.618,1.553.138,2.259-.216.33.136.503.817.768,1.043.15.218.248.45.424.495.265.054.707-.202.614.195-.068.278-.383.905-.376,1.19-.076.607.356.574.823.151.301-.297.845-.783.871-.551.029.294-.551,1.168-.736,1.748-.415.839-.156,1.533.543.734.513-.505,1.267-1.649,1.949-1.775-.094.548-.884,1.331-1.103,2.124-.184.489-.277.918-.014,1.048.478.139.753-.264,1.114-.615.457-.366,1.316-1.547,1.819-1.652.176.558-.819,1.92-.747,2.661.098,1.575,1.25-.694,1.797-.856.244.321-.2,1.13.169,1.382.282.211.892-1.223,1.281-1.156.154.076.126.389.192.552.216.28.758.11,1.035-.087,1.222-1.101,2.346-2.458,3.295-3.793.19-.263-.405-.737-.246-1.052.136-.231.821-.389,1.054-.549.217-.138.271-.169.286-.342-.018-.207.29-.633.239-.885-.047-.312-1.032.255-1.03.029-.018-.287.835-1.314.505-1.395-.243-.085-1.123.733-1.367.825-.546.039.445-1.09.576-1.474.137-.326.353-.779.232-.934-.176-.364-2.079,1.451-1.837.596.133-.389.678-1.618-.08-1.36-.331.128-.938.659-1.2.692-.271.069-.645-.53-.684-.817-.193-.441.347-.502.413-1.097-.003-.478-.27-.769-.824-.917-.199-.071-.664-.11-.667-.356.305-.831,1.528-1.74,1.047-2.788-1.165-1.295-2.947.42-4.179.796-.904-.679.343-1.255.857-1.865.448-.394.72-.966,1.18-1.215l.106.014Z"/>
  <path class="cls-4" d="M17.965,17.997c.025-.476-.277-1.668.134-2.139.216-.212.684-.062,1.067-.027.769.104,1.623-.062,2.391-.029.792-.015.865.342.814,1.027.135,2.89-.248,5.754.04,8.607.243.238,1-.593,1.347-.725,1.364-.616,4.076-2.88,5.364-1.45.508.979-.542,1.979-.9,2.783.004.294.52.313.804.468.71.266.719,1.361.271,1.857-.181.221-.502.389-.565.608-.042.13.016.274.102.438.487.8.177,1.678-.55,2.194-.858.67-1.973.387-2.916.22-.405.263-.768.906-1.393.905-.528.122-1.083-.259-1.472-.249-.336.076-.419.718-.748.968-.263.255-.607.405-.999.413-.477.005-.938-.166-1.191-.486-.247-.247-.391-.688-.66-.8-.328-.091-.706.297-1.061.338-.735.173-1.31-.171-1.535-.731-.294-.625-.12-1.361.052-1.989-.022-.064-.066-.191-.088-.254-.581-.295-1.341.062-2.006-.034-1.429.034-3.571-.979-2.141-2.467.268-.281.766-.473.971-.753.167-.254-.068-.747.089-1.167.129-.414.423-.745.845-.851,1.288-.371,2.507.982,3.614,1.308.606-2.36-.178-5.346.318-7.863l.004-.121Z"/>
  <path class="cls-1" d="M22.665,14.734c-.49.068-1.648-.055-2.294-.055-.889-.113-1.968.145-2.732-.183-.125-.346.043-1.237-.228-1.657-.132-.261-.42-.393-.75-.409-5.475-.057-11.075.125-16.495.13-.138-1.084-.04-5.498-.025-6.133,2.692-.143,5.505.05,8.204-.129,7.479.452,15.437-2.936,14.362,8.36l-.041.077Z"/>
  <path class="cls-6" d="M14.082,22.128c.786.763,1.807,1.811,2.749,2.458.17.045.193-.302.34-.244.103-.001.429.278.602.397.173.14.161.29.169.59-.003.324.058.659-.058.95-.844-.39-1.765-1.034-2.608-1.443-.39-.115-.91-.219-1.32-.082-.261.157-.639.422-.644.717-.184.313-.093.618-.002.905.153.314.244.365-.135.468-.18.059-.37-.189-.578-.347-1.364-1.147-2.822-2.177-4.211-3.293-1.203-1.023-6.035-4.844-3.25-5.947.552-.12,1.248.085,1.77.302,2.404,1.084,4.812,3.085,7.086,4.542l.089.027Z"/>
  <path class="cls-6" d="M17.93,18.869c-.035,1.521.004,3.196.002,4.736-.188.562-1.087-.501-1.233-.772-.124-.771-.277-1.648-.747-2.283-.301-.273-.46-.752-.93-.707-.451-.046-.814.098-1.078.398-.083.108-.121.309-.243.276-.752-.522-1.729-1.277-2.395-1.872-.868-.805-2.335-2.198-2.421-2.983-.094-.69.294-1.532,1.067-1.511,2.725.828,5.533,3.017,7.931,4.624l.047.094Z"/>
  <path class="cls-1" d="M8.541,6.173c.011-.214-.206-.906-.007-.955.313-.018,1.87-.023,1.891-.062.037-.281-.029-1.119-.024-1.422.011-.367-.018-.188-.418-.212l-3.033.144c-.334-.013-.382.1-.494-.098-.161-.338-.249-1.139-.066-1.537.206-.292.711-.112,1.076-.114,1.129.085,2.394.142,3.473.379,1.176-.134,2.785-.683,3.955-.449.32.192.377,1.674-.013,1.804-.704.045-2.893-.208-3.577-.177-.011.032.069,1.649.098,1.682.444.056,1.999-.073,2.05.004.075.055.127.673.018.847-1.518.24-3.329.046-4.895.229l-.036-.061Z"/>
  <path class="cls-4" d="M27.001,20.886c-.203.544-2.911,3.751-3.477,2.93-.266-1.036.328-2.126.644-3.279.254-.758.709-1.515,1.452-1.775,1.257-.504,1.775,1.009,1.431,1.974l-.05.15Z"/>
  <path class="cls-4" d="M13.728,20.428c.901-1.775,2.604-.101,2.847,1.159.154.546.212,1.026.357,1.532.087.422.327,1.062.1,1.454-.261.305-.967-.387-1.626-.952-.9-.784-1.923-1.82-1.718-3.041l.04-.151Z"/>
  <path class="cls-6" d="M24.847,19.387c-.473,1-.85,2.166-1.14,3.265-.368.369-.845-.427-1.243-.673-.199-.18-.299-.401-.262-.46.186-1.075-.035-2.857.087-3.869.113-.531.51.113.881.321.442.368,1.392,1.03,1.684,1.339l-.007.077Z"/>
  <path class="cls-6" d="M18.07,15.917c-.076.076-.087,1.759-.097,2.056-.003.082-.45-.548-.473-1.133-.021-.551.351-.789.561-.932"/>
  <path class="cls-1" d="M18.292,15.906c.088.01.378.057.463.063.656.049,3.161.099,3.627-.098.476-.202.312-.489.332-.948l-.079-.085-.611.087-4.393-.097-.035.094c.051.205-.075.59.143.781.086.075.477.194.552.202Z"/>
  <path d="M22.714,14.734c-.003.063.003.127,0,.19l-.685.097-4.432-.097c-.036-.147-.289-.16,0-.426,1.4-.033,2.797.073,4.191.144.3.015.679-.081.926.093Z"/>
  <path d="M13.522,6.016c.007.05.078.132.095.19-.074.026-.119.158-.404.189-.859.091-1.875.036-2.749.047-.575.007-1.424.197-1.917-.14,0-.032,0-.063,0-.095.134-.104.381-.129.546-.141,1.47-.107,2.956-.017,4.429-.048Z"/>
  <path class="cls-2" d="M21.829,33.226c.109-.073,1.005.372,1.211.57.152.205-.013.351-.298.711-.303.386-.649.783-.64.878.004.105.389-.362.632-.624.228-.223.448-.56.7-.615.368-.033,1.269.513,1.524.773.11.165-.033.393-.215.594-.407.451-1.034,1.204-1.293,1.656.526-.461,1.268-1.605,1.922-1.949.372-.032.803.324,1.195.507.236.116.469.29.473.463-.065.391-.627.751-.871,1.083-.025.026-.074.079-.099.105.186-.176.839-.94,1.138-1.08.213-.101.683.265,1.106.491.37.163.378.382.37.47.024.084.149-.026.285-.178.665-.811,1.601-1.459,2.416-2.225.254-.195.473-.456.727-.376,1.357.43-.098,1.64-.581,2.249-.778.692-1.977,3.073-3.221,2.496-.206-.128-.015-.623-.286-.718-.315.231-.742,1.362-1.229,1.307-.318-.051-.253-.97-.128-1.28.069-.373-.091-.244-.318.093-.404.649-1.787,2.096-1.591.296.078-.774.564-1.596.661-2.318-.639.392-1.554,1.726-2.214,2.145-1.232.607-.766-.947-.393-1.697.168-.516.568-1.011.734-1.379-.092-.033-.992.893-1.141,1.082-.341.297-.696,1.175-1.206,1.104-.174-.034-.244-.164-.232-.404.043-.509.259-1.056.437-1.522.103-.252.739-1.221.183-.891-1.474,1.66-1.755.144-.897-1.148.241-.29.838-.305,1.062-.625l.076-.045Z"/>
  <path d="M29.069,30.224c.34-.025.483.313.891-.089.375-.25,1.163-.98.973-.468-.143.193-.735.735-.877.911-.173.156.231.273.693.595.499.29.733.552.969.375.562-.447,1.153-.637.348.22-.165.32.572.591.823.796.736.424.983.726,1.615,1.269.455.504-.935-.553-1.148-.544-.332-.141-1.227-.771-1.578-.982-.193-.129-.25-.111-.441.072l-.482.459c-.246.229-.045.354.238.566.502.395,1.057.773,1.549,1.17.292.259.694.849.142.455-.252-.105-.713-.641-.963-.36-.156.133-.445.38-.715.61-.791.657-.756.524-.006,1.057.424.412-.373-.158-.665-.236-.264-.084-.479.185-.742.393-.217.214-.568.455-.591.652-.032.16.308.355.514.557l.142.171c-.027.051-.54-.335-.77-.433-.281-.134-.338.198-.572.248-.052-.065.121-.383.146-.495.011-.103-.123-.165-.314-.275-.408-.221-.902-.558-1.004-.541-.163.019-1.371,1.409-1.584,1.547-.094.058-.053-.091.074-.286.234-.332.6-.684.924-1.019.323-.327.458-.465-.003-.662-.39-.217-.814-.458-1.207-.669-.157-.08-.183.047-.433.302-.318.258-2.405,2.916-1.73,1.586.382-.706,1.243-1.395,1.615-2.062.134-.115-1.47-.944-1.497-.899-.325.222-.891.965-1.157,1.221-.203.247-.366.237-.328.025.095-.351.916-1.164,1.042-1.424.04-.087-.021-.135-.183-.218-.29-.168-1.503-.614-.649-.702.426.029.924.523,1.218.378.552-.597,1.311-1.121,1.809-1.758.425-.237.684.024.19.51-.094.367.382.442.721.703.287.169.424.263.555.185.179-.105.628-.552.93-.854.291-.247.204-.379.259-.5.074-.143.344-.122.524-.27.179-.143.612-.52.734-.686.116-.159-.101-.367-.043-.536l.043-.066Z"/>
  <path class="cls-2" d="M29.489,28.095c.215-.03.58.146.56.368-.024.266-.249.54-.228.722.45-.136.744-.714,1.219-.803.088-.016.321-.033.404,0,.195.08.213.372.225.439.048.289-.08.688-.285.946-.015.019-.229.172-.141.27.04.045,1.303-1.222,1.809-.677.108.116-.028.562-.042.597-.108.284-.412.823-.592,1.043-.099.121-.057.051-.099.186-.016.052-.059.072-.13.154-.033.039-.645.483-.687.483l-1.729-1.075,1.184-1.183-1.374,1.018-.569-.307c.003-.205-.165-.701-.272-.886-.052-.09-.45-.401-.437-.465.209-.207.528-.277.768-.452.124-.09.273-.357.415-.377Z"/>
  <path class="cls-2" d="M33.63,33.407c-.072.177-.328.263-.429.389-.027.034-.005.125-.032.158-.069.082-.443.369-.457.396-.054.108.083.086.094.125.026.094-.016.243,0,.348l-2.368-1.729,1.065-1.01c.696.425,1.44.886,2.128,1.323Z"/>
  <path class="cls-2" d="M32.427,31.317c.22-.173.762-.559.792-.566.376-.083.531.048.53.343l-.516,1.076c.098.034.345-.183.366-.187.115-.023.482-.028.518.106.119.44-.193.775-.427,1.116-.234-.164-1.949-1.136-1.974-1.249.155-.285.467-.446.711-.638Z"/>
  <path class="cls-3" d="M24.467,23.499c.165.198.593.493.237.711-.017-.002-.036.004-.047,0-.162.097-.527-.311-.521-.474.084-.05.222-.164.332-.237Z"/>
  <path class="cls-2" d="M19.824,33.591c.109.05.544.178.663.19-.197.456-.791.406-.663-.19Z"/>
  <path class="cls-6" d="M22.191,22.27c.071-.097,1.467.863,1.345,1.036.032.2-.107.615.201.615.19.005.153-.179.432-.142.167.038.454.351.494.428-.073.255-.709.475-1.13.776-.569.31-.935.782-1.416,1.024.227-1.063.029-2.575.043-3.673l.031-.065Z"/>
  <path d="M20.583,20.135c.196-.13.226.388.235.498.145,1.645-.079,3.684-.143,5.351-.012.306.055,1.821-.042,1.948-.158.208-.289-.052-.292-.24-.038-1.992.024-4.215.148-6.205.013-.215-.043-1.262.094-1.352Z"/>
  <path class="cls-2" d="M25.699,31.791c.214-.052.851.207,1.113.193.141-.008.807-.149.924-.193.058.091.289.097.215.238l-1.375,1.324-1.492-.923.615-.64Z"/>
  <path class="cls-2" d="M21.909,33.165c.072-.113.14-.232.186-.359l.098-.778.888.518c.454.096.942.187,1.386.003-.156.153-1.04,1.163-1.12,1.178-.095.018-1.165-.695-1.439-.562Z"/>
  <path d="M26.723,29.156c.014.007.029.064.079.089.183.094,1.075.452,1.128.529.062.09.007.264-.062.3-.184.097-.434-.185-.576-.257-1.092-.553-2.334-1.006-3.376-1.645-.193-.118-.639-.358-.241-.543,1.011.517,2.04,1.005,3.048,1.526Z"/>
  <path d="M16.449,27.445c.168-.014.668-.074.746.081.075.148-.008.238-.154.274-.844.204-1.828.239-2.687.393-.194.035-.52.262-.687.113-.149-.133-.113-.276.049-.373.311-.186,2.27-.451,2.733-.488Z"/>
  <path d="M19.066,22.789l-.285-.028c-.015-.677.082-1.358.097-2.032.018-.813-.066-1.719-.003-2.515.009-.111.089-.657.263-.402.131.191-.059,2.667-.074,3.102-.021.623.019,1.251.002,1.874Z"/>
  <path class="cls-3" d="M17.929,23.783c-.001.394.002.79,0,1.185l-.853-.616c-.032-.412-.226-.9-.19-1.327.234.295.735.532,1.042.758Z"/>
  <path d="M25.928,24.596c.04.025.059.167.033.228-.064.154-1.212.823-1.436.981-.306.216-.747.659-1.03.821-.179.103-.18-.064-.155-.201.079-.452,1.924-1.428,2.276-1.822.062-.022.267-.034.312-.006Z"/>
  <path d="M22.932,28.968c.129.096,1.386,1.441,1.438,1.533.058.103.12.213.093.337-.062.021-.143.061-.207.053-.168-.022-1.447-1.556-1.759-1.771-.144-.507.165-.354.436-.152Z"/>
  <path class="cls-3" d="M23.662,22.788c-.029.142-.133.457-.142.521l-1.327-.995c.001-.22-.006-.443,0-.663.092-.072.241.09.307.144.393.322.749.695,1.162.993Z"/>
  <path d="M19.485,29.523c.141.086-.214.857-.284,1.006-.038.08-.343.645-.371.672-.109.101-.269.112-.288-.049-.015-.125.323-.745.398-.93.043-.106.179-.661.227-.696.029-.021.286-.021.317-.002Z"/>
  <path class="cls-2" d="M28.968,30.464l.378.308-1.09.998-.283-.074c.035-.016.497-.37.569-.45.155-.171.373-.563.426-.782Z"/>
  <path class="cls-2" d="M25.13,31.885c-.011-.21-.049-.546.249-.377.052.029.031.091.035.093-.05.127-.213.2-.284.284Z"/>
  <rect class="cls-5" x="25.557" y="36.434" width=".046" height=".094"/>
  <polygon class="cls-2" points="30.01 33.118 29.964 33.237 28.563 34.588 26.887 33.563 28.241 32.13 30.01 33.118"/>
  <polygon class="cls-2" points="31.905 34.397 30.224 35.713 28.779 34.75 30.233 33.317 31.905 34.397"/>
  <polygon class="cls-2" points="28.4 34.729 27.192 35.996 25.557 34.988 26.677 33.741 28.4 34.729"/>
  <polygon class="cls-2" points="23.662 33.922 24.916 32.643 26.409 33.567 25.249 34.811 23.662 33.922"/>
  <polygon class="cls-2" points="29.56 30.904 31.336 32.004 30.252 32.954 28.448 31.909 29.56 30.904"/>
  <path class="cls-2" d="M30.058,35.771c.067.109-1.199,1.052-1.302,1.219l-1.351-.842,1.17-1.225c.18.083,1.438.775,1.483.848Z"/>
</svg>