<?xml version="1.0" encoding="UTF-8"?>
<svg id="Layer_1" data-name="Layer 1" xmlns="http://www.w3.org/2000/svg" viewBox="0 0 46.045 46.045">
  <defs>
    <style>
      .cls-1 {
        fill: #fdfcfc;
      }

      .cls-2 {
        fill: #a04b54;
      }

      .cls-3 {
        fill: #a37;
      }

      .cls-4 {
        fill: #5e2f34;
      }

      .cls-5 {
        fill: #fefefe;
      }

      .cls-6 {
        fill: #b2d5e8;
      }

      .cls-7 {
        fill: #eed6e4;
      }

      .cls-8 {
        fill: #7b555a;
      }
    </style>
  </defs>
  <path class="cls-7" d="M.046,0h45.999v45.999h-25.391l-.552-3.197-.083-3.578c1.034-.989,1.944-2.024,2.865-3.115.394-.466.694-.649.945-1.263.743-1.819.726-4.076,1.193-5.983,1.43-1.991,4.182-4.523,3.439-7.253-.297-1.09-.957-1.359-2.021-1.081-.278.073-.497.238-.772.263-.021-.087.024-.131-.092-.184-.132-.09-.281-.088-.322-.276-.014-.065.01-.159,0-.23.093-.015.162-.145.184-.23.011-.041,0-.131,0-.184,0-.279-.088-.642-.092-.92,0-.031,0-.061,0-.092.109-.004.302-.135.322-.256.047-.285-.243-.365-.279-.593-.063-.401.246-.204.308-.53.024-.127-.072-.126-.075-.139-.013-.051.013-.135,0-.184-.027-.098-.137-.145-.23-.138.024-.171.194-.137.247-.331.027-.1.009-.231-.063-.312.008-.297.008-.117.104-.334.145-.329-.076-.43-.097-.571-.008-.054.076-.11.083-.178.014-.126-.025-.305,0-.404.009-.035.165-.079.232-.146.213-.211.219-.624.163-.9-.055-.273-.36-.475-.344-.714.006-.095.114-.136.146-.215.163-.398.3-.72.175-1.164-.073-.259-.236-.428-.509-.457l-.039-.053c-.053-.3.179-.527.052-.834-.028-.068-.12-.115-.14-.182-.15-.511.113-1.068.026-1.59-.063-.375-.255-.377-.424-.588-.024-.03-.311-.477-.323-.505-.134-.299.009-.721-.281-1.099-.329-.431-.585-.173-.848-.303-.053-.026-.071-.119-.126-.162-.104-.08-.382-.208-.424-.253-.099-.106-.128-.603-.344-.806-.121-.113-.274-.101-.389-.163-.084-.046-.149-.161-.237-.223-.418-.293-.699-.196-1.183-.221-.261-.581-.767-.657-1.326-.767-.691-.136-1.013-.23-1.631-.577-.292-.164-.371.015-.564.006-.132-.006-.269-.137-.386-.161-.356-.072-.292.025-.671-.157-.264-.127-.477-.18-.781-.118-.235.048-.32.281-.652.314-.561.056-.784-.283-1.334-.28-.43.002-.666.202-.978.267-.504.106-.574-.334-1.141-.266-.402.048-.656.438-1.102.418-.156-.007-.354-.162-.529-.211-.522-.146-.887-.08-1.183.393-.387-.061-1.114-.117-1.394.217-.194.231-.03.432-.436.471-.537.051-.912-.168-1.247.411-.581-.392-1.211-.16-1.31.55-.606-.151-.801.182-.797.744-.465.071-.738.369-.834.822-.047.223.024.43-.163.619-.099.1-.268.096-.406.192-.465.323-.563,1.305-.419,1.812-.556.059-.488.851-.408,1.261-.469.242-.677.827-.599,1.337.02.129.18.364.172.456-.008.083-.194.287-.231.411-.118.4-.023.791.279,1.075-.141.299-.229.612-.166.949.017.09.117.228.117.242,0,.029-.184.181-.228.266-.09.172-.118.503-.071.688.034.134.217.227.221.251.023.116-.085.396-.038.624.032.155.174.242.208.343.011.033.09.383.088.404s-.141.18-.178.266c-.176.418.042.818.515.768-.007.011.006.034,0,.046-.192.353-.348.593,0,.92-.015.115.046.289-.046.368-.292.081-.361.114-.23.46-.297-.045-.618-.076-.92-.092V0ZM35.272,5.534c-2.09.124-2.95,1.375-3.164,3.322-.267,2.43-.231,4.915-.321,7.361-.282,3.86-.125,7.728-.23,11.592-.015.547.022,1.441-.046,1.932-.036.259-.604.854-.775,1.111-1.369,2.044-1.333,5.024.382,6.869.625.672,2.717,1.222,3.633,1.289,1.501.11,3.185-.93,4.091-2.076,1.836-2.325,1.705-5.309-.478-7.333-.154-.142-.434-.234-.463-.457-.055-.418.044-.926.05-1.334.064-4.407.173-8.798.226-13.205.025-2.056.128-4.105-.143-6.155-.197-1.489-1.072-3.014-2.763-2.914Z"/>
  <path class="cls-5" d="M.046,19.871c0,2.575,0,5.153,0,7.728,0,6.132,0,12.267,0,18.4,1.41,0,2.822-.002,4.232,0,5.458.007,10.918,0,16.376,0h25.391v.046H0V0h.046v19.871Z"/>
  <path class="cls-7" d="M.046,27.599l.998.842.039.12c.115,1.906.147,3.885.494,5.764.152.824.311,1.203.796,1.872.623.859,1.359,1.652,2.125,2.382.002.548.029,1.101.011,1.648-.033.991-.11,1.996-.142,2.986l-.09,2.785c-1.41-.002-2.822.001-4.232,0,0-6.132.001-12.267,0-18.4Z"/>
  <path class="cls-2" d="M1.242,18.17c.019-.033.225-.342.241-.357.059-.055.274-.075.343-.163.09-.115.112-.388.111-.533.451-.045.541-.459.232-.764.192-.167.266-.357.31-.602.01-.054-.04-.125-.03-.174.01-.053.232-.314.257-.477.02-.135-.123-.248-.118-.311.003-.038.367-.36.403-.642.05-.398-.07-.788-.507-.852.026-.173.174-.278.21-.457.031-.156-.029-.286-.007-.372.021-.079.143-.205.187-.321.203-.537.168-1.177-.103-1.68.009-.056.261-.148.334-.205.192-.149.713-.754.713-.989v-1.081l1.538.135c.473-.069.709-.787.934-.82.067-.01.366.197.545.22.259.034,1.051-.032,1.278-.141.138-.066.346-.258.473-.358.18.103.331.282.549.316.507.079,1.557-.092,2.029-.311.188-.087.719-.553.776-.561.316-.045.385.394.575.574.707.667,1.821.35,2.228-.479.395.378,1.413.618,1.888.368.41-.216.358-.542.431-.94l.205-.029c.103.301.164.452.449.619.226.132.6.329.837.451.677.347.845-.216,1.458-.331.174.986,1.417,1.211,2.208.828-.039.267-.241.246-.233.575.004.161.296.888.397,1.032.167.237.467.428.756.463-.264.541.079,1.469.62,1.704.075.033.151.024.208.043.277.095.31.25.138.506-.014.006-.038-.007-.046,0l-.046.092c-.035.029-.108-.046-.134.165-.028.232.03.456.201.619.09.086.283.15.323.229.01.02.115.417.116.441.007.175-.188.162-.264.329-.087.192-.09.604.014.789.114.202.333.436.433.694.033.085.091.314.087.394-.004.077-.071.111-.087.158-.325.308-.411.915.184.782.005.066-.033.122-.046.184-.171.128-.233.311-.135.516.023.048.115.047.121.155.012.224-.205.423-.115.723.05.166.244.129.323.174.083.047.144.186.312.18,0,.031,0,.061,0,.092-.238-.037-.452-.137-.552.138-.052.143-.032.151,0,.276.046.184.174.269.18.305.008.045-.086.124-.093.223-.016.222.138.431.373.391.01.071-.014.165,0,.23-.58.007-.554.351-.184.69.234.214.413.187.623-.048.052-.075-.012-.128-.025-.182.275-.025.494-.19.772-.263,1.063-.278,1.724-.009,2.021,1.081.743,2.73-2.009,5.262-3.439,7.253-.467,1.906-.45,4.164-1.193,5.983-.251.615-.551.797-.945,1.263-.921,1.091-1.831,2.126-2.865,3.115l.083,3.578.552,3.197c-5.458,0-10.918.007-16.376,0l.09-2.785c.032-.99.109-1.996.142-2.986.018-.547-.009-1.101-.011-1.648-.767-.73-1.503-1.523-2.125-2.382-.485-.669-.643-1.048-.796-1.872-.347-1.879-.38-3.858-.494-5.764l-.039-.12-.998-.842c0-2.575,0-5.153,0-7.728.302.016.623.047.92.092.026.004.078.074.127.079.431.052.656-.043.748-.493-.134.021-.232-.136-.345-.136-.025,0-.247.075-.299.089.092-.079.031-.253.046-.368.684.046.568-.829,0-.92.006-.012-.007-.035,0-.046ZM15.891,8.627c-.348-.449-.476.218-.562.515-.098.335-.135.668-.197,1.045-.011.069-.079.122-.088.188-.109.887.241,1.535,1.214,1.398.209-.03.27-.127.332-.312.308-.922-.181-1.922-.624-2.668-.027-.045.005-.063-.075-.166ZM10.061,11.147c-.386-.128-.44.341-.545.591-.182.434-.38.964-.552,1.472-.055.162-.148.462-.176.661-.029.209.009.554.106.742.012.023.344.354.366.368.031.02.364.192.386.198.173.041.588.047.761-.003.034-.01.029-.064.074-.084.032-.015.093.005.131-.019.014-.009.219-.232.23-.251.474-.83-.147-2.052-.414-2.777-.082-.222-.178-.47-.246-.652-.022-.059-.041-.219-.12-.246ZM19.17,13.262c-.086-.028-.174-.018-.262-.012.029.186-.133.345-.174.493-.092.33-.123.798-.197,1.13-.008.034-.082.028-.09.063-.077.323-.011.976.229,1.233.146.156.463.261.669.296.064.011.168.015.231.007.078-.011.053-.069.104-.092.032-.015.095.007.132-.017.089-.058.313-.31.347-.413.054-.164.062-.711.039-.888-.011-.086-.087-.06-.095-.097-.035-.165-.028-.358-.183-.463-.066-.157-.658-1.21-.749-1.24ZM16.958,19.979c-.21-.207-.499-.06-.486.233.023.488.901,1.614,1.283,1.937.768.649,1.966.95,2.962.845.254-.027.769-.152.665-.513-.099-.344-.515-.15-.71-.13-.993.1-2.272-.406-2.915-1.169-.279-.331-.539-.945-.799-1.202ZM10.792,21.971c.208-.301.692-1.314.201-1.523-.466-.198-.548.452-.711.759-.438.823-1.321,1.499-2.257,1.611l-1.171-.075c-.405.275-.152.575.22.705,1.351.474,2.95-.365,3.719-1.476ZM15.759,26.567c-.944.783-2.547.93-3.523.136-.205-.167-.617-.786-.84-.752-.326.049-.219.501-.116.696.842,1.596,3.931,1.619,5.049.33.204-.236,1.093-1.493.347-1.496-.291-.001-.363.425-.509.643-.068.102-.306.359-.407.443ZM16.034,32.035c-.828-.746-2.172-1.049-3.255-.879-1.665.262-2.932,1.015-3.626,2.584-.107.241-.249.654-.174.911.059.202.327.282.476.127.059-.061.275-.719.357-.885.797-1.607,2.376-2.193,4.102-2.061,1.182.09,1.694.581,2.369,1.495.423.573.639,1.181.946,1.814.286.23.526,0,.479-.339-.023-.165-.328-.87-.419-1.055-.229-.47-.869-1.364-1.255-1.712ZM6.842,40.031c-.26-.268-.646.097-.421.49s1.776.978,2.238,1.12c1.801.554,4.06,1.001,5.901.449.749-.224,1.576-.594,2.277-.943.262-.13.959-.45,1.147-.601.303-.243.236-.74-.196-.609-.069.021-.332.231-.445.29-1.085.559-2.737,1.401-3.939,1.535-1.582.176-4.688-.534-6.084-1.312-.093-.052-.289-.141-.352-.2-.077-.072-.08-.172-.126-.219Z"/>
  <path d="M16.034,32.035c.386.348,1.026,1.242,1.255,1.712.09.185.396.89.419,1.055.047.339-.192.569-.479.339-.307-.633-.523-1.241-.946-1.814-.675-.914-1.187-1.405-2.369-1.495-1.726-.132-3.305.453-4.102,2.061-.082.166-.298.824-.357.885-.149.155-.417.075-.476-.127-.076-.257.067-.67.174-.911.694-1.569,1.961-2.322,3.626-2.584,1.083-.17,2.427.133,3.255.879Z"/>
  <path d="M6.842,40.031c.046.047.049.147.126.219.063.059.259.148.352.2,1.396.778,4.502,1.488,6.084,1.312,1.202-.134,2.854-.976,3.939-1.535.114-.059.376-.269.445-.29.432-.131.499.367.196.609-.189.151-.885.47-1.147.601-.701.348-1.528.718-2.277.943-1.841.552-4.099.105-5.901-.449-.462-.142-2.013-.726-2.238-1.12s.161-.758.421-.49Z"/>
  <path d="M15.759,26.567c.101-.084.339-.341.407-.443.147-.219.218-.644.509-.643.746.003-.142,1.26-.347,1.496-1.118,1.289-4.208,1.266-5.049-.33-.103-.195-.209-.647.116-.696.223-.034.635.585.84.752.977.795,2.579.647,3.523-.136Z"/>
  <path d="M10.792,21.971c-.769,1.112-2.368,1.95-3.719,1.476-.372-.13-.625-.43-.22-.705l1.171.075c.937-.111,1.819-.788,2.257-1.611.163-.307.245-.957.711-.759.492.209.007,1.222-.201,1.523Z"/>
  <path d="M16.958,19.979c.261.257.521.871.799,1.202.643.764,1.921,1.269,2.915,1.169.195-.02.611-.214.71.13.104.361-.41.486-.665.513-.995.105-2.194-.196-2.962-.845-.382-.323-1.26-1.449-1.283-1.937-.014-.293.276-.439.486-.233Z"/>
  <g>
    <path class="cls-1" d="M35.272,5.534c1.691-.1,2.566,1.425,2.763,2.914.271,2.05.168,4.099.143,6.155-.054,4.407-.162,8.798-.226,13.205-.006.409-.105.917-.05,1.334.029.223.309.315.463.457,2.182,2.024,2.314,5.008.478,7.333-.906,1.147-2.589,2.186-4.091,2.076-.916-.067-3.008-.617-3.633-1.289-1.715-1.845-1.75-4.825-.382-6.869.172-.257.74-.852.775-1.111.068-.491.031-1.385.046-1.932.105-3.864-.052-7.732.23-11.592.089-2.446.053-4.931.321-7.361.214-1.947,1.074-3.198,3.164-3.322ZM37.489,14.858v-3.289c0-.015-.112-.096-.138-.138-.109-.176-.082-.27-.344-.3-1.137-.131-2.518.101-3.682,0-.123,0-.293.101-.333.219-.051.15-.095.634-.105.815-.034.601.023,1.237.004,1.844-.153,4.948-.286,9.908-.464,14.854-.014.403.058.961,0,1.333-.031.196-.548.612-.706.811-2.415,3.046-.495,7.824,3.618,7.16,3.389-.547,5.289-5.029,2.911-7.67-.276-.307-.54-.419-.852-.666v-5.911c-.573.002-1.145.091-1.719.04-.108-.01-.34-.038-.431-.075-.203-.082-.298-.363-.151-.542.146-.178.837-.239,1.08-.253.402-.023.818.021,1.221.002l.046-3.542-1.996.087c-.552-.04-.616-.669-.04-.766l2.036-.103.046-3.312c-.421.088-.839.074-1.264.093-.292.013-1.082.194-1.199-.183-.051-.165.013-.36.175-.428.036-.015.353-.08.38-.08h1.909Z"/>
    <path class="cls-3" d="M37.489,14.858h-1.909c-.026,0-.343.065-.38.08-.163.067-.227.263-.175.428.117.376.907.195,1.199.183.425-.018.843-.005,1.264-.093l-.046,3.312-2.036.103c-.575.096-.511.726.04.766l1.996-.087-.046,3.542c-.403.019-.819-.026-1.221-.002-.243.014-.935.075-1.08.253-.147.179-.052.46.151.542.091.036.323.065.431.075.574.051,1.146-.039,1.719-.04v5.911c.312.247.575.36.852.666,2.378,2.641.478,7.123-2.911,7.67-4.113.664-6.033-4.114-3.618-7.16.158-.2.676-.616.706-.811.059-.372-.014-.931,0-1.333.178-4.946.31-9.906.464-14.854.019-.606-.038-1.243-.004-1.844.01-.181.054-.665.105-.815.04-.118.21-.218.333-.219,1.164.101,2.545-.131,3.682,0,.262.03.235.124.344.3.026.042.138.122.138.138v3.289Z"/>
  </g>
  <path d="M1.242,18.17c-.473.05-.691-.35-.515-.768.036-.086.175-.246.178-.266s-.076-.371-.088-.404c-.034-.101-.176-.189-.208-.343-.047-.228.061-.508.038-.624-.005-.024-.187-.117-.221-.251-.047-.185-.018-.515.071-.688.044-.085.228-.237.228-.266,0-.013-.1-.152-.117-.242-.063-.336.025-.65.166-.949-.302-.284-.397-.675-.279-1.075.036-.123.223-.328.231-.411.009-.092-.152-.327-.172-.456-.078-.51.13-1.095.599-1.337-.08-.409-.148-1.202.408-1.261-.144-.507-.046-1.489.419-1.812.138-.096.307-.092.406-.192.187-.189.116-.396.163-.619.096-.453.368-.751.834-.822-.005-.562.19-.895.797-.744.099-.71.73-.942,1.31-.55.335-.58.71-.36,1.247-.411.407-.039.243-.24.436-.471.281-.335,1.008-.278,1.394-.217.296-.473.661-.54,1.183-.393.174.049.372.204.529.211.446.02.7-.37,1.102-.418.567-.068.637.372,1.141.266.312-.065.549-.265.978-.267.55-.003.773.336,1.334.28.332-.033.417-.266.652-.314.304-.062.516-.009.781.118.379.183.315.085.671.157.116.024.254.155.386.161.193.009.272-.17.564-.006.618.347.94.441,1.631.577.559.11,1.065.186,1.326.767.484.024.764-.072,1.183.221.088.062.154.177.237.223.114.063.268.05.389.163.216.203.245.7.344.806.042.045.321.173.424.253.055.043.073.136.126.162.263.13.519-.128.848.303.289.378.146.8.281,1.099.012.028.299.475.323.505.169.211.362.212.424.588.087.522-.175,1.079-.026,1.59.02.067.112.114.14.182.128.307-.104.534-.052.834l.039.053c.274.028.436.197.509.457.126.444-.012.765-.175,1.164-.032.079-.14.12-.146.215-.015.239.289.441.344.714.056.276.05.688-.163.9-.067.066-.224.11-.232.146-.024.1.014.278,0,.404-.007.068-.091.124-.083.178.021.142.242.242.097.571-.096.217-.095.037-.104.334-.009.322-.041.264-.23.46-.161-.042-.481.022-.612,0-.012-.002-.108-.146-.196-.136-.052-.059.127-.441.164-.555.116-.11.371-.157.369-.344l-.369-.208c-.101-.257-.319-.491-.433-.694-.105-.185-.102-.597-.014-.789.076-.167.271-.154.264-.329-.001-.024-.106-.421-.116-.441-.04-.079-.233-.143-.323-.229-.171-.163-.229-.387-.201-.619.025-.211.099-.136.134-.165.064-.052.042-.089.046-.092.008-.007.032.006.046,0,.529-.212.614-.057.898.368l.114-.114-.689-.737-.46-.023c-.057-.02-.133-.011-.208-.043-.541-.235-.884-1.163-.62-1.704-.289-.036-.589-.226-.756-.463-.101-.144-.394-.871-.397-1.032-.008-.329.194-.308.233-.575-.791.383-2.034.158-2.208-.828-.613.115-.781.678-1.458.331-.238-.122-.612-.318-.837-.451-.285-.167-.346-.318-.449-.619l-.205.029c-.073.398-.021.724-.431.94-.474.25-1.492.01-1.888-.368-.407.83-1.521,1.147-2.228.479-.19-.18-.259-.618-.575-.574-.057.008-.589.474-.776.561-.472.219-1.523.39-2.029.311-.218-.034-.368-.213-.549-.316-.127.101-.335.293-.473.358-.227.109-1.018.175-1.278.141-.179-.024-.478-.23-.545-.22-.225.032-.461.751-.934.82l-1.538-.135v1.081c0,.235-.521.84-.713.989-.073.057-.326.15-.334.205.272.502.306,1.143.103,1.68-.044.116-.166.242-.187.321-.023.086.038.216.007.372-.036.179-.184.284-.21.457.437.064.557.455.507.852-.035.282-.399.604-.403.642-.005.063.138.176.118.311-.024.162-.247.424-.257.477-.009.049.04.12.03.174-.044.245-.118.435-.31.602.309.306.218.719-.232.764,0,.145-.022.418-.111.533-.069.089-.284.108-.343.163-.016.015-.222.324-.241.357ZM12.558,5.106h.782c.006-.108.016-.081-.068-.092-.162-.02-.415-.007-.577.022-.049.009-.149.004-.137.07Z"/>
  <path d="M24.839,17.02c-.026.105-.12.21-.085.335.202.413.728.089.867-.197.003.013.099.012.075.139-.061.326-.371.13-.308.53.036.228.326.309.279.593-.02.121-.214.252-.322.256-.169.006-.23-.133-.312-.18-.079-.045-.273-.008-.323-.174-.09-.3.127-.499.115-.723-.006-.108-.098-.107-.121-.155-.098-.206-.037-.389.135-.516-.006.028.006.065,0,.092ZM25.234,17.959c-.138-.09-.208-.144-.395-.111-.05.18.098.219.158.325.098.174.214.596.488.296.191-.209-.082-.4-.251-.51Z"/>
  <path d="M24.793,18.906c.28-.151.544-.11.555.254.006.194-.147.357.089.528,0,.053.011.143,0,.184-.28.165-.514.119-.464-.256.014-.105.129-.028.096-.157-.187-.006-.146-.202-.276-.277-.032-.125-.052-.133,0-.276Z"/>
  <path d="M1.242,19.136c-.348-.327-.192-.566,0-.92.568.091.684.966,0,.92Z"/>
  <path d="M25.391,16.928c.077.014.156.018.23.046.013.049-.013.133,0,.184-.139.286-.665.61-.867.197-.034-.125.06-.23.085-.335.185-.2.319-.133.552-.092Z"/>
  <path d="M1.196,19.503c.052-.015.274-.089.299-.089.113,0,.211.157.345.136-.091.449-.317.545-.748.493-.049-.006-.1-.075-.127-.079-.131-.346-.062-.379.23-.46Z"/>
  <path d="M25.575,20.607c.116.053.071.097.092.184.013.054.077.107.025.182-.209.236-.389.262-.623.048-.148-.377.173-.566.506-.414Z"/>
  <path class="cls-4" d="M25.253,20.331c.041.188.19.185.322.276-.333-.152-.654.037-.506.414-.37-.339-.396-.683.184-.69Z"/>
  <path d="M25.345,18.768c.004.278.091.641.092.92-.236-.171-.082-.334-.089-.528-.012-.364-.275-.405-.555-.254.1-.275.314-.175.552-.138Z"/>
  <path class="cls-8" d="M25.575,16.192c.072.081.09.213.063.312-.053.195-.222.161-.247.331.094-.006.203.04.23.138-.074-.028-.153-.032-.23-.046l-.14-.119.012-.104c.026-.019.06-.03.082-.053.189-.196.221-.138.23-.46Z"/>
  <path d="M24.793,19.182c.13.075.089.271.276.277.033.129-.082.052-.096.157-.05.375.184.421.464.256-.022.085-.091.215-.184.23-.235.039-.389-.17-.373-.391.007-.099.1-.178.093-.223-.006-.036-.133-.121-.18-.305Z"/>
  <path class="cls-6" d="M10.009,11.074c.253.105.391.631.508.921.198.532.413,1.051.522,1.642.118.622.052,1.371-.555,1.661-.46.214-1.048.069-1.404-.287-.449-.422-.419-1.089-.253-1.636.144-.504.338-1.01.517-1.488.121-.278.278-.899.655-.816l.009.004Z"/>
  <path class="cls-6" d="M19.113,13.176c.364.147.549.616.742.942.29.547.499,1.061.402,1.657-.193,1.166-1.565,1.099-1.841.016-.149-.645.05-1.33.202-1.966.083-.3.234-.71.485-.651l.009.002Z"/>
  <path class="cls-6" d="M15.859,8.503c.55.781,1.17,2.201.729,3.131-.135.246-.441.306-.706.276-.899-.074-1.022-1.082-.807-1.817.097-.3.238-2.075.775-1.599l.009.009Z"/>
  <path d="M24.103,12.052c.172-.256.139-.411-.138-.506l.46.023.689.737-.114.114c-.284-.425-.368-.579-.898-.368Z"/>
  <path d="M24.701,15.962c-.037.114-.216.496-.164.555.089-.01.184.134.196.136.131.021.451-.043.612,0-.022.023-.057.034-.082.053l-.012.104.14.119c-.233-.041-.367-.108-.552.092.006-.027-.006-.064,0-.092.013-.062.05-.118.046-.184-.594.133-.509-.474-.184-.782Z"/>
  <path d="M24.701,15.41l.369.208c.002.188-.253.235-.369.344.015-.047.083-.081.087-.158.004-.08-.053-.309-.087-.394Z"/>
  <path d="M24.011,12.144l.046-.092s.018.04-.046.092Z"/>
  <path d="M12.558,5.106c-.012-.066.088-.061.137-.07.162-.029.416-.043.577-.022.084.011.074-.015.068.092h-.782Z"/>
  <path d="M25.234,17.959c.168.11.442.301.251.51-.274.3-.39-.122-.488-.296-.059-.106-.208-.145-.158-.325.187-.033.257.021.395.111Z"/>
</svg>