<?xml version="1.0" encoding="UTF-8"?>
<svg id="Layer_1" data-name="Layer 1" xmlns="http://www.w3.org/2000/svg" viewBox="0 0 45.869 45.869">
  <defs>
    <style>
      .cls-1 {
        fill: #a37;
      }

      .cls-2 {
        fill: #a37;
      }

      .cls-3 {
        fill: #fefefe;
      }

      .cls-4 {
        fill: #cc79a7;
      }

      .cls-5 {
        fill: #eed6e4;
      }
    </style>
  </defs>
  <path class="cls-5" d="M.046,0h45.824v45.824H.046s0-45.824,0-45.824ZM39.546,13.197c-1.048-5.217-5.985-8.927-11.295-8.614-.212.012-.956.092-1.102.181-.066.04-.107.151-.191.175-.549.158-1.11.185-1.707.401-.71.256-1.248.638-1.896.95-.125.06-.128-.066-.306.17-.101-.016-.141.041-.209.088-.683.468-1.031.939-1.532,1.562-1.94,2.41-2.679,5.011-2.087,8.112,1.119,5.861,7.514,9.973,13.313,8.247.037-.011.103.011.137,0,.051-.017.05-.044.046-.092.012-.004.03.003.046,0,.558-.1,1.059-.318,1.567-.564,3.597-1.747,5.608-5.37,5.401-9.359-.008-.152-.043-.381-.094-.525-.01-.211-.024-.535-.092-.733ZM15.122,14.205c-.302-.313-1.338-.532-1.816-.59-3.14-.38-6.239,1.827-6.905,4.906-.362,1.673,0,3.571,1.16,4.849.516.98,2.095,1.665,3.116,1.925.132.034.211.061.367.092.12.023.196.078.367.092,5.499.427,9.256-5.998,5.331-10.206-.049-.052-.072-.09-.153-.104-.357-.483-.717-.573-1.211-.83-.036-.019-.245-.121-.256-.132ZM24.882,28.456c-.177-.283-.321-.235-.367.092-2.574.784-5.217,1.382-7.768,2.245-2.837.959-5.138,1.898-4.787,5.43.233,2.352,1.234,4.229,3.78,4.468,1.559.146,2.955-.054,4.469-.387,2.548-.561,5.063-1.384,7.559-2.132,2.614-.783,5.204-1.589,7.797-2.444,1.591-.525,4.112-1.072,5.168-2.403,1.311-1.652,1.432-3.486.485-5.372-1.623-3.23-5.389-2.272-8.252-1.652-1.272.276-2.568.573-3.824.942-1.418.416-2.782,1.01-4.261,1.215Z"/>
  <polygon class="cls-3" points=".046 0 .046 45.824 45.869 45.824 45.869 45.869 0 45.869 0 0 .046 0"/>
  <g>
    <g>
      <g>
        <path class="cls-2" d="M39.546,13.197c-.004-.01-.13-.073-.092-.183-.03.003-.133.116-.135.125-.042.192.051.691.046.954-.017.772-.178,1.713-.382,2.459-.774,2.838-2.894,5.297-5.668,6.314l-5.706-17.917c-.127-.301-.415-.236-.34.11l5.299,16.881c.203.646.33,1.347.614,1.952.175.372.467.214.405-.176-.019-.121-.166-.255-.044-.37.062-.059.887-.377,1.078-.479,1.97-1.053,3.554-2.819,4.43-4.873.565-1.325.657-2.629.588-4.063.05.144.086.373.094.525.207,3.989-1.804,7.612-5.401,9.359-.508.247-1.009.465-1.567.564.03-.467-.22-.892-.345-1.327-1.334-4.634-2.835-9.214-4.224-13.831-.339-1.128-.645-2.845-1.136-3.859-.055-.114-.15-.273-.297-.208-.272.122-.047.47-.034.675,1.854,5.789,3.517,11.638,5.302,17.449-.332.051-.699.155-1.032.183-7.694.643-13.001-7.447-9.745-14.373.475-1.01,1.145-1.763,1.795-2.627.178-.236.181-.11.306-.17.648-.312,1.186-.694,1.896-.95.597-.216,1.158-.243,1.707-.401.085-.024.125-.135.191-.175.146-.089.89-.169,1.102-.181,5.31-.313,10.247,3.397,11.295,8.614Z"/>
        <path class="cls-1" d="M21.308,8.111l-.768,1.637c-1.564,4.152-.299,8.999,3.084,11.834,2.375,1.991,5.534,2.832,8.59,2.155.083.256.093.566.322.733-5.799,1.727-12.194-2.386-13.313-8.247-.592-3.101.147-5.703,2.087-8.112Z"/>
        <g>
          <path d="M32.764,24.378c-.016.003-.034-.004-.046,0-.051.018-.049.044-.046.092-.035.011-.101-.011-.137,0-.229-.167-.239-.477-.322-.733-3.056.676-6.214-.165-8.59-2.155-3.383-2.835-4.648-7.682-3.084-11.834l.768-1.637c.501-.622.849-1.094,1.532-1.562.069-.047.108-.104.209-.088-.651.864-1.32,1.617-1.795,2.627-3.257,6.926,2.051,15.016,9.745,14.373.333-.028.699-.132,1.032-.183-1.785-5.811-3.449-11.66-5.302-17.449-.014-.205-.238-.554.034-.675.147-.066.241.094.297.208.491,1.014.797,2.73,1.136,3.859,1.389,4.617,2.89,9.197,4.224,13.831.125.436.375.861.345,1.327Z"/>
          <path d="M39.637,13.93c.069,1.435-.023,2.738-.588,4.063-.876,2.054-2.459,3.819-4.43,4.873-.192.103-1.016.42-1.078.479-.121.115.025.25.044.37.062.39-.23.548-.405.176-.284-.604-.411-1.306-.614-1.952l-5.299-16.881c-.075-.346.213-.411.34-.11l5.706,17.917c2.774-1.017,4.894-3.476,5.668-6.314.203-.746.365-1.687.382-2.459.006-.262-.088-.761-.046-.954.002-.009.105-.122.135-.125-.038.11.089.173.092.183.068.198.081.522.092.733Z"/>
        </g>
      </g>
      <g>
        <path class="cls-1" d="M7.561,23.37c-1.159-1.278-1.522-3.176-1.16-4.849.667-3.079,3.766-5.286,6.905-4.906.478.058,1.513.277,1.816.59-.156-.007-.09.023-.015.084,1.7,1.382,2.429,3.148,1.964,5.371-.55,2.629-2.818,4.77-5.523,4.993l1.466-10.951-.223.006-1.748,11.679c-.156-.03-.234-.058-.367-.092.084-.29.054-.614.094-.891.466-3.246,1.06-6.531,1.372-9.809.015-.155.062-.515.05-.642-.02-.199-.181-.286-.3-.112-.584,3.445-.976,6.926-1.485,10.383-.016.112-.002.226-.005.338-1.028-.071-2.124-.654-2.757-1.46l-.082.038-.049-.182c-.192-.059.013.348.047.412Z"/>
        <path d="M11.043,25.386l1.748-11.679.223-.006-1.466,10.951c2.705-.223,4.973-2.364,5.523-4.993.465-2.223-.264-3.989-1.964-5.371-.075-.061-.141-.091.015-.084.011.012.22.114.256.132.494.257.853.347,1.211.83.942,1.273,1.16,3.158.849,4.676-.573,2.798-3.067,5.131-5.954,5.309l-.074.326c-.171-.013-.247-.068-.367-.092Z"/>
        <path class="cls-1" d="M16.588,15.168c.081.015.104.052.153.104,3.926,4.208.168,10.633-5.331,10.206l.074-.326c2.887-.178,5.381-2.51,5.954-5.309.311-1.518.092-3.403-.849-4.676Z"/>
        <path d="M10.677,25.295c-1.021-.26-2.6-.945-3.116-1.925-.034-.064-.238-.471-.047-.412l.049.182.082-.038c.633.805,1.729,1.389,2.757,1.46.003-.112-.011-.226.005-.338.509-3.457.901-6.938,1.485-10.383.119-.175.28-.087.3.112.012.127-.035.487-.05.642-.312,3.278-.906,6.563-1.372,9.809-.04.277-.01.601-.094.891Z"/>
      </g>
    </g>
    <g>
      <path class="cls-4" d="M24.882,28.456c1.479-.205,2.843-.799,4.261-1.215,1.256-.368,2.552-.666,3.824-.942,2.862-.621,6.628-1.578,8.252,1.652.948,1.886.827,3.719-.485,5.372-1.056,1.331-3.577,1.878-5.168,2.403-2.593.856-5.184,1.661-7.797,2.444l-.046-.137c-.72-2.561-1.444-5.148-2.223-7.698-.138-.451-.402-1.533-.618-1.879Z"/>
      <g>
        <path class="cls-2" d="M24.516,28.548c.908,3.039,1.667,6.137,2.645,9.154.107.329.086.692.562.331l.046.137c-2.496.748-5.011,1.571-7.559,2.132-1.514.334-2.91.534-4.469.387-2.547-.239-3.547-2.115-3.78-4.468-.351-3.532,1.951-4.471,4.787-5.43,2.551-.862,5.194-1.461,7.768-2.245Z"/>
        <path d="M24.882,28.456c.216.346.481,1.428.618,1.879.778,2.551,1.502,5.138,2.223,7.698-.476.36-.455-.002-.562-.331-.978-3.017-1.738-6.115-2.645-9.154.045-.326.189-.375.367-.092Z"/>
      </g>
    </g>
    <path class="cls-1" d="M32.672,24.47c-.003-.048-.005-.074.046-.092.004.047.006.075-.046.092Z"/>
  </g>
</svg>