<?xml version="1.0" encoding="UTF-8"?>
<svg id="Layer_1" data-name="Layer 1" xmlns="http://www.w3.org/2000/svg" viewBox="0 0 46.22 46.22">
  <defs>
    <style>
      .cls-1 {
        fill: #a37;
      }

      .cls-2 {
        fill: #eed6e4;
      }
    </style>
  </defs>
  <path class="cls-2" d="M46.22,0v46.22H0V0h46.22ZM37.922,32.842c.033-.028.111-.022.15-.055.114-.096.046-.257.078-.385,1.032-4.06,2.838-7.496,1.777-11.818-.326-1.328-.925-2.902-1.579-4.101-.42-.771-.964-1.338-1.119-2.251-.221-1.303-.216-1.985-.928-3.181-.841-1.411-2.53-1.997-3.744-2.951-.391-.307-.728-.787-1.111-1.105-.483-.4-1.959-.911-2.609-1.132-1.048-.355-2.031-.541-3.141-.599-.492-.026-1.518.017-1.279.772.213.674,1.162,1.395,1.625,1.93,2.581,2.982,4.79,7.526,5.924,11.299.737,2.451.967,5.973.528,8.495-.432,2.481-2.54,5.105-4.779,6.211-4.757,2.349-9.876.73-14.855.291-1.528-.135-3.297-.238-4.756.276-.578.204-2.113.705-.759,1.176.637.222,1.333.269,1.973.475.871.279,1.316.688,2.046,1.14.668.413,1.43.747,2.07,1.162.81.525,1.502,1.333,2.504,1.559,1.435.324,2.898-.673,4.311-.754,1.104-.064,2.231.652,3.337.818,1.259.189,3.18.344,4.254-.43.875-.631,1.116-1.097,2.221-1.565,1.562-.663,3.233-1.148,4.6-2.141.875-.635,1.772-1.31,2.534-2.083.257-.261.605-.947.728-1.05ZM23.555,18.846c.305-.132.913-.782.961-1.095.224-1.474-.936-3.152-1.668-4.374s-1.527-2.488-2.335-3.667c-.789-1.15-2.213-3.46-3.904-2.544-.713.387-1.525,1.247-1.672,2.067-.178.991,1.094,2.506,1.614,3.331,1.296,2.054,2.658,4.584,4.184,6.436.632.767,1.137.646,1.984.323.183-.07.347-.229.552-.204.337,1.096,1.414,1.861,1.793,2.94.644,1.833-1.773,4.908-.175,6.454.637.617,1.321.712,2.05,1.09.75.389.77,1.007.955,1.747l.136.002c.275-1.104.012-1.767-.999-2.256-.704-.341-2.093-.717-2.186-1.646-.227-2.262,1.601-3.94.314-6.224-.411-.73-1.264-1.504-1.571-2.215-.021-.049-.059-.115-.03-.165ZM6.51,15.33c-.423.126-.607.883-.68,1.282-.493,2.712,3.02,2.233,3.859,4.057.468,1.018-.038,1.775,1,2.601.703.56,1.748.536,2.608.555-.183.417-.371.859-.41,1.321-.102,1.234,1.5,1.642,2.367,2.055,1.812.862,4.008,2.038,6.055,2.118.566.022.657-.238.886-.683.396-.77,1.111-2.141,1.031-2.99-.038-.397-.607-.635-.941-.814-1.378-.739-2.93-1.112-4.383-1.666-.876-.334-1.808-.879-2.714-1.119-.699-.185-.84.041-1.21.589-.078.116-.372.7-.436.721-.848-.094-2,.033-2.665-.6-.527-.501-.387-.855-.502-1.484-.203-1.115-.71-1.59-1.636-2.15-.648-.392-1.767-.708-2.208-1.255-.609-.756-.091-1.692-.023-2.54Z"/>
  <path class="cls-1" d="M37.922,32.842c-.123.103-.47.789-.728,1.05-.762.774-1.659,1.448-2.534,2.083-1.367.993-3.038,1.478-4.6,2.141-1.105.469-1.345.935-2.221,1.565-1.074.774-2.995.619-4.254.43-1.106-.166-2.232-.881-3.337-.818-1.412.081-2.875,1.078-4.311.754-1.002-.226-1.694-1.035-2.504-1.559-.641-.415-1.402-.749-2.07-1.162-.731-.452-1.175-.86-2.046-1.14-.639-.205-1.336-.253-1.973-.475-1.353-.472.181-.973.759-1.176,1.459-.514,3.228-.411,4.756-.276,4.979.44,10.098,2.058,14.855-.291,2.239-1.105,4.347-3.73,4.779-6.211.439-2.522.208-6.043-.528-8.495-1.134-3.773-3.342-8.317-5.924-11.299-.463-.535-1.412-1.256-1.625-1.93-.239-.755.787-.797,1.279-.772,1.11.058,2.093.244,3.141.599.65.22,2.126.732,2.609,1.132.384.318.721.798,1.111,1.105,1.214.954,2.904,1.54,3.744,2.951.712,1.196.707,1.878.928,3.181.155.913.699,1.48,1.119,2.251.653,1.199,1.253,2.773,1.579,4.101,1.061,4.322-.745,7.758-1.777,11.818-.033.128.036.29-.078.385-.04.033-.117.028-.15.055ZM30.659,7.065l-1.431-.508.955,1.149c.066.025.086-.005.129-.042.067-.059.39-.537.347-.598ZM30.985,7.343l-.413.704.895.863c.108-.112.559-.535.526-.659-.015-.059-.772-.817-.847-.866-.054-.035-.093-.06-.162-.042ZM28.43,8.272c-.369.108-.267,1.319.406.87.498-.333.031-.998-.406-.87ZM32.28,8.546l-.504.666.84.85.814-.804c-.123-.112-1.093-.751-1.149-.713ZM33.715,9.52l-.836.898.81.984,1.265-1.084c.018-.081-.467-.397-.558-.457-.117-.078-.577-.403-.681-.342ZM31.11,10.583c-.372.09-.345.724-.081.844.58.262.774-1.012.081-.844ZM33.94,11.686l.714,1.243,1.45-1.182c-.076-.279-.634-1.136-.896-1.174l-.439.533-.829.581ZM36.338,12.144c-.215.024-.331.241-.485.368-.322.266-.665.506-.989.77l.904,1.538.988-.582c-.004-.722-.149-1.428-.418-2.093ZM32.17,14.508c-.407.092-.263.694-.073.93.186.231.771.142.822-.181.089-.56-.163-.881-.749-.749ZM37.536,16.11l-.712-1.379-.848.514.663,1.608c.333-.217.586-.518.897-.743ZM34.48,16.168c-.365.064-.406.965-.193,1.191.357.379.822-.373.809-.712-.011-.258-.37-.522-.615-.478ZM37.126,18.329c.058.051,1.227-.385,1.382-.486-.115-.208-.626-1.389-.761-1.451-.08-.037-.2.316-.299.347-.105.097-.618.398-.642.469-.068.204.327.857.319,1.121ZM38.739,18.285l-1.428.465.32,1.613,1.569-.603-.461-1.476ZM35.494,20.194c-.79-.034-1.037.552-.956,1.254.032.274.352.627.627.667.543.079,1.079-.482,1.124-.996.013-.15-.15-.598-.247-.713-.087-.103-.414-.206-.548-.212ZM39.386,20.178l-1.595.645c-.026.504.164,1.013.117,1.526l1.874-.23-.396-1.941ZM39.846,22.581c-.627-.055-1.219.186-1.84.233l.041,1.888c.583-.057,1.168-.294,1.754-.139.062-.657.156-1.328.044-1.983ZM39.755,24.888c-.573.139-1.164.271-1.755.277l-.225,1.842,1.518.282.462-2.401ZM39.108,27.752l-1.473-.275-.512,1.797,1.431.277.553-1.799ZM38.369,30.015c-.208-.038-1.317-.366-1.424-.273l-.725,1.704,1.596.784.553-2.214ZM36.113,34.255c.082.047.311-.163.386-.227.431-.365.848-.838,1.083-1.356-.465-.396-1.072-.544-1.587-.859l-.804,1.355c.345.326.702.654.922,1.086ZM31.708,32.7c-.291.086-.224.793.103.893.602.186.666-.574.369-.784-.101-.072-.348-.146-.472-.109ZM34.403,35.643c.084.061.432-.221.519-.282.134-.094.89-.669.906-.76-.241-.407-.55-.762-.9-1.077l-1.132,1.133.607.986ZM32.23,36.847c.07.075,1.772-.837,1.827-.923.037-.058.002-.077-.015-.124-.018-.046-.524-.753-.565-.778-.131-.082-.631.347-.77.432-.256.156-.513.324-.796.428-.059.083.394.774.32.966ZM12.739,36.713l-2.349-.605,2.201,1.47.107.008.041-.872ZM30.013,37.678c.067.07,1.771-.564,1.826-.644.104-.152-.231-.729-.301-.906l-1.71.581.185.97ZM22.658,36.255c-.451.069-.24.963.224.687.298-.177.159-.745-.224-.687ZM15.234,37.311l-2.092-.508c-.061.019-.06.063-.073.114-.061.258-.077.56-.145.822l1.918,1.276c.051-.023.053-.071.071-.115.089-.224.208-.822.256-1.083.015-.084.093-.474.064-.506ZM29.459,36.893l-1.551.46c-.041.053.173,1.17.214,1.316.014.048.017.091.068.117.121.033.235-.161.323-.229.34-.263.717-.509,1.126-.652l-.181-1.012ZM17.77,37.822l-2.162-.421-.398,1.892c.436.265.954.459,1.473.444.149-.004.751-.12.86-.192.058-.038.08-.12.091-.186.08-.493.085-1.039.135-1.537ZM25.857,39.848c.516-.011,1.066-.099,1.52-.35.18-.099.478-.263.417-.499l-.365-1.487-1.756.305.183,2.031ZM20.083,38.922c.034-.036-.013-.848-.087-.901l-1.897-.159-.092,1.524,2.075-.464ZM25.257,37.908l-1.986.231.006,1.472c.084.129,1.973.248,2.256.237-.188-.623-.213-1.293-.277-1.939ZM22.902,38.186c-.424-.047-.857.063-1.272.048-.396-.015-.817-.162-1.221-.14v.785c.288.031.587.059.87.123.558.126,1.067.404,1.623.478v-1.293Z"/>
  <path class="cls-1" d="M23.555,18.846c-.029.049.009.116.03.165.307.711,1.16,1.486,1.571,2.215,1.287,2.284-.541,3.962-.314,6.224.093.929,1.482,1.305,2.186,1.646,1.011.489,1.274,1.152.999,2.256l-.136-.002c-.185-.741-.205-1.358-.955-1.747-.728-.378-1.412-.473-2.05-1.09-1.598-1.547.819-4.622.175-6.454-.379-1.079-1.456-1.844-1.793-2.94-.206-.025-.369.135-.552.204-.847.323-1.352.443-1.984-.323-1.525-1.852-2.887-4.383-4.184-6.436-.52-.824-1.792-2.34-1.614-3.331.147-.82.959-1.681,1.672-2.067,1.691-.916,3.115,1.394,3.904,2.544.808,1.179,1.6,2.441,2.335,3.667s1.893,2.9,1.668,4.374c-.048.312-.656.963-.961,1.095Z"/>
  <path class="cls-1" d="M6.51,15.33c-.068.848-.587,1.784.023,2.54.441.547,1.56.863,2.208,1.255.926.56,1.433,1.035,1.636,2.15.115.629-.025.983.502,1.484.665.633,1.817.506,2.665.6.064-.021.358-.605.436-.721.37-.548.511-.774,1.21-.589.906.24,1.838.785,2.714,1.119,1.453.554,3.005.927,4.383,1.666.334.179.903.417.941.814.08.849-.635,2.22-1.031,2.99-.229.445-.32.705-.886.683-2.047-.08-4.243-1.256-6.055-2.118-.867-.413-2.469-.821-2.367-2.055.038-.462.226-.904.41-1.321-.859-.019-1.904.005-2.608-.555-1.038-.827-.532-1.584-1-2.601-.84-1.824-4.352-1.345-3.859-4.057.073-.4.257-1.156.68-1.282Z"/>
  <path class="cls-2" d="M17.77,37.822c-.05.499-.055,1.045-.135,1.537-.011.066-.033.148-.091.186-.11.072-.711.187-.86.192-.518.015-1.036-.179-1.473-.444l.398-1.892,2.162.421Z"/>
  <path class="cls-2" d="M25.857,39.848l-.183-2.031,1.756-.305.365,1.487c.061.236-.237.399-.417.499-.454.251-1.004.339-1.52.35Z"/>
  <path class="cls-2" d="M25.257,37.908c.064.646.089,1.317.277,1.939-.283.012-2.172-.108-2.256-.237l-.006-1.472,1.986-.231Z"/>
  <path class="cls-2" d="M39.846,22.581c.112.656.018,1.326-.044,1.983-.586-.155-1.171.081-1.754.139l-.041-1.888c.62-.047,1.213-.289,1.84-.233Z"/>
  <path class="cls-2" d="M39.755,24.888l-.462,2.401-1.518-.282.225-1.842c.59-.006,1.182-.137,1.755-.277Z"/>
  <path class="cls-2" d="M38.369,30.015l-.553,2.214-1.596-.784.725-1.704c.108-.093,1.217.235,1.424.273Z"/>
  <path class="cls-2" d="M36.113,34.255c-.22-.432-.577-.76-.922-1.086l.804-1.355c.515.314,1.122.462,1.587.859-.235.518-.652.991-1.083,1.356-.075.064-.304.274-.386.227Z"/>
  <path class="cls-2" d="M39.386,20.178l.396,1.941-1.874.23c.047-.513-.143-1.022-.117-1.526l1.595-.645Z"/>
  <path class="cls-2" d="M36.338,12.144c.269.666.414,1.371.418,2.093l-.988.582-.904-1.538c.324-.263.667-.504.989-.77.154-.127.271-.344.485-.368Z"/>
  <path class="cls-2" d="M15.234,37.311c.028.033-.049.423-.064.506-.048.261-.167.859-.256,1.083-.018.044-.02.092-.071.115l-1.918-1.276c.067-.262.084-.564.145-.822.012-.051.012-.095.073-.114l2.092.508Z"/>
  <polygon class="cls-2" points="39.108 27.752 38.555 29.551 37.123 29.274 37.635 27.477 39.108 27.752"/>
  <path class="cls-2" d="M35.494,20.194c.134.006.461.11.548.212.097.114.26.563.247.713-.044.515-.581,1.075-1.124.996-.275-.04-.595-.393-.627-.667-.081-.702.166-1.288.956-1.254Z"/>
  <path class="cls-2" d="M33.94,11.686l.829-.581.439-.533c.263.039.821.895.896,1.174l-1.45,1.182-.714-1.243Z"/>
  <polygon class="cls-2" points="38.739 18.285 39.2 19.76 37.632 20.363 37.312 18.75 38.739 18.285"/>
  <path class="cls-2" d="M20.083,38.922l-2.075.464.092-1.524,1.897.159c.073.053.121.866.087.901Z"/>
  <path class="cls-2" d="M22.902,38.186v1.293c-.557-.073-1.065-.351-1.623-.478-.283-.064-.582-.092-.87-.123v-.785c.404-.021.825.126,1.221.14.415.015.848-.095,1.272-.048Z"/>
  <path class="cls-2" d="M34.403,35.643l-.607-.986,1.132-1.133c.351.315.659.67.9,1.077-.016.09-.772.666-.906.76-.086.061-.435.343-.519.282Z"/>
  <path class="cls-2" d="M32.23,36.847c.073-.192-.379-.883-.32-.966.283-.104.54-.272.796-.428.14-.085.639-.514.77-.432.041.026.548.732.565.778.018.047.052.066.015.124-.055.087-1.757.998-1.827.923Z"/>
  <path class="cls-2" d="M33.715,9.52c.104-.061.563.264.681.342.091.06.575.376.558.457l-1.265,1.084-.81-.984.836-.898Z"/>
  <path class="cls-2" d="M29.459,36.893l.181,1.012c-.409.143-.786.389-1.126.652-.088.068-.203.262-.323.229-.051-.026-.055-.069-.068-.117-.041-.147-.255-1.263-.214-1.316l1.551-.46Z"/>
  <path class="cls-2" d="M37.126,18.329c.007-.264-.388-.918-.319-1.121.024-.071.536-.372.642-.469.099-.031.218-.384.299-.347.135.062.646,1.243.761,1.451-.155.101-1.323.537-1.382.486Z"/>
  <path class="cls-2" d="M30.013,37.678l-.185-.97,1.71-.581c.071.178.406.754.301.906-.055.08-1.759.715-1.826.644Z"/>
  <path class="cls-2" d="M37.536,16.11c-.311.225-.564.525-.897.743l-.663-1.608.848-.514.712,1.379Z"/>
  <path class="cls-2" d="M32.28,8.546c.056-.038,1.026.601,1.149.713l-.814.804-.84-.85.504-.666Z"/>
  <polygon class="cls-2" points="12.739 36.713 12.698 37.585 12.59 37.578 10.389 36.108 12.739 36.713"/>
  <path class="cls-2" d="M30.985,7.343c.068-.018.108.007.162.042.075.049.832.807.847.866.033.125-.418.548-.526.659l-.895-.863.413-.704Z"/>
  <path class="cls-2" d="M34.48,16.168c.246-.043.605.22.615.478.014.339-.451,1.092-.809.712-.213-.226-.172-1.126.193-1.191Z"/>
  <path class="cls-2" d="M32.17,14.508c.586-.132.838.189.749.749-.051.323-.636.412-.822.181-.19-.236-.335-.839.073-.93Z"/>
  <path class="cls-2" d="M30.659,7.065c.043.062-.28.54-.347.598-.043.038-.063.067-.129.042l-.955-1.149,1.431.508Z"/>
  <path class="cls-2" d="M28.43,8.272c.437-.128.904.538.406.87-.673.449-.775-.762-.406-.87Z"/>
  <path class="cls-2" d="M31.708,32.7c.123-.036.371.038.472.109.297.21.233.97-.369.784-.326-.101-.394-.808-.103-.893Z"/>
  <path class="cls-2" d="M31.11,10.583c.693-.168.499,1.106-.081.844-.265-.12-.291-.754.081-.844Z"/>
  <path class="cls-2" d="M22.658,36.255c.383-.058.522.51.224.687-.464.276-.675-.618-.224-.687Z"/>
</svg>