<?xml version="1.0" encoding="UTF-8"?>
<svg id="Layer_1" data-name="Layer 1" xmlns="http://www.w3.org/2000/svg" viewBox="0 0 46.365 46.365">
  <defs>
    <style>
      .cls-1 {
        fill: #a37;
      }

      .cls-2 {
        fill: #eed6e4;
      }
    </style>
  </defs>
  <path class="cls-2" d="M24.503,0l-.095,1.596c.009,13.245-.006,26.508.004,39.742.001,1.66-.005,3.321-.002,4.981h1.39v-2.455h3.636c.167.218.028.565.021.809-.015.548.015,1.099.002,1.646h.695v-2.385l.069-.069h3.474l.069.069v2.385h.602v-2.385l.069-.069h3.173v2.455h.695v-2.385l.069-.069h3.127l-.046,2.455h.787v-2.455h3.474l.046,2.455h.602s0,.046,0,.046H0V0h24.503ZM11.95,16.212c.154-.581.348-1.981.082-2.514-.118-.237-.42-.367-.657-.214-.081.052-.357.565-.423.689-.387.724-.822,1.624-1.141,2.379-.299.708-.546,1.439-.644,2.205-.747-.112-1.45.179-2.012.654l-.023.091h-.139c-.041-.264-.597-.153-.754-.048-.062.041-.107.189-.195.233-.122,0-.961-1.208-1.06-1.394-.122-.229-.219-.659-.333-.825-.208-.301-.193.14-.167.303.094.585.43,1.077.752,1.557.05.075.204.163.183.313-.045.047-.437-.323-.488-.369-.186-.171-.707-.812-.83-.884-.074-.043-.125-.056-.211-.044.293.782,1.089,1.31,1.713,1.829-.001.08-1.298.515-1.481.605-.066.033-.116-.011-.093.113.682-.053,1.354-.26,2.019-.418.152.132.348.257.559.264.216.006.331-.152.525-.17-.039.238.365.536.408.681.037.124-.006.297.02.443.194,1.085,1.097,2.161,1.795,2.974.074.066.256.015.232-.091-.567-.708-1.286-1.503-1.552-2.385-.036-.119-.105-.372-.116-.487-.005-.053-.014-.159.069-.115.052.027.169.455.222.565.509,1.062,2.23,3.225,3.136,3.997.085.073.532.469.445.158-.032-.115-.614-.597-.746-.737-.778-.825-1.729-2.045-2.312-3.015-.123-.204-.377-.645-.443-.854-.042-.135.148-.017.209-.019.09-.003.204-.058.268-.042.04.01.478.431.638.522.142.081.378.135.447.178.084.053,1.134,1.325,1.287,1.515.467.579.654,1.553.987,2.255.256.539,1.584,2.519,2.09,2.727.06.025.16.066.141-.048-.86-.945-1.542-1.896-2.077-3.064-.052-.114-.384-.825-.377-.873.005-.034.079-.099.117-.025.769.815,1.263,1.844,1.949,2.73.141.183.325.42.481.584.08.084.663.639.708.657.072.029.146.011.22.013l-.046-.15c-.895-.636-1.422-1.62-2.084-2.467-.019-.058.012-.093.068-.068.205.088.655.802.84.829l.11-.066c.042-.164-.462-.505-.58-.623-.27-.271-1.1-1.096-1.179-1.415-.006-.025-.013-.075.022-.068l1.947,1.944c.032.059.385.246.345.072l-2.614-2.713c-.291-.532-.275-1.308-.474-1.842-.152-.41-.816-.301-1.187-.388-.078-.094-.587-.789-.579-.839.004-.023.094-.17.116-.174.193.04.371.062.57.049.046-.003.093.002.139,0,.134.535.594.715,1.116.628.042-.007.073-.067.088-.072.024-.008.067.008.093,0,.194.477.794.389,1.204.324.036.047.074.034.093.046.562.375,1.185-.069,1.617-.444.772-.67-.027-.792-.635-.978-.963-.296-1.995-.542-2.975-.776-.065-.015-.254-.053-.276-.117,1.266-.45,2.514-1.51,3.188-2.672.177-.306.917-2.122.932-2.407.02-.398-.203-.646-.612-.562-.335.069-1.437,1.109-1.748,1.401-.14.132-.86.943-.926.95ZM18.342,23.762l2.745-.938c.387-.192.195-.756-.207-.721-1.13.321-2.209.819-3.325,1.172-.285.09-.708-.008-.697.461.008.313.141.815.2,1.147.123.68.258,1.458.425,2.123.058.23.116.626.422.646.186.012.39-.209.393-.394-.121-.907-.413-1.796-.547-2.698-.008-.053-.041-.165.011-.196l5.396,3.45-11.369,7.947c-.143.228-.107.511.148.636.222.108.415-.052.601-.165,1.787-1.08,3.693-2.65,5.436-3.874,1.832-1.286,3.713-2.518,5.523-3.834.145-.105.434-.276.505-.422.087-.178.158-.454.055-.631-.115-.197-.938-.696-1.181-.857-1.488-.985-3.06-1.848-4.535-2.852Z"/>
  <path class="cls-1" d="M25.892,0v3.706c1.272-.099,2.565-.023,3.845-.046l.092-3.659h.602v3.613h3.428l.046-3.613h.602v3.613h3.034c.013,0,.159-.055.165-.075l.044-3.538h.602l.046,3.567h3.242l.093-3.567h.556l.092,3.567c1.077-.058,2.16-.05,3.243-.046l.046-3.52h.695v46.319h-.602s-.046-2.455-.046-2.455h-3.474v2.455h-.787l.046-2.455h-3.127l-.069.069v2.385h-.695v-2.455h-3.173l-.069.069v2.385h-.602v-2.385l-.069-.069h-3.474l-.069.069v2.385h-.695c.013-.547-.017-1.099-.002-1.646.007-.243.146-.591-.021-.809h-3.636v2.455h-1.39c-.003-1.66.003-3.321.002-4.981-.01-13.234.005-26.497-.004-39.742l.095-1.596h1.39ZM45.624,4.305h-3.242v3.661h3.242v-3.661ZM37.704,4.352h-3.196v3.618h3.196v-3.618ZM41.641,4.354h-3.242v3.615h3.242v-3.615ZM25.844,4.398v3.522h3.895v-3.522h-3.895ZM33.859,4.4h-3.428v3.52h3.428v-3.52ZM29.69,8.754h-3.844v3.613h3.844v-3.613ZM33.862,8.754h-3.476v3.661h3.476v-3.661ZM37.704,8.801h-3.196v3.613h3.196v-3.613ZM41.643,8.801h-3.291v3.661h3.291v-3.661ZM45.624,8.801h-3.242v3.708h3.242v-3.708ZM25.846,13.062v3.381l3.798.047c.028-1.11.066-2.221.046-3.335l-3.845-.092ZM30.337,13.152v3.386h3.476v-3.386h-3.476ZM34.508,13.187l-.052,3.376,3.201.049.052-3.376-3.201-.049ZM41.594,13.245h-3.242v3.386h3.242v-3.386ZM42.333,13.291v3.386h3.291v-3.386h-3.291ZM25.846,17.275v3.847h3.798v-3.847h-3.798ZM30.339,17.294l-.052,3.841,3.479.047.052-3.841-3.479-.047ZM37.657,17.367h-3.15v3.8h3.15v-3.8ZM41.598,17.414h-3.246v3.8h3.246v-3.8ZM45.671,17.46h-3.335v3.8h3.335v-3.8ZM29.598,21.814h-3.752v3.432h3.752v-3.432ZM30.29,21.907v3.337h3.477v-3.337h-3.477ZM37.657,21.953h-3.15v3.339h3.15v-3.339ZM41.548,21.999h-3.196v3.291h3.196v-3.291ZM45.671,22.046h-3.335v3.291h3.335v-3.291ZM29.598,26.031l-3.752-.093v3.428c.424.014.852-.017,1.276-.002.693.025,1.387.07,2.082.095.066.002.394.11.394-.023v-3.404ZM33.767,26.078l-3.474-.047-.026,3.477,3.5.182v-3.613ZM37.657,26.124c-1.039-.012-2.088.033-3.119-.039l-.077.062v3.52l3.196.162v-3.706ZM41.548,26.17l-3.196-.046v3.752l3.196.139v-3.844ZM45.671,26.217l-3.335-.047c-.096,1.291-.024,2.595-.046,3.891l3.382.139v-3.983ZM29.552,30.293l-3.706-.186c-.02,1.026.026,2.056.002,3.082-.008.327-.149.781.021,1.087h3.682v-3.983ZM33.767,30.478l-3.52-.139v3.937l3.52.046v-3.844ZM37.657,30.663l-3.196-.139v3.798c.794.019,1.593-.024,2.387-.002.243.007.59.146.809-.021v-3.636ZM38.375,34.369h3.127l.047-3.52c-1.069-.021-2.132-.105-3.196-.139l-.048,3.5.072.16ZM42.289,30.895v3.474c1.123.038,2.259.08,3.384.026l.046-.14-.048-3.222-3.382-.139ZM25.8,35.226v4.007c1.219-.187,2.473-.052,3.706-.092.015-.872-.02-1.747-.002-2.619.004-.202.133-1.209.005-1.298-1.053-.064-2.122.015-3.178-.018-.174-.006-.39-.132-.531.021ZM30.198,35.249v3.891h3.569v-3.891h-3.569ZM37.66,35.295h-3.245v3.847h3.245v-3.847ZM38.306,35.291v3.802h3.196v-3.802h-3.196ZM42.241,35.339v3.802s3.476,0,3.476,0v-3.802s-3.476,0-3.476,0ZM29.505,40.02c-1.235-.022-2.479.065-3.706-.093v3.08c0,.132.359.024.438.021.966-.03,2.189.112,3.108.004.067-.008.119-.006.16-.072v-2.941ZM30.151,40.02v3.011h3.615v-3.011h-3.615ZM37.611,40.02h-3.196v3.011h3.196v-3.011ZM41.502,40.02h-3.196v2.964h3.196v-2.964ZM45.717,40.02h-3.474v2.964h3.474v-2.964Z"/>
  <path class="cls-2" d="M29.829,0l-.092,3.659c-1.28.024-2.572-.053-3.845.046V0h3.937Z"/>
  <polygon class="cls-2" points="33.906 0 33.859 3.613 30.432 3.613 30.432 0 33.906 0"/>
  <polygon class="cls-2" points="41.733 0 41.641 3.567 38.398 3.567 38.352 0 41.733 0"/>
  <path class="cls-2" d="M37.75,0l-.044,3.538c-.006.02-.152.075-.165.075h-3.034V0h3.242Z"/>
  <path class="cls-2" d="M45.671,0l-.046,3.52c-1.083-.004-2.166-.012-3.243.046l-.092-3.567h3.381Z"/>
  <path class="cls-1" d="M11.95,16.212c-.013.001-.052-.041-.079-.037-.151.026-.974,1.019-1.168,1.22-.391.404-.942.839-1.278,1.271-.131.168-.163.367.095.233.196-.103.635-.703.829-.908.493-.522,1.024-1.028,1.531-1.548.068-.068.051-.158.07-.232.066-.007.786-.819.926-.95.311-.293,1.413-1.333,1.748-1.401.41-.084.633.164.612.562-.015.285-.755,2.101-.932,2.407-.673,1.162-1.922,2.222-3.188,2.672.023.064.211.101.276.117.98.234,2.013.481,2.975.776.608.187,1.407.308.635.978-.432.375-1.056.818-1.617.444.137.027.093-.073.094-.162.005-.406-.069-.812-.002-1.228-.074-.006-.108-.012-.162.046-.159.168-.165,1.113-.023,1.297-.41.065-1.01.153-1.204-.324.03-.009.099.026.093-.028-.022-.362.026-.749,0-1.108-.005-.069.036-.134-.07-.115-.309.053-.145,1.027-.116,1.251-.015.005-.047.065-.088.072-.522.087-.982-.093-1.116-.628l.091-.113c-.139-.275-.06-.57-.115-.86-.274.007-.173.793-.115.973-.199.013-.377-.009-.57-.049-.022.005-.112.151-.116.174-.008.051.501.745.579.839.371.086,1.035-.022,1.187.388.199.535.183,1.311.474,1.842l2.614,2.713c.04.175-.313-.012-.345-.072l-1.947-1.944c-.036-.007-.028.043-.022.068.079.319.909,1.144,1.179,1.415.118.118.622.46.58.623l-.11.066c-.185-.028-.635-.741-.84-.829-.057-.024-.087.01-.068.068.662.848,1.189,1.832,2.084,2.467l.046.15c-.074-.002-.148.016-.22-.013-.045-.018-.628-.573-.708-.657-.156-.165-.34-.402-.481-.584-.686-.886-1.18-1.915-1.949-2.73-.037-.074-.112-.009-.117.025-.006.047.325.758.377.873.536,1.168,1.218,2.119,2.077,3.064.019.114-.082.073-.141.048-.505-.209-1.834-2.188-2.09-2.727-.334-.703-.52-1.676-.987-2.255-.153-.19-1.203-1.462-1.287-1.515-.069-.043-.305-.098-.447-.178-.16-.091-.598-.512-.638-.522-.064-.015-.177.039-.268.042-.061.002-.252-.115-.209.019.066.21.32.65.443.854.582.97,1.534,2.19,2.312,3.015.132.14.714.623.746.737.087.311-.36-.085-.445-.158-.906-.773-2.627-2.936-3.136-3.997-.053-.111-.17-.538-.222-.565-.083-.044-.074.062-.069.115.011.115.08.368.116.487.266.883.985,1.678,1.552,2.385.023.106-.158.157-.232.091-.697-.814-1.6-1.89-1.795-2.974-.026-.146.017-.318-.02-.443-.043-.145-.447-.443-.408-.681-.194.018-.31.176-.525.17-.211-.006-.407-.132-.559-.264-.664.158-1.336.365-2.019.418-.024-.124.027-.08.093-.113.183-.09,1.48-.525,1.481-.605-.624-.519-1.42-1.047-1.713-1.829.086-.012.137.001.211.044.123.071.644.712.83.884.05.046.442.416.488.369.02-.15-.133-.238-.183-.313-.322-.48-.658-.972-.752-1.557-.026-.163-.041-.604.167-.303.114.165.211.596.333.825.099.186.939,1.393,1.06,1.394.089-.043.133-.191.195-.233.157-.105.714-.215.754.048-.114.316-.185.8.208.927.044-.14-.053-.297-.06-.441-.007-.139.114-.345-.009-.486l.023-.091c.562-.474,1.265-.765,2.012-.654.098-.766.344-1.496.644-2.205.319-.755.754-1.655,1.141-2.379.066-.124.342-.636.423-.689.237-.152.539-.023.657.214.265.533.072,1.933-.082,2.514ZM9.865,21.214l-.32.143c-.031.318.364.346.599.413l-.278-.555ZM9.634,22.048c.093-.099-.439-.705-.601-.44.043.082.554.49.601.44ZM10.514,22.326c-.043-.326-.365-.384-.648-.37-.041.214.594.421.648.37ZM11.477,22.242c-.226-.024-.482-.134-.709-.102-.047.007-.1-.013-.068.069.104.268.428.123.626.301l.137.696.301.323-.287-1.288ZM10.69,22.521c-.025-.014-.258-.031-.347-.049-.062-.013-.082-.009-.06.061.024.078.4.528.485.627.151.176.33.338.487.509.008-.155-.011-.316-.074-.458-.026-.059-.454-.669-.491-.69ZM12.182,24.641c-.101-.393-.348-.708-.648-.972.02.347.231.656.484.881.052.046.08.109.163.091Z"/>
  <path d="M18.342,23.762c1.476,1.004,3.047,1.867,4.535,2.852.242.16,1.066.66,1.181.857.103.177.031.453-.055.631-.071.146-.36.316-.505.422-1.809,1.316-3.691,2.548-5.523,3.834-1.743,1.224-3.649,2.794-5.436,3.874-.185.112-.379.272-.601.165-.255-.124-.291-.407-.148-.636l11.369-7.947-5.396-3.45c-.051.032-.019.143-.011.196.134.902.426,1.791.547,2.698-.003.185-.207.406-.393.394-.306-.02-.364-.417-.422-.646-.167-.664-.302-1.443-.425-2.123-.06-.332-.193-.834-.2-1.147-.011-.469.411-.371.697-.461,1.117-.353,2.196-.851,3.325-1.172.402-.034.594.529.207.721l-2.745.938Z"/>
  <path d="M13.294,21.77c-.142-.184-.136-1.13.023-1.297.054-.057.088-.052.162-.046-.068.415.006.822.002,1.228-.001.089.043.188-.094.162-.019-.013-.056,0-.093-.046Z"/>
  <path d="M11.997,21.446c-.029-.225-.194-1.198.116-1.251.106-.018.065.046.07.115.027.359-.021.746,0,1.108.005.054-.063.019-.093.028-.026.008-.069-.008-.093,0Z"/>
  <path d="M7.133,19.5c.123.141.003.347.009.486.007.144.104.301.06.441-.393-.127-.322-.611-.208-.927h.139Z"/>
  <path d="M10.653,20.89c-.057-.18-.159-.966.115-.973.055.29-.024.585.115.86l-.091.113c-.046.002-.093-.003-.139,0Z"/>
  <path class="cls-2" d="M29.552,30.293v3.983h-3.682c-.17-.305-.029-.759-.021-1.087.024-1.026-.022-2.057-.002-3.082l3.706.186Z"/>
  <path class="cls-2" d="M25.8,35.226c.141-.154.357-.027.531-.021,1.056.034,2.125-.046,3.178.018.128.089,0,1.096-.005,1.298-.018.872.017,1.747.002,2.619-1.232.04-2.487-.094-3.706.092v-4.007Z"/>
  <rect class="cls-2" x="25.846" y="17.275" width="3.798" height="3.847"/>
  <rect class="cls-2" x="25.846" y="8.754" width="3.844" height="3.613"/>
  <rect class="cls-2" x="30.198" y="35.249" width="3.569" height="3.891"/>
  <polygon class="cls-2" points="33.767 30.478 33.767 34.322 30.246 34.276 30.246 30.339 33.767 30.478"/>
  <rect class="cls-2" x="25.844" y="4.398" width="3.895" height="3.522"/>
  <path class="cls-2" d="M45.671,26.217v3.983l-3.382-.139c.023-1.296-.05-2.6.046-3.891l3.335.047Z"/>
  <rect class="cls-2" x="30.132" y="17.499" width="3.842" height="3.48" transform="translate(12.384 51.029) rotate(-89.228)"/>
  <rect class="cls-2" x="42.078" y="35.502" width="3.802" height="3.476" transform="translate(6.734 81.216) rotate(-89.994)"/>
  <path class="cls-2" d="M25.846,13.062l3.845.092c.019,1.115-.018,2.225-.046,3.335l-3.798-.047v-3.381Z"/>
  <path class="cls-2" d="M29.598,26.031v3.404c0,.134-.328.026-.394.023-.695-.024-1.389-.069-2.082-.095-.424-.016-.852.015-1.276.002v-3.428l3.752.093Z"/>
  <rect class="cls-2" x="42.336" y="17.46" width="3.335" height="3.8"/>
  <rect class="cls-2" x="25.846" y="21.814" width="3.752" height="3.432"/>
  <rect class="cls-2" x="30.385" y="8.754" width="3.476" height="3.661"/>
  <rect class="cls-2" x="34.415" y="35.295" width="3.245" height="3.847"/>
  <polygon class="cls-2" points="33.767 26.078 33.767 29.69 30.267 29.508 30.292 26.031 33.767 26.078"/>
  <polygon class="cls-2" points="41.548 26.17 41.548 30.015 38.352 29.876 38.352 26.124 41.548 26.17"/>
  <rect class="cls-2" x="38.352" y="17.414" width="3.246" height="3.8"/>
  <rect class="cls-2" x="30.432" y="4.4" width="3.428" height="3.52"/>
  <rect class="cls-2" x="38.306" y="35.291" width="3.196" height="3.802"/>
  <rect class="cls-2" x="42.382" y="8.801" width="3.242" height="3.708"/>
  <path class="cls-2" d="M37.657,30.663v3.636c-.218.167-.565.028-.809.021-.794-.022-1.593.021-2.387.002v-3.798l3.196.139Z"/>
  <rect class="cls-2" x="34.508" y="17.367" width="3.15" height="3.8"/>
  <rect class="cls-2" x="38.352" y="8.801" width="3.291" height="3.661"/>
  <rect class="cls-2" x="42.382" y="4.305" width="3.242" height="3.661"/>
  <path class="cls-2" d="M37.657,26.124v3.706l-3.196-.162v-3.52l.077-.062c1.032.071,2.08.027,3.119.039Z"/>
  <path class="cls-2" d="M42.289,30.895l3.382.139.048,3.222-.046.14c-1.126.054-2.261.012-3.384-.026v-3.474Z"/>
  <rect class="cls-2" x="38.398" y="4.354" width="3.242" height="3.615"/>
  <rect class="cls-2" x="34.508" y="8.801" width="3.196" height="3.613"/>
  <path class="cls-2" d="M38.375,34.369l-.072-.16.048-3.5c1.065.034,2.127.118,3.196.139l-.047,3.52h-3.127Z"/>
  <rect class="cls-2" x="30.29" y="21.907" width="3.477" height="3.337"/>
  <rect class="cls-2" x="30.337" y="13.152" width="3.476" height="3.386"/>
  <rect class="cls-2" x="34.508" y="4.352" width="3.196" height="3.618"/>
  <path class="cls-2" d="M29.505,40.02v2.941c-.041.066-.092.064-.16.072-.918.108-2.142-.034-3.108-.004-.079.002-.438.111-.438-.021v-3.08c1.226.158,2.47.071,3.706.093Z"/>
  <rect class="cls-2" x="42.333" y="13.291" width="3.291" height="3.386"/>
  <rect class="cls-2" x="42.336" y="22.046" width="3.335" height="3.291"/>
  <rect class="cls-2" x="38.352" y="13.245" width="3.242" height="3.386"/>
  <rect class="cls-2" x="30.151" y="40.02" width="3.615" height="3.011"/>
  <rect class="cls-2" x="34.395" y="13.299" width="3.376" height="3.202" transform="translate(20.63 50.748) rotate(-89.118)"/>
  <rect class="cls-2" x="38.352" y="21.999" width="3.196" height="3.291"/>
  <rect class="cls-2" x="34.508" y="21.953" width="3.15" height="3.339"/>
  <rect class="cls-2" x="42.243" y="40.02" width="3.474" height="2.964"/>
  <rect class="cls-2" x="34.415" y="40.02" width="3.196" height="3.011"/>
  <rect class="cls-2" x="38.306" y="40.02" width="3.196" height="2.964"/>
  <path d="M11.95,16.212c-.02.074-.003.164-.07.232-.506.519-1.038,1.026-1.531,1.548-.194.205-.633.805-.829.908-.258.135-.226-.065-.095-.233.336-.431.887-.867,1.278-1.271.194-.201,1.018-1.194,1.168-1.22.027-.005.066.038.079.037Z"/>
  <path class="cls-2" d="M11.477,22.242l.287,1.288-.301-.323-.137-.696c-.197-.178-.522-.032-.626-.301-.032-.082.021-.063.068-.069.227-.031.482.078.709.102Z"/>
  <path class="cls-2" d="M10.69,22.521c.037.02.465.63.491.69.063.143.082.304.074.458-.156-.171-.336-.333-.487-.509-.085-.099-.461-.549-.485-.627-.022-.07-.002-.074.06-.061.089.018.321.035.347.049Z"/>
  <path class="cls-2" d="M12.182,24.641c-.083.018-.112-.045-.163-.091-.253-.226-.464-.534-.484-.881.3.265.546.58.648.972Z"/>
  <path class="cls-2" d="M9.865,21.214l.278.555c-.234-.066-.629-.095-.599-.413l.32-.143Z"/>
  <path class="cls-2" d="M10.514,22.326c-.054.05-.689-.156-.648-.37.283-.014.605.044.648.37Z"/>
  <path class="cls-2" d="M9.634,22.048c-.047.051-.558-.358-.601-.44.162-.265.694.341.601.44Z"/>
</svg>