<?xml version="1.0" encoding="UTF-8"?>
<svg id="Layer_1" data-name="Layer 1" xmlns="http://www.w3.org/2000/svg" viewBox="0 0 45.869 45.87">
  <defs>
    <style>
      .cls-1 {
        fill: #f7fdfc;
      }

      .cls-2 {
        fill: #f7fdfd;
      }

      .cls-3 {
        fill: #a37;
      }

      .cls-4 {
        fill: #fefefe;
      }

      .cls-5 {
        fill: #cc79a7;
      }

      .cls-6 {
        fill: #eed6e4;
      }

      .cls-7 {
        fill: #fdfefe;
      }
    </style>
  </defs>
  <path class="cls-6" d="M.045,0v45.824h45.824V0H.045ZM13.461,12.843c.961-.276,2.285-.449,3.3-.641,2.501-.473,5.021-.862,7.513-1.379.103-.03.174.287.151.313l-10.574,2.051c-.158-.003-.531.094-.563-.104-.024-.151.044-.202.174-.239ZM18.49,13.33c-.196,0-.394.074-.618.005v-.138c.236-.018.476-.069.711-.091,1.485-.14,3.086-.206,4.58-.278.507-.024,1.023-.019,1.53-.037l.053.268c-.45.057-.904.018-1.354.044-1.636.095-3.266.218-4.901.226ZM22.499,14.527c-.177.258-.515.248-.797.223-2.309-.206-4.689-.777-7.006-1.013-.069-.005-.267-.147-.216-.219l.342-.047,7.677,1.055ZM20.388,39.198c-2.17,1.658-5.613,2.628-8.279,1.826-.526-.157-1.078-.375-1.42-.825-1.128-6.67-2.401-13.319-3.573-19.98-.049-.279-.236-1.152-.194-1.362.013-.067.403-.547.478-.622.116-.117.78-.576.797-.625-.015-.527-.246-1.053-.121-1.586.128-.545,1.777-1.026,2.281-1.135.057-.078-.389-1.544-.319-1.899.036-.184.524-.35.697-.402.332-.099,1.563-.301,1.802-.083.158.144.328,1.658.498,1.796.498.024,1.017,0,1.514.041.151.012.594.061.708.116.472.23.526,1.138.644,1.579.015.057.059.112.046.183.048-.007.77.172.87.207.127.044.461.205.515.31.388,1.664.664,3.352.998,5.027.008.041-.008.096,0,.138.668,3.35,1.414,6.707,2.048,10.071.086.45.3,1.241.288,1.659,0,.015.002.031,0,.046.068.054.069.137.086.213.286,1.268.469,2.555.705,3.832.022.117.098.209.117.325-.016.175-.989.998-1.186,1.149ZM40.151,22.726c-1.328,1.02-2.131,1.125-3.786.915-.106-.013-.196-.076-.302-.088l.507-.662c.07-.186.304-.678-.07-.622-.145.022-.378.577-.505.735-1.438,1.782-4.859.285-6.297-.852-.164-.129-.512-.706-.667-.66-.128.103-.072.256-.017.381.197.452,1.88,1.466,2.374,1.705.371.18.799.318,1.193.434-1.424,1.032-3.169.873-4.69.13-.944-.461-2.594-1.406-3.21-2.243-.119-.162-.207-.547-.44-.43.125.832.787,1.404,1.433,1.865l.95.585c-.268.021-.501.193-.769.262-2.045.523-3.965-.666-5.14-2.256-1.121-1.514-.548-4.044.032-5.694.237-.674.924-1.138,1.545-1.424l3.991.591c.279.046.281-.314.034-.358l-3.633-.469c.151-.157.433-.27.643-.342.612-.209,1.331-.327,1.969-.208l-.412-1.008h1.719c.051-.015.133-.14.116-.203l-.126-.154-1.774.039c-.086-.011-.29-1.391-.19-1.563.047-.066,1.358-.281,1.575-.35.11-.035.391-.178.195-.313-.164-.113-1.494.36-1.789.346-.034-.924.329-1.836.796-2.618.638-1.068,1.08-1.494,2.238-1.979,1.686-.706,3.523-.898,4.986.357.871.748,1.478,1.852,1.83,2.934-.476.295-.984.555-1.397.937-.125.116-.745.745-.572.919.119.021.184-.014.284-.06.121-.057.553-.518.728-.647.835-.614,2.076-1.138,3.124-.932,1.689.331,3.085,2.243,2.451,3.941-.088.236-.26.43-.263.676.275-.024.348-.344.461-.549,1.536.599,3.01,1.79,3.158,3.551.197,2.341-.417,3.951-2.281,5.381Z"/>
  <polygon class="cls-4" points=".046 0 .046 45.824 45.869 45.824 45.869 45.87 0 45.87 0 0 .046 0"/>
  <g>
    <g>
      <g>
        <path d="M18.329,21.766c.008.041-.008.096,0,.137-.118.171-.429.071-.618.092-2.869.314-6.176,1.015-8.879,2.027-.214.08-.471.239-.673.289-.301.075-.219-.095-.034-.218.266-.176.858-.386,1.179-.517,2.2-.894,5.033-1.341,7.393-1.68.541-.078,1.084-.266,1.632-.132Z"/>
        <path d="M15.901,16.038c.015.057.059.112.046.183-.031.004-.089.083-.162.089-2.351.226-4.334.434-6.598,1.193-.278.093-.558.271-.847.276-.142-.12.701-.438.755-.459,1.569-.598,3.383-.891,5.041-1.099.587-.074,1.166-.235,1.765-.183Z"/>
        <path d="M16.487,16.923c.31-.019.682.051.157.157-1.012.203-2.279.2-3.332.334-2.01.256-3.985.739-5.876,1.458-.313-.047-.079-.171.08-.243,2.438-1.095,6.297-1.542,8.971-1.706Z"/>
        <path d="M10.682,14.76c.206-.071.422-.12.635-.166.211-.046,1.376-.28,1.484-.244.106.035.097.175.034.251-.104.126-1.679.285-1.954.386-.173.024-.235-.061-.199-.226Z"/>
        <path d="M12.189,12.831c-.295.006-.615.056-.899.132-.167.044-.8.348-.887.235-.02-.095.046-.106.105-.146.295-.2,1.223-.467,1.567-.403.113.021.127.072.114.183Z"/>
        <path d="M12.545,13.827c-.314.318-.618-.71-.222-.793.297-.062.362.651.222.793Z"/>
      </g>
      <g>
        <path class="cls-3" d="M21.457,37.725c-.235-1.277-.419-2.564-.705-3.832-.017-.076-.018-.158-.086-.213-.028.203-.216.312-.397.404-1.758.902-5.117,1.504-7.107,1.829-.994.161-1.998.371-3.008.242l-.028-.115c.017-.054.515-.109.618-.116,2.732-.186,6.843-.969,9.359-2.052.187-.08.338-.265.563-.238.012-.418-.203-1.209-.288-1.659-.635-3.365-1.38-6.721-2.048-10.071-.118.171-.429.071-.618.092-2.869.313-6.176,1.015-8.879,2.027-.214.08-.471.239-.674.289-.301.075-.219-.096-.034-.218.266-.175.859-.386,1.179-.517,2.2-.894,5.033-1.341,7.393-1.68.541-.077,1.084-.266,1.633-.131-.335-1.675-.611-3.364-.998-5.027-.054-.106-.388-.266-.515-.31-.1-.035-.822-.214-.87-.207-.031.005-.089.083-.162.089-2.351.226-4.334.434-6.598,1.193-.278.093-.557.271-.846.276-.142-.121.7-.438.755-.459,1.569-.597,3.383-.891,5.04-1.099.587-.073,1.166-.235,1.765-.183-.118-.44-.173-1.349-.644-1.579-.114-.055-.557-.104-.708-.116-.498-.04-1.017-.017-1.514-.041-.17-.138-.34-1.651-.498-1.796-.239-.219-1.47-.017-1.802.083-.173.052-.661.218-.697.402-.07.355.375,1.821.319,1.899-.505.109-2.153.589-2.281,1.135-.125.534.106,1.06.121,1.586-.017.048-.68.508-.797.625-.075.075-.465.555-.478.622-.042.209.145,1.083.194,1.362,1.172,6.661,2.446,13.31,3.573,19.98.342.45.894.667,1.42.825,2.667.802,6.11-.167,8.279-1.826.196-.151,1.17-.974,1.186-1.149-.019-.115-.095-.208-.117-.325ZM12.8,14.349c.106.035.097.175.034.251-.103.126-1.678.284-1.954.386-.174.024-.235-.06-.199-.226.206-.071.422-.121.635-.167.211-.046,1.377-.28,1.484-.245ZM12.322,13.035c.297-.062.362.651.222.793-.313.318-.618-.71-.222-.793ZM10.508,13.051c.295-.2,1.223-.466,1.567-.403.113.021.127.072.114.183-.294.005-.615.057-.899.132-.167.044-.8.347-.888.235-.02-.095.047-.106.106-.147ZM7.516,18.628c2.439-1.096,6.296-1.542,8.971-1.706.31-.019.682.051.157.157-1.012.203-2.279.2-3.332.334-2.011.255-3.985.739-5.877,1.458-.313-.048-.08-.171.08-.243ZM10.323,27.577c.863-2.579,4.206-4.215,6.602-2.666,2.485,1.606,3.084,4.926,1.107,7.212-3.359,3.886-9.329.297-7.709-4.546ZM20.321,38.582c-1.439,1.283-6.376,2.291-8.234,1.959-.227-.041-.666-.142-.762-.384-.115-.287.357.103.388.117.959.446,3.576-.003,4.647-.246,1-.227,2.221-.576,3.132-1.037.381-.193,1.112-.537.946-1.048l.226.003c.042.276-.154.469-.342.637Z"/>
        <path d="M20.666,33.635c0,.015.002.031,0,.046-.029.203-.216.311-.397.404-1.757.902-5.117,1.504-7.107,1.828-.993.162-1.998.371-3.008.243l-.027-.115c.017-.053.515-.109.617-.116,2.733-.186,6.843-.969,9.359-2.051.187-.081.338-.265.564-.238Z"/>
        <path d="M20.663,37.945c.042.276-.154.469-.342.637-1.439,1.283-6.376,2.291-8.233,1.958-.227-.041-.666-.142-.762-.383-.114-.287.357.103.387.117.96.447,3.576-.003,4.647-.246,1-.227,2.221-.576,3.132-1.038.382-.193,1.112-.537.946-1.048l.226.003Z"/>
        <g>
          <path class="cls-5" d="M14.213,29.163c-.024.014-.045.028-.063.04.004-.004.007-.008.009-.013l.054-.027Z"/>
          <path class="cls-5" d="M18.302,30.927l-.018.188c-.903,1.614-2.702,2.539-4.547,2.141-.131-.028-.498-.123-.599-.179-.043-.024-.088-.037-.072-.098l1.369-2.78c.083-.04.093-.096.147.012.093.184.138.42.219.607.237.547.528,1.177,1.008,1.534.063-.076-.326-.466-.384-.554-.345-.517-.528-1.099-.807-1.645v-.229c.031-.101.291-.687.344-.687.108.203.378.225.508.318.112.08.06.172.329.223.162.031.05-.06.148-.083-.008.319.333.115.484.093.181-.024.381-.028.524.089.163.133.349.36.528.503.251.198.528.411.819.547Z"/>
          <path class="cls-5" d="M18.788,28.961c-.031.002-.061-.002-.092,0-.198-.071-.433-.07-.643-.112-.437-.09-.865-.255-1.232-.51-.134-.094-.336-.219-.371-.385.321-.089,1.151-.355.938-.825-.1-.222-.547-.206-.755-.183v-.092c.068-.012.156.009.229,0,.009-.065-.125-.085-.165-.088-.201-.014-.326.049-.507.082-.061.011-.083.01-.06-.061l.641-1.352c1.246.688,2.002,2.115,2.016,3.529Z"/>
          <path class="cls-5" d="M18.788,29.052c.015.611-.131,1.228-.367,1.787-.554-.2-.953-.674-1.42-1.008-.004-.023-.048-.056-.046-.091.175-.002.393-.115.298-.32-.106-.229-.818-.424-1.029-.622-.127-.119-.23-.492-.368-.64.004-.062.438-.139.503-.114.025.009.295.287.398.358.623.424,1.277.606,2.03.65Z"/>
          <path d="M16.925,24.911c-2.396-1.549-5.739.087-6.602,2.666-1.62,4.843,4.35,8.432,7.709,4.546,1.977-2.287,1.378-5.606-1.107-7.212ZM18.788,28.961c-.031.002-.061-.002-.092,0-.198-.071-.433-.07-.643-.112-.437-.09-.865-.255-1.232-.51-.134-.094-.336-.219-.371-.385.321-.089,1.151-.355.938-.825-.1-.222-.547-.206-.755-.183-.206.021-.424.146-.641.137.131-.138.451-.195.641-.229.068-.012.156.009.229,0,.009-.065-.125-.085-.165-.088-.201-.014-.326.049-.507.082-.061.011-.083.01-.06-.061l.641-1.352c1.246.688,2.002,2.115,2.016,3.529ZM12.486,25.432c1.192-.761,2.524-.77,3.827-.274-.297.414-.576,1.429-.917,1.741l-.161-.229h-.067c-.037.089-.029.19-.046.274-.011.052-.056.071-.046.183l-1.053.367c-.021-.216-.061-.474-.207-.641-.054-.002-.104.385-.114.457-.012.08.028.209-.021.278-.365.115-.825.262-.989.638-.174-.025-.259-.226-.456-.182-.044.041.187.571.204.68.011.067-.031.142-.021.209.027.193.1.378.092.576-.012.002-.044.066-.091.046l-.375-.748-.312-.993c-.018.519.209,1.047.45,1.497.066.123.179.239.237.336.036.06.057.112.046.183l-.138-.046c-.253-.467-.773-.929-1.079-1.511-.033-.062.014-.118-.112-.093l.267.534.926,1.229c-.303.318-.7.459-1.056.688-.055.036-.118-.01-.091.114.477-.126.837-.472,1.237-.733.018.047-.019.116.043.209.067.1.225.102.235.14.018.066-.003.248-.003.339,0,.031.002.061,0,.092-.002.044.006.096,0,.138-.002.015-.05.057-.046.092-.07.021-.092.062-.138.092-.18.115-.442.292-.596.434-.041.038-.229.203-.182.253l.824-.642c.058.073.05.096.046.183-.007.124-.058.315-.081.446-.016.089.002.055.081.058-.011-.19.062-.368.092-.55.015-.091.031-.185.046-.274.002-.015,0-.031,0-.046.048-.008.096-.021.138-.046.102-.063.452-.399.483-.502.092-.296-.058-.465-.064-.669,0-.024.084-.045.085-.067.096-.021.18-.067.275-.091l.137-.092c.008-.008.038.008.046,0,.008-.008.016-.015.023-.023l.023-.023c.031-.029.063-.06.092-.092.015-.016.032-.03.046-.046.008-.01.018-.018.029-.026,0,0,0,0,.002-.002.028-.026.048-.049.057-.06.002-.002.003-.003.004-.005.002-.004.007-.008.011-.011.007-.007.015-.013.024-.02,0,0,0-.002.002-.002.004-.004.007-.008.009-.013l.054-.027s.002,0,.002-.002l.035-.018v.092c-.599,1.148-1.086,2.389-1.718,3.527-2.696-1.625-2.693-5.643-.047-7.331ZM15.695,28.09l.343.595-.574-.272-.067-.161c.089-.129.26.006.297-.161ZM13.931,28.365l.166-.052.658-.086c.139.13-.536.22-.596.183l-.274.067h0c-.203-.073-.772.015-.608-.375.096-.228.352-.238.516-.38l1.329-.504c.069.022.167-.058.138.091-.32.107-1.612.476-1.79.675-.057.064-.086.189-.13.266.155.151.394.109.591.113ZM12.968,29.832l.275-.047c.007.193.093.418.037.609-.039.131-.384.338-.449.491-.023.005-.08.064-.092.046.045-.137.021-.297.049-.433.051-.247.339-.33.18-.667ZM12.598,28.303l-.089.291-.182-.458.271.167ZM18.284,31.115c-.903,1.614-2.702,2.539-4.547,2.141-.131-.028-.498-.123-.599-.179-.043-.024-.088-.037-.072-.098l1.369-2.78c.083-.04.093-.096.147.012.093.184.138.42.219.607.237.547.528,1.177,1.008,1.534.063-.076-.326-.466-.384-.554-.345-.517-.528-1.099-.807-1.645v-.229c.031-.101.291-.687.344-.687.108.203.378.225.508.318.112.08.06.172.329.223.162.031.05-.06.148-.083-.008.319.333.115.484.093.181-.024.381-.028.524.089.163.133.349.36.528.503.251.198.528.411.819.547l-.018.188ZM18.421,30.84c-.554-.2-.953-.674-1.42-1.008-.004-.023-.048-.056-.046-.091.175-.002.393-.115.298-.32-.106-.229-.818-.424-1.029-.622-.127-.119-.23-.492-.368-.64.004-.062.438-.139.503-.114.025.009.295.287.398.358.623.424,1.277.606,2.03.65.015.611-.131,1.228-.367,1.787Z"/>
          <path class="cls-5" d="M16.313,25.158c-.297.414-.576,1.429-.917,1.741l-.161-.229h-.067c-.037.089-.029.19-.046.274-.011.052-.056.071-.046.183l-1.053.367c-.021-.216-.061-.474-.207-.641-.054-.002-.104.385-.114.457-.012.08.028.209-.021.278-.365.115-.825.262-.989.638-.174-.025-.259-.226-.456-.182-.044.041.187.571.204.68.011.067-.031.142-.021.209.027.193.1.378.092.576-.012.002-.044.066-.091.046l-.375-.748-.312-.993c-.018.519.209,1.047.45,1.497.066.123.179.239.237.336.036.06.057.112.046.183l-.138-.046c-.253-.467-.773-.929-1.079-1.511-.033-.062.014-.118-.112-.093l.267.534.926,1.229c-.303.318-.7.459-1.056.688-.055.036-.118-.01-.091.114.477-.126.837-.472,1.237-.733.018.047-.019.116.043.209.067.1.225.102.235.14.018.066-.003.248-.003.339l-.031.055.031.037c-.002.044.006.096,0,.138-.002.015-.05.057-.046.092-.07.021-.092.062-.138.092-.18.115-.442.292-.596.434-.041.038-.229.203-.182.253l.824-.642c.058.073.05.096.046.183-.007.124-.058.315-.081.446-.016.089.002.055.081.058-.011-.19.062-.368.092-.55.015-.091.031-.185.046-.274.002-.015,0-.031,0-.046.048-.008.096-.021.138-.046.102-.063.452-.399.483-.502.092-.296-.058-.465-.064-.669,0-.024.084-.045.085-.067.096-.021.18-.067.275-.091l.137-.092c.008-.008.038.008.046,0,.008-.008.016-.015.023-.023l.023-.023c.031-.029.063-.06.092-.092.015-.016.032-.03.046-.046.01-.009.02-.018.029-.026,0,0,0,0,.002-.002.018-.013.038-.028.057-.06.002-.002.003-.003.004-.005.002-.004.007-.008.011-.011.008-.007.017-.013.024-.02,0,0,0-.002.002-.002.018-.012.038-.026.063-.04,0,0,.002,0,.002-.002l.035-.018v.092c-.599,1.148-1.086,2.389-1.718,3.527-2.696-1.625-2.693-5.643-.047-7.331,1.192-.761,2.524-.77,3.827-.274Z"/>
          <path class="cls-5" d="M13.47,27.986c-.057.064-.086.189-.13.266.155.151.394.109.591.113l.166-.052.658-.086c.139.13-.536.22-.596.183l-.274.067h0c-.203-.073-.772.015-.608-.375.096-.228.352-.238.516-.38l1.329-.504c.069.022.167-.058.138.091-.32.107-1.612.476-1.79.675Z"/>
          <path class="cls-5" d="M16.038,28.685l-.574-.272-.067-.161c.089-.129.26.006.297-.161l.343.595Z"/>
          <path class="cls-5" d="M16.634,26.853v.092c-.206.021-.424.146-.641.137.131-.138.451-.195.641-.229Z"/>
          <path d="M14.213,29.163c-.024.014-.045.028-.063.04.004-.004.007-.008.009-.013l.054-.027Z"/>
          <path d="M14.11,29.24c-.019.031-.04.047-.057.06.028-.026.048-.049.057-.06Z"/>
          <path d="M12.693,30.794l-.031-.037.031-.055c0,.031.002.061,0,.092Z"/>
          <path class="cls-5" d="M13.28,30.395c-.039.131-.384.338-.449.491-.023.005-.08.064-.092.046.045-.137.021-.297.049-.433.051-.247.339-.33.18-.667l.275-.047c.007.193.093.418.037.609Z"/>
          <polygon class="cls-5" points="12.598 28.303 12.509 28.593 12.327 28.136 12.598 28.303"/>
        </g>
      </g>
    </g>
    <g>
      <path class="cls-7" d="M26.601,13.014c.051-.014.133-.14.117-.204l-.126-.154-1.774.039c-.086-.012-.29-1.392-.19-1.564.047-.065,1.358-.281,1.575-.35.11-.035.392-.178.195-.314-.163-.113-1.494.361-1.789.346-.033-.924.329-1.837.796-2.618.638-1.068,1.08-1.494,2.238-1.978,1.687-.706,3.523-.899,4.986.357.871.748,1.478,1.852,1.831,2.934-.476.294-.984.555-1.397.936-.126.116-.745.745-.572.919.119.022.184-.013.285-.06.12-.057.553-.518.727-.646.835-.614,2.076-1.138,3.124-.932,1.688.331,3.084,2.243,2.451,3.941-.088.236-.26.43-.263.676.275-.025.348-.344.461-.549,1.536.598,3.01,1.79,3.158,3.551.197,2.341-.417,3.95-2.281,5.381-1.328,1.02-2.131,1.124-3.786.915-.105-.013-.197-.076-.302-.088l.506-.661c.071-.186.305-.679-.069-.622-.146.022-.379.577-.506.735-1.438,1.782-4.859.285-6.297-.852-.163-.129-.512-.706-.667-.66-.128.104-.072.257-.017.382.197.451,1.879,1.465,2.373,1.705.371.18.799.318,1.193.434-1.424,1.032-3.168.874-4.69.13-.944-.461-2.594-1.406-3.21-2.243-.119-.162-.207-.547-.44-.431.125.832.787,1.404,1.434,1.866l.95.585c-.268.021-.501.193-.769.262-2.045.523-3.965-.666-5.141-2.256-1.12-1.515-.548-4.045.032-5.694.237-.674.924-1.139,1.545-1.425l3.992.591c.279.046.281-.314.033-.358l-3.633-.469c.151-.158.434-.27.643-.341.611-.209,1.331-.327,1.968-.208l-.412-1.008h1.718ZM34.667,18.585c1.007-1.024,1.536-2.415,1.3-3.848-.105-.635-.469-1.781-1.035-2.127-.229-.14-.905-.447-.931-.009.534.077.892.342,1.131.817.696,1.387.699,2.955-.139,4.276-.113.178-.645.727-.664.851-.036.227.203.178.339.039ZM31.481,14.984h.756c.116,0,.528.114.674.151.169.042.324.124.472.17.055.017.096-.015.067-.067-.056-.102-.762-.292-.914-.323-.241-.048-.708-.046-.887-.123-.07-.03-.069-.105-.109-.13-.189-.117-.484.052-.701.002-.021-.08.034-.092.068-.137.21-.278.962-.944.842-1.299-.114-.337-.807.471-.934.566.069-.721-.572-.782-.659-.018-.023.201.052,1.064.019,1.118-.102.167-.787-.015-.986,0l.046.137h-.229c.037.249.585.136.677.354.134.318-.079.628-.153.927-.016.063-.067.158.048.141.162-.185.233-.625.344-.792.044-.066.241-.046.23-.216.074-.012.044.062.046.114.007.206-.064.374,0,.573l.09-.07.093-.388c-.098.117.195.866.321.733-.046-.166-.119-.303-.137-.481-.116-1.146.29-.62.931-.335.101.045.718.303.764.267l-.09-.114-1.192-.665c.662.173,1.303.675,2,.729.121.009.252.024.245-.133l-.561-.104-1.18-.584ZM25.446,16.556c.019-.03.098-.039.123-.081-.364-.583-.698.592-.765.883-.286,1.23.006,2.362.728,3.37.316.441,1.339,1.439,1.859,1.531.248.044.315-.002.266-.264-1.703-.837-2.879-2.604-2.489-4.548.029-.142.218-.797.278-.891Z"/>
      <g>
        <path class="cls-1" d="M24.424,11.135l-10.574,2.051c-.158-.003-.531.094-.563-.104-.025-.15.043-.202.174-.239.961-.276,2.285-.449,3.3-.641,2.501-.473,5.021-.862,7.513-1.379.103-.03.173.287.15.313Z"/>
        <path class="cls-1" d="M22.499,14.527c-.177.258-.514.248-.796.223-2.309-.206-4.689-.777-7.006-1.013-.068-.004-.267-.147-.216-.218l.342-.047,7.677,1.055Z"/>
        <path class="cls-2" d="M24.692,12.791l.053.268c-.45.057-.904.018-1.354.044-1.636.095-3.266.218-4.901.227-.196.001-.394.075-.619.004v-.137c.236-.019.476-.069.711-.091,1.485-.14,3.087-.206,4.58-.277.507-.024,1.023-.019,1.53-.037Z"/>
      </g>
      <path class="cls-6" d="M25.446,16.556c-.06.094-.25.749-.278.891-.39,1.944.786,3.711,2.489,4.548.049.263-.017.308-.266.264-.52-.093-1.544-1.091-1.859-1.531-.722-1.009-1.015-2.141-.728-3.37.068-.29.401-1.466.765-.883-.024.042-.103.051-.123.081Z"/>
      <path class="cls-6" d="M34.667,18.585c-.137.139-.375.188-.339-.039.019-.124.551-.672.664-.851.838-1.322.836-2.889.139-4.276-.238-.475-.597-.74-1.131-.817.026-.439.702-.131.931.009.565.346.93,1.493,1.035,2.127.236,1.433-.293,2.824-1.3,3.848Z"/>
      <g>
        <path d="M31.481,14.984l1.18.584.561.104c.007.157-.124.142-.245.133-.697-.053-1.338-.556-2-.729l1.192.665.09.114c-.046.036-.663-.222-.764-.267-.64-.285-1.047-.811-.931.335.018.179.091.316.137.481-.126.133-.419-.616-.321-.733l-.093.388-.09.07c-.064-.199.007-.368,0-.573-.002-.052.028-.126-.046-.114.011.17-.187.151-.23.216-.111.167-.182.607-.344.792-.116.017-.064-.077-.048-.141.074-.299.287-.609.153-.927-.092-.218-.64-.105-.677-.353h.229s-.046-.137-.046-.137c.199-.015.884.167.986,0,.033-.055-.042-.917-.019-1.118.088-.765.728-.703.659.018.126-.095.819-.903.934-.566.12.355-.632,1.021-.842,1.299-.035.046-.089.057-.068.137.217.05.512-.119.701-.002.039.024.039.1.109.13.179.077.646.075.887.123.153.031.858.221.914.323.029.053-.012.084-.067.067-.148-.045-.303-.128-.472-.17-.147-.036-.558-.151-.674-.151h-.756ZM30.771,14.664v.046c.03-.015.03-.031,0-.046Z"/>
        <path class="cls-7" d="M30.771,14.664c.03.015.03.031,0,.046v-.046Z"/>
      </g>
    </g>
  </g>
</svg>