<?xml version="1.0" encoding="UTF-8"?>
<svg id="Layer_1" data-name="Layer 1" xmlns="http://www.w3.org/2000/svg" viewBox="0 0 45.869 45.869">
  <defs>
    <style>
      .cls-1 {
        fill: #099d73;
      }

      .cls-2 {
        fill: #089d73;
      }

      .cls-3 {
        fill: #b4a2a1;
      }

      .cls-4 {
        fill: #a04b54;
      }

      .cls-5 {
        fill: #a37;
      }

      .cls-6 {
        fill: #069d73;
      }

      .cls-7 {
        fill: #fefefe;
      }

      .cls-8 {
        fill: #019e73;
      }

      .cls-9 {
        fill: #eed6e4;
      }
    </style>
  </defs>
  <path class="cls-9" d="M0,.046h45.824c0,5.437-.001,10.876,0,16.313-.089.022-.074-.057-.13-.088-.602-.331-2.039-.553-2.784-.642-.943-.112-1.902-.088-2.84-.184-.768-.079-1.624-.08-2.378-.188-.818-.117-1.542-.385-2.256-.547-.143-.033-.402-.011-.564-.047-.168-1.721-1.352-3.547-2.345-4.918-2.831-3.905-6.611-7.705-11.743-7.961-2.199-.109-6.194,1.204-7.747,2.796-2.244,2.303-2.891,5.788-2.238,8.883.07.331.209.813.6.872.107.016.132-.061.195-.085.487.92,1.166,2.013,2.029,2.622.366.258.85.414,1.221.704,1.053.824,1.443,2.604,2.012,3.762.172.349.464.765.843.898.722.254.97-.113,1.345-.657.703.197,1.379,1.107,2.128.69l.046.046c-.349.261-.45.572-.689.882-.335.433-.914.915-1.278,1.355-.993,1.198-1.951,2.801-2.371,4.309-.132.474-.293,1.139-.063,1.591.279.548.768.231,1.197.416-.336,1.048-.742,2.083-.954,3.168-.181.924-.347,2.646-.184,3.553.239,1.332,1.528,1.026,2.278,1.902.652.763,1.087,1.964,1.73,2.839.47.64.968,1.331,1.829,1.427,2.314.259,1.721-1.628,1.711-3.182-.002-.242,0-.488,0-.729.001-.613-.054-1.275.116-1.858.965,1.182,1.174-.119,1.026-1.026-.052-.315-.196-.633-.258-.933-.239-1.158-.354-2.24.105-3.355.427-1.039,1.06-1.56.343-2.693-.658-1.04-1.818-1.683-2.471-2.845-.534-.951-.808-2.691-.509-3.719.008.076.128.206.137.229.013.033-.007.12.02.184.075.177.982.644,1.204.722,1.747.614,2.73-1.638,3.794-2.509.341-.28.787-.567,1.213-.688.353,1.184.616,2.407.676,3.654.049.073.095.178.193.128.312-.159.618-.574.826-.85.174.289.105.592.14.891.203,1.741.492,3.457.728,5.183.128.932.222,1.719.557,2.641.524,1.442,1.455,3.042,2.802,3.888.908.57,1.92,1.079,2.839,1.664,1.46.929,2.74,1.997,3.514,3.506.483.942.71,1.742.923,2.731.054.25.132.543.18.744.023.097-.012.231.001.335H0V.046ZM16.634,31.389c-.181-.021-.264.177-.389.275-.089.07-.186.096-.277.181-.275.26-.516,1.165-.481,1.539.053.568.632.484.83.046.157-.347.053-.778.094-1.144.034-.303.219-.589.224-.898ZM26.401,38.269c-.04.371.218.692.294,1.045.055.254.016.956.327,1.047.687.201.825-.498.744-1.019-.061-.393-.889-1.339-1.365-1.073ZM17.956,39.92c-.094-.057-.29.1-.335.177-.085.146-.282.977-.299,1.168-.019.206.003.534.096.719.018.037.3.31.337.315.199.024.442.003.551-.187.08-.141.137-.489.105-.653-.115-.188-.378-1.492-.454-1.538Z"/>
  <path class="cls-5" d="M34.872,14.664c.163.036.421.014.564.047.714.162,1.438.43,2.256.547.754.108,1.61.109,2.378.188.938.097,1.897.072,2.84.184.745.088,2.181.311,2.784.642.056.031.041.11.13.088,0,1.71,0,3.422,0,5.132-.634-.174-1.174-.579-1.789-.8-1.369-.493-4.132-.744-5.13.548-1.277,1.654-.772,3.682.13,5.369s2.425,2.82,3.916,3.966l2.874,1.869c0,4.475,0,8.952,0,13.426h-3.299c-.013-.105.022-.238-.001-.335-.048-.201-.126-.494-.18-.744-.213-.989-.44-1.789-.923-2.731-.774-1.509-2.055-2.577-3.514-3.506-.919-.585-1.931-1.094-2.839-1.664-1.347-.846-2.278-2.446-2.802-3.888-.335-.922-.43-1.709-.557-2.641-.236-1.726-.525-3.443-.728-5.183-.035-.299.034-.602-.14-.891.695-.918,1.531-2.083,2.155-3.046,1.03-1.588,2.062-4.69,1.878-6.577Z"/>
  <path class="cls-7" d="M0,.046v-.046h45.869v45.869h-.046c0-4.475,0-8.952,0-13.426,0-.168,0-.337,0-.504,0-3.283,0-6.569,0-9.852v-.596c0-1.71,0-3.422,0-5.132-.001-5.437,0-10.876,0-16.313H0Z"/>
  <path class="cls-6" d="M26.401,38.269c.477-.265,1.304.681,1.365,1.073.082.521-.056,1.22-.744,1.019-.312-.091-.273-.793-.327-1.047-.076-.353-.334-.674-.294-1.045Z"/>
  <path class="cls-5" d="M45.824,22.087c0,3.283,0,6.569,0,9.852-1.522-.982-3.082-1.939-4.446-3.138-1.895-1.667-3.814-4.88-2.054-7.279.199-.271.79-.71,1.118-.761.602-.094,1.926-.015,2.532.12,1.022.227,1.915.764,2.849,1.206Z"/>
  <g>
    <path d="M34.872,14.664c.184,1.887-.848,4.989-1.878,6.577-.624.963-1.46,2.128-2.155,3.046-.208.275-.514.691-.826.85-.098.05-.144-.055-.193-.128-.061-1.247-.323-2.47-.676-3.654-.627-2.101-1.937-4.048-3.762-5.288-.314-.214-.644-.362-.982-.531-.078-.154.039-.258.065-.395.212-1.127.555-3.196-.548-3.979-.54-.384-1.024-.356-1.464.134-.596.662-.581,1.903-.411,2.726-.127.022-.242.085-.366.116-1.34.335-3.322-.073-4.618-.515-.522-.178-1.109-.485-1.624-.621-1.168-.307-1.735.646-2.773.964-.372.114-.689.14-1.066.286-.063.024-.088.101-.195.085-.391-.058-.53-.541-.6-.872-.654-3.096-.007-6.581,2.238-8.883,1.552-1.593,5.548-2.906,7.747-2.796,5.133.255,8.912,4.056,11.743,7.961.994,1.371,2.177,3.197,2.345,4.918Z"/>
    <g>
      <path class="cls-8" d="M21.904,21.904c.091-.036.226-.095.322-.072.078.018.356.258.405.33.227.332.253.878.144,1.254-.299,1.028-.025,2.768.509,3.719.653,1.163,1.813,1.806,2.471,2.845.717,1.133.084,1.654-.343,2.693-.459,1.115-.344,2.197-.105,3.355.062.3.207.618.258.933.149.906-.061,2.208-1.026,1.026-.17.582-.115,1.245-.116,1.858,0,.241-.002.487,0,.729.01,1.554.602,3.442-1.711,3.182-.861-.097-1.358-.788-1.829-1.427-.643-.875-1.078-2.076-1.73-2.839-.75-.877-2.039-.571-2.278-1.902-.163-.906.003-2.629.184-3.553.213-1.084.618-2.119.954-3.168-.429-.185-.918.133-1.197-.416-.23-.452-.069-1.117.063-1.591.42-1.508,1.378-3.111,2.371-4.309.364-.44.943-.922,1.278-1.355.239-.309.34-.62.689-.882.157-.117.515-.344.687-.412Z"/>
      <path class="cls-2" d="M17.956,39.92c.076.046.339,1.35.454,1.538.032.164-.025.512-.105.653-.108.19-.351.212-.551.187-.037-.005-.318-.278-.337-.315-.092-.185-.115-.513-.096-.719.018-.19.215-1.022.299-1.168.045-.077.241-.234.335-.177Z"/>
      <path class="cls-1" d="M16.634,31.389c-.005.31-.19.595-.224.898-.041.366.064.797-.094,1.144-.198.437-.776.522-.83-.046-.035-.374.206-1.28.481-1.539.091-.086.188-.112.277-.181.126-.098.208-.295.389-.275Z"/>
      <g>
        <path class="cls-4" d="M11.593,14.251c.377-.146.694-.172,1.066-.286,1.039-.319,1.605-1.271,2.773-.964.516.136,1.103.443,1.624.621,1.296.442,3.278.85,4.618.515.124-.031.239-.095.366-.116-.169-.823-.185-2.064.411-2.726.441-.489.924-.517,1.464-.134,1.103.783.76,2.852.548,3.979-.026.137-.143.241-.065.395.338.169.668.317.982.531,1.825,1.241,3.135,3.187,3.762,5.288-.427.121-.872.409-1.213.688-1.064.872-2.047,3.123-3.794,2.509-.222-.078-1.129-.546-1.204-.722-.027-.064-.007-.15-.02-.184.312.025.246-.557.231-.758-.037-.509-.234-1.083-.808-1.162-.137-.019-.632-.069-.569.179-.276.017-.39.252-.596.367-.748.417-1.425-.493-2.128-.69-.374.544-.623.911-1.345.657-.379-.133-.671-.549-.843-.898-.57-1.158-.959-2.937-2.012-3.762-.37-.29-.855-.445-1.221-.704-.862-.609-1.541-1.703-2.029-2.622ZM17.949,14.879c.183-.225-.005-.407-.294-.317-.253.078-1.117.638-1.384.816-.17.113-.756.466-.687.676.111.336.885-.289,1.064-.39.324-.182,1.083-.519,1.3-.784ZM18.147,16.863l.126-1.025-.187-.115c-.091.044-.127.124-.157.214-.114.348-.276,1.184-.321,1.557-.032.261-.03.499.308.4.361-.369.928-.603,1.285-.961.139-.139.266-.284.23-.497-.222-.297-.534.414-.689.29-.049-.04.182-.221.204-.277.09-.229-.04-.335-.264-.264-.141.044-.386.578-.535.679Z"/>
        <path d="M22.912,23.645c-.009-.023-.129-.153-.137-.229.109-.376.084-.922-.144-1.254-.049-.072-.327-.311-.405-.33-.097-.023-.231.035-.322.072-.046.002-.092-.003-.137,0-.063-.248.432-.198.569-.179.574.079.771.654.808,1.162.015.201.08.783-.231.758Z"/>
        <path class="cls-3" d="M21.766,21.904c.046-.003.092.002.137,0-.172.068-.531.295-.687.412l-.046-.046c.205-.114.32-.35.596-.367Z"/>
        <path d="M45.824,21.491v.596c-.934-.442-1.828-.979-2.849-1.206-.606-.135-1.93-.215-2.532-.12-.328.051-.919.49-1.118.761-1.76,2.399.159,5.612,2.054,7.279,1.364,1.2,2.924,2.156,4.446,3.138,0,.168,0,.337,0,.504l-2.874-1.869c-1.49-1.146-3.01-2.271-3.916-3.966s-1.407-3.715-.13-5.369c.998-1.292,3.762-1.041,5.13-.548.615.221,1.155.626,1.789.8Z"/>
        <path d="M18.147,16.863c.149-.101.394-.635.535-.679.224-.07.354.036.264.264-.022.056-.253.237-.204.277.155.124.467-.586.689-.29.036.213-.091.358-.23.497-.357.358-.924.592-1.285.961-.339.098-.34-.139-.308-.4.045-.373.207-1.209.321-1.557.029-.09.066-.17.157-.214l.187.115-.126,1.025Z"/>
        <path d="M17.949,14.879c-.216.265-.975.603-1.3.784-.18.101-.954.726-1.064.39-.069-.21.517-.563.687-.676.266-.177,1.131-.737,1.384-.816.289-.09.477.093.294.317Z"/>
      </g>
    </g>
  </g>
</svg>