<?xml version="1.0" encoding="UTF-8"?>
<svg id="Layer_1" data-name="Layer 1" xmlns="http://www.w3.org/2000/svg" viewBox="0 0 46.615 46.487">
  <defs>
    <style>
      .cls-1 {
        fill: #e9e4a2;
      }

      .cls-2 {
        fill: #de7079;
      }

      .cls-3 {
        fill: #ebb7bc;
      }

      .cls-4 {
        fill: #fdfcfc;
      }

      .cls-5 {
        fill: #72421e;
      }

      .cls-6 {
        fill: #e69f00;
      }

      .cls-7 {
        fill: #2a1204;
      }
    </style>
  </defs>
  <rect class="cls-1" x=".128" width="46.487" height="46.487"/>
  <g>
    <g>
      <g>
        <path class="cls-5" d="M26.28,20.98c-.007.076-.07.363-.104.403-.021.026-.263.141-.341.212-.952.877-.582,1.899-.951,2.899-.119.321-.336.555-.7.494-.549-.092-1.048-1.528-1.279-1.994l-.36-1.138v.991c0,.047-.125.377-.164.436-.422.65-1.439-.135-1.841-.46-.852-.689-1.509-1.718-2.029-2.674l-.137-.048c-.987.856-1.811,1.917-2.721,2.862l-.762.552c-.221-.247-.974-.354-1.291-.508-.004-.068.165-.081.212-.086.347-.039,1.413-.091.826-.699-.489-.508-1.279-.565-1.899-.776-.06-.02-.141-.014-.155-.098.826-.046,1.655-.068,2.47-.227.376-.155.331-.657-.026-.81-.816-.148-1.656-.459-2.473-.57-.166-.023-.341.014-.5-.007-1.488-.195-2.819-.538-4.311-.067l-1.983.806c-.025-.645-.038-.671.222-1.276,1.465-3.411,4.332-5.819,8.144-5.918.564-.015,1.579.176,2.039.011.316-.113.664-.384.998-.524,1.251-.523,3.472-.355,4.78-.016,3.19.827,4.606,5.291,4.333,8.23Z"/>
        <g>
          <path class="cls-7" d="M16.999,30.073c.095-.028.206-.015.303,0,.953.501,2.361.653,3.274,1.152.544.297-.246.792-.496.96-.737.496-1.827,1.108-2.621,1.528-.336.178-.826.515-.996-.031l.204-.3,3.065-1.775c-.709-.295-1.491-.456-2.21-.74-.241-.095-.701-.236-.697-.553.001-.097.08-.215.175-.242Z"/>
          <path class="cls-7" d="M17.26,36.626c-.104.097-.339.354-.431.468-.148.184-.196.573-.552.414-.412-.184.061-.834.231-1.047,1.158-1.445,3.621-1.908,4.884-.334.169.21.483.663.092.828-.371.157-.457-.212-.62-.392-.982-1.085-2.596-.869-3.604.063Z"/>
          <path class="cls-7" d="M19.578,27.025l1.425.918c-.057.907-1.404,1.039-1.707.183-.146-.411-.061-.823.282-1.1Z"/>
          <path class="cls-7" d="M13.403,28.501c.263-.077.532.398.563.621.137.989-.781,1.405-1.412.642-.008-.098.735-1.23.849-1.263Z"/>
          <path class="cls-7" d="M19.535,28.786c.055.042.268.394.359.494.744.816,1.272,1.057,2.158,1.622.055.035.233.118.216.198-.014.064-.074.065-.136.046-.792-.242-1.361-.512-2.006-1.037-.167-.136-.865-.806-.921-.969-.103-.298.1-.528.33-.353Z"/>
          <path class="cls-7" d="M13.155,31.877c-.024.017-.353.346-.384.307-.007-.116.055-.227.118-.32.145-.214.538-.516.735-.74.225-.256.739-.835.861-1.121.068-.16.08-.688.359-.563.354.157.046.852-.117,1.082-.397.559-1.029.967-1.572,1.356Z"/>
        </g>
      </g>
      <g>
        <path class="cls-7" d="M5.763,20.473l1.983-.806c1.491-.471,2.823-.128,4.311.067.159.021.335-.016.5.007.816.111,1.657.422,2.473.57.357.154.403.656.026.81-.815.16-1.644.182-2.47.227.014.084.095.078.155.098.62.21,1.409.268,1.899.776.586.608-.48.66-.826.699-.048.005-.216.019-.212.086.317.153,1.07.26,1.291.508.293.329-.129.544-.405.632-.769.247-1.656.205-2.453.29-.011.065.082.067.128.079.343.084.588.127.918.281.633.296,1.576.896.383,1.276-1.038.331-2.128.306-3.103.908-1.364.843-1.41,2.759-1.853,4.141-.21.654-.61.723-.579-.026.034-.813.606-2.987,1.025-3.677.913-1.503,2.748-1.629,4.325-1.877-.625-.548-1.507-.49-2.27-.657-.697-.153-.878-.657-.117-.877.954-.276,2.058-.137,3.033-.31.011-.067-.08-.061-.129-.078-.979-.331-1.975-.331-2.924-.58-.25-.065-.462-.162-.395-.461.087-.391.999-.134,1.303-.124.507.017,1.018-.018,1.526,0l.666-.094c-.715-.239-1.463-.426-2.201-.588-.325-.072-1.813-.111-1.39-.768.174-.271,1.374-.148,1.726-.164.597-.028,1.192-.151,1.796-.095l.53-.091c-.541-.007-1.086-.278-1.594-.366-.358-.062-.778-.046-1.143-.102-.463-.07-1.403-.322-1.806-.309-.456.014-1.716.291-2.198.421-.267.071-.572.178-.832.275-.291.108-1.148.694-1.141.081,0-.054.048-.13.046-.184ZM13.555,22.917h-.184v.045h.184v-.045Z"/>
        <rect class="cls-5" x="13.371" y="22.917" width=".184" height=".045"/>
        <path class="cls-2" d="M6.735,44.658c-.008.063.137.552.128.615-.048.368-.277.822-.316,1.203H0v-7.653c.14.026.088-.07.093-.159.03-.596.334-1.256.461-1.838.062-.285.314-.743.368-.985.174-.786.517-1.744.815-2.473.179-.438.329-.932.477-1.368.342-1.012.684-2.127.91-3.171.515-2.381.349-5.851,1.997-7.732.148-.169.361-.415.598-.439-.007.614.851.028,1.141-.081.26-.097.565-.204.832-.275.482-.129,1.742-.407,2.198-.421.402-.012,1.343.239,1.806.309.365.055.785.04,1.143.102.508.088,1.053.358,1.594.366l-.53.091c-.604-.057-1.199.067-1.796.095-.352.016-1.552-.107-1.726.164-.423.657,1.065.696,1.39.768.738.163,1.486.349,2.201.588l-.666.094c-.508-.019-1.018.017-1.526,0-.304-.01-1.215-.267-1.303.124-.067.299.145.395.395.461.95.249,1.946.249,2.924.58.048.016.14.01.129.078-.974.174-2.078.035-3.033.31-.761.22-.58.724.117.877.763.167,1.645.109,2.27.657-1.577.248-3.412.374-4.325,1.877-.419.69-.991,2.864-1.025,3.677-.031.749.369.679.579.026.443-1.382.489-3.298,1.853-4.141.974-.602,2.065-.578,3.103-.908,1.193-.38.25-.981-.383-1.276-.33-.154-.575-.197-.918-.281-.046-.011-.139-.014-.128-.079.797-.085,1.684-.043,2.453-.29.276-.089.698-.303.405-.632l.762-.552c.91-.945,1.735-2.005,2.721-2.862l.137.048c.52.955,1.177,1.985,2.029,2.674.402.325,1.419,1.109,1.841.46.038-.059.164-.388.164-.436v-.991l.36,1.138c.231.466.73,1.902,1.279,1.994.364.061.581-.173.7-.494.37-.999-.001-2.022.951-2.899.078-.072.32-.186.341-.212.033-.041.097-.328.104-.403.86-.233,1.436-.045,1.655.858.366,1.512-.305,2.955-1.082,4.21-.135.218-.709.931-.747,1.097-.093.407.07.914.085,1.326.051,1.433.083,3.483-.462,4.798-.168.406-.37.798-.58,1.184-.186.344-.351.757-.633,1.016-.037.034-.046.088-.066.134-.032.073-.092.127-.15.182-.569.538-.75,1.358-1.357,1.868-.686.576-1.689.828-2.529,1.121-1.238.432-2.489.748-3.808.581-1.309-.166-2.538-.699-3.718-1.264-.047-.022-.093-.045-.14-.067-1.071-.517-2.106-1.141-2.958-1.98-.03-.203-.202-.401-.287-.578-.188-.395-.271-.743-.373-1.16-.234-.948-.434-1.905-.646-2.858l-.086.351c0,.604-.187,1.184-.282,1.77-.185,1.141-.273,2.202-.359,3.362-.221.994-.303,2.055-.335,3.133-.209.456-.019,1.178-.25,1.62-.042.461-.194.954-.251,1.408M19.578,27.025c-.343.277-.428.689-.282,1.1.303.856,1.65.724,1.707-.183l-1.425-.918ZM13.403,28.501c-.114.033-.857,1.165-.849,1.263.631.763,1.549.346,1.412-.642-.031-.222-.3-.698-.563-.621ZM19.535,28.786c-.23-.175-.432.054-.33.353.056.163.754.833.921.969.645.525,1.214.795,2.006,1.037.062.019.122.019.136-.046.017-.079-.161-.162-.216-.198-.886-.565-1.414-.807-2.158-1.622-.091-.1-.304-.452-.359-.494ZM13.155,31.877c.543-.389,1.175-.797,1.572-1.356.163-.23.471-.924.117-1.082-.279-.124-.291.404-.359.563-.122.286-.636.865-.861,1.121-.197.224-.59.526-.735.74-.063.093-.125.203-.118.32.031.039.36-.29.384-.307ZM16.999,30.073c-.095.028-.173.145-.175.242-.004.316.456.457.697.553.719.283,1.501.445,2.21.74l-3.065,1.775-.204.3c.17.546.66.209.996.031.794-.42,1.884-1.032,2.621-1.528.25-.168,1.04-.662.496-.96-.913-.499-2.321-.651-3.274-1.152-.097-.016-.209-.028-.303,0ZM17.26,36.626c1.008-.933,2.622-1.148,3.604-.063.163.18.25.549.62.392.391-.165.077-.617-.092-.828-1.263-1.574-3.726-1.111-4.884.334-.171.213-.644.862-.231,1.047.357.159.404-.229.552-.414.092-.114.327-.372.431-.468Z"/>
      </g>
    </g>
    <g>
      <path class="cls-6" d="M2.213,31.999c-.148.437-.298.931-.477,1.368-.298.729-.641,1.688-.815,2.473-.053.241-.305.7-.368.985-.128.582-.432,1.242-.461,1.838-.004.089.047.185-.093.159l.128-6.218.481-.149c.396-.194.921-.3,1.386-.375.075-.012.148-.054.218-.081Z"/>
      <path class="cls-6" d="M8.115,33.567c.191.108.367.182.497.366l.517.372c.103.416.186.765.373,1.16.084.177.256.375.287.578.867.855,1.924,1.486,3.017,2.008s2.21,1.035,3.414,1.198c.867.118,1.816.148,2.673-.03,1.776-.369,3.889-1.166,4.901-2.787.087-.138.165-.284.266-.413.103-.13.267-.215.361-.346.069-.097-.036-.177.199-.262.098-.035.114-.039.2-.077,1.388-.604,3.649-.244,4.948.277,3.451,1.385,5.477,4.742,6.483,8.062.262.865.396,1.519.543,2.362.024.139.14.267.09.44-10.112,0-20.226,0-30.338,0,.039-.381.18-1.755.188-1.818.024-.183.081-.649.092-.738.027-.211.081-.742.092-.83.057-.454,1.011-8.383,1.195-9.524Z"/>
    </g>
  </g>
  <path class="cls-7" d="M33.274,33.089c.104-.032.222-.028.287.064.203.284-.238,1.857-.249,2.28-.323.458-.606.205-.576-.3.022-.374.245-1.491.38-1.833.032-.081.065-.182.158-.211Z"/>
  <g>
    <path class="cls-4" d="M29.327,29.197c-.056,0,.024-10.641.068-11.343.036-2.411.072-7.106.367-7.639.471-.782,1.258-1.224,2.11-1.296.762.046,1.324-.024,1.101-.918-.117-.365-.037-.976.323-1.1.31-.013,1.009-.007,1.207-.001.301,0,1.145-.007,1.921-.007.904.053,1.391-.034,1.545.208.121.394-.113,1.255.127,1.593,1.395.03,3.139.413,3.405,2.065.196,1.369.076,3.787.106,5.087.002.147.091,8.332.092,11.399,0,.47,0,.854,0,1.121-.03.291.071.358-.077.475-.163.111-.286.293-.365.47.061.413.52-.526.442.585-.066.939.265,1.814-.348,2.553-.244.287-.676.314-1.036.237-.759-.161-2.081-.021-2.941-.064-.364.011-6.666-.007-7.531-.533-.349-.141-.601-.499-.543-.924.047-.434-.065-1.032-.08-1.4.032-.069.318.146.607.042.274-.086.337-.444.12-.573-.172-.051-.38-.071-.557-.039l-.064.003ZM35.675,8.658c-.431.01-.877.009-1.306.031-.326.017-.843.038-1.15.095-.297.056-.183.511.182.553.91.105,2.245-.011,3.18-.049.303-.012.942.068,1.174-.071.221-.132.191-.448-.04-.552-.679-.041-1.361-.022-2.041-.007ZM35.502,16.556c-.015.01.028-4.789-.017-4.912-.549-.62-.683,1.107-.878,1.478-.519,1.633-1.211,3.084-1.689,4.702-.064.213-.202.503-.122.713.396.451,1.643-.022,2.21.162.269.089.857-.033.764.246-.663,1.725-1.397,3.692-1.999,5.382-.042.219.034.562.302.534,1.562-1.815,2.605-4.149,3.972-6.111.31-.516.82-.988.857-1.553-.409-.562-1.304-.27-1.986-.407-.415-.017-1.072-.215-1.415-.215v-.018ZM37.285,26.473c.105-.085.447-.755.529-.922.124-.255.41-.845.477-1.091.136-.497-.391-.625-.643-.228-.162.58-.501,1.163-.674,1.723-.048.155-.124.309-.039.456.082.143.224.163.35.061ZM30.878,24.974c-.201.041-.243.199-.216.38.02.133.666,1.246.782,1.386.271.328.63.146.543-.266-.038-.177-.636-1.276-.771-1.395-.106-.093-.192-.134-.337-.105ZM37.068,28.193c-1.966-.006-3.935.004-5.901,0v2.928c.089.095.222.107.344.117,1.913.161,4.13-.056,6.09-.004.213.006.473.088.688.096.533.02,1.072-.017,1.605-.004l.129-.157-.027-2.884c-.013-.029-.048-.032-.069-.045-.043-.028-.467.069-.535.061-.766-.094-1.508-.105-2.324-.107Z"/>
    <path class="cls-7" d="M29.322,29.899c-.021.003-.042.024-.046.046h-.046c-.304-.015-1.312.237-1.497-.003-.085-.111-.052-.274.042-.368.175-.174,1.244-.324,1.546-.367.306-.043.815-.209.834.253.018.442-.508.399-.834.439Z"/>
    <path class="cls-7" d="M39.312,32.995c.135-.046.254.011.361.085.163.113,1.085,1.156,1.195,1.34.317.526-.121.887-.572.387-.201-.223-.966-1.202-1.057-1.433-.045-.113-.091-.324.072-.38Z"/>
    <path class="cls-7" d="M41.679,29.484c-.131.052-.376.182-.485,0-.182-.305.287-.55.485-.692.143-.103.923-.656,1.013-.674.324-.066.504.357.275.602-.15.16-1.057.672-1.288.764Z"/>
    <path class="cls-2" d="M35.613,16.512c.268.037,1.055.125,1.632.169.668.135,1.761-.115,1.882.613-1.185,2.387-2.984,4.669-4.401,6.961-.208.287-.367.744-.716.785-.62-.256-.028-1.133.097-1.652.409-1.363,1.084-2.911,1.434-4.249-.335-.777-2.312.002-2.78-.639-.077-.118-.096-.279-.074-.465.562-2.088,1.449-4.007,2.121-6.087.086-.215.34-.66.571-.533.181.11.106.337.123.846.044,1.161-.085,3.178.048,4.224l.066.026Z"/>
    <path class="cls-2" d="M37.068,28.193l2.859.046c.021.013.056.016.069.045l.027,2.884-.129.157c-.533-.013-1.072.024-1.605.004-.214-.008-.475-.09-.688-.096-1.96-.052-4.177.164-6.09.004-.122-.01-.255-.022-.344-.117v-2.928c1.966.004,3.935-.006,5.901,0Z"/>
    <path class="cls-7" d="M35.675,8.658c.68-.015,1.362-.034,2.041.007.231.104.26.42.04.552-.232.139-.871.059-1.174.071-.935.038-2.271.154-3.18.049-.365-.042-.479-.497-.182-.553.307-.057.823-.079,1.15-.095.429-.022.876-.021,1.306-.031Z"/>
    <path class="cls-7" d="M37.285,26.473c-.126.102-.268.081-.35-.061-.085-.147-.009-.301.039-.456.174-.56.513-1.144.674-1.723.252-.398.778-.27.643.228-.067.245-.353.835-.477,1.091-.082.167-.424.838-.529.922Z"/>
    <path class="cls-7" d="M30.878,24.974c.144-.029.231.012.337.105.135.119.734,1.218.771,1.395.088.412-.272.594-.543.266-.116-.14-.762-1.253-.782-1.386-.027-.182.015-.34.216-.38Z"/>
    <path class="cls-3" d="M29.322,29.899v.138s-.046-.092-.046-.092c.004-.022.025-.043.046-.046Z"/>
  </g>
</svg>