<?xml version="1.0" encoding="UTF-8"?>
<svg id="Layer_1" data-name="Layer 1" xmlns="http://www.w3.org/2000/svg" viewBox="0 0 46.487 46.487">
  <defs>
    <style>
      .cls-1 {
        fill: #58b1e4;
      }

      .cls-2 {
        fill: #58b0e3;
      }

      .cls-3 {
        fill: #c76f45;
      }

      .cls-4 {
        fill: #e9e4a2;
      }

      .cls-5 {
        fill: #de7079;
      }

      .cls-6 {
        fill: #fdfcfc;
      }

      .cls-7 {
        fill: #fefefe;
      }

      .cls-8 {
        fill: #7b555a;
      }
    </style>
  </defs>
  <path class="cls-4" d="M46.487.046v46.441h-25.635l-.557-3.228-.084-3.612c1.044-.999,1.963-2.044,2.892-3.145.397-.471.7-.655.954-1.275.75-1.836.733-4.115,1.205-6.04,1.443-2.01,4.222-4.566,3.472-7.323-.299-1.1-.967-1.372-2.04-1.091-.281.073-.502.24-.78.265-.021-.088.024-.132-.093-.186-.133-.091-.284-.089-.325-.279-.014-.065.01-.161,0-.232.094-.016.163-.147.186-.232.011-.041,0-.132,0-.186,0-.282-.089-.648-.093-.929,0-.031,0-.062,0-.093.11-.004.305-.136.326-.258.047-.288-.245-.369-.281-.599-.064-.404.249-.206.311-.535.024-.128-.073-.127-.076-.14-.013-.052.014-.136,0-.186-.027-.099-.138-.146-.232-.14.025-.173.196-.138.249-.335.027-.1.009-.234-.064-.315.008-.299.008-.118.105-.337.147-.332-.076-.434-.098-.577-.008-.055.077-.111.084-.18.014-.128-.025-.308,0-.408.009-.036.167-.08.234-.147.215-.213.221-.63.165-.908-.056-.276-.363-.479-.347-.721.006-.096.115-.138.147-.217.165-.402.303-.727.176-1.175-.074-.262-.238-.432-.514-.461l-.039-.054c-.053-.303.181-.532.052-.842-.028-.068-.121-.116-.141-.184-.151-.516.114-1.078.026-1.605-.063-.379-.257-.381-.428-.593-.025-.031-.314-.482-.326-.51-.135-.302.009-.728-.283-1.11-.333-.435-.59-.175-.856-.305-.054-.026-.072-.12-.128-.164-.105-.081-.386-.21-.428-.255-.1-.107-.129-.608-.348-.813-.122-.115-.277-.102-.392-.165-.084-.046-.15-.162-.24-.225-.422-.296-.706-.198-1.194-.223-.264-.586-.774-.663-1.339-.774-.697-.137-1.022-.232-1.647-.582-.294-.165-.375.015-.569.006-.133-.006-.272-.138-.389-.162-.359-.073-.295.026-.677-.159-.267-.129-.481-.182-.788-.119-.238.049-.323.283-.659.317-.566.056-.791-.285-1.347-.283-.434.002-.673.204-.988.27-.509.107-.579-.337-1.152-.269-.406.048-.662.442-1.113.422-.158-.007-.358-.164-.534-.213-.527-.148-.896-.081-1.195.397-.391-.062-1.124-.119-1.408.219-.196.233-.03.436-.441.475-.542.052-.921-.17-1.259.415-.586-.395-1.223-.161-1.323.555-.612-.153-.809.184-.804.751-.47.072-.745.372-.842.83-.048.225.024.434-.165.625-.1.101-.271.097-.41.194-.469.326-.568,1.317-.423,1.829-.561.059-.493.86-.412,1.273-.474.244-.683.835-.605,1.35.02.131.182.367.173.46-.008.084-.196.29-.233.415-.119.404-.023.798.282,1.085-.143.302-.232.618-.168.958.017.091.118.23.118.244,0,.029-.186.183-.231.268-.091.174-.119.508-.072.694.034.135.219.229.224.253.023.117-.086.4-.039.63.032.156.176.245.211.347.011.034.091.387.088.408s-.143.182-.179.269c-.178.422.042.826.52.776-.007.011.007.034,0,.046-.194.357-.351.599,0,.929-.015.116.046.291-.046.372-.295.082-.364.115-.232.464-.299-.045-.623-.076-.929-.093V.046s46.441,0,46.441,0ZM35.611,5.633c-2.111.125-2.978,1.388-3.194,3.354-.272,2.469-.233,4.993-.324,7.478-.286,3.881-.127,7.771-.232,11.657-.015.552.022,1.455-.046,1.951-.036.261-.609.862-.783,1.121-1.382,2.063-1.346,5.072.385,6.935.631.679,2.743,1.234,3.668,1.301,1.516.111,3.216-.938,4.13-2.096,1.854-2.347,1.721-5.36-.482-7.403-.155-.144-.438-.236-.467-.462-.055-.422.045-.934.051-1.347.065-4.45.174-8.883.228-13.332.025-2.076.13-4.145-.144-6.214-.199-1.503-1.082-3.043-2.789-2.942Z"/>
  <path class="cls-4" d="M.046,27.911l1.007.85.04.121c.116,1.924.148,3.922.499,5.819.154.832.314,1.215.803,1.89.629.868,1.372,1.668,2.146,2.405.003.553.03,1.111.012,1.664-.033,1-.111,2.015-.143,3.015l-.091,2.812H.046v-18.576Z"/>
  <path class="cls-7" d="M.046,46.487h-.046V0h46.487v.046H.046s0,20.062,0,20.062c0,2.6,0,5.202,0,7.802v18.576Z"/>
  <g>
    <path class="cls-3" d="M1.254,18.39c.019-.033.227-.345.243-.36.059-.056.277-.076.346-.165.09-.116.113-.392.112-.538.455-.046.546-.463.234-.772.194-.169.268-.361.313-.608.01-.054-.04-.126-.03-.175.01-.053.235-.317.259-.481.021-.136-.124-.25-.119-.314.003-.039.371-.364.406-.648.05-.401-.071-.796-.512-.861.026-.175.176-.281.212-.462.032-.157-.03-.289-.007-.376.021-.079.144-.207.188-.324.204-.542.17-1.189-.104-1.696.009-.056.263-.15.337-.207.194-.15.72-.761.72-.998v-1.091l1.552.137c.478-.07.716-.795.943-.828.068-.01.369.199.55.222.262.034,1.061-.032,1.29-.142.139-.067.349-.26.477-.362.182.104.334.285.554.319.512.08,1.572-.093,2.049-.314.189-.088.726-.558.784-.567.319-.045.388.398.581.579.714.674,1.838.354,2.249-.484.399.382,1.427.624,1.906.372.413-.218.361-.547.435-.949l.207-.029c.104.303.166.456.453.625.228.134.606.332.845.455.684.35.853-.219,1.472-.335.175.996,1.431,1.223,2.229.836-.04.27-.243.248-.235.58.004.162.299.897.401,1.042.169.24.472.432.763.468-.266.546.08,1.483.626,1.72.076.033.153.024.21.044.28.096.313.252.139.511-.015.006-.038-.007-.046,0l-.046.093c-.035.029-.109-.047-.135.166-.028.235.03.461.203.625.091.087.285.151.326.231.01.021.116.421.117.446.008.177-.19.163-.266.332-.088.194-.091.609.014.797.115.204.336.441.438.7.034.086.091.317.088.398-.004.078-.072.112-.088.159-.328.311-.414.924.186.79.005.066-.033.123-.046.186-.173.129-.235.314-.136.521.023.049.116.047.122.157.012.226-.207.427-.116.73.05.168.246.13.326.175.083.047.145.187.315.182,0,.031,0,.062,0,.093-.24-.038-.457-.138-.557.139-.053.145-.032.152,0,.279.047.186.175.272.181.308.008.046-.086.126-.094.226-.016.224.139.435.377.395.01.072-.014.167,0,.232-.585.007-.56.354-.186.697.236.216.417.189.629-.048.053-.076-.012-.129-.025-.184.278-.025.499-.192.78-.265,1.073-.281,1.74-.009,2.04,1.091.75,2.757-2.028,5.313-3.472,7.323-.472,1.925-.454,4.204-1.205,6.04-.253.621-.556.805-.954,1.275-.929,1.101-1.849,2.146-2.892,3.145l.084,3.612.557,3.228H4.319l.091-2.812c.032-1,.11-2.015.143-3.015.018-.553-.009-1.111-.012-1.664-.774-.737-1.517-1.538-2.146-2.405-.49-.676-.649-1.058-.803-1.89-.351-1.897-.383-3.895-.499-5.819l-.04-.121-1.007-.85c0-2.6,0-5.202,0-7.802.305.016.629.048.929.093.027.004.079.074.128.08.435.052.663-.044.755-.497-.135.021-.234-.137-.348-.137-.026,0-.249.075-.302.09.093-.08.032-.255.046-.372.69.046.574-.837,0-.929.007-.012-.007-.035,0-.046ZM16.043,8.757c-.351-.453-.48.221-.568.52-.099.338-.137.675-.199,1.055-.011.07-.08.123-.088.19-.11.895.243,1.55,1.225,1.411.211-.03.273-.128.335-.315.311-.93-.183-1.941-.63-2.694-.027-.045.005-.063-.076-.167ZM10.158,11.3c-.39-.129-.444.344-.55.597-.184.438-.384.974-.557,1.486-.055.164-.15.467-.178.668-.029.211.009.559.107.749.012.023.347.357.369.372.032.02.367.194.389.199.175.041.594.048.768-.003.034-.01.03-.064.075-.085.032-.015.094.005.132-.019.015-.009.221-.235.232-.254.479-.838-.149-2.072-.418-2.804-.082-.224-.18-.475-.248-.658-.022-.059-.041-.221-.121-.248ZM19.354,13.436c-.087-.028-.176-.018-.265-.012.029.188-.135.349-.176.497-.093.334-.124.806-.199,1.14-.008.035-.083.028-.091.063-.078.326-.011.986.231,1.245.147.158.467.264.676.299.065.011.169.015.233.007.079-.011.054-.07.105-.093.033-.015.096.007.133-.018.089-.058.316-.313.35-.417.054-.165.063-.718.039-.896-.011-.087-.088-.06-.096-.098-.036-.167-.028-.362-.185-.467-.066-.158-.664-1.221-.756-1.252ZM17.121,20.218c-.212-.209-.504-.061-.49.235.023.493.91,1.63,1.295,1.956.776.655,1.985.959,2.99.853.257-.027.776-.154.671-.518-.1-.347-.52-.151-.717-.131-1.003.101-2.294-.41-2.943-1.181-.281-.334-.544-.954-.807-1.213ZM10.896,22.228c.21-.303.699-1.326.203-1.537-.47-.2-.553.456-.718.766-.442.831-1.333,1.514-2.279,1.626l-1.182-.076c-.409.277-.153.58.222.712,1.364.478,2.978-.368,3.755-1.491ZM15.91,26.869c-.953.791-2.571.939-3.557.137-.207-.168-.623-.793-.848-.759-.329.05-.221.506-.117.703.85,1.611,3.969,1.635,5.098.333.206-.238,1.103-1.508.35-1.51-.294-.001-.366.429-.514.65-.069.103-.309.363-.411.447ZM16.188,32.389c-.836-.753-2.193-1.059-3.286-.887-1.681.265-2.96,1.024-3.661,2.609-.108.243-.252.66-.175.92.06.204.33.284.481.128.06-.062.277-.726.36-.894.805-1.623,2.399-2.214,4.141-2.08,1.193.091,1.71.587,2.392,1.509.427.579.645,1.192.955,1.831.289.232.531,0,.483-.342-.023-.166-.331-.878-.423-1.065-.231-.475-.877-1.377-1.267-1.729ZM6.907,40.462c-.263-.27-.652.098-.425.494s1.793.987,2.26,1.13c1.819.559,4.099,1.01,5.957.453.756-.227,1.591-.6,2.299-.952.265-.132.968-.454,1.158-.606.306-.245.238-.747-.198-.615-.07.021-.335.234-.45.293-1.095.565-2.763,1.415-3.977,1.55-1.597.178-4.733-.539-6.143-1.324-.094-.052-.292-.143-.355-.202-.078-.073-.081-.174-.127-.221Z"/>
    <path d="M16.188,32.389c.39.351,1.035,1.254,1.267,1.729.091.187.399.899.423,1.065.048.342-.194.575-.483.342-.31-.639-.528-1.252-.955-1.831-.681-.923-1.198-1.418-2.392-1.509-1.742-.133-3.336.458-4.141,2.08-.083.167-.301.832-.36.894-.151.156-.421.076-.481-.128-.076-.26.068-.677.175-.92.701-1.584,1.979-2.344,3.661-2.609,1.093-.172,2.451.134,3.286.887Z"/>
    <path d="M6.907,40.462c.046.047.049.148.127.221.063.059.261.149.355.202,1.409.785,4.546,1.502,6.143,1.324,1.213-.135,2.881-.985,3.977-1.55.115-.059.38-.272.45-.293.436-.132.504.37.198.615-.191.152-.893.475-1.158.606-.708.352-1.543.725-2.299.952-1.859.557-4.138.106-5.957-.453-.467-.143-2.032-.733-2.26-1.13s.162-.765.425-.494Z"/>
    <path d="M15.91,26.869c.102-.084.342-.344.411-.447.148-.221.22-.651.514-.65.753.003-.143,1.272-.35,1.51-1.129,1.302-4.248,1.278-5.098-.333-.104-.197-.211-.653.117-.703.225-.034.641.591.848.759.986.802,2.604.654,3.557-.137Z"/>
    <path d="M10.896,22.228c-.776,1.122-2.391,1.969-3.755,1.491-.375-.132-.631-.435-.222-.712l1.182.076c.946-.112,1.836-.795,2.279-1.626.165-.31.248-.966.718-.766.496.211.007,1.234-.203,1.537Z"/>
    <path d="M17.121,20.218c.263.259.526.879.807,1.213.649.771,1.94,1.282,2.943,1.181.197-.02.617-.216.717.131.105.364-.414.491-.671.518-1.005.106-2.215-.197-2.99-.853-.386-.326-1.272-1.463-1.295-1.956-.014-.296.278-.444.49-.235Z"/>
    <g>
      <path class="cls-6" d="M35.611,5.633c1.707-.101,2.59,1.438,2.789,2.942.274,2.07.169,4.139.144,6.214-.054,4.45-.163,8.883-.228,13.332-.006.413-.106.926-.051,1.347.03.225.312.318.467.462,2.203,2.043,2.336,5.056.482,7.403-.915,1.158-2.614,2.207-4.13,2.096-.925-.068-3.037-.622-3.668-1.301-1.731-1.862-1.767-4.871-.385-6.935.173-.259.747-.86.783-1.121.069-.496.031-1.399.046-1.951.105-3.885-.054-7.776.232-11.657.09-2.486.052-5.009.324-7.478.216-1.966,1.084-3.229,3.194-3.354ZM37.849,15.047v-3.32c0-.016-.113-.097-.139-.139-.11-.178-.083-.273-.347-.303-1.148-.132-2.542.102-3.717,0-.124,0-.295.102-.336.221-.052.151-.095.64-.106.823-.035.607.023,1.249.004,1.861-.155,4.995-.289,10.003-.468,14.996-.015.407.059.97,0,1.346-.031.197-.554.618-.713.819-2.439,3.075-.5,7.899,3.652,7.228,3.422-.553,5.34-5.077,2.939-7.744-.279-.31-.545-.423-.86-.673v-5.968c-.578.002-1.156.092-1.736.041-.109-.01-.344-.039-.435-.076-.205-.082-.301-.366-.153-.547.147-.179.845-.241,1.091-.256.406-.024.826.021,1.233.002l.046-3.576-2.015.088c-.557-.04-.621-.676-.041-.773l2.056-.104.046-3.344c-.425.089-.847.075-1.276.093-.295.013-1.092.196-1.211-.184-.052-.167.013-.364.177-.432.037-.015.357-.081.383-.081h1.927Z"/>
      <path class="cls-5" d="M37.849,15.047h-1.927c-.027,0-.347.066-.383.081-.164.068-.229.265-.177.432.119.38.916.197,1.211.184.43-.019.851-.005,1.276-.093l-.046,3.344-2.056.104c-.581.097-.516.733.041.773l2.015-.088-.046,3.576c-.407.019-.827-.026-1.233-.002-.245.014-.944.076-1.091.256-.148.181-.053.465.153.547.092.037.326.066.435.076.58.051,1.158-.039,1.736-.041v5.968c.315.249.581.363.86.673,2.401,2.667.483,7.191-2.939,7.744-4.153.671-6.091-4.153-3.652-7.228.16-.201.682-.622.713-.819.06-.376-.014-.939,0-1.346.179-4.993.313-10.001.468-14.996.019-.612-.038-1.255-.004-1.861.01-.183.054-.671.106-.823.041-.119.212-.22.336-.221,1.175.102,2.569-.132,3.717,0,.265.03.237.125.347.303.026.042.139.124.139.139v3.32Z"/>
    </g>
    <g>
      <path d="M1.254,18.39c-.478.05-.698-.354-.52-.776.036-.086.177-.248.179-.269s-.077-.374-.088-.408c-.035-.102-.178-.19-.211-.347-.048-.23.062-.513.039-.63-.005-.024-.189-.118-.224-.253-.047-.187-.019-.52.072-.694.044-.085.23-.239.231-.268,0-.014-.101-.153-.118-.244-.064-.34.025-.656.168-.958-.305-.287-.401-.681-.282-1.085.037-.125.225-.331.233-.415.009-.093-.153-.33-.173-.46-.078-.515.131-1.106.605-1.35-.081-.413-.149-1.214.412-1.273-.145-.512-.046-1.503.423-1.829.139-.097.31-.093.41-.194.189-.19.117-.4.165-.625.097-.458.372-.758.842-.83-.005-.568.192-.904.804-.751.1-.716.737-.951,1.323-.555.338-.586.717-.364,1.259-.415.411-.039.245-.242.441-.475.284-.338,1.017-.281,1.408-.219.299-.478.667-.545,1.195-.397.176.049.376.206.534.213.451.02.706-.373,1.113-.422.573-.068.643.376,1.152.269.315-.066.554-.268.988-.27.555-.003.781.339,1.347.283.335-.033.421-.268.659-.317.307-.063.521-.009.788.119.383.185.318.086.677.159.117.024.257.156.389.162.194.009.275-.171.569-.006.624.35.949.446,1.647.582.565.111,1.075.188,1.339.774.488.024.772-.073,1.194.223.089.063.155.178.24.225.115.063.27.05.392.165.218.205.247.707.348.813.043.045.324.175.428.255.056.043.074.137.128.164.266.131.524-.13.856.305.292.382.148.808.283,1.11.012.028.302.479.326.51.171.213.365.214.428.593.088.527-.177,1.089-.026,1.605.02.068.113.115.141.184.129.31-.105.539-.052.842l.039.054c.276.028.44.199.514.461.127.448-.012.773-.176,1.175-.033.08-.141.122-.147.217-.016.241.292.445.347.721.057.279.051.695-.165.908-.068.067-.226.111-.234.147-.024.101.014.281,0,.408-.007.068-.092.125-.084.18.021.143.244.245.098.577-.097.219-.096.037-.105.337-.009.325-.042.267-.232.464-.163-.043-.485.022-.618,0-.012-.002-.109-.148-.198-.137-.052-.06.128-.445.166-.56.117-.111.375-.158.373-.348l-.373-.21c-.102-.26-.322-.496-.438-.7-.106-.187-.103-.602-.014-.797.077-.169.274-.156.266-.332-.001-.024-.107-.425-.117-.446-.041-.08-.235-.144-.326-.231-.173-.165-.231-.391-.203-.625.026-.213.1-.137.135-.166.064-.053.042-.09.046-.093.008-.007.032.006.046,0,.534-.214.62-.058.906.371l.115-.115-.696-.744-.465-.023c-.057-.02-.134-.011-.21-.044-.546-.237-.892-1.174-.626-1.72-.291-.036-.594-.228-.763-.468-.102-.145-.398-.88-.401-1.042-.008-.332.196-.311.235-.58-.798.387-2.054.16-2.229-.836-.619.116-.788.685-1.472.335-.24-.123-.618-.321-.845-.455-.288-.168-.349-.321-.453-.625l-.207.029c-.073.402-.021.731-.435.949-.479.253-1.507.01-1.906-.372-.411.838-1.535,1.158-2.249.484-.192-.181-.262-.624-.581-.579-.058.008-.594.479-.784.567-.477.222-1.537.394-2.049.314-.22-.034-.372-.215-.554-.319-.128.102-.338.295-.477.362-.229.11-1.028.176-1.29.142-.181-.024-.482-.232-.55-.222-.228.033-.465.758-.943.828l-1.552-.137v1.091c0,.237-.526.848-.72.998-.074.058-.329.151-.337.207.274.507.309,1.154.104,1.696-.044.117-.167.245-.188.324-.023.087.038.218.007.376-.036.18-.186.287-.212.462.441.065.562.459.512.861-.036.285-.403.61-.406.648-.005.064.139.178.119.314-.025.164-.249.428-.259.481-.009.05.04.121.03.175-.045.248-.119.439-.313.608.311.309.22.726-.234.772,0,.146-.022.422-.112.538-.069.089-.287.109-.346.165-.016.015-.224.327-.243.36ZM12.678,5.201h.789c.006-.109.016-.082-.069-.093-.163-.021-.419-.007-.583.022-.049.009-.15.004-.138.071Z"/>
      <path d="M25.078,17.229c-.026.106-.121.212-.086.338.204.417.735.09.876-.199.003.013.1.012.076.14-.062.329-.375.131-.311.535.036.23.329.311.281.599-.02.122-.216.254-.326.258-.17.006-.232-.134-.315-.182-.079-.045-.275-.008-.326-.175-.091-.303.129-.504.116-.73-.006-.109-.099-.108-.122-.157-.099-.208-.037-.392.136-.521-.006.028.007.066,0,.093ZM25.477,18.178c-.139-.091-.21-.145-.399-.112-.051.182.099.221.159.328.098.176.216.601.493.299.193-.211-.083-.404-.253-.515Z"/>
      <path d="M25.031,19.133c.283-.153.549-.111.561.256.006.196-.148.361.089.533,0,.054.011.144,0,.186-.283.167-.519.12-.469-.259.014-.106.131-.028.097-.159-.189-.006-.147-.204-.278-.28-.032-.127-.053-.134,0-.279Z"/>
      <path d="M1.254,19.366c-.351-.33-.194-.572,0-.929.574.092.69.975,0,.929Z"/>
      <path d="M25.635,17.137c.078.014.157.018.232.046.014.05-.013.134,0,.186-.14.288-.672.615-.876.199-.035-.126.06-.232.086-.338.186-.202.322-.134.557-.093Z"/>
      <path d="M1.207,19.737c.053-.015.277-.09.302-.09.114,0,.213.158.348.137-.092.454-.32.55-.755.497-.049-.006-.101-.076-.128-.08-.132-.349-.063-.383.232-.464Z"/>
      <path d="M25.821,20.852c.117.053.071.098.093.186.013.055.078.108.025.184-.211.238-.392.265-.629.048-.15-.381.175-.571.511-.418Z"/>
      <path class="cls-3" d="M25.496,20.573c.041.19.192.187.325.279-.336-.153-.661.037-.511.418-.374-.342-.399-.69.186-.697Z"/>
      <path d="M25.589,18.994c.004.281.092.647.093.929-.238-.172-.083-.337-.089-.533-.012-.367-.278-.409-.561-.256.101-.277.317-.177.557-.139Z"/>
      <path class="cls-8" d="M25.821,16.394c.073.081.091.215.064.315-.053.197-.225.162-.249.335.094-.006.205.041.232.14-.075-.028-.154-.033-.232-.046l-.141-.12.012-.105c.026-.019.061-.031.083-.054.191-.197.223-.139.232-.464Z"/>
      <path d="M25.031,19.412c.131.075.09.274.278.28.034.131-.083.053-.097.159-.05.379.186.425.469.259-.022.085-.092.217-.186.232-.238.04-.392-.171-.377-.395.007-.1.101-.18.094-.226-.006-.037-.134-.122-.181-.308Z"/>
      <path class="cls-1" d="M10.158,11.3c.08.026.099.189.121.248.069.184.166.434.248.658.269.732.897,1.966.418,2.804-.011.019-.218.245-.232.254-.039.024-.1.004-.132.019-.045.021-.041.075-.075.085-.174.05-.593.044-.768.003-.022-.005-.358-.179-.389-.199-.022-.014-.357-.348-.369-.372-.098-.19-.136-.537-.107-.749.028-.201.122-.504.178-.668.173-.512.374-1.048.557-1.486.106-.253.16-.726.55-.597Z"/>
      <path class="cls-2" d="M19.354,13.436c.092.03.69,1.093.756,1.252.156.106.149.301.185.467.008.038.085.012.096.098.023.178.015.731-.039.896-.034.104-.261.358-.35.417-.037.024-.101.003-.133.018-.051.023-.026.082-.105.093-.064.009-.168.004-.233-.007-.208-.035-.529-.141-.676-.299-.242-.26-.309-.92-.231-1.245.008-.035.083-.029.091-.063.075-.335.106-.807.199-1.14.041-.149.205-.309.176-.497.089-.006.178-.017.265.012Z"/>
      <path class="cls-1" d="M16.043,8.757c.081.104.049.122.076.167.447.753.941,1.763.63,2.694-.062.186-.124.285-.335.315-.982.139-1.336-.516-1.225-1.411.008-.067.077-.12.088-.19.062-.38.1-.717.199-1.055.087-.299.217-.973.568-.52Z"/>
      <path d="M24.335,12.214c.173-.259.141-.415-.139-.511l.465.023.696.744-.115.115c-.286-.429-.372-.585-.906-.371Z"/>
      <path d="M24.939,16.161c-.038.115-.218.5-.166.56.09-.01.186.135.198.137.132.021.455-.043.618,0-.022.023-.057.035-.083.054l-.012.105.141.12c-.235-.042-.371-.109-.557.093.007-.027-.006-.065,0-.093.013-.062.051-.119.046-.186-.6.134-.514-.479-.186-.79Z"/>
      <path d="M24.939,15.604l.373.21c.002.19-.256.237-.373.348.015-.047.084-.081.088-.159.004-.081-.054-.312-.088-.398Z"/>
      <path d="M24.242,12.307l.046-.093s.018.04-.046.093Z"/>
      <path d="M12.678,5.201c-.012-.067.088-.062.138-.071.163-.029.42-.043.583-.022.085.011.075-.016.069.093h-.789Z"/>
      <path d="M25.477,18.178c.17.111.446.304.253.515-.277.303-.394-.123-.493-.299-.06-.107-.21-.146-.159-.328.188-.033.259.021.399.112Z"/>
    </g>
  </g>
</svg>