<?xml version="1.0" encoding="UTF-8"?>
<svg id="Layer_1" data-name="Layer 1" xmlns="http://www.w3.org/2000/svg" viewBox="0 0 47.022 47.022">
  <defs>
    <style>
      .cls-1 {
        fill: #51411e;
      }

      .cls-2 {
        fill: #ead67f;
      }

      .cls-3 {
        fill: #c76f45;
      }

      .cls-4 {
        fill: #e9e4a2;
      }

      .cls-5 {
        fill: #efe342;
      }

      .cls-6 {
        fill: #de7079;
      }

      .cls-7 {
        fill: #592f0d;
      }

      .cls-8 {
        fill: #e69f00;
      }

      .cls-9 {
        fill: #35240d;
      }

      .cls-10 {
        fill: #fefefe;
      }

      .cls-11 {
        fill: #572d0c;
      }
    </style>
  </defs>
  <path class="cls-4" d="M46.975,0c-.002,11.618.003,23.238,0,34.855-.144.026-.089-.072-.094-.162-.013-.213-.05-.356-.094-.558-.079-.362-.312-.92-.453-1.269-.284-.702-.565-1.327-.951-1.997-.054-.094-.247-.442-.301-.509-.594-.735-1.724-1.48-2.443-1.972-.236-.162-.584-.32-.806-.509-.054-.046-.053-.101-.165-.07.022-.278.227-.658.236-1.012.012-.465-.199-1.073-.19-1.452.008-.306.218-.728.238-1.08.03-.511-.268-1.22-.236-1.548.013-.129.234-.499.293-.697.16-.532.176-.869.123-1.415-.011-.109-.087-.284-.088-.358-.003-.139.453-.796.53-1.044.156-.502.239-1.751-.577-1.634.08-.117.15-.304.145-.447-.005-.146-.092-.241-.094-.327-.002-.121.099-.211.08-.41-.026-.267-.25-.506-.265-.584-.012-.062.173-.465.125-.687-.038-.173-.28-.341-.311-.443-.107-.356.17-.604-.248-.926-.088-.068-.29-.138-.329-.188-.08-.102-.069-.431-.21-.635-.276-.398-.619-.148-.775-.259-.042-.03-.061-.215-.116-.307-.269-.445-.678-.331-1.1-.239-.096-.581-.706-.588-1.129-.327-.039-.369-.697-.482-.8-.094-.375-.287-.846-.27-.987.235-.414-.19-.84-.044-.939.423-.287-.142-.666.011-.844.258-.064.089-.088.245-.099.254-.052.043-.384-.029-.63.286-.182.232-.119.474-.171.557-.012.019-.229.071-.331.256-.08.146-.109.485-.154.55-.024.035-.165.072-.239.137-.249.22-.259.424-.257.733,0,.098.057.203.049.279-.009.099-.206.239-.233.427-.025.171.054.306.044.418-.012.134-.276.352-.093.589-.149.003-.425.229-.517.352-.332.446-.344,1.53,0,1.949l-.023,1.644c-.686-.726-1.529-1.292-2.419-1.738-.339-.271-.26-.424-.339-.765-.057-.249-.517-.407-.74-.313-.064.323.316.208.398.373.069.138.059.437.164.658.043.091.026.103.117.188.266.247.836.525,1.166.761.459.328,1.622,1.238,1.883,1.687.213.366.016.493-.072.859-.19.791-.172,1.424.048,2.208-.288.235-.516.641-.595,1.003-.011.05-.058.338-.058.365v.705c0,.094.117.365.141.493-.121.091-.236.273-.344.361-.034.028-.126.003-.158.03-.249.211-.482.55-.743.76-.051.042-.049.104-.165.07,0-.013-.067-.066-.049-.156.004-.019.169-.147.192-.336.02-.168-.048-.311-.044-.43.009-.301.178-.807-.122-1.005-.114-.075-.361-.088-.393-.22-.016-.063.135-.546.136-.698.002-.316-.107-.579-.427-.661-.009-.367.084-.651-.16-.959-.047-.059-.299-.233-.306-.267-.016-.086.016-.187-.004-.269-.114-.476-.29-.609-.796-.543.1-.357.021-.957-.402-1.03-.126-.022-.283.03-.397-.026-.067-.033-.312-.394-.413-.441-.263-.124-.448-.023-.585-.059-.049-.013-.102-.092-.165-.121-.429-.199-.672-.219-.996.175-.028-.159-.313-.307-.458-.319-.093-.008-.176.049-.262.038-.03-.004-.106-.154-.143-.172-.255-.119-.561-.033-.803.079-.17-.209-.217-.329-.523-.286-.173.024-.414.27-.467.27-.062,0-.179-.201-.423-.178s-.407.279-.433.284c-.108.021-.223-.025-.33.016-.101.038-.312.465-.338.481-.038.022-.337-.12-.575-.021-.192.08-.304.484-.328.504-.04.034-.206.011-.369.171-.245.242-.125.398-.209.542-.02.035-.295.217-.337.297-.053.1-.074.365-.123.442-.034.053-.188.087-.257.237-.121.265-.145.639-.013.903-.129-.01-.335.008-.436.091-.092.076-.073.252-.139.32-.048.05-.201.054-.247.152-.028.06-.076.54-.071.633.009.154.077.291.135.43.035.083.155.085.101.253-.097.019-.294-.033-.367.01-.109.064-.346.753-.342.906.006.22.174.395.175.469,0,.054-.112.213-.127.374-.026.282.067.369.094.569.045.338-.059.959.472.866.015.13.082.081.093.127.019.077-.015.178,0,.249-.379-.036-.045.513.047.658-.027.427.195.853.611.986-.019.203-.039.406-.047.611-.195-.235-.331-.542-.501-.788-.288-.416-.694-.919-1.066-1.263-.736-.682-1.649-1.209-2.476-1.775-.083-.257-.062-1.138-.256-1.294-.163-.132-.488-.003-.68.046.017-.22.034-.437.047-.658.03.005.068-.007.094,0,.39.102,1.389-.211,1.861-.276.254-.035.536-.016.79-.095.078.018.051.278.237.041l.308-3.497-.042-2.389c.052-.152,2.221-1.328,2.546-1.439.049-.022.023-.07.031-.096.03-.099-.001-.088,0-.094.007-.028-.008-.069,0-.094.014-.046.185-.395.219-.415.175-.105.517-.034.72-.055,0,.152-.035.433.045.544.102.141.828.498,1.023.573,1.232.478,3.726.569,5.004.234.677-.178.874-.379,1.368-.815.035-.031.121-.026.148-.064l.033-2.552c.263-.569.794-1.113,1.071-1.654.37-.721.129-2.133.337-2.951l.661-.938c.214-.402.41-.812.414-1.278.002-.229-.086-.838-.286-.964.086-.03.106-.089.143-.163.234-.471.676-2.769.702-3.337.03-.651-.409-1.603-1.15-1.104-.381-1.074-.8-2.08-1.871-2.638-.791-.412-1.129-.228-1.372.62-.332-.103-.597-.319-.936-.426-.888-.28-2.263-.631-3.121-.157-.209.115-.464.379-.512.616-.028.142.045.479-.088.524-.13.043-.572-.079-.745-.088-.602-.031-1.591.06-2.065.47-.325.281-.728,1.236-.679,1.662.021.184.228.427.225.466-.003.032-.235.445-.277.57-.309.913.045,1.817.33,2.703-.342.013-.7.453-.749.778-.13.863.281,1.81.818,2.464.11.134.202.127.259.281.253.685.408,1.649.789,2.288.077.128.126.176.291.155.065,1.385.219,2.466.188,3.899-.633-.02-1.153-.092-1.174.705-.785.127-1.635.918-2.348,1.268-.083-1.357-.295-2.712-.752-3.993.072-.082.064-.303.051-.403-.012-.087-.088-.062-.097-.099-.021-.097.02-.215-.002-.311-.009-.038-.314-.539-.37-.636-.142-.246-.619-.895-.865-1.073-.036-.026-.113-.004-.157-.031-.141-.087-.101-.253-.112-.264-.017-.016-.107.013-.149-.004-.1-.04-.292-.196-.417-.243-.055-.021-.13-.095-.184.01-.515-.409-1.164-.759-1.832-.799.296-.993.03-1.736-.861-2.262-1.912-1.129-3.421.714-2.615,2.544-.819.116-1.608.611-2.289,1.07-.495.334-1.024.742-1.453,1.155-.172.166-.494.623-.649.738-.057.042-.155.037-.165.047-.009.008.033.105.011.171-.057.176-.311.474-.412.671-.896,1.746-.814,3.98-.728,5.897.037.824.035,1.619.282,2.419.016.121-.025.279.001.391.008.035.084.029.092.064.022.097-.02.215.002.311.008.033.262.454.28.534.024.106-.02.214.016.331.039.127.253.09.329.107.036.008.029.084.064.092.119.029.288-.027.406.002.134.033.005.058.314.046.467-.018.942,0,1.409,0v.517c-.15-.016-.469.042-.54.188-.113.232-.074.841-.132,1.115l-1.922,1.142c-1.163.841-2.233,1.844-3.041,3.039-.087.128-.156.315-.283.435V0h46.975Z"/>
  <path class="cls-10" d="M46.975,0h.047v47.022H0v-.047c3.945,0,7.893-.001,11.838,0,7.938.002,15.878.002,23.816,0,3.773-.001,7.548,0,11.321,0,0-4.039-.001-8.081,0-12.12.003-11.618-.002-23.238,0-34.855Z"/>
  <path class="cls-5" d="M4.51,26.729c-.309.012-.18-.013-.314-.046-.118-.029-.287.027-.406-.002-.035-.009-.029-.084-.064-.092-.076-.017-.29.02-.329-.107-.036-.118.008-.226-.016-.331-.018-.081-.272-.502-.28-.534-.022-.096.02-.215-.002-.311-.008-.035-.084-.029-.092-.064-.026-.111.015-.27-.001-.391.087.28.501,1.33.658,1.527.238.298.538.198.845.352Z"/>
  <g>
    <path class="cls-8" d="M18.508,32.084c-.415-.133-.637-.56-.611-.986.155.243.449.52.634.752.071.148-.018.183-.023.234Z"/>
    <path class="cls-3" d="M18.461,34.761c-.095-.548-.055-1.194-.048-1.762,0-.079-.03-.209.048-.258-.021.671.016,1.348,0,2.02Z"/>
    <g>
      <path class="cls-9" d="M20.293,18.273c-.002.079,0,.194,0,.282-.204.02-.545-.05-.72.055-.034.02-.205.37-.219.415-.068-.04-.157-.06-.235-.047.021-.797.542-.725,1.174-.705Z"/>
      <path class="cls-9" d="M19.354,19.213v-.094c-.001.006.03-.005,0,.094Z"/>
      <g>
        <path class="cls-11" d="M30.111,8.69c-.032-.02-.4-.141-.447-.144-.273-.02-.404.229-.672.088-.1-.323-.029-.664-.062-.995-.335-3.372-3.576-3.371-6.168-2.656-1.044.288-2.131,1.6-2.4,2.627-.066.254-.199,1.45-.352,1.53-.186.096-.473-.188-.626-.269-.22-.117-.614-.229-.689-.462-.286-.886-.639-1.79-.33-2.703.042-.126.274-.539.277-.57.004-.039-.204-.283-.225-.466-.049-.426.353-1.381.679-1.662.474-.41,1.463-.502,2.065-.47.173.009.615.131.745.088.133-.044.06-.382.088-.524.047-.237.303-.501.512-.616.857-.474,2.233-.123,3.121.157.339.107.604.323.936.426.243-.848.581-1.032,1.372-.62,1.071.558,1.49,1.564,1.871,2.638.741-.498,1.18.453,1.15,1.104-.026.569-.469,2.867-.702,3.337-.036.073-.057.133-.143.163Z"/>
        <path class="cls-7" d="M19.025,11.932c.341-.075.629.36.983.332.159.697.064,1.405.098,2.11-.165.021-.215-.027-.291-.155-.382-.639-.536-1.602-.789-2.288Z"/>
        <g>
          <path class="cls-8" d="M18.696,8.409c.075.233.469.345.689.462.153.081.44.366.626.269.153-.079.286-1.276.352-1.53.268-1.027,1.356-2.339,2.4-2.627,2.592-.715,5.833-.716,6.168,2.656.033.331-.038.671.062.995.268.142.399-.107.672-.088.046.003.415.124.447.144.2.125.287.735.286.964-.003.466-.2.877-.414,1.278l-.661.938c-.209.818.033,2.23-.337,2.951-.277.54-.808,1.084-1.071,1.654l-.033,2.552c-.027.038-.113.033-.148.064-.494.435-.691.637-1.368.815-1.278.336-3.772.244-5.004-.234-.195-.075-.921-.431-1.023-.573-.08-.111-.046-.392-.045-.544,0-.088-.002-.203,0-.282.031-1.433-.123-2.514-.188-3.899-.033-.705.062-1.413-.098-2.11-.354.027-.641-.407-.983-.332-.057-.155-.149-.147-.259-.281-.537-.654-.948-1.601-.818-2.464.049-.325.407-.766.749-.778ZM23.043,8.875c0-.194-.158-.352-.352-.352s-.352.158-.352.352.158.352.352.352.352-.158.352-.352ZM27.138,8.611c-.535-.457-.868.707-.154.594.289-.046.352-.425.154-.594ZM25.072,9.504c-.142-.051-.265-.04-.244.127l.726,1.08c-.043.048-.876.118-1.053.239-.065.044-.085.078-.077.158.011.073.058.136.129.157.343.104.957-.274,1.318-.304.115-.05.125-.221.052-.314-.192-.116-.76-1.11-.852-1.143ZM25.44,13.789c-.129.086-.245.24-.401.281-.329.086-.753-.002-1.032-.192-.094-.064-.721-.832-.757-.419-.021.246.595.789.806.887.602.28,1.525.146,1.592-.629-.161-.046-.158.039-.208.072ZM26.822,16.395c-.31.04-.562.239-.882.316-.972.231-2.267.034-3.142-.449-.209-.115-.331-.334-.579-.29-.003.289.389.511.616.628.858.441,2.206.538,3.133.327.27-.062.836-.206.854-.532Z"/>
          <path d="M26.822,16.395c-.017.326-.583.47-.854.532-.927.211-2.275.114-3.133-.327-.227-.117-.619-.339-.616-.628.248-.044.37.174.579.29.875.483,2.17.68,3.142.449.32-.076.572-.275.882-.316Z"/>
          <path d="M25.44,13.789c.05-.033.046-.119.208-.072-.067.775-.99.909-1.592.629-.21-.098-.827-.641-.806-.887.036-.413.663.355.757.419.279.19.703.278,1.032.192.157-.041.272-.195.401-.281Z"/>
          <path d="M25.072,9.504c.092.033.66,1.027.852,1.143.073.093.063.264-.052.314-.362.03-.975.407-1.318.304-.071-.022-.118-.084-.129-.157-.008-.08.012-.114.077-.158.177-.121,1.01-.191,1.053-.239l-.726-1.08c-.021-.166.102-.177.244-.127Z"/>
          <circle cx="22.691" cy="8.875" r=".352"/>
          <path d="M27.138,8.611c.198.169.135.549-.154.594-.713.113-.381-1.051.154-.594Z"/>
        </g>
      </g>
    </g>
    <g>
      <path class="cls-4" d="M33.446,26.588c-.149-.037-.207-.09-.22-.093-.1-.024-.236.012-.343-.001.089-.433.004-.851.006-1.286.127-.109.237-.109.371-.239.145-.141.2-.343.327-.495-.077.705-.082,1.41-.141,2.114Z"/>
      <path class="cls-4" d="M40.305,26.729c-.127-.062-.328-.064-.47-.047.01-.211-.013-.425-.002-.636.003-.061.049-.122.049-.139v-.939c0-.042.243-.421.329-.446-.029.323.184.671.192.963.01.367-.131.785-.098,1.245Z"/>
      <g>
        <path class="cls-5" d="M32.883,26.494c.107.013.244-.023.343.001.013.003.071.055.22.093.7.176,1.459.334,2.182.378.343.021.732-.059,1.059.045-.164.001-.33-.005-.494,0-.041.001-.169-.019-.093.047.72-.001,1.441,0,2.161,0,.036,0,.244.02.117-.047.229-.014.573-.054.808-.108.217-.05.446-.196.648-.221.142-.017.342-.015.47.047.014.193.035.347.105.53.067.174.308.449.317.576.01.134-.112.443-.134.614-.029.231-.101.683-.1.887.003.338.337.499.449.167.041-.12-.04-.32.115-.285-.017.2.153.724.417.558.118-.074-.051-.809.007-.98l.246.693c.099.07.236.074.321-.021.159-.241-.406-1.321-.38-1.659.113-.031.111.024.165.07.222.189.57.347.806.509.718.493,1.848,1.238,2.443,1.972.055.068.247.416.301.509.386.67.667,1.295.951,1.997.141.349.374.907.453,1.269.044.201.081.345.094.558.006.09-.049.188.094.162-.001,4.039,0,8.081,0,12.12-3.773,0-7.548-.001-11.321,0-.464-1.649-1.424-3.101-2.63-4.299-.924-.918-2.714-1.924-3.948-2.347-.226-.077-.84-.135-.985-.236-.14-.098-.067-.732-.234-.941-.152-.189-.506-.117-.706-.069.012-.099-.001-.186-.023-.282-.198-.868-.088-2.812.022-3.736.024-.201.176-.495.095-.727.285-.107,1.265-.503,1.373-.764.133-.321-.117-.393-.102-.475.009-.054.274-.24.315-.44.039-.191-.05-.403-.028-.497.011-.046.166-.208.214-.305.214-.442.337-.877.507-1.325.074-.195.248-.306.211-.538-.01-.063-.083-.124-.083-.145,0-.054.321-.218.215-.553-.021-.066-.116-.11-.12-.15-.002-.022.087-.234.082-.4.116.034.113-.029.165-.07.26-.21.494-.549.743-.76.033-.028.124-.002.158-.03.107-.088.222-.27.344-.361.136.727-.035,1.438-.023,2.161.594.4.246-1.076.54-1.315v1.339c0,.066.259.228.377.095.086-.096-.017-.246.139-.212.064.261.192.692.519.438-.006-.356-.173-.671-.229-1.033-.081-.52-.122-1.139-.123-1.658.194-.252.378-.528.444-.848Z"/>
        <path class="cls-5" d="M36.687,27.011c.552-.005,1.147.033,1.691,0,.127.067-.081.047-.117.047-.72,0-1.441,0-2.161,0-.076-.067.052-.046.093-.047.164-.005.33.001.494,0Z"/>
      </g>
      <g>
        <path d="M29.125,19.307c.891.446,1.733,1.011,2.419,1.738l.023-1.644c.177.215.634.631.868.847.117.108.467.311.518.424.016.035.028.346.056.46.168.677.723,2.394.668,2.986-.011.118-.076.24-.089.357-.127.152-.182.354-.327.495-.134.13-.245.13-.371.239-.003.435.083.853-.006,1.286-.066.32-.25.596-.444.848.001.52.042,1.138.123,1.658.056.362.224.677.229,1.033-.327.254-.455-.177-.519-.438-.156-.034-.054.116-.139.212-.118.133-.377-.029-.377-.095v-1.339c-.294.239.054,1.716-.54,1.315-.011-.723.16-1.434.023-2.161-.024-.128-.141-.399-.141-.493v-.705c0-.027.047-.315.058-.365.078-.362.307-.768.595-1.003-.22-.784-.238-1.417-.048-2.208.088-.366.286-.492.072-.859-.261-.449-1.425-1.359-1.883-1.687-.33-.236-.9-.514-1.166-.761-.091-.085-.074-.096-.117-.188-.026-.353.346-.038.517.047Z"/>
        <path d="M42.043,20.246c.002.075.078.249.088.358.053.546.037.883-.123,1.415-.059.198-.281.567-.293.697-.032.328.265,1.037.236,1.548-.02.352-.23.775-.238,1.08-.009.379.202.987.19,1.452-.009.354-.214.733-.236,1.012-.026.338.538,1.418.38,1.659-.085.095-.223.091-.321.021l-.246-.693c-.057.171.111.906-.007.98-.264.166-.434-.357-.417-.558-.155-.036-.074.164-.115.285-.112.333-.446.171-.449-.167-.002-.204.07-.656.1-.887.022-.171.144-.48.134-.614-.009-.128-.25-.402-.317-.576-.07-.183-.091-.336-.105-.53-.033-.46.108-.878.098-1.245-.008-.292-.22-.64-.192-.963.045-.512.629-1.101.836-1.583.111-.521.027-1.292.195-1.778.042-.122.532-.765.646-.903.073-.088.056-.067.155-.011Z"/>
        <path class="cls-9" d="M29.125,19.307c-.171-.085-.543-.4-.517-.047-.105-.221-.095-.52-.164-.658-.082-.165-.462-.051-.398-.373.224-.094.683.064.74.313.079.341,0,.494.339.765Z"/>
        <g>
          <path class="cls-3" d="M37.721,13.999c.012.066.128.23.189.258.462.214.425-.691.657-.869.038.331-.224.723,0,1.011.316.406.6-.067.772-.312.018-.025.055-.171.122-.088.04.05-.079.23-.091.307-.103.656.477.656.795.232.026-.034.162-.402.235-.305.054.26-.19.363-.29.579-.231.502.089.763.571.571-.135.178-.254.323-.237.563.029.412.455.301.519.471l-.282.234c-.228.281.003.639.329.682-.501.763.643.741.987.234.815-.117.732,1.132.577,1.634-.077.248-.533.905-.53,1.044-.099-.057-.082-.077-.155.011-.114.138-.604.781-.646.903-.168.486-.085,1.257-.195,1.778-.207.483-.79,1.071-.836,1.583-.086.026-.329.404-.329.446v.939c0,.017-.045.078-.049.139-.011.211.011.425.002.636-.202.025-.431.171-.648.221-.235.054-.579.094-.808.108-.544.033-1.139-.005-1.691,0-.327-.104-.716-.024-1.059-.045-.724-.043-1.482-.202-2.182-.378.059-.704.064-1.408.141-2.114.013-.118.078-.239.089-.357.055-.592-.5-2.309-.668-2.986-.028-.113-.04-.425-.056-.46-.051-.113-.4-.316-.518-.424-.234-.216-.691-.631-.868-.847-.343-.419-.332-1.503,0-1.949.092-.123.368-.35.517-.352.097-.002.407.217.517.258.448.168,1.207.247.846-.446.323-.067.641-.208.481-.599-.056-.136-.183-.146-.246-.247.587.064.653-.34.282-.705.415.18.977-.064.611-.517-.002-.031.004-.063,0-.094.106.002.22.012.319-.034.104-.049.079-.123.104-.154.008-.01.151.034.094-.188l.141.047c.235.296.41.065.589.048.078-.008.159.05.235.048.57-.009.345-.421.397-.472l.446-.095c.034,0,.042.499.494.283.128-.061.18-.225.329-.235ZM35.217,18.001c-.217.066-.286.603-.032.718.623.28.706-.924.032-.718ZM39.235,18.732c.365.367.973-.493.331-.637-.412-.093-.527.44-.331.637ZM37.515,18.653c-.113.037-.082.191-.051.276.023.062.366.621.424.704.105.15.3.275.395.449-.121.181-1.161.179-.964.495.118.19.812-.013.997-.087.196-.079.486-.218.366-.476-.334-.329-.566-.869-.869-1.198-.085-.093-.152-.199-.298-.162ZM36.577,22.131c-.053.017-.077.054-.078.11-.003.265.693.612.928.625.299.017.995-.356.813-.72-.214-.098-.299.162-.456.254-.581.343-.898-.37-1.207-.269ZM39.036,24.568c-.645.041-1.24.265-1.904.237-.689-.029-1.189-.427-1.694-.47-.218-.018-.296.146-.13.275.092.072.947.392,1.086.417.651.117,1.604.056,2.24-.133.186-.055.391-.083.403-.325Z"/>
          <path d="M39.036,24.568c-.011.242-.217.27-.403.325-.636.19-1.589.251-2.24.133-.139-.025-.994-.345-1.086-.417-.165-.129-.087-.294.13-.275.505.043,1.005.441,1.694.47.664.028,1.259-.196,1.904-.237Z"/>
          <path d="M37.515,18.653c.146-.037.213.069.298.162.303.329.535.869.869,1.198.12.258-.17.397-.366.476-.185.075-.879.277-.997.087-.197-.316.843-.313.964-.495-.096-.174-.29-.3-.395-.449-.058-.083-.401-.642-.424-.704-.032-.085-.062-.239.051-.276Z"/>
          <path d="M36.577,22.131c.309-.101.627.612,1.207.269.157-.093.242-.352.456-.254.182.364-.515.736-.813.72-.235-.013-.932-.36-.928-.625,0-.056.025-.092.078-.11Z"/>
          <path d="M35.217,18.001c.674-.206.591.998-.032.718-.254-.114-.185-.651.032-.718Z"/>
          <path d="M39.235,18.732c-.196-.197-.081-.73.331-.637.642.144.034,1.004-.331.637Z"/>
        </g>
        <g>
          <path d="M32.084,17.099c-.183-.236.081-.455.093-.589.01-.112-.068-.246-.044-.418.027-.188.223-.328.233-.427.007-.076-.049-.181-.049-.279-.002-.31.008-.513.257-.733.074-.065.214-.102.239-.137.045-.066.074-.405.154-.55.102-.185.319-.237.331-.256.051-.083-.011-.325.171-.557.246-.315.578-.243.63-.286.01-.009.034-.165.099-.254.178-.247.558-.4.844-.258.099-.467.525-.613.939-.423.141-.505.612-.522.987-.235.103-.388.761-.275.8.094.423-.261,1.033-.254,1.129.327.422-.092.831-.206,1.1.239.055.091.074.277.116.307.156.111.498-.14.775.259.141.204.13.533.21.635.039.05.241.12.329.188.419.322.142.57.248.926.031.102.273.27.311.443.048.222-.137.625-.125.687.015.078.239.317.265.584.019.199-.082.289-.08.41.002.086.089.181.094.327.005.143-.066.33-.145.447-.343.506-1.487.529-.987-.234-.326-.043-.558-.402-.329-.682l.282-.234c-.065-.171-.49-.059-.519-.471-.017-.241.102-.385.237-.563-.482.192-.802-.069-.571-.571.099-.216.344-.319.29-.579-.074-.097-.209.27-.235.305-.318.424-.898.424-.795-.232.012-.077.131-.257.091-.307-.067-.083-.104.063-.122.088-.171.245-.455.717-.772.312-.224-.287.038-.68,0-1.011-.231.178-.194,1.083-.657.869-.06-.028-.176-.192-.189-.258-.081-.438.041-1.135.047-1.597h-.141s0,1.573,0,1.573c0,.024-.219.186-.235.258-.452.216-.46-.283-.494-.283l-.446.095c-.052.051.174.463-.397.472-.076.001-.158-.056-.235-.048-.179.017-.353.249-.589-.048-.171-.216-.31-.6-.46-.831-.116-.178-.228-.091-.19.048.057.207.581.602.415.924-.025.031,0,.105-.104.154-.099.046-.213.037-.319.034-.016-.142-.076-.093-.166-.185-.086-.089-.356-.414-.421-.426-.07-.013-.084.002-.072.072.037.206.532.478.658.634.367.453-.195.697-.611.517.372.364.305.768-.282.705.063.1.19.11.246.247.161.391-.158.532-.481.599.361.693-.397.614-.846.446-.109-.041-.42-.26-.517-.258Z"/>
          <path class="cls-1" d="M35.231,14.421l-.141-.047c.057.222-.086.178-.094.188.165-.323-.358-.717-.415-.924-.038-.139.074-.226.19-.048.151.232.289.616.46.831Z"/>
          <path class="cls-9" d="M37.392,14.233c.016-.072.235-.234.235-.258v-1.574h.141c-.006.462-.128,1.159-.047,1.597-.149.01-.201.174-.329.235Z"/>
          <path class="cls-1" d="M34.574,14.844c-.126-.156-.621-.428-.658-.634-.012-.069.002-.085.072-.072.065.012.335.337.421.426.089.092.15.043.166.185.004.031-.002.063,0,.094Z"/>
        </g>
      </g>
    </g>
    <g>
      <path class="cls-8" d="M5.919,27.245c.13.014.083.084.126.093.182.04.169.002.359.079.468.189.817.312,1.285.501.189.077.177.039.359.079.037.008.012.085.099.097.367.048,1.105.021,1.404.091.038.009.013.085.1.097.402.052,1.321-.011,1.685-.099.316-.076.701-.108,1.034-.188.306-.074.77-.287,1.113-.375.192-.049.517-.178.68-.046.194.157.173,1.037.256,1.294.828.566,1.74,1.093,2.476,1.775.372.344.777.846,1.066,1.263.171.246.306.553.501.788,0,.016,0,.031,0,.047-.078.049-.047.178-.048.258-.007.568-.048,1.215.048,1.762.034.198.152.644.251.831.119.225.637.637.782.885.132.226.212.801.235,1.081.025.323-.134.972.189,1.103v.141c-.096-.011-.545-.021-.564,0-.013.015.015.108-.002.152-.076.197-.048.177-.093.38-.008.035-.083.029-.092.064-.021.087.02.418-.002.437-.163-.05-.164.058-.227.09-.324.167-.632.302-.955.478-.985.54-1.841,1.069-2.729,1.782-.131.105-.313.227-.396.295-.98.803-2.004,2.345-2.547,3.407-.153.3-.316.638-.381.961-.008.039-.127.031-.094.126-3.945-.001-7.893,0-11.838,0v-13.811c.127-.12.196-.307.283-.435.808-1.195,1.878-2.198,3.041-3.039l1.922-1.142c.058-.274.019-.883.132-1.115.071-.146.39-.204.54-.188Z"/>
      <g>
        <path class="cls-5" d="M6.342,26.729c-.031-.072-.1-.115-.174-.131-.429-.089-.995-.075-1.442-.155-.29-.052-.579-.209-.889-.191-.071-.024-.179-.298-.22-.391-.741-1.67-.789-3.654-.751-5.45.041-1.972.107-3.148,1.432-4.674,1.522-1.752,3.432-2.767,5.779-2.916.165-.011.408.127.52-.09.196-.379-.861-.344-1.036-.328s-.932.247-1.006.182c-.481-1.615.766-3.125,2.387-2.034.454.306.674.608.708,1.171.011.181-.06.494-.039.599.003.017.135.291.147.303.039.043.533.111.67.153.947.287,2.441,1.707,2.925,2.571.619,1.105,1.191,3.424,1.23,4.689.009.303-.042.463,0,.775-.078.049-.047.178-.048.258-.012.929.012,1.711-.095,2.63-.025.215-.002.525,0,.754,0,.079-.03.209.048.258-.053.545-.093,1.093-.147,1.637-.795.17-1.638.148-2.428.367-.144.04-.314.044-.29.25-.026-.007-.064.005-.094,0,.027-.458.087-.924.053-1.375.39-.508,1.237-1.274,1.351-1.895.092-.504.017-1.245.167-1.712.045-.139.242-.254.328-.376.438-.626.824-1.38.626-2.17-.016-.065-.167-.297-.234-.329-.406-.192-.933.436-1.022.341l-.047-1.879-8.075.099-.144,1.759c-.49-.02-.743-.701-1.284-.58-.303.068-.545.678-.552.955-.013.531.527,1.5.918,1.853.178.162.806.423.881.575.149.304.078,1.288.082,1.68.01.923-.008,1.849,0,2.772-.102.04-.137.034-.235.047Z"/>
        <path d="M3.006,24.85c-.248-.8-.245-1.594-.282-2.419-.086-1.917-.169-4.151.728-5.897.101-.197.356-.495.412-.671.021-.066-.02-.162-.011-.171.01-.01.109-.005.165-.047.155-.115.476-.572.649-.738.429-.413.958-.821,1.453-1.155.68-.459,1.47-.954,2.289-1.07-.806-1.83.703-3.673,2.615-2.544.891.526,1.157,1.269.861,2.262.668.04,1.317.39,1.832.799,1.132.899,1.809,1.672,2.302,3.053.457,1.281.669,2.635.752,3.993.713-.351,1.563-1.141,2.348-1.268.078-.013.166.007.235.047-.008.025.007.066,0,.094v.094c-.008.026.018.075-.031.096-.325.11-2.494,1.287-2.546,1.439l.042,2.389-.308,3.497c-.185.236-.159-.023-.237-.041-.254.079-.536.06-.79.095-.472.065-1.472.378-1.861.276-.024-.206.146-.211.29-.25.79-.219,1.633-.197,2.428-.367.055-.545.094-1.093.147-1.637.131-1.332.276-2.554.094-3.899-.042-.312.009-.472,0-.775-.039-1.264-.611-3.583-1.23-4.689-.484-.864-1.978-2.283-2.925-2.571-.137-.042-.631-.109-.67-.153-.011-.012-.143-.287-.147-.303-.021-.105.05-.418.039-.599-.034-.563-.254-.865-.708-1.171-1.621-1.091-2.869.419-2.387,2.034.075.065.832-.167,1.006-.182s1.231-.051,1.036.328c-.112.217-.355.079-.52.09-2.347.15-4.256,1.164-5.779,2.916-1.326,1.526-1.391,2.702-1.432,4.674-.037,1.796.01,3.78.751,5.45.041.092.149.366.22.391.31-.018.599.139.889.191.447.081,1.013.066,1.442.155.075.016.143.059.174.131-.224.03-.249,0-.423,0-.467,0-.943-.018-1.409,0-.307-.155-.607-.055-.845-.352-.157-.196-.571-1.247-.658-1.527Z"/>
        <path class="cls-5" d="M13.717,13.2c.053-.105.129-.031.184-.01.125.047.317.203.417.243.042.017.132-.013.149.004.011.011-.029.176.112.264.045.028.121.005.157.031.246.178.723.827.865,1.073.056.097.361.598.37.636.022.096-.019.214.002.311.008.037.085.012.097.099.013.099.021.321-.051.403-.493-1.382-1.169-2.154-2.302-3.053Z"/>
        <path class="cls-4" d="M16.488,24.709c-.078-.049-.047-.178-.048-.258-.002-.228-.026-.538,0-.754.106-.919.083-1.701.095-2.63,0-.08-.03-.209.048-.258.182,1.345.037,2.567-.094,3.899Z"/>
      </g>
      <g>
        <path class="cls-6" d="M6.577,23.91c-.004-.391.067-1.375-.082-1.68-.075-.152-.702-.414-.881-.575-.391-.354-.931-1.323-.918-1.853.007-.277.249-.887.552-.955.541-.121.794.56,1.284.58l.144-1.759,8.075-.099.047,1.879c.089.095.616-.533,1.022-.341.067.032.218.264.234.329.198.79-.188,1.544-.626,2.17-.086.123-.284.237-.328.376-.15.467-.075,1.208-.167,1.712-.114.621-.961,1.387-1.351,1.895.034.451-.026.917-.053,1.375-.013.22-.029.438-.047.658-.343.088-.807.301-1.113.375-.333.08-.717.112-1.034.188-.365.087-1.283.151-1.685.099-.087-.011-.062-.088-.1-.097-.299-.07-1.036-.043-1.404-.091-.087-.011-.062-.089-.099-.097-.183-.04-.17-.002-.359-.079-.468-.189-.817-.312-1.285-.501-.19-.077-.177-.039-.359-.079-.043-.009.004-.079-.126-.093v-.517c.174,0,.199.03.423,0,.097-.013.133-.007.235-.047.014-.006.036.006.047,0,.06-.037.044-.053.05-.113-.098-.721.143-1.858-.05-2.517-.012-.042.016-.109-.047-.141ZM12.954,19.362c-.528.068-.382,1.094.187.848.431-.187.26-.906-.187-.848ZM8.865,19.504c-.346.103-.302.885.214.781.434-.088.316-.939-.214-.781ZM11.097,20.352c-.254.29.711,1.153.693,1.232-.178.161-1.127.218-1.059.545.016.079.11.174.193.185.066.009,1.195-.321,1.277-.366.151-.082.131-.241.08-.385-.121-.348-.694-.794-.847-1.173-.068-.097-.261-.127-.338-.039ZM9.803,23.401l-.168.118c.077.681.99,1.012,1.558.709.183-.098.256-.227-.022-.212-.132.007-.223.05-.385.031-.46-.055-.637-.413-.982-.646ZM8.374,25.73c.044.045.7.351.807.39.58.212,1.785.369,2.354.143.174-.069.321-.232.019-.216-.901.048-1.506.046-2.361-.269-.174-.064-.571-.323-.718-.315-.143.008-.201.168-.102.267Z"/>
        <path class="cls-5" d="M6.623,24.051v2.631c-.011.006-.033-.006-.047,0-.008-.923.01-1.849,0-2.772.063.032.035.099.047.141Z"/>
        <path d="M11.097,20.352c.077-.088.27-.059.338.039.153.378.725.825.847,1.173.05.144.07.303-.08.385-.083.045-1.212.375-1.277.366-.083-.011-.176-.106-.193-.185-.068-.327.881-.384,1.059-.545.018-.079-.947-.942-.693-1.232Z"/>
        <path d="M8.374,25.73c-.098-.1-.04-.259.102-.267.147-.008.544.251.718.315.855.314,1.46.316,2.361.269.302-.016.155.147-.019.216-.569.226-1.775.07-2.354-.143-.107-.039-.763-.345-.807-.39Z"/>
        <path d="M9.803,23.401c.345.233.521.591.982.646.163.02.253-.023.385-.031.278-.016.205.114.022.212-.568.303-1.481-.028-1.558-.709l.168-.118Z"/>
        <path d="M12.954,19.362c.447-.057.618.662.187.848-.569.246-.715-.781-.187-.848Z"/>
        <path d="M8.865,19.504c.53-.158.648.693.214.781-.515.104-.56-.678-.214-.781Z"/>
        <path class="cls-8" d="M6.623,26.682v-2.631c.193.66-.048,1.796.05,2.517-.006.06.01.077-.05.113Z"/>
      </g>
    </g>
    <g>
      <path class="cls-6" d="M19.917,38.801c.615.069,1.321.357,1.962.457,1.718.269,3.591.229,5.272-.175.2-.048.554-.12.706.069.167.209.094.842.234.941.145.102.759.159.985.236,1.234.423,3.023,1.429,3.948,2.347,1.206,1.198,2.166,2.65,2.63,4.299-7.938.002-15.878.002-23.816,0-.033-.095.086-.087.094-.126.065-.323.228-.661.381-.961.542-1.062,1.567-2.604,2.547-3.407.083-.068.265-.19.396-.295.888-.714,1.744-1.242,2.729-1.782.322-.177.631-.311.955-.478.062-.032.063-.14.227-.09.022-.019-.019-.35.002-.437.009-.036.084-.029.092-.064.046-.203.017-.183.093-.38.017-.044-.011-.137.002-.152.019-.021.467-.011.564,0Z"/>
      <g>
        <path class="cls-4" d="M17.757,30.064c-.026-.225-.03-.836.003-1.054.037-.245.24-.505.442-.642.325.007.376.37.682.381-.066-.15.088-.2.093-.221.062-.267.051-.724.106-1.014.155-.825.384-1.346,1.062-1.767.094-.058.296-.229.316-.233.093-.02.379.096.546-.058l.675-.562c.303.104.565.138.884.052.068.021.152.552.567.61.446.062.938-.16,1.328-.365.068-.036.11-.172.25-.133.151.255.302.543.538.73.08.064.214.082.289.157.115.114.138.344.299.476.286.234.487.15.796.025.01.166.008.422.05.576.007.025.199.255.189.34s-.081.064-.094.106c-.101.325.046.56-.006.776-.008.033-.075.03-.088.07-.089.273-.124.779-.101,1.067.018.233.258.436.291.674.032.027.19.013.241-.003.105-.033.672-.544.765-.665.065-.084.278-.515.339-.544.325-.154.647-.002.712.353.099.542-.016,1.171-.2,1.674-.095.26-.685,1.024-.902,1.211-.073.063-.386.231-.398.27-.102.344-.04.798-.097,1.114-.072.396-.256.395-.091.872.08.231-.072.526-.095.727-.11.925-.22,2.868-.022,3.736.022.096.035.183.023.282-1.682.404-3.554.445-5.272.175-.641-.101-1.347-.388-1.962-.457v-.141c.027,0,.071.011.088-.005.079-.077-.037-.623-.043-.768-.026-.658.099-1.045-.289-1.637-.305-.466-.682-.612-.851-1.216-.135-.485-.106-1.416-.082-1.942.013-.283.168-1.055.135-1.255-.059-.353-.402-.564-.602-.811-.058-.072-.416-.551-.424-.586-.016-.071.019-.172,0-.249-.011-.046-.078.003-.093-.127ZM20.702,28.429c-.236.072-.235.614,0,.686.626.192.641-.883,0-.686ZM24.983,29.291c0-.195-.158-.353-.353-.353s-.353.158-.353.353.158.353.353.353.353-.158.353-.353ZM21.562,30.863c.181-.076.987-.8.988-.917.002-.3-.343-.105-.472,0-.178.144-.697.579-.819.731-.152.188-.137.4.07.536.19.126,1.053.246,1.287.21.073-.011.139-.038.193-.089.166-.267-.565-.358-.708-.377-.048-.006-.623.028-.539-.094ZM23.581,32.742c-.578.093-.85.76-1.553.543-.127-.039-.494-.465-.635-.264-.111.158.196.446.323.528.331.213.755.162,1.098,0,.153-.072.922-.648.766-.807ZM24.227,36.179c-.116.017-.357.148-.522.186-.801.184-1.529.177-2.333.019-.152-.03-.562-.215-.658-.146-.282.201.382.402.509.436.803.216,1.552.176,2.35-.018.17-.041.87-.187.807-.414-.049-.066-.072-.076-.153-.063Z"/>
        <path d="M17.851,30.44c.008.035.365.514.424.586.2.248.544.458.602.811.033.2-.122.971-.135,1.255-.025.526-.054,1.457.082,1.942.169.604.546.75.851,1.216.388.593.263.979.289,1.637.006.144.121.69.043.768-.017.016-.061.006-.088.005-.323-.131-.163-.78-.189-1.103-.022-.28-.102-.855-.235-1.081-.145-.248-.663-.66-.782-.885-.099-.186-.216-.633-.251-.831.016-.672-.021-1.349,0-2.02,0-.016,0-.031,0-.047.008-.205.028-.407.047-.611.005-.051.094-.086.023-.234-.185-.233-.479-.51-.634-.752-.092-.145-.426-.694-.047-.658Z"/>
        <path d="M21.562,30.863c-.084.122.491.088.539.094.143.019.874.109.708.377-.054.052-.12.078-.193.089-.235.036-1.097-.084-1.287-.21-.207-.137-.221-.348-.07-.536.123-.152.641-.587.819-.731.129-.104.473-.299.472,0,0,.117-.807.841-.988.917Z"/>
        <path d="M24.227,36.179c.081-.012.104-.003.153.063.063.226-.637.372-.807.414-.799.195-1.548.235-2.35.018-.127-.034-.791-.235-.509-.436.097-.069.506.116.658.146.804.158,1.532.165,2.333-.019.165-.038.406-.169.522-.186Z"/>
        <path d="M23.581,32.742c.155.159-.614.735-.766.807-.343.163-.767.213-1.098,0-.127-.082-.434-.37-.323-.528.141-.202.507.224.635.264.703.217.975-.45,1.553-.543Z"/>
        <circle cx="24.63" cy="29.291" r=".353"/>
        <path d="M20.702,28.429c.641-.197.626.878,0,.686-.235-.072-.236-.614,0-.686Z"/>
      </g>
      <g>
        <path class="cls-8" d="M17.757,30.064c-.531.093-.428-.529-.472-.866-.026-.2-.119-.286-.094-.569.015-.161.128-.32.127-.374-.001-.075-.17-.249-.175-.469-.004-.153.233-.843.342-.906.073-.043.27.009.367-.01.054-.168-.066-.17-.101-.253-.058-.138-.126-.276-.135-.43-.005-.092.042-.573.071-.633.046-.098.199-.102.247-.152.066-.069.047-.244.139-.32.101-.084.308-.102.436-.091-.132-.264-.108-.638.013-.903.068-.149.223-.183.257-.237.049-.077.07-.342.123-.442.042-.079.316-.262.337-.297.084-.144-.036-.3.209-.542.163-.16.329-.138.369-.171.024-.02.136-.424.328-.504.238-.099.538.043.575.021.027-.016.237-.443.338-.481.107-.04.222.005.33-.016.026-.005.188-.261.433-.284s.361.178.423.178c.053,0,.294-.246.467-.27.306-.043.353.077.523.286.242-.112.547-.198.803-.079.037.017.113.168.143.172.085.011.169-.046.262-.038.144.012.43.16.458.319.324-.394.567-.374.996-.175.062.029.115.109.165.121.137.036.322-.065.585.059.101.048.346.408.413.441.114.056.271.004.397.026.423.074.503.673.402,1.03.507-.066.683.067.796.543.02.082-.013.183.004.269.007.034.259.208.306.267.244.308.15.592.16.959.32.083.429.346.427.661-.001.152-.152.635-.136.698.033.132.28.145.393.22.3.198.131.704.122,1.005-.004.119.065.262.044.43-.023.189-.188.316-.192.336-.019.09.048.142.049.156.006.166-.083.378-.082.4.003.04.099.084.12.15.106.335-.214.499-.215.553,0,.021.073.082.083.145.037.232-.137.343-.211.538-.17.448-.293.882-.507,1.325-.047.097-.203.259-.214.305-.022.093.068.305.028.497-.041.2-.305.386-.315.44-.014.082.235.154.102.475-.108.26-1.089.657-1.373.764-.165-.476.02-.476.091-.872.057-.315-.006-.77.097-1.114.012-.04.325-.207.398-.27.218-.187.808-.951.902-1.211.183-.503.299-1.131.2-1.674-.065-.356-.386-.508-.712-.353-.06.029-.274.459-.339.544-.093.121-.66.633-.765.665-.052.016-.21.03-.241.003-.033-.238-.273-.441-.291-.674-.023-.288.012-.793.101-1.067.013-.04.08-.038.088-.07.052-.216-.096-.451.006-.776.013-.042.084-.02.094-.106s-.183-.316-.189-.34c-.042-.154-.04-.411-.05-.576-.309.125-.51.209-.796-.025-.162-.132-.184-.362-.299-.476-.075-.075-.209-.093-.289-.157-.236-.187-.387-.475-.538-.73-.14-.039-.182.097-.25.133-.391.204-.882.427-1.328.365-.415-.057-.499-.589-.567-.61-.319.086-.581.052-.884-.052l-.675.562c-.167.154-.454.038-.546.058-.02.004-.222.175-.316.233-.678.42-.907.942-1.062,1.767-.055.29-.044.747-.106,1.014-.005.021-.16.07-.093.221-.307-.011-.357-.374-.682-.381-.201.137-.405.397-.442.642-.033.218-.029.829-.003,1.054ZM22.83,21.891c-.25-.108-.262.631-.234.658h.14c.004-.23.138-.42.094-.658ZM26.288,23c.345-.534-.176-.835-.261-.284-.024.155.01.332-.003.49.038.045.246-.178.263-.205ZM20.669,23.581l-.002-.443-.231-.496-.039.246.273.693ZM27.245,23.018c-.123-.14-.378.59-.375.657.083.017.211-.155.237-.207.03-.061.162-.424.138-.451ZM19.917,23.253c-.079-.082-.072-.018-.082.057-.029.201.074.726.204.88.055.065.081.056.161.05.051-.382-.258-.636-.282-.986ZM22.36,23.629l-.179.057c.049.12-.183.259-.102.366.037.049.176-.114.185-.13.052-.089.105-.185.096-.292ZM27.997,23.91c-.09-.016-.127.015-.191.067-.068.056-.386.599-.208.589.214-.152.39-.382.399-.657ZM20.877,25.012c.058-.039.194-.131.205-.192l-.155-.345-.259.539c.024.195.174.022.209-.002ZM28.467,24.709c-.251-.026-.464.754-.422.798.295.108.486-.721.422-.798ZM18.623,25.906c-.024-.027-.023-.12-.068-.046.06.153.068.462.282.493-.002-.177-.104-.325-.214-.447ZM18.86,26.4v.047c.031-.016.031-.031,0-.047Z"/>
        <path class="cls-2" d="M26.288,23c-.018.028-.225.251-.263.205.012-.158-.021-.335.003-.49.085-.55.606-.25.261.284Z"/>
        <path class="cls-2" d="M19.917,23.253c.024.35.333.604.282.986-.08.006-.106.016-.161-.05-.13-.154-.233-.679-.204-.88.011-.075.003-.138.082-.057Z"/>
        <path class="cls-2" d="M28.467,24.709c.064.078-.128.907-.422.798-.042-.044.171-.824.422-.798Z"/>
        <path class="cls-2" d="M27.997,23.91c-.009.274-.185.505-.399.657-.178.01.14-.533.208-.589.063-.052.101-.083.191-.067Z"/>
        <path class="cls-4" d="M20.877,25.012c-.035.024-.185.197-.209.002l.259-.539.155.345c-.012.061-.148.153-.205.192Z"/>
        <polygon class="cls-5" points="20.669 23.581 20.395 22.888 20.435 22.642 20.666 23.138 20.669 23.581"/>
        <path class="cls-5" d="M22.83,21.891c.044.238-.09.428-.094.658h-.14c-.028-.027-.015-.766.234-.658Z"/>
        <path class="cls-5" d="M27.245,23.018c.023.027-.108.39-.138.451-.026.052-.154.223-.237.207-.002-.067.252-.797.375-.657Z"/>
        <path class="cls-5" d="M22.36,23.629c.008.107-.044.204-.096.292-.009.016-.148.179-.185.13-.081-.107.151-.246.102-.366l.179-.057Z"/>
        <path class="cls-8" d="M18.623,25.906c.109.122.212.27.214.447-.214-.03-.222-.339-.282-.493.046-.074.045.019.068.046Z"/>
        <path class="cls-8" d="M18.86,26.4c.031.016.031.031,0,.047v-.047Z"/>
      </g>
    </g>
  </g>
</svg>