<?xml version="1.0" encoding="UTF-8"?>
<svg id="Layer_1" data-name="Layer 1" xmlns="http://www.w3.org/2000/svg" viewBox="0 0 46.487 46.487">
  <defs>
    <style>
      .cls-1 {
        fill: #c76f45;
      }

      .cls-2 {
        fill: #e9e4a2;
      }

      .cls-3 {
        fill: #33727b;
      }

      .cls-4 {
        fill: #59b4e6;
      }

      .cls-5 {
        fill: #0a8162;
      }

      .cls-6 {
        fill: #138f77;
      }

      .cls-7 {
        fill: #56b3e6;
      }

      .cls-8 {
        fill: #fefefe;
      }

      .cls-9 {
        fill: #0072b2;
      }

      .cls-10 {
        fill: #56b3e5;
      }

      .cls-11 {
        fill: #55b2e5;
      }

      .cls-12 {
        fill: #56b3e2;
      }
    </style>
  </defs>
  <path class="cls-2" d="M46.487.046v46.441H15.186c2.036-1.003,4.263-1.586,6.42-2.288,4.462-1.451,8.577-3.92,12.389-6.629.206-.025.423.101.621.09.282-.016,1.032-.208,1.341-.288,1.12-.29,2.103-.775,2.795-1.71.909-1.23,1.173-2.027.951-3.59-.037-.261-.119-.559-.181-.817.081,0,.164.009.245-.011,3.608-.9,3.99-4.917,2.254-7.759-.226-.37-.555-.629-.848-.941-.025-.026-.13-.022-.071-.112.003-.004.068.008.092-.033.112-.181.513-.878.557-1.036.847-.19,1.955-.94.972-1.785l-.415-.212c.161-1.001.104-1.909-.465-2.752-.421-.624-1.081-.966-1.695-1.382-.058-.04-.138-.035-.115-.138.159-.073.348-.102.508-.212.585-.404.46-1.205-.048-1.618-.873-.71-2.509-.606-3.572-.538-.015,0-.031-.001-.046,0-.039-.887-.219-1.777-.527-2.608-.66-1.782-1.907-3.11-3.867-3.285-3.386-.302-6.728,1.268-8.094,4.4l-.748,2.03c-.103.061-.64-.236-.782-.289-.961-.356-1.919-.702-2.954-.761-1.634-.093-4.185,1.14-5.273,2.324-.239-.13-.125-.698-.087-.946.168-1.1.927-1.965,1.472-2.894.744-1.268,1.554-2.596,2.246-3.884.586-1.091,1.438-2.601.791-3.825-.14-.265-.422-.5-.726-.527-.968-.084-1.847,1.007-2.524,1.578-1.573,1.328-3.226,2.676-4.631,4.182-1.028,1.101-1.841,2.303-2.661,3.562-1.074,1.652-2.107,3.334-3.194,4.98-.952,1.442-2.697,3.256-4.092,4.268-.372.27-.776.525-1.176.752V.046s46.441,0,46.441,0ZM23.808,5.172c-.34-.15-.533-.065-.845-.108-.104-.014-.158-.081-.232-.093-1.268-.201-1.699,1.648-1.237,2.537.4.77,1.697.968,2.333.459.64-.512,1.066-1.602.553-2.312-.08-.11-.46-.434-.571-.483ZM40.376,8.479c-.208-.257-.552-.648-.89-.712-.244-.046-.415.032-.639.039-.12.004-.227-.061-.366-.049-.554.05-1.112.755-1.187,1.278-.083.578.153,1.59.706,1.891.612.334,1.471.366,2.06-.032.882-.596.972-1.608.316-2.416Z"/>
  <path class="cls-8" d="M.046,46.487h-.046V0h46.487v.046H.046s0,21.734,0,21.734c0,5.046-.002,10.094,0,15.14,0,.324,0,.651,0,.975.001,2.863-.001,5.728,0,8.591Z"/>
  <path class="cls-4" d="M40.376,8.479c.655.808.566,1.82-.316,2.416-.589.397-1.447.365-2.06.032-.553-.301-.789-1.314-.706-1.891.075-.523.633-1.228,1.187-1.278.139-.013.246.052.366.049.224-.007.395-.086.639-.039.338.064.681.456.89.712ZM38.239,8.887c-.198.347-.139,1.131.235,1.332.577.31,1.501.102,1.555-.636.018-.245-.298-.78-.508-.875-.048-.022-.584-.073-.666-.068-.124.008-.557.144-.615.246Z"/>
  <path class="cls-4" d="M23.808,5.172c.112.049.491.372.571.483.513.71.087,1.8-.553,2.312-.636.509-1.932.311-2.333-.459-.462-.889-.031-2.739,1.237-2.537.074.012.128.079.232.093.312.043.505-.042.845.108ZM22.352,7.277c.142.13.613.135.801.11.329-.044.648-.684.628-1-.017-.26-.349-.496-.588-.531-.153-.022-.715.01-.835.085-.29.183-.272,1.092-.005,1.336Z"/>
  <path class="cls-2" d="M38.239,8.887c.058-.102.491-.238.615-.246.082-.005.617.046.666.068.211.095.526.63.508.875-.053.738-.978.946-1.555.636-.373-.201-.432-.985-.235-1.332Z"/>
  <path class="cls-2" d="M22.352,7.277c-.266-.243-.285-1.153.005-1.336.12-.076.682-.107.835-.085.238.034.57.271.588.531.021.316-.299.956-.628,1-.188.025-.659.02-.801-.11Z"/>
  <g>
    <g>
      <path class="cls-1" d="M.046,37.895l1.561-.901c1.64-1.303,3.707-2.135,4.94-3.917,1.073-1.551,1.551-3.669,2.604-5.224.444-.656,1.045-1.329,1.599-1.894,2.341-2.391,5.01-4.394,7.219-6.91.876-.997,1.651-2.089,2.514-3.084.538-.619,1.251-.347,1.204.497-.062,1.113-.643,1.918-1.108,2.849-.179.358-.337.784-.524,1.139-.64,1.217-1.431,2.257-2.161,3.409-.053.084-.248.274-.289.374-.087.213-.114.446-.101.676.333.244.796.036,1.149-.101.806-.313,1.761-.848,2.529-1.269,3.078-1.687,5.926-3.841,8.733-6.034.708-.553,2.059-2,2.896-2.13.503-.078.552.065.533.533-.046,1.153-1.322,2.567-1.981,3.476-.376.519-.713,1.01-1.106,1.519-1.259,1.63-2.54,3.236-3.839,4.835-.119.146-.585.583-.634.699-.048.116.007.321-.013.453.655.069,1.268-.233,1.851-.495,1.965-.883,3.959-2.589,5.617-3.961,1.285-1.063,2.497-2.181,3.704-3.344.279-.469.801-.665,1.257-.931.987.161.219,1.567-.081,2.097-.295.521-.724.927-1.106,1.377-1.282,1.512-2.559,3.059-3.884,4.534-1.096,1.22-2.161,2.429-3.226,3.672-.2.234-.674.51-.525.849.073.167.561.132.722.09.852-.223,2.533-1.163,3.322-1.645.048-.029.056-.075.097-.101,1.712-1.082,3.285-2.39,4.943-3.535.462-.319.947-.732,1.5-.925.194-.068.428-.151.595.003.572.528-.435,1.883-.788,2.358-1.056,1.421-2.42,2.559-3.707,3.746-1.301,1.2-2.718,2.385-3.976,3.619-.107.105-.808.834-.826.892-.109.36.204.494.512.419.29-.07,1.145-.554,1.46-.723.832-.445,1.677-.937,2.492-1.386.26-.143.517-.338.766-.475.235-.129.513-.184.764-.272.906.427.387,1.181-.08,1.734-.274.325-.51.416-.687.858-.023.059-.09.13.011.182-.788.762-1.601,1.399-2.508,2.043-3.812,2.708-7.927,5.177-12.389,6.629-2.157.702-4.383,1.285-6.42,2.288H.046c-.001-2.863.001-5.728,0-8.591Z"/>
      <path d="M31.905,15.093c.263-.125.542-.225.802-.289.188-.047.329-.135.559-.081.031.007.035.068.05.073.332.114.568.254.631.648.081.511-.042.953-.229,1.414-.288.709-.742,1.337-1.161,1.951-.71,1.039-1.439,2.025-2.232,3.028-.976,1.235-2.001,2.508-2.989,3.734-.076.095-.364.332-.398.413-.036.086.046.078.104.058.996-.345,1.882-1.103,2.791-1.623.062-.035.138-.02.122-.131.142-.017.603-.415.697-.557.072-.021.11-.037.174-.078.089-.057.246-.218.337-.294h.046c.026-.004.036-.04.046-.046.943-.564,3.009-2.266,3.669-3.112.264-.152.518-.357.752-.561.136-.119.319-.303.409-.461.166-.139.346-.367.464-.464.27-.223,1.242-.97,1.512-1.019.48-.086.975.236,1.089.694.009.037.046.176.046.186.004.045,0,.093,0,.139.001.138-.02.497-.048.618-.007.033-.075.025-.088.067-.254.826-.604,1.401-1.121,2.065-.195.25-.527.496-.647.826l-.117.043c-.677.745-1.281,1.554-1.926,2.325-.623.745-1.204,1.514-1.93,2.155l-1.878,2.117-.073.02-.856.979c-.007.035.044.029.07.024.536-.118,1.605-.813,2.113-1.115,1.323-.789,2.681-1.785,3.911-2.696.548-.407,1.031-.87,1.616-1.251.271-.177.549-.361.836-.511.58-.304,1.216-.594,1.858-.279.444.585.497.972.232,1.672-.267.707-1.034,1.735-1.533,2.322-.96,1.131-2.115,2.064-3.204,3.065-.933.858-1.867,1.697-2.809,2.555-.06.055-.115.093-.117.185-.141-.002-.559.367-.627.51.281-.109.513-.316.767-.463.817-.476,1.679-.932,2.5-1.388.435-.242.995-.431,1.494-.376.24.026.523.29.644.494.512.865-.48,1.788-1.034,2.343-.116.116-.331.467-.481.495-.077.014-.173-.057-.244.011-.101-.052-.034-.124-.011-.182.177-.442.413-.534.687-.858.467-.553.986-1.307.08-1.734-.251.088-.529.143-.764.272-.249.137-.506.332-.766.475-.815.448-1.66.941-2.492,1.386-.315.169-1.17.652-1.46.723-.308.075-.621-.059-.512-.419.018-.058.718-.787.826-.892,1.257-1.234,2.675-2.419,3.976-3.619,1.287-1.187,2.651-2.324,3.707-3.746.353-.475,1.36-1.83.788-2.358-.167-.154-.401-.071-.595-.003-.553.193-1.039.606-1.5.925-1.658,1.145-3.23,2.454-4.943,3.535-.041.026-.05.072-.097.101-.788.483-2.47,1.422-3.322,1.645-.161.042-.649.078-.722-.09-.148-.339.325-.616.525-.849,1.065-1.243,2.13-2.452,3.226-3.672,1.325-1.474,2.601-3.022,3.884-4.534.382-.45.811-.855,1.106-1.377.3-.53,1.067-1.935.081-2.097-.455.266-.978.463-1.257.931-1.207,1.163-2.419,2.281-3.704,3.344-1.657,1.372-3.651,3.078-5.617,3.961-.583.262-1.196.563-1.851.495.02-.132-.035-.337.013-.453.049-.117.515-.554.634-.699,1.299-1.599,2.58-3.205,3.839-4.835.393-.508.73-.999,1.106-1.519.659-.909,1.935-2.323,1.981-3.476.019-.468-.03-.611-.533-.533-.837.13-2.188,1.577-2.896,2.13-2.807,2.193-5.656,4.347-8.733,6.034-.768.421-1.723.956-2.529,1.269-.354.137-.816.345-1.149.101-.014-.23.014-.462.101-.676.041-.1.236-.29.289-.374.73-1.152,1.521-2.192,2.161-3.409.186-.355.345-.781.524-1.139.465-.931,1.046-1.736,1.108-2.849.047-.844-.666-1.116-1.204-.497-.864.994-1.639,2.087-2.514,3.084-2.21,2.515-4.878,4.519-7.219,6.91-.554.566-1.155,1.238-1.599,1.894-1.053,1.556-1.531,3.674-2.604,5.224-1.233,1.782-3.299,2.614-4.94,3.917l-1.561.901c0-.324,0-.651,0-.975.182.034.369-.197.503-.274,1.296-.74,2.721-1.616,3.923-2.475,1.946-1.39,2.412-3.137,3.381-5.201,1.226-2.61,3.808-4.795,5.939-6.725,2.02-1.829,3.709-3.525,5.477-5.609.282-.333.584-.858.854-1.156.165-.182.602-.363.844-.387.113-.011.404-.019.502.01.033.01.469.448.495.49.786,1.275-.177,2.756-.747,3.827-.626,1.175-1.324,2.42-2.129,3.51l-.604,1.219c.274-.149.578-.24.86-.37,2.482-1.145,4.847-2.664,7.044-4.23l.501-.462c.043.009.073-.038.093-.046.294-.116.63-.452.882-.65.155-.122.28-.259.418-.372.246-.2.51-.357.743-.557.149-.035.308-.144.428-.235.309-.235,1.494-1.265,1.616-1.483.135-.096.296-.179.429-.281.132-.1.263-.271.407-.37Z"/>
      <path class="cls-3" d="M33.484,33.902c.01,0,.089.07.139.046-.254.148-.486.354-.767.463.069-.143.487-.512.627-.51Z"/>
    </g>
    <g>
      <path class="cls-9" d="M36.874,12.725c.015-.001.031,0,.046,0l.099,1.665c.253.105.539.029.805.054.695.066,1.364.308,1.983.62.066.033.158.005.131.122-.662.274-1.607.532-2.312.73-1.292.363-2.616.595-3.911.942.187-.46.31-.903.229-1.414-.062-.394-.299-.534-.631-.648-.015-.005-.018-.065-.05-.073-.23-.055-.37.034-.559.081-.259.064-.538.164-.802.289-.302.143-.675.361-.836.65-.805.571-1.313,1.091-2.043,1.718-.233.2-.497.357-.743.557-.882.19-1.778.431-2.626.741-.081.029-.557.212-.578.235-.101.108.254.137.3.141.505.039,1.007-.072,1.511-.048l-.501.462c-2.197,1.566-4.562,3.085-7.044,4.23-.282.13-.586.221-.86.37l.604-1.219c.805-1.09,1.504-2.335,2.129-3.51.57-1.07,1.533-2.552.747-3.827-.026-.042-.462-.48-.495-.49-.098-.029-.388-.021-.502-.01-.242.024-.679.205-.844.387-.27.298-.571.823-.854,1.156-1.768,2.084-3.457,3.781-5.477,5.609-.205-.733-.444-1.452-.552-2.211-.187-1.321-.207-2.464.326-3.703.116-.27.78-1.556,1.015-1.609.644.08,1.278.325,1.928.371,1.353.096,3.063.017,4.399-.197,2.309-.37,4.681-.967,6.985-1.282,1.074-.147,2.164-.137,3.244-.239,1.908-.18,3.829-.522,5.736-.65Z"/>
      <path class="cls-7" d="M14.629,14.536c1.088-1.184,3.639-2.417,5.273-2.324,1.035.059,1.993.405,2.954.761.142.053.679.35.782.289l.748-2.03c1.367-3.132,4.708-4.702,8.094-4.4,1.96.175,3.207,1.503,3.867,3.285.308.831.487,1.721.527,2.608-1.907.128-3.828.47-5.736.65-1.08.102-2.17.092-3.244.239-2.304.315-4.676.912-6.985,1.282-1.337.214-3.047.293-4.399.197-.65-.046-1.283-.291-1.928-.371.02-.041.029-.166.046-.186Z"/>
      <path class="cls-10" d="M41.75,21.223c-.007.043.01.103,0,.139-.043.159-.445.855-.557,1.036-.025.04-.09.029-.092.033-.059.09.046.086.071.112.293.312.622.57.848.941,1.736,2.842,1.354,6.86-2.254,7.759-.08.02-.163.011-.245.011.061.259.144.556.181.817.222,1.564-.042,2.36-.951,3.59-.692.936-1.674,1.42-2.795,1.71-.309.08-1.058.272-1.341.288-.198.011-.414-.115-.621-.09.907-.644,1.719-1.282,2.508-2.043.071-.068.167.003.244-.011.15-.028.365-.379.481-.495.554-.556,1.545-1.479,1.034-2.343-.121-.204-.404-.468-.644-.494-.288-.105-.309-.423-.534-.604-.209-.167-.575-.182-.673-.418,1.089-1.001,2.244-1.934,3.204-3.065.545-.059,1.762-.815,1.761-1.41,0-.285-.127-.647-.229-.912.265-.7.211-1.087-.232-1.672-.01-.013-.002-.064-.025-.092-.116-.144-.194-.146-.332-.202-.016-.006-.016-.068-.048-.076-.202-.05-.505.023-.693.11l-.76.539c-.287.15-.565.334-.836.511l-2.972-.232c.645-.772,1.249-1.58,1.926-2.325l.117-.043c1.007-.302,2.163-.365,3.159-.625.441-.115.839-.388,1.299-.443Z"/>
      <path class="cls-11" d="M40.032,15.093c-.023.103.056.099.115.138.615.416,1.274.758,1.695,1.382.569.843.627,1.752.465,2.752-.007.042-.044.079-.046.093-.027-.21-.329-.265-.501-.311-.589-.156-1.372-.263-1.984-.338-.199-.024-.4.05-.58-.093,0-.046.004-.094,0-.139l-.046-.186c-.114-.457-.608-.78-1.089-.694-.27.049-1.242.796-1.512,1.019l-3.994.093c.419-.614.873-1.241,1.161-1.951,1.295-.347,2.619-.579,3.911-.942.705-.198,1.65-.456,2.312-.73.028-.012.064-.08.093-.093Z"/>
      <path class="cls-1" d="M40.032,15.093c-.029.013-.065.081-.093.093.027-.117-.065-.089-.131-.122-.619-.312-1.288-.554-1.983-.62-.266-.025-.552.052-.805-.054l-.099-1.665c1.062-.067,2.699-.172,3.572.538.508.413.633,1.214.048,1.618-.16.11-.349.139-.508.212Z"/>
      <path class="cls-1" d="M42.307,19.366l.415.212c.983.845-.126,1.595-.972,1.785.01-.037-.007-.097,0-.139l.088-.085c.267-.529.324-1.109.423-1.68.002-.014.04-.051.046-.093Z"/>
      <path class="cls-9" d="M28.282,18.019c-.138.112-.263.25-.418.372-.049-.089-.157-.044-.229-.02-.453.151-.905.402-1.374.53l-.022.093.743.047c-.02.008-.049.055-.093.046-.504-.023-1.006.087-1.511.048-.046-.004-.4-.033-.3-.141.021-.023.498-.206.578-.235.848-.31,1.744-.551,2.626-.741Z"/>
      <path class="cls-5" d="M31.905,15.093c-.144.099-.276.269-.407.37-.133.101-.294.185-.429.281-.122.218-1.307,1.248-1.616,1.483-.12.091-.279.2-.428.235.73-.627,1.238-1.147,2.043-1.718.161-.289.534-.507.836-.65Z"/>
      <path class="cls-9" d="M42.261,19.459c-.099.571-.156,1.15-.423,1.68l-.088.085c-.46.055-.858.328-1.299.443-.997.26-2.153.323-3.159.625.121-.33.453-.576.647-.826.517-.663.867-1.239,1.121-2.065.013-.042.081-.034.088-.067.027-.121.049-.48.048-.618.18.143.381.069.58.093.611.075,1.395.182,1.984.338.173.046.475.101.501.311Z"/>
      <path class="cls-9" d="M38.221,24.892c-.584.381-1.067.844-1.616,1.251-1.23.911-2.587,1.907-3.911,2.696l-1.254.093,1.878-2.117c.726-.641,1.307-1.41,1.93-2.155l2.972.232Z"/>
      <path class="cls-9" d="M37.617,32.183c-.5-.054-1.059.135-1.494.376-.821.456-1.682.913-2.5,1.388-.05.024-.129-.046-.139-.046.002-.092.057-.13.117-.185.942-.857,1.876-1.697,2.809-2.555.099.236.465.251.673.418.225.18.246.499.534.604Z"/>
      <path class="cls-9" d="M39.614,28.097c.498-.587,1.265-1.615,1.533-2.322.101.265.229.627.229.912,0,.595-1.217,1.351-1.761,1.41Z"/>
      <path class="cls-6" d="M39.057,24.381l.76-.539c.188-.087.491-.159.693-.11.031.008.032.07.048.076.138.056.216.058.332.202.023.028.014.079.025.092-.641-.315-1.278-.025-1.858.279Z"/>
      <path class="cls-9" d="M36.549,18.716c-.118.097-.299.325-.464.464-.461.388-.787.543-1.161,1.022-1.257.727-2.51,2.27-3.762,3.112-.377.062-1.942.467-2.09.767-.042.086.184.108.232.116.111.018.593.1.65.093.016.111-.061.096-.122.131-.909.519-1.796,1.278-2.791,1.623-.059.02-.14.028-.104-.058.034-.082.322-.318.398-.413.987-1.226,2.013-2.499,2.989-3.734.793-1.003,1.522-1.989,2.232-3.028l3.994-.093Z"/>
      <path class="cls-9" d="M39.196,18.576c0-.01-.037-.148-.046-.186l.046.186Z"/>
      <path class="cls-9" d="M32.694,28.84c-.508.303-1.576.998-2.113,1.115-.025.006-.077.011-.07-.024l.856-.979.073-.02,1.254-.093Z"/>
      <path d="M36.084,19.18c-.091.158-.273.342-.409.461-.233.204-.488.408-.752.561-.659.846-2.726,2.548-3.669,3.112l-.046.046h-.046v-.046c1.252-.842,2.504-2.384,3.762-3.112.374-.479.7-.634,1.161-1.022Z"/>
      <path class="cls-9" d="M31.162,23.313v.046c-.091.076-.248.237-.337.294-.064.041-.102.057-.174.078-.254.072-.592.121-.849.188-.037.01-.029.08-.066.089-.109.028-.426-.016-.432.188-.048-.008-.274-.03-.232-.116.148-.3,1.713-.705,2.09-.767Z"/>
      <path class="cls-9" d="M27.864,18.39c-.252.198-.589.534-.882.65l-.743-.047.022-.093c.469-.128.922-.379,1.374-.53.072-.024.18-.069.229.02Z"/>
      <path class="cls-9" d="M30.651,23.731c-.093.143-.554.54-.697.557-.057.007-.539-.075-.65-.093.006-.204.322-.159.432-.188.037-.01.029-.08.066-.089.257-.066.596-.115.849-.188Z"/>
      <path class="cls-9" d="M31.208,23.36l.046-.046c-.01.006-.021.043-.046.046Z"/>
    </g>
    <g>
      <path class="cls-1" d="M14.629,14.536c-.018.019-.026.145-.046.186-.235.053-.899,1.339-1.015,1.609-.533,1.239-.513,2.382-.326,3.703.107.759.347,1.478.552,2.211-2.132,1.93-4.714,4.115-5.939,6.725-.969,2.064-1.435,3.811-3.381,5.201-1.202.859-2.628,1.735-3.923,2.475-.134.077-.32.307-.503.274-.002-5.046,0-10.094,0-15.14.4-.227.803-.482,1.176-.752,1.395-1.011,3.139-2.825,4.092-4.268,1.087-1.646,2.119-3.328,3.194-4.98.819-1.26,1.633-2.461,2.661-3.562,1.405-1.506,3.058-2.854,4.631-4.182.677-.572,1.557-1.663,2.524-1.578.305.027.587.262.726.527.648,1.225-.205,2.734-.791,3.825-.692,1.288-1.503,2.616-2.246,3.884-.544.928-1.303,1.793-1.472,2.894-.038.248-.152.816.087.946ZM9.413,20.773c-.622-.461-1.601.064-1.815.733-.388,1.214.34,2.679,1.713,2.692,1.35.013,2.14-2.068.986-2.897-.311-.223-.557-.287-.884-.529Z"/>
      <g>
        <path class="cls-12" d="M9.413,20.773c.327.242.573.306.884.529,1.155.829.364,2.91-.986,2.897-1.373-.013-2.102-1.478-1.713-2.692.214-.67,1.193-1.195,1.815-.733ZM9.692,23.159c.172-.157.33-.665.242-.886-.208-.524-1.078-.556-1.522-.347-.111.66.273,1.446,1.036,1.337.064-.009.197-.062.244-.104Z"/>
        <path class="cls-1" d="M9.692,23.159c-.047.043-.18.095-.244.104-.763.108-1.147-.677-1.036-1.337.444-.21,1.314-.177,1.522.347.088.221-.07.73-.242.886Z"/>
      </g>
    </g>
  </g>
</svg>