<?xml version="1.0" encoding="UTF-8" standalone="no"?>
<svg
   id="Layer_1"
   data-name="Layer 1"
   viewBox="0 0 380.891 175.693"
   version="1.1"
   sodipodi:docname="background_02.svg"
   inkscape:version="1.4.2 (1:1.4.2+202505120737+ebf0e940d0)"
   xmlns:inkscape="http://www.inkscape.org/namespaces/inkscape"
   xmlns:sodipodi="http://sodipodi.sourceforge.net/DTD/sodipodi-0.dtd"
   xmlns="http://www.w3.org/2000/svg"
   xmlns:svg="http://www.w3.org/2000/svg">
  <sodipodi:namedview
     id="namedview14"
     pagecolor="#505050"
     bordercolor="#eeeeee"
     borderopacity="1"
     inkscape:showpageshadow="0"
     inkscape:pageopacity="0"
     inkscape:pagecheckerboard="0"
     inkscape:deskcolor="#d1d1d1"
     inkscape:zoom="2.8627544"
     inkscape:cx="182.69119"
     inkscape:cy="69.862787"
     inkscape:window-width="1920"
     inkscape:window-height="1009"
     inkscape:window-x="0"
     inkscape:window-y="0"
     inkscape:window-maximized="1"
     inkscape:current-layer="g13" />
  <defs
     id="defs2">
    <style
       id="style1">
      .cls-1 {
        fill: none;
      }

      .cls-2 {
        clip-path: url(#clippath-1);
      }

      .cls-3, .cls-4 {
        opacity: .2;
      }

      .cls-5 {
        fill: #b2d5e8;
      }

      .cls-6, .cls-4 {
        fill: #0072b2;
      }
    </style>
    <clipPath
       id="clippath">
      <rect
         class="cls-1"
         x="-530.872"
         width="453.631"
         height="255.259"
         id="rect1" />
    </clipPath>
    <clipPath
       id="clippath-1">
      <rect
         class="cls-1"
         width="380.891"
         height="175.693"
         id="rect2" />
    </clipPath>
  </defs>
  <g
     class="cls-2"
     clip-path="url(#clippath-1)"
     id="g14">
    <g
       id="g13">
      <rect
         class="cls-5"
         width="380.891"
         height="175.693"
         id="rect3"
         style="fill:#d7eef4" />
      <g
         class="cls-3"
         id="g7"
         style="fill:#5fbcd3">
        <path
           class="cls-6"
           d="M309.563-30.622c-12.187,9.793-27.58,22.911-19.091,38.488,10.822,19.858,32.975-4.055,41.118-14.095,4.963-6.118,17.37-20.626,15.879-28.993-1.395-7.829-8.786-12.784-16.562-10.921-.146.035-.279.068-.417.103-5.653,1.439-10.806,4.435-14.83,8.658-2.754,2.891-5.107,5.744-6.098,6.76Z"
           id="path3"
           style="fill:#5fbcd3" />
        <path
           class="cls-6"
           d="M330.058-5.145l-.455,1.059c1.038,1.065,2.107,2.374,3.261,3.302,1.128.908,2.608,1.501,3.679,2.532.27.052,1.287-1.826,1.979-2.132,1.142-.505,2.084.693,1.502,1.723-.321.57-1.332,1.564-1.795,2.195-.544.741-1.855,3.111-2.734,3.194-1.325.125.373-2.706.03-3.005-1.278-.519-2.395-1.458-3.609-2.074-.971-.492-3.385-1.433-4.41-1.658-.181-.04-.498-.127-.657-.048-.148.074-1.309,1.213-1.301,1.332.599,1.404,2.014,2.855,2.463,4.272.572,1.806-1.676,2.913-2.86,1.246-.451-.635-2.066-3.758-2.44-3.956-.3-.159-1.808.709-2.331.706"
           id="path4"
           style="fill:#5fbcd3" />
        <path
           class="cls-6"
           d="M319.959,3.98c-.32.113-.702,1.811-1.059,2.193.143.561,2.413,3.821,2.886,4.317,1.124,1.179,1.961,2.584,3.209,3.711.236.213.653.72.96.657.445-.091,1.326-1.662,2.042-1.696,1.395-.066,1.041,1.371.632,2.201-.499,1.013-3.264,3.628-4.294,4.122-.957.46-2.021-.023-1.699-1.147.205-.716.899-1.278,1.423-1.769-1.112-.486-1.949-1.389-2.932-2.071-2.082-1.444-4.576-2.53-6.913-3.493l-1.749.975c.032,1.38,1.283,4.679.711,5.847-.503,1.028-1.758.917-2.295-.059-.401-.728-1.132-4.771-1.335-4.926"
           id="path5"
           style="fill:#5fbcd3" />
        <path
           class="cls-6"
           d="M307.997,13.499l-3.197,2.078c-.372,1.44-.936,3.033-1.131,4.501-.191,1.436.07,3.009-.256,4.459.096.257,2.228.153,2.849.585,1.024.714.489,2.141-.694,2.178-.654.021-2.029-.327-2.807-.396-.916-.08-3.622.028-4.149-.68-.794-1.068,2.507-1.085,2.585-1.533-.219-1.362.004-2.804-.1-4.161-.083-1.085-.531-3.637-.871-4.63-.06-.175-.149-.492-.3-.587-.14-.088-1.716-.489-1.813-.421-.889,1.241-1.395,3.203-2.374,4.322-1.247,1.426-3.36.078-2.55-1.798.309-.715,2.141-3.716,2.116-4.138-.02-.339-1.544-1.178-1.813-1.626"
           id="path6"
           style="fill:#5fbcd3" />
        <path
           class="cls-6"
           d="M293.469,11.169c.018-.339-1.403-1.343-1.62-1.819-.573-.083-4.454.764-5.094,1.01-1.52.586-3.138.82-4.658,1.541-.287.136-.916.327-.975.635-.086.446,1.027,1.862.783,2.536-.474,1.313-1.665.436-2.275-.26-.744-.849-2.099-4.406-2.161-5.546-.058-1.06.796-1.858,1.71-1.13.582.464.836,1.321,1.088,1.992.876-.841,2.031-1.268,3.037-1.914,2.132-1.369,4.091-3.256,5.877-5.046l-.23-1.989c-1.287-.499-4.813-.609-5.673-1.585-.757-.859-.173-1.975.935-2.097.826-.091,4.841.784,5.061.655"
           id="path7"
           style="fill:#5fbcd3" />
      </g>
      <path
         class="cls-4"
         d="M102.697,14.91s4.071.672,4.708-.396.052-2.659-2.76-2.597c-2.812.062-4.609-.273-6.459-1.162-1.851-.89-6.31-1.775-10.582-6.559-3.704-4.148-5.374-8.516-6.083-11.018-.137-.485-.839-.43-.904.07-.186,1.429-.258,3.352.274,5.092,1.008,3.301,5.12,10.611,8.208,12.846,3.087,2.235,8.164,3.076,13.6,3.724Z"
         id="path8"
         style="fill:#5fbcd3" />
      <circle
         class="cls-4"
         cx="195.264"
         cy="17.233"
         r="3.256"
         id="circle8"
         style="fill:#5fbcd3" />
      <circle
         class="cls-4"
         cx="64.861"
         cy="34.112"
         r="3.256"
         id="circle9"
         style="fill:#87cdde" />
      <circle
         class="cls-4"
         cx="225.55"
         cy="176.582"
         r="5.156"
         id="circle10"
         style="fill:#5fbcd3" />
      <circle
         class="cls-4"
         cx="314.579"
         cy="104.452"
         r="3.256"
         id="circle11"
         style="fill:#5fbcd3" />
      <circle
         class="cls-4"
         cx="22.022"
         cy="70.038"
         r="3.256"
         id="circle12"
         style="fill:#5fbcd3" />
      <path
         class="cls-4"
         d="M382.946,141.944s-5.636-4.753-16.073,6.119c-10.437,10.872-20.762,5.219-32.017,2.174-11.255-3.044-21.692.294-26.259,2.539-4.566,2.245-12.373,7.342-13.552,17.249-1.607,13.503,14.752,33.194,39.81,20.837,25.059-12.357,23.319-19.533,32.887-19.75,9.568-.217,29.32-15.935,15.204-29.168Z"
         id="path12"
         style="fill:#5fbcd3" />
      <path
         class="cls-4"
         d="M-7.022,176.375c-.082-.238.157-.413.221-.628,2.025-6.795,2.383-13.355,7.677-18.715,1.626-1.647,3.863-3.413,5.853-4.589,1.279-.756,2.563-1.107,3.581-2.3,1.452-1.701,2.037-2.697,4.11-3.816,2.446-1.321,5.41-.706,8.002-1.038.834-.107,1.741-.512,2.574-.641,1.049-.162,3.637.376,4.773.62,1.831.394,3.421.976,5.084,1.856.737.39,2.191,1.342,1.189,2.232-.894.794-2.899,1.019-4.037,1.394-6.339,2.092-13.494,6.778-18.416,11.276-3.198,2.923-6.591,7.84-8.142,11.885-1.526,3.98-.74,9.623,1.553,13.173,4.873,7.542,13.717,9.634,21.333,13.317,2.337,1.13,4.998,2.516,6.672,4.53.663.798,2.458,2.858.082,2.368-1.118-.23-2.171-.766-3.278-1.023-1.508-.35-2.509-.143-3.963-.121-1.33.02-2.726-.155-4.017-.109-1.633.059-3.34.632-4.992.092-2.367-.775-3.628-3.493-5.609-4.838-1.549-1.051-3.808-.99-5.558-1.708-1.994-.818-4.919-2.26-5.809-4.318-.725-1.676-.67-2.562-1.869-4.202-1.695-2.319-3.702-4.474-4.826-7.104-.72-1.683-1.438-3.441-1.874-5.227-.147-.603-.056-1.902-.146-2.158-.024-.069-.142-.128-.17-.211ZM26.062,146.605c.03.092.033.153.151.173l2.385-.84-2.52-.503c-.116.052-.062,1.027-.015,1.171ZM25.091,145.476c-.151.006-1.909.451-1.982.523-.156.153.132,1.159.192,1.415l2.05-.477.012-1.382c-.084-.086-.162-.083-.272-.079ZM26.924,150.035c.588,1.237,1.788-.435,1.345-.912-.524-.565-1.781-.004-1.345.912ZM20.148,146.216l.485,1.875,1.958-.507-.155-1.406c-.048-.104-2.013-.018-2.289.038ZM18.22,146.254c-.184.009-1.162.046-1.207.18l.897,2.673,2.031-.728-.435-2.031c-.098-.179-1.047-.106-1.286-.094ZM21.753,151.451c.488.056,1.077-.842.615-1.297-.862-.846-1.686,1.174-.615,1.297ZM16.598,147.737l-.175-1.155c-.415-.172-1.97.588-2.322.928l1.081,2.977,2.116-1.186-.701-1.563ZM10.992,150.563l.931,1.704,2.649-1.45c-.242-.664-.532-1.311-.769-1.977-.114-.319-.095-.735-.386-.956-.969.734-1.792,1.633-2.425,2.679ZM15.682,155.376c-.206.514.567,1.151,1.037.976.481-.178,1.215-.928.702-1.415-.738-.701-1.381-.452-1.739.438ZM8.892,154.465l2.36-1.761-.787-1.483-2.232,1.386c.256.596.363,1.253.659,1.858ZM11.315,155.505c-.315.481-.292,1.978.556,1.737.505-.143,1.227-1.488.753-1.898-.319-.276-1.07-.205-1.309.161ZM8.341,154.836c.027-.124-.457-1.006-.525-1.238-.117-.131.016-.748-.133-.763-.251-.027-2.017,1.246-2.365,1.448.137.281,1.457,1.929,1.586,1.906.218-.39,1.36-.997,1.437-1.352ZM2.646,156.467l1.756,2.237,1.865-2.066-1.671-1.915-1.951,1.744ZM6.676,160.147c-.24.082-.866.593-.977.822-.382.786-.089,2.065.768,2.423.433.181,1.206-.055,1.49-.425.728-.95.877-2.016-.3-2.652-.199-.108-.765-.24-.98-.167ZM-.246,159.388l2.523,1.96c.378-.786,1.095-1.361,1.495-2.116l-1.758-2.321-2.261,2.476ZM-2.397,162.926c.986.283,1.632,1.135,2.429,1.724l1.699-2.708c-.861-.607-1.512-1.472-2.47-1.936-.732.855-1.178,1.912-1.657,2.92ZM-4.024,167.326l2.451.908,1.272-2.873c-.853-.521-1.598-1.225-2.309-1.925l-1.413,3.89ZM-4.914,171.254l2.321.839.816-3.056-2.379-.879-.758,3.095ZM-6.165,175.787l3,.247.426-3.105c-.076-.228-1.972-.714-2.307-.84l-1.119,3.698ZM-3.167,179.431l.008-2.667c-1.021.01-2.032-.302-3.051-.13-.109.956.087,2.006.397,2.911.054.158.205.662.364.664.695-.437,1.498-.604,2.282-.778ZM1.52,181.522c-.614.048-1.18,1.207-.145,1.459.562.137,1.273-.832.925-1.209-.147-.16-.571-.267-.78-.25ZM-2.431,182.804l-.661-2.629c-.783.154-1.539.402-2.243.784-.056.145.544,1.637.656,1.89.073.163.335.876.509.86l1.738-.905ZM-.752,186.22c-.321-.398-.549-.864-.785-1.313-.129-.245-.482-1.302-.744-1.296-.081.002-1.431.588-1.497.64-.067.053-.133.051-.13.167.004.173,1.686,2.976,1.853,2.927.06-.343,1.317-.954,1.304-1.126ZM25.685,205.374l.162.082,4.474-.225-3.939-1.16-.697,1.303ZM1.554,189.229l-1.98-2.329c-.257.197-1.245.744-1.225,1.056.01.164,1.936,2.566,2.094,2.522l1.11-1.248ZM11.444,195.598c.435.805,1.517-.313.922-.804-.506-.417-1.201.287-.922.804ZM21.891,203.566c-.157.421-.504,1.393-.569,1.796-.013.079-.051.151.003.229l3.895-.189c.13-.44.368-.893.504-1.32.027-.085.065-.149-.006-.229l-3.481-1.078c-.069.023-.296.657-.346.792ZM.789,191.131c.471.562.804,1.248,1.071,1.925.069.176.067.557.271.614.097.006.139-.053.201-.111.187-.177,1.468-1.614,1.454-1.726l-1.855-2.014-1.142,1.313ZM16.969,203.666c-.042.105-.081.243-.029.349.097.199.871.89,1.084,1.026.74.472,1.661.64,2.525.633l1.065-3.095-3.506-1.265c-.36.768-.827,1.566-1.138,2.351ZM6.628,194.447l-2.287-1.968-1.821,1.844c-.293.291-.002.786.173,1.087.442.759,1.165,1.365,1.905,1.829l2.029-2.792ZM16.405,203.381l1.189-2.294-2.894-1.416c-.153.013-.927,1.153-.908,1.234l2.613,2.475ZM5.069,197.519c.401.262,3.25,1.729,3.484,1.615l1.286-2.133-2.685-2.059c-.654.884-1.272,1.836-2.086,2.578ZM9.213,199.267c.873.377,1.853.414,2.773.715.466.153.926.371,1.371.577l.681-1.141c-.569-.382-1.308-.534-1.897-.856-.616-.338-1.15-.874-1.807-1.174l-1.122,1.879Z"
         id="path13"
         style="fill:#5fbcd3" />
      <path
         style="fill:#d7eef4;stroke:#d7eef4;stroke-width:0.338432;stroke-linecap:round;stroke-miterlimit:3.5"
         d="m 5.2815227,175.06012 c 0,-0.71381 1.6271424,-4.15587 2.9455658,-6.23105 2.9262105,-4.60581 6.4736135,-8.06423 12.3672515,-12.05704 4.006321,-2.71419 7.989553,-4.69745 12.182169,-6.06553 3.151357,-1.0283 3.42498,-1.18033 3.514107,-1.95237 0.08343,-0.72271 -0.126206,-0.96452 -1.532492,-1.76768 -1.637953,-0.93548 -5.118566,-2.00223 -7.743137,-2.37316 -0.861146,-0.12171 -2.340819,-0.008 -3.792705,0.29218 -1.30937,0.27046 -3.400154,0.49311 -4.646185,0.49478 -3.048974,0.004 -4.725668,0.82102 -7.709222,3.75617 -1.2853126,1.26445 -3.2271776,2.78833 -4.3152554,3.38638 -1.0880776,0.59806 -3.0073149,1.96529 -4.2649714,3.0383 L 0,157.53201 V 78.766008 0 H 40.677664 81.35533 l 1.142474,2.2524141 c 2.807568,5.5351741 5.573992,8.7925639 8.629154,10.1605969 3.873661,1.73454 13.167902,3.284474 15.671932,2.613497 1.02775,-0.275394 1.25412,-1.557628 0.42191,-2.389836 -0.55372,-0.553721 -1.17838,-0.700372 -3.70685,-0.870248 -2.59869,-0.174594 -3.51282,-0.397818 -6.286007,-1.534989 C 93.017706,8.5049861 90.917707,7.2543644 88.90933,5.2774193 87.310452,3.7035616 84.815041,0.61099066 84.815041,0.20335242 c 0,-0.11341141 44.912359,-0.16414814 99.805249,-0.11274827 82.57211,0.07731773 100.10028,0.16598126 101.51397,0.5134925 0.9398,0.23102105 1.7559,0.45814205 1.81356,0.50471345 0.0577,0.046571 0.22527,0.6186251 0.37245,1.2712306 0.22826,1.0120623 0.16715,1.2943243 -0.41551,1.9193863 -0.98289,1.0543995 -4.15073,3.4861206 -5.98632,4.5952593 l -1.57505,0.951713 -0.51067,-0.8897818 c -0.62772,-1.0937447 -1.31551,-1.3901536 -1.9684,-0.8483008 -0.70888,0.5883144 -0.41322,2.5711303 0.75591,5.0695073 1.09012,2.329541 2.19304,3.150042 3.0638,2.27928 0.45642,-0.456426 0.45577,-0.602342 -0.008,-1.761153 l -0.50555,-1.263496 1.02595,-0.428672 c 1.31907,-0.551141 6.23631,-1.972883 7.72869,-2.2346253 1.10452,-0.1937179 1.22811,-0.1202969 3.11171,1.8485573 l 1.9615,2.050287 -0.99956,1.942647 c -1.24672,2.423007 -1.31667,3.533948 -0.25301,4.018582 1.27493,0.580897 2.15405,-0.06487 3.26918,-2.401415 0.95615,-2.00344 1.01838,-2.063591 1.94342,-1.878582 0.52561,0.105121 1.00361,0.239091 1.06223,0.297711 0.31187,0.311869 1.02609,5.201913 1.02609,7.025289 v 2.112839 l -1.05615,0.198136 c -0.58088,0.108975 -1.21173,0.385595 -1.40188,0.614711 -0.63245,0.762051 0.44893,1.162556 4.00987,1.48512 3.64076,0.329794 4.35104,0.168818 4.35104,-0.986104 0,-0.769635 -0.60808,-1.183567 -2.08585,-1.419871 l -1.27832,-0.204413 0.14607,-2.372306 c 0.0803,-1.304768 0.37214,-3.305305 0.64845,-4.445638 0.53965,-2.227204 0.45637,-2.145374 3.53156,-3.470128 l 1.73861,-0.74897 0.52932,2.245218 c 0.58578,2.484739 0.90121,2.95984 1.96513,2.95984 1.22808,0 1.49741,-1.150387 0.92486,-3.950534 -0.48398,-2.366938 -0.48087,-2.429921 0.14471,-2.962047 0.35156,-0.299027 0.80758,-0.543686 1.01337,-0.543686 0.68324,0 6.21092,2.938024 7.84896,4.171829 l 1.61242,1.214466 -0.60271,0.766206 c -0.72192,0.917781 -0.77045,1.709818 -0.13695,2.235567 0.74202,0.615813 2.04389,-0.114668 4.19288,-2.352635 1.64836,-1.716605 1.89265,-2.121635 1.80808,-2.997849 -0.12781,-1.323991 -0.97425,-1.491826 -2.09732,-0.415858 -0.50492,0.483724 -1.0464,0.739979 -1.332,0.630375 -0.7068,-0.27122 -6.4173,-7.4935993 -6.10038,-7.7154661 0.0614,-0.042956 0.90125,-0.8106966 1.86643,-1.7060906 l 1.75486,-1.6279896 0.95372,1.6669154 c 1.34129,2.3442862 2.01953,2.9016863 3.0799,2.5311216 1.32153,-0.4618335 1.29842,-1.886756 -0.0671,-4.1346273 -1.28826,-2.1207115 -1.30799,-2.2404549 -0.49112,-2.97969884 0.59398,-0.53755961 0.68641,-0.53251572 2.56309,0.13987448 2.93333,1.05097766 6.48785,3.17119546 6.26833,3.73894826 -0.46462,1.2016906 -0.51135,2.4853345 -0.0903,2.480665 0.61921,-0.00687 0.97111,-0.3079572 1.99153,-1.7039705 0.49961,-0.6834912 1.36599,-1.7921446 1.92534,-2.4636746 0.55931,-0.6715298 1.01694,-1.5453111 1.01694,-1.94173625 V 0 h 20.34939 20.3494 l -0.002,70.446193 -0.002,70.446197 -1.99113,0.0363 c -3.5577,0.0649 -6.7611,1.94099 -12.54225,7.34552 -4.85226,4.53613 -8.13103,5.96633 -13.57805,5.92274 -3.6116,-0.0289 -5.74968,-0.46019 -12.75454,-2.57285 -7.66597,-2.31205 -9.23785,-2.59152 -14.58511,-2.59317 -3.63282,-0.001 -5.37755,0.15054 -7.91433,0.68794 -6.51081,1.37927 -11.83971,3.9529 -15.76978,7.61611 -2.85947,2.66531 -4.5274,5.08621 -5.76405,8.36619 -0.85957,2.27984 -0.9564,2.89292 -0.97624,6.1812 l -0.022,3.65034 -32.06291,1.2e-4 -32.06291,1.3e-4 -0.5177,-1.09098 c -1.94307,-4.09473 -7.64287,-4.09473 -9.58594,0 l -0.51771,1.09098 H 112.76147 c -96.019772,0 -107.4799473,-0.0504 -107.4799473,-0.47284 z M 316.05741,107.45816 c 1.70161,-0.87021 2.34043,-3.35476 1.25936,-4.89817 -1.85275,-2.64519 -6.01761,-1.32968 -6.01761,1.90072 0,0.98672 0.21021,1.44209 1.05631,2.28818 1.12937,1.12939 2.40321,1.37345 3.70194,0.70927 z M 23.854838,72.835088 c 2.763435,-1.935588 1.46651,-6.05512 -1.89822,-6.02948 -1.930468,0.01471 -3.31595,1.415436 -3.31595,3.352434 0,1.552137 1.68887,3.16192 3.317261,3.16192 0.662558,0 1.516167,-0.218195 1.896909,-0.484874 z M 67.139177,36.473245 c 2.243566,-2.149471 0.662542,-5.716142 -2.533833,-5.716142 -1.356494,0 -3.091138,1.734645 -3.091138,3.091138 0,3.163086 3.404842,4.752023 5.624971,2.625004 z M 197.61498,19.5966 c 0.74355,-0.743546 0.90814,-1.170178 0.90814,-2.353982 0,-1.183804 -0.16459,-1.610435 -0.90814,-2.353982 -0.74354,-0.743546 -1.17017,-0.908135 -2.35398,-0.908135 -1.1838,0 -1.61043,0.164589 -2.35398,0.908135 -0.74355,0.743547 -0.90814,1.170178 -0.90814,2.353982 0,1.183804 0.16459,1.610436 0.90814,2.353982 0.74355,0.743547 1.17018,0.908135 2.35398,0.908135 1.18381,0 1.61044,-0.164588 2.35398,-0.908135 z"
         id="path14" />
      <path
         style="fill:#d7eef4;stroke:#d7eef4;stroke-width:0.338432;stroke-linecap:round;stroke-miterlimit:3.5"
         d="m 358.65558,175.2578 c 0.0935,-0.15133 1.13629,-0.93535 2.31724,-1.74227 2.22678,-1.52148 4.63835,-2.31796 7.04632,-2.32721 1.68396,-0.006 4.16829,-0.7638 6.77007,-2.06382 1.85837,-0.92857 2.92655,-1.60495 5.51709,-3.49345 0.56612,-0.4127 0.58469,-0.26218 0.58469,4.73783 v 5.16408 h -11.20274 c -6.42526,0 -11.13021,-0.11734 -11.03267,-0.27516 z"
         id="path15" />
    </g>
  </g>
</svg>
