<?xml version="1.0" encoding="UTF-8"?>
<svg id="Layer_1" data-name="Layer 1" xmlns="http://www.w3.org/2000/svg" xmlns:xlink="http://www.w3.org/1999/xlink" viewBox="0 0 235.523 176.643">
  <defs>
    <style>
      .cls-1 {
        fill: none;
      }

      .cls-2, .cls-3 {
        opacity: .2;
      }

      .cls-4 {
        fill: #b2d5e8;
      }

      .cls-5, .cls-3 {
        fill: #0072b2;
      }

      .cls-6 {
        clip-path: url(#clippath);
      }
    </style>
    <clipPath id="clippath">
      <rect class="cls-1" x="-.001" y="0" width="235.526" height="176.643"/>
    </clipPath>
  </defs>
  <g class="cls-6">
    <g>
      <rect class="cls-4" x="-.001" y="0" width="235.526" height="176.643"/>
      <g class="cls-2">
        <path class="cls-5" d="M216.08-21.789c-9.797,7.873-22.172,18.419-15.348,30.941,8.7,15.964,26.509-3.26,33.056-11.331,3.989-4.919,13.964-16.582,12.765-23.308-1.122-6.294-7.063-10.277-13.314-8.779-.117.028-.224.054-.335.083-4.545,1.156-8.687,3.565-11.922,6.96-2.214,2.324-4.106,4.618-4.903,5.435Z"/>
        <path class="cls-5" d="M199.803,1.274c-.145-1.328-.076-2.638.159-3.955-.133-.426-5.025-3.386-5.864-3.465-.289.819-.46,2.042-.935,2.745-.836,1.239-2.062.579-1.928-.816.101-1.052,1.24-4.14,1.913-4.966,1.18-1.449,2.205-.456,1.521,1.086-.001.096.149.157.221.189.979.433,2.425.742,3.481,1.074.95.299,1.86.734,2.855.896l1.065-1.483c-.499-.421-.962-.957-1.453-1.373-.446-.377-2.009-1.31-2.037-1.867-.021-.404.365-.924.787-.951,1.496-.097,3.339,1.725,4.443,2.59l.794-.478"/>
        <path class="cls-5" d="M232.557-1.308l-.366.851c.834.856,1.694,1.908,2.622,2.655.907.73,2.097,1.207,2.958,2.036.217.041,1.034-1.468,1.591-1.714.918-.406,1.675.557,1.208,1.385-.258.458-1.071,1.258-1.443,1.764-.437.596-1.491,2.501-2.198,2.567-1.065.1.3-2.175.024-2.416-1.027-.417-1.925-1.172-2.901-1.667-.78-.396-2.721-1.152-3.546-1.333-.145-.032-.4-.102-.528-.038-.119.06-1.052.975-1.046,1.07.482,1.128,1.619,2.295,1.98,3.434.46,1.452-1.347,2.342-2.299,1.002-.363-.51-1.661-3.021-1.961-3.18-.241-.128-1.453.57-1.874.567"/>
        <path class="cls-5" d="M224.438,6.027c-.257.091-.565,1.456-.851,1.763.115.451,1.94,3.072,2.32,3.47.904.948,1.576,2.077,2.58,2.983.189.171.525.579.772.528.358-.073,1.066-1.336,1.642-1.363,1.121-.053.837,1.102.508,1.77-.401.814-2.624,2.916-3.452,3.314-.769.37-1.625-.019-1.366-.922.165-.575.723-1.027,1.144-1.422-.894-.391-1.567-1.117-2.357-1.665-1.673-1.161-3.679-2.034-5.558-2.808l-1.406.784c.026,1.109,1.031,3.761.572,4.7-.405.827-1.413.737-1.845-.047-.322-.585-.91-3.836-1.073-3.96"/>
        <path class="cls-5" d="M214.821,13.68l-2.57,1.67c-.299,1.157-.752,2.438-.909,3.618-.153,1.154.056,2.419-.206,3.585.077.207,1.791.123,2.29.471.823.574.393,1.721-.558,1.751-.526.017-1.631-.263-2.257-.318-.736-.064-2.912.023-3.335-.547-.638-.859,2.015-.872,2.078-1.232-.176-1.095.003-2.254-.08-3.345-.067-.873-.427-2.924-.7-3.722-.048-.141-.12-.395-.242-.472-.113-.071-1.38-.393-1.458-.339-.715.997-1.122,2.575-1.908,3.474-1.003,1.146-2.701.063-2.05-1.446.248-.575,1.721-2.987,1.701-3.327-.016-.272-1.241-.947-1.457-1.307"/>
        <path class="cls-5" d="M203.142,11.807c.014-.273-1.128-1.079-1.302-1.462-.461-.067-3.581.614-4.095.812-1.222.471-2.523.66-3.744,1.239-.231.109-.736.263-.784.51-.069.358.825,1.497.63,2.039-.381,1.056-1.339.351-1.829-.209-.598-.683-1.687-3.542-1.737-4.459-.046-.852.64-1.493,1.375-.908.468.373.672,1.062.875,1.602.704-.676,1.632-1.019,2.442-1.539,1.714-1.1,3.289-2.618,4.725-4.056l-.185-1.599c-1.035-.402-3.869-.49-4.56-1.274-.609-.691-.139-1.588.751-1.686.664-.073,3.892.63,4.069.527"/>
      </g>
      <path class="cls-3" d="M49.777,14.814s3.273.54,3.785-.319c.512-.858.042-2.137-2.219-2.088-2.261.05-3.705-.219-5.193-.934-1.488-.715-5.072-1.427-8.507-5.273-2.978-3.335-4.321-6.846-4.891-8.858-.111-.39-.674-.346-.727.056-.15,1.149-.207,2.695.22,4.094.81,2.654,4.116,8.53,6.598,10.327s6.563,2.472,10.933,2.994Z"/>
      <circle class="cls-3" cx="124.193" cy="16.682" r="2.618"/>
      <circle class="cls-3" cx="11.355" cy="35.487" r="2.618"/>
      <circle class="cls-3" cx="126.81" cy="157.146" r="4.145"/>
      <circle class="cls-3" cx="222.73" cy="92.034" r="2.618"/>
      <path class="cls-3" d="M262.436,148.835s-4.531-3.821-12.922,4.919c-8.391,8.74-16.691,4.195-25.739,1.748-9.048-2.447-17.439.236-21.11,2.041-3.671,1.805-9.947,5.902-10.894,13.867-1.292,10.855,11.859,26.686,32.004,16.752,20.145-9.934,18.747-15.703,26.438-15.878,7.692-.175,23.571-12.81,12.222-23.449Z"/>
      <path class="cls-3" d="M-14.68,166.572c-.066-.191.126-.332.178-.505,1.628-5.463,1.916-10.737,6.172-15.045,1.308-1.324,3.106-2.744,4.706-3.689,1.029-.608,2.06-.89,2.879-1.849,1.168-1.367,1.638-2.168,3.304-3.068,1.967-1.062,4.349-.567,6.433-.835.67-.086,1.4-.412,2.069-.515.843-.13,2.924.302,3.837.498,1.472.317,2.75.785,4.087,1.492.592.313,1.761,1.079.956,1.794-.719.638-2.331.819-3.245,1.121-5.096,1.682-10.848,5.449-14.805,9.065-2.571,2.35-5.298,6.303-6.545,9.555-1.227,3.199-.595,7.736,1.249,10.59,3.918,6.063,11.028,7.745,17.15,10.706,1.879.909,4.018,2.023,5.364,3.642.533.642,1.976,2.298.066,1.904-.899-.185-1.746-.616-2.636-.822-1.212-.281-2.017-.115-3.186-.097-1.069.016-2.192-.125-3.229-.088-1.313.047-2.685.508-4.013.074-1.903-.623-2.916-2.808-4.509-3.889-1.246-.845-3.061-.796-4.469-1.373-1.603-.658-3.955-1.817-4.67-3.471-.583-1.348-.539-2.06-1.502-3.378-1.363-1.865-2.976-3.597-3.88-5.711-.579-1.353-1.156-2.767-1.506-4.202-.118-.485-.045-1.529-.117-1.735-.019-.055-.114-.103-.137-.17ZM11.917,142.639c.024.074.027.123.121.139l1.917-.676-2.026-.404c-.093.042-.05.826-.012.941ZM11.136,141.732c-.121.005-1.535.363-1.594.42-.125.123.106.932.154,1.137l1.648-.383.01-1.111c-.067-.069-.13-.067-.219-.064ZM12.609,145.397c.473.994,1.437-.35,1.082-.733-.421-.454-1.432-.003-1.082.733ZM7.162,142.326l.39,1.508,1.574-.408-.124-1.13c-.039-.084-1.618-.015-1.84.03ZM5.613,142.357c-.148.007-.934.037-.97.145l.721,2.149,1.633-.585-.35-1.632c-.078-.144-.842-.085-1.034-.076ZM8.453,146.535c.392.045.866-.677.494-1.042-.693-.68-1.355.944-.494,1.042ZM4.308,143.549l-.141-.929c-.334-.138-1.583.473-1.866.746l.869,2.393,1.701-.954-.563-1.257ZM-.198,145.821l.748,1.37,2.129-1.166c-.194-.534-.428-1.054-.618-1.589-.091-.257-.076-.591-.31-.769-.779.59-1.44,1.313-1.949,2.154ZM3.572,149.691c-.166.413.455.925.833.785.387-.143.976-.746.564-1.137-.593-.563-1.111-.363-1.398.352ZM-1.886,148.958l1.897-1.416-.633-1.192-1.794,1.114c.206.479.292,1.007.53,1.493ZM.061,149.794c-.253.387-.235,1.59.447,1.396.406-.115.987-1.196.605-1.526-.257-.222-.86-.165-1.052.129ZM-2.33,149.256c.022-.099-.367-.808-.422-.996-.094-.105.013-.601-.107-.614-.202-.021-1.622,1.001-1.902,1.164.11.226,1.171,1.551,1.275,1.532.176-.314,1.093-.801,1.155-1.087ZM-6.908,150.567l1.412,1.798,1.499-1.661-1.343-1.54-1.568,1.402ZM-3.668,153.526c-.193.066-.696.477-.786.66-.307.632-.072,1.66.617,1.948.348.145.97-.044,1.198-.342.585-.763.705-1.621-.242-2.132-.16-.087-.615-.193-.788-.134ZM-9.233,152.916l2.029,1.576c.304-.632.88-1.094,1.202-1.701l-1.413-1.866-1.817,1.991ZM-10.962,155.76c.793.228,1.312.912,1.953,1.386l1.366-2.177c-.692-.488-1.216-1.184-1.986-1.556-.589.687-.947,1.537-1.332,2.348ZM-12.27,159.297l1.97.73,1.022-2.309c-.686-.419-1.285-.985-1.857-1.548l-1.136,3.127ZM-12.986,162.455l1.866.675.656-2.457-1.913-.706-.609,2.488ZM-13.991,166.099l2.412.198.342-2.496c-.061-.184-1.586-.574-1.855-.675l-.899,2.973ZM-11.581,169.028l.006-2.144c-.821.008-1.634-.243-2.453-.105-.087.769.07,1.613.319,2.34.043.127.164.532.293.534.559-.352,1.205-.486,1.835-.626ZM-7.813,170.71c-.493.039-.949.971-.116,1.173.452.11,1.023-.669.743-.972-.118-.128-.459-.214-.627-.201ZM-10.989,171.74l-.531-2.113c-.63.124-1.238.323-1.803.63-.045.117.437,1.316.528,1.52.059.131.269.704.409.692l1.398-.728ZM-9.639,174.486c-.258-.32-.441-.695-.631-1.056-.104-.197-.387-1.046-.598-1.042-.065.001-1.15.473-1.203.515-.054.042-.107.041-.105.135.003.139,1.356,2.392,1.489,2.353.048-.276,1.059-.767,1.048-.905ZM11.614,189.884l.131.066,3.597-.181-3.167-.933-.56,1.047ZM-7.786,176.906l-1.591-1.872c-.206.158-1.001.598-.985.849.008.132,1.556,2.063,1.683,2.027l.893-1.004ZM.165,182.025c.35.647,1.22-.251.741-.646-.406-.335-.966.231-.741.646ZM8.563,188.431c-.126.339-.405,1.12-.457,1.444-.01.064-.041.122.002.184l3.131-.152c.105-.353.296-.718.405-1.061.022-.068.052-.119-.005-.184l-2.798-.867c-.056.019-.238.528-.278.637ZM-8.401,178.434c.378.452.647,1.003.861,1.547.056.141.054.448.218.493.078.005.112-.042.162-.089.151-.142,1.18-1.298,1.169-1.388l-1.491-1.619-.918,1.056ZM4.607,188.512c-.033.085-.065.196-.024.281.078.16.7.715.871.825.595.379,1.336.514,2.03.509l.856-2.488-2.819-1.017c-.29.618-.665,1.259-.915,1.89ZM-3.707,181.1l-1.838-1.582-1.464,1.483c-.236.234-.002.632.139.874.355.61.937,1.097,1.531,1.47l1.631-2.244ZM4.153,188.282l.956-1.844-2.326-1.138c-.123.011-.746.927-.73.992l2.1,1.99ZM-4.96,183.57c.322.211,2.613,1.39,2.801,1.298l1.034-1.715-2.158-1.655c-.525.71-1.022,1.476-1.677,2.072ZM-1.628,184.975c.702.303,1.49.333,2.23.575.375.123.744.299,1.102.464l.548-.917c-.457-.307-1.052-.429-1.525-.689-.496-.272-.925-.702-1.452-.944l-.902,1.51Z"/>
    </g>
  </g>
</svg>