<?xml version="1.0" encoding="UTF-8"?>
<svg id="Layer_1" data-name="Layer 1" xmlns="http://www.w3.org/2000/svg" xmlns:xlink="http://www.w3.org/1999/xlink" viewBox="0 0 380.891 175.693">
  <defs>
    <style>
      .cls-1 {
        fill: none;
      }

      .cls-2 {
        clip-path: url(#clippath-1);
      }

      .cls-3, .cls-4 {
        opacity: .2;
      }

      .cls-5 {
        fill: #b2d5e8;
      }

      .cls-6, .cls-4 {
        fill: #0072b2;
      }
    </style>
    <clipPath id="clippath">
      <rect class="cls-1" x="-530.872" width="453.631" height="255.259"/>
    </clipPath>
    <clipPath id="clippath-1">
      <rect class="cls-1" width="380.891" height="175.693"/>
    </clipPath>
  </defs>
  <g class="cls-2">
    <g>
      <rect class="cls-5" width="380.891" height="175.693"/>
      <g class="cls-3">
        <path class="cls-6" d="M309.563-30.622c-12.187,9.793-27.58,22.911-19.091,38.488,10.822,19.858,32.975-4.055,41.118-14.095,4.963-6.118,17.37-20.626,15.879-28.993-1.395-7.829-8.786-12.784-16.562-10.921-.146.035-.279.068-.417.103-5.653,1.439-10.806,4.435-14.83,8.658-2.754,2.891-5.107,5.744-6.098,6.76Z"/>
        <path class="cls-6" d="M330.058-5.145l-.455,1.059c1.038,1.065,2.107,2.374,3.261,3.302,1.128.908,2.608,1.501,3.679,2.532.27.052,1.287-1.826,1.979-2.132,1.142-.505,2.084.693,1.502,1.723-.321.57-1.332,1.564-1.795,2.195-.544.741-1.855,3.111-2.734,3.194-1.325.125.373-2.706.03-3.005-1.278-.519-2.395-1.458-3.609-2.074-.971-.492-3.385-1.433-4.41-1.658-.181-.04-.498-.127-.657-.048-.148.074-1.309,1.213-1.301,1.332.599,1.404,2.014,2.855,2.463,4.272.572,1.806-1.676,2.913-2.86,1.246-.451-.635-2.066-3.758-2.44-3.956-.3-.159-1.808.709-2.331.706"/>
        <path class="cls-6" d="M319.959,3.98c-.32.113-.702,1.811-1.059,2.193.143.561,2.413,3.821,2.886,4.317,1.124,1.179,1.961,2.584,3.209,3.711.236.213.653.72.96.657.445-.091,1.326-1.662,2.042-1.696,1.395-.066,1.041,1.371.632,2.201-.499,1.013-3.264,3.628-4.294,4.122-.957.46-2.021-.023-1.699-1.147.205-.716.899-1.278,1.423-1.769-1.112-.486-1.949-1.389-2.932-2.071-2.082-1.444-4.576-2.53-6.913-3.493l-1.749.975c.032,1.38,1.283,4.679.711,5.847-.503,1.028-1.758.917-2.295-.059-.401-.728-1.132-4.771-1.335-4.926"/>
        <path class="cls-6" d="M307.997,13.499l-3.197,2.078c-.372,1.44-.936,3.033-1.131,4.501-.191,1.436.07,3.009-.256,4.459.096.257,2.228.153,2.849.585,1.024.714.489,2.141-.694,2.178-.654.021-2.029-.327-2.807-.396-.916-.08-3.622.028-4.149-.68-.794-1.068,2.507-1.085,2.585-1.533-.219-1.362.004-2.804-.1-4.161-.083-1.085-.531-3.637-.871-4.63-.06-.175-.149-.492-.3-.587-.14-.088-1.716-.489-1.813-.421-.889,1.241-1.395,3.203-2.374,4.322-1.247,1.426-3.36.078-2.55-1.798.309-.715,2.141-3.716,2.116-4.138-.02-.339-1.544-1.178-1.813-1.626"/>
        <path class="cls-6" d="M293.469,11.169c.018-.339-1.403-1.343-1.62-1.819-.573-.083-4.454.764-5.094,1.01-1.52.586-3.138.82-4.658,1.541-.287.136-.916.327-.975.635-.086.446,1.027,1.862.783,2.536-.474,1.313-1.665.436-2.275-.26-.744-.849-2.099-4.406-2.161-5.546-.058-1.06.796-1.858,1.71-1.13.582.464.836,1.321,1.088,1.992.876-.841,2.031-1.268,3.037-1.914,2.132-1.369,4.091-3.256,5.877-5.046l-.23-1.989c-1.287-.499-4.813-.609-5.673-1.585-.757-.859-.173-1.975.935-2.097.826-.091,4.841.784,5.061.655"/>
      </g>
      <path class="cls-4" d="M102.697,14.91s4.071.672,4.708-.396.052-2.659-2.76-2.597c-2.812.062-4.609-.273-6.459-1.162-1.851-.89-6.31-1.775-10.582-6.559-3.704-4.148-5.374-8.516-6.083-11.018-.137-.485-.839-.43-.904.07-.186,1.429-.258,3.352.274,5.092,1.008,3.301,5.12,10.611,8.208,12.846,3.087,2.235,8.164,3.076,13.6,3.724Z"/>
      <circle class="cls-4" cx="195.264" cy="17.233" r="3.256"/>
      <circle class="cls-4" cx="64.861" cy="34.112" r="3.256"/>
      <circle class="cls-4" cx="225.55" cy="176.582" r="5.156"/>
      <circle class="cls-4" cx="314.579" cy="104.452" r="3.256"/>
      <circle class="cls-4" cx="22.022" cy="70.038" r="3.256"/>
      <path class="cls-4" d="M382.946,141.944s-5.636-4.753-16.073,6.119c-10.437,10.872-20.762,5.219-32.017,2.174-11.255-3.044-21.692.294-26.259,2.539-4.566,2.245-12.373,7.342-13.552,17.249-1.607,13.503,14.752,33.194,39.81,20.837,25.059-12.357,23.319-19.533,32.887-19.75,9.568-.217,29.32-15.935,15.204-29.168Z"/>
      <path class="cls-4" d="M-7.022,176.375c-.082-.238.157-.413.221-.628,2.025-6.795,2.383-13.355,7.677-18.715,1.626-1.647,3.863-3.413,5.853-4.589,1.279-.756,2.563-1.107,3.581-2.3,1.452-1.701,2.037-2.697,4.11-3.816,2.446-1.321,5.41-.706,8.002-1.038.834-.107,1.741-.512,2.574-.641,1.049-.162,3.637.376,4.773.62,1.831.394,3.421.976,5.084,1.856.737.39,2.191,1.342,1.189,2.232-.894.794-2.899,1.019-4.037,1.394-6.339,2.092-13.494,6.778-18.416,11.276-3.198,2.923-6.591,7.84-8.142,11.885-1.526,3.98-.74,9.623,1.553,13.173,4.873,7.542,13.717,9.634,21.333,13.317,2.337,1.13,4.998,2.516,6.672,4.53.663.798,2.458,2.858.082,2.368-1.118-.23-2.171-.766-3.278-1.023-1.508-.35-2.509-.143-3.963-.121-1.33.02-2.726-.155-4.017-.109-1.633.059-3.34.632-4.992.092-2.367-.775-3.628-3.493-5.609-4.838-1.549-1.051-3.808-.99-5.558-1.708-1.994-.818-4.919-2.26-5.809-4.318-.725-1.676-.67-2.562-1.869-4.202-1.695-2.319-3.702-4.474-4.826-7.104-.72-1.683-1.438-3.441-1.874-5.227-.147-.603-.056-1.902-.146-2.158-.024-.069-.142-.128-.17-.211ZM26.062,146.605c.03.092.033.153.151.173l2.385-.84-2.52-.503c-.116.052-.062,1.027-.015,1.171ZM25.091,145.476c-.151.006-1.909.451-1.982.523-.156.153.132,1.159.192,1.415l2.05-.477.012-1.382c-.084-.086-.162-.083-.272-.079ZM26.924,150.035c.588,1.237,1.788-.435,1.345-.912-.524-.565-1.781-.004-1.345.912ZM20.148,146.216l.485,1.875,1.958-.507-.155-1.406c-.048-.104-2.013-.018-2.289.038ZM18.22,146.254c-.184.009-1.162.046-1.207.18l.897,2.673,2.031-.728-.435-2.031c-.098-.179-1.047-.106-1.286-.094ZM21.753,151.451c.488.056,1.077-.842.615-1.297-.862-.846-1.686,1.174-.615,1.297ZM16.598,147.737l-.175-1.155c-.415-.172-1.97.588-2.322.928l1.081,2.977,2.116-1.186-.701-1.563ZM10.992,150.563l.931,1.704,2.649-1.45c-.242-.664-.532-1.311-.769-1.977-.114-.319-.095-.735-.386-.956-.969.734-1.792,1.633-2.425,2.679ZM15.682,155.376c-.206.514.567,1.151,1.037.976.481-.178,1.215-.928.702-1.415-.738-.701-1.381-.452-1.739.438ZM8.892,154.465l2.36-1.761-.787-1.483-2.232,1.386c.256.596.363,1.253.659,1.858ZM11.315,155.505c-.315.481-.292,1.978.556,1.737.505-.143,1.227-1.488.753-1.898-.319-.276-1.07-.205-1.309.161ZM8.341,154.836c.027-.124-.457-1.006-.525-1.238-.117-.131.016-.748-.133-.763-.251-.027-2.017,1.246-2.365,1.448.137.281,1.457,1.929,1.586,1.906.218-.39,1.36-.997,1.437-1.352ZM2.646,156.467l1.756,2.237,1.865-2.066-1.671-1.915-1.951,1.744ZM6.676,160.147c-.24.082-.866.593-.977.822-.382.786-.089,2.065.768,2.423.433.181,1.206-.055,1.49-.425.728-.95.877-2.016-.3-2.652-.199-.108-.765-.24-.98-.167ZM-.246,159.388l2.523,1.96c.378-.786,1.095-1.361,1.495-2.116l-1.758-2.321-2.261,2.476ZM-2.397,162.926c.986.283,1.632,1.135,2.429,1.724l1.699-2.708c-.861-.607-1.512-1.472-2.47-1.936-.732.855-1.178,1.912-1.657,2.92ZM-4.024,167.326l2.451.908,1.272-2.873c-.853-.521-1.598-1.225-2.309-1.925l-1.413,3.89ZM-4.914,171.254l2.321.839.816-3.056-2.379-.879-.758,3.095ZM-6.165,175.787l3,.247.426-3.105c-.076-.228-1.972-.714-2.307-.84l-1.119,3.698ZM-3.167,179.431l.008-2.667c-1.021.01-2.032-.302-3.051-.13-.109.956.087,2.006.397,2.911.054.158.205.662.364.664.695-.437,1.498-.604,2.282-.778ZM1.52,181.522c-.614.048-1.18,1.207-.145,1.459.562.137,1.273-.832.925-1.209-.147-.16-.571-.267-.78-.25ZM-2.431,182.804l-.661-2.629c-.783.154-1.539.402-2.243.784-.056.145.544,1.637.656,1.89.073.163.335.876.509.86l1.738-.905ZM-.752,186.22c-.321-.398-.549-.864-.785-1.313-.129-.245-.482-1.302-.744-1.296-.081.002-1.431.588-1.497.64-.067.053-.133.051-.13.167.004.173,1.686,2.976,1.853,2.927.06-.343,1.317-.954,1.304-1.126ZM25.685,205.374l.162.082,4.474-.225-3.939-1.16-.697,1.303ZM1.554,189.229l-1.98-2.329c-.257.197-1.245.744-1.225,1.056.01.164,1.936,2.566,2.094,2.522l1.11-1.248ZM11.444,195.598c.435.805,1.517-.313.922-.804-.506-.417-1.201.287-.922.804ZM21.891,203.566c-.157.421-.504,1.393-.569,1.796-.013.079-.051.151.003.229l3.895-.189c.13-.44.368-.893.504-1.32.027-.085.065-.149-.006-.229l-3.481-1.078c-.069.023-.296.657-.346.792ZM.789,191.131c.471.562.804,1.248,1.071,1.925.069.176.067.557.271.614.097.006.139-.053.201-.111.187-.177,1.468-1.614,1.454-1.726l-1.855-2.014-1.142,1.313ZM16.969,203.666c-.042.105-.081.243-.029.349.097.199.871.89,1.084,1.026.74.472,1.661.64,2.525.633l1.065-3.095-3.506-1.265c-.36.768-.827,1.566-1.138,2.351ZM6.628,194.447l-2.287-1.968-1.821,1.844c-.293.291-.002.786.173,1.087.442.759,1.165,1.365,1.905,1.829l2.029-2.792ZM16.405,203.381l1.189-2.294-2.894-1.416c-.153.013-.927,1.153-.908,1.234l2.613,2.475ZM5.069,197.519c.401.262,3.25,1.729,3.484,1.615l1.286-2.133-2.685-2.059c-.654.884-1.272,1.836-2.086,2.578ZM9.213,199.267c.873.377,1.853.414,2.773.715.466.153.926.371,1.371.577l.681-1.141c-.569-.382-1.308-.534-1.897-.856-.616-.338-1.15-.874-1.807-1.174l-1.122,1.879Z"/>
    </g>
  </g>
</svg>