<?xml version="1.0" encoding="UTF-8"?>
<svg id="Layer_1" data-name="Layer 1" xmlns="http://www.w3.org/2000/svg" xmlns:xlink="http://www.w3.org/1999/xlink" viewBox="0 0 452.99 255.259">
  <defs>
    <style>
      .cls-1 {
        fill: none;
      }

      .cls-2, .cls-3 {
        opacity: .2;
      }

      .cls-4 {
        fill: #b2d5e8;
      }

      .cls-5, .cls-3 {
        fill: #0072b2;
      }

      .cls-6 {
        clip-path: url(#clippath);
      }
    </style>
    <clipPath id="clippath">
      <rect class="cls-1" width="453.631" height="255.259"/>
    </clipPath>
  </defs>
  <g class="cls-6">
    <g>
      <rect class="cls-4" x="-.206" y=".141" width="453.196" height="255.118"/>
      <g class="cls-2">
        <path class="cls-5" d="M382.005-62.406c-18.47,14.843-41.799,34.724-28.934,58.33,16.402,30.096,49.976-6.145,62.318-21.362,7.521-9.273,26.325-31.26,24.066-43.941-2.115-11.865-13.316-19.375-25.1-16.551-.221.053-.423.103-.631.156-8.568,2.18-16.377,6.721-22.475,13.122-4.175,4.382-7.74,8.705-9.242,10.245Z"/>
        <path class="cls-5" d="M397.762-9.966c-.485.172-1.064,2.744-1.604,3.324.217.85,3.658,5.791,4.374,6.543,1.704,1.787,2.972,3.916,4.863,5.624.357.323.99,1.092,1.455.996.674-.138,2.01-2.519,3.095-2.57,2.114-.1,1.578,2.078.958,3.336-.756,1.535-4.947,5.498-6.508,6.247-1.45.697-3.063-.035-2.575-1.738.311-1.085,1.363-1.937,2.156-2.68-1.686-.737-2.954-2.106-4.444-3.139-3.155-2.189-6.935-3.834-10.478-5.295l-2.651,1.477c.049,2.091,1.944,7.091,1.078,8.861-.763,1.559-2.665,1.39-3.479-.089-.607-1.103-1.716-7.231-2.024-7.465"/>
        <path class="cls-5" d="M379.632,4.462l-4.845,3.149c-.564,2.182-1.419,4.597-1.714,6.822-.289,2.176.106,4.56-.388,6.758.145.39,3.377.231,4.318.887,1.552,1.082.741,3.244-1.051,3.301-.991.031-3.074-.496-4.255-.599-1.388-.121-5.489.043-6.288-1.031-1.204-1.619,3.8-1.644,3.917-2.323-.332-2.064.006-4.249-.151-6.306-.125-1.645-.805-5.512-1.321-7.018-.091-.266-.226-.745-.455-.889-.213-.134-2.601-.742-2.748-.638-1.347,1.88-2.115,4.854-3.598,6.55-1.89,2.161-5.092.119-3.864-2.726.468-1.083,3.245-5.631,3.207-6.272-.03-.514-2.34-1.785-2.747-2.465"/>
        <path class="cls-5" d="M357.615.93c.027-.514-2.126-2.035-2.455-2.756-.868-.126-6.751,1.158-7.72,1.531-2.304.889-4.756,1.243-7.059,2.335-.435.206-1.388.496-1.478.962-.131.676,1.556,2.822,1.187,3.844-.718,1.991-2.524.661-3.448-.394-1.128-1.287-3.181-6.677-3.275-8.406-.087-1.607,1.207-2.815,2.592-1.712.883.703,1.266,2.002,1.649,3.019,1.327-1.275,3.078-1.921,4.603-2.901,3.231-2.074,6.2-4.935,8.907-7.647l-.348-3.015c-1.95-.757-7.295-.923-8.598-2.402-1.147-1.302-.262-2.994,1.416-3.179,1.252-.138,7.337,1.188,7.671.993"/>
      </g>
      <path class="cls-3" d="M142.643,12.107s6.17,1.018,7.135-.601c.965-1.618.079-4.029-4.183-3.936s-6.985-.413-9.79-1.762c-2.805-1.348-9.563-2.689-16.038-9.94-5.614-6.287-8.145-12.907-9.22-16.699-.208-.735-1.271-.652-1.37.106-.282,2.166-.391,5.08.415,7.718,1.527,5.003,7.76,16.081,12.439,19.469,4.679,3.387,12.373,4.661,20.612,5.645Z"/>
      <circle class="cls-3" cx="262.352" cy="7.875" r="4.935"/>
      <circle class="cls-3" cx="92.864" cy="47.956" r="4.935"/>
      <circle class="cls-3" cx="323.882" cy="241.789" r="7.815"/>
      <circle class="cls-3" cx="443.182" cy="140.062" r="4.935"/>
      <circle class="cls-3" cx="-.207" cy="87.904" r="4.935"/>
      <path class="cls-3" d="M546.797,196.884s-8.542-7.204-24.36,9.274c-15.819,16.478-31.466,7.909-48.524,3.296-17.058-4.614-32.876.446-39.797,3.848-6.921,3.402-18.752,11.127-20.538,26.142-2.435,20.464,22.357,50.308,60.335,31.581,37.978-18.728,35.342-29.603,49.842-29.933,14.5-.33,44.436-24.15,23.042-44.207Z"/>
      <path class="cls-3" d="M8.294,249.011c-.125-.36.238-.626.335-.951,3.069-10.299,3.612-20.241,11.635-28.363,2.465-2.495,5.855-5.172,8.871-6.954,1.939-1.146,3.884-1.678,5.427-3.485,2.201-2.578,3.088-4.088,6.23-5.784,3.708-2.002,8.2-1.07,12.128-1.573,1.264-.162,2.639-.776,3.901-.971,1.589-.245,5.513.57,7.233.94,2.776.597,5.185,1.48,7.706,2.813,1.117.591,3.321,2.034,1.802,3.383-1.355,1.203-4.394,1.544-6.118,2.113-9.608,3.171-20.451,10.273-27.91,17.09-4.847,4.43-9.989,11.882-12.339,18.013-2.312,6.032-1.122,14.585,2.354,19.964,7.386,11.431,20.79,14.601,32.332,20.183,3.543,1.713,7.575,3.813,10.112,6.865,1.005,1.209,3.725,4.331.124,3.589-1.694-.349-3.291-1.161-4.969-1.55-2.286-.53-3.802-.216-6.006-.183-2.016.03-4.132-.235-6.088-.165-2.475.089-5.062.959-7.566.139-3.588-1.174-5.498-5.294-8.501-7.332-2.348-1.593-5.771-1.5-8.424-2.589-3.022-1.24-7.456-3.426-8.804-6.544-1.098-2.541-1.016-3.883-2.832-6.369-2.569-3.515-5.61-6.781-7.315-10.767-1.091-2.55-2.18-5.215-2.84-7.922-.223-.915-.086-2.882-.221-3.271-.036-.104-.215-.194-.258-.32ZM58.436,203.892c.045.139.05.231.229.262l3.614-1.274-3.82-.762c-.176.079-.094,1.557-.023,1.774ZM56.964,202.182c-.229.009-2.893.683-3.004.792-.236.232.201,1.757.291,2.144l3.107-.723.018-2.094c-.127-.13-.246-.126-.412-.12ZM59.741,209.091c.891,1.874,2.709-.659,2.039-1.382-.794-.857-2.699-.006-2.039,1.382ZM49.472,203.302l.735,2.842,2.968-.768-.234-2.131c-.073-.158-3.05-.028-3.469.057ZM46.551,203.361c-.279.014-1.762.07-1.83.273l1.359,4.051,3.078-1.103-.659-3.077c-.148-.272-1.587-.161-1.948-.143ZM51.905,211.236c.74.085,1.633-1.277.932-1.965-1.306-1.283-2.555,1.779-.932,1.965ZM44.092,205.608l-.265-1.75c-.629-.26-2.985.891-3.519,1.406l1.639,4.511,3.207-1.798-1.062-2.369ZM35.596,209.89l1.411,2.583,4.014-2.197c-.367-1.006-.806-1.987-1.165-2.996-.172-.484-.144-1.114-.585-1.449-1.469,1.112-2.715,2.475-3.675,4.06ZM42.704,217.186c-.313.779.859,1.744,1.571,1.48.729-.27,1.841-1.406,1.064-2.144-1.118-1.062-2.094-.685-2.635.664ZM32.414,215.805l3.577-2.669-1.193-2.247-3.382,2.101c.388.904.551,1.899.999,2.815ZM36.085,217.382c-.477.729-.443,2.998.843,2.633.766-.217,1.86-2.255,1.141-2.876-.484-.419-1.621-.311-1.984.244ZM31.577,216.367c.041-.188-.692-1.524-.796-1.877-.177-.198.024-1.133-.201-1.157-.38-.041-3.057,1.888-3.585,2.195.207.426,2.209,2.923,2.404,2.888.331-.591,2.061-1.511,2.178-2.049ZM22.947,218.839l2.662,3.39,2.826-3.131-2.532-2.903-2.956,2.643ZM29.055,224.416c-.364.124-1.312.899-1.481,1.245-.579,1.191-.135,3.13,1.164,3.672.657.274,1.828-.084,2.258-.644,1.103-1.439,1.329-3.056-.455-4.019-.302-.163-1.159-.364-1.485-.253ZM18.563,223.267l3.825,2.971c.573-1.192,1.66-2.062,2.265-3.206l-2.664-3.517-3.426,3.753ZM15.303,228.628c1.495.429,2.473,1.72,3.681,2.613l2.575-4.105c-1.304-.92-2.292-2.231-3.744-2.934-1.11,1.296-1.785,2.897-2.512,4.426ZM12.838,235.296l3.715,1.376,1.927-4.354c-1.293-.79-2.422-1.857-3.5-2.917l-2.142,5.895ZM11.489,241.25l3.517,1.272,1.237-4.631-3.606-1.332-1.148,4.691ZM9.593,248.12l4.547.374.645-4.706c-.115-.346-2.989-1.082-3.496-1.272l-1.695,5.604ZM14.136,253.642l.012-4.041c-1.547.015-3.08-.458-4.624-.197-.165,1.449.132,3.04.601,4.412.082.239.31,1.004.552,1.007,1.053-.663,2.271-.916,3.459-1.18ZM21.241,256.812c-.93.073-1.789,1.83-.219,2.212.852.207,1.929-1.261,1.402-1.833-.223-.242-.866-.404-1.182-.379ZM15.252,258.755l-1.001-3.984c-1.187.233-2.333.609-3.4,1.188-.085.22.824,2.482.995,2.865.11.248.507,1.327.771,1.304l2.635-1.372ZM17.797,263.932c-.486-.603-.832-1.31-1.19-1.99-.195-.371-.73-1.973-1.128-1.964-.123.003-2.169.891-2.268.97-.101.08-.202.077-.198.254.007.262,2.556,4.51,2.808,4.437.091-.519,1.997-1.446,1.976-1.706ZM57.864,292.96l.246.124,6.781-.341-5.97-1.758-1.056,1.975ZM21.291,268.493l-3-3.529c-.389.298-1.886,1.127-1.856,1.6.016.249,2.934,3.888,3.173,3.822l1.683-1.892ZM36.281,278.144c.659,1.22,2.3-.474,1.397-1.218-.766-.632-1.82.435-1.397,1.218ZM52.113,290.22c-.237.638-.763,2.112-.862,2.722-.019.12-.077.229.004.347l5.903-.287c.197-.666.558-1.353.763-2.001.041-.129.099-.225-.009-.348l-5.275-1.634c-.105.035-.448.996-.524,1.2ZM20.132,271.375c.713.852,1.219,1.891,1.623,2.917.105.266.101.845.41.93.147.009.211-.08.305-.169.284-.269,2.224-2.447,2.203-2.617l-2.811-3.052-1.73,1.99ZM44.655,290.373c-.063.159-.123.369-.044.529.147.302,1.319,1.348,1.643,1.555,1.121.715,2.518.97,3.827.96l1.614-4.69-5.314-1.918c-.546,1.164-1.253,2.374-1.725,3.564ZM28.982,276.4l-3.466-2.983-2.759,2.795c-.444.441-.003,1.192.262,1.647.67,1.15,1.766,2.068,2.887,2.771l3.076-4.231ZM43.799,289.94l1.803-3.477-4.385-2.146c-.231.02-1.406,1.747-1.377,1.871l3.96,3.751ZM26.618,281.056c.608.398,4.925,2.621,5.28,2.447l1.95-3.233-4.069-3.121c-.991,1.339-1.927,2.782-3.161,3.906ZM32.9,283.705c1.323.571,2.809.628,4.203,1.084.707.231,1.403.563,2.077.874l1.033-1.729c-.862-.579-1.983-.809-2.875-1.298-.934-.512-1.743-1.324-2.738-1.779l-1.701,2.847Z"/>
    </g>
  </g>
</svg>