<?xml version="1.0" encoding="UTF-8"?>
<svg id="Layer_1" data-name="Layer 1" xmlns="http://www.w3.org/2000/svg" viewBox="0 0 217.736 76.4">
  <defs>
    <style>
      .cls-1 {
        fill: #fff;
        opacity: .5;
      }

      .cls-2 {
        fill: #de7079;
      }

      .cls-3 {
        fill: #281100;
      }

      .cls-4 {
        fill: #0072b2;
      }
    </style>
  </defs>
  <g>
    <circle class="cls-1" cx="161.292" cy="32.066" r="11.546" transform="translate(36.758 139.465) rotate(-52.019)"/>
    <g>
      <path class="cls-4" d="M162.895,19.045c-5.043-.476-10.681,1.965-13.396,6.32-6.771,10.859,3.84,22.895,15.636,20.051.163-.039.94-.32,1.021-.256.074.058.65,1.479.764,1.714.508,1.057,1.064,2.093,1.558,3.157.01.206-.47.739-.58.985-.133.297.087.389.184.598,2.14,4.586,4.412,9.114,6.595,13.679.18.166.723.043.955-.02.741-.202,1.85-.64,2.524-1.006.335-.182,1.556-.914,1.693-1.193.036-.073.049-.154.027-.233l-6.558-13.309c-.178-.228-.311-.671-.547-.825-.253-.165-.859-.032-1.097-.287-.487-1.03-1.046-2.027-1.547-3.049-.225-.458-.86-1.791-.818-1.758.338-.188.661-.419.968-.654,9.871-7.567,4.671-22.777-7.381-23.914ZM171.792,35.328c-.267.518-.443,1.089-.731,1.598-3.644,6.424-12.466,7.449-17.81,2.528-.82-.756-1.442-1.62-2.043-2.548-2.82-5.491-.852-11.819,4.827-14.491,8.562-4.028,18.682,3.459,15.758,12.913Z"/>
      <path class="cls-3" d="M169.259,43.644s.035.069.059.1c-.255.437-.763.722-1.206.943-.245.122-1.562.632-1.751.585-.203-.051-.245-.194-.071-.322.185-.136.788-.262,1.05-.37.264-.109.574-.233.821-.372.193-.108.864-.633.956-.628.055.003.101.031.143.064Z"/>
      <path d="M171.87,35.399c-.27.524-.448,1.102-.74,1.617-3.687,6.499-12.613,7.537-18.021,2.558-.83-.764-1.46-1.639-2.067-2.578-2.853-5.556-.863-11.959,4.884-14.662,8.663-4.076,18.903,3.5,15.944,13.066ZM151.595,27.036c-5.051,8.978,4.949,18.034,13.915,14.251,8.611-3.634,8.314-15.133-.261-18.633-4.807-1.962-11.033-.277-13.654,4.382Z"/>
      <path class="cls-3" d="M168.119,51.158c.015-.058.063-.121.103-.167.166-.189,2.201-.713,2.63-.868s.858-.338,1.278-.515c.225-.095.649-.444.796-.141.119.246-.414.48-.591.577-1.211.661-2.54,1.041-3.869,1.383-.127.007-.381-.135-.347-.269Z"/>
    </g>
  </g>
  <g>
    <path d="M14.479,23.044h4.592v20.529h-4.592v-20.529Z"/>
    <path d="M22.258,24.394h4.484v2.538c.972-.594,2.053-.918,3.16-.918,3.647,0,5.727,2.296,5.727,6.321v11.237h-4.457v-10.832c0-1.676-.729-2.486-2.161-2.486-1.459,0-2.269.892-2.269,2.486v9.211h-4.484v-17.558Z"/>
    <path d="M46.353,21.153h1.215v4.24h-1.054c-1.432,0-2.107.703-2.107,2.296v1.432h3.161v4.025h-3.161v10.426h-4.484v-10.426h-2.08v-4.025h2.08v-1.593c0-4.295,2.134-6.375,6.429-6.375Z"/>
    <path d="M49.486,36.441v-4.916c0-4.404,2.728-7.131,7.131-7.131,4.457,0,7.131,2.566,7.131,6.888v3.62h-9.806v1.458c0,2.107.918,3.161,2.701,3.161s2.458-.919,2.647-2.837h4.457c-.297,4.674-2.729,6.889-7.131,6.889s-7.131-2.729-7.131-7.131ZM59.291,31.606v-.566c0-1.891-.945-2.891-2.647-2.891-1.783,0-2.701,1.08-2.701,3.161v.296h5.348Z"/>
    <path d="M65.747,35.361v-2.755c0-4.403,2.728-7.131,7.131-7.131,4.646,0,6.807,2.403,7.105,7.104h-4.457c-.189-1.972-.864-2.864-2.62-2.864-1.783,0-2.701,1.08-2.701,3.187v2.377c0,2.107.918,3.161,2.701,3.161s2.432-.919,2.62-2.837h4.457c-.298,4.593-2.54,6.889-7.105,6.889-4.403,0-7.131-2.729-7.131-7.131Z"/>
    <path d="M83.682,36.982v-6.051h-2.08v-4.24h2.08v-3.646h4.484v3.646h3.646v4.24h-3.646v5.97c0,1.837.73,2.621,2.377,2.621h1.269v4.051h-1.756c-4.565,0-6.375-2.08-6.375-6.591Z"/>
    <path d="M94.379,28.446h4.484v15.127h-4.484v-15.127Z"/>
    <path d="M102.239,42.709h4.457c.081,1.809.702,2.673,2.269,2.673,1.405,0,2.269-.892,2.269-2.512v-1.972c-.864.46-1.945.73-3.134.73-4.105,0-6.644-2.729-6.644-7.131v-1.35c0-4.403,2.539-7.131,6.644-7.131,1.189,0,2.27.27,3.134.729v-2.35h4.457v18.259c0,4.242-2.458,6.591-6.726,6.591-4.403,0-6.483-2.242-6.726-6.536ZM108.56,37.576c1.729,0,2.674-1.08,2.674-3.16v-.973c0-2.107-.945-3.187-2.674-3.187s-2.647,1.108-2.647,3.187v.973c0,2.08.918,3.16,2.647,3.16Z"/>
    <path d="M125.361,28.203c-1.459,0-2.053.648-2.188,2.485h-4.484c.27-4.268,2.404-6.294,6.645-6.294,4.322,0,6.672,2.187,6.672,6.212v12.966h-4.457v-2.053c-.892.54-1.999.784-3.484.784-3.458,0-5.808-2.107-5.808-5.187,0-3.241,2.215-5.106,6.078-5.106,1.242,0,2.296.216,3.214.649v-2.107c0-1.539-.757-2.35-2.188-2.35ZM125.091,38.9c1.647,0,2.458-.649,2.458-1.891s-.81-1.891-2.458-1.891c-1.54,0-2.377.675-2.377,1.891s.837,1.891,2.377,1.891Z"/>
    <path d="M136.084,36.982v-6.051h-2.08v-4.24h2.08v-3.646h4.484v3.646h3.646v4.24h-3.646v5.97c0,1.837.73,2.621,2.377,2.621h1.269v4.051h-1.756c-4.565,0-6.375-2.08-6.375-6.591Z"/>
    <path d="M177.845,24.394h4.484v3.106c.891-.973,2.134-1.486,3.646-1.486.595,0,1.027.026,1.486.108v4.268h-.999c-2.458,0-4.133,1.243-4.133,4.242v7.32h-4.484v-17.558Z"/>
    <path d="M189.055,37.144h4.484c.028,1.809.757,2.592,2.404,2.592,1.324,0,2.135-.701,2.135-1.863,0-1.324-.46-1.648-2.837-1.972-4.133-.594-5.888-2.27-5.888-5.618,0-3.566,2.512-5.888,6.32-5.888,3.971,0,6.375,2.215,6.375,6.105h-4.457c-.054-1.621-.595-2.242-1.891-2.242-1.215,0-1.972.675-1.972,1.837,0,1.107.513,1.486,2.431,1.756,4.511.621,6.294,2.242,6.294,5.672,0,3.674-2.539,6.051-6.51,6.051-4.403,0-6.888-2.215-6.888-6.429Z"/>
  </g>
  <path class="cls-2" d="M164.991,39.204c-.145-.138-.288-.374-.424-.51-.437-.438-.882-.867-1.298-1.326-.045-.047-.059-.084-.048-.149.03-.17.177-.46.223-.684.069-.336.041-.703.163-1.02.092-.078,2.033.003,2.41-.106.506-.147.686-.714.264-1.053-.48-.385-2.131-.149-2.771-.277l-.269-.908c.685-.979,1.443-2.018,2.324-2.829.416-.383.919-.676,1.258-1.139.172.292.36.671.669.84.485.265.818-.176.704-.665-.122-.526-1.044-2.073-1.459-2.408-.341-.275-.967-.586-1.081.064-.058.334.576.903.572,1.118-.003.148-.28.288-.402.375-.649.459-1.383.7-2.043,1.097-.277.167-.702.516-1.115.769-.129.079-.531.497-1.174.117-.14-.204-.883-.556-.903-.716-.024-.199.753-1.668.878-2.014.327-.909-.709-1.485-1.255-.776-.429.556-.611,1.497-.994,2.108-.044.035-.799-.109-.868-.147-.074-.041-.125-.187-.159-.268-.19-.459-.475-1.651-.546-2.161-.089-.638-.025-1.325-.168-1.961.024-.214,1.581-.317,1.175-.798-.269-.319-1.543-.19-1.977-.202-.092-.002-1.313.498-1.762.802.043.052.095.1.162.14.305.187,1.309.076,1.361.194-.111.694.058,1.429.009,2.112-.049.699-.269,1.467-.402,2.157l-.534.109c-.442-.697-1.038-2.193-1.887-2.434-.239-.068-.555.144-.623.372-.094.315.522,1.262.695,1.559.19.327.342.716.536,1.047l-.881.612c-.519-.286-.939-.706-1.407-1.059-.177-.133-.381-.276-.59-.421-.187.482-.329.989-.425,1.518.575.697,1.086,1.39,1.081,1.519-.604.645-.914,2.166-.936,2.169.145.558.346,1.129.613,1.711,1.261,2.75,3.711,4.758,6.721,5.507.282.07.565.115.848.162.063-.014.132-.032.213-.066.349-.144.686-.311,1.025-.475.102.046.237.344.381.699.494.008.985-.029,1.472-.089l-.658-1.498.522-.585c.191-.027,1.643.876,1.927,1.037.25.142.509.264.763.396.434-.17.857-.366,1.268-.593-.391-.33-.819-.63-1.18-.974Z"/>
  <path class="cls-2" d="M97.057,26.198c-.09-.028-.11-.215-.136-.278-.007-.018-.076-.019-.085-.054-.041-.166.026-.436.003-.617-.013-.096-.097-.068-.107-.11-.02-.086.019-.361,0-.38-.026-.026-.479.025-.588,0-.038-.009-.03-.09-.073-.101-.219-.056-.451-.057-.662-.213-.159.131-.874.987-.977,1.027-.368.142-.718-.045-.609-.468.009-.035.077-.036.084-.054.085-.209.28-.474.437-.67.149-.186.379-.218.306-.523-.011-.047-.16-.112-.188-.158-.135-.217-.249-.553-.327-.751-.019-.048.013-.151-.002-.168-.045-.052-1.158.019-1.374-.003-.089-.009-.169-.079-.265-.099-.095-.019-.202.013-.298-.005-.188-.036-.222-.632,0-.723.259-.063,1.974.074,2.04-.003.014-.017-.016-.118.002-.167.047-.122.227-.351.312-.52.034-.067.148-.021.1-.144-.114-.08-.92-.807-.932-.87-.028-.139-.027-.551.14-.584.094-.018.384-.019.468.013.038.015.459.503.554.585.124.107.408.388.538.427.204.061.154-.08.204-.091.085-.02.361.019.381,0,.017-.018.01-.427.001-.496-.016-.127-.094-.219-.103-.313-.021-.238-.057-1.031.001-1.231.081-.278.503-.123.615.106.107.219.068.462.11.651.038.172.174.544.209.787.021.149-.067.547.14.597.075.018.163-.014.238.003.012.003.174.089.203.105.068.036.016.14.144.1.097-.218.361-.376.518-.559.094-.11.18-.367.331-.463.043-.027.111-.005.149-.021.057-.025.028-.09.117-.103.156-.023.339-.016.428.125.028.045.006.113.022.148.027.059.106.033.105.118-.005.389-.926,1.133-.941,1.21-.05.263.131.293.201.422.149.274.037.432.446.477.612.068,1.218.006,1.869.106.464.071.519.469.147.722-.265.063-2.071-.076-2.145.002-.015.016.015.203-.001.276-.008.036-.083.033-.097.077-.031.096-.121.366-.11.442.009.063.808.74.915.888.043.059.068.155.108.229.028.052.111.059.12.099.017.076.015.264,0,.342-.004.017-.227.239-.243.243-.172.04-.422-.117-.567-.226-.226-.17-.703-.818-.889-.914-.159-.082-.278.004-.416.088-.35.213-.093.496-.063.768.047.423.133,1.095-.508.895Z"/>
</svg>