<?xml version="1.0" encoding="UTF-8"?>
<svg id="Layer_1" data-name="Layer 1" xmlns="http://www.w3.org/2000/svg" viewBox="0 0 46.501 46.726">
  <defs>
    <style>
      .cls-1 {
        fill: #1d1d1b;
      }

      .cls-2 {
        fill: #fff;
      }
    </style>
  </defs>
  <polygon points="31.587 37.509 16.697 36.47 14.276 11.811 31.587 9.187 31.587 37.509"/>
  <polygon class="cls-2" points="15.693 13.263 17.7 32.927 30.513 33.158 30.513 11.256 15.693 13.263"/>
  <circle class="cls-2" cx="23.664" cy="34.915" r=".972"/>
  <path class="cls-1" d="M11.317,29.499l.039-.027-.786-1.148-2.433-3.829-1.37.87,1.537,2.419c-1.023-.09-1.903-.453-2.571-1.079-.796-.747-1.234-1.8-1.234-2.964,0-2.451,1.108-4.231,3.594-5.771l-1.068-1.726c-3.065,1.898-4.555,4.351-4.555,7.496,0,1.731.665,3.31,1.874,4.443.986.926,2.252,1.45,3.688,1.595l-1.839,1.259.917,1.339,3.605-2.468.615-.39-.013-.021Z"/>
  <path class="cls-1" d="M42.66,17.753c-.982-.922-2.225-1.47-3.657-1.617l1.808-1.238-.917-1.339-3.605,2.468-.615.391.014.021-.04.027.786,1.148,2.433,3.828,1.37-.87-1.535-2.416c1.019.093,1.902.451,2.57,1.076.795.747,1.233,1.799,1.233,2.963,0,2.451-1.108,4.23-3.594,5.771l1.068,1.725c3.065-1.899,4.555-4.352,4.555-7.496,0-1.73-.665-3.309-1.874-4.443Z"/>
</svg>