<?xml version="1.0" encoding="UTF-8"?>
<svg id="Layer_1" data-name="Layer 1" xmlns="http://www.w3.org/2000/svg" viewBox="0 0 46.501 46.726">
  <defs>
    <style>
      .cls-1 {
        fill: #d55e00;
      }

      .cls-2 {
        fill: #fff;
        opacity: .5;
      }

      .cls-3 {
        fill: #281100;
      }
    </style>
  </defs>
  <circle class="cls-2" cx="26.809" cy="16.418" r="8.473"/>
  <g>
    <path class="cls-1" d="M35.459,12.191c-1.726-3.292-5.485-5.782-9.25-5.709-9.389.183-12.544,11.527-6.072,17.643.089.084.573.45.566.526-.006.069-.649.992-.749,1.156-.447.736-.861,1.492-1.318,2.222-.123.089-.643.007-.838.038-.236.037-.205.209-.294.353-1.964,3.152-3.839,6.362-5.773,9.532-.03.177.263.462.395.579.421.375,1.135.882,1.629,1.15.246.133,1.185.591,1.411.564.059-.007.114-.032.154-.077l5.56-9.361c.069-.201.288-.46.288-.667,0-.221-.324-.541-.262-.789.439-.712.828-1.454,1.256-2.172.192-.321.757-1.246.754-1.207.251.133.522.239.79.333,8.606,3.041,15.879-6.245,11.753-14.113ZM29.007,24.182c-.426.043-.847.164-1.276.19-5.41.33-9.572-4.685-8.685-9.941.136-.807.419-1.536.749-2.277,2.249-3.932,6.928-5.256,10.845-2.833,5.905,3.653,5.352,12.875-1.634,14.861Z"/>
    <path class="cls-3" d="M22.878,25.954s-.028.049-.038.076c-.371.018-.75-.18-1.063-.365-.173-.102-1.014-.708-1.061-.843-.05-.145.021-.229.17-.173.158.059.476.38.648.498.173.119.373.26.557.356.144.075.735.278.769.336.02.035.021.075.018.114Z"/>
    <path d="M28.994,24.258c-.431.044-.857.166-1.291.192-5.474.334-9.685-4.74-8.788-10.059.138-.817.424-1.554.758-2.304,2.275-3.979,7.01-5.318,10.973-2.866,5.975,3.696,5.415,13.027-1.653,15.036ZM26.021,8.441c-7.544.487-9.11,10.264-3.194,14.263,5.682,3.841,12.636-.945,11.355-7.619-.718-3.742-4.247-6.896-8.161-6.643Z"/>
    <path class="cls-3" d="M17.8,28.26c.042-.014.1-.01.144-.004.183.026,1.32,1.068,1.586,1.27s.552.392.828.58c.148.1.533.221.405.433-.104.171-.461-.063-.591-.133-.891-.48-1.657-1.146-2.399-1.826-.055-.076-.07-.289.026-.321Z"/>
  </g>
</svg>