<?xml version="1.0" encoding="UTF-8" standalone="no"?>
<svg
   id="Layer_1"
   data-name="Layer 1"
   viewBox="0 0 46.501 46.726"
   version="1.1"
   sodipodi:docname="token_02.svg"
   inkscape:version="1.4.2 (1:1.4.2+202505120737+ebf0e940d0)"
   xmlns:inkscape="http://www.inkscape.org/namespaces/inkscape"
   xmlns:sodipodi="http://sodipodi.sourceforge.net/DTD/sodipodi-0.dtd"
   xmlns="http://www.w3.org/2000/svg"
   xmlns:svg="http://www.w3.org/2000/svg">
  <sodipodi:namedview
     id="namedview4"
     pagecolor="#505050"
     bordercolor="#eeeeee"
     borderopacity="1"
     inkscape:showpageshadow="0"
     inkscape:pageopacity="0"
     inkscape:pagecheckerboard="0"
     inkscape:deskcolor="#d1d1d1"
     inkscape:zoom="17.121088"
     inkscape:cx="23.246186"
     inkscape:cy="23.363001"
     inkscape:window-width="1920"
     inkscape:window-height="1009"
     inkscape:window-x="0"
     inkscape:window-y="0"
     inkscape:window-maximized="1"
     inkscape:current-layer="Layer_1" />
  <defs
     id="defs1">
    <style
       id="style1">
      .cls-1 {
        fill: #d55e00;
      }

      .cls-2 {
        fill: #fff;
        opacity: .5;
      }

      .cls-3 {
        fill: #281100;
      }
    </style>
  </defs>
  <circle
     class="cls-2"
     cx="-21.567184"
     cy="16.417999"
     r="8.4729996"
     id="circle1"
     transform="scale(-1,1)" />
  <g
     id="g4"
     transform="matrix(-1,0,0,1,48.376184,0)">
    <path
       class="cls-1"
       d="M 35.459,12.191 C 33.733,8.899 29.974,6.409 26.209,6.482 16.82,6.665 13.665,18.009 20.137,24.125 c 0.089,0.084 0.573,0.45 0.566,0.526 -0.006,0.069 -0.649,0.992 -0.749,1.156 -0.447,0.736 -0.861,1.492 -1.318,2.222 -0.123,0.089 -0.643,0.007 -0.838,0.038 -0.236,0.037 -0.205,0.209 -0.294,0.353 -1.964,3.152 -3.839,6.362 -5.773,9.532 -0.03,0.177 0.263,0.462 0.395,0.579 0.421,0.375 1.135,0.882 1.629,1.15 0.246,0.133 1.185,0.591 1.411,0.564 0.059,-0.007 0.114,-0.032 0.154,-0.077 l 5.56,-9.361 c 0.069,-0.201 0.288,-0.46 0.288,-0.667 0,-0.221 -0.324,-0.541 -0.262,-0.789 0.439,-0.712 0.828,-1.454 1.256,-2.172 0.192,-0.321 0.757,-1.246 0.754,-1.207 0.251,0.133 0.522,0.239 0.79,0.333 8.606,3.041 15.879,-6.245 11.753,-14.113 z m -6.452,11.991 c -0.426,0.043 -0.847,0.164 -1.276,0.19 -5.41,0.33 -9.572,-4.685 -8.685,-9.941 0.136,-0.807 0.419,-1.536 0.749,-2.277 2.249,-3.932 6.928,-5.256 10.845,-2.833 5.905,3.653 5.352,12.875 -1.634,14.861 z"
       id="path1" />
    <path
       class="cls-3"
       d="m 22.878,25.954 c 0,0 -0.028,0.049 -0.038,0.076 -0.371,0.018 -0.75,-0.18 -1.063,-0.365 -0.173,-0.102 -1.014,-0.708 -1.061,-0.843 -0.05,-0.145 0.021,-0.229 0.17,-0.173 0.158,0.059 0.476,0.38 0.648,0.498 0.173,0.119 0.373,0.26 0.557,0.356 0.144,0.075 0.735,0.278 0.769,0.336 0.02,0.035 0.021,0.075 0.018,0.114 z"
       id="path2" />
    <path
       d="m 28.994,24.258 c -0.431,0.044 -0.857,0.166 -1.291,0.192 -5.474,0.334 -9.685,-4.74 -8.788,-10.059 0.138,-0.817 0.424,-1.554 0.758,-2.304 2.275,-3.979 7.01,-5.318 10.973,-2.866 5.975,3.696 5.415,13.027 -1.653,15.036 z M 26.021,8.441 c -7.544,0.487 -9.11,10.264 -3.194,14.263 5.682,3.841 12.636,-0.945 11.355,-7.619 -0.718,-3.742 -4.247,-6.896 -8.161,-6.643 z"
       id="path3" />
    <path
       class="cls-3"
       d="m 17.8,28.26 c 0.042,-0.014 0.1,-0.01 0.144,-0.004 0.183,0.026 1.32,1.068 1.586,1.27 0.266,0.202 0.552,0.392 0.828,0.58 0.148,0.1 0.533,0.221 0.405,0.433 -0.104,0.171 -0.461,-0.063 -0.591,-0.133 -0.891,-0.48 -1.657,-1.146 -2.399,-1.826 -0.055,-0.076 -0.07,-0.289 0.026,-0.321 z"
       id="path4" />
  </g>
</svg>
