<?xml version="1.0" encoding="UTF-8"?>
<svg id="Layer_1" data-name="Layer 1" xmlns="http://www.w3.org/2000/svg" viewBox="0 0 46.739 46.739">
  <defs>
    <style>
      .cls-1 {
        fill: #c76f45;
      }

      .cls-2 {
        fill: #fefefe;
      }

      .cls-3 {
        fill: #b2d5e8;
      }

      .cls-4 {
        fill: #0072b2;
      }

      .cls-5 {
        fill: #fcc7ad;
      }

      .cls-6 {
        fill: #3b1719;
      }
    </style>
  </defs>
  <path class="cls-3" d="M.047,0h46.693v46.693H.046s0-46.693,0-46.693ZM33.852,5.09c-.069-.21-.023-.242-.255-.375-.87-.498-2.908-.101-3.924-.046-.132.007-.529.046-.574-.078-.098-.266-.201-1.388-.708-1.159-.137.062-.508,1.059-.638,1.279-.033.057-.054.133-.121.16l-3.491.591c-.042-.177.045-.376.042-.532-.006-.349-.096-1.211-.194-1.534-.089-.296-.302-.291-.399-.002l-.582,1.986-.081.106-1.142.119c-.955.274-1.865.573-2.53,1.348-.075.013-.416-.386-.508-.463-.126-.105-.618-.507-.764-.415-.188.695.119,1.437.175,2.125.041.502-.143.874-.18,1.349-.053.682.033,1.402.235,2.051l-.209.074c-1.089-2.136-1.528-4.521-1.544-6.912-.058.097-.146.295-.161.399-.192,1.341.163,3.402.571,4.699.215.684.518,1.335.819,1.984l-.203.247c-.747-.904-1.323-1.969-1.83-3.025-.413-.863-.877-1.887-1.112-2.81-.055-.216-.066-.53-.126-.715-.021-.064-.063-.092-.13-.079.002.1-.008.202,0,.303.124,1.549,1.424,4.369,2.295,5.689.198.299.442.577.646.871-.316.189-.623.395-.949.569-.848.452-1.859.808-2.779,1.097-.125.039-.583.071-.611.184l.039.131c.041.053.193.033.262.029.387-.019,1.329-.397,1.735-.554.816-.314,1.61-.676,2.327-1.175.04.111-.034.211-.022.344.034.361.389.935.788.967.107.123-.462,1.884-.581,2.142-.922.557-2.011.948-2.913,1.523-.207.132-.705.357-.446.627l3.197-1.681-.647,2.134.068.103.158.005.899-2.51c.723-.43,2.423-1.132,2.638-2.008.159-.648.066-1.274.014-1.924.88-.202,1.827-.396,2.606-.872.238-.145.437-.389.707-.484-.005.08.039.16.047.233.137,1.31.418,2.688.664,3.982.326,1.709.631,3.446,1.336,5.061.198.452.843,1.714,1.19,2.008.048.04.106.07.172.062.151-.165-.52-1.077-.624-1.267-1.316-2.419-1.915-6.29-2.361-9.032-.064-.396-.084-.833-.143-1.234.544.391,1.045-.048,1.54-.093.028-.003.066-.004.093,0,.026.004.066-.015.086.006.203.625.88,1.905,1.595,2.002.014.002.032.001.047,0,.242.155.238.361.373.584.217.36.762.654,1.168.723l.093.047c.384.158.528.464,1.004.421.179-.016.341-.136.537-.094.021.004.087.094.117.092.031-.002.061-.089.07-.092.104-.041.275.086.397.096.195.017.62-.087.797.04.107.077.452.658.581.82,1.946,2.431,4.643,5.413,7.62,6.528.335.126.874.32,1.204.149.032-.153-.737-.33-.873-.387-3.087-1.308-5.597-3.84-7.623-6.442-.075-.096-.387-.511-.422-.595-.033-.08.022-.063.069-.069.337-.044.864-.007,1.028-.374.262-.586-.222-1.006-.621-1.352-.693-.6-1.53-1.121-2.228-1.73-.41-.791-.563-1.716-.957-2.521l1.545-.074c.256.284.484.624.747.923,1.436,1.633,3.116,2.71,5.167,3.435,1.304.461,2.732.778,4.122.711v-.139c-1.946-.24-3.875-.723-5.644-1.572-1.425-.684-2.659-1.703-3.673-2.911-.046-.055-.395-.475-.349-.514.685-.036,1.398-.187,2.052-.399.841-.273,2.007-.594,1.717-1.713-.177-.682-.815-.895-1.448-.97-.021-.012-.074-.115-.08-.14-.007-.027.008-.069,0-.093ZM17.697,26.335c.303-.026.497-.196.688-.226.124-.019.489.296.566.396.313.405.402,1.218.715,1.667.221.316,1.503,1.052,1.906,1.27.453.244.942.484,1.448.583.022-.105-.05-.106-.114-.142-.868-.489-2.566-1.204-3.008-2.128-.031-.065-.175-.4-.145-.438l.537.373c.044-.003.027-.078.015-.108-.105-.255-.624-.63-.806-.875-.105-.141-.463-.804-.49-.958-.006-.035-.024-.11.02-.113.217.263.4.479.698.656.074.044.185.042.24.087.09.074.155.528.298.682.109.117.299.137.407.224.255.206.539.835.899.899.143.025.339.043.308-.167-.408-.204-.673-.601-.999-.919-.008-.129.07-.244.081-.369.023-.277-.12-.646.252-.667.135.264,1.792,1.168,1.9,1.069.018-.088-.044-.113-.097-.159-.227-.199-1.661-.951-1.666-1.123.142-.267.298-.609.341-.909.032-.221-.01-.459.043-.658.02-.074.416-.566.149-.458-.099.04-.136.193-.264.179.039-.122-.075-.232-.087-.315-.02-.132.278-.449.273-.618-.087-.089-.339.374-.397.372-.414-.856-1.523-1.237-2.264-.559.066-.504-.686-.904-1.08-1.091-.863-.409-1.302-.217-2.098-.377-.601-.121-1.64-.663-2.296-.879-.668-.221-1.36-.375-2.033-.582-1.688-.519-4.463-1.546-6.192-1.361-.576.062-1.039.478-.77,1.085.031.07.998,1.07,1.067,1.104-.087.091-.002.106.061.149.319.218.673.462,1.013.644.082.127.047.077-.056.107-.967.28-2.349.247-3.273.603-.373.144-.756.544-.776.955-.057,1.153,1.835,1.616,2.704,1.768.183.266.264.582.469.839.329.414.852.642,1.374.68.827.061,1.745.01,2.547-.188l-.551,1.713c-.679,1.495-2.389,1.905-3.592,2.852-.056.044-.127.054-.106.15.17.01.329-.037.484-.099.336-.135,1.17-.661,1.502-.88.424-.28,1.831-1.407,2.03-1.798.107-.21.272-.676.348-.912.113-.351.2-.708.259-1.073.383.238.924.371,1.375.376.863.01,1.445-.224,2.208-.317.365-.044.388.046.62.29.595.625,1.152,1.272,1.703,1.94.825.999,1.455,2.019,2.199,3.077.044.062.498.698.579.611-.178-.403-.479-.753-.72-1.124-.509-.785-.928-1.505-1.357-2.332-.322-.62-1.079-1.337-1.567-1.842-.205-.212-.375-.465-.605-.656-.011-.125.024-.042.082-.036.237.026.419.053.665.06v.047c.005.058.07.046.114.049.544.042,1.571.051,2.107,0,.044-.004.109.009.114-.049v-.047ZM32.358,27.502c-.034.12.002.385-.093.491-.05.056-.26.111-.345.17-.106.074-.433.434-.545.346-.159-.52-.464-.986-.66-1.488-.299-.766-.343-1.288-.218-2.105.09-.59.432-1.566,1.068-1.711v-.139c-.485-.108-.874.606-1.049.981-.26.558-.503,1.935-.439,2.538.048.452.249.921.453,1.321.102.2.512.769.546.898.029.108-.261.327-.353.4-.671-.164-1.496-.145-2.132-.387-.819-.312-1.48-.849-2.021-1.528-.118-.148-.64-.984-.726-1.002-.202-.043-.078.287-.015.389.369.588,1.212,1.657,1.769,2.059.843.607,1.728.791,2.752.867l-1.048,1.263c-.39.072-.812.048-1.216.091-1.314.141-2.367.365-3.735.233-.498-.048-1.153-.284-1.694-.36-.112-.016-.611-.073-.372.162.173.169,1.028.244,1.304.306.837.187,1.859.445,2.724.455.484.005,1.094-.143,1.586-.188.29-.026.615-.017.91-.047l-.607.959c-.736-.11-1.705.283-2.25.771-.335.301-1.024,1.388-1.137,1.815-.144.542-.534,2.357-.483,2.834.027.258.242.154.264.035.011-.06-.046-.212-.04-.322.078-1.366.73-2.829,1.637-3.828.328-.361,1.219-.834,1.705-.864.16-.01,0,.222-.021.306-.167.665-.265,1.473.044,2.099.66,1.338,2.048,2.347,3.574,2.313.824-.018,1.497-.113,2.133-.657.528-.452.82-1.148.97-1.819.092-.016.133.061.185.118,1.166,1.271.925,3.469.342,4.962-.136.349-.425.634-.48.99.177.18.517-.558.568-.669.668-1.46,1.346-3.31.514-4.825-.257-.468-.572-.834-1.011-1.137l.023-1.026c.034-.04.311.182.361.219.264.196.501.444.764.64,1.097.817,2.093,1.197,3.366,1.63.257.088.908.497,1.161.336.118-.075.002-.131-.062-.174-.515-.343-1.359-.487-1.91-.752-.412-.198-1.171-.684-1.574-.947-.436-.285-.922-.838-1.348-1.184-.127-.103-.772-.517-.795-.595l-.149-1.602c.06-.044,1.151.468,1.389.502.873.125,1.561.01,2.383-.256.219-.071,1.568-.547,1.598-.69-.146-.294-.711.122-.956.211-1.01.366-1.992.549-3.059.256-.155-.043-1.344-.562-1.378-.63l-.143-.794c.926-.433,1.687-.929,2.137-1.882.343-.726.706-1.768.594-2.573-.027-.196-.224-.653-.462-.424.448.531.234,1.45-.015,2.041-.275.655-.591,1.122-1.158,1.55-.402.304-.857.552-1.285.817-.09.024-.104-.219-.15-.307-.069-.133-.173-.254-.242-.389h-.047c-.141-.304.008-.444.047-.747.131-.045.204-.065.187-.233-.08-.035-.123.042-.14.046-.115-.209-.104-.406-.32-.554-.433-.298-.698-.25-1.009.16-.034.045-.108.043-.072.161-.038.017-.082.053-.093.093Z"/>
  <polygon class="cls-2" points=".047 0 .046 46.693 46.739 46.693 46.739 46.739 0 46.739 0 0 .047 0"/>
  <path class="cls-4" d="M5.743,20.778c-.069-.034-1.036-1.034-1.067-1.104-.27-.606.194-1.023.77-1.085,1.729-.186,4.504.842,6.192,1.361.673.207,1.365.361,2.033.582.656.216,1.694.759,2.296.879.796.16,1.235-.032,2.098.377.395.187,1.147.587,1.08,1.091.741-.678,1.85-.296,2.264.559.058.002.31-.462.397-.372.005.169-.293.487-.273.618.012.083.126.193.087.315.128.014.164-.139.264-.179.267-.108-.129.384-.149.458-.052.199-.011.437-.043.658-.043.3-.199.642-.341.909.005.173,1.438.925,1.666,1.123.053.047.115.072.097.159-.108.099-1.765-.805-1.9-1.069-.372.021-.229.39-.252.667-.01.125-.089.241-.081.369.326.317.591.714.999.919.031.21-.165.193-.308.167-.361-.064-.645-.693-.899-.899-.108-.087-.298-.107-.407-.224-.143-.154-.208-.608-.298-.682-.055-.045-.166-.043-.24-.087-.299-.176-.481-.393-.698-.656-.044.003-.026.078-.02.113.027.153.385.816.49.958.182.245.701.62.806.875.012.03.029.105-.015.108l-.537-.373c-.029.038.114.373.145.438.442.924,2.14,1.64,3.008,2.128.065.036.136.037.114.142-.506-.098-.995-.338-1.448-.583-.403-.218-1.684-.953-1.906-1.27-.313-.448-.402-1.261-.715-1.667-.077-.1-.442-.415-.566-.396-.191.03-.385.2-.688.226-.692.059-1.625.018-2.335,0-.245-.006-.428-.034-.665-.06-.059-.006-.093-.089-.082.036.23.191.4.444.605.656.488.505,1.245,1.221,1.567,1.842.429.827.848,1.547,1.357,2.332.241.372.541.722.72,1.124-.081.087-.535-.549-.579-.611-.744-1.058-1.375-2.078-2.199-3.077-.551-.667-1.108-1.315-1.703-1.94-.232-.244-.255-.335-.62-.29-.763.093-1.345.327-2.208.317-.451-.005-.992-.138-1.375-.376-.058.364-.146.722-.259,1.073-.076.236-.241.702-.348.912-.2.391-1.606,1.519-2.03,1.798-.332.219-1.166.745-1.502.88-.155.062-.314.11-.484.099-.021-.097.05-.106.106-.15,1.203-.946,2.913-1.357,3.592-2.852l.551-1.713c-.801.199-1.719.249-2.547.188-.523-.038-1.045-.267-1.374-.68-.205-.257-.286-.573-.469-.839-.868-.152-2.761-.614-2.704-1.768.02-.411.403-.811.776-.955.924-.357,2.306-.323,3.273-.603.103-.03.139.02.056-.107.852.457,2.014.994,2.91,1.362,1.146.471,2.253.612,3.458.236.691.752,1.575,1.311,2.177,2.137-.694.021-1.385.138-2.078.187-1.999.139-4.17.222-6.15-.106-.488-.081-.959-.239-1.437-.361-.019.088.045.113.097.159.729.646,4.222.662,5.247.632,1.299-.038,2.63-.073,3.924-.232.227-.028.716-.041.612-.374-.594-.821-1.414-1.438-2.129-2.146.624-.246,1.758-.842,2.101-1.426.033-.057.062-.094-.024-.116-.165-.041-.404.249-.54.346-1.664,1.175-3.136,1.668-5.117.876-1.396-.558-2.782-1.31-4.124-1.969ZM19.927,22.891c-1.233.155-1.13,2.18-.527,2.931.523.652,1.145.028,1.367-.549.196-.508.205-1.39-.072-1.866-.046-.078-.347-.44-.412-.475-.134-.07-.212-.059-.355-.041ZM19.05,22.973c-.079-.015-.122.04-.162.095-.24.335-.43,2.351-.047,2.518.072.031.116.024.117-.069.002-.189-.12-.482-.136-.706-.041-.605.142-1.242.227-1.838ZM20.825,26.195c-.09-.016-.14.069-.219.084-.135.026-.362-.053-.387.125.047.194.66.04.607-.209Z"/>
  <path class="cls-4" d="M33.852,5.183c.007.025.059.129.08.14.633.075,1.271.288,1.448.97.29,1.119-.875,1.44-1.717,1.713-.654.212-1.367.363-2.052.399-.046.039.304.46.349.514,1.014,1.208,2.247,2.227,3.673,2.911,1.769.849,3.698,1.332,5.643,1.572v.139c-1.389.067-2.817-.25-4.121-.711-2.051-.726-3.731-1.802-5.167-3.435-.263-.299-.491-.639-.747-.923l-1.545.074c.395.805.547,1.73.957,2.521.698.61,1.534,1.13,2.228,1.73.399.346.883.766.621,1.352-.164.366-.691.329-1.028.374-.047.006-.102-.011-.069.069.034.083.347.499.422.595,2.026,2.602,4.536,5.134,7.623,6.442.136.057.905.234.873.387-.33.171-.869-.023-1.204-.149-2.977-1.115-5.673-4.097-7.62-6.528-.129-.162-.474-.743-.581-.82-.177-.127-.602-.024-.797-.04-.121-.01-.293-.137-.397-.096l.887-1.447c.123-.117.276-.269.348-.422.027-.058.071-.158-.045-.139-.129.021-.435.433-.49.561-.172.131-.766,1.013-.889,1.237-.049.089-.062.122.002.211-.196-.042-.358.078-.537.094-.476.043-.619-.263-1.004-.421.267.049.154-.089.238-.252.215-.416.488-.802.688-1.226l.615-.949-.14-.025-.575.69c-.224.415-.517.803-.742,1.217-.082.151-.189.324-.178.499-.405-.069-.95-.364-1.168-.723-.135-.223-.131-.43-.373-.584.247-.018.218-.206.336-.388.351-.543.745-1.101,1.16-1.597.014-.017.438-.352.161-.304-.222.038-.998,1.034-1.163,1.266-.163.23-.405.584-.525.831-.036.073-.092.102-.016.192-.715-.097-1.392-1.377-1.595-2.002-.02-.02-.06-.002-.086-.006-.042-.151.109-.222.14-.28-.043.181.121.207.23.116.6-.56,1.213-1.114,1.825-1.656.076.075.111.189.233.187l2.008,1.494c-.178-.541-.339-1.091-.514-1.634-.055-.17-.124-.269-.174-.411-.022-.061,0-.172-.017-.194s-.113.009-.136-.003c-.153-.078-.255-.279-.489-.282-.203-.002-.331.178-.47.187-.13.009-.364-.081-.512-.082-.478-.005-1.049.115-1.538.133-.808.028-1.618-.018-2.424-.046-.02-.006-.076-.154-.076-.166v-1.237c-.152-.009-.194-.03-.221.127-.066.384-.088.836-.106,1.227-.373.057-1.74-.289-1.881-.621-.082-.195.099-.447.222-.594.494-.587,1.388-.566,2.088-.714,2.033-.43,3.855-.758,5.944-.92,1.24-.096,2.606-.207,3.829-.094.076.007.209.028.256-.047Z"/>
  <path class="cls-4" d="M33.806,28.576c.068.135.172.256.242.389.046.088.06.331.15.307.428-.265.883-.513,1.285-.817.567-.429.883-.896,1.158-1.55.248-.591.463-1.51.015-2.041.238-.228.435.229.462.424.112.805-.251,1.847-.594,2.573-.45.953-1.211,1.449-2.137,1.882l.143.794c.034.068,1.223.587,1.378.63,1.067.293,2.049.11,3.059-.256.245-.089.81-.505.956-.211-.03.143-1.378.62-1.598.69-.822.266-1.51.381-2.383.256-.237-.034-1.329-.546-1.389-.502l.149,1.602c.023.078.668.492.795.595.426.346.912.899,1.348,1.184.403.263,1.162.75,1.574.947.551.264,1.395.409,1.91.752.064.043.181.099.062.174-.253.161-.903-.249-1.161-.336-1.273-.433-2.269-.813-3.366-1.63-.263-.196-.499-.445-.764-.64-.05-.037-.327-.259-.361-.219l-.023,1.026c.44.303.754.668,1.011,1.137.833,1.516.155,3.365-.514,4.825-.051.111-.391.849-.568.669.055-.356.344-.641.48-.99.583-1.493.824-3.691-.342-4.962-.052-.057-.093-.134-.185-.118-.15.671-.442,1.367-.97,1.819-.637.545-1.309.639-2.133.657-1.527.034-2.914-.975-3.574-2.313-.309-.627-.211-1.434-.044-2.099.021-.084.182-.316.021-.306-.487.03-1.377.503-1.705.864-.908,1-1.559,2.463-1.637,3.828-.006.11.05.263.04.322-.022.119-.237.223-.264-.035-.051-.476.339-2.291.483-2.834.113-.427.802-1.515,1.137-1.815.545-.489,1.514-.882,2.25-.771l.607-.959c-.295.03-.62.021-.91.047-.492.044-1.102.193-1.586.188-.866-.01-1.888-.267-2.724-.455-.276-.062-1.132-.137-1.304-.306-.24-.235.26-.178.372-.162.541.076,1.196.312,1.694.36,1.369.133,2.422-.091,3.735-.233.404-.043.826-.019,1.216-.091l1.048-1.263c-1.024-.076-1.909-.26-2.752-.867-.558-.402-1.401-1.472-1.769-2.059-.064-.101-.187-.432.015-.389.086.018.608.854.726,1.002.541.679,1.201,1.216,2.021,1.528.635.242,1.461.223,2.132.387.092-.073.382-.293.353-.4-.034-.129-.444-.698-.546-.898-.204-.4-.405-.869-.453-1.321-.065-.604.178-1.981.439-2.538.175-.375.565-1.089,1.05-.981v.139c-.637.145-.978,1.121-1.068,1.711-.125.817-.08,1.339.218,2.105.196.502.501.968.66,1.488.113.088.439-.272.545-.346.086-.059.296-.115.345-.17.095-.106.059-.371.093-.491.03.201.323.166.481.13.11-.025.154-.135.266-.13.024.308.441.417.701.327-.039.303-.188.443-.047.747-.359-.316-.936-.497-1.413-.409-.16.03-.232.151-.301.168-.098.024-.231-.06-.384.082-.745.994-1.632,2.119-1.497,3.451.195,1.923,2.521,2.267,3.455.654.704-1.214.656-2.654.186-3.946Z"/>
  <path class="cls-4" d="M23.72,10.973c-.27.095-.469.339-.707.484-.779.476-1.726.67-2.606.872.052.65.145,1.276-.014,1.924-.215.876-1.915,1.578-2.638,2.008l-.899,2.51-.158-.005-.068-.103.647-2.134-3.197,1.681c-.259-.269.239-.494.446-.627.902-.575,1.991-.965,2.913-1.523.119-.258.687-2.02.581-2.142-.398-.032-.754-.606-.788-.967-.012-.133.062-.233.022-.344-.717.499-1.51.861-2.327,1.175-.406.156-1.348.534-1.735.554-.068.003-.221.024-.262-.029l-.039-.131c.028-.113.485-.145.611-.184.92-.288,1.931-.645,2.779-1.097.326-.174.633-.38.949-.569-.204-.294-.448-.571-.646-.871-.872-1.32-2.171-4.14-2.295-5.689-.008-.101.002-.203,0-.303.067-.013.11.016.13.079.06.185.071.499.126.715.235.923.699,1.947,1.112,2.81.506,1.057,1.083,2.122,1.83,3.025l.203-.247c-.302-.648-.604-1.299-.819-1.984-.408-1.298-.764-3.358-.571-4.699.015-.104.103-.303.161-.399.016,2.391.455,4.776,1.544,6.912l.209-.074c-.201-.649-.287-1.369-.235-2.051.037-.474.221-.847.18-1.349-.056-.687-.363-1.429-.175-2.125.146-.092.638.311.764.415.092.077.433.476.508.463.665-.775,1.576-1.074,2.53-1.348l1.142-.119.081-.106.582-1.986c.096-.289.31-.294.399.002.097.323.188,1.186.194,1.534.003.156-.084.355-.042.532l3.491-.591c.067-.027.088-.104.121-.16.13-.22.501-1.218.638-1.279.507-.23.61.893.708,1.159.046.124.443.086.574.078,1.016-.056,3.054-.452,3.924.046.233.133.186.165.255.375-.285-.135-.642-.243-.959-.236-3.343.075-6.453.447-9.687,1.241-.746.183-1.376.113-1.86.848-.755,1.144,1.264,1.458,2,1.557-.079.29-.16.583-.219.878-.078.386-.374,1.599-.345,1.901.018.187.143.237.188.043.173-.748.267-1.521.437-2.271l.172-.551.141,2.474ZM28.856,4.762c.034-.032-.186-.807-.245-.899-.037-.058-.042-.099-.128-.081l-.467,1.074.841-.093ZM23.804,5.594l.058-.95-.142-.722-.507,1.611c.157.19.389.098.591.06ZM18.49,8.124c.006-.006.023-.105.055-.154.082-.127.476-.706.453-.793-.043-.164-.632-.568-.787-.687-.047.064.145,1.389.187,1.564.013.055.012.149.092.07ZM22.179,11.766c.074-.074-.61-1.502-.689-1.715-.121-.328-.366-1.45-.592-1.603-.044-.03-.078-.059-.137-.041-.093.027-.137.268-.157.36-.112.515-.175,1.365-.199,1.902-.009.195-.025,1.416.047,1.47l.139-.117c.053-1.101.042-2.204.234-3.291.063.026.106.203.126.27.258.844.409,1.631.831,2.437.086.164.177.371.396.327ZM19.377,12.887c-.022.298-.226.727-.47.907-.1.074-.255.106-.341.173-.234.183-.485,1.491-.637,1.838l1.509-.872c.946-.524.75-1.598.686-2.513l-.747.094c-.035-.249-.371-.72-.581-.843-.112-.065-.31-.082-.308.073,0,.05.565.524.664.737.064.136.03.394.225.406Z"/>
  <path class="cls-4" d="M27.455,8.498l.233.233c-.175.16-.353.315-.513.491l-1.355,1.097c.322-.537.647-.954,1.2-1.298.076-.047.583-.224.224-.29-.256-.046-.675.269-.865.442-.256.232-.733.909-.818,1.237-.024.093-.027.187-.021.282-.495.046-.996.485-1.54.093.059.4.079.838.143,1.234.445,2.742,1.044,6.613,2.361,9.032.104.19.775,1.102.624,1.267-.065.008-.124-.022-.172-.062-.347-.294-.992-1.556-1.19-2.008-.705-1.615-1.01-3.352-1.336-5.061-.247-1.293-.528-2.672-.664-3.982.164.006.129.029.14-.114.03-.375-.072-.752-.093-1.123-.028-.487-.016-.983-.047-1.471.214-.032.419.043.628.049,1.013.032,2.052-.002,3.061-.049ZM25.094,9.693c-.041-.047-.259-.335-.299-.307l-.68,1.122c.442.331.979.018,1.405-.186.053-.049,0-.081-.022-.122-.1-.181-.269-.352-.404-.507Z"/>
  <path d="M33.852,5.09c.008.024-.007.066,0,.093-.047.075-.18.054-.256.047-1.224-.113-2.589-.002-3.829.094-2.089.162-3.911.49-5.944.92-.7.148-1.594.127-2.088.714-.124.147-.305.399-.222.594.14.332,1.508.678,1.881.621.018-.392.039-.843.106-1.227.027-.157.069-.136.221-.127v1.237c0,.013.055.16.076.166.806.028,1.616.075,2.424.046.49-.017,1.06-.138,1.538-.133.148.002.382.091.512.082.139-.009.266-.189.47-.187.234.002.337.203.489.282l.024.186c-.478-.405-.575-.319-1.021.009-.14.102-.277.253-.403.365-.611.543-1.225,1.097-1.825,1.656-.109.092-.272.066-.23-.116.016-.03.029-.064.047-.093l1.355-1.097c.16-.176.338-.331.513-.491.095-.087.22-.158.28-.28-.132.006-.268-.01-.401-.002-.06.004-.107.048-.113.049-1.008.047-2.047.081-3.061.049-.209-.007-.414-.081-.628-.049.031.487.02.983.047,1.471.021.371.123.749.093,1.123-.012.143.024.12-.14.114-.008-.073-.052-.153-.047-.233l-.141-2.474-.172.551c-.17.75-.264,1.523-.437,2.271-.045.194-.169.144-.188-.043-.03-.302.267-1.515.345-1.901.06-.295.14-.588.219-.878-.736-.099-2.755-.413-2-1.557.485-.734,1.114-.665,1.86-.848,3.233-.793,6.344-1.166,9.687-1.241.317-.007.674.101.959.236Z"/>
  <path d="M5.743,20.778c1.342.659,2.728,1.411,4.124,1.969,1.981.792,3.453.299,5.117-.876.137-.097.376-.387.54-.346.085.021.057.059.024.116-.343.584-1.477,1.18-2.101,1.426.715.709,1.535,1.325,2.129,2.146.103.333-.385.346-.612.374-1.294.159-2.624.194-3.924.232-1.025.03-4.518.014-5.247-.632-.053-.047-.116-.071-.097-.159.477.122.948.28,1.437.361,1.98.328,4.152.245,6.15.106.693-.048,1.384-.165,2.078-.187-.602-.826-1.486-1.384-2.177-2.137-1.205.376-2.312.235-3.458-.236-.897-.368-2.059-.905-2.91-1.362-.34-.182-.694-.426-1.013-.644-.063-.043-.148-.058-.061-.149Z"/>
  <path d="M33.759,28.576h.047c.47,1.292.517,2.731-.186,3.946-.934,1.612-3.26,1.268-3.455-.654-.135-1.333.752-2.458,1.497-3.451.153-.142.286-.058.384-.082.069-.017.141-.138.301-.168.477-.088,1.054.094,1.413.409ZM33.089,32.762c.221-.239.59-1.136.657-1.468.131-.643.066-1.79-.186-2.403-.149-.361-.76-.558-1.129-.5-.941.15-1.999,2.276-2.016,3.157-.028,1.45,1.682,2.286,2.674,1.213Z"/>
  <path d="M28.903,14.008c-.011-.176.096-.349.178-.499.225-.413.517-.802.742-1.217l.575-.69.14.025-.615.949c-.2.424-.473.811-.688,1.226-.084.163.029.302-.238.252l-.093-.047Z"/>
  <path d="M25.541,10.693c-.006-.095-.003-.189.021-.282.084-.328.562-1.006.818-1.237.19-.172.609-.488.865-.442.359.065-.147.242-.224.29-.553.344-.877.761-1.2,1.298-.018.03-.03.063-.047.093-.031.058-.182.129-.14.28-.027-.004-.065-.003-.093,0Z"/>
  <path d="M27.315,12.7c-.076-.09-.02-.119.016-.192.12-.247.362-.601.525-.831.164-.232.941-1.227,1.163-1.266.277-.048-.146.287-.161.304-.415.495-.809,1.054-1.16,1.597-.117.182-.089.369-.336.388-.015.001-.032.002-.047,0Z"/>
  <path d="M32.451,27.409c.092-.041.22-.034.324-.075.181-.071.199-.322.443-.255.041.011.073.284.111.363.104.217.326.255.523.2.017-.005.06-.081.14-.046.018.168-.056.188-.187.233-.26.09-.677-.019-.701-.327-.112-.005-.156.106-.266.13-.157.035-.451.071-.481-.13.011-.04.056-.077.093-.093Z"/>
  <path class="cls-4" d="M32.451,27.409c-.036-.117.038-.115.072-.161.311-.41.576-.458,1.009-.16.216.149.205.346.32.554-.198.055-.419.017-.523-.2-.038-.079-.07-.352-.111-.363-.244-.067-.262.183-.443.255-.104.041-.232.034-.324.075Z"/>
  <path d="M31.424,12.934c.048-.037.102-.092.163-.094l.024.094-.887,1.447c-.009.004-.039.091-.07.092-.03.002-.096-.088-.117-.092-.064-.088-.051-.122-.002-.211.123-.224.718-1.106.889-1.237Z"/>
  <path class="cls-1" d="M17.697,26.335v.047h-2.335v-.047c.709.018,1.643.059,2.335,0Z"/>
  <path class="cls-5" d="M17.697,26.381c-.005.058-.07.045-.114.049-.537.051-1.564.042-2.107,0-.044-.003-.109.009-.114-.049h2.335Z"/>
  <path d="M19.927,22.891c.143-.018.222-.029.355.041.065.034.367.396.412.475.278.476.269,1.358.072,1.866-.223.577-.844,1.201-1.367.549-.603-.751-.705-2.776.527-2.931ZM20.124,23.02c-1.24.067-1.188,2.109-.515,2.733.546.506,1.03-.399,1.075-.888.031-.332-.087-1.297-.347-1.521-.154-.133-.266-.03-.214-.323Z"/>
  <path d="M19.05,22.973c-.085.596-.268,1.233-.227,1.838.015.223.137.517.136.706,0,.094-.045.101-.117.069-.383-.167-.193-2.184.047-2.518.039-.055.083-.11.162-.095Z"/>
  <path d="M20.825,26.195c.054.249-.56.403-.607.209.025-.178.253-.1.387-.125.079-.015.13-.1.219-.084Z"/>
  <path class="cls-3" d="M28.062,9.058c-.289-.16.104-.478.306-.511.301-.048.663.026.967.045l.221.326c.174.543.335,1.092.514,1.634l-2.008-1.494Z"/>
  <path class="cls-4" d="M27.829,8.872c.126-.112.264-.262.403-.365.446-.328.543-.414,1.021-.009l-.024-.186c.023.012.118-.019.136.003s-.005.133.017.194c.05.142.12.241.174.411l-.221-.326c-.303-.018-.665-.093-.967-.045-.202.033-.595.351-.306.511-.123.002-.157-.112-.233-.187Z"/>
  <path class="cls-6" d="M31.424,12.934c.055-.128.361-.54.49-.561.117-.019.073.081.045.139-.073.153-.225.305-.348.422l-.024-.094c-.061.002-.115.057-.163.094Z"/>
  <path class="cls-3" d="M19.377,12.514l.747-.094c.064.915.26,1.989-.686,2.513l-1.509.872c.152-.346.404-1.655.637-1.838.086-.067.24-.099.341-.173.244-.18.448-.61.47-.907.008-.103.014-.276,0-.374Z"/>
  <path d="M22.179,11.766c-.219.044-.31-.163-.396-.327-.422-.806-.574-1.593-.831-2.437-.02-.067-.063-.244-.126-.27-.193,1.087-.181,2.191-.234,3.291l-.139.117c-.072-.054-.055-1.275-.047-1.47.024-.537.088-1.387.199-1.902.02-.093.063-.333.157-.36.058-.019.093.011.137.041.225.153.47,1.275.592,1.603.079.213.763,1.641.689,1.715Z"/>
  <path class="cls-3" d="M18.49,8.124c-.079.079-.079-.015-.092-.07-.042-.175-.234-1.501-.187-1.564.155.119.744.523.787.687.023.087-.371.667-.453.793-.032.049-.049.148-.055.154Z"/>
  <path class="cls-3" d="M23.804,5.594c-.203.038-.435.129-.591-.06l.507-1.611.142.722-.058.95Z"/>
  <path class="cls-3" d="M28.856,4.762l-.841.093.467-1.074c.087-.018.092.023.128.081.059.093.279.867.245.899Z"/>
  <path d="M19.377,12.514c.014.097.008.271,0,.374-.194-.012-.161-.27-.225-.406-.1-.213-.664-.687-.664-.737-.002-.155.196-.138.308-.073.21.123.546.594.581.843Z"/>
  <path class="cls-3" d="M25.094,9.693c.136.155.304.326.404.507.023.041.075.073.022.122-.427.204-.963.518-1.405.186l.68-1.122c.04-.028.258.26.299.307Z"/>
  <path class="cls-3" d="M27.455,8.498c.006,0,.053-.045.113-.049.133-.008.268.008.401.002-.06.122-.185.193-.28.28l-.233-.233Z"/>
  <path class="cls-4" d="M33.089,32.762c-.992,1.073-2.702.237-2.674-1.213.017-.881,1.075-3.007,2.016-3.157.368-.059.98.138,1.129.5.252.612.317,1.759.186,2.403-.067.332-.436,1.229-.657,1.468Z"/>
  <path class="cls-4" d="M20.124,23.02c-.052.294.059.191.214.323.26.224.378,1.189.347,1.521-.046.489-.53,1.394-1.075.888-.674-.624-.726-2.665.515-2.733Z"/>
</svg>