<?xml version="1.0" encoding="UTF-8"?>
<svg id="Layer_1" data-name="Layer 1" xmlns="http://www.w3.org/2000/svg" viewBox="0 0 47.094 47.094">
  <defs>
    <style>
      .cls-1 {
        fill: #56b4e9;
      }

      .cls-2 {
        fill: #b2d5e8;
      }

      .cls-3 {
        fill: #0072b2;
      }
    </style>
  </defs>
  <path class="cls-2" d="M23.147,0c.212,1.419.483,2.836.768,4.243.088.432.262.861.348,1.299.216,1.104.286,2.536.601,3.586.169.565.954,1.055,1.225,1.598l.305,2.353c-.383.007-.844.001-1.131.304-.616.65-.347,1.746-.281,2.543.044.534.045,1.47.21,1.954.107.312.458.298.731.28l.377,4.116c.188,1.015.295,1.977.283,3.012,0,.08.03.209-.048.258-.005-.014.005-.034,0-.047-.38-1.466-2.076-.905-2.516.236-.233.603-.203,1.654-.132,2.295.008.076.054.196-.034.245-.604-.951-1.804-2.173-2.838-2.643-.718-.327-1.357-.276-1.243.679.186,1.551,2.245,2.674,3.281,3.658-.893-.199-1.798-.419-2.711-.511-.764-.077-2.269-.236-2.648.634-.383.879.565,1.403,1.224,1.73.584.29,1.265.495,1.923.5.072.008.157-.026.035.058-.964.656-2.611,1.365-3.705,1.871-.061.028-.136.07-.188.094-.168.077-.412.144-.596.227-.391.176-2.236,1.086-2.509,1.09-.2.003-.427-.188-.423.235-.559.23-1.113.485-1.681.695-1.24.457-2.526.92-3.776,1.328-.094.031-.189.064-.282.094-.649.207-1.327.343-1.976.541-.685.209-1.308.35-1.787.895-1.258,1.434-1,4.309.235,5.69.779.872,3.302,1.126,4.445,1.248,2.752.292,5.106.318,7.843-.154,1.673-.288,3.217-.85,4.952-.929,1.4-.064,2.988-.081,4.377.05,1.113.105,2.337.475,3.483.563.456.035.949-.022,1.41.001,2.151.108,4.122.652,6.339.269,1.047-.181,1.694-.596,2.484-1.28,1.477-1.28.448-3.618.33-5.224-.062-.848.112-1.677.095-2.495-.037-1.754-.357-3.166-1.014-4.772-.296-.724-.623-.923-.48-1.798.173-1.055.499-1.783.043-2.893-.041-.101-.252-.41-.339-.437l.996-7.825.06-.067c.28.087.513.067.64-.22.108-.242.209-.898.266-1.193.152-.789.476-2.298.39-3.044-.069-.6-.524-.542-.988-.635l.342-2.598,1.649-2.115,1.914-9.589h3.67v47.094H0V0h23.147ZM18.819,11.48c.064.002.127-.001.188-.023.758-.272,1.666-.502,2.384-.815.657-.287.457-.875-.142-.756-1.037.207-2.309.843-3.369,1.15-.178.052-.36-.026-.495.163-.102.143-.078.321-.065.487.063.856.403,2.474.628,3.323.068.258.164.508.497.403.279-.088.249-.37.227-.609-.075-.819-.427-1.738-.506-2.552-.004-.045-.032-.142.017-.158l5.528,3.575c-2.55,1.692-5.05,3.468-7.579,5.195-1.234.843-2.811,1.728-3.944,2.643-.282.228-.379.618.008.784.264.114.651-.219.877-.369,1.58-1.049,3.104-2.206,4.666-3.285,2.087-1.441,4.474-2.877,6.456-4.412.092-.071.219-.14.278-.239.103-.172.172-.48.077-.664-.109-.211-1.227-.903-1.503-1.084-1.367-.899-2.781-1.729-4.152-2.623l-.078-.133Z"/>
  <path class="cls-3" d="M43.424,0l-1.914,9.589-1.649,2.115-.342,2.598h-.329s.094-.094.094-.094c-.332-.035-.74.044-1.061.003-.09-.011-.045-.09-.135-.102-.241-.03-.624.054-.841.003-.415-.097-.604-.039-1-.089-.09-.011-.045-.09-.135-.102-.572-.072-1.268-.014-1.841-.087-.09-.011-.045-.09-.135-.102-.272-.034-.628.042-.9.007-.09-.011-.045-.09-.135-.102-.321-.041-.729.038-1.061.003l.094-.093c-.303-.032-.675.04-.967.003-.09-.011-.045-.09-.135-.102-.241-.03-.624.054-.841.003-.038-.009-.013-.085-.1-.097-.319-.042-.731.039-1.061.003l.094-.093h-1.223s.048-.094.048-.094h-1.082s.094-.094.094-.094c-.187.001-.377-.004-.564,0l-.305-2.353c-.271-.543-1.056-1.033-1.225-1.598-.315-1.05-.385-2.482-.601-3.586-.086-.438-.26-.867-.348-1.299-.285-1.407-.556-2.824-.768-4.243h20.277Z"/>
  <path class="cls-3" d="M26.534,25.499c-.017-.039-.18-.298-.235-.235.015.883-.008,1.768-.03,2.65-.021.848-.184,2.118-.062,2.922.015.097.079.256.208.215.015-.005.167-.241.168-.256.094-.77-.03-1.824-.005-2.639.026-.852.205-1.477.002-2.374l.35-.192c.484,0,.929-.104,1.406.032.464.133.881.387,1.325.571.779.324,1.626.526,2.436.771,1.205.364,2.391.789,3.59,1.174.04.013.091.051.067.086.075-.111.296.064.314.138.034.143-.129.356-.179.482-.108.269-.223.534-.34.799-.232.528-.47,1.055-.659,1.601-.601,1.74-.143,2.415.062,4.068.255,2.064-.055,4.149-.184,6.207-.022.35.014.708,0,1.058l-2.375-.048c-3.962-.749-7.894-.704-11.852-.089-1.986.309-3.884.915-5.885,1.125-2.8.294-6.003.479-8.793.089-.692-.097-1.407-.177-2.03-.512-.073-.039-.134-.137-.148-.141-.135-.03-.331.005-.344.166-.04.475,1.091.785,1.448.856,2.979.593,6.065.374,9.07.202,2.196-.126,4.297-.885,6.447-1.221,3.343-.522,6.5-.67,9.871-.281.733.085,1.54.318,2.264.371,1.855.134,4.805-.005,6.561-.588.171-.057.913-.417,1.035-.518.174-.144.14-.49-.116-.489-.114,0-.706.361-.885.429-.863.327-2.007.419-2.926.509-.353.034-.698.141-1.059.094.004-.131-.01-.264.005-.395.295-2.504.662-4.958.273-7.481-.1-.645-.347-1.274-.324-1.933.049-1.402.981-2.815,1.354-4.153l.003-.169c-.013-.044-.046-.067-.088-.078.113-.128.197-.281.318-.402.341-.341,1.151-.931,1.638-.577.107.078.214.259.264.381.456,1.11.13,1.838-.043,2.893-.143.875.184,1.075.48,1.798.657,1.606.977,3.019,1.014,4.772.017.817-.158,1.647-.095,2.495.118,1.605,1.148,3.943-.33,5.224-.789.684-1.437,1.099-2.484,1.28-2.217.383-4.188-.16-6.339-.269-.462-.023-.954.034-1.41-.001-1.146-.089-2.37-.459-3.483-.563-1.389-.13-2.977-.114-4.377-.05-1.735.079-3.279.641-4.952.929-2.736.472-5.091.446-7.843.154-1.143-.121-3.666-.376-4.445-1.248-1.235-1.381-1.494-4.256-.235-5.69.478-.545,1.102-.686,1.787-.895.649-.198,1.326-.334,1.976-.541-.026.084-.045.167-.049.256-.061,1.294.358,2.203,1.731,2.366,3.092.367,5.952-1.31,8.683-2.49.955-.413,1.954-.875,2.893-1.256,1.024-.415,3.526-1.106,4.222-1.791,1.167-1.148.476-2.705.135-4.043-.075-.293-.291-.234-.341-.294-.025-.03,0-.169-.018-.24-.164-.622-.767-1.693-1.118-2.246.088-.049.042-.169.034-.245-.071-.642-.101-1.692.132-2.295.44-1.141,2.137-1.702,2.516-.236Z"/>
  <path class="cls-1" d="M26.376,13.042c1.661.128,3.32.281,4.985.44,1.142.112,2.301.195,3.443.336.283.023.585.014.864.042.427.041.829.129,1.258.17.54.032,1.091.08,1.614.123.393.031.92-.068,1.3.025.646.109.868.532.822,1.162-.029.611-.314,1.512-.43,2.123-.072.37-.134.732-.216,1.103-.059.241-.095.588-.264.76-.173.177-.411.104-.511.167-.051.031-.081.079-.093.137-.197,1.51-.571,4.476-.82,6.446-.063.488-.108.867-.136,1.062-.039.218-.215.163-.513.247-.08.018-.16.044-.239.074-.383.127-.786.614-1.1.826-.372.26-.541-.042-.92-.167-.352-.138-.655-.172-1.041-.301-.676-.215-1.3-.48-1.965-.72-.823-.279-1.697-.469-2.509-.763-.345-.131-.7-.288-1.033-.438-.288-.142-.498-.244-.81-.252-.273-.016-.661-.02-.941.012-.152.013-.349.037-.541.126-.092-.128-.021-.56-.02-.729-.002-.687-.063-1.365-.161-2.04-.221-1.306-.326-3.266-.457-4.463-.047-.675-.825.028-.935-1.168-.061-.542-.084-1.455-.142-1.996-.151-1.215-.058-2.357,1.497-2.343h.014Z"/>
  <path d="M23.853,28.275c.351.553.955,1.624,1.118,2.246.019.071-.006.21.018.24.049.06.266.001.341.294.341,1.338,1.032,2.895-.135,4.043-.696.685-3.197,1.376-4.222,1.791-.939.381-1.938.843-2.893,1.256-2.731,1.181-5.591,2.857-8.683,2.49-1.373-.163-1.792-1.072-1.731-2.366.004-.089.022-.173.049-.256.093-.03.188-.063.282-.094.016.059.132.089.14.127.048.222-.027.568.012.826.026.171.239.688.345.831.049.066.276.252.341.28.072.031.693.194.738.194h1.576l-.93-2.76c.055-.414.42-.299.54.022l.938,2.648c.144.029.249-.07.372-.094,1.604-.311,3.241-1.061,4.718-1.727.504-.227.989-.498,1.513-.676-.344-.679-.578-1.409-.877-2.109-.158-.37-.441-.738-.44-1.136.052-.024.127-.066.188-.094.415.009.525.512.665.808.32.678.574,1.383.845,2.072.018.045.15.067.09.225l3.103-1.298-1.397-3.019-.005-.262.133-.107c.233-.03.372.145.472.334l1.32,2.844c.051.037,1.059-.355,1.204-.412.821-.323,1.732-.671,1.851-1.677.038-.322-.114-.568-.106-.885l-.366-1.352c-.269.065-.524.192-.79.269-1.121.326-2.188.54-3.35.531-.658-.005-1.339-.209-1.923-.5-.659-.328-1.608-.851-1.224-1.73.379-.87,1.884-.711,2.648-.634.914.092,1.818.312,2.711.511-1.036-.983-3.095-2.106-3.281-3.658-.114-.955.525-1.005,1.243-.679,1.033.47,2.234,1.692,2.838,2.643ZM24.37,30.486c-.1-.514-.391-1.075-.65-1.537-.607-1.085-1.605-2.147-2.693-2.764-.466-.264-.975-.576-.822.257.164.894,1.257,1.781,1.933,2.349.706.593,1.493,1.144,2.233,1.695ZM21.689,31.898c1.021-.072,1.995-.402,2.964-.706.045-.057-.81-.437-.894-.47-1.096-.434-4.136-1.103-5.213-.767-.6.188-.694.678-.195,1.07.996.781,2.103.961,3.337.873Z"/>
  <path class="cls-3" d="M16.984,34.344c-.002.398.282.767.44,1.136.299.7.533,1.431.877,2.109-.523.178-1.009.448-1.513.676-1.478.666-3.114,1.416-4.718,1.727-.124.024-.228.124-.372.094l-.938-2.648c-.12-.321-.485-.436-.54-.022l.93,2.76h-1.576c-.045,0-.666-.163-.738-.194-.065-.028-.292-.214-.341-.28-.106-.143-.319-.66-.345-.831-.04-.258.036-.604-.012-.826-.008-.038-.124-.068-.14-.127,1.25-.409,2.536-.871,3.776-1.328.568-.209,1.122-.464,1.681-.695.004.416.603,1.725.775,2.213.115.325.111.981.637.728.132-.112-.017-.615-.061-.786-.21-.81-.658-1.597-.927-2.39.273-.005,2.118-.914,2.509-1.09.184-.083.428-.15.596-.227Z"/>
  <path class="cls-3" d="M20.842,32.321c1.162.009,2.229-.205,3.35-.531.265-.077.521-.203.79-.269l.366,1.352c-.008.316.145.562.106.885-.119,1.006-1.031,1.354-1.851,1.677-.146.057-1.153.45-1.204.412l-1.32-2.844c-.099-.19-.239-.365-.472-.334l-.133.107.005.262,1.397,3.019-3.103,1.298c.06-.159-.072-.18-.09-.225-.271-.689-.526-1.394-.845-2.072-.14-.296-.25-.798-.665-.808,1.094-.506,2.741-1.215,3.705-1.871.122-.083.038-.05-.035-.058Z"/>
  <path d="M18.819,11.48l.078.133c1.37.894,2.785,1.724,4.152,2.623.276.181,1.394.873,1.503,1.084.095.183.026.491-.077.664-.059.099-.186.168-.278.239-1.982,1.535-4.369,2.971-6.456,4.412-1.562,1.079-3.086,2.236-4.666,3.285-.227.15-.613.483-.877.369-.388-.167-.29-.556-.008-.784,1.133-.915,2.71-1.8,3.944-2.643,2.529-1.727,5.029-3.503,7.579-5.195l-5.528-3.575c-.05.016-.022.113-.017.158.079.814.431,1.733.506,2.552.022.239.052.521-.227.609-.333.105-.428-.145-.497-.403-.226-.85-.565-2.467-.628-3.323-.012-.166-.037-.344.065-.487.136-.189.317-.112.495-.163,1.06-.307,2.332-.943,3.369-1.15.599-.12.799.469.142.756-.718.314-1.626.544-2.384.815-.061.022-.124.025-.188.023Z"/>
  <path d="M26.534,25.499c.005.013-.005.033,0,.047.036.102.028.153.047.235.203.897.025,1.523-.002,2.374-.025.815.099,1.869.005,2.639-.002.015-.154.251-.168.256-.129.042-.193-.117-.208-.215-.122-.803.041-2.074.062-2.922.022-.882.044-1.767.03-2.65.055-.063.218.196.235.235Z"/>
  <path d="M13.879,35.662c.269.793.717,1.579.927,2.39.044.171.194.674.061.786-.526.253-.522-.403-.637-.728-.172-.488-.771-1.796-.775-2.213-.004-.423.224-.232.423-.235Z"/>
  <path d="M36.273,28.322c.042.011.075.034.088.078l-.003.169c-.373,1.338-1.305,2.751-1.354,4.153-.023.659.224,1.288.324,1.933.39,2.523.023,4.976-.273,7.481-.015.131-.001.264-.005.395.361.047.707-.06,1.059-.094.919-.089,2.063-.181,2.926-.509.179-.068.771-.428.885-.429.256-.001.291.344.116.489-.122.101-.863.461-1.035.518-1.757.583-4.706.722-6.561.588-.724-.052-1.531-.286-2.264-.371-3.372-.389-6.529-.241-9.871.281-2.15.336-4.251,1.095-6.447,1.221-3.004.172-6.091.391-9.07-.202-.357-.071-1.489-.381-1.448-.856.014-.161.21-.195.344-.166.014.003.076.102.148.141.624.335,1.338.416,2.03.512,2.791.39,5.993.205,8.793-.089,2.002-.21,3.9-.816,5.885-1.125,3.958-.616,7.89-.66,11.852.089l2.375.048c.015-.35-.021-.708,0-1.058.129-2.058.439-4.143.184-6.207-.204-1.653-.663-2.328-.062-4.068.341-.987.852-1.933,1.195-2.922.022.015.141-.012.188,0Z"/>
  <path class="cls-2" d="M23.759,30.722l-2.07,1.176c-1.234.088-2.341-.092-3.337-.873-.5-.392-.405-.882.195-1.07,1.076-.337,4.117.333,5.213.767Z"/>
  <path class="cls-2" d="M24.37,30.486c-.74-.551-1.527-1.102-2.233-1.695-.675-.567-1.768-1.455-1.933-2.349-.153-.833.356-.521.822-.257,1.089.617,2.087,1.679,2.693,2.764.259.463.551,1.023.65,1.537Z"/>
  <path class="cls-3" d="M23.759,30.722c.083.033.939.413.894.47-.968.304-1.943.634-2.964.706l2.07-1.176Z"/>
</svg>