<?xml version="1.0" encoding="UTF-8"?>
<svg id="Layer_1" data-name="Layer 1" xmlns="http://www.w3.org/2000/svg" viewBox="0 0 46.595 46.595">
  <defs>
    <style>
      .cls-1 {
        fill: #f63d50;
      }

      .cls-2 {
        fill: #56b4e9;
      }

      .cls-3 {
        fill: #fdfcfc;
      }

      .cls-4 {
        fill: #a04b54;
      }

      .cls-5 {
        fill: #5e2f34;
      }

      .cls-6 {
        fill: #fefefe;
      }

      .cls-7 {
        fill: #b2d5e8;
      }

      .cls-8 {
        fill: #7b555a;
      }
    </style>
  </defs>
  <path class="cls-7" d="M.047,0h46.548v46.548h-25.695l-.558-3.236-.084-3.621c1.046-1.001,1.968-2.049,2.899-3.152.398-.472.702-.656.956-1.278.752-1.841.734-4.125,1.207-6.054,1.447-2.015,4.232-4.577,3.48-7.34-.3-1.103-.969-1.375-2.045-1.094-.281.074-.503.24-.782.266-.022-.088.024-.133-.093-.186-.133-.092-.285-.089-.326-.279-.014-.065.01-.161,0-.233.094-.016.164-.147.186-.233.011-.042,0-.132,0-.186,0-.282-.089-.649-.093-.931,0-.031,0-.062,0-.093.11-.004.306-.136.326-.259.048-.288-.245-.37-.282-.6-.064-.405.249-.207.311-.537.024-.129-.073-.128-.076-.14-.013-.052.014-.136,0-.186-.027-.099-.138-.146-.233-.14.025-.173.197-.138.25-.335.027-.101.009-.234-.064-.316.008-.3.008-.118.105-.338.147-.333-.076-.435-.098-.578-.008-.055.077-.112.084-.18.014-.128-.025-.308,0-.409.009-.036.167-.08.235-.147.216-.214.222-.631.165-.91-.056-.276-.364-.48-.348-.722.006-.096.115-.138.148-.218.165-.403.304-.728.177-1.177-.074-.262-.238-.433-.515-.462l-.04-.054c-.053-.304.181-.533.052-.844-.028-.068-.122-.116-.142-.184-.151-.517.114-1.08.026-1.609-.064-.38-.258-.381-.429-.595-.025-.031-.314-.483-.327-.511-.136-.303.009-.73-.284-1.113-.333-.436-.592-.175-.858-.306-.054-.026-.072-.121-.128-.164-.105-.081-.387-.21-.429-.256-.1-.107-.129-.61-.348-.815-.122-.115-.278-.102-.393-.165-.085-.046-.151-.163-.24-.225-.423-.297-.707-.199-1.197-.223-.264-.588-.776-.665-1.342-.776-.699-.137-1.025-.233-1.65-.584-.295-.166-.376.015-.571.006-.133-.006-.273-.139-.39-.163-.36-.073-.295.026-.679-.159-.267-.129-.483-.182-.79-.12-.238.049-.324.284-.66.318-.568.057-.793-.286-1.35-.283-.435.002-.674.204-.99.27-.51.107-.581-.338-1.155-.27-.407.049-.664.443-1.115.423-.158-.007-.359-.164-.535-.213-.529-.148-.898-.081-1.198.398-.392-.062-1.127-.119-1.411.22-.196.234-.03.437-.442.476-.544.052-.923-.17-1.262.416-.587-.396-1.226-.161-1.326.557-.614-.153-.811.184-.806.753-.471.072-.747.373-.844.832-.048.225.024.435-.165.626-.1.101-.271.098-.411.194-.47.327-.569,1.32-.424,1.833-.562.059-.494.862-.413,1.276-.475.245-.685.837-.606,1.353.02.131.183.368.174.461-.008.084-.197.291-.233.416-.12.405-.023.8.282,1.087-.143.303-.232.62-.168.96.017.091.118.231.118.245,0,.029-.187.184-.231.269-.091.174-.12.509-.072.696.034.136.219.23.224.254.023.117-.086.401-.039.632.032.157.176.245.211.348.012.034.091.388.089.409s-.143.183-.18.269c-.178.423.042.828.521.777-.007.012.007.034,0,.047-.195.358-.352.6,0,.931-.015.117.047.292-.047.372-.296.082-.365.116-.233.465-.3-.045-.625-.077-.931-.093V0ZM35.693,5.6c-2.115.125-2.985,1.391-3.202,3.361-.27,2.46-.234,4.973-.325,7.449-.286,3.906-.127,7.82-.233,11.73-.015.553.022,1.458-.046,1.955-.036.262-.611.864-.785,1.124-1.385,2.068-1.349,5.084.386,6.951.632.68,2.749,1.236,3.676,1.304,1.519.111,3.223-.941,4.14-2.101,1.858-2.352,1.725-5.372-.483-7.42-.155-.144-.439-.237-.468-.463-.056-.423.045-.937.051-1.35.065-4.46.175-8.903.229-13.363.025-2.081.13-4.154-.144-6.229-.199-1.507-1.085-3.05-2.796-2.948Z"/>
  <path class="cls-6" d="M.047,20.109c0,2.606,0,5.214,0,7.82.001,6.206,0,12.414,0,18.62,1.427,0,2.856-.002,4.283,0,5.523.007,11.048,0,16.571,0h25.695v.047H0V0h.047v20.109Z"/>
  <path class="cls-7" d="M.047,27.929l1.01.852.04.121c.116,1.929.149,3.931.5,5.833.154.834.314,1.217.805,1.895.63.87,1.375,1.672,2.151,2.411.003.554.03,1.114.012,1.668-.033,1.002-.111,2.019-.143,3.022l-.091,2.818c-1.427-.002-2.856.001-4.283,0,0-6.206.001-12.414,0-18.62Z"/>
  <path class="cls-4" d="M1.257,18.387c.019-.033.228-.346.244-.361.059-.056.277-.076.347-.165.091-.117.114-.393.113-.539.456-.046.547-.464.235-.773.194-.169.269-.361.314-.61.01-.054-.04-.126-.031-.176.01-.054.235-.318.26-.482.021-.137-.124-.251-.119-.315.003-.039.372-.365.407-.65.05-.402-.071-.798-.513-.863.026-.175.176-.282.213-.463.032-.158-.03-.29-.007-.377.021-.08.145-.208.189-.325.205-.544.17-1.192-.105-1.7.009-.056.264-.15.338-.208.194-.151.722-.763.722-1.001v-1.094l1.556.137c.479-.07.717-.797.945-.829.068-.01.37.199.552.223.262.035,1.063-.032,1.293-.142.14-.067.35-.261.478-.363.182.104.335.285.555.32.513.08,1.576-.093,2.053-.315.19-.088.727-.56.786-.568.32-.045.389.399.582.58.716.675,1.842.355,2.255-.485.4.383,1.43.626,1.91.373.414-.219.362-.549.436-.952l.207-.029c.104.304.166.457.454.626.228.134.607.333.847.456.685.351.855-.219,1.475-.335.176.998,1.434,1.225,2.234.838-.04.27-.244.249-.236.582.004.163.3.899.402,1.044.169.24.473.433.765.469-.267.548.08,1.487.627,1.724.076.033.153.024.21.044.281.096.313.253.14.512-.015.006-.038-.007-.047,0l-.047.093c-.035.029-.11-.047-.135.167-.028.235.03.462.203.627.092.087.286.152.327.232.01.021.116.422.117.447.008.177-.19.164-.267.333-.089.195-.091.611.015.798.116.205.337.442.439.702.034.086.092.318.088.399-.004.078-.072.112-.088.159-.329.312-.415.926.186.792.005.067-.034.124-.046.186-.173.129-.236.314-.136.522.023.049.116.047.122.157.012.226-.208.428-.117.731.05.168.247.131.326.176.084.048.145.188.316.182,0,.031,0,.062,0,.093-.24-.038-.458-.138-.559.14-.053.145-.032.152,0,.279.047.186.176.272.182.309.008.046-.087.126-.094.226-.016.224.139.436.377.396.01.072-.014.167,0,.233-.586.007-.561.355-.186.698.237.217.418.19.63-.049.053-.076-.012-.129-.025-.184.278-.025.5-.192.782-.266,1.076-.282,1.744-.01,2.045,1.094.752,2.763-2.033,5.325-3.48,7.34-.473,1.929-.455,4.213-1.207,6.054-.254.622-.558.806-.956,1.278-.932,1.104-1.853,2.151-2.899,3.152l.084,3.621.558,3.236c-5.523,0-11.048.007-16.571,0l.091-2.818c.033-1.002.111-2.019.143-3.022.018-.554-.009-1.114-.012-1.668-.776-.739-1.521-1.541-2.151-2.411-.491-.677-.651-1.06-.805-1.895-.351-1.902-.384-3.904-.5-5.833l-.04-.121-1.01-.852c0-2.606,0-5.214,0-7.82.306.017.631.048.931.093.027.004.079.074.128.08.436.052.664-.044.757-.499-.135.021-.235-.138-.349-.137-.026,0-.25.076-.303.09.093-.08.032-.256.047-.372.692.046.575-.839,0-.931.007-.012-.007-.035,0-.047ZM16.08,8.73c-.352-.454-.481.221-.569.521-.099.339-.137.676-.199,1.057-.011.07-.08.124-.089.191-.111.897.244,1.553,1.228,1.415.212-.03.274-.129.336-.315.312-.933-.183-1.945-.631-2.7-.027-.046.005-.063-.076-.168ZM10.182,11.28c-.391-.129-.445.345-.552.598-.184.439-.385.976-.559,1.489-.056.164-.15.468-.178.669-.029.212.009.56.107.751.012.023.348.358.37.372.032.02.368.195.39.2.176.041.595.048.77-.003.034-.01.03-.064.075-.085.033-.015.094.005.133-.019.015-.009.222-.235.233-.254.48-.84-.149-2.077-.419-2.81-.083-.225-.18-.476-.249-.66-.022-.059-.041-.222-.121-.249ZM19.399,13.42c-.087-.028-.177-.018-.265-.012.029.189-.135.349-.176.498-.093.334-.124.808-.199,1.143-.008.035-.083.028-.091.064-.078.326-.011.988.231,1.248.147.158.469.264.677.3.065.011.17.015.234.007.079-.011.054-.07.105-.093.033-.015.096.007.134-.018.09-.058.317-.313.351-.418.054-.166.063-.72.039-.898-.011-.087-.088-.06-.096-.098-.036-.167-.028-.362-.185-.468-.066-.159-.666-1.224-.758-1.254ZM17.16,20.218c-.213-.209-.505-.061-.492.235.023.494.912,1.633,1.298,1.96.777.657,1.99.961,2.997.855.257-.027.778-.154.673-.519-.1-.348-.521-.152-.718-.132-1.005.101-2.299-.41-2.95-1.183-.282-.335-.545-.956-.809-1.216ZM10.921,22.233c.21-.304.701-1.33.203-1.541-.472-.2-.555.457-.72.768-.443.833-1.336,1.517-2.284,1.63l-1.185-.076c-.41.278-.153.582.223.713,1.367.48,2.985-.369,3.763-1.494ZM15.947,26.884c-.955.793-2.577.942-3.566.137-.207-.169-.624-.795-.85-.761-.33.05-.222.507-.118.705.852,1.615,3.978,1.639,5.11.334.207-.239,1.106-1.511.351-1.514-.294-.001-.367.43-.515.651-.069.103-.31.363-.412.448ZM16.226,32.417c-.838-.755-2.198-1.062-3.294-.889-1.685.265-2.967,1.027-3.669,2.615-.108.244-.252.662-.176.922.06.205.331.285.482.128.06-.062.278-.728.361-.896.807-1.626,2.404-2.219,4.151-2.085,1.196.092,1.714.588,2.397,1.513.428.58.646,1.195.957,1.835.29.233.532,0,.484-.343-.023-.167-.332-.88-.424-1.068-.232-.476-.879-1.381-1.27-1.733ZM6.923,40.509c-.263-.271-.653.098-.426.496s1.797.989,2.265,1.133c1.823.56,4.108,1.013,5.971.454.758-.227,1.594-.602,2.304-.954.266-.132.97-.455,1.161-.608.307-.245.239-.749-.198-.617-.07.021-.335.234-.451.294-1.098.566-2.77,1.418-3.986,1.553-1.601.178-4.744-.54-6.157-1.327-.094-.053-.293-.143-.356-.202-.078-.073-.081-.174-.127-.222Z"/>
  <path d="M16.226,32.417c.391.352,1.038,1.257,1.27,1.733.091.188.4.901.424,1.068.048.343-.195.576-.484.343-.311-.64-.529-1.255-.957-1.835-.683-.925-1.201-1.421-2.397-1.513-1.747-.134-3.344.459-4.151,2.085-.083.168-.301.834-.361.896-.151.157-.422.076-.482-.128-.077-.261.068-.678.176-.922.702-1.588,1.984-2.349,3.669-2.615,1.096-.172,2.456.135,3.294.889Z"/>
  <path d="M6.923,40.509c.046.047.049.149.127.222.063.059.262.15.356.202,1.413.787,4.556,1.506,6.157,1.327,1.216-.135,2.888-.987,3.986-1.553.115-.059.381-.272.451-.294.437-.132.505.371.198.617-.191.153-.895.476-1.161.608-.71.353-1.546.727-2.304.954-1.863.558-4.148.106-5.971-.454-.468-.144-2.037-.735-2.265-1.133s.163-.767.426-.496Z"/>
  <path d="M15.947,26.884c.102-.085.343-.345.412-.448.148-.221.221-.652.515-.651.755.003-.144,1.275-.351,1.514-1.131,1.305-4.258,1.281-5.11-.334-.104-.197-.212-.655.118-.705.226-.034.643.592.85.761.989.804,2.61.655,3.566-.137Z"/>
  <path d="M10.921,22.233c-.778,1.125-2.396,1.973-3.763,1.494-.376-.132-.632-.436-.223-.713l1.185.076c.948-.113,1.841-.797,2.284-1.63.165-.31.248-.968.72-.768.498.211.007,1.237-.203,1.541Z"/>
  <path d="M17.16,20.218c.264.26.527.881.809,1.216.651.773,1.944,1.285,2.95,1.183.198-.02.618-.216.718.132.105.365-.415.492-.673.519-1.007.106-2.22-.198-2.997-.855-.387-.327-1.275-1.466-1.298-1.96-.014-.296.279-.445.492-.235Z"/>
  <g>
    <path class="cls-3" d="M35.693,5.6c1.711-.101,2.596,1.442,2.796,2.948.274,2.075.17,4.148.144,6.229-.054,4.46-.164,8.903-.229,13.363-.006.414-.106.928-.051,1.35.03.226.313.319.468.463,2.208,2.048,2.341,5.068.483,7.42-.917,1.161-2.62,2.212-4.14,2.101-.927-.068-3.044-.624-3.676-1.304-1.735-1.867-1.771-4.883-.386-6.951.174-.26.748-.862.785-1.124.069-.497.031-1.402.046-1.955.106-3.91-.053-7.824.233-11.73.09-2.476.054-4.989.325-7.449.217-1.97,1.086-3.236,3.202-3.361ZM37.937,15.035v-3.328c0-.016-.113-.097-.14-.14-.11-.179-.083-.273-.348-.304-1.151-.132-2.548.102-3.726,0-.124,0-.296.102-.337.222-.052.152-.096.642-.106.825-.035.608.023,1.252.004,1.866-.155,5.007-.29,10.026-.469,15.031-.015.408.059.972,0,1.349-.031.198-.555.619-.715.821-2.444,3.082-.501,7.917,3.661,7.245,3.43-.554,5.352-5.089,2.946-7.762-.279-.31-.547-.424-.862-.674v-5.981c-.579.002-1.159.092-1.74.041-.109-.01-.344-.039-.436-.076-.206-.083-.301-.367-.153-.548.147-.18.847-.242,1.093-.256.407-.024.828.021,1.236.002l.047-3.585-2.02.088c-.558-.04-.623-.677-.041-.775l2.06-.104.046-3.352c-.426.089-.849.075-1.279.094-.295.013-1.095.196-1.214-.185-.052-.167.013-.365.177-.433.037-.015.357-.081.384-.081h1.932Z"/>
    <path class="cls-1" d="M37.937,15.035h-1.932c-.027,0-.348.066-.384.081-.165.068-.229.266-.177.433.119.381.918.198,1.214.185.431-.019.853-.005,1.279-.094l-.046,3.352-2.06.104c-.582.098-.517.735.041.775l2.02-.088-.047,3.585c-.408.019-.829-.026-1.236-.002-.246.014-.946.076-1.093.256-.149.181-.053.466.153.548.092.037.327.066.436.076.581.051,1.16-.039,1.74-.041v5.981c.315.25.582.364.862.674,2.406,2.673.484,7.208-2.946,7.762-4.162.672-6.105-4.163-3.661-7.245.16-.202.684-.623.715-.821.06-.377-.014-.942,0-1.349.18-5.005.314-10.024.469-15.031.019-.614-.039-1.258-.004-1.866.01-.183.054-.673.106-.825.041-.119.213-.221.337-.222,1.178.102,2.575-.132,3.726,0,.265.031.238.125.348.304.026.042.14.124.14.14v3.328Z"/>
  </g>
  <path d="M1.257,18.387c-.479.051-.699-.354-.521-.777.037-.087.177-.248.18-.269s-.077-.375-.089-.409c-.035-.102-.179-.191-.211-.348-.048-.231.062-.514.039-.632-.005-.024-.19-.118-.224-.254-.048-.187-.019-.521.072-.696.045-.086.23-.24.231-.269,0-.014-.101-.154-.118-.245-.064-.341.025-.657.168-.96-.305-.287-.402-.683-.282-1.087.037-.125.225-.332.233-.416.009-.093-.154-.33-.174-.461-.079-.517.131-1.108.606-1.353-.081-.414-.149-1.216.413-1.276-.145-.513-.046-1.507.424-1.833.139-.097.31-.093.411-.194.189-.191.117-.401.165-.626.097-.459.373-.76.844-.832-.005-.569.193-.906.806-.753.1-.718.739-.953,1.326-.557.339-.587.718-.365,1.262-.416.412-.039.245-.243.442-.476.284-.339,1.02-.282,1.411-.22.3-.479.669-.546,1.198-.398.176.049.377.206.535.213.452.02.708-.374,1.115-.423.574-.069.645.376,1.155.27.316-.066.555-.268.99-.27.557-.003.782.34,1.35.283.336-.033.422-.269.66-.318.307-.063.523-.009.79.12.383.185.318.086.679.159.118.024.257.157.39.163.195.009.276-.172.571-.006.626.351.951.447,1.65.584.566.111,1.077.188,1.342.776.489.025.774-.073,1.197.223.089.063.156.179.24.225.115.063.271.051.393.165.219.206.248.709.348.815.043.046.324.175.429.256.056.043.074.137.128.164.267.131.525-.13.858.306.293.383.148.809.284,1.113.013.028.302.48.327.511.172.213.366.215.429.595.088.528-.177,1.092-.026,1.609.02.068.113.116.142.184.129.31-.106.54-.052.844l.04.054c.277.029.441.2.515.462.127.449-.012.774-.177,1.177-.033.08-.141.122-.148.218-.016.242.292.446.348.722.057.279.051.697-.165.91-.068.067-.226.111-.235.147-.025.101.014.281,0,.409-.008.068-.093.125-.084.18.021.143.245.245.098.578-.097.22-.096.037-.105.338-.009.326-.042.268-.233.465-.163-.043-.486.022-.619,0-.012-.002-.109-.148-.199-.138-.052-.06.128-.446.166-.561.117-.111.376-.158.374-.348l-.374-.21c-.102-.26-.323-.497-.439-.702-.106-.188-.103-.604-.015-.798.077-.169.274-.156.267-.333-.001-.024-.107-.426-.117-.447-.041-.08-.235-.144-.327-.232-.173-.165-.232-.392-.203-.627.026-.213.1-.137.135-.167.064-.053.043-.09.047-.093.008-.007.032.006.047,0,.536-.214.621-.058.908.372l.116-.116-.698-.746-.466-.023c-.058-.02-.135-.011-.21-.044-.547-.238-.894-1.177-.627-1.724-.292-.036-.596-.229-.765-.469-.103-.146-.398-.882-.402-1.044-.008-.333.196-.312.236-.582-.8.387-2.058.16-2.234-.838-.621.116-.79.687-1.475.335-.24-.123-.619-.322-.847-.456-.288-.169-.35-.322-.454-.626l-.207.029c-.074.403-.021.733-.436.952-.48.253-1.51.01-1.91-.373-.412.84-1.539,1.16-2.255.485-.193-.182-.262-.626-.582-.58-.058.008-.596.48-.786.568-.478.222-1.541.395-2.053.315-.221-.034-.373-.216-.555-.32-.128.102-.339.296-.478.363-.23.11-1.031.177-1.293.142-.181-.024-.483-.233-.552-.223-.228.033-.466.76-.945.829l-1.556-.137v1.094c0,.238-.527.85-.722,1.001-.074.058-.33.151-.338.208.275.508.31,1.156.105,1.7-.044.117-.168.245-.189.325-.023.087.038.219.007.377-.036.181-.187.288-.213.463.442.065.563.46.513.863-.036.285-.404.611-.407.65-.005.064.14.178.119.315-.025.164-.25.429-.26.482-.009.05.04.122.031.176-.045.248-.119.44-.314.61.312.309.221.728-.235.773,0,.146-.022.423-.113.539-.07.09-.288.11-.347.165-.016.015-.225.328-.244.361ZM12.708,5.167h.791c.006-.109.016-.082-.069-.093-.164-.021-.42-.007-.584.023-.05.009-.15.004-.138.071Z"/>
  <path d="M25.136,17.223c-.026.106-.121.212-.086.339.204.418.737.09.878-.199.003.013.101.012.076.14-.062.33-.375.131-.311.537.037.231.329.312.282.6-.02.122-.216.255-.326.259-.171.006-.232-.135-.316-.182-.079-.045-.276-.008-.326-.176-.091-.304.129-.505.117-.731-.006-.11-.099-.108-.122-.157-.1-.208-.037-.393.136-.522-.006.028.007.066,0,.093ZM25.536,18.173c-.14-.091-.211-.146-.4-.112-.051.183.099.222.16.329.099.176.216.603.494.3.193-.211-.083-.405-.254-.516Z"/>
  <path d="M25.089,19.131c.284-.153.55-.111.562.257.006.197-.149.362.09.535,0,.054.011.145,0,.186-.284.167-.52.12-.47-.259.014-.106.131-.028.097-.159-.189-.006-.148-.205-.279-.28-.032-.127-.053-.134,0-.279Z"/>
  <path d="M1.257,19.364c-.352-.331-.195-.573,0-.931.575.092.692.977,0,.931Z"/>
  <path d="M25.695,17.13c.078.014.157.018.233.047.014.05-.013.134,0,.186-.14.289-.673.617-.878.199-.035-.126.06-.232.086-.339.187-.202.323-.135.559-.093Z"/>
  <path d="M1.21,19.736c.053-.015.277-.09.303-.09.115,0,.214.159.349.137-.092.455-.321.551-.757.499-.049-.006-.101-.076-.128-.08-.132-.35-.063-.383.233-.465Z"/>
  <path d="M25.881,20.854c.118.054.072.098.093.186.013.055.078.108.025.184-.212.238-.393.265-.63.049-.15-.382.176-.572.512-.419Z"/>
  <path class="cls-5" d="M25.555,20.574c.041.19.193.188.326.279-.336-.153-.662.037-.512.419-.375-.343-.4-.691.186-.698Z"/>
  <path d="M25.648,18.992c.004.282.092.649.093.931-.238-.173-.083-.338-.09-.535-.012-.368-.278-.41-.562-.257.101-.278.318-.177.559-.14Z"/>
  <path class="cls-8" d="M25.881,16.385c.073.082.091.215.064.316-.053.197-.225.162-.25.335.095-.006.206.041.233.14-.075-.028-.155-.033-.233-.047l-.142-.12.012-.105c.026-.019.061-.031.083-.054.191-.198.224-.14.233-.465Z"/>
  <path d="M25.089,19.411c.131.076.09.274.279.28.034.131-.083.053-.097.159-.051.38.186.426.47.259-.022.086-.092.217-.186.233-.238.04-.393-.172-.377-.396.007-.1.102-.18.094-.226-.006-.037-.135-.122-.182-.309Z"/>
  <path class="cls-2" d="M10.129,11.206c.256.106.396.639.514.932.2.538.418,1.063.528,1.661.119.629.052,1.388-.561,1.681-.465.217-1.061.07-1.421-.29-.454-.427-.424-1.102-.256-1.656.146-.51.343-1.022.524-1.506.122-.281.281-.91.663-.826l.009.004Z"/>
  <path class="cls-2" d="M19.341,13.333c.368.149.556.623.751.953.294.553.505,1.074.407,1.677-.195,1.18-1.583,1.112-1.863.016-.15-.652.05-1.346.204-1.99.084-.304.237-.718.491-.659l.009.002Z"/>
  <path class="cls-2" d="M16.048,8.605c.556.79,1.184,2.227.738,3.168-.137.249-.446.31-.715.28-.91-.075-1.034-1.095-.816-1.839.098-.303.241-2.099.784-1.618l.009.009Z"/>
  <path d="M24.391,12.196c.174-.259.141-.416-.14-.512l.466.023.698.746-.116.116c-.287-.43-.373-.586-.908-.372Z"/>
  <path d="M24.996,16.152c-.038.115-.218.502-.166.561.09-.01.186.136.199.138.133.021.456-.044.619,0-.022.023-.057.035-.083.054l-.012.105.142.12c-.236-.042-.372-.109-.559.093.007-.027-.006-.065,0-.093.013-.062.051-.119.046-.186-.601.135-.515-.48-.186-.792Z"/>
  <path d="M24.996,15.594l.374.21c.002.19-.256.237-.374.348.015-.047.084-.082.088-.159.004-.081-.054-.313-.088-.399Z"/>
  <path d="M24.298,12.289l.047-.093s.018.04-.047.093Z"/>
  <path d="M12.708,5.167c-.012-.067.089-.062.138-.071.164-.029.421-.043.584-.023.085.011.075-.016.069.093h-.791Z"/>
  <path d="M25.536,18.173c.17.111.447.305.254.516-.278.303-.395-.124-.494-.3-.06-.107-.211-.146-.16-.329.189-.033.26.021.4.112Z"/>
</svg>