<?xml version="1.0" encoding="UTF-8"?>
<svg id="Layer_1" data-name="Layer 1" xmlns="http://www.w3.org/2000/svg" viewBox="0 0 46.417 46.417">
  <defs>
    <style>
      .cls-1 {
        fill: #039c72;
      }

      .cls-2 {
        fill: #56b3e7;
      }

      .cls-3 {
        fill: #fefefe;
      }

      .cls-4 {
        fill: #b2d5e8;
      }

      .cls-5 {
        fill: #0072b2;
      }
    </style>
  </defs>
  <path class="cls-4" d="M.046,0h46.371v46.371H.046s0-46.371,0-46.371ZM40.018,13.355c-1.061-5.28-6.057-9.034-11.43-8.717-.214.013-.967.093-1.115.184-.067.041-.108.153-.193.178-.555.16-1.123.188-1.727.406-.718.259-1.263.646-1.919.962-.126.061-.129-.067-.309.172-.103-.016-.142.041-.212.089-.691.474-1.043.95-1.55,1.58-1.963,2.438-2.711,5.071-2.112,8.209,1.133,5.931,7.604,10.092,13.472,8.345.037-.011.104.011.139,0,.052-.017.051-.045.046-.093.012-.004.03.003.046,0,.565-.101,1.072-.321,1.585-.571,3.64-1.768,5.675-5.434,5.465-9.47-.008-.154-.044-.386-.095-.531-.01-.214-.024-.541-.093-.742ZM15.302,14.375c-.306-.317-1.354-.539-1.837-.597-3.177-.385-6.313,1.848-6.988,4.964-.367,1.693,0,3.613,1.174,4.907.523.991,2.12,1.685,3.153,1.948.134.034.213.062.371.093.121.024.198.079.371.093,5.565.432,9.367-6.07,5.394-10.328-.049-.053-.073-.091-.154-.106-.361-.488-.725-.579-1.225-.84-.036-.019-.248-.122-.259-.134ZM25.179,28.796c-.179-.287-.325-.238-.371.093-2.605.793-5.28,1.399-7.861,2.271-2.871.971-5.199,1.921-4.845,5.495.236,2.38,1.248,4.28,3.826,4.521,1.578.148,2.99-.054,4.522-.392,2.578-.568,5.123-1.401,7.65-2.158,2.645-.793,5.266-1.608,7.89-2.474,1.61-.531,4.161-1.085,5.23-2.432,1.327-1.672,1.449-3.527.49-5.436-1.643-3.269-5.454-2.299-8.35-1.671-1.287.279-2.599.58-3.87.953-1.435.421-2.816,1.022-4.312,1.229Z"/>
  <polygon class="cls-3" points=".046 0 .046 46.371 46.417 46.371 46.417 46.417 0 46.417 0 0 .046 0"/>
  <g>
    <g>
      <g>
        <path class="cls-5" d="M40.018,13.355c-.004-.011-.131-.074-.093-.185-.03.003-.134.118-.136.127-.043.195.052.7.046.965-.017.781-.18,1.734-.386,2.489-.783,2.872-2.929,5.36-5.736,6.389l-5.774-18.131c-.128-.305-.42-.238-.344.111l5.362,17.082c.205.654.334,1.364.622,1.975.177.377.473.217.41-.178-.019-.122-.168-.258-.045-.375.063-.06.897-.381,1.091-.485,1.994-1.066,3.597-2.853,4.483-4.931.572-1.341.665-2.66.595-4.112.051.145.087.377.095.531.21,4.037-1.825,7.702-5.465,9.47-.514.25-1.021.47-1.585.571.03-.472-.223-.902-.349-1.343-1.35-4.689-2.869-9.324-4.274-13.996-.343-1.142-.653-2.879-1.15-3.905-.056-.115-.152-.276-.3-.21-.275.123-.048.476-.034.683,1.876,5.858,3.559,11.777,5.366,17.657-.336.052-.707.157-1.044.185-7.786.651-13.157-7.536-9.861-14.545.481-1.022,1.158-1.784,1.817-2.658.18-.239.183-.111.309-.172.656-.316,1.201-.702,1.919-.962.604-.218,1.172-.246,1.727-.406.086-.025.127-.137.193-.178.147-.09.901-.171,1.115-.184,5.373-.316,10.369,3.438,11.43,8.717Z"/>
        <path class="cls-5" d="M21.562,8.208l-.778,1.657c-1.583,4.202-.303,9.106,3.12,11.975,2.404,2.014,5.6,2.865,8.692,2.181.084.259.094.573.326.741-5.869,1.747-12.34-2.414-13.472-8.345-.599-3.138.149-5.771,2.112-8.209Z"/>
        <g>
          <path d="M33.155,24.669c-.016.003-.034-.004-.046,0-.052.018-.05.045-.046.093-.035.011-.102-.011-.139,0-.231-.169-.241-.483-.326-.741-3.092.684-6.289-.167-8.692-2.181-3.423-2.869-4.704-7.773-3.12-11.975l.778-1.657c.507-.63.859-1.107,1.55-1.58.07-.048.109-.105.212-.089-.658.874-1.336,1.636-1.817,2.658-3.295,7.008,2.076,15.195,9.861,14.545.337-.028.708-.133,1.044-.185-1.807-5.88-3.49-11.799-5.366-17.657-.014-.208-.241-.56.034-.683.148-.066.244.095.3.21.497,1.026.806,2.763,1.15,3.905,1.405,4.672,2.924,9.307,4.274,13.996.127.441.38.871.349,1.343Z"/>
          <path d="M40.111,14.097c.07,1.452-.023,2.771-.595,4.112-.886,2.078-2.489,3.865-4.483,4.931-.194.104-1.028.425-1.091.485-.123.117.026.253.045.375.063.395-.233.555-.41.178-.287-.612-.416-1.322-.622-1.975l-5.362-17.082c-.076-.35.216-.416.344-.111l5.774,18.131c2.807-1.029,4.953-3.517,5.736-6.389.206-.755.369-1.708.386-2.489.006-.265-.089-.77-.046-.965.002-.009.106-.124.136-.127-.038.111.09.175.093.185.069.201.082.528.093.742Z"/>
        </g>
      </g>
      <g>
        <path class="cls-5" d="M7.651,23.649c-1.173-1.293-1.541-3.214-1.174-4.907.675-3.116,3.81-5.349,6.988-4.964.483.059,1.531.28,1.837.597-.158-.007-.091.023-.015.085,1.721,1.399,2.458,3.185,1.987,5.435-.556,2.661-2.852,4.827-5.589,5.053l1.483-11.082-.225.006-1.768,11.818c-.157-.031-.237-.059-.371-.093.085-.293.055-.621.095-.902.472-3.284,1.072-6.609,1.388-9.926.015-.157.063-.522.05-.65-.02-.202-.183-.29-.303-.113-.591,3.486-.988,7.008-1.503,10.507-.017.113-.002.229-.005.343-1.04-.071-2.149-.662-2.79-1.477l-.083.038-.05-.184c-.194-.06.013.352.047.417Z"/>
        <path d="M11.175,25.689l1.768-11.818.225-.006-1.483,11.082c2.738-.225,5.033-2.392,5.589-5.053.471-2.25-.267-4.036-1.987-5.435-.076-.062-.142-.092.015-.085.011.012.223.115.259.134.5.26.864.351,1.225.84.953,1.288,1.174,3.195.86,4.732-.58,2.832-3.104,5.192-6.025,5.372l-.074.33c-.173-.013-.25-.069-.371-.093Z"/>
        <path class="cls-5" d="M16.786,15.349c.082.015.105.053.154.106,3.972,4.258.17,10.76-5.394,10.328l.074-.33c2.921-.181,5.445-2.54,6.025-5.372.315-1.536.093-3.444-.86-4.732Z"/>
        <path d="M10.804,25.597c-1.033-.263-2.631-.956-3.153-1.948-.034-.065-.241-.477-.047-.417l.05.184.083-.038c.641.815,1.75,1.406,2.79,1.477.003-.113-.011-.229.005-.343.515-3.498.912-7.021,1.503-10.507.121-.177.284-.088.303.113.013.128-.035.493-.05.65-.316,3.317-.916,6.642-1.388,9.926-.04.281-.01.608-.095.902Z"/>
      </g>
    </g>
    <g>
      <path class="cls-2" d="M25.179,28.796c1.496-.207,2.877-.808,4.312-1.229,1.271-.373,2.582-.674,3.87-.953,2.896-.628,6.708-1.597,8.35,1.671.959,1.908.836,3.764-.49,5.436-1.069,1.347-3.62,1.901-5.23,2.432-2.624.866-5.246,1.681-7.89,2.474l-.046-.139c-.729-2.591-1.462-5.209-2.249-7.79-.139-.456-.407-1.552-.626-1.901Z"/>
      <g>
        <path class="cls-5" d="M24.808,28.889c.919,3.075,1.687,6.21,2.677,9.263.108.333.087.7.569.335l.046.139c-2.526.757-5.071,1.59-7.65,2.158-1.532.338-2.945.54-4.522.392-2.577-.242-3.589-2.141-3.826-4.521-.355-3.575,1.974-4.524,4.845-5.495,2.581-.873,5.256-1.478,7.861-2.271Z"/>
        <path d="M25.179,28.796c.219.35.487,1.445.626,1.901.788,2.581,1.52,5.199,2.249,7.79-.482.365-.461-.002-.569-.335-.99-3.053-1.758-6.188-2.677-9.263.046-.33.192-.379.371-.093Z"/>
      </g>
    </g>
    <path class="cls-1" d="M33.062,24.762c-.003-.048-.005-.075.046-.093.004.048.006.076-.046.093Z"/>
  </g>
</svg>