<?xml version="1.0" encoding="UTF-8"?>
<svg id="Layer_1" data-name="Layer 1" xmlns="http://www.w3.org/2000/svg" viewBox="0 0 46.772 46.772">
  <defs>
    <style>
      .cls-1 {
        fill: #b2d5e8;
      }

      .cls-2 {
        fill: #0072b2;
      }
    </style>
  </defs>
  <path class="cls-1" d="M46.772,0v46.772H0V0h46.772ZM38.375,33.235c.033-.028.112-.022.152-.056.115-.097.046-.26.079-.39,1.044-4.109,2.872-7.585,1.798-11.959-.33-1.344-.937-2.936-1.597-4.15-.425-.78-.976-1.354-1.133-2.278-.224-1.318-.219-2.009-.94-3.219-.851-1.428-2.56-2.021-3.789-2.986-.395-.311-.737-.797-1.125-1.118-.489-.404-1.982-.922-2.64-1.145-1.061-.359-2.055-.548-3.179-.606-.498-.026-1.536.017-1.295.781.215.682,1.176,1.412,1.644,1.953,2.612,3.017,4.847,7.616,5.995,11.434.745,2.481.979,6.044.535,8.596-.437,2.51-2.571,5.166-4.836,6.285-4.814,2.377-9.994.739-15.032.294-1.546-.137-3.337-.241-4.813.279-.585.206-2.138.713-.768,1.19.644.225,1.349.273,1.996.48.881.283,1.331.696,2.071,1.153.676.418,1.447.756,2.095,1.176.82.531,1.52,1.349,2.534,1.578,1.453.328,2.933-.681,4.362-.763,1.118-.064,2.258.659,3.377.827,1.274.191,3.218.348,4.305-.435.886-.638,1.13-1.11,2.247-1.584,1.581-.671,3.272-1.161,4.655-2.167.885-.643,1.793-1.325,2.564-2.108.261-.265.612-.959.736-1.063ZM23.836,19.071c.308-.134.924-.792.972-1.108.227-1.492-.947-3.19-1.688-4.427-.744-1.241-1.545-2.518-2.363-3.711-.798-1.164-2.24-3.502-3.95-2.575-.722.391-1.543,1.262-1.692,2.092-.18,1.002,1.107,2.536,1.633,3.371,1.312,2.078,2.69,4.639,4.234,6.513.639.776,1.15.654,2.007.327.185-.071.351-.232.559-.207.341,1.109,1.431,1.883,1.814,2.975.652,1.855-1.794,4.966-.177,6.532.645.624,1.337.721,2.074,1.103.759.394.779,1.019.966,1.768l.137.002c.279-1.117.012-1.788-1.011-2.283-.713-.345-2.118-.725-2.212-1.666-.23-2.289,1.62-3.987.317-6.298-.416-.738-1.279-1.522-1.59-2.242-.021-.049-.06-.117-.03-.167ZM6.588,15.513c-.428.128-.614.893-.688,1.298-.499,2.745,3.056,2.26,3.905,4.106.474,1.03-.038,1.796,1.012,2.632.712.567,1.769.543,2.639.562-.185.422-.376.869-.414,1.337-.104,1.249,1.518,1.662,2.395,2.079,1.834.873,4.056,2.063,6.128,2.144.573.022.665-.241.897-.691.401-.78,1.125-2.167,1.044-3.026-.038-.402-.614-.642-.952-.823-1.394-.748-2.965-1.125-4.435-1.686-.886-.338-1.829-.889-2.746-1.132-.707-.187-.85.041-1.224.596-.079.117-.377.708-.442.729-.859-.095-2.024.034-2.697-.607-.533-.507-.392-.865-.508-1.502-.206-1.128-.719-1.609-1.656-2.176-.656-.397-1.788-.716-2.234-1.27-.617-.765-.092-1.712-.023-2.57Z"/>
  <path class="cls-2" d="M38.375,33.235c-.124.104-.476.798-.736,1.063-.771.783-1.679,1.465-2.564,2.108-1.384,1.005-3.074,1.496-4.655,2.167-1.118.474-1.362.946-2.247,1.584-1.087.783-3.031.626-4.305.435-1.119-.168-2.259-.892-3.377-.827-1.429.082-2.91,1.091-4.362.763-1.014-.229-1.714-1.047-2.534-1.578-.648-.42-1.419-.758-2.095-1.176-.74-.457-1.19-.87-2.071-1.153-.647-.208-1.352-.256-1.996-.48-1.37-.477.183-.984.768-1.19,1.477-.52,3.267-.416,4.813-.279,5.038.445,10.219,2.083,15.032-.294,2.265-1.119,4.399-3.774,4.836-6.285.444-2.552.211-6.116-.535-8.596-1.147-3.818-3.382-8.416-5.995-11.434-.469-.541-1.429-1.271-1.644-1.953-.241-.764.797-.807,1.295-.781,1.123.058,2.118.247,3.179.606.658.223,2.151.741,2.64,1.145.388.321.729.807,1.125,1.118,1.228.965,2.938,1.558,3.789,2.986.721,1.21.716,1.901.94,3.219.157.924.708,1.498,1.133,2.278.661,1.214,1.267,2.806,1.597,4.15,1.074,4.374-.754,7.85-1.798,11.959-.033.13.036.293-.079.39-.04.034-.119.028-.152.056ZM31.025,7.15l-1.448-.515.966,1.163c.067.026.087-.005.13-.043.068-.059.395-.543.351-.606ZM31.355,7.431l-.418.713.906.873c.109-.113.565-.541.532-.667-.016-.059-.781-.827-.857-.876-.055-.036-.095-.061-.164-.043ZM28.769,8.371c-.373.109-.27,1.335.411.881.504-.337.031-1.01-.411-.881ZM32.666,8.648l-.511.674.85.861.824-.814c-.125-.113-1.106-.76-1.163-.721ZM34.117,9.634l-.846.909.819.996,1.28-1.097c.018-.082-.473-.401-.564-.463-.119-.079-.584-.408-.689-.346ZM31.482,10.709c-.377.091-.35.733-.082.854.587.265.784-1.024.082-.854ZM34.346,11.826l.722,1.258,1.468-1.196c-.076-.282-.641-1.149-.907-1.188l-.444.539-.839.588ZM36.772,12.289c-.217.024-.335.244-.491.373-.326.269-.673.512-1.001.779l.915,1.556,1-.589c-.004-.731-.151-1.445-.423-2.118ZM32.554,14.682c-.412.093-.266.702-.073.941.188.234.78.144.832-.183.09-.566-.165-.891-.758-.758ZM37.984,16.302l-.72-1.396-.859.52.671,1.628c.337-.22.593-.524.908-.751ZM34.891,16.361c-.369.065-.411.976-.196,1.205.362.384.832-.378.818-.721-.011-.261-.374-.528-.623-.484ZM37.569,18.548c.059.051,1.242-.39,1.398-.492-.117-.211-.633-1.405-.77-1.468-.081-.037-.202.32-.302.351-.107.098-.625.403-.649.475-.069.206.331.868.323,1.135ZM39.202,18.503l-1.445.471.324,1.632,1.587-.61-.466-1.493ZM35.918,20.435c-.799-.035-1.05.559-.967,1.269.032.277.356.635.634.675.549.08,1.092-.487,1.137-1.008.013-.151-.151-.606-.25-.721-.088-.104-.419-.209-.554-.215ZM39.856,20.419l-1.614.652c-.026.51.166,1.025.119,1.544l1.896-.232-.401-1.964ZM40.321,22.851c-.634-.056-1.234.189-1.862.236l.042,1.911c.59-.058,1.182-.297,1.775-.14.063-.665.158-1.343.045-2.007ZM40.23,25.185c-.58.141-1.178.274-1.775.28l-.228,1.864,1.536.286.467-2.43ZM39.575,28.083l-1.49-.278-.518,1.819,1.448.281.56-1.821ZM38.827,30.373c-.21-.038-1.333-.37-1.441-.276l-.733,1.724,1.615.793.56-2.241ZM36.544,34.664c.083.048.314-.165.391-.229.436-.37.859-.848,1.096-1.372-.47-.401-1.085-.551-1.606-.869l-.813,1.371c.349.33.71.662.933,1.099ZM32.087,33.091c-.294.087-.226.802.104.904.609.188.673-.58.373-.793-.102-.072-.353-.147-.477-.111ZM34.814,36.068c.085.061.437-.224.525-.285.135-.095.901-.677.916-.769-.244-.412-.556-.771-.911-1.09l-1.145,1.147.615.998ZM32.614,37.287c.07.076,1.793-.847,1.848-.934.037-.059.002-.078-.016-.126-.018-.047-.531-.762-.572-.787-.133-.083-.638.351-.779.437-.259.158-.519.327-.806.433-.06.084.398.783.324.978ZM12.891,37.152l-2.378-.612,2.227,1.487.108.008.042-.882ZM30.371,38.128c.068.071,1.792-.571,1.848-.652.106-.154-.234-.738-.305-.917l-1.73.588.187.981ZM22.929,36.688c-.456.07-.243.975.227.695.302-.18.161-.754-.227-.695ZM15.416,37.757l-2.117-.514c-.061.02-.061.064-.073.116-.061.261-.078.566-.146.832l1.941,1.291c.051-.024.054-.072.072-.117.09-.227.21-.832.259-1.096.016-.085.094-.479.065-.512ZM29.81,37.333l-1.57.465c-.041.053.175,1.184.217,1.332.014.049.017.092.069.119.122.034.238-.163.327-.232.344-.266.726-.515,1.14-.66l-.183-1.024ZM17.983,38.274l-2.188-.426-.402,1.915c.442.268.966.465,1.49.449.151-.004.76-.122.871-.194.059-.039.081-.122.092-.188.081-.498.086-1.051.137-1.556ZM26.166,40.324c.522-.011,1.079-.101,1.538-.354.182-.101.483-.266.422-.505l-.369-1.505-1.777.309.186,2.055ZM20.323,39.387c.035-.036-.014-.859-.088-.912l-1.919-.161-.093,1.542,2.1-.469ZM25.559,38.361l-2.009.234.006,1.489c.085.131,1.997.251,2.283.24-.19-.63-.216-1.309-.28-1.962ZM23.176,38.642c-.429-.047-.867.064-1.287.048-.401-.015-.827-.164-1.236-.142v.794c.292.031.594.059.88.124.565.128,1.079.409,1.643.483v-1.308Z"/>
  <path class="cls-2" d="M23.836,19.071c-.029.05.009.117.03.167.311.72,1.174,1.503,1.59,2.242,1.302,2.311-.547,4.01-.317,6.298.094.941,1.499,1.321,2.212,1.666,1.023.495,1.29,1.166,1.011,2.283l-.137-.002c-.187-.75-.207-1.374-.966-1.768-.737-.383-1.429-.479-2.074-1.103-1.617-1.565.829-4.677.177-6.532-.384-1.092-1.473-1.866-1.814-2.975-.208-.025-.374.136-.559.207-.857.327-1.368.449-2.007-.327-1.544-1.874-2.922-4.435-4.234-6.513-.527-.834-1.814-2.368-1.633-3.371.149-.83.971-1.701,1.692-2.092,1.711-.927,3.152,1.411,3.95,2.575.818,1.193,1.619,2.47,2.363,3.711.741,1.237,1.915,2.935,1.688,4.427-.048.316-.664.974-.972,1.108Z"/>
  <path class="cls-2" d="M6.588,15.513c-.069.858-.594,1.805.023,2.57.446.554,1.578.873,2.234,1.27.937.567,1.45,1.048,1.656,2.176.116.637-.025.994.508,1.502.673.641,1.838.512,2.697.607.065-.021.362-.612.442-.729.374-.554.517-.783,1.224-.596.917.243,1.86.794,2.746,1.132,1.47.56,3.041.938,4.435,1.686.338.181.914.422.952.823.081.859-.643,2.246-1.044,3.026-.231.45-.324.713-.897.691-2.072-.081-4.294-1.271-6.128-2.144-.877-.417-2.498-.83-2.395-2.079.039-.468.229-.915.414-1.337-.87-.019-1.927.005-2.639-.562-1.05-.836-.538-1.602-1.012-2.632-.85-1.846-4.404-1.361-3.905-4.106.073-.404.26-1.17.688-1.298Z"/>
  <path class="cls-1" d="M17.983,38.274c-.051.505-.056,1.057-.137,1.556-.011.067-.033.15-.092.188-.111.073-.72.19-.871.194-.524.015-1.049-.181-1.49-.449l.402-1.915,2.188.426Z"/>
  <path class="cls-1" d="M26.166,40.324l-.186-2.055,1.777-.309.369,1.505c.061.239-.24.404-.422.505-.459.254-1.016.343-1.538.354Z"/>
  <path class="cls-1" d="M25.559,38.361c.065.654.09,1.332.28,1.962-.286.012-2.198-.109-2.283-.24l-.006-1.489,2.009-.234Z"/>
  <path class="cls-1" d="M40.321,22.851c.114.663.018,1.342-.045,2.007-.593-.157-1.185.082-1.775.14l-.042-1.911c.628-.048,1.228-.292,1.862-.236Z"/>
  <path class="cls-1" d="M40.23,25.185l-.467,2.43-1.536-.286.228-1.864c.598-.006,1.196-.139,1.775-.28Z"/>
  <path class="cls-1" d="M38.827,30.373l-.56,2.241-1.615-.793.733-1.724c.109-.094,1.231.238,1.441.276Z"/>
  <path class="cls-1" d="M36.544,34.664c-.223-.438-.584-.769-.933-1.099l.813-1.371c.521.318,1.136.468,1.606.869-.237.524-.66,1.003-1.096,1.372-.076.065-.308.277-.391.229Z"/>
  <path class="cls-1" d="M39.856,20.419l.401,1.964-1.896.232c.047-.519-.145-1.034-.119-1.544l1.614-.652Z"/>
  <path class="cls-1" d="M36.772,12.289c.272.674.419,1.388.423,2.118l-1,.589-.915-1.556c.328-.267.675-.51,1.001-.779.156-.129.274-.348.491-.373Z"/>
  <path class="cls-1" d="M15.416,37.757c.029.033-.05.428-.065.512-.049.264-.169.87-.259,1.096-.018.045-.02.093-.072.117l-1.941-1.291c.068-.266.085-.571.146-.832.012-.052.012-.096.073-.116l2.117.514Z"/>
  <polygon class="cls-1" points="39.575 28.083 39.015 29.904 37.567 29.623 38.085 27.805 39.575 28.083"/>
  <path class="cls-1" d="M35.918,20.435c.135.006.466.111.554.215.098.116.263.57.25.721-.045.521-.587,1.087-1.137,1.008-.278-.04-.602-.398-.634-.675-.082-.71.168-1.304.967-1.269Z"/>
  <path class="cls-1" d="M34.346,11.826l.839-.588.444-.539c.266.039.831.906.907,1.188l-1.468,1.196-.722-1.258Z"/>
  <polygon class="cls-1" points="39.202 18.503 39.669 19.996 38.081 20.606 37.758 18.974 39.202 18.503"/>
  <path class="cls-1" d="M20.323,39.387l-2.1.469.093-1.542,1.919.161c.074.054.123.876.088.912Z"/>
  <path class="cls-1" d="M23.176,38.642v1.308c-.563-.074-1.078-.356-1.643-.483-.286-.065-.589-.093-.88-.124v-.794c.409-.022.835.127,1.236.142.42.016.858-.096,1.287-.048Z"/>
  <path class="cls-1" d="M34.814,36.068l-.615-.998,1.145-1.147c.355.319.667.678.911,1.09-.016.092-.781.674-.916.769-.088.062-.44.347-.525.285Z"/>
  <path class="cls-1" d="M32.614,37.287c.074-.194-.384-.894-.324-.978.287-.106.547-.275.806-.433.141-.086.646-.52.779-.437.041.026.554.741.572.787.018.048.053.067.016.126-.055.088-1.778,1.01-1.848.934Z"/>
  <path class="cls-1" d="M34.117,9.634c.105-.062.57.267.689.346.092.061.582.38.564.463l-1.28,1.097-.819-.996.846-.909Z"/>
  <path class="cls-1" d="M29.81,37.333l.183,1.024c-.414.144-.795.394-1.14.66-.089.069-.205.266-.327.232-.052-.027-.055-.07-.069-.119-.042-.148-.258-1.279-.217-1.332l1.57-.465Z"/>
  <path class="cls-1" d="M37.569,18.548c.008-.267-.392-.928-.323-1.135.024-.072.543-.376.649-.475.1-.031.221-.389.302-.351.137.063.653,1.258.77,1.468-.156.102-1.339.543-1.398.492Z"/>
  <path class="cls-1" d="M30.371,38.128l-.187-.981,1.73-.588c.071.18.411.763.305.917-.056.081-1.78.723-1.848.652Z"/>
  <path class="cls-1" d="M37.984,16.302c-.314.228-.571.532-.908.751l-.671-1.628.859-.52.72,1.396Z"/>
  <path class="cls-1" d="M32.666,8.648c.057-.039,1.039.608,1.163.721l-.824.814-.85-.861.511-.674Z"/>
  <polygon class="cls-1" points="12.891 37.152 12.849 38.034 12.741 38.026 10.513 36.539 12.891 37.152"/>
  <path class="cls-1" d="M31.355,7.431c.069-.018.109.007.164.043.076.049.842.817.857.876.033.126-.423.554-.532.667l-.906-.873.418-.713Z"/>
  <path class="cls-1" d="M34.891,16.361c.249-.044.612.223.623.484.014.343-.457,1.105-.818.721-.215-.229-.174-1.14.196-1.205Z"/>
  <path class="cls-1" d="M32.554,14.682c.593-.133.848.192.758.758-.052.327-.644.417-.832.183-.192-.239-.339-.849.073-.941Z"/>
  <path class="cls-1" d="M31.025,7.15c.044.062-.283.546-.351.606-.043.038-.064.068-.13.043l-.966-1.163,1.448.515Z"/>
  <path class="cls-1" d="M28.769,8.371c.442-.13.915.544.411.881-.681.454-.784-.771-.411-.881Z"/>
  <path class="cls-1" d="M32.087,33.091c.125-.037.375.038.477.111.3.213.235.982-.373.793-.33-.102-.398-.817-.104-.904Z"/>
  <path class="cls-1" d="M31.482,10.709c.702-.17.505,1.119-.082.854-.268-.121-.295-.763.082-.854Z"/>
  <path class="cls-1" d="M22.929,36.688c.387-.059.528.516.227.695-.47.28-.683-.626-.227-.695Z"/>
</svg>