<?xml version="1.0" encoding="UTF-8"?>
<svg id="Layer_1" data-name="Layer 1" xmlns="http://www.w3.org/2000/svg" viewBox="0 0 46.417 46.417">
  <defs>
    <style>
      .cls-1 {
        fill: #56b4e9;
      }

      .cls-2 {
        fill: #f7fdfc;
      }

      .cls-3 {
        fill: #f7fdfd;
      }

      .cls-4 {
        fill: #fefefe;
      }

      .cls-5 {
        fill: #b2d5e8;
      }

      .cls-6 {
        fill: #0072b2;
      }

      .cls-7 {
        fill: #fdfefe;
      }
    </style>
  </defs>
  <path class="cls-5" d="M.046,0v46.372h46.371V0H.046ZM13.622,12.996c.972-.279,2.312-.454,3.34-.649,2.531-.479,5.081-.872,7.602-1.396.104-.03.176.29.152.316l-10.701,2.076c-.16-.003-.537.095-.57-.105-.025-.152.044-.204.176-.242ZM18.71,13.49c-.198,0-.398.075-.626.005v-.139c.239-.019.481-.07.719-.092,1.502-.142,3.123-.209,4.635-.281.513-.025,1.035-.019,1.548-.038l.053.272c-.455.057-.914.018-1.37.045-1.656.096-3.305.22-4.96.229ZM22.768,14.7c-.179.261-.521.251-.806.226-2.336-.209-4.745-.787-7.089-1.025-.07-.005-.27-.149-.219-.221l.346-.047,7.769,1.068ZM20.631,39.667c-2.196,1.678-5.68,2.659-8.378,1.847-.532-.159-1.091-.38-1.437-.835-1.141-6.75-2.43-13.478-3.616-20.219-.05-.282-.239-1.166-.197-1.378.013-.067.408-.553.484-.629.118-.118.789-.583.806-.632-.015-.533-.249-1.065-.122-1.605.13-.552,1.798-1.038,2.308-1.148.057-.079-.394-1.563-.323-1.922.036-.186.531-.354.706-.407.336-.101,1.582-.305,1.823-.084.16.146.332,1.678.504,1.817.504.024,1.029,0,1.533.041.152.012.601.062.716.118.477.233.532,1.152.652,1.598.015.057.06.114.046.186.049-.007.779.174.88.21.128.045.466.207.521.314.392,1.683.672,3.392,1.01,5.087.008.042-.009.097,0,.139.676,3.39,1.43,6.787,2.073,10.192.087.456.304,1.256.292,1.679,0,.015.002.032,0,.046.069.055.07.138.087.215.289,1.283.475,2.585.713,3.877.022.118.099.212.118.329-.016.177-1.001,1.01-1.2,1.163ZM40.63,22.997c-1.344,1.032-2.156,1.138-3.831.926-.107-.013-.199-.077-.306-.089l.513-.67c.071-.188.308-.686-.07-.629-.147.022-.383.584-.511.743-1.455,1.803-4.917.289-6.372-.863-.166-.131-.518-.715-.675-.668-.13.104-.073.259-.017.386.2.457,1.902,1.483,2.402,1.725.375.182.808.322,1.208.439-1.441,1.044-3.207.883-4.746.132-.955-.466-2.625-1.423-3.248-2.27-.121-.164-.21-.553-.446-.436.126.842.797,1.421,1.451,1.888l.961.592c-.271.022-.507.196-.778.265-2.069.529-4.013-.674-5.202-2.283-1.134-1.533-.555-4.092.032-5.762.24-.682.935-1.152,1.563-1.441l4.039.598c.282.046.285-.318.034-.362l-3.676-.474c.153-.159.439-.273.651-.346.619-.211,1.347-.331,1.992-.21l-.417-1.02h1.739c.052-.015.135-.142.118-.206l-.128-.155-1.796.039c-.087-.012-.293-1.408-.192-1.582.048-.067,1.374-.284,1.594-.354.111-.036.396-.18.197-.317-.166-.114-1.512.364-1.81.35-.034-.935.333-1.858.805-2.649.646-1.081,1.093-1.512,2.264-2.002,1.707-.714,3.565-.909,5.046.361.881.757,1.495,1.874,1.852,2.969-.481.299-.996.562-1.413.948-.127.118-.754.754-.579.93.121.022.186-.014.288-.061.122-.057.559-.524.736-.654.845-.621,2.101-1.151,3.161-.943,1.709.335,3.122,2.27,2.48,3.988-.089.239-.263.435-.266.684.278-.025.352-.348.466-.555,1.554.606,3.046,1.811,3.196,3.593.2,2.369-.422,3.998-2.308,5.446Z"/>
  <polygon class="cls-4" points=".046 0 .046 46.371 46.417 46.371 46.417 46.417 0 46.417 0 0 .046 0"/>
  <g>
    <g>
      <g>
        <path d="M18.548,22.026c.008.042-.008.097,0,.139-.119.173-.434.072-.626.093-2.903.317-6.25,1.027-8.985,2.052-.216.081-.477.241-.681.292-.305.076-.222-.097-.035-.22.269-.178.868-.391,1.193-.523,2.227-.905,5.093-1.357,7.482-1.7.548-.079,1.096-.27,1.652-.133Z"/>
        <path d="M16.091,16.23c.015.057.059.114.046.185-.031.005-.09.083-.164.091-2.379.229-4.386.44-6.677,1.207-.281.094-.564.275-.857.279-.143-.122.709-.443.764-.464,1.588-.605,3.424-.902,5.101-1.113.594-.075,1.18-.238,1.786-.185Z"/>
        <path d="M16.684,17.125c.314-.019.69.052.159.158-1.024.206-2.306.203-3.371.338-2.034.259-4.032.748-5.946,1.475-.317-.048-.08-.173.081-.246,2.468-1.109,6.372-1.56,9.078-1.726Z"/>
        <path d="M10.809,14.936c.208-.072.427-.122.643-.168.213-.046,1.393-.283,1.501-.247.108.036.098.177.035.254-.105.127-1.699.288-1.978.391-.175.025-.238-.062-.201-.229Z"/>
        <path d="M12.335,12.984c-.298.006-.622.057-.91.134-.169.045-.81.352-.898.237-.02-.096.047-.108.107-.148.299-.202,1.238-.472,1.586-.408.115.021.129.073.116.185Z"/>
        <path d="M12.694,13.993c-.318.322-.626-.718-.225-.802.3-.063.366.659.225.802Z"/>
      </g>
      <g>
        <path class="cls-6" d="M21.713,38.175c-.238-1.292-.424-2.595-.713-3.877-.017-.077-.018-.16-.087-.215-.029.205-.219.316-.402.409-1.779.913-5.179,1.522-7.192,1.85-1.006.163-2.022.375-3.044.245l-.028-.117c.017-.054.521-.111.625-.118,2.765-.188,6.925-.981,9.471-2.076.19-.081.342-.268.57-.241.012-.423-.205-1.223-.292-1.679-.642-3.405-1.396-6.802-2.073-10.192-.12.173-.434.072-.626.093-2.903.317-6.25,1.027-8.985,2.052-.217.081-.477.241-.682.292-.305.076-.222-.097-.035-.22.269-.177.869-.391,1.193-.523,2.226-.904,5.094-1.357,7.482-1.7.548-.078,1.097-.269,1.652-.133-.339-1.695-.618-3.404-1.01-5.087-.054-.107-.392-.269-.521-.314-.101-.036-.832-.217-.88-.21-.032.005-.091.084-.164.091-2.379.229-4.386.439-6.677,1.207-.281.094-.564.275-.856.279-.144-.122.709-.443.764-.465,1.587-.604,3.423-.901,5.1-1.112.594-.074,1.18-.238,1.786-.185-.12-.446-.175-1.365-.652-1.598-.115-.056-.564-.105-.716-.118-.504-.04-1.029-.017-1.533-.041-.173-.139-.344-1.671-.504-1.817-.241-.221-1.488-.017-1.823.084-.175.053-.669.22-.706.407-.071.359.38,1.843.323,1.922-.511.11-2.179.596-2.308,1.148-.127.54.107,1.072.122,1.605-.017.049-.689.514-.806.632-.076.076-.47.562-.484.629-.043.212.147,1.095.197,1.378,1.186,6.741,2.475,13.469,3.616,20.219.347.455.905.675,1.437.835,2.698.812,6.183-.169,8.378-1.847.199-.152,1.184-.986,1.2-1.163-.019-.117-.096-.21-.118-.329ZM12.953,14.52c.108.036.098.177.035.254-.104.128-1.698.288-1.977.391-.176.025-.238-.061-.201-.228.208-.072.427-.122.642-.169.214-.046,1.393-.283,1.502-.248ZM12.47,13.19c.3-.063.366.659.224.802-.317.322-.625-.719-.224-.802ZM10.633,13.206c.299-.202,1.238-.472,1.586-.408.114.021.128.073.115.185-.298.005-.622.057-.91.134-.169.045-.809.351-.898.237-.02-.096.047-.108.107-.149ZM7.606,18.851c2.468-1.109,6.372-1.56,9.078-1.726.314-.019.69.052.159.159-1.024.206-2.306.203-3.371.338-2.035.258-4.033.748-5.947,1.475-.316-.049-.08-.173.081-.246ZM10.447,27.906c.873-2.609,4.256-4.265,6.681-2.698,2.515,1.625,3.121,4.984,1.12,7.298-3.399,3.932-9.44.3-7.801-4.601ZM20.564,39.043c-1.456,1.298-6.452,2.319-8.332,1.982-.23-.042-.674-.144-.771-.388-.116-.29.361.104.392.118.971.452,3.619-.003,4.702-.249,1.012-.23,2.247-.583,3.17-1.05.386-.196,1.126-.543.957-1.061l.228.003c.043.279-.155.475-.346.644Z"/>
        <path d="M20.913,34.036c0,.015.002.032,0,.046-.029.205-.219.315-.402.409-1.778.913-5.178,1.522-7.192,1.85-1.005.164-2.022.375-3.044.245l-.028-.117c.017-.054.521-.111.625-.118,2.765-.188,6.925-.981,9.471-2.076.19-.082.342-.268.571-.241Z"/>
        <path d="M20.91,38.399c.042.279-.156.475-.346.644-1.456,1.298-6.452,2.318-8.332,1.982-.23-.041-.674-.143-.772-.388-.116-.291.362.104.392.118.971.452,3.619-.003,4.702-.249,1.012-.23,2.247-.583,3.17-1.05.386-.196,1.125-.543.957-1.06l.228.003Z"/>
        <g>
          <path class="cls-1" d="M14.383,29.511c-.025.014-.046.028-.063.04.004-.004.007-.009.009-.013l.054-.027Z"/>
          <path class="cls-1" d="M18.52,31.296l-.018.19c-.914,1.633-2.735,2.569-4.601,2.166-.133-.029-.504-.125-.607-.181-.043-.024-.089-.038-.073-.099l1.386-2.814c.084-.04.094-.097.149.012.094.186.139.425.221.614.24.553.535,1.191,1.02,1.553.064-.077-.33-.472-.388-.561-.349-.523-.534-1.112-.817-1.665v-.232c.032-.102.294-.695.348-.695.109.206.383.227.514.322.113.081.061.174.333.226.164.031.051-.061.15-.084-.009.323.337.116.49.094.183-.025.385-.029.531.091.165.135.353.364.535.509.254.2.535.416.829.553Z"/>
          <path class="cls-1" d="M19.012,29.307c-.031.002-.062-.002-.093,0-.2-.072-.438-.07-.651-.114-.443-.091-.875-.258-1.246-.516-.135-.095-.34-.221-.375-.39.325-.09,1.165-.359.949-.835-.101-.224-.554-.208-.764-.186v-.093c.069-.012.158.009.231,0,.009-.066-.126-.086-.167-.089-.203-.014-.33.05-.513.083-.062.011-.084.01-.061-.062l.649-1.369c1.261.696,2.026,2.141,2.04,3.571Z"/>
          <path class="cls-1" d="M19.012,29.399c.015.618-.133,1.242-.371,1.809-.561-.202-.965-.682-1.437-1.02-.004-.023-.049-.056-.046-.092.177-.002.398-.117.302-.324-.107-.231-.828-.429-1.041-.629-.128-.121-.233-.498-.372-.648.004-.063.443-.141.509-.115.026.009.299.291.403.362.63.429,1.293.613,2.055.658Z"/>
          <path d="M17.128,25.208c-2.425-1.567-5.808.088-6.681,2.698-1.639,4.901,4.402,8.533,7.801,4.601,2.001-2.314,1.395-5.673-1.12-7.298ZM19.012,29.307c-.031.002-.062-.002-.093,0-.2-.072-.438-.07-.651-.114-.443-.091-.875-.258-1.246-.516-.135-.095-.34-.221-.375-.39.325-.09,1.165-.359.949-.835-.101-.224-.554-.208-.764-.186-.209.022-.429.148-.649.138.132-.139.456-.197.649-.231.069-.012.158.009.231,0,.009-.066-.126-.086-.167-.089-.203-.014-.33.05-.513.083-.062.011-.084.01-.061-.062l.649-1.369c1.261.696,2.026,2.141,2.04,3.571ZM12.635,25.735c1.206-.771,2.554-.779,3.873-.277-.3.419-.583,1.446-.928,1.762l-.163-.231h-.068c-.038.09-.029.192-.046.278-.011.053-.056.072-.046.186l-1.066.371c-.022-.218-.062-.48-.21-.649-.055-.002-.105.389-.115.463-.012.08.028.212-.021.282-.369.117-.835.265-1.001.645-.176-.026-.262-.229-.462-.184-.044.041.189.578.207.689.011.067-.031.144-.022.212.027.195.101.382.093.583-.012.002-.044.067-.092.046l-.38-.757-.316-1.005c-.019.525.211,1.059.455,1.515.067.125.181.241.24.34.036.061.057.113.046.186l-.139-.046c-.256-.473-.782-.94-1.092-1.529-.033-.063.014-.119-.113-.094l.27.541.937,1.244c-.306.322-.709.465-1.068.696-.056.036-.119-.01-.092.115.483-.128.847-.477,1.252-.742.018.047-.019.118.043.211.067.101.227.103.238.142.018.067-.003.251-.003.343,0,.031.002.062,0,.093-.002.045.006.097,0,.139-.002.015-.05.057-.046.093-.07.021-.093.063-.139.093-.183.116-.447.296-.603.439-.042.039-.232.205-.184.256l.834-.65c.059.073.051.097.046.186-.007.125-.059.319-.082.452-.016.09.002.056.082.059-.012-.193.063-.372.093-.557.015-.092.032-.187.046-.278.002-.015,0-.032,0-.046.049-.008.097-.021.139-.046.104-.063.457-.404.489-.507.093-.299-.059-.47-.065-.677,0-.025.085-.046.086-.068.097-.021.182-.067.279-.092l.138-.093c.008-.008.039.008.046,0,.009-.008.016-.015.023-.023l.023-.023c.032-.029.064-.061.093-.093.015-.016.032-.03.046-.046.008-.01.019-.018.029-.026,0,0,0,0,.002-.002.028-.026.049-.05.058-.06.002-.002.003-.003.004-.005.002-.004.007-.008.012-.012.007-.007.015-.013.024-.02,0,0,0-.002.002-.002.004-.004.007-.009.009-.013l.054-.027s.002,0,.002-.002l.036-.018v.093c-.607,1.162-1.099,2.418-1.738,3.569-2.729-1.644-2.725-5.71-.047-7.419ZM15.882,28.426l.347.602-.581-.275-.067-.163c.091-.131.263.006.301-.163ZM14.097,28.704l.168-.053.666-.087c.141.132-.542.223-.603.186l-.278.068h0c-.206-.073-.781.015-.615-.379.097-.231.356-.241.522-.384l1.345-.51c.07.022.169-.059.139.092-.323.108-1.631.482-1.811.683-.057.065-.087.191-.132.269.157.152.399.111.598.114ZM13.123,30.188l.279-.047c.007.195.094.423.037.617-.039.132-.388.342-.454.497-.023.005-.08.065-.093.046.046-.138.021-.301.05-.438.052-.25.343-.334.182-.675ZM12.748,28.641l-.09.294-.184-.463.274.169ZM18.502,31.486c-.914,1.633-2.735,2.569-4.601,2.166-.133-.029-.504-.125-.607-.181-.043-.024-.089-.038-.073-.099l1.386-2.814c.084-.04.094-.097.149.012.094.186.139.425.221.614.24.553.535,1.191,1.02,1.553.064-.077-.33-.472-.388-.561-.349-.523-.534-1.112-.817-1.665v-.232c.032-.102.294-.695.348-.695.109.206.383.227.514.322.113.081.061.174.333.226.164.031.051-.061.15-.084-.009.323.337.116.49.094.183-.025.385-.029.531.091.165.135.353.364.535.509.254.2.535.416.829.553l-.018.19ZM18.641,31.208c-.561-.202-.965-.682-1.437-1.02-.004-.023-.049-.056-.046-.092.177-.002.398-.117.302-.324-.107-.231-.828-.429-1.041-.629-.128-.121-.233-.498-.372-.648.004-.063.443-.141.509-.115.026.009.299.291.403.362.63.429,1.293.613,2.055.658.015.618-.133,1.242-.371,1.809Z"/>
          <path class="cls-1" d="M16.508,25.458c-.3.419-.583,1.446-.928,1.762l-.163-.231h-.068c-.038.09-.029.192-.046.278-.011.053-.056.072-.046.186l-1.066.371c-.022-.218-.062-.48-.21-.649-.055-.002-.105.389-.115.463-.012.08.028.212-.021.282-.369.117-.835.265-1.001.645-.176-.026-.262-.229-.462-.184-.044.041.189.578.207.689.011.067-.031.144-.022.212.027.195.101.382.093.583-.012.002-.044.067-.092.046l-.38-.757-.316-1.005c-.019.525.211,1.059.455,1.515.067.125.181.241.24.34.036.061.057.113.046.186l-.139-.046c-.256-.473-.782-.94-1.092-1.529-.033-.063.014-.119-.113-.094l.27.541.937,1.244c-.306.322-.709.465-1.068.696-.056.036-.119-.01-.092.115.483-.128.847-.477,1.252-.742.018.047-.019.118.043.211.067.101.227.103.238.142.018.067-.003.251-.003.343l-.032.056.032.037c-.002.045.006.097,0,.139-.002.015-.05.057-.046.093-.07.021-.093.063-.139.093-.183.116-.447.296-.603.439-.042.039-.232.205-.184.256l.834-.65c.059.073.051.097.046.186-.007.125-.059.319-.082.452-.016.09.002.056.082.059-.012-.193.063-.372.093-.557.015-.092.032-.187.046-.278.002-.015,0-.032,0-.046.049-.008.097-.021.139-.046.104-.063.457-.404.489-.507.093-.299-.059-.47-.065-.677,0-.025.085-.046.086-.068.097-.021.182-.067.279-.092l.138-.093c.008-.008.039.008.046,0,.009-.008.016-.015.023-.023l.023-.023c.032-.029.064-.061.093-.093.015-.016.032-.03.046-.046.01-.009.02-.018.029-.026,0,0,0,0,.002-.002.018-.013.039-.029.058-.06.002-.002.003-.003.004-.005.002-.004.007-.008.012-.012.008-.007.017-.013.024-.02,0,0,0-.002.002-.002.018-.012.039-.026.063-.04,0,0,.002,0,.002-.002l.036-.018v.093c-.607,1.162-1.099,2.418-1.738,3.569-2.729-1.644-2.725-5.71-.047-7.419,1.206-.771,2.554-.779,3.873-.277Z"/>
          <path class="cls-1" d="M13.631,28.32c-.057.065-.087.191-.132.269.157.152.399.111.598.114l.168-.053.666-.087c.141.132-.542.223-.603.186l-.278.068h0c-.206-.073-.781.015-.615-.379.097-.231.356-.241.522-.384l1.345-.51c.07.022.169-.059.139.092-.323.108-1.631.482-1.811.683Z"/>
          <path class="cls-1" d="M16.229,29.028l-.581-.275-.067-.163c.091-.131.263.006.301-.163l.347.602Z"/>
          <path class="cls-1" d="M16.833,27.173v.093c-.209.022-.429.148-.649.138.132-.139.456-.197.649-.231Z"/>
          <path d="M14.383,29.511c-.025.014-.046.028-.063.04.004-.004.007-.009.009-.013l.054-.027Z"/>
          <path d="M14.278,29.589c-.019.032-.04.047-.058.06.028-.026.049-.05.058-.06Z"/>
          <path d="M12.845,31.161l-.032-.037.032-.056c0,.031.002.062,0,.093Z"/>
          <path class="cls-1" d="M13.438,30.758c-.039.132-.388.342-.454.497-.023.005-.08.065-.093.046.046-.138.021-.301.05-.438.052-.25.343-.334.182-.675l.279-.047c.007.195.094.423.037.617Z"/>
          <polygon class="cls-1" points="12.748 28.641 12.658 28.935 12.474 28.472 12.748 28.641"/>
        </g>
      </g>
    </g>
    <g>
      <path class="cls-7" d="M26.918,13.169c.052-.015.134-.141.118-.206l-.128-.155-1.796.04c-.087-.012-.293-1.408-.192-1.583.048-.066,1.374-.284,1.593-.354.111-.036.396-.18.197-.317-.165-.114-1.512.365-1.811.35-.034-.935.333-1.858.805-2.649.646-1.081,1.093-1.511,2.264-2.002,1.707-.715,3.565-.91,5.045.361.882.757,1.496,1.874,1.853,2.97-.481.298-.996.562-1.414.947-.127.117-.754.754-.579.93.12.022.187-.013.288-.061.122-.057.559-.524.736-.654.845-.621,2.101-1.151,3.161-.944,1.709.335,3.121,2.27,2.48,3.988-.089.239-.263.435-.266.684.278-.025.352-.348.467-.555,1.554.605,3.046,1.811,3.196,3.594.199,2.369-.422,3.997-2.308,5.445-1.344,1.032-2.156,1.138-3.831.926-.106-.013-.199-.077-.305-.089l.512-.669c.071-.188.308-.687-.07-.629-.147.022-.383.584-.512.743-1.456,1.804-4.917.289-6.372-.862-.165-.131-.518-.715-.675-.668-.13.105-.073.26-.017.387.2.457,1.902,1.483,2.402,1.725.375.182.808.321,1.208.439-1.441,1.045-3.206.884-4.746.132-.955-.467-2.625-1.423-3.248-2.27-.121-.164-.209-.553-.445-.436.126.841.797,1.421,1.451,1.888l.961.592c-.271.022-.507.195-.779.265-2.069.529-4.012-.674-5.202-2.282-1.134-1.533-.554-4.093.033-5.762.24-.682.935-1.152,1.564-1.442l4.039.598c.282.047.284-.318.034-.362l-3.676-.474c.153-.159.439-.273.651-.345.619-.211,1.347-.331,1.992-.211l-.417-1.02h1.739ZM35.081,18.807c1.019-1.036,1.554-2.444,1.315-3.894-.106-.642-.475-1.802-1.047-2.153-.232-.142-.915-.453-.942-.009.541.078.903.346,1.144.827.704,1.404.707,2.99-.141,4.328-.115.181-.653.736-.672.861-.036.23.205.18.343.04ZM31.857,15.163h.765c.118,0,.534.116.682.152.171.042.328.126.478.172.056.017.097-.015.068-.068-.057-.103-.771-.296-.925-.327-.244-.049-.716-.047-.897-.125-.071-.03-.07-.106-.11-.131-.191-.118-.49.052-.71.002-.021-.081.034-.093.069-.139.213-.281.974-.955.852-1.315-.116-.341-.817.477-.945.573.07-.729-.578-.792-.667-.018-.023.204.052,1.076.019,1.131-.103.169-.796-.015-.997,0l.046.138h-.232c.038.252.592.138.685.358.136.322-.08.635-.155.938-.016.064-.068.16.049.142.164-.187.236-.632.348-.801.044-.066.244-.047.233-.219.075-.013.045.063.046.115.007.208-.065.378,0,.58l.091-.071.094-.393c-.099.118.197.876.325.741-.047-.168-.12-.306-.138-.487-.117-1.16.294-.627.942-.339.102.045.727.307.773.27l-.091-.115-1.207-.673c.669.175,1.318.683,2.024.737.122.009.255.025.248-.135l-.568-.105-1.194-.591ZM25.75,16.753c.02-.031.1-.04.124-.082-.368-.59-.706.599-.775.893-.29,1.244.006,2.39.737,3.411.319.446,1.355,1.456,1.882,1.55.251.045.318-.002.269-.267-1.723-.847-2.913-2.635-2.518-4.602.029-.144.22-.807.281-.902Z"/>
      <g>
        <path class="cls-2" d="M24.716,11.268l-10.7,2.075c-.16-.003-.537.095-.57-.105-.025-.152.044-.204.176-.242.972-.279,2.312-.454,3.339-.649,2.531-.479,5.081-.873,7.603-1.396.105-.031.175.29.152.316Z"/>
        <path class="cls-2" d="M22.768,14.7c-.179.261-.52.251-.806.226-2.337-.209-4.745-.786-7.09-1.025-.069-.004-.27-.149-.219-.221l.346-.047,7.769,1.067Z"/>
        <path class="cls-3" d="M24.987,12.944l.053.271c-.455.058-.915.018-1.37.045-1.656.096-3.305.221-4.96.229-.198.001-.399.075-.626.004v-.139c.239-.019.481-.07.72-.093,1.503-.142,3.124-.208,4.635-.281.513-.025,1.035-.019,1.549-.038Z"/>
      </g>
      <path class="cls-5" d="M25.75,16.753c-.061.095-.253.758-.281.902-.395,1.967.795,3.756,2.518,4.602.05.266-.018.312-.269.267-.526-.094-1.562-1.104-1.882-1.55-.731-1.021-1.027-2.166-.737-3.411.068-.294.406-1.483.775-.893-.024.042-.104.051-.124.082Z"/>
      <path class="cls-5" d="M35.081,18.807c-.138.141-.379.19-.343-.04.02-.125.558-.68.672-.861.848-1.338.846-2.923.141-4.328-.241-.481-.604-.749-1.144-.827.027-.444.711-.133.942.009.572.35.941,1.51,1.047,2.153.239,1.45-.296,2.858-1.315,3.894Z"/>
      <g>
        <path d="M31.857,15.163l1.194.591.568.105c.007.159-.126.144-.248.135-.705-.054-1.354-.562-2.024-.737l1.207.673.091.115c-.046.037-.671-.224-.773-.27-.648-.288-1.059-.821-.942.339.018.181.092.319.138.487-.128.135-.424-.623-.325-.741l-.094.393-.091.071c-.065-.202.007-.372,0-.58-.002-.053.029-.128-.046-.115.011.172-.189.152-.233.219-.112.169-.184.614-.348.801-.117.018-.065-.078-.049-.142.075-.302.291-.616.155-.938-.093-.22-.648-.106-.685-.357h.232s-.046-.139-.046-.139c.201-.015.895.169.997,0,.034-.055-.042-.928-.019-1.131.089-.774.737-.711.667.018.128-.096.829-.914.945-.573.122.36-.639,1.033-.852,1.315-.035.046-.09.058-.069.139.22.05.518-.12.71-.002.04.025.04.101.11.131.181.078.653.076.897.125.155.031.869.223.925.327.029.053-.012.085-.068.068-.15-.046-.307-.129-.478-.172-.148-.037-.565-.152-.682-.152h-.765ZM31.138,14.839v.046c.03-.015.03-.031,0-.046Z"/>
        <path class="cls-7" d="M31.138,14.839c.03.015.03.031,0,.046v-.046Z"/>
      </g>
    </g>
  </g>
</svg>