<?xml version="1.0" encoding="UTF-8"?>
<svg id="Layer_1" data-name="Layer 1" xmlns="http://www.w3.org/2000/svg" viewBox="0 0 46.991 46.848">
  <defs>
    <style>
      .cls-1 {
        fill: #dc6d79;
      }

      .cls-2 {
        fill: #009e73;
      }

      .cls-3 {
        fill: #8198bd;
      }

      .cls-4 {
        fill: #60b4e4;
      }

      .cls-5 {
        fill: #4e3a3c;
      }

      .cls-6 {
        fill: #572c0d;
      }

      .cls-7 {
        fill: #dc6e7a;
      }

      .cls-8 {
        fill: #c07e91;
      }

      .cls-9 {
        fill: #63b3e4;
      }

      .cls-10 {
        fill: #fefefe;
      }

      .cls-11 {
        fill: #97e2cd;
      }
    </style>
  </defs>
  <path class="cls-11" d="M.046.047v46.497h6.975c-.089-1.009-.134-2.03-.093-3.045.15-3.707,1.431-7.457,2.721-10.904.242-.646,1.094-2.35.978-2.933-.1-.502-.3-.879-.351-1.462-.145-1.664-.301-3.586.613-5.059.284-.458.772-1.123,1.398-.999.159.032.371.281.47.262.404-.468,1.187-.938,1.799-.624.161.083.227.236.387.302.377-.416.89-.851,1.401-.324.306-.399,1.081-.886,1.542-.494.638.543.851,1.72.756,2.515l-.275,1.189c.517-.187,1.164-.593,1.671-.16.38.326.263.837-.009,1.316-.014.025-.029.05-.043.074-.018.031-.037.061-.058.092-.063.098-.132.195-.202.287-.044.058-.09.114-.136.168-.017.02-.034.04-.051.06-.002.003-.005.006-.008.009-.019.022-.039.044-.057.066-.019.022-.038.042-.057.062-.019.021-.037.04-.056.06,0,.002-.002.002-.003.004-.029.03-.058.059-.085.086-.006.006-.012.012-.018.017-.017.016-.033.033-.05.047-.016.016-.032.029-.046.043,0,0-.002.002-.002.002.028-.016.057-.032.085-.047.024-.013.048-.026.073-.04.638-.346,1.395-.673,2.073-.985,0,0,0,0,.002,0,.004-.002.009-.004.013-.006.091-.042.256-.102.358-.129-1.407-.898-1.918-3.107-2.503-4.588-.101-.256-.239-.5-.334-.759-.163,0-.332-.007-.372-.186-.003-.013,0-.033,0-.046-.03-.003-.063.004-.093,0-.263-.035-.267-.263-.279-.466-.004-.059-.005-.126,0-.186.004-.059-.007-.122.015-.169.012-.028.035-.05.078-.064.002-.046-.002-.093,0-.139.006-.157.038-.494.03-.666,0-.01,0-.02,0-.03,0-.009-.002-.019-.002-.027-.004-.026-.217-.331-.268-.454-.112-.27-.171-.601-.27-.869-.019-.05-.032-.102-.046-.139-.014-.036-.131-.17-.171-.271-.048-.122-.046-.262-.108-.38-.018-.014-.034-.027-.046-.046-.042-.062,0-.043,0-.046-.007-.026.007-.067,0-.093-.084-.311-.215-.612-.28-.93-.107.029-.212.059-.325.046-.056-.055.141-.423.185-.465-.049-.492-.246-.955-.361-1.429-.03-.125.046-.438-.15-.431-.02.058-.022.124-.052.18-.507,0-.796-.526-.979-.939-.37-.838-.455-1.375-.201-2.263.32-1.12.969-1.983,2.038-2.472.129-.059.629-.202.671-.236.026-.021.192-.383.253-.468,1.873-2.647,6.404-4.434,9.522-3.309,4.601,1.659,6.097,6.213,6.912,10.62,2.51,2.223,3.456,5.441,3.841,8.688.772.431,1.531,1.251,2.055,1.968.398.545.867,1.305.817,1.995.079-.021.115.061.157.122h0c.012.021.026.038.043.049,1.902,1.301,2.77,2.614,3.907,4.556.235.401.479.775.691,1.182h0c.043.084.086.169.126.256v.242s0,.002,0,.002c0,.124,0,.247,0,.371v.019c.002,1.189.002,2.378.002,3.567,0,.007,0,.014,0,.021,0,2.3,0,4.601,0,6.901,0,0,0,.002,0,.002,0,.003,0,.007,0,.01v2.324h.279V.047H.046ZM9.424,23.56c-.106.167-.315.246-.511.199-.03-.008-.024-.065-.071-.088-.092-.046-.199.021-.239-.215-.098-.59.322-.799.822-.519l.107.421c-.132.041-.071.143-.109.203ZM19.02,23.422c.033-.169.594-.156.729-.112.052.017.205.307.204.383l-.204.332-.511.013c-.212-.186-.278-.308-.218-.615ZM12.25,16.132c.098-.013.34-.011.432.018.007.002.102.105.103.112.071.36-.096.666-.481.659-.545-.011-.442-.736-.053-.788ZM13.093,21.02c-.154.11-1.178-.079-1.446-.096-.502-.031-1.01.032-1.511-.047l.028-.143c.804-.197,1.956-.42,2.765-.208.227.059.394.329.163.494ZM14.231,19.646c0,.022,0,.046-.005.067-.043.013-.103-.009-.137.002-.095.028-.103.054-.232.046-.4-.024-1.119-.206-1.536-.301-.129-.029-.346-.044-.418-.164-.029-.004-.063.003-.093,0-.083-.009-.156.009-.186-.093-.029-.004-.064.005-.093,0-.08-.013-.148.011-.186-.093-.131-.039-.343-.059-.418-.139-.171-.008-.274-.136-.418-.21l.146-.012h0l.132-.011c.03,0,.064-.004.093,0,.796.1,1.868.308,2.672.466.081.016.163.007.211.092.03.003.062-.002.093,0,.061.004.124-.004.186,0v.093c.014.004.031-.002.046,0,.139.021.145.109.142.256ZM15.842,19.777c.012.004.012.056.027.062.06.026.133-.011.174.047.02.029.089.225.094.269.048.426-.227.613-.62.534-.015-.003-.215-.202-.218-.218-.024-.115.003-.55.101-.608.037-.022.108.004.139-.012.082-.043.073-.164.303-.074ZM15.41,17.859c.148.206.366.459.216.72-.137.053-.294.033-.374-.097-.366-.705-1.058-1.394-1.388-2.099-.04-.084-.07-.15-.053-.248.033-.039.242.127.278.163.353.339,1.03,1.156,1.322,1.561Z"/>
  <polygon class="cls-10" points=".046 46.544 0 46.544 0 0 46.544 0 46.544 .046 .046 .046 .046 46.544"/>
  <path d="M10.136,20.877l.028-.144c.805-.197,1.956-.42,2.766-.208.226.059.395.329.163.495-.154.11-1.178-.079-1.445-.096-.503-.031-1.01.032-1.511-.047Z"/>
  <path d="M13.81,16.135c.034-.038.242.127.278.163.352.339,1.03,1.156,1.321,1.561.148.206.366.46.216.72-.137.053-.294.033-.374-.096-.365-.705-1.058-1.394-1.388-2.099-.04-.085-.07-.15-.054-.248Z"/>
  <path d="M10.788,18.738l-.132.011c.022-.027.096-.011.132-.011Z"/>
  <path class="cls-4" d="M9.459,22.888c.583.662-.548,1.439-.929.634-.245-.617.435-1.089.916-.647l.013.013Z"/>
  <path class="cls-9" d="M15.879,19.647c.713.3.318,1.528-.443,1.108-.532-.348-.189-1.319.428-1.114l.016.006Z"/>
  <path class="cls-9" d="M19.787,23.311c.206.12.26.418.109.603-.17.229-.698.214-.863-.016-.128-.172-.155-.467.064-.58.174-.085.505-.106.676-.015l.013.008Z"/>
  <path class="cls-4" d="M12.753,16.112c.218.163.179.514.011.702-.179.212-.556.249-.775.078-.235-.171-.201-.543.008-.721.184-.164.538-.208.742-.069l.014.01Z"/>
  <path class="cls-5" d="M10.788,18.738l-.132.011c.022-.027.096-.011.132-.011Z"/>
  <path d="M14.453,19.658c-.189.333-1.083.044-1.414-.003-.695-.135-1.298-.318-1.951-.56-.556-.17-1.243-.514-.12-.379.805.113,1.767.291,2.562.443.266.086.979.117.927.49l-.003.009Z"/>
  <g>
    <path class="cls-7" d="M7.021,46.544c-.089-1.009-.133-2.03-.093-3.045.15-3.707,1.431-7.456,2.721-10.903.242-.646,1.094-2.35.978-2.933-.1-.503-.3-.88-.351-1.462-.145-1.664-.301-3.586.613-5.059.284-.458.772-1.123,1.398-.998.159.032.372.281.469.262.404-.468,1.187-.938,1.8-.623.161.083.227.236.386.302.378-.416.89-.85,1.401-.323.306-.399,1.081-.887,1.542-.494.637.543.851,1.72.756,2.514l-.275,1.189c.517-.187,1.164-.594,1.671-.159.733.627-.381,1.939-.881,2.392-.019.011-.106.071-.139.093.019-.189-.319-.038-.44-.044-.267-.014-.528-.261-.676-.467l-.096-.487c.162-.008.13-.106.142-.118.009-.008.088.022.095-.028.005-.036-.045-.108-.048-.158,0-.014-.003-.034,0-.046.093-.091.794-.757.789-.814-.004-.047-.074-.076-.138-.047-.149.066-.324.258-.464.35.139-.275.091-.885-.186-.372-.188.346-.463,1.468-1.023.674-.284-.402-.035-1.08,0-1.535.049-.661.113-1.731-.115-2.348-.049-.132-.201-.213-.282-.095-.072.105.125,1.369.121,1.655-.012.777-.128,2.665-.513,3.3-.312.516-.491-.157-.738-.383l.076-1.942c-.011-.354-.307-1.738-.491-2.01-.093-.137-.282-.224-.329-.027-.023.097.341,1.185.389,1.407.17.779.144,2.148.01,2.942-.089.527-.633.543-.866.053-.283-.596-.217-1.209-.345-1.84-.105-.517-.336-1.236-.573-1.705-.071-.139-.328-.659-.505-.61-.229.064.227.632.28.742.342.702.806,2.256.519,2.987-.131.335-.33.327-.517.033-.198-.312-.359-.894-.56-1.253-.121-.215-.653-1.025-.888-1.021-.348.005.18.535.249.637.406.593.579,1.204.918,1.779.275.466.78.638,1.02.05.142.257.183.542.445.717.451.3,1.083.013,1.113-.531.419.563.815.656,1.141-.044.111-.238.128-.49.201-.73.014-.045-.014-.075.052-.062.091.284.419.412.698.371-.086.699.545,1.383,1.255,1.209-.006.005.001.055-.02.073-.405.352-.789.688-1.204,1.028-.389.319-.899.643-1.273.96-.309.262-.551.61-.774.9-.043.056-.107.237-.139.287-.353.555-.395,1.373-.456,2.002-.154,1.59-.224,3.188-.236,4.785-.005.627.14,1.245.184,1.872.084,1.191-.018,2.387-.083,3.579-.064,1.179-.192,2.399-.216,3.577-.003.15-1.423,0-1.551,0h-2.74c-.199,0-3.207.046-3.211,0ZM11.504,30.157c-.119-.142-.524-.69-.696-.352-.121.237.624.824.909.697.024-.158-.13-.246-.213-.345Z"/>
    <path class="cls-6" d="M41.336,26.922c-.054.015-.09.081-.207.095-.741.092-1.708-.148-2.409.009-1.108.248-2.045.528-3.222.456-.469-.028-1.71-.281-2.067-.56-.032-.025-.077-.105-.186-.186-.06-.043-.129-.094-.186-.139-.578-.452-1.008-.829-1.386-1.474-1.203-2.054-1.835-4.068-2.008-6.454-.055-.766-.117-1.39.143-2.126.284-.803.761-1.631.827-2.53.029-.405.012-1.206-.343-1.459-.78-.556-1.691.498-2.043,1.119-.112.058-.241.088-.367.087-.569-.009-1.65-.274-2.226-.428-1.526-.407-3.201-.947-4.722-1.416-.97-.3-1.923-.841-2.872-1.206-.04.005-.212.192-.253.241-.553.642-1.075,1.409-1.35,2.208-.02.058-.022.124-.052.18-.507,0-.796-.526-.979-.939-.37-.838-.455-1.375-.201-2.263.32-1.12.969-1.983,2.038-2.472.129-.059.629-.202.671-.236.026-.021.192-.383.253-.468,1.873-2.647,6.404-4.434,9.522-3.309,4.601,1.659,6.097,6.213,6.912,10.62,2.51,2.223,3.456,5.441,3.841,8.688.772.431,1.531,1.251,2.055,1.968.398.545.867,1.305.817,1.995Z"/>
    <path d="M18.738,27.48c-.71.174-1.342-.51-1.255-1.209-.279.041-.607-.087-.698-.371-.066-.012-.039.017-.052.062-.073.24-.09.492-.201.73-.326.7-.721.607-1.141.044-.03.544-.663.832-1.113.531-.263-.175-.303-.46-.445-.717-.24.589-.745.416-1.02-.05-.339-.575-.512-1.186-.918-1.779-.07-.102-.598-.631-.249-.637.234-.004.767.806.888,1.021.202.359.363.941.56,1.253.186.294.385.302.517-.033.287-.731-.177-2.285-.519-2.987-.053-.11-.509-.678-.28-.742.177-.049.434.471.505.61.237.469.469,1.188.573,1.705.128.631.062,1.244.345,1.84.232.49.776.474.866-.053.135-.794.16-2.163-.01-2.942-.048-.222-.412-1.311-.389-1.407.046-.198.236-.11.329.027.184.272.481,1.656.491,2.01l-.076,1.942c.247.227.426.899.738.383.384-.636.501-2.523.513-3.3.004-.286-.193-1.55-.121-1.655.081-.118.233-.038.282.095.228.617.164,1.686.115,2.348-.034.456-.283,1.134,0,1.535.56.793.836-.328,1.023-.674l.186-.093c.084.188-.082.282-.091.312-.025.084.009.22-.049.315l.14.024c.048.156-.159.22-.186.325-.003.013,0,.033,0,.046h-.093s.046.186.046.186c-.407.032-.189.405-.046.604.148.206.409.453.676.467.121.006.459-.144.44.044-.07.046-.224.138-.279.186Z"/>
    <path d="M11.504,30.157c.082.099.237.186.213.345-.285.127-1.029-.46-.909-.697.172-.338.577.209.696.352Z"/>
    <path d="M17.994,25.062c.278-.513.326.096.186.372.14-.092.315-.284.464-.35.064-.029.134,0,.138.047.005.056-.696.723-.789.814.027-.106.234-.169.186-.325l-.14-.024c.058-.095.024-.23.049-.315.009-.03.175-.124.091-.312l-.186.093Z"/>
    <path d="M17.994,25.992c.003.05.053.122.048.158-.007.05-.086.02-.095.028-.012.012.02.11-.142.118l.096.487c-.143-.199-.36-.572.046-.604l-.046-.186h.093Z"/>
    <g>
      <path class="cls-11" d="M16.692,44.73c-.047.583.035,1.224,0,1.813h-1.674c.048-.088.118-.244.171-.314.301-.4.654-.805.925-1.192.082-.117.111-.276.252-.354.054.137.224.109.325.046Z"/>
      <g>
        <path class="cls-2" d="M46.661,45.992l.33.452c-.043.016-.117.226-.161.24h-.241c.481.377-.357-.018-.415-.001-.056.016-.251-.121-.308-.107-.359.089-.493-.012-.87.019,0,0-.133-.016-.134-.016-.132.01-.513-.127-.645-.121-.003,0-.006,0-.009,0-.245.01-.49.014-.734.015-.256.002-.511,0-.761.002-.087.018-.175.035-.265.05-.391.065-.8.091-1.174-.037h0c-.118-.041-.232-.097-.34-.172-.164-.074-.328-.15-.491-.225,0,0-.002,0-.002,0-.151-.071-.302-.142-.453-.214-.003-.002-.006-.003-.009-.005-1.987-.95-3.937-2.038-5.845-3.108-.556-.36-1.223-.514-1.581-1.098-.013-.026-.026-.052-.036-.078-.034-.077-.062-.158-.084-.241,0,0,0-.002,0-.003-.07-.256-.091-.534-.099-.811v-.005c-.005-.17-.005-.339-.009-.504v-.002c-.003-.138-.009-.273-.022-.402-.264-.862-.272-1.799-.552-2.653-.177-1.519-.722-2.907-1.167-4.354-.007-.019-.013-.037-.022-.053,0,0,0-.002,0-.002-.17-.352-.693-.264-.858.07-.007.018-.013.036-.019.053-.17.49-.071.957-.073,1.482.13.758.285,1.615.37,2.386.099.347-.099.498-.365.516h0c-.105.008-.221-.007-.332-.039-.005,0-.009-.002-.014-.004-.062-.018-.122-.041-.178-.069-.042-.022-.084-.046-.125-.071-.019-.009-.037-.02-.055-.03-.004-.002-.007-.003-.009-.005-.105-.062-.208-.126-.308-.193-.033-.022-.067-.046-.099-.069-1.669-1.14-2.659-2.876-3.814-4.52-.156-.527-.525-.983-.697-.274.003.655,1.161,3.299,1.418,3.908.03.135-.16.074-.357-.02h0s-.005-.003-.009-.005c-.127-.061-.256-.136-.329-.181-.005-.003-.011-.006-.015-.009-.026-.016-.043-.027-.046-.03.002,0,.009.003.022.011-.672-.446-1.404-2.381-2.144-3.18-.509-.404-.961-.254-.996.154v.002s0,0,0,.002t0,.002h0c-.01.107.009.229.064.365,0,0,0,.002,0,.002.01.028.022.056.036.084.363.823,1.949,2.543,2.253,3.147.049.074.043.572-.007.977,0,.003,0,.005,0,.008-.021.17-.05.323-.084.421,0,.002-.002.004-.002.005h0c-.036.096-.077.136-.125.084-.293-.287-1.213-2.074-1.654-2.428h0c-.026-.022-.051-.038-.074-.048-.124-.06-.236-.063-.329-.026-.002,0-.005.002-.007.002-.209.084-.318.366-.244.631.243.9,1.102,1.564,1.581,2.349.011.04-.274.433-.315.447-.67-.188-.876.121-.783.523.002.012.006.024.009.036.04.15.12.311.231.463h0c.015.022.03.042.046.062.688.941,1.224,2.066,1.832,3.131.026.045.051.09.077.135.026.044.052.089.078.133.058.097.116.192.175.287.02.032.04.064.06.095.461.738.984,1.421,1.65,1.956.051.042.102.083.155.123.118.088.239.172.366.251.004.002.009.005.013.008.162.101.331.194.51.277.206.117,1.116.489,1.024.626-2.594-.005-10.841.005-11.338-.002-.009-.088-.015-.177-.022-.269v-.004c-.021-.315-.026-.649-.022-.981v-.006c.002-.212.009-.421.017-.623v-.006c0-.008,0-.015,0-.022.085-1.171.117-2.345.16-3.518l.002-.067c.026-.695.056-1.391.101-2.086,0-.005,0-.011,0-.015.032-.469.071-.937.122-1.406-.012-.206.163-1.505-.277-1.049-.036.253-.071.508-.102.766,0,.002,0,.004,0,.005-.157,1.244-.277,2.543-.342,3.834-.005.097-.01.194-.015.291-.004.076-.007.151-.01.227-.004.086-.007.172-.01.259-.003.087-.006.173-.009.258-.003.101-.005.201-.008.301-.01.44-.012.876-.008,1.306.002.133.004.266.007.397.002.102.005.205.008.306.004.114-.019.22-.059.32h0s0,.002,0,.002h0c-.036.09-.086.174-.143.253-.002.005-.006.009-.009.014-.284.439-.69.855-.979,1.309-.012.022-.027.044-.046.063,0,0,0,.002-.002.002-.174.184-.593.208-.693-.002-.041-.83.206-1.643.163-2.482.454-3.689-.272-7.678.343-11.326.062-1.398.118-1.879,1.156-2.905.965-.82,2.008-1.548,2.93-2.417.886-.463,1.953-1.271,2.956-1.403l-.065.136c.094.016.172.053.243.101,0,0,.222-.051.223-.05.04.026-.145.108-.108.14.029.024.057.05.084.076.467.306,1.199.103,1.706.137.002,0,.003,0,.004.002.24.091.094,1.077.005,1.579-.005.029-.01.055-.014.08-.015.077-.026.137-.033.174.869,2.288,3.933,3.214,6.064,2.157,1.404-.679,2.394-1.993,3.224-3.268.023-.036.048-.068.076-.096,0,0,0-.002.002-.002.067-.067.15-.101.256-.059.853.351,1.825.528,2.744.452.868-.053,1.694-.321,2.558-.473.787-.067,1.694.079,2.478-.002,1.79,1.134,2.83,2.553,3.886,4.356.334.676,1.331,1.768,1.392,2.54-.059,4.236.196,7.917,0,12.123Z"/>
        <path class="cls-8" d="M44.498,46.451v.093h-1.023v-.093c.335,0,.692.018,1.023,0Z"/>
        <path class="cls-3" d="M43.475,46.451v.093h-1.023c-.026-.141.071-.089.161-.093.286-.011.576,0,.862,0Z"/>
        <path d="M16.692,44.73c-.101.062-.272.091-.325-.046-.053-.077-.045-.165-.048-.253-.078-2.218.093-4.735.373-6.931.033-.261-.032-1.523.406-1.063.066,1.024-.121,2.039-.175,3.061-.094,1.758-.088,3.478-.231,5.233Z"/>
      </g>
      <path d="M33.431,26.922c-.029.045-.057.09-.085.135,0,0-.002.002-.002.002-.845,1.316-1.858,2.686-3.297,3.383-2.08,1.006-4.798.225-5.935-1.804-.081-.146-.275-.483-.125-.604.011-.009.024-.016.04-.022.027-.012.062-.019.105-.021.076.421.889,1.342,1.296,1.702h0c.014.012.027.023.04.033.013.011.025.021.036.03.404.324,1.144.617,1.65.698,1.021.166,1.652.129,2.604-.279,1.447-.619,2.083-1.585,3.024-2.765.142-.178.502-.446.463-.676.108.081.154.161.186.186Z"/>
      <g>
        <path class="cls-7" d="M24.663,34.765c-.216-.519-.453-1.056-.659-1.572-.184-.47-.267-.968-.325-1.465-.036-.452.41-.654.781-.45.191.113.302.352.423.544.661,1.002,1.243,2.012,1.942,2.958.299.427.611.876.998,1.242.266.295,1.522,1.29,1.879.998.11-.142.044-.345.017-.509-.046-.215-.029-.497-.067-.736-.029-.18-.097-.343-.134-.52-.049-.217-.03-.499-.076-.705-.022-.114-.061-.247-.069-.36-.024-.269.082-.52.117-.786.048-.254.083-.516.204-.747.214-.421.797-.448.929.052.242.661.455,1.332.71,1.998.173.447.376.891.487,1.358.08.346.073.72.193,1.058.032.102.044.176.062.278.059.533.066,1.087.114,1.626.026.323.155.574.142.898-.037.373.004.732.076,1.096.015.225.005.431.14.613.308.518.841.699,1.348.976,2.004,1.184,4.13,2.231,6.195,3.319.368.192.777.305,1.121.514.118.08.158.117.092.112-3.113-.011-12.463.018-13.162-.008-.561-.442-1.407-.673-1.97-1.121-1.934-1.487-2.673-3.955-4.034-5.847-.209-.308-.42-.674-.306-1.055.035-.156.153-.28.308-.317.202-.055.666.181.434-.197-.322-.421-.578-.922-.835-1.378-.158-.289-.307-.598-.385-.911-.132-.579.224-.908.746-.558.16.114.254.238.376.402.141.179.332.381.446.593.172.341.399.596.631.901.386.679.845,1.335,1.284,1.987.06.106.276.352.373.223.018-.038.005-.106-.032-.185-.085-.171-.233-.399-.343-.581-.371-.605-.787-1.185-1.161-1.789-.092-.164-.251-.25-.379-.377-.158-.185-.277-.385-.401-.585-.348-.691-.719-1.615-1.029-2.303-.134-.246-.266-.513-.311-.799-.058-.219-.04-.499.142-.656.319-.278.776-.099,1.035.186.189.202.308.471.468.695.515.738,1.124,1.512,1.463,2.365.067.209.015.338.113.527.134.273.433.69.604.949.056.085.161.227.259.22.092-.012.07-.168.037-.246-.154-.373-.452-.7-.653-1.046-.151-.284-.177-.598-.353-.864l-.005-.011ZM24.427,40.933c.167.186.418.517.642.531.308-.037-.072-.412-.177-.516-.167-.169-.343-.331-.498-.51-.468-.541-.803-1.209-1.242-1.778-.057-.072-.12-.137-.2-.178-.279-.11-.16.237-.066.376.398.673,1.029,1.491,1.532,2.065l.009.01Z"/>
        <path class="cls-2" d="M23.016,35.942c.113.078.238.362.325.558.068.151.108.303.186.465l-.31-.294c-.085-.286-.199-.229-.294-.543h.093s0-.186,0-.186Z"/>
        <path class="cls-2" d="M24.643,34.826h.14c-.085.19.088.293.092.311.026.113-.023.197.048.34-.046.002-.093-.003-.139,0-.058-.093-.07-.17-.109-.264-.007-.016-.07-.015-.077-.048-.002-.012-.001-.205,0-.246,0-.031.026-.068.046-.093Z"/>
        <path d="M24.391,40.89c-.421-.47-1.288-1.632-1.553-2.189-.094-.197-.052-.294.178-.225.499.587.84,1.331,1.329,1.926.266.323.637.594.854.951-.217.354-.639-.274-.808-.463Z"/>
        <path d="M23.528,36.965c-.078-.162-.118-.314-.186-.465l.141-.118c.384.67.846,1.298,1.255,1.953.081.129.545.87.551.938.013.136-.205.149-.275.041-.474-.775-1.095-1.536-1.486-2.349Z"/>
        <path d="M24.783,35.477c.046-.003.093.002.139,0,.164.335.532.732.723,1.114.057.114.098.238.161.35-.073.104-.2.1-.281.002-.095-.222-.958-1.304-.835-1.466.031-.002.062.001.093,0Z"/>
      </g>
      <g>
        <path class="cls-7" d="M21.869,26.028l-.016.002c.074.029.18.067.26.098-.071-.047-.15-.084-.243-.101ZM24.132,27.991c-.043.002-.077.009-.105.021.088-.502.235-1.488-.005-1.579.043-.008.08-.015.11-.023.776-.208,1.866-.876,2.524-1.444-.671.569-1.861,1.257-2.638,1.466v.002c.06.47.029.97-.064,1.367-.015.064-.002.143.033.233.008.019.016.039.026.058.236.507,1.053,1.294,1.415,1.601-.408-.36-1.22-1.281-1.296-1.702Z"/>
        <path class="cls-7" d="M33.245,26.736c-.06-.043-.129-.094-.186-.139-.578-.452-1.008-.829-1.386-1.474-1.203-2.054-1.835-4.068-2.008-6.454-.055-.766-.117-1.39.143-2.126.284-.803.761-1.631.827-2.53.029-.405.012-1.206-.343-1.459-.78-.556-1.691.498-2.043,1.119-.112.058-.241.088-.367.087-.569-.009-1.65-.274-2.226-.428-1.526-.407-3.201-.947-4.722-1.416-.97-.3-1.923-.841-2.872-1.206-.04.005-.212.192-.253.241-.553.642-1.075,1.409-1.35,2.208.197-.007.12.306.15.431.115.474.312.937.361,1.429.105-.098,1.103-.727,1.243-.78.369-.141.553.17.304.411-.191.184-1.146.717-1.408.788.064.318.195.618.28.93-.002-.122.057-.134.162-.143.329-.029.658.386.975.469.126-.025.003-.58.367-.459.159.053.04.552.015.702-.102.663-.288,1.382-.451,2.036l-.139.093.133-1.551-.087-.053-.093.094-.093-.047.046-.255-.465.093c.099.267.158.599.27.869.051.123.264.428.268.454.019.14-.048.43-.08.676-.006.046-.034.326-.041.419-.005.06-.004.127,0,.186.012.203.015.431.279.466.03.004.063-.003.093,0,0,.014-.003.033,0,.046.205-.166.477-.127.732-.143.06-.004.144.003.151.003.184-.01.373.007.558,0,.129.128-.311.263-.397.276-.149.023-.517.05-.672.05.095.259.232.502.334.759.585,1.481,1.096,3.69,2.503,4.588.009.005.044.02.092.039l.016-.002c.094.016.172.053.243.101,0,0,.002,0,.002.002.06.022.104.041.111.047.033-.107.12-.09.207-.095.287-.019.601.026.888.004,1.117-.084,2.439-.945,3.298-1.63.259-.206.494-.586.861-.603.164.166-.563.877-.697,1-.04.037-.083.075-.127.112-.659.568-1.748,1.236-2.524,1.444-.03.008-.067.015-.11.023.24.091.094,1.077.005,1.579.027-.012.062-.019.105-.021.076.421.889,1.342,1.296,1.702h0c.014.012.027.023.04.033.013.011.025.021.036.03.404.324,1.144.617,1.65.698,1.021.166,1.652.129,2.604-.279,1.447-.619,2.083-1.585,3.024-2.765.142-.178.502-.446.463-.676ZM22.189,23.607c-.282.439-.854.039-1.109-.236-.354-.379-.625-1.164-.575-1.681.034-.342.353-.714.722-.675.831.09,1.387,1.93.962,2.592ZM23.228,16.878c-.069.143-.587.101-.746.093-.228-.011-.984-.09-1.137-.212-.084-.067-.128-.189-.054-.279l1.056-1.13c.201-.119.411-.052.394.203-.013.211-.358.45-.47.628l.878-.088c.069.125.009.209-.085.3l-.421.206c.119.04.706.024.584.279ZM23.516,13.915c-.513.162-1.917.416-2.425.354-.497-.061-.482-.476-.049-.55.61-.104,1.779-.247,2.369-.189.15.015.284.105.439.095.067.227-.153.232-.335.29Z"/>
        <path d="M18.91,16.935c-.102.663-.288,1.382-.451,2.036l-.139.093.133-1.551-.087-.053-.093.094-.093-.047.046-.255-.465.093c-.019-.05-.032-.102-.046-.139.067-.093.255-.18.234-.301-.005-.031-.438-.289-.513-.35-.018-.014-.034-.027-.046-.046v-.046c-.007-.026.007-.067,0-.093-.002-.122.057-.134.162-.143.329-.029.658.386.975.469.126-.025.003-.58.367-.459.159.053.04.552.015.702Z"/>
        <path d="M18.518,14.649c-.191.184-1.146.717-1.408.788-.107.029-.212.059-.325.046-.056-.055.141-.423.185-.465.105-.098,1.103-.727,1.243-.78.369-.141.553.17.304.411Z"/>
        <path d="M19.596,20.595c-.149.023-.517.05-.672.05-.163,0-.332-.007-.372-.186.205-.166.41-.124.665-.14.06-.004.211,0,.218,0,.184-.01.373.007.558,0,.129.128-.311.263-.397.276Z"/>
        <path class="cls-7" d="M17.436,16.553c.075.061.508.319.513.35.021.121-.167.209-.234.301-.014-.036-.131-.169-.171-.271-.048-.122-.046-.262-.108-.38Z"/>
        <path class="cls-1" d="M17.437,16.553c-.042-.062-.046-.089-.047-.093l.047.093Z"/>
        <path d="M26.783,24.854c-.04.037-.083.075-.127.112-.659.568-1.748,1.236-2.524,1.444-.03.008-.067.015-.11.023,0,0-.002,0-.004,0-.442.074-1.474.098-1.719-.074-.06-.041-.071-.102-.071-.142,0-.022,0-.039-.002-.041.033-.107.12-.09.207-.095.287-.019.601.026.888.004,1.117-.084,2.439-.945,3.298-1.63.259-.206.494-.586.861-.603.164.166-.563.877-.697,1Z"/>
        <path d="M22.189,23.607c-.282.439-.854.039-1.109-.236-.354-.379-.625-1.164-.575-1.681.034-.342.353-.714.722-.675.831.09,1.387,1.93.962,2.592Z"/>
        <path d="M23.228,16.878c-.069.143-.587.101-.746.093-.228-.011-.984-.09-1.137-.212-.084-.067-.128-.189-.054-.279l1.056-1.13c.201-.119.411-.052.394.203-.013.211-.358.45-.47.628l.878-.088c.069.125.009.209-.085.3l-.421.206c.119.04.706.024.584.279Z"/>
        <path d="M23.516,13.915c-.513.162-1.917.416-2.425.354-.497-.061-.482-.476-.049-.55.61-.104,1.779-.247,2.369-.189.15.015.284.105.439.095.067.227-.153.232-.335.29Z"/>
      </g>
    </g>
  </g>
</svg>