<?xml version="1.0" encoding="UTF-8"?>
<svg id="Layer_1" data-name="Layer 1" xmlns="http://www.w3.org/2000/svg" viewBox="0 0 46.741 46.517">
  <defs>
    <style>
      .cls-1 {
        fill: #291103;
      }

      .cls-2 {
        fill: #009e73;
      }

      .cls-3 {
        fill: #dd6e79;
      }

      .cls-4 {
        fill: #2a1204;
      }

      .cls-5 {
        fill: #fefefe;
      }

      .cls-6 {
        fill: #c06971;
      }

      .cls-7 {
        fill: #238833;
      }

      .cls-8 {
        fill: #97e2cd;
      }
    </style>
  </defs>
  <path class="cls-6" d="M20.539,11.385c-.044.123-.051.242-.046.372h-.093c0-.099-.013-.261.043-.343.03-.044.092-.024.096-.029Z"/>
  <path class="cls-6" d="M20.725,8.225h.093c0,.139,0,.279,0,.418-.118-.111-.079-.279-.093-.418Z"/>
  <path class="cls-6" d="M20.353,8.922c.007-.007-.016-.067.006-.085l.32-.008v.093c-.108-.004-.218.003-.326,0Z"/>
  <path class="cls-6" d="M20.772,10.084c-.025-.029-.044.008-.139-.139.094-.005.138.047.139.139Z"/>
  <path class="cls-6" d="M20.586,9.851c-.059-.052-.047.037-.139-.139.093-.005.139.047.139.139Z"/>
  <path class="cls-6" d="M21.004,10.363c-.012-.015-.072-.057-.139-.139.093-.005.139.046.139.139Z"/>
  <g>
    <path class="cls-5" d="M0,.046v-.046h46.515v46.515h-.046c.001-1.393-.002-2.789,0-4.182.018-14.095-.014-28.192,0-42.287h-27.138c-6.443.001-12.888,0-19.331,0Z"/>
    <path class="cls-3" d="M46.469.046h-27.138c-.009.284.053.568.106.846.465,2.413,1.036,4.885,1.288,7.333h.093c0,.139,0,.279,0,.418v.279c.104.035.522.504.632.622.249.266.37.408.576.725.232.117.246.191.371.372.035.02.091.004.143.067.037.044.029.095.043.119.012.009.06.002.093.023.222.141.284.521.141.745-.009.015-.23.234-.246.241-.074.033-.146.003-.22.013-.015.002-.031-.002-.046,0l-.314.174c-.22.024-.39.089-.615.105.006.298.056.602.105.894.948,5.633,2.406,11.836,4.673,17.074.669,1.546,1.378,3.062,2.847,3.985.934.587,2.681.904,3.782.958,1.006.05,1.995-.119,2.999-.095-.035-.077-.098-.143-.093-.232.517-.16,1.057-.278,1.569-.452,1.004-.341,2.173-.782,3.119-1.25.197-.097,1.048-.635,1.168-.603.464.122.023.646-.163.819-.707.66-2.531,1.32-3.485,1.626-.605.194-1.219.318-1.836.463-.002.11.051.205.093.302.875,2.049,1.491,4.203,1.952,6.39.033.089.185.128.185.139v.744s.064-.013.082.009l.012.175c.199-.06.203.117.292.172.129.08.865.368.946.386.222.05.567.046.773.095.038.009.012.084.098.095.188.025.473-.043.645-.002.037.009.012.084.098.095.249.033,1.104.033,1.354,0,.086-.012.061-.087.099-.095.223-.053.613-.038.865-.095.034-.008.028-.084.064-.091.897-.197,1.917-.769,2.717-1.213.057-.032.043-.112.132-.089.019-14.095-.014-28.192,0-42.287ZM23.759,15.344c-.557-.302-.293-1.051-.185-1.552.441-2.042,1.301-4.807,2.088-6.741.108-.265.272-.881.582-.909.463-.04.321.566.267.828-.336,1.658-1.121,3.57-1.591,5.241-.213.76-.411,1.529-.567,2.304.026.08.346.114.439.122.869.072,1.739-.056,2.599-.095.446-.019,1.328-.107,1.719-.042.192.032.38.193.399.393.071.768-1.223.552-1.7.579-.944.053-3.27.294-4.051-.128ZM30.932,27.632c-.803.803-1.873.558-2.654-.124-.886-.775-1.536-2.934-1.777-4.078-.252-1.197-.203-2.86.685-3.797.496-.524,1.371-.491,1.995-.23,1.426.596,2.582,3.179,2.691,4.651.075,1.017-.191,2.83-.94,3.579ZM37.431,9.944c-1.426-.032-2.85.135-4.27-.052-1.308-.173-.274-1.213.18-1.715.337-.372.729-.699,1.07-1.068.378-.408.999-1.299,1.394-1.58.316-.225.745-.143.655.28-.026.122-.588.904-.706,1.063-.173.231-.363.461-.55.681-.339.4-.8.788-1.12,1.181-.034.041-.201.246-.162.279.501.057,1.006.056,1.512.049.659-.009,1.421-.147,2.078-.037.618.104.528.903-.081.918Z"/>
    <path class="cls-1" d="M36.06,35.316c-.138.011-.229-.26-.279-.372-.035-.077-.097-.143-.093-.232.517-.161,1.057-.279,1.569-.452,1.004-.341,2.173-.782,3.118-1.25.196-.097,1.047-.635,1.168-.603.464.123.023.646-.163.819-.708.66-2.531,1.32-3.485,1.626-.605.194-1.218.318-1.837.464Z"/>
    <path d="M20.679,8.922c.03.001.065-.005.093,0,.046.166.229.175.35.323.207.254.689.915.904,1.024.146.225.133.231.372.372.004.006-.006.044.015.079.037.065.145.088.171.107.131.226.232.338.183.625-.043.254-.276.238-.415.397-.015.002-.032-.003-.046,0-.59.108-1.268.377-1.812,0-.005-.026.001-.063,0-.093-.004-.13.003-.249.046-.372.037-.041.047-.055.093-.093.328-.125.685-.086,1.022-.186.014-.019-.243-.311-.277-.349-.088-.1-.202-.266-.327-.301-.011-.027-.031-.074-.046-.093,0-.093-.046-.144-.139-.139-.035-.042-.057-.098-.093-.139-.001-.093-.046-.144-.139-.139-.015-.023-.013-.063-.046-.093,0-.092-.046-.145-.139-.139-.032-.062.004-.079-.093-.139.013-.081-.01-.11-.093-.093-.003-.015.003-.031,0-.046-.027-.149-.069-.272,0-.418.035-.039.063-.062.093-.093.108.003.217-.004.325,0Z"/>
    <path class="cls-6" d="M21.05,10.455c.126.035.239.202.327.301.033.038.29.33.277.349-.337.101-.694.061-1.022.186.006-.005-.03-.063.057-.107.113-.057.324-.075.455-.079-.048-.195-.019-.475-.093-.65Z"/>
    <path class="cls-6" d="M22.305,11.85l-.314.174c-.22.023-.39.089-.615.105-.01,0-.06-.04-.113-.039-.232.001-.701.109-.77-.24.544.377,1.222.108,1.812,0Z"/>
    <path class="cls-6" d="M20.818,8.922c.104.035.522.505.632.622.249.266.369.407.576.725.232.117.247.192.372.372.035.021.09.004.143.067.037.044.029.095.043.119.012.009.059.002.093.023.221.141.284.521.141.745-.009.015-.23.234-.246.241-.074.033-.147.003-.22.013.14-.159.372-.143.415-.397.049-.287-.052-.399-.183-.625-.026-.019-.134-.042-.171-.107-.02-.035-.011-.073-.015-.079-.239-.14-.226-.147-.372-.372-.216-.109-.698-.77-.904-1.024-.121-.149-.304-.157-.35-.323.016.003.034-.004.046,0Z"/>
    <path d="M30.932,27.633c-.803.804-1.874.558-2.654-.124-.885-.774-1.536-2.934-1.777-4.078-.252-1.197-.202-2.859.685-3.797.496-.524,1.37-.492,1.995-.23,1.426.596,2.582,3.179,2.691,4.651.075,1.017-.192,2.83-.94,3.579Z"/>
    <path class="cls-4" d="M26.243,6.143c.464-.041.321.565.268.828-.336,1.657-1.121,3.57-1.59,5.24-.214.76-.411,1.529-.567,2.304.026.08.346.114.439.122.87.072,1.739-.056,2.6-.094.445-.02,1.328-.107,1.719-.042.192.032.38.193.399.392.071.768-1.222.552-1.7.579-.944.053-3.271.294-4.05-.128-.557-.302-.293-1.051-.185-1.552.44-2.042,1.3-4.807,2.087-6.742.108-.265.272-.881.582-.908Z"/>
    <path class="cls-4" d="M35.204,7.555c-.338.399-.8.788-1.12,1.181-.034.041-.202.247-.162.279.501.057,1.007.055,1.512.049.659-.009,1.421-.147,2.078-.037.618.103.528.902-.082.918-1.427-.032-2.85.135-4.27-.052-1.308-.172-.274-1.213.18-1.714.337-.372.729-.699,1.07-1.067.378-.409.998-1.299,1.394-1.58.316-.225.745-.142.655.281-.026.122-.588.904-.706,1.063-.172.231-.363.462-.55.682Z"/>
  </g>
  <g>
    <path class="cls-8" d="M19.331.046c-.009.284.053.568.107.846.464,2.413,1.036,4.885,1.288,7.332.014.139-.025.307.093.418v.279c-.012-.004-.03.003-.046,0-.028-.005-.062.001-.093,0v-.093s-.319.008-.319.008c-.022.018,0,.078-.006.085-.03.031-.058.054-.093.093-.004.005-.064-.015-.096.029-.066.093-.051.428.096.389.003.015-.003.032,0,.046.031.165.027.052.093.093.097.06.061.078.093.139.092.177.08.088.139.139.034.03.031.07.046.093.096.148.114.11.139.139.036.041.058.097.093.139.068.082.127.124.139.139.016.019.035.066.046.093.075.175.045.456.093.65-.13.004-.341.021-.455.079-.087.044-.05.102-.057.107-.046.038-.056.052-.093.093-.005.005-.066-.016-.096.029-.056.082-.043.244-.043.343h.093c.001.03-.005.066,0,.093.069.348.538.241.77.24.053,0,.103.04.113.039.007.297.056.602.105.894.947,5.632,2.407,11.835,4.674,17.074.669,1.545,1.377,3.062,2.847,3.984.934.587,2.681.904,3.781.959,1.007.05,1.996-.119,2.999-.095.05.111.141.383.279.372-.001.11.052.205.093.302.875,2.049,1.491,4.203,1.951,6.389-.109.029-.26.022-.358.062-.023.009-.088.134-.121.155-.956.62-2.103,1.034-3.129,1.519-1.847.872-3.644,1.78-5.555,2.591l-.224.18H0V.046c6.443,0,12.888,0,19.331,0ZM14.115,21.436c-.188-.08-.161.137-.36.079.082.19-.089.286-.097.345-.034.263.106.899-.104,1.033-.066.042-.162-.03-.194.109l-.069-.002c-.086-.109-.789-.895-.849-.914-.396-.132-.573.185-.439.532.013.034.462.409.529.491.027.033.003.121.03.157.051.067.26.186.268.271-.031.087-.155.379-.224.392-.079.015-.283.017-.364.006-.086-.011-.061-.087-.098-.096-.068-.016-.289-.014-.365-.004-.029.004-.248.206-.251.223-.066.282.079.284.261.354.028.011.339.171.361.174.077.01.381-.022.398-.004-.085.191.088.293.092.311.038.17-.001.334.109.511.018.029.124.11.17.109.043.11-.059.068-.09.128-.015.029.009.097-.017.135-.153.229-.327.209-.466.556-.006.016-.068.017-.076.048-.099.403.167.502.522.43.044-.009.581-.638.625-.647.068-.014.241-.016.306,0,.038.009.012.084.098.095.094.012.207-.015.306-.004.013.107-.022.24,0,.34.009.037.084.012.096.098.018.137-.034.331-.002.458.008.031.069.032.076.048.022.054.008.118.032.155.114.182.611.16.638-.053.02-.16.021-.636,0-.795-.01-.08-.158-.086-.097-.252.21.035.16-.129.396-.096.116.016.831.89.917.918.144.048.353.04.437-.094.039-.062-.019-.16.108-.202v-.124c-.128-.041-.069-.143-.107-.203-.084-.131-.787-.706-.808-.77-.057-.171-.034-.349.112-.451l.083-.006c.147.168.278.07.468.094.085.011.061.087.098.095.061.014.247.015.308,0,.033-.008.024-.072.068-.09.041-.016.132.013.148-.003.016-.016-.013-.108.003-.148.018-.045.082-.035.091-.066.048-.162-.07-.141-.091-.191-.017-.041.013-.132-.003-.148-.016-.016-.107.013-.148-.003-.044-.018-.035-.082-.068-.09-.106-.026-.253.016-.366.003-.085-.011-.061-.087-.098-.096-.1-.023-.233.014-.34-.001.064-.147-.088-.198-.092-.217-.021-.093.016-.207-.003-.306-.003-.017-.128-.146-.188-.274-.028-.061-.15-.041-.075-.213.032-.073.698-.621.715-.673.027-.08.029-.245.012-.327-.003-.015-.202-.214-.217-.217-.071-.015-.233-.015-.305,0-.04.008-.548.531-.576.57-.021.029-.027.214-.12.249-.243.092-.199-.244-.452-.171l.092-.092c-.119.016-.434.016-.462-.128-.055-.277.036-.693-.003-.988l-.092.092c.078-.115-.108-.413-.197-.45ZM18.463,25.014c-.145.156-.119.437.112.488.253.056.677-.215.93-.305,1.036-.368,2.163-.627,3.171-1.011.124-.047.621-.25.645-.334.111-.385-.454-.272-.645-.223-1.044.266-2.124.585-3.137.952-.187.068-.99.34-1.077.433ZM16.833,31.17c.111.066.238.082.359.033.197-.08.662-.46.889-.598,1.399-.856,2.841-1.646,4.239-2.499.237-.145,1.409-.868,1.464-1.046.103-.338-.219-.419-.474-.288-1.877,1.107-3.796,2.153-5.619,3.35-.345.226-1.124.57-.857,1.049ZM10.813,27.821c.254-.273-.011-.618-.36-.476-1.956.748-3.968,1.375-5.898,2.187-.269.113-.908.265-.621.628.382.021.749-.123,1.108-.233,1.599-.492,3.401-1.166,4.972-1.766.17-.065.701-.237.798-.34ZM15.694,28.915c-1.922.655-3.761,1.555-5.702,2.151-.152.047-.491-.003-.414.268.093.324.912.114,1.156.056,1.164-.278,2.816-1.008,3.961-1.476.278-.114,1.202-.453,1.356-.642.228-.279-.081-.446-.358-.358ZM25.498,30.4c-.075.017-.197.107-.261.157-.278.214-1.511,1.981-1.697,2.345-.253.496.07.794.392.438l1.859-2.745c.034-.214-.109-.237-.292-.196ZM8.365,32.389c-.17.006-.347-.053-.449.109-.023.037-.01.101-.032.155-.006.016-.068.017-.076.048-.037.148.023.39.002.551-.011.086-.087.061-.096.099-.019.083.019.414-.002.432-.188-.089-.249.168-.279.185-.092.054-.086-.048-.127-.087-.405-.389-.805-.785-1.185-1.199l-.453-.014c.017.144-.032.314.014.453.005.014.136.088.157.12.214.327.309.369.558.65.027.031.002.125.03.157.107.123.317.305.449.387l.002.069c-.15.032-.065.141-.1.201-.03.05-.45.023-.519.007-.038-.008-.012-.084-.098-.096-.203-.027-.465.026-.677.004.007.217-.243.336.015.541.115.033.231.08.341.125.223.09.474.17.702.262.041.017.132-.013.148.003s-.013.107.003.148c.053.13.048.08.092.283.008.035.083.028.091.063.031.129.014.381-.13.43-.043.015-.131-.01-.146.005-.017.017-.011.372-.28.277.024.27-.019.146-.148.189-.11.036-.117.18-.147.26-.006.016-.068.017-.076.048-.081.332.101.511.431.431.031-.008.032-.069.048-.076.055-.022.122-.009.156-.031.118-.075.617-.694.677-.714.233-.082.239.045.283.063.055.022.121.009.156.031.043.027.125.171.198.205l.003,1.235c.125.045.069.141.107.203.115.184.604.139.633-.018.031-.171-.06-.268.098-.406l-.002-.09-.095-.052.004-.067c.243-.041,0-.199-.007-.255-.025-.205.025-.464.004-.677.216.031.192-.17.453-.079.025.009.34.337.368.372.052.064.257.464.309.528.028.035.344.363.369.372.139.054.389-.008.546.014-.063-.15.085-.194.092-.218.073-.279-.093-.238-.169-.354-.189-.289-.256-.31-.465-.557-.027-.033-.002-.123-.03-.157-.176-.215-.216-.156-.359-.443-.029-.058-.125-.012-.09-.128.239-.21.267-.011.309-.002.197.044.483.05.68.095.034.008.028.083.063.091.269.064.392-.051.529-.253l-.008-.392c-.137-.039-.288-.062-.424-.102-.057-.017-.403-.172-.44-.181-.099-.024-.234.013-.34-.001l.092-.092h-.279c-.013-.106.023-.241-.001-.34-.008-.031-.069-.031-.076-.048-.049-.12-.089-.333-.202-.38l.002-.069c.1-.073.804-.703.821-.756.048-.143.04-.353-.094-.437-.063-.039-.16.019-.202-.108h-.124c-.03.009-.029.069-.046.076-.307.133-.456.357-.708.594-.022.021-.018.069-.021.071-.093.056-.129-.125-.2-.17-.05-.032-.275-.092-.341-.124-.026-.013-.05-.131-.201-.077-.04-.034.024-.888.003-1.048-.008-.059-.18-.156-.096-.346ZM20.898,33.426c-.148-.046-.35-.044-.436.093-.039.062.018.159-.107.203v.99c-.108.013-.242-.023-.341,0-.031.007-.025.148-.277.09-.04-.009-.102-.142-.142-.168-.041-.027-.121-.003-.156-.03-.245-.185-.213-.316-.557-.465-.021-.009-.016-.137-.19-.063-.013.006-.192.191-.195.205-.015.072-.015.233,0,.305.011.053.661.65.762.757.021.022.069.018.071.021.061.101-.083.086-.093.122-.023.088.022.214,0,.31-.004.017-.177.12-.092.311-.188.083-.287-.089-.346-.097-.13-.017-.817-.021-.924.005-.017.004-.12.176-.311.092.055.183-.106.164-.097.301.002.023.188.231.204.241.035.022.102.009.156.031.016.006.017.068.048.076.269.066.781-.063,1.051.002.035.008.028.083.064.091.131.029.217-.046.324.109.032.229.253.373.2.601-.012.051-.57.507-.633.606-.022.034-.009.102-.031.156-.014.037-.129.03-.075.26.003.014.182.201.195.206.078.03.363.03.441,0,.05-.019.557-.623.603-.634.229-.054.219.057.26.075.083.035.191.104.203.107.12.03.301-.017.432.001.021.021-.02.346,0,.433.031.13.154.482.184.621.021.094-.016.207.003.307.003.015.203.214.218.217.065.014.204.015.27.005.045-.007.25-.211.256-.256.043-.292-.089-.291-.099-.371-.021-.163.038-.401.003-.552-.009-.038-.085-.013-.096-.098-.007-.056-.011-.385.004-.398.013-.012.103.012.148-.003.092-.031.102-.238.285-.183.031.009.03.069.047.077.054.023.121.008.156.031.11.07.647.716.698.727.276.058.307-.085.524-.091-.017-.131.028-.313,0-.432-.008-.033-.072-.024-.09-.068-.016-.041.013-.131-.003-.148-.012-.012-.113.011-.171-.015-.048-.021-.722-.693-.742-.741-.074-.173.054-.168.063-.19.064-.147.047-.307.294-.263l-.092.092h1.115s-.092-.092-.092-.092c.281.031.143-.038.187-.151.018-.045.082-.035.091-.066.047-.165-.071-.141-.091-.191-.016-.041.013-.132-.003-.148s-.107.013-.148-.003c-.044-.018-.035-.082-.068-.09-.269-.066-.762.056-1.049-.003-.014-.003-.197-.186-.205-.198-.036-.058-.088-.274-.122-.344-.007-.015-.05-.014-.071-.019l-.006-.086c.105-.054.284-.208.356-.294.027-.033.002-.123.03-.157.193-.234.438-.232.355-.632-.003-.014-.182-.201-.196-.205-.089-.03-.259-.03-.348,0-.044.014-.545.566-.642.657-.022.021-.018.069-.021.071-.093.056-.129-.125-.2-.17-.05-.032-.275-.092-.341-.124-.026-.013-.05-.131-.201-.077l-.002-.989c-.113-.032-.097-.265-.197-.296ZM7.017,42.426l.211-.044c2.196-1.885,4.525-3.615,6.713-5.508.198-.172.813-.671.929-.837.276-.397-.092-.55-.416-.323-1.804,1.662-3.772,3.135-5.626,4.737-.352.304-1.683,1.425-1.79,1.789-.018.062-.03.122-.022.187ZM14.425,41.889c.832-.789,2.06-1.798,2.746-2.669.21-.267.398-.73-.137-.649-.244.037-.752.745-.954.953-.601.62-1.296,1.17-1.861,1.823-.132.152-.914,1.011-.479,1.119.152.037.549-.45.684-.577Z"/>
    <path class="cls-2" d="M38.141,41.922c.232.071.204.401.23.603.017.187.069.299.169.398.263.257.646.401.995.53.321.113.652.116.98.201.252.055.535.065.77.112.322.077.629.079.98.072.27.003.518-.073.768-.128,1.121-.152,2.279-.873,3.265-1.416.157-.081.33-.126.383.155.045,1.195.004,2.412.018,3.611.018.352.155.458-.183.456-1.216.008-16.421-.01-17.876-.006-.015,0-.017-.008.001-.027.131-.113.327-.214.493-.293.913-.405,1.82-.831,2.716-1.267.917-.443,1.829-.898,2.75-1.335.901-.426,1.88-.804,2.744-1.318.239-.141.496-.405.787-.35l.011.003Z"/>
    <path class="cls-7" d="M20.898,33.426c.1.031.084.264.197.296l.002.989c.151-.054.175.064.201.077.066.033.291.092.341.124.071.045.107.225.2.17.003-.002-.001-.05.021-.071.097-.091.598-.643.642-.657.089-.03.259-.03.348,0,.013.004.193.192.196.205.083.399-.162.398-.355.632-.027.033-.003.124-.03.157-.072.086-.251.24-.356.294l.006.086c.021.005.064.004.071.019.034.07.087.286.122.344.007.012.191.196.205.198.287.059.781-.063,1.049.003.033.008.024.072.068.09.041.016.132-.013.148.003s-.013.107.003.148c.02.05.138.026.091.191-.009.031-.073.021-.091.066-.045.113.094.182-.187.151l.092.092h-1.115s.092-.092.092-.092c-.247-.043-.23.116-.294.263-.009.021-.137.017-.063.19.021.048.694.72.742.741.058.026.159.003.171.015.016.017-.013.107.003.148.018.044.082.035.09.068.029.119-.016.301,0,.432-.216.006-.247.149-.524.091-.051-.011-.589-.656-.698-.727-.036-.023-.102-.007-.156-.031-.017-.007-.016-.067-.047-.077-.183-.055-.192.152-.285.183-.044.015-.135-.009-.148.003-.015.013-.011.342-.004.398.011.086.087.061.096.098.035.151-.024.389-.003.552.01.079.142.079.099.371-.007.045-.211.25-.256.256-.067.01-.205.009-.27-.005-.015-.003-.215-.202-.218-.217-.019-.1.018-.212-.003-.307-.03-.139-.153-.492-.184-.621-.021-.087.02-.412,0-.433-.131-.018-.312.029-.432-.001-.012-.003-.12-.072-.203-.107-.041-.018-.031-.129-.26-.075-.046.011-.553.615-.603.634-.078.03-.363.03-.441,0-.013-.005-.192-.192-.195-.206-.054-.23.06-.224.075-.26.021-.055.009-.122.031-.156.063-.099.621-.554.633-.606.054-.229-.167-.372-.2-.601-.107-.155-.193-.08-.324-.109-.035-.008-.029-.083-.064-.091-.27-.065-.782.064-1.051-.002-.031-.008-.032-.069-.048-.076-.055-.022-.121-.008-.156-.031-.017-.011-.203-.218-.204-.241-.009-.137.152-.119.097-.301.191.084.293-.088.311-.092.107-.026.793-.022.924-.005.059.008.158.18.346.097-.085-.191.088-.293.092-.311.022-.097-.023-.222,0-.31.009-.036.153-.021.093-.122-.002-.003-.05.001-.071-.021-.102-.107-.751-.704-.762-.757-.015-.071-.015-.233,0-.305.003-.014.182-.2.195-.205.173-.074.169.054.19.063.344.149.312.28.557.465.035.027.115.003.156.03.04.026.102.159.142.168.252.059.246-.082.277-.09.099-.023.234.013.34,0v-.99c.126-.045.07-.142.109-.203.086-.137.288-.139.436-.093Z"/>
    <path class="cls-7" d="M8.365,32.389c-.083.189.089.286.096.346.021.16-.043,1.014-.003,1.048.151-.054.175.064.201.077.066.033.291.092.341.124.071.045.107.225.2.17.003-.002-.001-.05.021-.071.252-.237.401-.461.708-.594.017-.007.016-.068.046-.076h.124c.041.127.139.069.202.108.134.085.142.294.094.437-.018.053-.722.683-.821.756l-.002.069c.113.047.153.259.202.38.007.016.068.017.076.048.024.099-.012.233.001.339h.279s-.092.092-.092.092c.106.015.241-.022.34.001.037.009.383.164.44.181.136.04.286.063.424.102l.008.392c-.137.202-.26.317-.529.253-.035-.008-.029-.083-.063-.091-.197-.044-.483-.051-.68-.095-.042-.009-.07-.208-.309.002-.035.116.06.07.09.128.143.287.183.228.359.443.027.033.003.124.03.157.208.248.276.268.465.557.076.117.243.075.169.354-.006.024-.154.067-.092.218-.157-.022-.407.04-.546-.014-.024-.009-.341-.338-.369-.372-.052-.065-.257-.464-.309-.528-.028-.035-.344-.363-.368-.372-.26-.091-.237.11-.453.079.021.213-.029.471-.004.677.007.055.25.214.007.255l-.004.067.095.052.002.09c-.159.138-.067.235-.098.406-.029.158-.517.203-.633.018-.039-.062.017-.158-.107-.203l-.003-1.235c-.073-.033-.156-.178-.198-.205-.035-.022-.101-.009-.156-.031-.044-.017-.049-.145-.283-.063-.059.021-.559.639-.677.714-.034.022-.102.009-.156.031-.016.006-.017.068-.048.076-.33.081-.512-.099-.431-.431.008-.031.07-.032.076-.048.03-.081.037-.224.147-.26.129-.043.172.081.148-.189.269.095.263-.26.28-.277.015-.015.103.01.146-.005.144-.049.161-.301.13-.43-.008-.035-.083-.028-.091-.063-.044-.203-.039-.153-.092-.283-.017-.041.013-.132-.003-.148s-.107.013-.148-.003c-.228-.092-.479-.171-.702-.262-.11-.045-.226-.092-.341-.125-.258-.205-.008-.324-.015-.541.212.022.473-.031.677-.004.086.011.061.087.098.096.069.015.49.042.519-.007.035-.059-.049-.168.1-.201l-.002-.069c-.132-.082-.342-.264-.449-.387-.027-.032-.003-.126-.03-.157-.249-.282-.343-.324-.558-.65-.021-.032-.152-.106-.157-.12-.046-.139.003-.309-.014-.453l.453.014c.38.413.78.81,1.185,1.199.041.039.035.141.127.087.03-.017.091-.274.279-.185.021-.019-.018-.35.002-.432.009-.038.084-.012.096-.099.021-.162-.039-.403-.002-.551.008-.031.069-.032.076-.048.022-.054.008-.118.032-.155.102-.161.279-.103.449-.109Z"/>
    <path class="cls-7" d="M14.115,21.436c.089.038.276.335.197.45l.092-.092c.039.295-.052.711.003.988.028.144.343.144.462.128l-.092.092c.253-.073.21.263.452.171.093-.035.099-.22.12-.249.029-.04.536-.562.576-.57.071-.015.233-.015.305,0,.015.003.214.202.217.217.017.082.015.246-.012.327-.017.052-.684.601-.715.673-.075.172.046.152.075.213.06.129.185.257.188.274.019.1-.019.213.003.306.005.02.156.07.092.217.107.015.239-.022.34.001.037.009.013.085.098.096.113.014.26-.029.366-.003.033.008.024.072.068.09.041.016.132-.013.148.003.016.016-.013.108.003.148.02.05.139.029.091.191-.009.031-.072.021-.091.066-.017.041.013.132-.003.148-.016.016-.107-.013-.148.003-.044.018-.035.082-.068.09-.061.015-.246.014-.308,0-.037-.009-.013-.085-.098-.095-.19-.023-.32.074-.468-.094l-.083.006c-.147.102-.169.28-.112.451.021.063.723.638.808.77.038.06-.021.162.107.203v.124c-.127.041-.069.139-.108.202-.084.134-.293.142-.437.094-.086-.029-.801-.902-.917-.918-.236-.033-.186.132-.396.096-.061.167.087.172.097.252.02.158.019.635,0,.795-.026.213-.523.234-.638.053-.023-.037-.01-.101-.032-.155-.007-.016-.068-.017-.076-.048-.032-.128.02-.321.002-.458-.011-.086-.087-.061-.096-.098-.023-.1.012-.233,0-.34-.098-.011-.211.016-.306.004-.086-.011-.061-.087-.098-.095-.066-.015-.239-.013-.306,0-.044.009-.581.638-.625.647-.355.072-.621-.028-.522-.43.008-.031.069-.032.076-.048.139-.348.313-.328.466-.556.026-.038.002-.107.017-.135.03-.06.133-.019.09-.128-.046.001-.152-.08-.17-.109-.11-.177-.071-.341-.109-.511-.004-.017-.177-.12-.092-.311-.017-.018-.322.014-.398.004-.022-.003-.333-.163-.361-.174-.182-.069-.328-.072-.261-.354.004-.016.223-.219.251-.223.076-.01.296-.012.365.004.038.009.012.084.098.096.081.011.285.01.364-.006.069-.013.193-.305.224-.392-.008-.085-.217-.204-.268-.271-.027-.036-.003-.123-.03-.157-.067-.082-.516-.457-.529-.491-.134-.347.043-.664.439-.532.06.02.763.805.849.914l.069.002c.032-.139.129-.068.194-.109.211-.134.07-.77.104-1.033.008-.06.179-.155.097-.345.2.059.172-.159.36-.079Z"/>
    <path d="M16.833,31.17c-.267-.479.513-.823.857-1.049,1.823-1.197,3.741-2.243,5.619-3.35.255-.131.577-.051.474.288-.054.179-1.227.902-1.464,1.046-1.398.853-2.84,1.643-4.239,2.499-.227.139-.691.518-.889.598-.121.049-.248.033-.359-.033Z"/>
    <path d="M7.017,42.426c-.009-.065.003-.124.022-.187.106-.364,1.438-1.485,1.79-1.789,1.854-1.601,3.821-3.075,5.626-4.737.324-.227.692-.074.416.323-.116.166-.73.665-.929.837-2.188,1.894-4.517,3.624-6.713,5.508l-.211.044Z"/>
    <path d="M10.813,27.821c-.096.104-.628.276-.798.34-1.571.6-3.373,1.274-4.972,1.766-.36.111-.727.254-1.108.233-.287-.362.352-.514.621-.628,1.93-.813,3.942-1.44,5.898-2.187.348-.142.613.203.36.476Z"/>
    <path d="M15.694,28.915c.276-.089.586.079.358.358-.154.188-1.078.528-1.356.642-1.145.468-2.797,1.198-3.961,1.476-.243.058-1.063.268-1.156-.056-.077-.271.261-.221.414-.268,1.94-.596,3.78-1.496,5.702-2.151Z"/>
    <path d="M14.425,41.889c-.134.127-.532.614-.684.577-.435-.107.347-.966.479-1.119.565-.653,1.26-1.203,1.861-1.823.202-.208.709-.916.954-.953.535-.081.347.382.137.649-.686.871-1.914,1.88-2.746,2.669Z"/>
    <path d="M18.463,25.014c.087-.093.889-.365,1.077-.433,1.013-.367,2.093-.686,3.137-.952.191-.049.756-.161.645.223-.024.084-.522.287-.645.334-1.009.383-2.136.642-3.171,1.011-.253.09-.677.361-.93.305-.231-.051-.258-.332-.112-.488Z"/>
    <path d="M25.498,30.4c.183-.041.326-.018.292.196l-1.859,2.745c-.322.356-.644.058-.392-.438.186-.365,1.42-2.131,1.697-2.345.065-.05.187-.14.261-.157Z"/>
    <path class="cls-6" d="M20.26,9.015c-.069.147-.027.269,0,.418-.147.039-.162-.296-.096-.389.032-.045.092-.024.096-.029Z"/>
    <path class="cls-6" d="M20.26,9.48c.083-.017.106.012.093.093-.066-.041-.062.072-.093-.093Z"/>
  </g>
</svg>