<?xml version="1.0" encoding="UTF-8"?>
<svg id="Layer_1" data-name="Layer 1" xmlns="http://www.w3.org/2000/svg" viewBox="0 0 46.665 46.665">
  <defs>
    <style>
      .cls-1 {
        fill: #de7079;
      }

      .cls-2 {
        fill: #56b3e6;
      }

      .cls-3 {
        fill: #fdfcfc;
      }

      .cls-4 {
        fill: #a04b54;
      }

      .cls-5 {
        fill: #5e2f34;
      }

      .cls-6 {
        fill: #fefefe;
      }

      .cls-7 {
        fill: #7b555a;
      }

      .cls-8 {
        fill: #97e2cd;
      }
    </style>
  </defs>
  <path class="cls-8" d="M.047,0h46.618v46.618h-25.733l-.559-3.24-.084-3.626c1.048-1.002,1.97-2.052,2.903-3.157.399-.473.703-.657.957-1.28.753-1.844.736-4.131,1.209-6.063,1.449-2.018,4.238-4.584,3.485-7.351-.301-1.105-.97-1.377-2.048-1.095-.282.074-.504.241-.783.266-.022-.088.025-.133-.093-.186-.133-.092-.285-.089-.326-.28-.014-.066.01-.161,0-.233.094-.016.164-.147.186-.233.011-.042,0-.133,0-.186,0-.283-.089-.65-.093-.932,0-.031,0-.062,0-.093.11-.004.307-.136.327-.259.048-.289-.246-.37-.282-.601-.064-.406.249-.207.312-.537.024-.129-.073-.128-.076-.141-.013-.052.014-.137,0-.186-.027-.099-.138-.146-.233-.14.025-.173.197-.138.25-.336.027-.101.009-.235-.064-.316.008-.301.008-.118.105-.338.147-.334-.077-.436-.098-.579-.008-.055.077-.112.085-.18.014-.128-.025-.309,0-.41.009-.036.167-.08.235-.147.216-.214.222-.632.166-.912-.056-.277-.364-.481-.349-.723.006-.096.115-.138.148-.218.165-.404.304-.729.177-1.179-.074-.263-.239-.434-.516-.463l-.04-.054c-.053-.304.182-.534.052-.845-.029-.068-.122-.117-.142-.184-.152-.518.114-1.082.026-1.611-.064-.38-.258-.382-.43-.595-.025-.031-.315-.484-.327-.512-.136-.304.009-.731-.284-1.114-.334-.437-.593-.175-.86-.307-.054-.027-.072-.121-.128-.164-.105-.081-.387-.21-.43-.256-.1-.107-.13-.611-.349-.817-.122-.115-.278-.102-.394-.166-.085-.047-.151-.163-.241-.226-.424-.297-.708-.199-1.199-.224-.265-.588-.777-.666-1.344-.777-.7-.137-1.026-.233-1.653-.585-.295-.166-.376.015-.572.006-.133-.006-.273-.139-.391-.163-.361-.073-.296.026-.68-.16-.268-.129-.483-.183-.791-.12-.239.049-.325.285-.661.318-.569.057-.795-.287-1.352-.284-.435.002-.675.204-.992.271-.511.107-.581-.339-1.157-.27-.408.049-.665.444-1.117.424-.159-.007-.359-.164-.536-.214-.529-.148-.899-.081-1.199.399-.392-.062-1.129-.119-1.413.22-.196.234-.03.438-.442.477-.544.052-.924-.171-1.264.417-.588-.397-1.228-.162-1.328.558-.615-.153-.812.184-.807.754-.472.072-.748.374-.845.833-.048.226.024.436-.165.627-.101.101-.272.098-.411.195-.471.327-.57,1.322-.425,1.836-.563.059-.495.863-.414,1.278-.476.245-.686.838-.607,1.355.02.131.183.369.174.462-.008.084-.197.291-.234.416-.12.405-.023.801.283,1.089-.143.303-.232.62-.169.962.017.091.119.231.118.245,0,.029-.187.184-.232.27-.091.175-.12.509-.072.697.034.136.22.23.224.254.023.118-.087.401-.039.633.032.157.176.245.211.348.012.034.091.389.089.409s-.143.183-.18.27c-.179.423.042.829.522.778-.007.012.007.035,0,.047-.195.358-.352.601,0,.932-.015.117.047.292-.047.373-.296.082-.366.116-.233.466-.301-.046-.626-.077-.932-.093V0ZM35.747,5.608c-2.119.125-2.99,1.393-3.207,3.366-.271,2.463-.235,4.981-.325,7.46-.286,3.912-.127,7.832-.233,11.748-.015.554.022,1.46-.046,1.958-.036.262-.612.866-.786,1.126-1.387,2.071-1.351,5.092.387,6.961.633.681,2.753,1.238,3.682,1.306,1.522.112,3.228-.942,4.146-2.104,1.861-2.356,1.727-5.38-.484-7.431-.156-.144-.439-.237-.469-.463-.056-.423.045-.938.051-1.352.065-4.467.175-8.917.229-13.383.025-2.084.13-4.16-.145-6.238-.2-1.509-1.086-3.054-2.8-2.953Z"/>
  <path class="cls-6" d="M.047,20.139c0,2.61,0,5.222,0,7.832.001,6.215,0,12.432,0,18.647,1.429,0,2.86-.002,4.289,0,5.531.007,11.065,0,16.596,0h25.733v.047H0V0h.047v20.139Z"/>
  <path class="cls-8" d="M.047,27.971l1.011.853.04.121c.116,1.932.149,3.937.501,5.841.154.835.315,1.219.806,1.898.631.871,1.377,1.675,2.154,2.415.003.555.03,1.116.012,1.671-.033,1.004-.111,2.023-.144,3.026l-.091,2.822c-1.429-.002-2.86.001-4.289,0,0-6.215.001-12.432,0-18.647Z"/>
  <path class="cls-4" d="M1.259,18.414c.019-.033.228-.346.244-.361.059-.056.278-.076.347-.166.091-.117.114-.394.113-.54.457-.046.548-.465.235-.775.195-.169.269-.362.314-.611.01-.054-.04-.126-.031-.176.01-.054.236-.319.26-.483.021-.137-.124-.251-.119-.316.003-.039.372-.365.408-.651.05-.403-.071-.799-.514-.864.026-.175.177-.282.213-.463.032-.158-.03-.29-.007-.377.021-.08.145-.208.189-.325.205-.545.17-1.193-.105-1.703.009-.056.264-.15.339-.208.194-.151.723-.764.723-1.002v-1.096l1.558.137c.48-.07.718-.798.947-.831.068-.01.371.199.552.223.263.035,1.065-.032,1.295-.142.14-.067.35-.261.479-.363.183.104.335.286.556.32.513.08,1.578-.093,2.057-.315.19-.088.729-.561.787-.569.32-.045.39.399.583.581.717.676,1.845.355,2.258-.486.401.383,1.432.627,1.913.373.415-.219.363-.55.436-.953l.207-.029c.105.305.166.458.455.627.229.134.608.333.849.457.686.352.856-.219,1.478-.336.176.999,1.436,1.227,2.238.839-.04.271-.244.249-.236.583.004.163.3.9.403,1.046.17.24.474.433.766.47-.268.548.08,1.489.628,1.727.076.033.153.024.211.044.281.096.314.253.14.513-.015.006-.038-.007-.047,0l-.047.093c-.036.029-.11-.047-.136.167-.028.236.03.462.204.628.092.087.287.152.327.232.01.021.117.423.118.447.008.177-.19.164-.267.333-.089.195-.092.612.015.8.116.205.337.442.439.703.034.087.092.318.088.4-.004.078-.072.113-.088.16-.329.312-.416.927.186.793.005.067-.034.124-.046.186-.174.129-.236.315-.136.523.023.049.116.048.122.157.012.227-.208.428-.117.732.051.168.247.131.327.176.084.048.145.188.316.183,0,.031,0,.062,0,.093-.241-.038-.458-.138-.559.14-.053.145-.032.153,0,.28.047.187.176.273.182.309.008.046-.087.126-.094.226-.016.225.139.436.378.397.01.072-.014.168,0,.233-.587.007-.562.355-.186.699.237.217.419.19.631-.049.053-.076-.012-.13-.025-.184.279-.025.501-.192.783-.266,1.077-.282,1.747-.01,2.048,1.095.753,2.767-2.036,5.333-3.485,7.351-.474,1.932-.456,4.22-1.209,6.063-.254.623-.558.808-.957,1.28-.933,1.105-1.856,2.154-2.903,3.157l.084,3.626.559,3.24c-5.531,0-11.065.007-16.596,0l.091-2.822c.033-1.004.111-2.022.144-3.026.018-.555-.009-1.116-.012-1.671-.777-.74-1.523-1.544-2.154-2.415-.492-.678-.652-1.062-.806-1.898-.352-1.905-.385-3.91-.501-5.841l-.04-.121-1.011-.853c0-2.61,0-5.222,0-7.832.307.017.632.048.932.093.027.004.079.074.128.08.437.053.665-.044.758-.499-.136.021-.235-.138-.35-.138-.026,0-.25.076-.303.09.093-.08.032-.256.047-.373.693.047.576-.84,0-.932.007-.012-.007-.035,0-.047ZM16.104,8.744c-.352-.455-.482.221-.57.522-.099.339-.137.677-.199,1.059-.011.07-.081.124-.089.191-.111.899.244,1.556,1.23,1.417.212-.03.274-.129.337-.316.312-.934-.183-1.948-.632-2.704-.027-.046.005-.063-.076-.168ZM10.197,11.297c-.391-.129-.446.345-.552.599-.184.44-.386.977-.56,1.492-.056.164-.15.468-.178.67-.029.212.009.561.107.752.012.023.349.359.371.373.032.02.369.195.391.2.176.041.596.048.771-.003.034-.01.03-.064.075-.085.033-.015.094.005.133-.019.015-.009.222-.236.233-.255.481-.841-.149-2.08-.419-2.814-.083-.225-.18-.476-.249-.661-.022-.06-.041-.222-.122-.249ZM19.428,13.44c-.087-.029-.177-.018-.266-.012.03.189-.135.35-.177.499-.093.335-.125.809-.199,1.145-.008.035-.083.028-.091.064-.078.327-.011.989.232,1.25.148.158.469.265.678.3.065.011.17.016.234.007.079-.011.054-.07.105-.093.033-.015.096.007.134-.018.09-.058.317-.314.351-.418.054-.166.063-.721.04-.9-.011-.087-.088-.06-.096-.099-.036-.167-.028-.363-.185-.469-.066-.159-.667-1.226-.759-1.256ZM17.186,20.248c-.213-.209-.506-.061-.492.236.023.495.913,1.636,1.3,1.963.779.658,1.993.963,3.002.856.258-.027.779-.154.674-.52-.101-.349-.522-.152-.72-.132-1.007.101-2.302-.411-2.954-1.185-.282-.335-.546-.958-.81-1.218ZM10.938,22.266c.211-.305.702-1.332.203-1.543-.472-.201-.555.458-.721.769-.444.834-1.338,1.519-2.288,1.632l-1.187-.076c-.41.278-.154.582.223.715,1.369.48,2.99-.37,3.769-1.496ZM15.971,26.925c-.957.794-2.581.943-3.571.138-.208-.169-.625-.796-.851-.762-.33.05-.222.508-.118.706.853,1.617,3.984,1.641,5.117.334.207-.239,1.107-1.513.351-1.516-.295-.001-.367.43-.516.652-.069.103-.31.364-.413.449ZM16.25,32.466c-.839-.756-2.202-1.063-3.299-.891-1.688.266-2.972,1.028-3.675,2.619-.108.244-.253.663-.176.923.06.205.331.286.482.129.06-.062.278-.729.362-.897.808-1.629,2.408-2.222,4.157-2.088,1.198.092,1.717.589,2.401,1.515.429.581.647,1.197.959,1.838.29.233.533,0,.485-.343-.023-.167-.333-.881-.424-1.069-.232-.476-.88-1.383-1.272-1.735ZM6.934,40.57c-.264-.271-.654.098-.426.496s1.8.991,2.268,1.135c1.826.561,4.114,1.014,5.98.455.759-.228,1.597-.602,2.308-.956.266-.132.972-.456,1.163-.609.307-.246.239-.75-.198-.618-.07.021-.336.234-.451.294-1.099.567-2.774,1.42-3.992,1.556-1.603.179-4.752-.541-6.166-1.329-.094-.053-.293-.143-.357-.203-.078-.073-.081-.174-.128-.222Z"/>
  <path d="M16.25,32.466c.391.353,1.039,1.259,1.272,1.735.092.188.401.902.424,1.069.048.343-.195.577-.485.343-.311-.641-.53-1.257-.959-1.838-.684-.926-1.203-1.424-2.401-1.515-1.749-.134-3.349.459-4.157,2.088-.083.168-.302.835-.362.897-.151.157-.422.076-.482-.129-.077-.261.068-.679.176-.923.703-1.59,1.987-2.353,3.675-2.619,1.097-.173,2.46.135,3.299.891Z"/>
  <path d="M6.934,40.57c.046.048.05.149.128.222.063.059.262.15.357.203,1.415.788,4.563,1.508,6.166,1.329,1.218-.136,2.892-.989,3.992-1.556.115-.06.381-.273.451-.294.438-.132.506.372.198.618-.191.153-.897.477-1.163.609-.711.353-1.549.728-2.308.956-1.866.559-4.154.106-5.98-.455-.469-.144-2.04-.736-2.268-1.135s.163-.768.426-.496Z"/>
  <path d="M15.971,26.925c.102-.085.343-.346.413-.449.149-.222.221-.653.516-.652.756.003-.144,1.277-.351,1.516-1.133,1.307-4.264,1.283-5.117-.334-.104-.198-.212-.656.118-.706.226-.034.643.593.851.762.99.805,2.614.656,3.571-.138Z"/>
  <path d="M10.938,22.266c-.779,1.127-2.4,1.976-3.769,1.496-.377-.132-.633-.436-.223-.715l1.187.076c.949-.113,1.843-.798,2.288-1.632.165-.311.249-.97.721-.769.498.212.007,1.239-.203,1.543Z"/>
  <path d="M17.186,20.248c.264.26.528.882.81,1.218.652.774,1.947,1.286,2.954,1.185.198-.02.619-.217.72.132.106.366-.416.493-.674.52-1.009.106-2.223-.198-3.002-.856-.387-.327-1.277-1.468-1.3-1.963-.014-.297.28-.445.492-.236Z"/>
  <g>
    <path class="cls-3" d="M35.747,5.608c1.713-.101,2.6,1.444,2.8,2.953.275,2.078.17,4.154.145,6.238-.054,4.467-.164,8.917-.229,13.383-.006.414-.106.929-.051,1.352.03.226.313.319.469.463,2.212,2.051,2.345,5.076.484,7.431-.918,1.162-2.624,2.216-4.146,2.104-.929-.068-3.048-.625-3.682-1.306-1.738-1.869-1.774-4.89-.387-6.961.174-.26.75-.863.786-1.126.069-.498.031-1.404.046-1.958.106-3.916-.053-7.836.233-11.748.091-2.479.054-4.997.325-7.46.217-1.973,1.088-3.241,3.207-3.366ZM37.994,15.058v-3.333c0-.016-.114-.097-.14-.14-.11-.179-.083-.274-.349-.304-1.153-.133-2.552.102-3.732,0-.124,0-.297.103-.337.222-.052.152-.096.643-.106.826-.035.609.023,1.254.004,1.869-.155,5.014-.29,10.041-.47,15.054-.015.408.059.974,0,1.351-.031.198-.556.62-.716.822-2.448,3.087-.502,7.929,3.666,7.256,3.435-.555,5.36-5.097,2.95-7.773-.28-.311-.547-.425-.863-.675v-5.99c-.58.002-1.161.092-1.742.041-.109-.01-.345-.039-.437-.076-.206-.083-.302-.368-.153-.549.148-.18.849-.242,1.095-.257.408-.024.829.021,1.238.002l.047-3.59-2.023.088c-.559-.04-.624-.678-.041-.776l2.064-.104.046-3.357c-.427.089-.85.075-1.281.094-.296.013-1.097.196-1.216-.185-.052-.167.013-.365.178-.433.037-.015.358-.081.385-.081h1.935Z"/>
    <path class="cls-1" d="M37.994,15.058h-1.935c-.027,0-.348.066-.385.081-.165.068-.23.266-.178.433.119.381.92.198,1.216.185.431-.019.855-.005,1.281-.094l-.046,3.357-2.064.104c-.583.098-.518.736.041.776l2.023-.088-.047,3.59c-.409.019-.83-.026-1.238-.002-.246.014-.947.076-1.095.257-.149.182-.053.467.153.549.092.037.328.066.437.076.582.051,1.162-.039,1.742-.041v5.99c.316.25.583.364.863.675,2.41,2.677.485,7.219-2.95,7.773-4.168.673-6.114-4.169-3.666-7.256.16-.202.685-.624.716-.822.06-.377-.014-.943,0-1.351.18-5.012.315-10.039.47-15.054.019-.615-.039-1.26-.004-1.869.01-.183.054-.674.106-.826.041-.119.213-.221.337-.222,1.18.102,2.579-.133,3.732,0,.266.031.238.125.349.304.026.043.14.124.14.14v3.333Z"/>
  </g>
  <path d="M1.259,18.414c-.48.051-.701-.355-.522-.778.037-.087.178-.249.18-.27s-.077-.375-.089-.409c-.035-.103-.179-.191-.211-.348-.048-.231.062-.515.039-.633-.005-.024-.19-.118-.224-.254-.048-.187-.019-.522.072-.697.045-.086.231-.24.232-.27,0-.014-.101-.154-.118-.245-.064-.341.025-.658.169-.962-.306-.288-.403-.684-.283-1.089.037-.125.226-.332.234-.416.009-.094-.154-.331-.174-.462-.079-.517.132-1.11.607-1.355-.081-.415-.15-1.218.414-1.278-.146-.514-.046-1.509.425-1.836.14-.097.311-.093.411-.195.19-.191.118-.401.165-.627.097-.459.373-.761.845-.833-.005-.57.193-.908.807-.754.1-.719.74-.954,1.328-.558.34-.588.719-.365,1.264-.417.412-.039.246-.243.442-.477.285-.339,1.021-.282,1.413-.22.3-.48.67-.547,1.199-.399.177.049.377.207.536.214.452.02.709-.375,1.117-.424.575-.069.646.377,1.157.27.316-.066.556-.269.992-.271.558-.003.784.34,1.352.284.336-.034.423-.269.661-.318.308-.063.523-.009.791.12.384.185.319.086.68.16.118.024.258.157.391.163.195.009.276-.172.572-.006.626.352.953.447,1.653.585.567.111,1.079.189,1.344.777.49.025.775-.073,1.199.224.09.063.156.179.241.226.116.064.271.051.394.166.219.206.248.71.349.817.043.046.325.175.43.256.056.043.074.138.128.164.267.131.526-.13.86.307.293.383.148.811.284,1.114.013.028.303.481.327.512.172.213.367.215.43.595.088.529-.178,1.093-.026,1.611.02.068.113.116.142.184.129.311-.106.541-.052.845l.04.054c.277.029.442.2.516.463.127.45-.012.775-.177,1.179-.033.08-.142.122-.148.218-.016.242.293.447.349.723.057.28.051.698-.166.912-.068.067-.227.112-.235.147-.025.101.014.282,0,.41-.008.069-.093.125-.085.18.021.143.245.245.098.579-.097.22-.097.037-.105.338-.009.326-.042.268-.233.466-.163-.043-.487.022-.62,0-.012-.002-.109-.148-.199-.138-.052-.06.128-.447.166-.562.117-.111.376-.159.374-.349l-.374-.21c-.102-.261-.323-.498-.439-.703-.106-.188-.103-.605-.015-.8.077-.169.275-.156.267-.333-.001-.025-.107-.427-.118-.447-.041-.08-.236-.145-.327-.232-.173-.165-.232-.392-.204-.628.026-.214.1-.138.136-.167.064-.053.043-.09.047-.093.008-.007.032.006.047,0,.536-.215.622-.058.91.373l.116-.116-.699-.747-.467-.023c-.058-.02-.135-.011-.211-.044-.548-.238-.896-1.178-.628-1.727-.293-.036-.597-.229-.766-.47-.103-.146-.399-.883-.403-1.046-.008-.333.196-.312.236-.583-.801.388-2.062.16-2.238-.839-.622.117-.791.688-1.478.336-.241-.123-.62-.323-.849-.457-.289-.169-.35-.322-.455-.627l-.207.029c-.074.404-.021.734-.436.953-.481.253-1.512.01-1.913-.373-.413.841-1.541,1.162-2.258.486-.193-.182-.263-.627-.583-.581-.058.008-.597.481-.787.569-.479.222-1.543.396-2.057.315-.221-.035-.373-.216-.556-.32-.129.102-.339.296-.479.363-.23.11-1.032.177-1.295.142-.181-.024-.484-.233-.552-.223-.228.033-.467.761-.947.831l-1.558-.137v1.096c0,.238-.528.851-.723,1.002-.074.058-.33.152-.339.208.275.509.31,1.158.105,1.703-.044.117-.168.246-.189.325-.023.087.038.219.007.377-.036.181-.187.288-.213.463.443.065.564.461.514.864-.036.286-.405.612-.408.651-.005.064.14.179.119.316-.025.165-.25.429-.26.483-.01.05.04.122.031.176-.045.249-.119.441-.314.611.313.31.221.729-.235.775,0,.147-.022.423-.113.54-.07.09-.288.11-.347.166-.016.015-.225.328-.244.361ZM12.727,5.175h.793c.006-.109.016-.083-.069-.093-.164-.021-.421-.007-.585.023-.05.009-.151.004-.138.071Z"/>
  <path d="M25.174,17.249c-.026.106-.121.213-.086.339.205.418.738.09.879-.199.003.013.101.012.076.141-.062.33-.376.131-.312.537.037.231.33.313.282.601-.02.123-.217.255-.327.259-.171.006-.233-.135-.316-.183-.08-.045-.276-.008-.327-.176-.091-.304.129-.506.117-.732-.006-.11-.099-.108-.122-.157-.1-.208-.037-.394.136-.523-.006.028.007.066,0,.093ZM25.574,18.201c-.14-.091-.211-.146-.4-.113-.051.183.1.222.16.329.099.176.216.604.494.3.194-.212-.083-.406-.254-.517Z"/>
  <path d="M25.127,19.16c.284-.153.551-.111.563.257.006.197-.149.362.09.535,0,.054.011.145,0,.186-.284.167-.521.121-.471-.26.014-.106.131-.028.097-.159-.189-.006-.148-.205-.279-.281-.032-.127-.053-.134,0-.28Z"/>
  <path d="M1.259,19.393c-.352-.331-.195-.574,0-.932.576.092.693.979,0,.932Z"/>
  <path d="M25.733,17.155c.078.014.158.018.233.047.014.05-.013.134,0,.186-.141.289-.674.618-.879.199-.035-.127.06-.233.086-.339.187-.203.323-.135.559-.093Z"/>
  <path d="M1.212,19.766c.053-.015.278-.09.303-.09.115,0,.214.159.35.138-.093.455-.321.552-.758.499-.049-.006-.102-.076-.128-.08-.133-.351-.063-.384.233-.466Z"/>
  <path d="M25.92,20.885c.118.054.072.098.093.186.013.055.078.108.025.184-.212.239-.394.266-.631.049-.15-.383.176-.573.513-.42Z"/>
  <path class="cls-5" d="M25.593,20.605c.041.191.193.188.326.28-.337-.154-.663.037-.513.42-.375-.344-.401-.692.186-.699Z"/>
  <path d="M25.687,19.02c.004.282.093.65.093.932-.239-.173-.083-.338-.09-.535-.012-.369-.279-.411-.563-.257.101-.278.319-.178.559-.14Z"/>
  <path class="cls-7" d="M25.92,16.41c.073.082.091.215.064.316-.053.198-.225.163-.25.336.095-.006.206.041.233.14-.075-.028-.155-.033-.233-.047l-.142-.12.012-.106c.026-.019.061-.031.083-.054.191-.198.224-.14.233-.466Z"/>
  <path d="M25.127,19.44c.131.076.09.275.279.281.034.131-.083.053-.097.159-.051.38.187.427.471.26-.023.086-.092.217-.186.233-.239.04-.394-.172-.378-.397.007-.1.102-.18.094-.226-.006-.037-.135-.123-.182-.309Z"/>
  <path class="cls-2" d="M10.144,11.223c.256.106.397.64.515.933.2.539.419,1.065.529,1.664.12.63.052,1.39-.562,1.683-.466.217-1.062.07-1.423-.291-.455-.427-.424-1.104-.256-1.658.146-.511.343-1.024.524-1.508.123-.281.282-.912.664-.827l.009.004Z"/>
  <path class="cls-2" d="M19.37,13.353c.369.149.557.624.752.954.294.554.505,1.076.408,1.68-.195,1.182-1.586,1.114-1.866.016-.151-.653.051-1.348.205-1.993.084-.304.237-.719.492-.66l.009.002Z"/>
  <path class="cls-2" d="M16.073,8.618c.557.791,1.186,2.231.739,3.173-.137.249-.447.31-.716.28-.911-.075-1.035-1.097-.818-1.842.098-.304.241-2.103.785-1.62l.009.009Z"/>
  <path d="M24.428,12.214c.174-.26.141-.416-.14-.513l.467.023.699.747-.116.116c-.288-.431-.373-.587-.91-.373Z"/>
  <path d="M25.034,16.176c-.038.115-.219.502-.166.562.09-.01.187.136.199.138.133.021.457-.044.62,0-.022.023-.057.035-.083.054l-.012.106.142.12c-.236-.042-.372-.109-.559.093.007-.027-.006-.065,0-.093.013-.062.051-.12.046-.186-.602.135-.516-.48-.186-.793Z"/>
  <path d="M25.034,15.617l.374.21c.002.19-.257.238-.374.349.016-.047.084-.082.088-.16.004-.081-.054-.313-.088-.4Z"/>
  <path d="M24.335,12.307l.047-.093s.018.04-.047.093Z"/>
  <path d="M12.727,5.175c-.012-.067.089-.062.138-.071.164-.029.421-.043.585-.023.085.011.075-.016.069.093h-.793Z"/>
  <path d="M25.574,18.201c.171.111.448.305.254.517-.278.304-.396-.124-.494-.3-.06-.107-.211-.147-.16-.329.189-.033.26.021.4.113Z"/>
</svg>