<?xml version="1.0" encoding="UTF-8"?>
<svg id="Layer_1" data-name="Layer 1" xmlns="http://www.w3.org/2000/svg" viewBox="0 0 47.022 47.022">
  <defs>
    <style>
      .cls-1 {
        fill: #fdd1d5;
      }

      .cls-2 {
        fill: #51411e;
      }

      .cls-3 {
        fill: #009e73;
      }

      .cls-4 {
        fill: #99d8c7;
      }

      .cls-5 {
        fill: #c76f45;
      }

      .cls-6 {
        fill: #66c5ab;
      }

      .cls-7 {
        fill: #592f0d;
      }

      .cls-8 {
        fill: #e69f00;
      }

      .cls-9 {
        fill: #35240d;
      }

      .cls-10 {
        fill: #fefefe;
      }

      .cls-11 {
        fill: #572d0c;
      }

      .cls-12 {
        fill: #238833;
      }

      .cls-13 {
        fill: #f18593;
      }

      .cls-14 {
        fill: #97e2cd;
      }

      .cls-15 {
        fill: #d3e7d6;
      }
    </style>
  </defs>
  <path class="cls-4" d="M8.865,19.504c.53-.158.648.693.214.781-.515.104-.56-.678-.214-.781Z"/>
  <path class="cls-4" d="M9.635,23.519l.168-.118c.345.233.521.59.982.646.163.019.253-.023.386-.031.278-.016.205.114.022.212-.568.303-1.481-.028-1.558-.709Z"/>
  <path class="cls-4" d="M11.537,26.263c-.569.225-1.774.069-2.355-.143-.107-.039-.763-.345-.807-.39-.098-.099-.04-.259.102-.267.148-.008.544.251.718.315.855.315,1.46.316,2.361.268.302-.016.155.147-.019.217Z"/>
  <path class="cls-4" d="M12.282,21.563c.05.145.071.304-.08.385-.083.045-1.212.375-1.278.366-.083-.011-.176-.106-.193-.184-.068-.328.882-.384,1.059-.545.018-.079-.947-.942-.693-1.232.077-.088.27-.058.339.039.153.378.725.824.846,1.172Z"/>
  <path class="cls-4" d="M12.954,19.362c.447-.057.618.662.187.848-.569.246-.715-.781-.187-.848Z"/>
  <path class="cls-14" d="M.535.268v46.44h46.441V.268H.535ZM11.336,28.184c-.365.088-1.283.151-1.685.099-.087-.012-.062-.088-.1-.097-.298-.07-1.036-.043-1.403-.091-.088-.012-.063-.088-.099-.097-.183-.04-.17-.002-.36-.079-.467-.189-.817-.312-1.285-.501-.19-.077-.177-.039-.36-.079-.043-.009.004-.079-.125-.093v-.517c.174,0,.199.03.423,0,.097-.013.132-.007.235-.047-.008-.923.01-1.849,0-2.771-.005-.391.067-1.375-.082-1.68-.074-.152-.703-.414-.881-.575-.39-.354-.931-1.323-.917-1.853.006-.277.249-.888.552-.955.541-.122.793.559,1.284.58l.143-1.759,8.076-.099.046,1.879c.089.095.616-.533,1.023-.341.067.032.218.264.234.329.198.789-.187,1.543-.626,2.169-.086.123-.284.238-.328.377-.15.467-.075,1.208-.167,1.712-.114.621-.961,1.387-1.35,1.894.033.452-.026.917-.053,1.375-.013.221-.029.438-.047.658-.342.088-.807.301-1.113.375-.333.08-.717.112-1.034.187Z"/>
  <path class="cls-10" d="M46.975,0h.047v47.022H0v-.047c3.945,0,7.893-.001,11.838,0,7.938.002,15.878.002,23.816,0,3.773-.001,7.548,0,11.321,0,0-4.039-.001-8.081,0-12.12.003-11.618-.002-23.238,0-34.855Z"/>
  <g>
    <path class="cls-12" d="M18.509,32.084c-.415-.133-.637-.56-.611-.986.155.243.449.52.634.752.071.148-.018.183-.023.234Z"/>
    <path class="cls-5" d="M18.462,34.761c-.095-.548-.055-1.194-.048-1.762,0-.079-.03-.209.048-.258-.021.671.016,1.348,0,2.02Z"/>
    <g>
      <path class="cls-9" d="M20.294,18.273c-.002.079,0,.194,0,.282-.204.02-.545-.05-.72.055-.034.02-.205.37-.219.415-.068-.04-.157-.06-.235-.047.021-.797.542-.725,1.174-.705Z"/>
      <path class="cls-9" d="M19.354,19.213v-.094c-.001.006.03-.005,0,.094Z"/>
      <g>
        <path class="cls-11" d="M30.111,8.69c-.032-.02-.4-.141-.447-.144-.273-.02-.404.229-.672.088-.1-.323-.029-.664-.062-.995-.335-3.372-3.576-3.371-6.168-2.656-1.044.288-2.131,1.6-2.4,2.627-.066.254-.199,1.45-.352,1.53-.186.096-.473-.188-.626-.269-.22-.117-.614-.229-.689-.462-.286-.886-.639-1.79-.33-2.703.042-.126.274-.539.277-.57.004-.039-.204-.283-.225-.466-.049-.426.353-1.381.679-1.662.474-.41,1.463-.502,2.065-.47.173.009.615.131.745.088.133-.044.06-.382.088-.524.047-.237.303-.501.512-.616.857-.474,2.233-.123,3.121.157.339.107.604.323.936.426.243-.848.581-1.032,1.372-.62,1.071.558,1.49,1.564,1.871,2.638.741-.498,1.18.453,1.15,1.104-.026.569-.469,2.867-.702,3.337-.036.073-.057.133-.143.163Z"/>
        <path class="cls-7" d="M19.025,11.932c.341-.075.629.36.983.332.159.697.064,1.405.098,2.11-.165.021-.215-.027-.291-.155-.382-.639-.536-1.602-.789-2.288Z"/>
        <g>
          <path class="cls-1" d="M18.696,8.409c.075.233.469.345.689.462.153.081.44.366.626.269.153-.079.286-1.276.352-1.53.268-1.027,1.356-2.339,2.4-2.627,2.592-.715,5.833-.716,6.168,2.656.033.331-.038.671.062.995.268.142.399-.107.672-.088.046.003.415.124.447.144.2.125.287.735.286.964-.003.466-.2.877-.414,1.278l-.661.938c-.209.818.033,2.23-.337,2.951-.277.54-.808,1.084-1.071,1.654l-.033,2.552c-.027.038-.113.033-.148.064-.494.435-.691.637-1.368.815-1.278.336-3.772.244-5.004-.234-.195-.075-.921-.431-1.023-.573-.08-.111-.046-.392-.045-.544,0-.088-.002-.203,0-.282.031-1.433-.123-2.514-.188-3.899-.033-.705.062-1.413-.098-2.11-.354.027-.641-.407-.983-.332-.057-.155-.149-.147-.259-.281-.537-.654-.948-1.601-.818-2.464.049-.325.407-.766.749-.778ZM23.043,8.875c0-.194-.158-.352-.352-.352s-.352.158-.352.352.158.352.352.352.352-.158.352-.352ZM27.139,8.611c-.535-.457-.868.707-.154.594.289-.046.352-.425.154-.594ZM25.073,9.504c-.142-.051-.265-.04-.244.127l.726,1.08c-.043.048-.876.118-1.053.239-.065.044-.085.078-.077.158.011.073.058.136.129.157.343.104.957-.274,1.318-.304.115-.05.125-.221.052-.314-.192-.116-.76-1.11-.852-1.143ZM25.441,13.789c-.129.086-.245.24-.401.281-.329.086-.753-.002-1.032-.192-.094-.064-.721-.832-.757-.419-.021.246.595.789.806.887.602.28,1.525.146,1.592-.629-.161-.046-.158.039-.208.072ZM26.823,16.395c-.31.04-.562.239-.882.316-.972.231-2.267.034-3.142-.449-.209-.115-.331-.334-.579-.29-.003.289.389.511.616.628.858.441,2.206.538,3.133.327.27-.062.836-.206.854-.532Z"/>
          <path d="M26.823,16.395c-.017.326-.583.47-.854.532-.927.211-2.275.114-3.133-.327-.227-.117-.619-.339-.616-.628.248-.044.37.174.579.29.875.483,2.17.68,3.142.449.32-.076.572-.275.882-.316Z"/>
          <path d="M25.441,13.789c.05-.033.046-.119.208-.072-.067.775-.99.909-1.592.629-.21-.098-.827-.641-.806-.887.036-.413.663.355.757.419.279.19.703.278,1.032.192.157-.041.272-.195.401-.281Z"/>
          <path d="M25.073,9.504c.092.033.66,1.027.852,1.143.073.093.063.264-.052.314-.362.03-.975.407-1.318.304-.071-.022-.118-.084-.129-.157-.008-.08.012-.114.077-.158.177-.121,1.01-.191,1.053-.239l-.726-1.08c-.021-.166.102-.177.244-.127Z"/>
          <circle cx="22.691" cy="8.875" r=".352"/>
          <path d="M27.139,8.611c.198.169.135.549-.154.594-.713.113-.381-1.051.154-.594Z"/>
        </g>
      </g>
    </g>
    <g>
      <path class="cls-3" d="M38.379,27.011c.229-.014.573-.054.808-.108.217-.05.446-.196.648-.221.142-.017.342-.015.47.047.014.193.035.347.105.53.067.174.308.449.317.576.01.134-.112.443-.134.614-.029.231-.101.683-.1.887.003.338.337.499.449.167.041-.12-.04-.32.115-.285-.017.2.153.724.417.558.118-.074-.051-.809.007-.98l.246.693c.099.07.236.074.321-.021.159-.241-.406-1.321-.38-1.659.113-.031.111.024.165.07.222.189.57.347.806.509.718.493,1.848,1.238,2.443,1.972.055.068.247.416.301.509.386.67.667,1.295.951,1.997.141.349.374.907.453,1.269.044.201.081.345.094.558.006.09-.049.188.094.162-.001,4.039,0,8.081,0,12.12-3.773,0-7.548-.001-11.321,0-.464-1.649-1.424-3.101-2.63-4.299-.924-.918-2.714-1.924-3.948-2.347-.226-.077-.84-.135-.985-.236-.14-.098-.067-.732-.234-.941-.152-.189-.506-.117-.706-.069.012-.099-.001-.186-.023-.282-.198-.868-.088-2.812.022-3.736.024-.201.176-.495.095-.727.285-.107,1.265-.503,1.373-.764.133-.321-.117-.393-.102-.475.009-.054.274-.24.315-.44.039-.191-.05-.403-.028-.497.011-.046.166-.208.214-.305.214-.442.337-.877.507-1.325.074-.195.248-.306.211-.538-.01-.063-.083-.124-.083-.145,0-.054.321-.218.215-.553-.021-.066-.116-.11-.12-.15-.002-.022.087-.234.082-.4.116.034.113-.029.165-.07.26-.21.494-.549.743-.76.033-.028.124-.002.158-.03.107-.088.222-.27.344-.361.136.727-.035,1.438-.023,2.161.594.4.246-1.076.54-1.315v1.339c0,.066.259.228.377.095.086-.096-.017-.246.139-.212.064.261.192.692.519.438-.006-.356-.173-.671-.229-1.033-.081-.52-.122-1.139-.123-1.658.194-.252.378-.528.444-.848.107.013.244-.023.343.001.013.003.071.055.22.093.7.176,1.459.334,2.182.378.343.021.732-.059,1.059.045"/>
      <g>
        <path d="M29.125,19.307c.891.446,1.733,1.011,2.419,1.738l.023-1.644c.177.215.634.631.868.847.117.108.467.311.518.424.016.035.028.346.056.46.168.677.723,2.394.668,2.986-.011.118-.076.24-.089.357-.127.152-.182.354-.327.495-.134.13-.245.13-.371.239-.003.435.083.853-.006,1.286-.066.32-.25.596-.444.848.001.52.042,1.138.123,1.658.056.362.224.677.229,1.033-.327.254-.455-.177-.519-.438-.156-.034-.054.116-.139.212-.118.133-.377-.029-.377-.095v-1.339c-.294.239.054,1.716-.54,1.315-.011-.723.16-1.434.023-2.161-.024-.128-.141-.399-.141-.493v-.705c0-.027.047-.315.058-.365.078-.362.307-.768.595-1.003-.22-.784-.238-1.417-.048-2.208.088-.366.286-.492.072-.859-.261-.449-1.425-1.359-1.883-1.687-.33-.236-.9-.514-1.166-.761-.091-.085-.074-.096-.117-.188-.026-.353.346-.038.517.047Z"/>
        <path d="M42.043,20.246c.002.075.078.249.088.358.053.546.037.883-.123,1.415-.059.198-.281.567-.293.697-.032.328.265,1.037.236,1.548-.02.352-.23.775-.238,1.08-.009.379.202.987.19,1.452-.009.354-.214.733-.236,1.012-.026.338.538,1.418.38,1.659-.085.095-.223.091-.321.021l-.246-.693c-.057.171.111.906-.007.98-.264.166-.434-.357-.417-.558-.155-.036-.074.164-.115.285-.112.333-.446.171-.449-.167-.002-.204.07-.656.1-.887.022-.171.144-.48.134-.614-.009-.128-.25-.402-.317-.576-.07-.183-.091-.336-.105-.53-.033-.46.108-.878.098-1.245-.008-.292-.22-.64-.192-.963.045-.512.629-1.101.836-1.583.111-.521.027-1.292.195-1.778.042-.122.532-.765.646-.903.073-.088.056-.067.155-.011Z"/>
        <path class="cls-9" d="M29.125,19.307c-.171-.085-.543-.4-.517-.047-.105-.221-.095-.52-.164-.658-.082-.165-.462-.051-.398-.373.224-.094.683.064.74.313.079.341,0,.494.339.765Z"/>
        <g>
          <path class="cls-5" d="M37.721,13.999c.012.066.128.23.189.258.462.214.425-.691.657-.869.038.331-.224.723,0,1.011.316.406.6-.067.772-.312.018-.025.055-.171.122-.088.04.05-.079.23-.091.307-.103.656.477.656.795.232.026-.034.162-.402.235-.305.054.26-.19.363-.29.579-.231.502.089.763.571.571-.135.178-.254.323-.237.563.029.412.455.301.519.471l-.282.234c-.228.281.003.639.329.682-.501.763.643.741.987.234.815-.117.732,1.132.577,1.634-.077.248-.533.905-.53,1.044-.099-.057-.082-.077-.155.011-.114.138-.604.781-.646.903-.168.486-.085,1.257-.195,1.778-.207.483-.79,1.071-.836,1.583-.086.026-.329.404-.329.446v.939c0,.017-.045.078-.049.139-.011.211.011.425.002.636-.202.025-.431.171-.648.221-.235.054-.579.094-.808.108-.544.033-1.139-.005-1.691,0-.327-.104-.716-.024-1.059-.045-.724-.043-1.482-.202-2.182-.378.059-.704.064-1.408.141-2.114.013-.118.078-.239.089-.357.055-.592-.5-2.309-.668-2.986-.028-.113-.04-.425-.056-.46-.051-.113-.4-.316-.518-.424-.234-.216-.691-.631-.868-.847-.343-.419-.332-1.503,0-1.949.092-.123.368-.35.517-.352.097-.002.407.217.517.258.448.168,1.207.247.846-.446.323-.067.641-.208.481-.599-.056-.136-.183-.146-.246-.247.587.064.653-.34.282-.705.415.18.977-.064.611-.517-.002-.031.004-.063,0-.094.106.002.22.012.319-.034.104-.049.079-.123.104-.154.008-.01.151.034.094-.188l.141.047c.235.296.41.065.589.048.078-.008.159.05.235.048.57-.009.345-.421.397-.472l.446-.095c.034,0,.042.499.494.283.128-.061.18-.225.329-.235ZM35.217,18.001c-.217.066-.286.603-.032.718.623.28.706-.924.032-.718ZM39.236,18.732c.365.367.973-.493.331-.637-.412-.093-.527.44-.331.637ZM37.516,18.653c-.113.037-.082.191-.051.276.023.062.366.621.424.704.105.15.3.275.395.449-.121.181-1.161.179-.964.495.118.19.812-.013.997-.087.196-.079.486-.218.366-.476-.334-.329-.566-.869-.869-1.198-.085-.093-.152-.199-.298-.162ZM36.578,22.131c-.053.017-.077.054-.078.11-.003.265.693.612.928.625.299.017.995-.356.813-.72-.214-.098-.299.162-.456.254-.581.343-.898-.37-1.207-.269ZM39.036,24.568c-.645.041-1.24.265-1.904.237-.689-.029-1.189-.427-1.694-.47-.218-.018-.296.146-.13.275.092.072.947.392,1.086.417.651.117,1.604.056,2.24-.133.186-.055.391-.083.403-.325Z"/>
          <path d="M39.036,24.568c-.011.242-.217.27-.403.325-.636.19-1.589.251-2.24.133-.139-.025-.994-.345-1.086-.417-.165-.129-.087-.294.13-.275.505.043,1.005.441,1.694.47.664.028,1.259-.196,1.904-.237Z"/>
          <path d="M37.516,18.653c.146-.037.213.069.298.162.303.329.535.869.869,1.198.12.258-.17.397-.366.476-.185.075-.879.277-.997.087-.197-.316.843-.313.964-.495-.096-.174-.29-.3-.395-.449-.058-.083-.401-.642-.424-.704-.032-.085-.062-.239.051-.276Z"/>
          <path d="M36.578,22.131c.309-.101.627.612,1.207.269.157-.093.242-.352.456-.254.182.364-.515.736-.813.72-.235-.013-.932-.36-.928-.625,0-.056.025-.092.078-.11Z"/>
          <path d="M35.217,18.001c.674-.206.591.998-.032.718-.254-.114-.185-.651.032-.718Z"/>
          <path d="M39.236,18.732c-.196-.197-.081-.73.331-.637.642.144.034,1.004-.331.637Z"/>
        </g>
        <g>
          <path d="M32.084,17.099c-.183-.236.081-.455.093-.589.01-.112-.068-.246-.044-.418.027-.188.223-.328.233-.427.007-.076-.049-.181-.049-.279-.002-.31.008-.513.257-.733.074-.065.214-.102.239-.137.045-.066.074-.405.154-.55.102-.185.319-.237.331-.256.051-.083-.011-.325.171-.557.246-.315.578-.243.63-.286.01-.009.034-.165.099-.254.178-.247.558-.4.844-.258.099-.467.525-.613.939-.423.141-.505.612-.522.987-.235.103-.388.761-.275.8.094.423-.261,1.033-.254,1.129.327.422-.092.831-.206,1.1.239.055.091.074.277.116.307.156.111.498-.14.775.259.141.204.13.533.21.635.039.05.241.12.329.188.419.322.142.57.248.926.031.102.273.27.311.443.048.222-.137.625-.125.687.015.078.239.317.265.584.019.199-.082.289-.08.41.002.086.089.181.094.327.005.143-.066.33-.145.447-.343.506-1.487.529-.987-.234-.326-.043-.558-.402-.329-.682l.282-.234c-.065-.171-.49-.059-.519-.471-.017-.241.102-.385.237-.563-.482.192-.802-.069-.571-.571.099-.216.344-.319.29-.579-.074-.097-.209.27-.235.305-.318.424-.898.424-.795-.232.012-.077.131-.257.091-.307-.067-.083-.104.063-.122.088-.171.245-.455.717-.772.312-.224-.287.038-.68,0-1.011-.231.178-.194,1.083-.657.869-.06-.028-.176-.192-.189-.258-.081-.438.041-1.135.047-1.597h-.141s0,1.573,0,1.573c0,.024-.219.186-.235.258-.452.216-.46-.283-.494-.283l-.446.095c-.052.051.174.463-.397.472-.076.001-.158-.056-.235-.048-.179.017-.353.249-.589-.048-.171-.216-.31-.6-.46-.831-.116-.178-.228-.091-.19.048.057.207.581.602.415.924-.025.031,0,.105-.104.154-.099.046-.213.037-.319.034-.016-.142-.076-.093-.166-.185-.086-.089-.356-.414-.421-.426-.07-.013-.084.002-.072.072.037.206.532.478.658.634.367.453-.195.697-.611.517.372.364.305.768-.282.705.063.1.19.11.246.247.161.391-.158.532-.481.599.361.693-.397.614-.846.446-.109-.041-.42-.26-.517-.258Z"/>
          <path class="cls-2" d="M35.232,14.421l-.141-.047c.057.222-.086.178-.094.188.165-.323-.358-.717-.415-.924-.038-.139.074-.226.19-.048.151.232.289.616.46.831Z"/>
          <path class="cls-9" d="M37.393,14.233c.016-.072.235-.234.235-.258v-1.574h.141c-.006.462-.128,1.159-.047,1.597-.149.01-.201.174-.329.235Z"/>
          <path class="cls-2" d="M34.574,14.844c-.126-.156-.621-.428-.658-.634-.012-.069.002-.085.072-.072.065.012.335.337.421.426.089.092.15.043.166.185.004.031-.002.063,0,.094Z"/>
        </g>
      </g>
    </g>
    <g>
      <path class="cls-12" d="M19.918,38.66v.141c-.097-.011-.545-.021-.564,0-.012.015.015.108-.002.152-.077.197-.047.177-.093.38-.009.035-.084.029-.092.064-.021.087.02.418-.002.437-.163-.05-.164.058-.227.091-.323.167-.632.301-.955.478-.985.54-1.841,1.068-2.729,1.783-.131.105-.313.227-.396.295-.98.802-2.004,2.345-2.547,3.407-.131.256-.27.542-.347.82-.013.047-.025.094-.034.141-.008.039-.127.031-.094.125-3.945,0-7.893.002-11.838,0v-13.811c.128-.119.197-.307.284-.435.081-.12.165-.238.252-.354.772-1.041,1.743-1.928,2.789-2.685l1.922-1.141c.058-.274.019-.883.132-1.115.071-.146.39-.205.54-.188.129.014.083.084.125.093.182.04.17.002.36.079.467.189.817.312,1.285.501.189.077.177.039.36.079.036.009.012.085.099.097.367.048,1.105.022,1.403.091.038.009.013.085.1.097.402.052,1.32-.012,1.685-.099.317-.076.7-.108,1.034-.187.306-.074.77-.287,1.113-.375.193-.05.518-.178.68-.046.194.157.174,1.037.256,1.295.827.566,1.739,1.093,2.476,1.775.371.343.777.845,1.065,1.262.17.246.306.553.501.788,0,.015,0,.031,0,.047-.078.049-.046.178-.048.257-.007.568-.047,1.215.048,1.763.034.198.152.644.251.831.119.225.637.636.782.884.132.226.213.801.235,1.081.026.323-.134.972.189,1.103Z"/>
      <g>
        <path class="cls-3" d="M16.583,20.81c-.078.049-.047.178-.048.257-.012.929.012,1.711-.095,2.63-.025.215-.002.525,0,.754,0,.08-.03.209.048.258-.053.545-.093,1.092-.148,1.637-.795.17-1.638.148-2.428.367-.143.039-.314.044-.29.25-.026-.007-.064.005-.094,0,.027-.458.087-.924.053-1.375.39-.508,1.237-1.274,1.35-1.894.092-.504.017-1.245.167-1.712.044-.139.242-.253.328-.377.439-.626.824-1.38.626-2.169-.016-.065-.167-.298-.234-.329-.407-.192-.934.436-1.023.341l-.046-1.879-8.076.099-.143,1.759c-.49-.02-.743-.701-1.284-.58-.303.067-.545.678-.552.955-.014.531.527,1.499.917,1.853.178.161.807.423.881.575.149.304.077,1.288.082,1.68.01.923-.008,1.849,0,2.771-.102.04-.138.034-.235.047-.032-.072-.1-.115-.174-.131-.429-.09-.996-.074-1.442-.156-.291-.052-.58-.209-.889-.191-.07-.025-.179-.298-.22-.391-.741-1.67-.789-3.654-.752-5.45.041-1.973.107-3.149,1.433-4.674,1.522-1.752,3.432-2.767,5.779-2.916.165-.011.408.127.52-.09.195-.379-.862-.344-1.036-.328-.175.015-.932.247-1.006.182-.482-1.615.765-3.125,2.387-2.034.454.305.674.607.708,1.17.011.182-.06.495-.04.6.003.016.135.291.146.303.039.043.533.111.67.153.948.287,2.441,1.707,2.926,2.571.619,1.106,1.191,3.425,1.23,4.689.009.302-.042.463,0,.775Z"/>
        <path d="M19.354,19.119v.094c-.008.026.018.075-.031.097-.325.11-2.494,1.286-2.546,1.438l.042,2.389-.308,3.497c-.185.236-.159-.023-.236-.041-.255.078-.536.06-.79.095-.473.065-1.472.378-1.862.276-.024-.206.146-.211.29-.25.79-.219,1.633-.198,2.428-.367.055-.545.095-1.092.148-1.637.13-1.333.276-2.554.094-3.899-.043-.312.009-.473,0-.775-.039-1.264-.611-3.583-1.23-4.689-.484-.864-1.978-2.283-2.926-2.571-.137-.042-.631-.109-.67-.153-.012-.012-.143-.287-.146-.303-.021-.105.05-.418.04-.6-.034-.562-.254-.865-.708-1.17-1.622-1.091-2.869.418-2.387,2.034.074.065.831-.167,1.006-.182.174-.016,1.231-.051,1.036.328-.112.217-.355.079-.52.09-2.347.15-4.257,1.165-5.779,2.916-1.326,1.526-1.392,2.702-1.433,4.674-.037,1.796.01,3.779.752,5.45.041.093.15.366.22.391.31-.019.599.139.889.191.446.081,1.013.066,1.442.156.074.016.143.059.174.131-.224.03-.249,0-.423,0-.467,0-.943-.018-1.409,0-.308-.155-.607-.055-.845-.353-.157-.196-.571-1.247-.658-1.526-.248-.8-.246-1.595-.283-2.419-.086-1.918-.168-4.15.728-5.897.101-.197.355-.495.412-.67.021-.066-.02-.163-.012-.171.011-.009.109-.005.166-.047.154-.115.476-.572.649-.738.428-.412.958-.821,1.453-1.154.68-.459,1.47-.954,2.289-1.07-.807-1.83.704-3.673,2.615-2.544.891.526,1.158,1.269.862,2.262.669.04,1.317.39,1.832.8,1.133.9,1.809,1.671,2.302,3.053.457,1.281.669,2.635.752,3.992.714-.35,1.564-1.141,2.348-1.268.078-.012.167.007.235.047-.008.025.007.066,0,.094Z"/>
      </g>
      <g>
        <path class="cls-13" d="M16.054,19.436c-.016-.065-.167-.298-.234-.329-.407-.192-.934.436-1.023.341l-.046-1.879-8.076.099-.143,1.759c-.49-.02-.743-.701-1.284-.58-.303.067-.545.678-.552.955-.014.531.527,1.499.917,1.853.178.161.807.423.881.575.149.304.077,1.288.082,1.68.01.923-.008,1.849,0,2.771-.102.04-.138.034-.235.047-.224.03-.249,0-.423,0v.517c.129.014.083.084.125.093.182.04.17.002.36.079.467.189.817.312,1.285.501.189.077.177.039.36.079.036.009.012.085.099.097.367.048,1.105.022,1.403.091.038.009.013.085.1.097.402.052,1.32-.012,1.685-.099.317-.076.7-.108,1.034-.187.306-.074.77-.287,1.113-.375.018-.22.034-.437.047-.658.027-.458.087-.924.053-1.375.39-.508,1.237-1.274,1.35-1.894.092-.504.017-1.245.167-1.712.044-.139.242-.253.328-.377.439-.626.824-1.38.626-2.169ZM9.803,23.401c.345.233.521.59.982.646.163.019.253-.023.386-.031.278-.016.205.114.022.212-.568.303-1.481-.028-1.558-.709l.168-.118ZM8.865,19.504c.53-.158.648.693.214.781-.515.104-.56-.678-.214-.781ZM11.537,26.263c-.569.225-1.774.069-2.355-.143-.107-.039-.763-.345-.807-.39-.098-.099-.04-.259.102-.267.148-.008.544.251.718.315.855.315,1.46.316,2.361.268.302-.016.155.147-.019.217ZM12.202,21.948c-.083.045-1.212.375-1.278.366-.083-.011-.176-.106-.193-.184-.068-.328.882-.384,1.059-.545.018-.079-.947-.942-.693-1.232.077-.088.27-.058.339.039.153.378.725.824.846,1.172.05.145.071.304-.08.385ZM13.141,20.211c-.569.246-.715-.781-.187-.848.447-.057.618.662.187.848Z"/>
        <path d="M12.202,21.948c-.083.045-1.212.375-1.278.366-.083-.011-.176-.106-.193-.184-.068-.328.882-.384,1.059-.545.018-.079-.947-.942-.693-1.232.077-.088.27-.058.339.039.153.378.725.824.846,1.172.05.145.071.304-.08.385Z"/>
        <path d="M11.537,26.263c-.569.225-1.774.069-2.355-.143-.107-.039-.763-.345-.807-.39-.098-.099-.04-.259.102-.267.148-.008.544.251.718.315.855.315,1.46.316,2.361.268.302-.016.155.147-.019.217Z"/>
        <path d="M11.193,24.228c-.568.303-1.481-.028-1.558-.709l.168-.118c.345.233.521.59.982.646.163.019.253-.023.386-.031.278-.016.205.114.022.212Z"/>
        <path d="M13.141,20.211c-.569.246-.715-.781-.187-.848.447-.057.618.662.187.848Z"/>
        <path d="M9.079,20.285c-.515.104-.56-.678-.214-.781.53-.158.648.693.214.781Z"/>
      </g>
    </g>
    <g>
      <path class="cls-6" d="M19.918,38.801c.615.069,1.321.357,1.962.457,1.718.269,3.591.229,5.272-.175.2-.048.554-.12.706.069.167.209.094.842.234.941.145.102.759.159.985.236,1.234.423,3.023,1.429,3.948,2.347,1.206,1.198,2.166,2.65,2.63,4.299-7.938.002-15.878.002-23.816,0-.033-.095.086-.087.094-.126.065-.323.228-.661.381-.961.542-1.062,1.567-2.604,2.547-3.407.083-.068.265-.19.396-.295.888-.714,1.744-1.242,2.729-1.782.322-.177.631-.311.955-.478.062-.032.063-.14.227-.09.022-.019-.019-.35.002-.437.009-.036.084-.029.092-.064.046-.203.017-.183.093-.38.017-.044-.011-.137.002-.152.019-.021.467-.011.564,0Z"/>
      <g>
        <path class="cls-15" d="M17.757,30.064c-.026-.225-.03-.836.003-1.054.037-.245.24-.505.442-.642.325.007.376.37.682.381-.066-.15.088-.2.093-.221.062-.267.051-.724.106-1.014.155-.825.384-1.346,1.062-1.767.094-.058.296-.229.316-.233.093-.02.379.096.546-.058l.675-.562c.303.104.565.138.884.052.068.021.152.552.567.61.446.062.938-.16,1.328-.365.068-.036.11-.172.25-.133.151.255.302.543.538.73.08.064.214.082.289.157.115.114.138.344.299.476.286.234.487.15.796.025.01.166.008.422.05.576.007.025.199.255.189.34s-.081.064-.094.106c-.101.325.046.56-.006.776-.008.033-.075.03-.088.07-.089.273-.124.779-.101,1.067.018.233.258.436.291.674.032.027.19.013.241-.003.105-.033.672-.544.765-.665.065-.084.278-.515.339-.544.325-.154.647-.002.712.353.099.542-.016,1.171-.2,1.674-.095.26-.685,1.024-.902,1.211-.073.063-.386.231-.398.27-.102.344-.04.798-.097,1.114-.072.396-.256.395-.091.872.08.231-.072.526-.095.727-.11.925-.22,2.868-.022,3.736.022.096.035.183.023.282-1.682.404-3.554.445-5.272.175-.641-.101-1.347-.388-1.962-.457v-.141c.027,0,.071.011.088-.005.079-.077-.037-.623-.043-.768-.026-.658.099-1.045-.289-1.637-.305-.466-.682-.612-.851-1.216-.135-.485-.106-1.416-.082-1.942.013-.283.168-1.055.135-1.255-.059-.353-.402-.564-.602-.811-.058-.072-.416-.551-.424-.586-.016-.071.019-.172,0-.249-.011-.046-.078.003-.093-.127ZM20.702,28.429c-.236.072-.235.614,0,.686.626.192.641-.883,0-.686ZM24.983,29.291c0-.195-.158-.353-.353-.353s-.353.158-.353.353.158.353.353.353.353-.158.353-.353ZM21.562,30.863c.181-.076.987-.8.988-.917.002-.3-.343-.105-.472,0-.178.144-.697.579-.819.731-.152.188-.137.4.07.536.19.126,1.053.246,1.287.21.073-.011.139-.038.193-.089.166-.267-.565-.358-.708-.377-.048-.006-.623.028-.539-.094ZM23.582,32.742c-.578.093-.85.76-1.553.543-.127-.039-.494-.465-.635-.264-.111.158.196.446.323.528.331.213.755.162,1.098,0,.153-.072.922-.648.766-.807ZM24.227,36.179c-.116.017-.357.148-.522.186-.801.184-1.529.177-2.333.019-.152-.03-.562-.215-.658-.146-.282.201.382.402.509.436.803.216,1.552.176,2.35-.018.17-.041.87-.187.807-.414-.049-.066-.072-.076-.153-.063Z"/>
        <path d="M17.851,30.44c.008.035.365.514.424.586.2.248.544.458.602.811.033.2-.122.971-.135,1.255-.025.526-.054,1.457.082,1.942.169.604.546.75.851,1.216.388.593.263.979.289,1.637.006.144.121.69.043.768-.017.016-.061.006-.088.005-.323-.131-.163-.78-.189-1.103-.022-.28-.102-.855-.235-1.081-.145-.248-.663-.66-.782-.885-.099-.186-.216-.633-.251-.831.016-.672-.021-1.349,0-2.02,0-.016,0-.031,0-.047.008-.205.028-.407.047-.611.005-.051.094-.086.023-.234-.185-.233-.479-.51-.634-.752-.092-.145-.426-.694-.047-.658Z"/>
        <path d="M21.562,30.863c-.084.122.491.088.539.094.143.019.874.109.708.377-.054.052-.12.078-.193.089-.235.036-1.097-.084-1.287-.21-.207-.137-.221-.348-.07-.536.123-.152.641-.587.819-.731.129-.104.473-.299.472,0,0,.117-.807.841-.988.917Z"/>
        <path d="M24.227,36.179c.081-.012.104-.003.153.063.063.226-.637.372-.807.414-.799.195-1.548.235-2.35.018-.127-.034-.791-.235-.509-.436.097-.069.506.116.658.146.804.158,1.532.165,2.333-.019.165-.038.406-.169.522-.186Z"/>
        <path d="M23.582,32.742c.155.159-.614.735-.766.807-.343.163-.767.213-1.098,0-.127-.082-.434-.37-.323-.528.141-.202.507.224.635.264.703.217.975-.45,1.553-.543Z"/>
        <circle cx="24.63" cy="29.291" r=".353"/>
        <path d="M20.702,28.429c.641-.197.626.878,0,.686-.235-.072-.236-.614,0-.686Z"/>
      </g>
      <g>
        <path class="cls-12" d="M17.757,30.064c-.531.093-.428-.529-.472-.866-.026-.2-.119-.286-.094-.569.015-.161.128-.32.127-.374-.001-.075-.17-.249-.175-.469-.004-.153.233-.843.342-.906.073-.043.27.009.367-.01.054-.168-.066-.17-.101-.253-.058-.138-.126-.276-.135-.43-.005-.092.042-.573.071-.633.046-.098.199-.102.247-.152.066-.069.047-.244.139-.32.101-.084.308-.102.436-.091-.132-.264-.108-.638.013-.903.068-.149.223-.183.257-.237.049-.077.07-.342.123-.442.042-.079.316-.262.337-.297.084-.144-.036-.3.209-.542.163-.16.329-.138.369-.171.024-.02.136-.424.328-.504.238-.099.538.043.575.021.027-.016.237-.443.338-.481.107-.04.222.005.33-.016.026-.005.188-.261.433-.284s.361.178.423.178c.053,0,.294-.246.467-.27.306-.043.353.077.523.286.242-.112.547-.198.803-.079.037.017.113.168.143.172.085.011.169-.046.262-.038.144.012.43.16.458.319.324-.394.567-.374.996-.175.062.029.115.109.165.121.137.036.322-.065.585.059.101.048.346.408.413.441.114.056.271.004.397.026.423.074.503.673.402,1.03.507-.066.683.067.796.543.02.082-.013.183.004.269.007.034.259.208.306.267.244.308.15.592.16.959.32.083.429.346.427.661-.001.152-.152.635-.136.698.033.132.28.145.393.22.3.198.131.704.122,1.005-.004.119.065.262.044.43-.023.189-.188.316-.192.336-.019.09.048.142.049.156.006.166-.083.378-.082.4.003.04.099.084.12.15.106.335-.214.499-.215.553,0,.021.073.082.083.145.037.232-.137.343-.211.538-.17.448-.293.882-.507,1.325-.047.097-.203.259-.214.305-.022.093.068.305.028.497-.041.2-.305.386-.315.44-.014.082.235.154.102.475-.108.26-1.089.657-1.373.764-.165-.476.02-.476.091-.872.057-.315-.006-.77.097-1.114.012-.04.325-.207.398-.27.218-.187.808-.951.902-1.211.183-.503.299-1.131.2-1.674-.065-.356-.386-.508-.712-.353-.06.029-.274.459-.339.544-.093.121-.66.633-.765.665-.052.016-.21.03-.241.003-.033-.238-.273-.441-.291-.674-.023-.288.012-.793.101-1.067.013-.04.08-.038.088-.07.052-.216-.096-.451.006-.776.013-.042.084-.02.094-.106s-.183-.316-.189-.34c-.042-.154-.04-.411-.05-.576-.309.125-.51.209-.796-.025-.162-.132-.184-.362-.299-.476-.075-.075-.209-.093-.289-.157-.236-.187-.387-.475-.538-.73-.14-.039-.182.097-.25.133-.391.204-.882.427-1.328.365-.415-.057-.499-.589-.567-.61-.319.086-.581.052-.884-.052l-.675.562c-.167.154-.454.038-.546.058-.02.004-.222.175-.316.233-.678.42-.907.942-1.062,1.767-.055.29-.044.747-.106,1.014-.005.021-.16.07-.093.221-.307-.011-.357-.374-.682-.381-.201.137-.405.397-.442.642-.033.218-.029.829-.003,1.054ZM22.83,21.891c-.25-.108-.262.631-.234.658h.14c.004-.23.138-.42.094-.658ZM26.288,23c.345-.534-.176-.835-.261-.284-.024.155.01.332-.003.49.038.045.246-.178.263-.205ZM20.669,23.581l-.002-.443-.231-.496-.039.246.273.693ZM27.246,23.018c-.123-.14-.378.59-.375.657.083.017.211-.155.237-.207.03-.061.162-.424.138-.451ZM19.917,23.253c-.079-.082-.072-.018-.082.057-.029.201.074.726.204.88.055.065.081.056.161.05.051-.382-.258-.636-.282-.986ZM22.36,23.629l-.179.057c.049.12-.183.259-.102.366.037.049.176-.114.185-.13.052-.089.105-.185.096-.292ZM27.997,23.91c-.09-.016-.127.015-.191.067-.068.056-.386.599-.208.589.214-.152.39-.382.399-.657ZM20.877,25.012c.058-.039.194-.131.205-.192l-.155-.345-.259.539c.024.195.174.022.209-.002ZM28.467,24.709c-.251-.026-.464.754-.422.798.295.108.486-.721.422-.798ZM18.623,25.906c-.024-.027-.023-.12-.068-.046.06.153.068.462.282.493-.002-.177-.104-.325-.214-.447ZM18.861,26.4v.047c.031-.016.031-.031,0-.047Z"/>
        <path class="cls-8" d="M18.861,26.4c.031.016.031.031,0,.047v-.047Z"/>
      </g>
    </g>
  </g>
</svg>