<?xml version="1.0" encoding="UTF-8"?>
<svg id="Layer_1" data-name="Layer 1" xmlns="http://www.w3.org/2000/svg" viewBox="0 0 46.487 46.487">
  <defs>
    <style>
      .cls-1 {
        fill: #009e73;
      }

      .cls-2 {
        fill: #009e72;
      }

      .cls-3 {
        fill: #009e73;
      }

      .cls-4 {
        fill: #c76f45;
      }

      .cls-5 {
        fill: #fefefe;
      }

      .cls-6 {
        fill: #238833;
      }

      .cls-7 {
        fill: #97e2cd;
      }
    </style>
  </defs>
  <g>
    <path class="cls-7" d="M21.038.046c-.474.78-.745,1.635-1.079,2.474-.499,1.251-1.563,3.259-.678,4.508.326.46.519.555,1.081.59.607.038.933.017,1.372-.42.077.048.046.176.047.255.008.768-.031,1.398.114,2.162.34,1.794,1.105,3.525,1.544,5.283.247.989.487,1.965.039,2.939l-1.094,1.158c-.03-.022-.115-.034-.173-.078-.225-.169-.402-.544-.725-.286-.2.16-.825.914-1.003,1.144-.922,1.188-.893,1.694-1.222,3.086-.364,1.541-.786,3.07-1.15,4.612.506,2.132,1.478,4.124,2.457,6.051.266.524.529,1.387.992,1.74.214.163.535.312.76.468,1.709,1.182,3.382,2.337,5.09,3.513.254.175.289.323.667.366.627.07,1.215-.059,1.808-.088,1.205-.059,2.379-.055,3.575-.043.419.004.345-.119.585-.302.777-.594,1.665-1.091,2.411-1.699-.031.536.043,1.117,0,1.648-.093,1.142-.858,1.759-1.43,2.657-.124.195-.294.44-.334.665-.015-.001-.031,0-.046,0-.053,0-.043.045-.046.046-.03.01-.102-.02-.132.007-.023.021,0,.071-.007.086-.008.016-.041.031-.046.046-.005.014.005.033,0,.046-.301.753-1.201,1.574-1.71,2.261-.292.395-.653.909-.901,1.328-.043.072-.098.122-.083.219H.046V.046c6.996,0,13.995.001,20.991,0ZM15.752,8.212l.274-1.268c-.062-.325-.293-.586-.618-.393-.222.132-.417,1.044-.489,1.332-.02.081-.01.164-.01.245-.017.018-.322-.014-.398-.004-.064.008-.127.169-.312.098l-.494.399c-.278.06-.585-.417-.783-.583-.085-.071-.206-.123-.298-.191-.075-.056-.121-.167-.217-.21-.502-.226-.72.14-.45.566l1.228,1.167c-.006.219-.072.478-.082.691-.008.182.16.452-.09.57-.16.076-.449.141-.619.206-.248.094-1.126.35-1.19.576-.052.181-.04.447.143.537.306.151.394.007.676-.091.38-.132.79-.352,1.158-.475.071-.024.228-.039.301-.005.033.016.498.497.502.533.011.085.014.384-.004.457-.008.035-.083.029-.091.064-.043.192-.052.518-.096.732-.041.198-.174.563-.187.746-.034.494.628.611.774.26.178-.427.289-1.137.426-1.619.02-.069,0-.152.019-.213.039-.124.651-.093.796-.125.032-.007.03-.074.069-.087.086-.028.326-.11.394-.091.034.009.41.327.479.386.343.29.593.711,1.003.914.035.017.039.078.071.086.068.016.235.014.305,0,.015-.003.214-.202.217-.217.113-.532-.34-.651-.63-.915-.277-.252-.505-.563-.81-.789l-.045-.139c.265-.467.314-.936.282-1.464.129-.014.306-.054.425-.1.038-.015.037-.068.075-.083.206-.083,1.037-.286,1.077-.492.055-.285-.123-.61-.432-.533-.033.008-.03.073-.069.086-.253.084-.523.205-.742.279-.074.025-.503.148-.539.138-.128-.038-.158-.27-.184-.305-.176-.237-.569-.509-.813-.673ZM7.743,12.135c-.077-.083-.367-.067-.439,0-.106.097-.084.361-.108.472-.017.079-.066.136-.08.199-.04.185-.042.418-.104.617l-.69-.099c.005-.153-.106-.238-.14-.311-.121-.262-.281-.987-.692-.814-.296.125.045.732.114.938.036.108.096.205.103.229.121.379-.228.358-.445.537-.165.136-.174.504-.499.447-.335-.059-1.16-.433-1.438-.271-.231.135-.058.379.102.453.285.131.676.224.952.285.018.004.119.178.31.092.02.276-.03.586.002.857.015.127.136.48.187.591.024.052.089.03.094.106.016.233-.127.198-.247.306-.183.164-.34.366-.52.534-.223.209-.61.341-.536.729.003.017.124.129.16.132.325.025.347-.145.526-.28.099-.074.24-.142.317-.208.236-.199.401-.491.698-.625l.704.371c.061.071-.146.761-.176.901-.055.254-.07.466-.099.737-.023.218-.121.317.006.583.406.013.392-.43.464-.709.093-.362.288-.836.369-1.179.018-.076-.007-.168,0-.247.22-.019.469.068.649-.092l.672,1.559c.352.321.654.02.525-.411l-.551-1.354c-.007-.345.509-.61.522-.996.141-.092,1.239.384,1.515.399.16.009.285-.038.381-.161.029-.089-.04-.374-.103-.419-.059-.041-.722-.234-.861-.277-.12-.037-.214.041-.275-.104l-.525-.095c-.002-.113.012-.225-.011-.338-.034-.168-.122-.485-.178-.65-.012-.035-.051-.035-.081-.041l-.009-.061c.196-.13.325-.339.499-.486.214-.18.464-.125.34-.582-.106-.392-.561-.002-.728.136-.119.099-.25.258-.37.372-.022.021-.018.069-.021.071-.082.049-.144-.127-.22-.182-.203-.146-.318-.023-.241-.442.022-.12.064-.278.093-.418.025-.125.167-.456.174-.567.001-.02-.084-.221-.097-.234ZM20.142,18.469c.196-.158.126-.526-.11-.628-.998-.518-2.055-.936-3.052-1.453-.494-.256-.504-.572-.977.01-.7.861-1.251,1.967-1.919,2.864-.19.375.199.68.542.45l1.72-2.529,1.44,6.409-13.632-2.462c-.356-.005-.561.151-.475.525.062.27.534.295.771.343,4.388.896,8.889,1.388,13.273,2.331.258.079.75-.1.833-.363.069-.218-.132-1.026-.188-1.303-.361-1.804-.871-3.582-1.231-5.386l2.495,1.197c.143.063.381.101.51-.003ZM5.519,23.089l-.273.116c-.088.582.015,1.152.002,1.734-.19-.085-.293.088-.311.092-.09.021-.213-.009-.311.004-.065-.127-.528-.787-.601-.821-.347-.161-.641.018-.54.415.022.087.221.265.262.326.027.04.003.117.03.156.071.106.255.15.264.367-.216.456-.461.897-.465,1.412-.298-.051-.544.045-.818.088-.116.018-.234-.007-.356.016-.346.063-.343.404-.059.549l1.418-.003c-.017.25.295.42.183.704-.019.047-.13.101-.163.149-.103.15-.214.373-.318.521-.054.078-.332.343-.35.423-.017.077-.015.318,0,.397.029.15.423.16.543.113.019-.007.262-.266.288-.3.089-.112.23-.419.296-.508.077-.104.277-.249.356-.386-.007.039.003.067.037.089.3.191.647.266.977.383.034.28-.019.569.011.849.008.081.072.15.088.237.049.263-.062.53.356.527.357-.002.418-.33.384-.617-.015-.126-.077-.245-.087-.377-.019-.234.013-.484,0-.72l.362.01c.183.358.487.629.661.977.163.111.328.426.556.387.28-.049.327-.364.277-.598-.008-.036-.082-.043-.107-.089-.182-.332-.439-.632-.654-.947-.068-.099-.209-.089-.165-.263.01-.04.145-.101.17-.141.053-.088.257-.527.281-.625.064-.258-.087-.522.314-.568.408-.048,1.33.188,1.183-.523-.003-.013-.177-.166-.201-.176-.316-.127-.403.021-.654.051-.221.027-.491-.019-.719-.004-.006-.047,0-.098-.018-.142-.072-.183-.186-.324-.279-.468-.12-.185-.217-.404-.448-.502-.036-.121.058-.07.108-.148.083-.129.394-.589.42-.691.092-.356-.022-.539-.403-.459-.109.023-.642.816-.8.926-.075-.075-.334-.118-.351-.253-.018-.144.02-.316.003-.466-.021-.179-.062-.599-.093-.735-.008-.034-.083-.028-.091-.063-.017-.075.016-.151-.014-.236-.005-.015-.184-.113-.18-.189ZM18.796,30.942c-.065-.064-.398-.215-.496-.224-4.596.52-9.224.867-13.818,1.419-.274.033-1.19.085-1.3.325-.207.454.379.52.695.463l14.234-1.485-1.161,4.505-1.577-2.764c-.477-.312-.727.033-.52.52.364.857,1.09,2.217,1.579,3.018.136.223.442.763.722.756.773-.2,1.51-.511,2.269-.753.414-.132,1.108-.236,1.454-.403.442-.214.289-.721-.186-.653l-3.183.789,1.381-5.05c.038-.124-.004-.374-.094-.463ZM15.671,37.179c-.091-.132-.135-.2-.321-.167-.243.043-.286.39-.261.584.011.086.087.061.095.098.041.176-.042.443.048.641-.01.101-.354.343-.476.257-.206-.197-1.022-1.034-1.261-1.023-.198.009-.355.205-.358.398,0,.076.069.052.094.105.015.032-.006.095.019.133.055.085.335.303.429.405.09.097.493.511.511.583.045.178-.211.468-.119.699l-1.917.002c-.151.161-.273.101-.219.392.01.054.201.252.218.256.105.022.239-.013.358.006.127.02.247.078.377.088.421.03.855-.054,1.268.056-.012.173.137.257.181.33.026.044.002.118.029.157.039.058.185.098.174.175-.199.422-1.009.775-.825,1.314.005.013.191.193.205.195.099.021.195.006.29-.024.198-.063.745-.782.916-.943l.591.174c.006.138.097.274.117.403.065.423.062.865.203,1.284.072.214.237.443.477.272.213-.152.177-.475.154-.717-.026-.271-.058-.566-.091-.838-.013-.112-.125-.216-.09-.351.219.079.448-.125.617-.093.067.013.729.845.996.917.081.022.223.026.304.009.015-.003.216-.202.219-.217.082-.427-.796-.96-.834-1.114-.01-.039-.008-.08,0-.119.207-.071.262-.572.438-.594h1.663c.602-.539-.153-.709-.64-.74-.208-.013-.956.056-1.049-.066-.095-.38-.271-.722-.509-1.025.214-.394.886-.75.749-1.255-.019-.071-.078-.088-.109-.148-.395-.127-.762.315-1.006.58-.096.104-.19.361-.349.336l-.245-.186c-.14-.049-.773-.087-.827-.14-.116-.115-.046-.382-.071-.533-.014-.084-.07-.15-.088-.237-.018-.085.014-.184-.003-.267-.007-.036-.06-.036-.071-.052Z"/>
    <path class="cls-5" d="M.046,46.487h-.046V0h46.487v.046h-25.449c-6.996,0-13.995,0-20.991,0v46.441Z"/>
    <path class="cls-6" d="M5.519,23.089c-.004.076.175.174.18.189.03.085-.003.161.014.236.008.036.083.029.091.063.032.136.072.556.093.735.018.15-.02.321-.003.466.017.136.275.179.351.253.159-.111.691-.903.8-.926.381-.08.495.103.403.459-.026.101-.337.562-.42.691-.05.078-.144.027-.108.148.231.098.328.317.448.502.093.144.207.285.279.468.018.045.012.096.018.142.228-.015.498.031.719.004.252-.03.339-.178.654-.051.024.01.199.163.201.176.147.711-.775.475-1.183.523-.401.047-.25.31-.314.568-.024.098-.228.537-.281.625-.025.04-.16.101-.17.141-.043.174.097.164.165.263.215.315.472.616.654.947.025.046.1.053.107.089.05.233.003.549-.277.598-.228.039-.393-.275-.556-.387-.175-.348-.479-.619-.661-.977l-.362-.01c.014.236-.019.486,0,.72.011.132.073.251.087.377.034.288-.027.615-.384.617-.418.003-.306-.264-.356-.527-.016-.087-.08-.156-.088-.237-.029-.279.024-.569-.011-.849-.33-.117-.677-.192-.977-.383-.034-.022-.045-.049-.037-.089-.079.136-.279.282-.356.386-.066.088-.206.396-.296.508-.027.033-.269.292-.288.3-.121.047-.514.037-.543-.113-.016-.079-.017-.32,0-.397.018-.08.296-.345.35-.423.104-.148.215-.371.318-.521.033-.048.145-.102.163-.149.112-.284-.2-.454-.183-.704l-1.418.003c-.284-.145-.287-.487.059-.549.122-.022.24.003.356-.016.273-.043.52-.139.818-.088.003-.515.249-.957.465-1.412-.009-.218-.193-.262-.264-.367-.027-.04-.003-.117-.03-.156-.041-.061-.24-.239-.262-.326-.1-.397.193-.576.54-.415.074.034.537.694.601.821.098-.013.22.018.311-.004.017-.004.121-.177.311-.092.013-.582-.09-1.152-.002-1.734l.273-.116Z"/>
    <path class="cls-6" d="M15.752,8.212c.244.164.637.435.813.673.026.035.056.268.184.305.035.01.465-.112.539-.138.219-.075.489-.195.742-.279.039-.013.037-.078.069-.086.308-.077.487.248.432.533-.04.206-.871.41-1.077.492-.038.015-.037.068-.075.083-.119.046-.295.086-.425.1.032.528-.017.998-.282,1.464l.045.139c.305.226.533.537.81.789.29.264.743.383.63.915-.003.015-.202.214-.217.217-.07.015-.237.016-.305,0-.032-.007-.037-.068-.071-.086-.41-.203-.66-.624-1.003-.914-.069-.058-.445-.376-.479-.386-.069-.019-.309.063-.394.091-.039.013-.037.08-.069.087-.145.032-.757,0-.796.125-.019.061,0,.145-.019.213-.137.482-.248,1.192-.426,1.619-.146.351-.808.234-.774-.26.013-.183.146-.548.187-.746.044-.214.053-.54.096-.732.008-.034.083-.028.091-.064.018-.074.015-.372.004-.457-.005-.036-.469-.518-.502-.533-.073-.034-.229-.019-.301.005-.368.123-.778.343-1.158.475-.282.098-.371.243-.676.091-.182-.09-.195-.356-.143-.537.065-.226.942-.482,1.19-.576.17-.064.458-.13.619-.206.25-.118.081-.388.09-.57.01-.213.076-.472.082-.691l-1.228-1.167c-.27-.426-.052-.792.45-.566.096.043.142.154.217.21.092.069.213.12.298.191.198.166.505.643.783.583l.494-.399c.185.071.248-.09.312-.098.076-.01.381.022.398.004,0-.081-.01-.164.01-.245.073-.287.267-1.2.489-1.332.325-.193.556.069.618.393l-.274,1.268Z"/>
    <path class="cls-6" d="M15.671,37.179c.011.016.064.016.071.052.017.083-.015.182.003.267.018.087.074.153.088.237.025.15-.045.418.071.533.054.053.687.091.827.14l.245.186c.159.026.253-.232.349-.336.244-.265.611-.707,1.006-.58.032.06.09.076.109.148.137.505-.536.861-.749,1.255.238.303.413.645.509,1.025.093.121.841.052,1.049.066.487.031,1.243.201.64.741h-1.663c-.177.021-.231.522-.438.593-.008.039-.01.08,0,.119.038.154.917.688.834,1.114-.003.015-.204.214-.219.217-.081.017-.223.013-.304-.009-.267-.072-.929-.904-.996-.917-.168-.032-.398.171-.617.093-.035.135.077.239.09.351.033.272.064.567.091.838.023.242.059.565-.154.717-.24.172-.405-.058-.477-.272-.14-.419-.138-.861-.203-1.284-.02-.129-.111-.265-.117-.403l-.591-.174c-.171.16-.718.88-.916.943-.095.03-.192.045-.29.024-.014-.003-.201-.182-.205-.195-.184-.539.625-.892.825-1.314.011-.077-.134-.117-.174-.175-.027-.039-.003-.113-.029-.157-.044-.073-.193-.157-.181-.33-.413-.11-.847-.026-1.268-.056-.13-.009-.249-.067-.377-.088-.118-.019-.253.016-.358-.006-.016-.003-.208-.202-.218-.256-.054-.291.068-.231.219-.392l1.917-.002c-.092-.231.164-.521.119-.699-.018-.072-.421-.486-.511-.583-.094-.102-.374-.32-.429-.405-.025-.038-.004-.102-.019-.133-.025-.053-.095-.029-.094-.105.002-.193.16-.389.358-.398.239-.011,1.055.826,1.261,1.023.122.086.467-.156.476-.257-.089-.198-.006-.464-.048-.641-.009-.038-.084-.013-.095-.098-.025-.194.017-.541.261-.584.186-.033.229.035.321.167Z"/>
    <path d="M20.142,18.469c-.129.104-.367.066-.51.003l-2.495-1.197c.36,1.805.87,3.582,1.231,5.386.055.277.257,1.085.188,1.303-.083.263-.575.443-.833.363-4.384-.943-8.885-1.435-13.273-2.331-.237-.048-.708-.073-.771-.343-.086-.374.119-.53.475-.525l13.632,2.462-1.44-6.409-1.72,2.529c-.343.23-.733-.075-.542-.45.668-.897,1.219-2.003,1.919-2.864.473-.582.483-.266.977-.01.997.517,2.054.935,3.052,1.453.236.102.307.47.11.628Z"/>
    <path d="M18.796,30.942c.09.089.131.339.094.463l-1.381,5.05,3.183-.789c.476-.068.629.439.186.653-.346.167-1.04.271-1.454.403-.759.242-1.495.553-2.269.753-.28.008-.586-.532-.722-.756-.489-.802-1.216-2.162-1.579-3.018-.207-.487.043-.832.52-.52l1.577,2.764,1.161-4.505-14.234,1.485c-.316.057-.903-.009-.695-.463.11-.24,1.026-.292,1.3-.325,4.594-.553,9.221-.899,13.818-1.419.097.009.431.16.496.224Z"/>
    <path class="cls-6" d="M7.743,12.135c.012.013.098.215.097.234-.007.111-.149.442-.174.567-.028.14-.071.298-.093.418-.077.419.038.296.241.442.077.055.138.232.22.182.003-.002-.001-.05.021-.071.12-.114.251-.273.37-.372.167-.138.621-.529.728-.136.124.457-.127.402-.34.582-.174.147-.303.356-.499.486l.009.061c.03.006.069.006.081.041.056.165.144.482.178.65.023.112.008.225.011.338l.525.095c.061.145.155.067.275.104.139.043.802.236.861.277.063.045.131.33.103.419-.096.123-.22.17-.381.161-.276-.015-1.374-.492-1.515-.399-.013.386-.529.651-.522.996l.551,1.354c.128.431-.174.731-.525.411l-.672-1.559c-.18.16-.429.073-.649.092-.008.079.017.172,0,.247-.081.343-.275.817-.369,1.179-.072.278-.058.721-.464.709-.127-.266-.029-.365-.006-.583.029-.271.044-.483.099-.737.03-.14.237-.83.176-.901l-.704-.371c-.298.134-.462.425-.698.625-.077.065-.219.134-.317.208-.179.134-.201.305-.526.28-.036-.003-.157-.115-.16-.132-.074-.388.313-.521.536-.729.18-.168.337-.37.52-.534.12-.108.263-.073.247-.306-.005-.076-.07-.054-.094-.106-.051-.111-.172-.464-.187-.591-.032-.271.018-.581-.002-.857-.191.085-.293-.088-.31-.092-.276-.06-.667-.153-.952-.285-.16-.074-.333-.318-.102-.453.277-.163,1.103.212,1.438.271.324.057.334-.311.499-.447.218-.179.566-.158.445-.537-.008-.024-.067-.121-.103-.229-.069-.205-.41-.812-.114-.938.41-.174.571.552.692.814.034.073.145.158.14.311l.69.099c.061-.198.063-.432.104-.617.014-.063.063-.12.08-.199.024-.111.002-.375.108-.472.072-.066.362-.082.439,0Z"/>
    <path class="cls-2" d="M34.412,42.632c.005-.016.038-.03.046-.046l-.046.046Z"/>
  </g>
  <g>
    <path d="M46.487.046v18.994c-.176-.16-.376-.238-.603-.302-1.064-.301-1.347-.085-2.304.158-1.038.264-2.425.478-3.501.655-1.295-1.018-2.521-2.301-3.133-3.857-.543-1.38-.808-2.858-1.048-4.317-.092.019-.079.095-.092.163-.144.755-.167,1.366-.698,1.995-.849,1.006-1.665.09-2.247-.63-1.274-1.575-2.24-3.367-2.882-5.292-.229-.689-.354-1.42-.652-2.088-.223.886-.267,1.827-.492,2.712-.115.452-.424,1.445-.784,1.724-.355.276-.953.281-1.343.086-.628-.313-.937-.871-1.202-1.492-.647-1.518-.901-3.212-1.08-4.842l-2.693,3.483c-.439.437-.765.458-1.372.42-.563-.035-.755-.13-1.081-.59-.885-1.249.179-3.257.678-4.508.334-.838.605-1.694,1.079-2.474h25.449Z"/>
    <path class="cls-4" d="M46.487,40.589c-.768.267-1.41.899-2.138,1.229-2.353,1.068-5.982,1.102-8.52.86-.371-.035-.82-.21-1.138-.232.04-.224.21-.47.334-.665.572-.898,1.337-1.514,1.43-2.657.043-.531-.031-1.112,0-1.648l.615-.479c1.011-.761,2.194-1.592,3.101-2.47.506-.489,1.006-1.29,1.522-1.693.86-.672,2.043-1.272,2.99-1.865.141-.088.269-.249.414-.34.446-.279.943-.491,1.389-.77v10.728Z"/>
    <path class="cls-6" d="M46.487,41.193v5.294h-14.768c-.015-.097.04-.147.083-.219.249-.42.609-.933.901-1.328.509-.687,1.409-1.508,1.71-2.261.056.066.071.149.136.212.275.268,1.349.404,1.745.437,3.267.275,6.387-.029,9.269-1.643.294-.165.647-.282.924-.493Z"/>
    <path d="M46.487,40.589v.604c-.277.211-.63.328-.924.493-2.882,1.614-6.002,1.918-9.269,1.643-.397-.033-1.47-.169-1.745-.437-.065-.063-.08-.146-.136-.212.005-.013-.005-.032,0-.046l.046-.046c.007-.014-.016-.064.007-.086.03-.028.102.002.132-.007l.046-.046c.015,0,.031-.001.046,0,.318.022.767.196,1.138.232,2.538.242,6.167.209,8.52-.86.728-.33,1.369-.962,2.138-1.229Z"/>
    <path class="cls-3" d="M34.598,42.493s-.007-.046.046-.046l-.046.046Z"/>
    <g>
      <path class="cls-4" d="M21.734,7.198l2.693-3.483c.179,1.63.433,3.324,1.08,4.842.265.621.573,1.179,1.202,1.492.39.194.988.19,1.343-.086.359-.28.669-1.273.784-1.724.225-.885.269-1.825.492-2.712.299.668.423,1.399.652,2.088.641,1.924,1.608,3.717,2.882,5.292.583.721,1.398,1.636,2.247.63.531-.629.554-1.24.698-1.995.013-.068,0-.144.092-.163.24,1.459.505,2.937,1.048,4.317.612,1.555,1.838,2.838,3.133,3.857-.65.107-1.185.175-1.833.184-1.123.015-2.27.16-3.387.285-3.073.346-6.125.914-9.202,1.205-.38-.201-.787-.417-1.15-.661-.722-.485-1.429-1.056-2.122-1.57l1.094-1.158c.448-.974.208-1.95-.039-2.939-.439-1.758-1.204-3.489-1.544-5.283-.145-.763-.106-1.393-.114-2.162,0-.078.03-.206-.047-.255ZM28.69,15.893c-1.346.137-1.736,2.272-.224,2.569,1.55.305,2.151-1.665,1.021-2.414-.184-.122-.574-.178-.796-.155Z"/>
      <g>
        <path class="cls-1" d="M36.456,37.478c-.746.608-1.633,1.105-2.411,1.699-.24.183-.166.306-.585.302-1.196-.011-2.37-.016-3.575.043-.593.029-1.182.159-1.808.088-.378-.042-.413-.191-.667-.366-1.709-1.176-3.381-2.331-5.09-3.513-.225-.156-.546-.305-.76-.468-.463-.353-.726-1.217-.992-1.74-.979-1.927-1.951-3.919-2.457-6.051.365-1.542.786-3.07,1.15-4.612.329-1.392.3-1.898,1.222-3.086.178-.23.802-.984,1.003-1.144.323-.258.5.118.725.286.058.044.144.056.173.078.693.515,1.399,1.085,2.122,1.57.363.244.77.46,1.15.661,3.078-.291,6.129-.859,9.202-1.205,1.117-.126,2.264-.27,3.387-.285.647-.009,1.183-.077,1.833-.184,1.076-.177,2.463-.392,3.501-.655.957-.243,1.24-.459,2.304-.158.227.064.427.142.603.302v.789c-.796-.558-1.454-.716-2.38-.36-.263.101-.499.277-.757.357-.647.199-1.598.242-2.296.374-.22.042-.464.13-.685.175-.588.118-1.202.189-1.779.367-.04.266.079.531.094.783.089,1.551.183,3.097.279,4.644.037.595-.03,1.107.104,1.707.018.08.715.967.828,1.112.168.214.389.415.553.63.497.653.942,1.347,1.422,2.01l2.016-1.163c.129-.011.407-.091.536-.138.252-.091.621-.338.854-.493.439-.292.835-.627,1.211-.995v1.022c-.446.279-.944.491-1.389.77-.145.091-.273.252-.414.34-.947.593-2.13,1.193-2.99,1.865-.516.403-1.016,1.204-1.522,1.693-.907.878-2.09,1.709-3.101,2.47l-.615.479ZM25.136,23.532c.189.08,2.792-.302,3.204-.37,1.702-.281,3.509-.66,5.2-1.023.716-.154,1.809-.334,2.462-.556.275-.094.776-.373.206-.496l-10.652,1.934-4.307-1.707c-.123-.041-.315-.094-.421.002-.109.141-.071.299.083.383,1.361.606,2.763,1.126,4.126,1.727.078.034.091.104.099.107ZM25.488,27.346l-.015-.225c-.158-.169-.332-.047-.509-.044-1.641.027-3.442.117-5.061.374-.057.009-.135.02-.169.073-.125.277-.007.477.3.476.876-.004,1.985-.269,2.885-.367.475-.052.962-.094,1.44-.139.376-.036.771.061,1.129-.147ZM26.415,32.522c-.57.063-3.477,1.225-4.025,1.548-.457.269-.305.782.182.694,1.281-.579,2.761-.988,4.009-1.612.551-.275.454-.699-.166-.63ZM31.057,35.812c-.197.04-.759.598-.968.755-.309.232-1.958,1.358-2.029,1.594-.085.281.144.433.379.285.848-.748,1.839-1.404,2.677-2.152.07-.062.242-.224.224-.319-.019-.101-.175-.185-.283-.163Z"/>
        <path class="cls-4" d="M46.487,21.27v6.455l-1.227,1.28c-.425.471-1.314.831-1.943.752-.241-.03-.704-.301-.874-.061-.412.582,1.105.8,1.443.77l-2.016,1.163c-.48-.663-.926-1.357-1.422-2.01-.164-.216-.385-.417-.553-.63-.113-.144-.81-1.032-.828-1.112-.134-.6-.068-1.112-.104-1.707-.095-1.547-.189-3.093-.279-4.644-.015-.252-.133-.517-.094-.783.577-.178,1.191-.249,1.779-.367.22-.044.464-.133.685-.175-.021.1.052.102.115.138.342.2.734.372,1.139.326l-.731,1.104c-.08.316.151.414.419.288.105-.049.542-.664.681-.813.774-.827,2.093-1.844,3.222-1.036.399.285.329.701.588,1.06Z"/>
        <path d="M46.487,19.83v1.44c-.259-.359-.189-.775-.588-1.06-1.129-.807-2.448.209-3.222,1.036-.14.149-.576.763-.681.813-.268.126-.499.028-.419-.288l.731-1.104c-.405.046-.797-.126-1.139-.326-.062-.037-.136-.038-.115-.138.698-.132,1.649-.174,2.296-.374.259-.08.494-.256.757-.357.925-.357,1.584-.199,2.38.36Z"/>
        <path d="M46.487,27.725v1.115c-.376.367-.772.702-1.211.995-.233.155-.601.403-.854.493-.128.046-.407.126-.536.138-.338.03-1.855-.188-1.443-.77.17-.24.634.031.874.061.629.079,1.518-.281,1.943-.752l1.227-1.28Z"/>
        <path d="M25.136,23.532c-.008-.003-.021-.073-.099-.107-1.363-.6-2.765-1.12-4.126-1.727-.154-.084-.192-.242-.083-.383.106-.095.298-.042.421-.002l4.307,1.707,10.652-1.934c.57.122.07.402-.206.496-.653.222-1.746.402-2.462.556-1.69.364-3.498.743-5.2,1.023-.413.068-3.016.451-3.204.37Z"/>
        <path d="M26.415,32.522c.62-.069.717.355.166.63-1.248.624-2.728,1.033-4.009,1.612-.487.088-.639-.425-.182-.694.548-.323,3.455-1.484,4.025-1.548Z"/>
        <path d="M25.488,27.346c-.358.208-.753.111-1.129.147-.478.045-.965.087-1.44.139-.9.098-2.009.363-2.885.367-.307.001-.425-.199-.3-.476.034-.053.112-.064.169-.073,1.62-.257,3.421-.347,5.061-.374.178-.003.351-.125.509.044l.015.225Z"/>
        <path d="M31.057,35.812c.108-.022.264.062.283.163.018.094-.155.256-.224.319-.838.748-1.83,1.405-2.677,2.152-.235.148-.465-.004-.379-.285.072-.236,1.72-1.361,2.029-1.594.209-.157.771-.714.968-.755Z"/>
      </g>
      <path d="M28.69,15.893c.222-.023.613.033.796.155,1.13.749.529,2.719-1.021,2.414-1.512-.297-1.121-2.433.224-2.569Z"/>
    </g>
  </g>
</svg>