<?xml version="1.0" encoding="UTF-8"?>
<svg id="Layer_1" data-name="Layer 1" xmlns="http://www.w3.org/2000/svg" viewBox="0 0 46.487 46.487">
  <defs>
    <style>
      .cls-1 {
        fill: #009e73;
      }

      .cls-2 {
        fill: #a04b54;
      }

      .cls-3 {
        fill: #fefefe;
      }

      .cls-4 {
        fill: #238833;
      }

      .cls-5 {
        fill: #0072b2;
      }

      .cls-6 {
        fill: #97e2cd;
      }
    </style>
  </defs>
  <path class="cls-6" d="M46.487.046v39.474c-.188.013-.393-.02-.578.003-1.419.173-3.138.582-4.551.929-.269.066-.581.224-.849.265-.101.015-.457-.003-.477.011-.296-.729-.716-1.398-1.11-2.077-.302-.521-.377-.845-.918-1.259-1.843-1.41-4.186-1.781-6.285-2.469.048-.077.176-.046.255-.047,2.894-.03,5.615.33,8.544.185.317-.016,1.339.091,1.513-.124.06-.074.084-.216.093-.313.215-2.389-.206-5.066.046-7.477-.051-3.014-.078-6.04-.051-9.06.006-.674.171-1.914.027-2.53-.075-.319-.542-.511-.84-.553-.268-.038-.548-.05-.838-.091-1.82-.259-3.157-.381-5.009-.374-3.553.012-7.051-.159-10.588-.282-3.02-.106-5.907-.029-8.92.046-1.244.031-2.514.024-3.757.097-.127.007-.339.029-.444-.049.397-.467.834-.982,1.123-1.548.203-.399.354-.843-.263-.914-.515-.059-1.225.004-1.767.002-.221,0-.438-.059-.694-.048-.404.018-1.558.15-.967.734l2.8.056c.066.063-.309.544-.373.625-.327.417-.723.784-1.067,1.186l-4.543.008c-.029.07-.067.139-.088.213-.187.647-.217,1.152-.292,1.798-.126,1.087-.357,2.063-.545,3.124-.624,3.517-.307,7.148-.381,10.718-.083,1.461-.119,3.147.449,4.514.072.174.544.233.731.246,1.413.101,2.866-.051,4.272-.096,2.94-.095,5.875-.191,8.825-.091l-.07.093c-1.754.48-3.639,1.083-5.294,1.835-.527.239-1.166.573-1.602.953-.528.461-1.577,2.542-1.836,3.249L.046,40.403c-.009-13.452.007-26.906,0-40.357h46.441ZM31.301,8.87l.466-.671c.574-.727,2.602-2.884,2.693-3.67.029-.248-.001-.431-.217-.574-.525-.347-2.1-.47-2.732-.425-.162.012-1.064.144-1.116.231-.084.236.009.366.244.408.425.075,1.024-.016,1.477.009.188.011,1.537.186,1.557.308-.165.431-.493.852-.773,1.222-.692.915-1.934,2.083-2.426,3.054-.617,1.217.627.832,1.271.803.616-.028,1.274.083,1.9.097.643.015,1.765.07,2.361-.058.24-.052.327-.331.173-.525-.28-.354-1.185-.155-1.605-.16-.922-.012-1.86-.131-2.786-.097-.159.006-.317.079-.485.048ZM18.483,6.038c-.517,1.241-1.247,2.383-1.805,3.605-.133.292-.235.601-.356.898-.186.456-.706,1.104.259,1.001,1.053-.357,2.193-.559,3.248-.885.197-.061.609-.181.676-.392.122-.382-.12-.495-.461-.462-.367.036-1.29.36-1.7.483-.509.153-1.006.379-1.532.465.518-1.501,1.5-2.768,2.168-4.194.145-.31.609-1.104.218-1.352-.239-.152-1.155.162-1.458.251-.612.18-1.924.582-2.412.932-.34.243-.466.675.054.709.32-.211,2.97-1.159,3.101-1.06ZM24.753,10.867c.343-.446,1.931-1.808,1.949-2.303.015-.405-.605-.421-.902-.438-.401-.024-1.205-.049-1.583,0-.252.032-.282.295-.117.447.28.258,1.37.108,1.768.229-.214.222-.377.49-.58.721-.277.316-1.213,1.152-1.327,1.461-.257.701,1.232.402,1.556.394.345-.008,1.381.068,1.617-.054.307-.16.135-.496-.179-.544-.33-.051-1.033-.02-1.392-.005-.252.011-.557.062-.811.094Z"/>
  <path class="cls-3" d="M.046,46.487h-.046V0h46.487v.046H.046c.007,13.451-.008,26.905,0,40.357.001,2.027,0,4.057,0,6.084Z"/>
  <path d="M31.301,8.87c.168.03.327-.042.485-.048.927-.035,1.864.085,2.786.097.419.005,1.324-.193,1.605.16.154.194.068.473-.173.525-.595.128-1.718.073-2.361.058-.626-.014-1.284-.125-1.9-.097-.644.029-1.888.414-1.271-.803.492-.971,1.734-2.139,2.426-3.054.28-.37.608-.791.773-1.222-.021-.122-1.369-.298-1.557-.308-.453-.026-1.052.066-1.477-.009-.234-.041-.328-.171-.244-.408.051-.086.954-.219,1.116-.231.632-.045,2.207.077,2.732.425.216.143.246.326.217.574-.09.786-2.119,2.942-2.693,3.67l-.466.671Z"/>
  <path d="M18.483,6.038c-.131-.1-2.781.849-3.101,1.06-.521-.034-.394-.466-.054-.709.488-.349,1.8-.752,2.412-.932.303-.089,1.219-.403,1.458-.251.391.248-.073,1.042-.218,1.352-.668,1.426-1.651,2.692-2.168,4.194.525-.086,1.023-.312,1.532-.465.41-.123,1.333-.447,1.7-.483.341-.033.583.081.461.462-.067.211-.479.331-.676.392-1.055.326-2.195.528-3.248.885-.964.103-.444-.546-.259-1.001.121-.297.222-.606.356-.898.557-1.222,1.287-2.364,1.805-3.605Z"/>
  <path d="M24.753,10.867c.254-.032.559-.084.811-.094.36-.015,1.062-.046,1.392.005.314.049.486.385.179.544-.236.123-1.272.046-1.617.054-.324.008-1.813.307-1.556-.394.113-.309,1.049-1.145,1.327-1.461.202-.231.366-.499.58-.721-.398-.121-1.488.029-1.768-.229-.165-.152-.135-.414.117-.447.378-.049,1.182-.024,1.583,0,.297.018.917.033.902.438-.018.495-1.605,1.857-1.949,2.303Z"/>
  <g>
    <g>
      <path d="M10.542,14.443c.344-.401.74-.769,1.067-1.186.064-.081.439-.562.373-.625l-2.8-.056c-.591-.584.563-.716.967-.734.256-.011.474.047.694.048.541.002,1.251-.061,1.767-.002.617.071.467.515.263.914-.288.566-.726,1.081-1.123,1.548-.426.501-.926.94-1.3,1.486.082.005.162.001.244-.011.562-.089,1.125-.272,1.687-.356.199-.03.707-.106.879-.101.427.014.763.412.345.721-.217.161-.861.168-1.169.224-.715.131-1.905.499-2.569.5-.313,0-.775-.192-.71-.57.025-.149.35-.6.459-.742.266-.347.635-.717.927-1.058Z"/>
      <g>
        <path class="cls-1" d="M11.749,14.35c.104.077.317.056.444.049,1.243-.073,2.513-.066,3.757-.097,3.013-.076,5.9-.152,8.92-.046,3.538.124,7.036.295,10.588.282,1.851-.006,3.189.116,5.009.374.29.041.57.053.838.091.298.043.765.234.84.553.144.616-.021,1.856-.027,2.53-.028,3.02,0,6.046.051,9.06-.251,2.411.169,5.088-.046,7.477-.009.097-.033.238-.093.313-.174.216-1.197.109-1.513.124-2.929.145-5.65-.215-8.544-.185-.079,0-.207-.03-.255.047-.949-.311-1.892-.636-2.833-.975v-.093c.044.005.084.01.124-.015.457-.289,1.064-.84,1.409-1.262.686-.838.522-1.071.743-2.035.012-.054.062-.181.094-.331.075-.346.222-.734.23-1.094.345-.035.263-.333.336-.454.011-.018.218-.309.233-.325.033-.034.124-.038.173-.081.149-.134.075-.286.002-.44.07-.022.861-.979.946-1.121.403-.675.655-1.527-.006-2.131-.316-.288-.724-.263-1.079-.464-.005-.011-.085-.032-.084-.068.001-.026.119-.153.142-.225.09-.279-.152-.361-.154-.384-.008-.093.08-.149.094-.231.015-.089.017-.282,0-.368-.041-.216-.263-.15-.322-.327.212-.133.268-.196.228-.461-.053-.348-.395-.352-.408-.522-.008-.103.164-.167.201-.248.114-.249-.075-.504-.348-.464.111-.367.219-.721-.278-.79.126-.187.171-.504-.09-.582-.113-.034-.278.01-.352-.066-.079-.08-.069-.321-.159-.444-.089-.122-.224-.106-.234-.115-.009-.009.05-.16.039-.243-.049-.386-.413-.475-.689-.221.016-.173.002-.313-.103-.454-.186.048-.349-.1-.479-.108-.149-.009-.209.108-.348.098.075-.356-.108-.711-.513-.583-.171.054-.127.215-.276.211.059-.626-.421-.719-.789-.278.069-.5-.459-.55-.696-.186-.09-.342-.324-.159-.497-.15-.023.001-.405-.041-.45-.048-.072-.011-.131-.129-.285-.129-.254-.001-.27.235-.366.235-.203-.002-.196-.117-.289-.178-.471-.308-.622.32-.691.317-.165-.218-.229-.385-.546-.312-.236.055-.363.489-.512.558-.123.057-.245-.047-.374-.045-.228.005-.518.149-.543.402-.445-.26-.528.186-.789.303-.049.022-.129-.013-.217.011-.15.042-.161.161-.231.188-.09.035-.189,0-.294.08-.127.096-.26.51-.283.529-.026.021-.166-.007-.239.016-.226.07-.545.276-.406.546-.408-.064-.482.574-.14.65-.044.19-.247.368-.338.523-.499.855-.638,1.322-.686,2.331-.089,1.877-.111,3.793-.14,5.669-.013.892-.125,2.246.231,3.019.279.606.548.756.962,1.198.521.557,1.043,1.138,1.595,1.656-.046.081-.13.077-.207.095-.619.144-1.224.295-1.836.462l.07-.093c-2.951-.1-5.885-.004-8.825.091-1.407.045-2.859.197-4.272.096-.187-.013-.659-.072-.731-.246-.568-1.366-.533-3.052-.449-4.514.074-3.57-.243-7.201.381-10.718.188-1.061.419-2.036.545-3.124.075-.646.105-1.151.292-1.798.021-.074.06-.143.088-.213l4.543-.008c-.292.341-.661.711-.927,1.058-.109.142-.433.594-.459.742-.064.378.397.571.71.57.664,0,1.854-.369,2.569-.5.308-.056.951-.063,1.169-.224.418-.31.082-.708-.345-.721-.172-.006-.681.071-.879.101-.562.084-1.125.267-1.687.356-.081.013-.162.017-.244.011.375-.546.875-.985,1.3-1.486ZM41.114,34.862c.112.084.325.064.407-.052.075-.105.048-.372.037-.508-.12-1.447-.457-2.822-.507-4.323-.134-4.049-.197-8.097.33-12.119.089-.679.333-1.4.315-2.095-.006-.242-.229-.244-.38-.117-.115.097-.106.85-.13,1.043-.557,4.574-.605,9.227-.458,13.842.032.986.096,1.812.183,2.789.027.299-.021,1.375.2,1.541ZM6.78,15.697l-.234.077-.276,2.268c-.246,2.319-.552,4.63-.652,6.964-.094,2.203.086,4.227.19,6.409.011.239-.052,1.188.04,1.306.083.099.222.073.318.007.047-.107.052-.219.06-.334.059-.919-.095-1.834-.141-2.742-.158-3.136-.039-6.16.279-9.287.136-1.338.415-2.691.464-4.041.008-.216.004-.416-.046-.627ZM9.354,21.8c.747-.679,1.546-1.113.037-1.585-.396-.124-1.305-.304-1.703-.294-.164.004-.398.094-.343.294.067.244.958.321,1.202.38.313.076.617.177.927.257.049.054-.33.406-.394.465-.233.22-.512.423-.745.647-.166.16-.782.736-.873.896-.2.352-.047.536.322.587.175.024.461.045.643.054.295.015,1.519.042,1.696-.119l.025-.117c-.622-.278-1.353-.172-2.021-.278l.483-.537c.246-.218.501-.43.743-.651ZM13.514,28.607c.082-.397.072-.784.093-1.184.021-.389.104-.911.043-1.298-.034-.217-.273-.351-.479-.347-.387.007-1.083.283-1.418.487-.213.13-.738.462-.539.764.239.364,1.326-.481,1.65-.466.112.127-.296,2.436-.064,2.782.147.305.461.333.756.208.233-.099,1.251-.847,1.466-1.041.229-.206.47-.506.083-.688-.242-.083-1.531.849-1.59.782Z"/>
        <path d="M41.114,34.862c-.222-.165-.173-1.241-.2-1.541-.088-.977-.152-1.803-.183-2.789-.147-4.615-.1-9.268.458-13.842.024-.193.015-.946.13-1.043.151-.127.373-.125.38.117.018.696-.226,1.416-.315,2.095-.528,4.023-.464,8.07-.33,12.119.05,1.501.387,2.876.507,4.323.011.136.038.403-.037.508-.083.115-.295.135-.407.052Z"/>
        <path d="M6.78,15.697c.05.21.054.411.046.627-.048,1.35-.327,2.703-.464,4.041-.318,3.127-.437,6.152-.279,9.287.046.908.2,1.823.141,2.742-.007.115-.013.228-.06.334-.096.065-.235.092-.318-.007-.092-.118-.029-1.068-.04-1.306-.103-2.181-.284-4.206-.19-6.409.1-2.334.407-4.645.652-6.964l.276-2.268.234-.077Z"/>
        <path d="M13.514,28.607c.059.067,1.348-.864,1.59-.782.387.182.146.481-.083.688-.215.194-1.233.942-1.466,1.041-.295.125-.609.097-.756-.208-.232-.346.175-2.655.064-2.782-.324-.015-1.411.83-1.65.466-.199-.302.326-.634.539-.764.335-.205,1.031-.48,1.418-.487.207-.004.446.13.479.347.06.387-.022.909-.043,1.298-.021.4-.011.786-.093,1.184Z"/>
        <path d="M9.354,21.8c-.243.221-.498.433-.743.651l-.483.537c.668.106,1.399,0,2.021.278l-.025.117c-.177.161-1.401.133-1.696.119-.182-.009-.468-.03-.643-.054-.369-.051-.522-.234-.322-.587.091-.16.706-.736.873-.896.233-.224.512-.427.745-.647.063-.06.443-.411.394-.465-.31-.08-.615-.182-.927-.257-.244-.059-1.135-.136-1.202-.38-.055-.2.179-.29.343-.294.398-.01,1.308.17,1.703.294,1.509.473.71.906-.037,1.585Z"/>
      </g>
      <g>
        <path class="cls-4" d="M28.886,33.948c.941.339,1.883.664,2.833.975,2.099.688,4.442,1.059,6.285,2.469.541.414.616.738.918,1.259.394.678.814,1.348,1.11,2.077-.007.005.006.101-.076.132-2.508.424-4.969.843-7.515.985-3.177.177-6.349.115-9.52.089-3.499-.028-6.822-.008-10.306-.422-.83-.099-1.655-.262-2.49-.319-.014-.012.034-.151.046-.185.258-.708,1.308-2.789,1.836-3.249.436-.38,1.075-.713,1.602-.953,1.655-.752,3.54-1.355,5.294-1.835.612-.168,1.217-.318,1.836-.462.077-.018.161-.013.207-.095.528.495,1.1.967,1.749,1.223.016.006.017.069.048.076.16.037.271-.067.406.098,1.624.072,2.802-.649,4.191-1.227.038-.016.107-.149.294-.078l-.092-.092c.186.072.257-.063.294-.078.353-.145.531-.218.882-.295.032-.007.047-.147.171-.092Z"/>
        <g>
          <path class="cls-2" d="M19.319,20.016c.36.081.35-.213.428-.269.016-.011.336-.123.36-.129.123-.027.315.077.456.016l.11-.26c.139-.009.347-.027.364-.194.339.419.593-.044.673-.044.021,0,.151.176.366.178.286.003.321-.231.572-.31.133.055.26.123.393.181.125.055.158.139.387.137.171-.002.404-.137.457-.134.084.006.158.114.331.085.11-.019.136-.113.215-.159.306-.178.226.034.333.146.157.164.479.065.568-.126.163.27.312.54.67.344.128-.07.095-.22.235-.205-.048.302.026.761.43.689.211-.037.178-.314.452-.224-.221.176-.39.354-.207.648.171.275.457.204.717.095-.14.196-.105.348.021.537.153.229.479.018.533.187.031.148-.112.242-.126.376-.037.35.315.607.64.478.008.12-.114.134-.138.256-.052.266.116.525.358.616.272.103.338-.148.567.058.012.14-.125.071-.135.258-.017.34.243.5.555.484.02.017-.13.196.068.328.213.142.22-.112.263-.137.146-.085.294.202.368.247.112.069.442.106.459.122.015.014-.016.278.165.277s.023-.246.233-.257c.216-.012.258.359.532.233.227-.105.173-.262.094-.442.356.201.763.175,1.079.464.661.604.409,1.456.006,2.131-.085.142-.876,1.099-.946,1.121-.204.063-.388.092-.587.202-.04.022-.069.104-.207.103-.041.052.002.736.004.882,0,.06.048.107.048.113-.008.36-.155.747-.23,1.094-.033.151-.082.278-.094.331-.221.965-.057,1.198-.743,2.035-.345.421-.952.973-1.409,1.262-.04.025-.08.019-.124.015l-.046.023.046.023v.046c-.124-.054-.139.085-.171.092-.351.077-.529.15-.882.295-.037.015-.108.15-.294.078l.092.092c-.187-.072-.256.062-.294.078-1.389.578-2.567,1.299-4.191,1.227-.134-.165-.246-.061-.406-.098-.03-.007-.032-.07-.048-.076-.649-.256-1.222-.728-1.749-1.223-.552-.518-1.075-1.099-1.595-1.656-.414-.442-.683-.593-.962-1.198-.356-.774-.245-2.127-.231-3.019.028-1.876.05-3.793.14-5.669.048-1.009.186-1.476.686-2.331.091-.155.294-.334.338-.523ZM19.726,25.51c-.649-.216-.48.567-.156.802.665.481,1.99.484,2.019-.531-.252-.127-.483.141-.717.177-.321.049-.641-.015-.914-.185-.051-.032-.216-.257-.233-.263ZM26.61,25.867c-.041-.031-.758.357-.951.374-.133.012-.545-.069-.682-.11-.312-.093-.635-.422-.955-.253-.259.258.361.721.586.808.317.123.807.157,1.146.112.316-.042,1.014-.55.857-.931ZM22.318,29.139c-.126-.078-.143-.062-.25-.192-.158-.192-.23-.627-.353-.715-.235-.17-.446.048-.445.305,0,.07.034.393.048.455.007.03.067.027.086.07.45.998,1.822,1.106,2.435.184.081-.123.419-.712.147-.734-.212-.018-.484.474-.673.629-.365.3-.63.223-.996-.002ZM22.652,31.543c-.424.103-.505,1.06-.068,1.3.479.263.746-.361.68-.773-.042-.26-.325-.597-.611-.527Z"/>
          <path d="M19.319,20.016c-.342-.077-.268-.715.14-.65-.139-.271.18-.476.406-.546.074-.023.214.005.239-.016.023-.019.156-.433.283-.529.105-.079.204-.045.294-.08.07-.027.081-.146.231-.188.088-.024.167.011.217-.011.262-.116.345-.563.789-.303.025-.253.314-.397.543-.402.129-.003.251.102.374.045.149-.07.276-.504.512-.558.317-.074.381.093.546.312.069.003.22-.624.691-.317.093.061.086.176.289.178.097,0,.113-.236.366-.235.154,0,.213.119.285.129.045.007.426.049.45.048.173-.009.407-.191.497.15.237-.364.765-.314.696.186.368-.44.848-.348.789.278.15.004.106-.157.276-.211.405-.128.589.227.513.583.138.01.199-.107.348-.098.129.008.293.156.479.108.105.141.119.281.103.454.276-.254.639-.165.689.221.011.082-.048.234-.039.243.01.01.144-.006.234.115.091.123.08.364.159.444.075.075.24.032.352.066.262.079.216.395.09.582.498.068.389.423.278.79.272-.04.462.215.348.464-.037.081-.209.145-.201.248.013.17.355.175.408.522.04.265-.015.328-.228.461.059.177.282.111.322.327.016.087.014.279,0,.368-.013.082-.102.138-.094.231.002.023.245.105.154.384-.023.071-.141.199-.142.225-.002.036.079.057.084.068.079.18.133.337-.094.442-.274.126-.316-.245-.532-.233-.21.012-.051.256-.233.257s-.151-.263-.165-.277c-.017-.017-.348-.053-.459-.122-.073-.046-.222-.332-.368-.247-.043.025-.05.278-.263.137-.198-.132-.047-.311-.068-.328-.313.017-.573-.143-.555-.484.009-.187.146-.117.135-.258-.229-.207-.294.044-.567-.058-.243-.091-.41-.35-.358-.616.024-.122.146-.136.138-.256-.325.129-.677-.128-.64-.478.014-.134.158-.228.126-.376-.055-.17-.381.042-.533-.187-.126-.189-.161-.342-.021-.537-.261.109-.546.18-.717-.095-.183-.294-.015-.472.207-.648-.274-.09-.241.187-.452.224-.404.072-.478-.387-.43-.689-.14-.015-.108.135-.235.205-.358.197-.507-.074-.67-.344-.089.192-.411.29-.568.126-.107-.112-.028-.324-.333-.146-.079.046-.105.14-.215.159-.173.029-.246-.079-.331-.085-.052-.004-.286.132-.457.134-.229.002-.263-.082-.387-.137-.133-.058-.259-.126-.393-.181-.251.079-.286.313-.572.31-.215-.002-.345-.178-.366-.178-.079,0-.334.463-.673.044-.017.167-.225.185-.364.194l-.11.26c-.141.061-.333-.043-.456-.016-.024.005-.345.118-.36.129-.078.056-.068.35-.428.269Z"/>
          <path d="M32.23,27.818c.073.154.147.307-.002.44-.049.044-.14.047-.173.081-.014.015-.222.307-.233.325-.073.122.009.419-.336.454,0-.006-.047-.053-.048-.113-.002-.146-.045-.83-.004-.882.139.001.168-.081.207-.103.2-.11.384-.139.587-.202Z"/>
          <polygon class="cls-5" points="28.886 33.902 28.841 33.878 28.886 33.855 28.886 33.902"/>
          <path d="M22.318,29.139c.366.226.631.303.996.002.189-.155.461-.647.673-.629.272.023-.066.612-.147.734-.613.922-1.985.814-2.435-.184-.019-.043-.08-.04-.086-.07-.014-.062-.048-.385-.048-.455,0-.257.21-.474.445-.305.122.088.195.523.353.715.107.13.124.114.25.192Z"/>
          <path d="M26.61,25.867c.157.381-.541.889-.857.931-.339.045-.829.012-1.146-.112-.224-.087-.844-.55-.586-.808.321-.169.643.16.955.253.138.041.549.122.682.11.193-.017.91-.405.951-.374Z"/>
          <path d="M19.726,25.51c.017.006.181.231.233.263.273.17.593.233.914.185.234-.035.465-.303.717-.177-.029,1.015-1.354,1.013-2.019.531-.325-.235-.494-1.018.156-.802Z"/>
          <path d="M22.652,31.543c.286-.07.57.267.611.527.066.412-.201,1.036-.68.773-.436-.24-.355-1.197.068-1.3Z"/>
        </g>
      </g>
    </g>
    <g>
      <path class="cls-1" d="M46.487,39.521v6.966H.046c0-2.027.001-4.057,0-6.084l10.124.604c-.012.034-.06.174-.046.185.836.058,1.66.221,2.49.319,3.483.414,6.807.394,10.306.422,3.171.026,6.343.087,9.52-.089,2.547-.141,5.007-.561,7.515-.985.082-.031.069-.127.076-.132.02-.013.375.004.477-.011.268-.041.581-.199.849-.265,1.414-.347,3.133-.756,4.551-.929.185-.023.39.01.578-.003ZM21.827,43.793c-.02-.081-.106-.104-.175-.126-.699-.222-1.673-.114-2.404-.15-4.274-.214-8.659-.607-12.908-1.117-1.081-.13-2.318-.483-3.345-.556-.234-.017-1.228-.037-1.393.022-.28.1-.029.284.152.336.454.132,1.103.124,1.601.211,1.188.206,2.277.429,3.496.544,4.073.384,8.177.57,12.262.742.368.015.79.084,1.157.097.518.017,1.04-.016,1.558-.002ZM42.853,43.086c.122-.118.044-.259-.102-.317-.433-.175-1.661.073-2.184.098-3.726.178-7.484-.182-11.194.231-.383.043-.76.149-1.139.209.003.173.459.123.58.115.888-.059,1.799-.162,2.692-.187,3.659-.101,7.308.295,10.961-.045.078-.007.339-.06.384-.103Z"/>
      <path d="M21.827,43.793c-.518-.014-1.04.02-1.558.002-.367-.012-.79-.081-1.157-.097-4.085-.171-8.189-.358-12.262-.742-1.219-.115-2.308-.338-3.496-.544-.497-.086-1.147-.079-1.601-.211-.181-.052-.431-.237-.152-.336.165-.059,1.159-.039,1.393-.022,1.027.073,2.264.426,3.345.556,4.249.51,8.634.902,12.908,1.117.731.037,1.705-.071,2.404.15.069.022.155.045.175.126Z"/>
      <path d="M42.853,43.086c-.045.043-.306.096-.384.103-3.654.34-7.302-.056-10.961.045-.893.025-1.804.128-2.692.187-.122.008-.578.058-.58-.115.379-.061.756-.167,1.139-.209,3.71-.412,7.468-.052,11.194-.231.523-.025,1.751-.273,2.184-.098.145.059.224.2.102.317Z"/>
    </g>
  </g>
</svg>