<?xml version="1.0" encoding="UTF-8"?>
<svg id="Layer_1" data-name="Layer 1" xmlns="http://www.w3.org/2000/svg" viewBox="0 0 46.501 46.726">
  <defs>
    <style>
      .cls-1 {
        fill: #009e73;
      }

      .cls-2 {
        fill: #2a1302;
      }

      .cls-3 {
        fill: #99d8c7;
      }

      .cls-4 {
        fill: #e9e4a2;
      }

      .cls-5 {
        fill: #2c1403;
      }

      .cls-6 {
        fill: #fefefe;
      }

      .cls-7 {
        fill: #238833;
      }

      .cls-8 {
        fill: #2d1402;
      }

      .cls-9 {
        fill: #97e2cd;
      }

      .cls-10 {
        fill: #2c1302;
      }
    </style>
  </defs>
  <rect class="cls-3" x="2.977" y="13.872" width="16.33" height="18.47"/>
  <g>
    <path class="cls-9" d="M46.441.01c-.006,9.168.016,23.725.006,33.831.004,3.755-.003,10.854,0,12.759-.002.049.011.064-.026.068-.325-.061-9.432.045-12.656,0-9.735.017-25.091-.005-33.753-.006.014-8.743-.023-24.1-.006-33.915C-.013,9.602.02.223.007.031.01-.009.027.009.075.004c1.892-.003,8.964.002,12.698,0,10.034-.011,24.573.001,33.669.006h0ZM38.619,15.857c.185.21.144.534.282.787.163.314.496.201.683-.122.332-.605.558-1.506.06-1.993-.185-.119-.386-.015-.587.037-.186.056-.372.081-.569.051-.919-.184-1.861-.346-2.699-.81-.549-.244-.835-.636-.81-1.252-.006-.32.118-.632.42-.759.41-.199.988-.359,1.269-.724.444-.627-.243-1.064-.852-.811-.301.048-1.094.597-1.296.286-.096-.32.12-.717.214-1.031.294-.81.693-1.48,1.162-2.179.183-.255.368-.645.725-.613.184.011.424.126.63.113.253-.007.408-.248.376-.484-.056-.486-.513-.928-.925-1.314-.264-.272-.853-.539-.992-.025-.061.214.003.404-.052.596-.17.391-.436.614-.768,1.091-.544.718-1.216,1.607-1.551,2.048-.079.099-.169.221-.298.231-.083.007-.164-.031-.241-.069-.317-.181-.791-.473-1.182-.611-1.175-.328-.57-1.154-.719-2.031-.04-.44-.539-.711-.862-.352-.333.387-.357.988-.471,1.457-.101.547-.622.597-1.09.65-.284.037-.556-.028-.773-.231-.725-.743-1.209-1.682-1.796-2.532-.181-.261-.391-.601-.171-.891.175-.287.852-.72.501-1.098-.364-.27-.953.081-1.298.308-.404.29-1.391.784-.859,1.295.323.199.674.366.833.754.286.601,1.701,2.802,1.289,3.339-.666.743-1.43-.777-2.198-.546-.353.087-.405.512-.201.774.215.323.634.612.898.854.093.086.184.188.212.312.052.282-.104.597-.297.798-.327.313-.835.157-1.243.151-.505-.045-.95-.008-1.437-.056-.421-.04-.842-.166-1.257-.217-.181-.026-.367-.043-.532-.119-.262-.1-.445-.421-.733-.396-.523.173-.473,1.71-.118,2.045.405.438.588-.308.945-.38.264-.057.572.064.838.114.802.174,1.618.341,2.39.665.557.204,1.004.623,1.141,1.217.099.293.169.646-.13.821-.346.239-.922.408-1.265.676-.605.475-.073,1.195.612.953.549-.103,1.329-.685,1.846-.466.537.329,1.047.86.705,1.524-.503,1.171-1.38,2.139-2.109,3.182-.151.22-.331.424-.583.518-.25.103-.558.11-.662.285-.18.418.275.796.577,1.06.407.306.816.615,1.272.476.172-.065.279-.229.243-.423-.057-.299-.363-.57-.29-.899.046-.224.227-.42.378-.6.712-.819,1.623-1.715,2.481-2.421,2.243-1.891,1.365-.105,1.599,1.473.073.453.511.765.896.492.38-.281.276-.788.294-1.266.025-.54-.063-1.028.057-1.491.164-.314.578-.327.936-.249.435.134.748.535,1.061.857.867.972,1.674,2.099,2.274,3.262.115.304-.059.64-.002.93.224.581.999.158,1.331-.128.42-.348.938-.686,1.024-1.24.022-.235-.129-.427-.392-.415-.296,0-.58.234-.868.204-.246-.028-.388-.289-.511-.491-.564-.957-1.222-1.874-1.585-2.938-.314-.871.063-.649.627-.18.35.258.712.601,1.154.625.54.015.676-.58.368-.961-.197-.272-.476-.466-.766-.698-.347-.289-.792-.533-.869-.817.06-.662,2.802-.219,3.337-.197.32.055.712-.027.96.205l.008.008ZM12.375,13.719c.119-.313.361-.561.433-.899.285-1.349-1.631-2.503-2.22-.9-.203.56-.131,1.192.25,1.564.173.17.376.319.496.534.281.45-.061.956-.452,1.207-1.349.988-2.726,1.95-4.145,2.839-.374.231-.943.32-1.203-.103-.186-.281-.19-.643-.352-.993-.146-.328-.414-.649-.728-.776-.602-.271-1.169.256-1.395.839-.286.659.052,1.4.672,1.699.626.295,1.534.317,1.894,1.014.138.305.058.665.044.993-.095,1.369-.255,2.731-.364,4.101-.036.447-.072.9-.086,1.347-.012.341.004.681.013,1.023.011.291-.034.567-.208.814-.57.803-1.239.208-1.86.565-.461.307-.549,1.027-.399,1.519.21.737,1.148,1.065,1.755.588.375-.264.501-.754.726-1.114.234-.379.522-.57.961-.404,1.291.329,5.287,1.347,6.409,1.636.173.049.263.127.335.322.321.833-.462,1.564-.026,2.384.241.489.785.786,1.285.579.583-.235,1.007-.993.803-1.619-.124-.428-.681-.698-.683-1.186.013-.318.276-.56.523-.743,1.537-1.113,3.204-2.09,4.736-3.207.318-.19.838-.794,1.208-.588.205.15.28.436.399.657.221.454.692.724,1.165.607.798-.202,1.27-1.262.571-1.882-.723-.689-1.535-.134-2.086-.64-.166-.163-.236-.414-.27-.649-.21-1.498-.302-3.038-.549-4.554-.06-.376-.129-.751-.203-1.124-.024-.169-.094-.438.002-.548.025-.03.061-.049.099-.059.16-.044.525.018.785-.1.654-.25,1.214-1.072.846-1.734-.328-.651-1.323-.901-1.842-.314-.376.401-.428,1.047-1.068.794-1.931-.916-3.898-1.813-5.874-2.633-.375-.131-.582-.464-.405-.845l.005-.013ZM30.438,25.049c.246-.223.748-.111,1.026-.375.268-.217.265-.655-.059-.83-.387-.218-.893-.149-1.326-.165-.657.031-1.392-.247-1.996.091-.264.173-.294.521-.014.716.211.16.524.21.767.308.531.185.245,1.024.226,1.473-.076.476-.218.953-.33,1.43-.098.412-.191.91-.618,1.076-.961.477-1.148.317-1.671-.534-.161-.231-.322-.457-.552-.598-.538-.348-1.015.164-.765.714.11.288.34.633.513.926.137.242.335.488.284.772-.202.695-1.215.458-1.773.419-.613-.049-1.167-.093-1.775-.274-.493-.162-1.078-.201-1.016-.759.094-.804-.549-.872-.969-.296-.34.491-1.128,1.944-.628,2.441.442.311.67-.405,1.001-.563.501-.19,1.483.585,1.982.796.405.206.866.34,1.2.658.363.319.664.921.376,1.375-.377.514-1.563.246-2.056.747-.329.287-.168.8.212.948.552.327,1.832-.422,2.207.131.352.775-1.126,1.804-1.644,2.247-.241.18-.48.437-.776.508-.272.069-.547-.133-.793-.186-.434-.081-.276.473-.137.697.197.359.417.664.627,1.019.175.279.341.62.624.797.519.274.733-.334.547-.759-.097-.308-.18-.544.03-.771.373-.345,2.514-1.824,2.898-1.24.125.409-.222.806-.325,1.194-.164.444-.352,1.217.187,1.423.915.152.878-2.492,2.066-1.584.214.251.078.586.083.899-.042.592-.095,1.389-.129,1.852-.013.137-.028.28-.108.387-.15.186-.45.213-.59.415-.401.826,1.418,1.02,1.971,1.031.48.025,1.364.083,1.461-.526-.038-.571-.786-.6-1.224-.685-.586-.123-.442-.765-.318-1.186.191-.555.365-1.217.68-1.715.202-.264.547-.304.854-.359.332-.055.642-.183.938-.154.617.069.796,1.06,1.302,1.401.468.391,1.101.033.955-.579-.071-.481-.628-1.035-.689-1.457-.035-.333.286-.578.51-.807.479-.555.983-.641,1.702-.555.737.059,1.472.149,2.21.185.411.036.938.045,1.124.472.096.199.109.502.218.68.256.414.665-.053.797-.334.27-.582.507-1.323.485-1.991-.046-.435-.428-.583-.73-.306-.272.246-.507.476-.877.36-1.001-.327-1.951-.852-2.793-1.471-.301-.202-.716-.721-.245-.959.422-.187,1.098-.19,1.535-.442.599-.289.527-.957-.134-1.037-.509-.092-1.177.176-1.653.038-.715-.326.393-1.37.659-1.736.437-.507.813-.903,1.29-1.317.287-.221.577-.544.936-.615.418-.019.594.516.989.591.365.105.681-.246.596-.603-.057-.502-1.588-2.767-2.075-1.927-.147.388.017.88-.396,1.174-.945.74-2.018,1.292-3.109,1.759-.298.129-.63.173-.927.033-.302-.154-.635-.33-.744-.636-.048-.26.115-.452.286-.727.165-.26.34-.52.407-.771.181-.583-.456-1.049-.941-.622-.335.286-.556.715-.805,1.084-.194.368-.738.824-.993.264-.148-.341-.097-.853-.158-1.248-.024-.488-.229-1.449.096-1.828l.008-.008Z"/>
    <path class="cls-6" d="M46.472.007c.057,8.897.009,24.019.024,33.946-.009,3.178.015,12.556-.007,12.761-1.569.025-3.98-.008-8.295.005-11.604-.019-27.353.044-38.184-.025,10.851-.07,26.571.006,38.186-.021,4.3-.008,6.68.011,8.247-.005.047-.273-.018-9.532.007-12.741.031-9.883-.049-25.078.022-33.919h0Z"/>
    <g>
      <path class="cls-1" d="M12.37,13.732c-.178.383.031.712.405.845,1.976.82,3.942,1.717,5.874,2.633.635.255.695-.396,1.068-.794.517-.585,1.516-.338,1.842.314.367.663-.192,1.483-.846,1.734-.259.118-.627.057-.785.1-.038.01-.075.029-.099.059-.096.11-.029.38-.002.548.074.372.143.748.203,1.124.247,1.516.339,3.056.549,4.554.034.235.105.486.271.649.557.508,1.357-.052,2.086.64.694.616.233,1.68-.572,1.882-.607.147-1.081-.301-1.285-.861-.09-.18-.183-.41-.396-.446-.405-.009-.757.426-1.091.632-1.532,1.117-3.199,2.094-4.736,3.207-.247.183-.51.425-.523.743.002.488.559.757.683,1.186.203.626-.22,1.384-.803,1.619-.5.206-1.043-.09-1.285-.579-.436-.82.347-1.551.026-2.384-.072-.195-.162-.273-.335-.322-1.257-.323-5.243-1.344-6.655-1.695-.309-.05-.563.216-.715.462-.225.36-.352.85-.726,1.114-.604.475-1.547.152-1.755-.588-.151-.491-.062-1.212.399-1.519.624-.358,1.285.239,1.86-.565.175-.247.22-.523.208-.814-.009-.341-.025-.682-.013-1.023.014-.447.05-.9.086-1.347.109-1.37.27-2.732.364-4.101.014-.328.094-.688-.044-.993-.361-.697-1.267-.719-1.894-1.014-.618-.298-.959-1.041-.672-1.699.229-.582.792-1.112,1.395-.839.314.127.581.447.728.776.162.351.167.712.352.993.261.423.829.333,1.203.103,1.419-.889,2.795-1.85,4.145-2.839.39-.25.733-.759.452-1.207-.12-.215-.323-.363-.496-.534-.38-.372-.453-1.003-.25-1.564.583-1.595,2.502-.462,2.22.9-.072.338-.314.586-.433.899l-.005.013ZM11.076,17.604c-.299.528-.648,1.024-.946,1.563-.129.241-.292.501-.434.723-.289.439.142.444.483.413.229-.02.461-.043.69-.062.987-.094,1.906-.192,2.872-.359.258-.032.522-.077.798-.102.16-.018.41-.036.507-.14.095-.129-.045-.251-.125-.366-.498-.596-.976-1.154-1.484-1.752-.338-.39-.671-.841-1.064-1.182-.448-.347-.715.328-.98.717-.107.176-.211.356-.311.533l-.008.013ZM15.372,18.022c.306.384.694.739,1.017,1.104.143.152.293.38.522.347.211-.045.369-.241.534-.377.239-.228.537-.489.614-.648.016-.034.026-.067.022-.098-.022-.112-.15-.147-.246-.198-.717-.325-2.779-1.261-3.496-1.586-.221-.099-.367-.142-.096.171.346.411.773.877,1.12,1.274l.01.011ZM9.551,18.317c.126-.195.25-.391.371-.59.189-.312.406-.676.353-.748-.081-.067-.291.106-.447.198-.619.412-1.323.974-1.855,1.37-.225.172-.499.311-.703.511-.26.251.029.497.229.659.199.154.445.389.694.346.257-.051.42-.366.61-.619.253-.368.502-.747.739-1.113l.009-.014ZM17.849,19.96c-.507.396-.199.757.079,1.154.182.258.362.558.544.86.065.098.689,1.193.596.62-.144-.791-.331-2.187-.512-2.944-.093-.23-.551.206-.694.299l-.013.011ZM7.039,20.488c-.286-.117-.321.23-.34.438-.108,1.139-.296,2.289-.259,3.436.026.506.402-.892.43-.977.208-.749.571-1.485.826-2.185.032-.143-.043-.266-.147-.362-.119-.113-.337-.281-.498-.346l-.011-.004ZM15.886,21.096c-.079-.105-.334-.129-.487-.134-.373-.011-.678.02-1.013.051-.471.053-.716.107-1.229.129-.292.008-.602.02-.885.053-.474.047-1.06.101-1.555.18-.353.05-.753.047-1.111.078-.205.013-.505.042-.496.284.008.272.238.551.389.795.613.881,1.244,1.771,1.82,2.686.369.565.802,1.114,1.207,1.653.176.221.427.556.709.538.277-.048.374-.378.479-.611.237-.628.478-1.329.738-1.944.371-.913.756-1.832,1.164-2.73.096-.22.195-.449.27-.673.045-.149.069-.256.006-.349l-.005-.007ZM18.943,24.748c-.556-.788-.982-1.581-1.567-2.346-.449-.642-.607.02-.787.427-.369.968-.773,1.937-1.301,2.84-.152.278-.329.58-.46.858-.16.336-.071.455.276.358.473-.101,1.117-.37,1.621-.541.345-.126.715-.18,1.046-.277.409-.121.906-.232,1.324-.387.456-.215.067-.593-.143-.919l-.009-.013ZM8.647,27.807c.733,0,1.481,0,2.218,0,.303-.015.564.041.721-.122.08-.135-.082-.33-.173-.463-.935-1.263-1.797-2.606-2.736-3.872-.307-.397-.673-.98-.932-.176-.258.568-.371,1.206-.558,1.788-.259.68-.498,1.371-.702,2.069-.2.585-.056.793.559.776.531,0,1.065,0,1.587,0h.016ZM16.469,27.863c-.011.07.052.034.005-.001h-.005ZM16.39,27.882c-.578.18-1.659.59-2.221.798-.168.067-.277.186-.287.375-.004.137-.026.46.163.458.052-.007.108-.04.159-.072.249-.17.703-.495,1.134-.798.279-.207.922-.629,1.053-.759h0ZM11.064,28.903c-.112-.001-1.428-.104-.812.093.51.144,1.79.492,2.364.649.367.116.431-.107.293-.433-.169-.339-.543-.301-.901-.301-.314.002-.624.004-.928-.008h-.016Z"/>
      <path class="cls-7" d="M15.891,21.103c.186.366-.199.94-.329,1.301-.322.712-.628,1.44-.927,2.162-.246.582-.472,1.177-.694,1.774-.176.493-.443,1.437-1.087.916-.175-.139-.374-.368-.513-.546-.457-.591-.903-1.198-1.308-1.828-.397-.617-.821-1.223-1.244-1.821-.197-.288-.423-.583-.579-.892-.071-.145-.165-.367-.147-.483.096-.454.995-.273,1.351-.335.734-.076,1.473-.184,2.211-.23.502-.031,1.01-.057,1.498-.12.44-.026,1.486-.276,1.768.102h0Z"/>
      <path class="cls-7" d="M7.09,25.268c.019-.471.187-.95.315-1.41.128-.348.286-1.044.659-1.086.303.004.497.435.677.66.877,1.183,1.693,2.421,2.562,3.61.091.13.247.337.289.48.118.392-.47.353-.744.354-.3.004-.598.002-.897.002-.596.003-1.218.023-1.683-.372-.601-.533-1.179-1.408-1.179-2.222v-.015Z"/>
      <path class="cls-7" d="M13.412,17.678c.45.213.773.645,1.111,1.005.178.234.848.891.43,1.055-.314.123-.608.069-.939.125-.205.027-.616.085-.82.113-.938.132-1.715.214-2.656.294-.229.014-.588.079-.806.013-.357-.132-.009-.624.115-.834.256-.398.487-.79.758-1.167.412-.619,1.004-.772,1.733-.766.357-.003.73.006,1.061.155l.014.006Z"/>
      <path class="cls-7" d="M18.074,25.935c-.361.247-.803.319-1.235.455-.663.149-2.798,1.36-1.869-.263.184-.344.453-.722.631-1.068.382-.729.669-1.502.976-2.261.078-.186.168-.435.3-.581.228-.268.519.061.668.277.321.431.595.876.875,1.325.589.869.522,1.468-.333,2.109l-.013.009Z"/>
      <path class="cls-3" d="M15.443,17.961c-.416-.242-.717-.686-1.036-1.049-.071-.097-.391-.424-.292-.451.866.327,2.923,1.367,3.742,1.727.442.173.12.422-.09.648-.48.476-.734.136-1.173-.213-.346-.27-.776-.443-1.137-.653l-.014-.008Z"/>
      <path class="cls-3" d="M7.504,19.603c-.168.002-.356-.121-.336-.305.042-.286.575-.526.818-.735.572-.44,1.444-1.156,2.026-1.525.105-.065.337-.207.252.037-.171.388-.411.832-.716,1.143-.27.271-.639.433-.957.668-.211.151-.412.321-.608.489-.135.116-.297.226-.467.227h-.012Z"/>
      <path class="cls-3" d="M17.986,19.987c.058-.188.284-.381.446-.409.104-.009.127.097.149.19.125.752.399,2.243.488,2.932-.004.165-.148-.043-.206-.115-.191-.263-.388-.556-.527-.855-.135-.296-.177-.554-.251-.888-.054-.273-.187-.565-.104-.841l.005-.014Z"/>
      <path class="cls-7" d="M7.22,20.583q.091.069.175.133c.196.153.331.28.287.497-.202.561-.45,1.118-.655,1.73-.07.198-.221.641-.265.158-.039-.417-.006-2.399.36-2.574l.098.057Z"/>
      <path class="cls-7" d="M9.478,18.37c.044.108-.094.263-.154.368-.249.36-.515.743-.766,1.065-.093.112-.184.216-.321.271-.218.082-.677-.238-.696-.324.008-.159.388-.462.647-.683.237-.176,1.046-.788,1.286-.701l.004.004Z"/>
      <path class="cls-3" d="M16.391,27.883c-.138.135-.77.549-1.053.759-.431.303-.885.628-1.134.798-.05.032-.107.066-.159.072-.189.002-.167-.322-.163-.458.01-.189.119-.308.287-.375.56-.207,1.645-.618,2.221-.798h0Z"/>
      <path class="cls-7" d="M15.483,17.998c.299-.129,1.604.739,1.674,1.081.072.191-.039.433-.251.44-.146.008-.268-.104-.398-.257-.106-.125-.259-.281-.382-.418-.17-.19-.643-.637-.715-.784l.071-.06Z"/>
      <path class="cls-3" d="M11.065,28.955c.299.07.615.173.938.186.306.027.659-.083.877.148.095.105.116.254.062.327-.057.08-.193.052-.293.029-.631-.179-1.865-.487-2.525-.7-.141-.069.11-.073.176-.075.237-.008.514.024.749.082l.015.004Z"/>
      <path class="cls-7" d="M17.898,20.034c.061.057.09.131.133.287.039.141.084.313.121.452.038.15.073.275.079.414-.002.062-.066.191-.127.191-.024,0-.222-.327-.333-.468-.1-.151-.204-.36-.208-.548-.001-.151.148-.313.254-.377l.08.049Z"/>
      <path class="cls-7" d="M11.125,28.973c.057-.049.194-.033.278-.039.349,0,.711-.005,1.064-.005.103.002.227.009.318.039.042.015.064.033.061.052-.157.242-1.542.158-1.723-.044v-.003Z"/>
      <path class="cls-4" d="M16.473,27.862c.047.035-.015.071-.005.001h.005Z"/>
    </g>
    <g>
      <g>
        <path class="cls-1" d="M30.43,25.057c-.326.382-.119,1.345-.096,1.828.061.395.009.907.158,1.248.168.399.566.288.794.008.353-.425.583-.997,1.004-1.356.473-.424,1.129.039.941.622-.082.472-.811,1.079-.681,1.537.267.462.942.813,1.461.634,1.112-.424,2.171-.997,3.144-1.7.622-.403.387-.752.56-1.303.494-.843,2.016,1.433,2.075,1.927.082.358-.228.706-.596.603-.394-.076-.57-.611-.989-.591-.359.071-.649.394-.936.615-.477.414-.853.81-1.29,1.317-.257.355-1.378,1.414-.659,1.736.476.137,1.144-.131,1.654-.038.651.079.742.744.134,1.037-.436.251-1.113.255-1.535.442-.472.237-.055.756.245.959.843.619,1.792,1.144,2.793,1.471.368.115.607-.114.877-.36.298-.278.688-.128.73.306.024.669-.216,1.408-.485,1.991-.13.282-.543.748-.797.334-.109-.178-.122-.481-.218-.68-.187-.427-.714-.436-1.124-.472-.738-.036-1.473-.126-2.21-.185-.725-.087-1.22,0-1.702.555-.224.229-.546.473-.51.807.062.421.618.975.689,1.457.144.607-.484.975-.956.579-.504-.339-.685-1.333-1.302-1.401-.296-.028-.607.099-.938.154-.307.056-.652.096-.854.36-.315.498-.49,1.159-.68,1.715-.124.421-.267,1.064.318,1.186.437.088,1.186.114,1.224.685-.061.883-2.44.48-2.951.266-.295-.101-.714-.449-.481-.772.167-.242.572-.237.656-.548.104-.594.106-1.389.172-2.107-.006-.311.131-.649-.083-.899-.173-.19-.545-.254-.777-.056-.324.323-.471.899-.723,1.292-.15.24-.344.405-.567.349-.539-.206-.349-.981-.187-1.422.078-.348.589-1.003.234-1.289-.628-.233-2.012.758-2.552,1.125-.153.108-.325.232-.372.416-.095.411.486,1.148-.148,1.383-.47.065-.716-.523-.937-.856-.236-.407-.516-.759-.706-1.187-.106-.226-.124-.606.216-.529.825.336.901.224,1.569-.322.531-.452,1.794-1.33,1.693-2.108-.038-.246-.257-.35-.497-.351-.546-.004-1.284.304-1.759.08-.377-.149-.545-.659-.212-.948.494-.502,1.676-.232,2.056-.747.287-.455-.012-1.056-.376-1.375-.334-.318-.795-.451-1.2-.658-.513-.217-1.47-.982-1.982-.796-.336.157-.558.875-1.001.563-.482-.502.219-1.744.5-2.256.248-.502,1.049-.935,1.099-.082-.092.755.348.74,1.013.951.608.181,1.162.225,1.775.274.541.036,1.452.257,1.744-.324.207-.466-.629-1.3-.767-1.792-.247-.545.223-1.066.765-.714.23.141.391.366.552.598.53.861.71,1.006,1.671.533.427-.166.521-.664.618-1.076.112-.478.255-.954.33-1.43.019-.456.306-1.284-.226-1.473-.243-.097-.556-.148-.767-.308-.279-.194-.25-.544.014-.716.256-.17.604-.175.906-.158.417.029.825.072,1.247.069.383.006.832-.031,1.169.164.377.206.303.73-.052.907-.285.176-.699.096-.915.298l-.008.008ZM32.384,31.716c-.276-.483-.94-1.076-1.531-1.073-.306.011-.494.295-.51.583-.041.494.292.997.753,1.183.466.225,1.583.026,1.293-.68l-.006-.013ZM26.87,33.851c.004.253-.626,1.24-.042.816.353-.319.877-.858.905-1.219.022-.286-.306-.29-.542-.214-.311.071-.038.015-.065.317l-.256.299ZM32.459,35.532c.068-.149-.306-.246-.433-.258-.705-.067-1.443.509-1.538,1.222-.084.579.371.725.826.474.072-.042.268-.148.22-.214-.065-.026-.132-.004-.216-.004-.564.073-.331-.52-.014-.791.197-.174.45-.27.71-.307.14-.027.356-.037.441-.118l.004-.005Z"/>
        <path class="cls-2" d="M32.39,31.729c.29.707-.827.905-1.293.68-.46-.186-.794-.689-.753-1.183.016-.287.203-.571.51-.583.59-.003,1.255.589,1.531,1.073l.006.013ZM32.091,31.696c-.131-.163-.445-.304-.667-.418-.178-.073-.393-.256-.579-.164-.109.077-.087.366.028.571.152.267.452.429.754.444.247.033.665-.134.471-.423l-.007-.009Z"/>
        <path class="cls-10" d="M32.455,35.537c-.086.081-.301.091-.441.118-.259.037-.512.133-.71.307-.214.185-.442.578-.271.739.116.092.311.041.442.044.197.007-.08.185-.161.225-.305.177-.783.191-.827-.247-.073-.805.767-1.525,1.539-1.449.128.012.5.111.433.258l-.004.005Z"/>
        <path class="cls-10" d="M26.722,33.68c-.075-.174.267-.506.477-.536.22-.066.514,0,.535.257.03.299-.342.712-.666,1.057-.098.103-.217.218-.336.28-.174.095-.255-.005-.215-.194.043-.206.211-.415.34-.588.088-.124.23-.305.174-.315-.05.008-.239.119-.306.044l-.003-.005Z"/>
        <path class="cls-1" d="M26.662,34.186c.016-.066.007-.17.035-.233.036-.053.217-.232.309-.328.111-.096.234-.138.211-.082-.038.079-.104.137-.162.21-.093.109-.217.255-.302.354-.061.071-.091.101-.091.082v-.004Z"/>
        <path class="cls-1" d="M32.097,31.705c.193.289-.224.455-.471.423-.303-.015-.602-.177-.754-.444-.115-.204-.136-.493-.028-.571.186-.092.401.091.579.164.222.114.536.255.667.418l.007.009Z"/>
      </g>
      <g>
        <path class="cls-1" d="M38.612,15.849c-.248-.232-.641-.151-.96-.205-.869-.091-1.768-.19-2.651-.142-1.284.128-.486.652.183,1.156.29.232.568.426.766.698.304.377.177.979-.368.961-.765.067-2.522-2.282-1.658-.122.374.935.959,1.753,1.463,2.614.124.203.264.462.511.491.288.03.573-.204.868-.204.262-.013.415.18.391.415-.12.656-.815,1.071-1.327,1.452-.293.217-.9.352-1.028-.083-.054-.226.061-.463.041-.712-.01-.168-.062-.315-.148-.465-.817-1.313-1.677-2.68-2.858-3.684-.346-.272-.94-.323-1.243-.039-.101.117-.11.284-.117.437-.012.493.014,1.312-.013,1.827-.083,1.009-1.183.869-1.211-.103-.099-.424.224-1.949-.208-2.086-.821.02-3.243,2.552-3.84,3.239-.984.969.3,1.245-.206,1.846-.563.433-1.722-.539-1.97-1.067-.291-.81.767-.336,1.241-1.196.519-.865,2.68-3.093,2.103-4.054-.775-1.042-1.118-.715-2.152-.317-.329.133-.811.282-1.079.045-.28-.235-.24-.638.074-.868.397-.322,1.057-.439,1.403-.804.152-.186.057-.468-.007-.693-.136-.594-.585-1.013-1.141-1.217-.772-.324-1.588-.491-2.39-.665-.267-.051-.575-.171-.838-.114-.36.074-.539.818-.945.38-.365-.364-.392-1.826.101-2.041.329-.054.613.452,1.002.468.512.061,1.022.199,1.538.259.682.038,1.38.039,2.075.095.223.007.448-.028.605-.191.249-.261.463-.748.154-1.041-.345-.39-1.405-.917-.991-1.559.777-.704,1.625,1.113,2.374.471.378-.49-.17-1.208-.342-1.705-.267-.582-.599-1.134-.899-1.697-.154-.382-.514-.56-.833-.754-.537-.508.459-1.005.859-1.295.343-.23.934-.579,1.298-.308.135.099.116.32.019.476-.231.397-.84.691-.533,1.209.444.714.902,1.43,1.385,2.119.325.423.685,1.03,1.297.953.325-.034.675-.058.927-.242.263-.207.258-.614.336-.943.048-.222.102-.452.193-.656.138-.402.667-.633.931-.208.399.618-.283,1.677.378,2.116.292.173.643.262.943.427.254.125.505.294.685.389.214.144.409.038.538-.163.335-.441,1.007-1.33,1.551-2.048.333-.477.596-.698.768-1.091.072-.267-.067-.664.228-.847.563-.292,1.639,1.058,1.721,1.475.081.264-.049.59-.356.6-.524-.029-.801-.335-1.171.23-.606.869-1.136,1.755-1.464,2.784-.136.393-.301.995.382.731.442-.153.937-.472,1.405-.372.397.079.525.566.264.861-.399.582-1.558.521-1.665,1.24-.096.533.066,1.142.584,1.383.632.375,1.334.609,2.045.747.773.157.979.289,1.771.037.246-.044.404.189.465.402.151.475.006,1.149-.282,1.643-.188.322-.518.437-.683.122-.139-.253-.097-.577-.282-.787l-.008-.008ZM28.13,10.125c.073-.148-.091-.231-.298-.215-.439.055-.824.645-.697,1.076.155.458.724.273,1.023.062.517-.321,1.27-1.213.215-.579-.173.087-.546.349-.67.207-.021-.045.001-.098.027-.139.082-.138.33-.286.395-.404l.004-.008ZM31.399,13.598c-.57.537.158,2.134.927,1.4.321-.388.049-1.081-.351-1.399-.168-.137-.409-.164-.566-.011l-.01.009ZM28.081,14.503c-.387-.563-.479.245-.109.504.112.092.313.091.351-.072.056-.181-.13-.304-.233-.421l-.009-.011Z"/>
        <path class="cls-5" d="M28.125,10.133c-.066.118-.313.266-.395.404-.026.041-.048.095-.027.139.124.142.496-.12.67-.207,1.054-.634.303.257-.215.579-.298.211-.868.396-1.023-.062-.127-.431.257-1.021.697-1.076.207-.016.371.068.298.215l-.004.008Z"/>
        <path class="cls-8" d="M31.408,13.589c.157-.153.398-.126.566.011.4.318.672,1.011.351,1.399-.769.734-1.497-.864-.927-1.4l.01-.009ZM31.506,14.105c-.049.187.069.457.202.612.119.16.376.205.438-.015.085-.262-.203-.75-.417-.929-.041-.036-.125-.092-.147-.033-.04.108-.046.237-.074.353l-.002.012Z"/>
        <path class="cls-10" d="M28.09,14.514c.103.117.29.24.233.421-.039.163-.239.164-.351.072-.37-.259-.278-1.066.109-.504l.009.011Z"/>
        <path class="cls-1" d="M31.509,14.092c.028-.116.033-.245.074-.353.022-.06.106-.004.147.033.214.179.501.667.417.929-.062.22-.319.175-.438.015-.133-.155-.251-.425-.202-.612l.002-.012Z"/>
      </g>
    </g>
  </g>
</svg>