<?xml version="1.0" encoding="UTF-8"?>
<svg id="Layer_1" data-name="Layer 1" xmlns="http://www.w3.org/2000/svg" viewBox="0 0 46.93 46.487">
  <defs>
    <style>
      .cls-1 {
        fill: #33727b;
      }

      .cls-2 {
        fill: #59b4e6;
      }

      .cls-3 {
        fill: #0a8162;
      }

      .cls-4 {
        fill: #138f77;
      }

      .cls-5 {
        fill: #56b3e6;
      }

      .cls-6 {
        fill: #dd6e79;
      }

      .cls-7 {
        fill: #0072b2;
      }

      .cls-8 {
        fill: #56b3e5;
      }

      .cls-9 {
        fill: #55b2e5;
      }

      .cls-10 {
        fill: #97e2cd;
      }

      .cls-11 {
        fill: #56b3e2;
      }

      .cls-12 {
        fill: #0a8868;
      }
    </style>
  </defs>
  <path class="cls-10" d="M46.93,0v46.487c-10.433-.002-21.357-.044-31.79-.046,2.036-1.003,4.263-1.586,6.42-2.288,4.462-1.451,8.577-3.92,12.389-6.629.206-.025.423.101.621.09.282-.016,1.032-.208,1.341-.288,1.12-.29,2.103-.775,2.795-1.71.909-1.23,1.173-2.027.951-3.59-.037-.261-.119-.559-.181-.817.081,0,.164.009.245-.011,3.608-.9,3.99-4.917,2.254-7.759-.226-.37-.555-.629-.848-.941-.025-.026-.13-.022-.071-.112.003-.004.068.008.092-.033.112-.181.513-.878.557-1.036.847-.19,1.955-.94.972-1.785l-.415-.212c.161-1.001.104-1.909-.465-2.752-.421-.624-1.081-.966-1.695-1.382-.058-.04-.138-.035-.115-.138.159-.073.348-.102.508-.212.585-.404.46-1.205-.048-1.618-.873-.71-2.509-.606-3.572-.538-.015,0-.031-.001-.046,0-.039-.887-.219-1.777-.527-2.608-.66-1.782-1.907-3.11-3.867-3.285-3.386-.302-6.728,1.268-8.094,4.4l-.748,2.03c-.103.061-.64-.236-.782-.289-.961-.356-1.919-.702-2.954-.761-1.634-.093-4.185,1.14-5.273,2.324-.239-.13-.125-.698-.087-.946.168-1.1.927-1.965,1.472-2.894.744-1.268,1.554-2.596,2.246-3.884.586-1.091,1.438-2.601.791-3.825-.14-.265-.422-.5-.726-.527-.968-.084-1.847,1.007-2.524,1.578-1.573,1.328-3.226,2.676-4.631,4.182-1.028,1.101-1.841,2.303-2.661,3.562-1.074,1.652-2.107,3.334-3.194,4.98-.949,1.438-2.699,3.261-4.092,4.268-.373.27-.775.525-1.176.752V0h46.93ZM23.761,5.126c-.34-.15-.533-.065-.845-.108-.104-.014-.158-.081-.232-.093-1.268-.201-1.699,1.648-1.237,2.537.4.77,1.697.968,2.333.459.64-.512,1.066-1.602.553-2.312-.08-.11-.46-.434-.571-.483ZM40.33,8.433c-.208-.257-.552-.648-.89-.712-.244-.046-.415.032-.639.039-.12.004-.227-.061-.366-.049-.554.05-1.112.755-1.187,1.278-.083.578.153,1.59.706,1.891.612.334,1.471.366,2.06-.032.882-.596.972-1.608.316-2.416Z"/>
  <path class="cls-2" d="M40.33,8.433c.655.808.566,1.82-.316,2.416-.589.397-1.447.365-2.06.032-.553-.301-.789-1.314-.706-1.891.075-.523.633-1.228,1.187-1.278.139-.013.246.052.366.049.224-.007.395-.086.639-.039.338.064.681.456.89.712ZM38.193,8.841c-.198.347-.139,1.131.235,1.332.577.31,1.501.102,1.555-.636.018-.245-.298-.78-.508-.875-.048-.022-.584-.073-.666-.068-.124.008-.557.144-.615.246Z"/>
  <path class="cls-2" d="M23.761,5.126c.112.049.491.372.571.483.513.71.087,1.8-.553,2.312-.636.509-1.932.311-2.333-.459-.462-.889-.031-2.739,1.237-2.537.074.012.128.079.232.093.312.043.505-.042.845.108ZM23.48,7.04c.695-.932-.148-1.422-1.07-1.186-.413.106-.48,1.394.14,1.48.43.06.673.051.93-.295Z"/>
  <path class="cls-10" d="M38.193,8.841c.058-.102.491-.238.615-.246.082-.005.617.046.666.068.211.095.526.63.508.875-.053.738-.978.946-1.555.636-.373-.201-.432-.985-.235-1.332Z"/>
  <path class="cls-10" d="M23.48,7.04c-.257.345-.5.355-.93.295-.619-.087-.552-1.375-.14-1.48.922-.236,1.765.254,1.07,1.186Z"/>
  <g>
    <g>
      <path class="cls-7" d="M36.827,12.678c.015-.001.031,0,.046,0l.099,1.665c.253.105.539.029.805.054.695.066,1.364.308,1.983.62.066.033.158.005.131.122-.662.274-1.607.532-2.312.73-1.292.363-2.616.595-3.911.942.187-.46.31-.903.229-1.414-.062-.394-.299-.534-.631-.648-.015-.005-.018-.065-.05-.073-.23-.055-.37.034-.559.081-.259.064-.538.164-.802.289-.302.143-.675.361-.836.65-.805.571-1.313,1.091-2.043,1.718-.233.2-.497.357-.743.557-.882.19-1.778.431-2.626.741-.081.029-.557.212-.578.235-.101.108.254.137.3.141.505.039,1.007-.072,1.511-.048l-.501.462c-1.769,1.291-3.647,2.484-5.588,3.504-.756.397-1.538.747-2.317,1.096l.604-1.219c.287-.328.513-.736.744-1.114.474-.778.967-1.611,1.385-2.396.57-1.07,1.533-2.552.747-3.827-.026-.042-.462-.48-.495-.49-.098-.029-.388-.021-.502-.01-.242.024-.679.205-.844.387-.27.298-.571.823-.854,1.156-1.768,2.084-3.457,3.781-5.477,5.609-.205-.733-.444-1.452-.552-2.211-.187-1.321-.207-2.464.326-3.703.116-.27.78-1.556,1.015-1.609.644.08,1.278.325,1.928.371,1.353.096,3.063.017,4.399-.197,2.309-.37,4.681-.967,6.985-1.282,1.074-.147,2.164-.137,3.244-.239,1.908-.18,3.829-.522,5.736-.65Z"/>
      <path class="cls-5" d="M14.582,14.489c1.088-1.184,3.639-2.417,5.273-2.324,1.035.059,1.993.405,2.954.761.142.053.679.35.782.289l.748-2.03c1.367-3.132,4.708-4.702,8.094-4.4,1.96.175,3.207,1.503,3.867,3.285.308.831.487,1.721.527,2.608-1.907.128-3.828.47-5.736.65-1.08.102-2.17.092-3.244.239-2.304.315-4.676.912-6.985,1.282-1.337.214-3.047.293-4.399.197-.65-.046-1.283-.291-1.928-.371.02-.041.029-.166.046-.186Z"/>
      <path class="cls-8" d="M41.704,21.177c-.007.043.01.103,0,.139-.043.159-.445.855-.557,1.036-.025.04-.09.029-.092.033-.059.09.046.086.071.112.293.312.622.57.848.941,1.736,2.842,1.354,6.86-2.254,7.759-.08.02-.163.011-.245.011.061.259.144.556.181.817.222,1.564-.042,2.36-.951,3.59-.692.936-1.674,1.42-2.795,1.71-.309.08-1.058.272-1.341.288-.198.011-.414-.115-.621-.09.91-.646,1.71-1.285,2.508-2.043.07-.067.166.004.244-.011.152-.029.363-.378.481-.495.665-.66,1.785-1.76.772-2.652-.159-.14-.265-.123-.382-.185-.325-.173-.292-.41-.534-.604-.209-.167-.575-.182-.673-.418,1.089-1.001,2.244-1.934,3.204-3.065.545-.059,1.762-.815,1.761-1.41,0-.285-.127-.647-.229-.912.265-.7.211-1.087-.232-1.672-.01-.013-.002-.064-.025-.092-.116-.144-.194-.146-.332-.202-.016-.006-.016-.068-.048-.076-.202-.05-.505.023-.693.11l-.76.539c-.287.15-.565.334-.836.511l-2.972-.232c.645-.772,1.249-1.58,1.926-2.325l.117-.043c1.007-.302,2.163-.365,3.159-.625.441-.115.839-.388,1.299-.443Z"/>
      <path class="cls-9" d="M39.985,15.047c-.023.103.056.099.115.138.615.416,1.274.758,1.695,1.382.569.843.627,1.752.465,2.752-.007.042-.044.079-.046.093-.027-.21-.329-.265-.501-.311-.589-.156-1.372-.263-1.984-.338-.199-.024-.4.05-.58-.093,0-.046.004-.094,0-.139l-.046-.186c-.114-.457-.608-.78-1.089-.694-.27.049-1.242.796-1.512,1.019l-3.994.093c.419-.614.873-1.241,1.161-1.951,1.295-.347,2.619-.579,3.911-.942.705-.198,1.65-.456,2.312-.73.028-.012.064-.08.093-.093Z"/>
      <path class="cls-6" d="M39.985,15.047c-.029.013-.065.081-.093.093.027-.117-.065-.089-.131-.122-.619-.312-1.288-.554-1.983-.62-.266-.025-.552.052-.805-.054l-.099-1.665c1.062-.067,2.699-.172,3.572.538.508.413.633,1.214.048,1.618-.16.11-.349.139-.508.212Z"/>
      <path class="cls-6" d="M42.261,19.319l.415.212c.983.845-.126,1.595-.972,1.785.01-.037-.007-.097,0-.139l.088-.085c.267-.529.324-1.109.423-1.68.002-.014.04-.051.046-.093Z"/>
      <path class="cls-7" d="M36.502,18.669c-.118.097-.299.325-.464.464-.461.388-.787.543-1.161,1.022-1.257.727-2.51,2.27-3.762,3.112-.377.062-1.942.467-2.09.767-.042.086.184.108.232.116.111.018.593.1.65.093.016.111-.061.096-.122.131-.909.519-1.796,1.278-2.791,1.623-.059.02-.14.028-.104-.058.034-.082.322-.318.398-.413.987-1.226,2.013-2.499,2.989-3.734.793-1.003,1.522-1.989,2.232-3.028l3.994-.093Z"/>
      <path class="cls-7" d="M42.214,19.412c-.099.571-.156,1.15-.423,1.68l-.088.085c-.46.055-.858.328-1.299.443-.997.26-2.153.323-3.159.625.121-.33.453-.576.647-.826.517-.663.867-1.239,1.121-2.065.013-.042.081-.034.088-.067.027-.121.049-.48.048-.618.18.143.381.069.58.093.611.075,1.395.182,1.984.338.173.046.475.101.501.311Z"/>
      <path class="cls-7" d="M38.174,24.846c-.584.381-1.067.844-1.616,1.251-1.23.911-2.587,1.907-3.911,2.696l-1.254.093,1.878-2.117c.726-.641,1.307-1.41,1.93-2.155l2.972.232Z"/>
      <path class="cls-7" d="M37.57,32.137c-.514-.048-1.047.128-1.494.376-.821.456-1.682.913-2.5,1.388-.049.024-.132-.047-.139-.046.002-.092.057-.13.117-.185.942-.857,1.876-1.697,2.809-2.555.099.236.465.251.673.418.242.193.209.43.534.604Z"/>
      <path class="cls-7" d="M39.567,28.05c.498-.587,1.265-1.615,1.533-2.322.101.265.229.627.229.912,0,.595-1.217,1.351-1.761,1.41Z"/>
      <path class="cls-7" d="M28.236,17.972c-.138.112-.263.25-.418.372-.049-.089-.157-.044-.229-.02-.453.151-.905.402-1.374.53l-.022.093.743.047c-.02.008-.049.055-.093.046-.504-.023-1.006.087-1.511.048-.046-.004-.4-.033-.3-.141.021-.023.498-.206.578-.235.848-.31,1.744-.551,2.626-.741Z"/>
      <path class="cls-7" d="M32.648,28.793c-.508.303-1.576.998-2.113,1.115-.025.006-.077.011-.07-.024l.856-.979.073-.02,1.254-.093Z"/>
      <path class="cls-12" d="M36.038,19.133c-.091.158-.273.342-.409.461-.233.204-.488.408-.752.561-.659.846-2.726,2.548-3.669,3.112l-.046.046h-.046v-.046c1.252-.842,2.504-2.384,3.762-3.112.374-.479.7-.634,1.161-1.022Z"/>
      <path class="cls-7" d="M31.115,23.267v.046c-.091.076-.248.237-.337.294-.064.041-.102.057-.174.078-.254.072-.592.121-.849.188-.037.01-.029.08-.066.089-.109.028-.426-.016-.432.188-.048-.008-.274-.03-.232-.116.148-.3,1.713-.705,2.09-.767Z"/>
      <path class="cls-7" d="M27.818,18.344c-.252.198-.589.534-.882.65l-.743-.047.022-.093c.469-.128.922-.379,1.374-.53.072-.024.18-.069.229.02Z"/>
      <path class="cls-7" d="M30.604,23.685c-.093.143-.554.54-.697.557-.057.007-.539-.075-.65-.093.006-.204.322-.159.432-.188.037-.01.029-.08.066-.089.257-.066.596-.115.849-.188Z"/>
      <path class="cls-4" d="M39.01,24.335l.76-.539c.188-.087.491-.159.693-.11.031.008.032.07.048.076.138.056.216.058.332.202.023.028.014.079.025.092-.641-.315-1.278-.025-1.858.279Z"/>
      <path class="cls-3" d="M31.858,15.047c-.144.099-.276.269-.407.37-.133.101-.294.185-.429.281-.122.218-1.307,1.248-1.616,1.483-.12.091-.279.2-.428.235.73-.627,1.238-1.147,2.043-1.718.161-.289.534-.507.836-.65Z"/>
      <path class="cls-7" d="M39.149,18.53c0-.01-.037-.148-.046-.186l.046.186Z"/>
      <path class="cls-7" d="M31.162,23.313l.046-.046c-.01.006-.021.043-.046.046Z"/>
    </g>
    <g>
      <path class="cls-6" d="M0,37.895c.477-.372,1.062-.626,1.561-.947.123-.08.316-.284.446-.369,1.862-1.216,3.858-2.228,4.953-4.296,1.023-1.931,1.476-3.775,2.933-5.509,1.979-2.357,4.691-4.231,6.805-6.452.995-1.046,1.973-2.164,2.897-3.268.223-.266.847-1.229,1.06-1.354.401-.236.856-.1.963.369.139.608-.373,1.928-.656,2.503-.683,1.388-1.444,2.769-2.295,4.058-.284.43-1.135,1.414-1.204,1.872-.018.118.004.244-.005.363.333.244.796.036,1.149-.101.806-.313,1.761-.848,2.529-1.269,3.078-1.687,5.926-3.841,8.733-6.034.708-.553,2.059-2,2.896-2.13.503-.078.552.065.533.533-.02.495-.368,1.13-.601,1.546-.639,1.141-1.681,2.407-2.485,3.449-1.259,1.63-2.54,3.236-3.839,4.835-.119.146-.585.583-.634.699-.048.116.007.321-.013.453.655.069,1.268-.233,1.851-.495.722-.324,1.15-.648,1.79-1.066,2.862-1.872,5.464-4.147,7.819-6.614.402-.151,1.059-.91,1.407-.303.233.407-.297,1.451-.519,1.844-.295.521-.724.927-1.106,1.377-1.282,1.512-2.559,3.059-3.884,4.534-1.096,1.22-2.161,2.429-3.226,3.672-.2.234-.674.51-.525.849.042.096.352.141.457.14.363-.004,1.899-.761,2.306-.971,2.227-1.153,4.256-2.934,6.321-4.361.462-.319.947-.732,1.5-.925.194-.068.428-.151.595.003.572.528-.435,1.883-.788,2.358-1.056,1.421-2.42,2.559-3.707,3.746-1.301,1.2-2.718,2.385-3.976,3.619-.107.105-.808.834-.826.892-.109.36.204.494.512.419.29-.07,1.145-.554,1.46-.723.895-.479,1.852-1.019,2.697-1.492.203-.114.391-.275.561-.368.235-.129.513-.184.764-.272.906.427.387,1.181-.08,1.734-.276.327-.507.415-.687.858-.032.077-.07.099.011.182-.798.758-1.598,1.397-2.508,2.043-3.812,2.708-7.927,5.177-12.389,6.629-2.157.702-4.383,1.285-6.42,2.288-5.046-.001-10.094,0-15.14,0v-8.545Z"/>
      <path d="M31.858,15.047c.263-.125.542-.225.802-.289.188-.047.329-.135.559-.081.031.007.035.068.05.073.332.114.568.254.631.648.081.511-.042.953-.229,1.414-.288.709-.742,1.337-1.161,1.951-.71,1.039-1.439,2.025-2.232,3.028-.976,1.235-2.001,2.508-2.989,3.734-.076.095-.364.332-.398.413-.036.086.046.078.104.058.996-.345,1.882-1.103,2.791-1.623.062-.035.138-.02.122-.131.142-.017.603-.415.697-.557.072-.021.11-.037.174-.078.089-.057.246-.218.337-.294h.046c.026-.004.036-.04.046-.046.943-.564,3.009-2.266,3.669-3.112.264-.152.518-.357.752-.561.136-.119.319-.303.409-.461.166-.139.346-.367.464-.464.27-.223,1.242-.97,1.512-1.019.48-.086.975.236,1.089.694.009.037.046.176.046.186.004.045,0,.093,0,.139.001.138-.02.497-.048.618-.007.033-.075.025-.088.067-.254.826-.604,1.401-1.121,2.065-.195.25-.527.496-.647.826l-.117.043c-.677.745-1.281,1.554-1.926,2.325-.623.745-1.204,1.514-1.93,2.155l-1.878,2.117-.073.02-.856.979c-.007.035.044.029.07.024.536-.118,1.605-.813,2.113-1.115,1.323-.789,2.681-1.785,3.911-2.696.548-.407,1.031-.87,1.616-1.251.271-.177.549-.361.836-.511.58-.304,1.216-.594,1.858-.279.444.585.497.972.232,1.672-.267.707-1.034,1.735-1.533,2.322-.96,1.131-2.115,2.064-3.204,3.065-.933.858-1.867,1.697-2.809,2.555-.06.055-.115.093-.117.185-.159.009-.547.359-.627.51.281-.109.513-.316.767-.463.817-.476,1.679-.932,2.5-1.388.447-.248.98-.425,1.494-.376.117.062.222.045.382.185,1.014.892-.107,1.992-.772,2.652-.118.117-.328.466-.481.495-.078.015-.174-.056-.244.011-.081-.084-.043-.105-.011-.182.181-.444.411-.532.687-.858.467-.553.986-1.307.08-1.734-.251.088-.529.143-.764.272-.171.094-.358.254-.561.368-.845.473-1.802,1.013-2.697,1.492-.315.169-1.17.652-1.46.723-.308.075-.621-.059-.512-.419.018-.058.718-.787.826-.892,1.257-1.234,2.675-2.419,3.976-3.619,1.287-1.187,2.651-2.324,3.707-3.746.353-.475,1.36-1.83.788-2.358-.167-.154-.401-.071-.595-.003-.553.193-1.039.606-1.5.925-2.065,1.426-4.094,3.208-6.321,4.361-.406.21-1.943.967-2.306.971-.105.001-.415-.044-.457-.14-.148-.339.325-.616.525-.849,1.065-1.243,2.13-2.452,3.226-3.672,1.325-1.474,2.601-3.022,3.884-4.534.382-.45.811-.855,1.106-1.377.222-.393.753-1.437.519-1.844-.348-.607-1.005.153-1.407.303-2.354,2.467-4.957,4.742-7.819,6.614-.639.418-1.068.742-1.79,1.066-.583.262-1.196.563-1.851.495.02-.132-.035-.337.013-.453.049-.117.515-.554.634-.699,1.299-1.599,2.58-3.205,3.839-4.835.805-1.041,1.847-2.308,2.485-3.449.233-.416.581-1.051.601-1.546.019-.468-.03-.611-.533-.533-.837.13-2.188,1.577-2.896,2.13-2.807,2.193-5.656,4.347-8.733,6.034-.768.421-1.723.956-2.529,1.269-.354.137-.816.345-1.149.101.01-.119-.013-.245.005-.363.069-.457.92-1.441,1.204-1.872.851-1.289,1.612-2.669,2.295-4.058.283-.575.795-1.895.656-2.503-.107-.469-.562-.604-.963-.369-.214.126-.837,1.088-1.06,1.354-.924,1.104-1.901,2.223-2.897,3.268-2.114,2.221-4.826,4.095-6.805,6.452-1.457,1.735-1.91,3.579-2.933,5.509-1.095,2.068-3.091,3.08-4.953,4.296-.13.085-.323.289-.446.369-.499.322-1.084.575-1.561.947v-.975l2.38-1.442c.918-.683,1.921-1.19,2.784-1.952,1.758-1.551,2.139-4.157,3.383-5.998s3.525-3.815,5.199-5.33c2.02-1.829,3.709-3.525,5.477-5.609.282-.333.584-.858.854-1.156.165-.182.602-.363.844-.387.113-.011.404-.019.502.01.033.01.469.448.495.49.786,1.275-.177,2.756-.747,3.827-.418.786-.912,1.618-1.385,2.396-.23.378-.457.786-.744,1.114l-.604,1.219c.778-.349,1.561-.699,2.317-1.096,1.941-1.021,3.819-2.214,5.588-3.504l.501-.462c.043.009.073-.038.093-.046.294-.116.63-.452.882-.65.155-.122.28-.259.418-.372.246-.2.51-.357.743-.557.149-.035.308-.144.428-.235.309-.235,1.494-1.265,1.616-1.483.135-.096.296-.179.429-.281.132-.1.263-.271.407-.37Z"/>
      <path class="cls-1" d="M33.437,33.855c.007,0,.09.07.139.046-.254.148-.486.354-.767.463.081-.151.469-.501.627-.51Z"/>
    </g>
    <g>
      <path class="cls-6" d="M14.582,14.489c-.018.019-.026.145-.046.186-.235.053-.899,1.339-1.015,1.609-.533,1.239-.513,2.382-.326,3.703.107.759.347,1.478.552,2.211-1.674,1.515-3.953,3.485-5.199,5.33s-1.626,4.447-3.383,5.998c-.863.762-1.866,1.269-2.784,1.952l-2.38,1.442v-15.186c.4-.227.803-.482,1.176-.752,1.392-1.006,3.142-2.83,4.092-4.268,1.087-1.646,2.119-3.328,3.194-4.98.819-1.26,1.633-2.461,2.661-3.562,1.405-1.506,3.058-2.854,4.631-4.182.677-.572,1.557-1.663,2.524-1.578.305.027.587.262.726.527.648,1.225-.205,2.734-.791,3.825-.692,1.288-1.503,2.616-2.246,3.884-.544.928-1.303,1.793-1.472,2.894-.038.248-.152.816.087.946ZM9.367,20.727c-.622-.461-1.601.064-1.815.733-.388,1.214.34,2.679,1.713,2.692,1.35.013,2.14-2.068.986-2.897-.311-.223-.557-.287-.884-.529Z"/>
      <g>
        <path class="cls-11" d="M9.367,20.727c.327.242.573.306.884.529,1.155.829.364,2.91-.986,2.897-1.373-.013-2.102-1.478-1.713-2.692.214-.67,1.193-1.195,1.815-.733ZM9.645,23.113c.172-.157.33-.665.242-.886-.208-.524-1.078-.556-1.522-.347-.111.66.273,1.446,1.036,1.337.064-.009.197-.062.244-.104Z"/>
        <path class="cls-6" d="M9.645,23.113c-.047.043-.18.095-.244.104-.763.108-1.147-.677-1.036-1.337.444-.21,1.314-.177,1.522.347.088.221-.07.73-.242.886Z"/>
      </g>
    </g>
  </g>
</svg>