<?xml version="1.0" encoding="UTF-8"?>
<svg id="Layer_1" data-name="Layer 1" xmlns="http://www.w3.org/2000/svg" viewBox="0 0 46.188 46.188">
  <defs>
    <style>
      .cls-1 {
        fill: #c76f45;
      }

      .cls-2 {
        fill: #a37;
      }

      .cls-3 {
        fill: #fefefe;
      }

      .cls-4 {
        fill: #eed6e4;
      }

      .cls-5 {
        fill: #fcc7ad;
      }

      .cls-6 {
        fill: #3b1719;
      }
    </style>
  </defs>
  <path class="cls-4" d="M.046,0h46.142v46.142H.046s0-46.142,0-46.142ZM33.453,5.029c-.068-.207-.022-.239-.252-.371-.859-.492-2.874-.1-3.878-.045-.13.007-.523.045-.568-.077-.097-.263-.199-1.372-.7-1.145-.135.061-.502,1.047-.63,1.264-.033.056-.054.131-.12.158l-3.45.584c-.041-.175.044-.372.041-.526-.006-.344-.095-1.196-.191-1.516-.088-.292-.299-.287-.394-.002l-.575,1.963-.08.105-1.129.117c-.944.271-1.843.567-2.501,1.332-.074.013-.411-.381-.502-.457-.124-.103-.611-.501-.755-.41-.186.687.117,1.421.173,2.099.041.496-.142.864-.178,1.333-.052.674.033,1.386.232,2.027l-.206.073c-1.076-2.11-1.51-4.467-1.526-6.83-.057.096-.144.292-.159.395-.19,1.326.161,3.362.565,4.644.213.676.511,1.32.809,1.96l-.2.244c-.738-.893-1.308-1.946-1.808-2.99-.409-.852-.867-1.864-1.099-2.777-.054-.213-.065-.524-.124-.706-.02-.063-.063-.091-.129-.078.002.099-.008.2,0,.299.123,1.531,1.407,4.317,2.268,5.622.195.296.437.57.638.86-.312.187-.615.391-.938.563-.838.447-1.837.799-2.746,1.084-.124.039-.576.07-.603.182l.039.129c.04.052.191.032.258.029.382-.019,1.313-.393,1.714-.547.807-.311,1.591-.668,2.299-1.161.039.11-.034.209-.022.34.033.357.385.924.778.955.105.121-.457,1.862-.574,2.117-.911.551-1.987.937-2.879,1.505-.205.131-.697.353-.441.619l3.16-1.661-.639,2.108.067.101.156.005.888-2.48c.715-.424,2.395-1.119,2.607-1.984.157-.64.065-1.259.014-1.901.869-.2,1.805-.391,2.575-.862.235-.144.432-.384.698-.478-.005.08.039.158.046.231.135,1.295.413,2.657.656,3.935.322,1.689.624,3.405,1.321,5.001.195.447.833,1.694,1.175,1.985.047.04.105.07.17.061.149-.163-.514-1.064-.616-1.252-1.301-2.391-1.893-6.216-2.333-8.926-.064-.391-.083-.824-.142-1.219.538.387,1.033-.047,1.522-.092.028-.003.065-.004.092,0,.026.004.065-.014.085.006.201.617.869,1.883,1.576,1.978.014.002.032.001.046,0,.24.153.235.356.369.577.215.356.753.647,1.154.715l.092.046c.38.157.521.458.992.416.177-.016.337-.134.531-.093.021.004.086.093.116.091.031-.002.06-.088.069-.091.102-.041.272.085.392.095.193.016.613-.086.788.04.105.076.447.65.574.81,1.923,2.402,4.588,5.349,7.53,6.451.331.124.864.316,1.19.147.032-.151-.728-.326-.862-.383-3.051-1.292-5.531-3.795-7.533-6.366-.074-.095-.383-.505-.417-.588-.033-.079.022-.062.068-.068.333-.044.854-.007,1.016-.369.259-.579-.219-.994-.614-1.336-.685-.593-1.512-1.107-2.201-1.71-.405-.782-.556-1.695-.946-2.491l1.526-.073c.253.28.478.616.738.912,1.419,1.614,3.079,2.678,5.106,3.395,1.289.456,2.7.769,4.073.703v-.137c-1.923-.237-3.829-.714-5.577-1.553-1.409-.676-2.628-1.683-3.629-2.877-.045-.054-.391-.47-.345-.508.677-.036,1.382-.185,2.028-.394.831-.27,1.983-.587,1.696-1.693-.175-.674-.805-.884-1.431-.958-.021-.012-.073-.114-.079-.139-.007-.027.008-.068,0-.092ZM17.488,26.024c.299-.025.491-.193.68-.223.122-.019.483.292.56.391.309.401.397,1.204.706,1.647.218.313,1.485,1.04,1.883,1.255.448.242.931.479,1.431.576.022-.104-.049-.104-.113-.14-.857-.483-2.536-1.19-2.972-2.103-.031-.064-.173-.395-.144-.433l.53.369c.044-.003.027-.077.015-.107-.104-.252-.617-.622-.797-.865-.103-.14-.457-.795-.484-.946-.006-.034-.024-.109.02-.112.215.26.395.474.69.648.073.043.183.042.237.086.089.073.153.522.295.674.108.115.296.135.402.221.252.203.532.825.889.888.142.025.335.042.305-.165-.403-.202-.665-.594-.988-.908-.008-.127.07-.241.08-.365.023-.274-.118-.638.249-.659.134.26,1.771,1.154,1.878,1.056.018-.087-.043-.111-.096-.158-.225-.196-1.642-.939-1.646-1.11.14-.264.294-.602.337-.898.031-.218-.009-.453.042-.65.019-.073.411-.559.147-.453-.098.04-.134.191-.261.177.038-.121-.074-.23-.086-.311-.019-.13.275-.444.27-.611-.086-.088-.335.37-.392.368-.409-.845-1.505-1.223-2.237-.553.066-.498-.678-.894-1.068-1.078-.853-.404-1.287-.214-2.073-.372-.594-.119-1.621-.655-2.269-.869-.66-.218-1.344-.371-2.009-.575-1.668-.513-4.41-1.528-6.119-1.345-.569.061-1.027.473-.76,1.072.031.069.986,1.058,1.055,1.091-.086.09-.002.105.06.148.315.216.665.457,1.001.637.081.125.047.076-.055.105-.955.277-2.321.244-3.234.596-.369.142-.747.538-.767.944-.056,1.14,1.814,1.597,2.672,1.747.181.263.261.575.463.829.325.409.842.634,1.358.672.818.06,1.725.01,2.517-.186l-.545,1.693c-.671,1.477-2.36,1.883-3.549,2.818-.055.044-.126.053-.105.149.168.01.325-.037.478-.098.332-.133,1.156-.653,1.484-.869.419-.276,1.809-1.391,2.006-1.777.106-.208.269-.668.344-.902.112-.347.198-.7.256-1.06.379.236.913.367,1.359.372.853.009,1.428-.222,2.182-.314.361-.044.383.046.613.287.588.617,1.138,1.257,1.682,1.917.815.987,1.438,1.995,2.173,3.041.043.062.492.69.572.604-.176-.398-.473-.744-.711-1.111-.503-.776-.917-1.488-1.341-2.304-.318-.613-1.067-1.321-1.549-1.82-.202-.209-.37-.459-.598-.648-.01-.124.023-.042.081-.035.234.025.414.053.657.059v.046c.005.057.069.045.112.048.537.042,1.552.051,2.083,0,.043-.004.107.009.112-.048v-.046ZM31.976,27.177c-.034.118.002.38-.092.485-.049.055-.257.11-.341.168-.105.073-.427.429-.539.342-.157-.514-.459-.974-.652-1.47-.295-.757-.339-1.273-.216-2.08.089-.583.427-1.548,1.055-1.691v-.137c-.479-.107-.864.599-1.037.969-.257.551-.497,1.912-.433,2.508.048.446.246.91.448,1.306.101.198.506.76.54.888.028.106-.258.323-.349.395-.663-.162-1.479-.143-2.106-.382-.81-.308-1.463-.839-1.997-1.51-.116-.146-.633-.972-.717-.99-.2-.043-.077.284-.014.384.364.581,1.197,1.638,1.749,2.035.833.6,1.708.782,2.719.857l-1.036,1.248c-.386.071-.803.047-1.202.09-1.298.14-2.339.361-3.691.23-.492-.048-1.139-.281-1.674-.356-.111-.016-.604-.072-.367.16.171.167,1.016.241,1.289.302.827.185,1.837.439,2.692.449.478.005,1.081-.142,1.567-.185.287-.026.608-.017.899-.046l-.6.948c-.728-.109-1.685.279-2.224.762-.331.297-1.012,1.372-1.123,1.794-.142.536-.527,2.33-.477,2.8.027.255.24.152.261.034.011-.059-.045-.21-.039-.318.078-1.35.721-2.795,1.618-3.783.324-.357,1.204-.824,1.685-.854.158-.01,0,.22-.021.303-.165.657-.262,1.455.043,2.074.652,1.322,2.023,2.319,3.532,2.286.814-.018,1.479-.112,2.108-.65.522-.447.811-1.134.959-1.798.09-.015.131.061.183.117,1.152,1.256.914,3.428.338,4.903-.135.345-.42.626-.475.978.175.178.511-.551.561-.661.66-1.443,1.33-3.271.507-4.769-.254-.463-.565-.824-.999-1.123l.023-1.014c.034-.039.307.18.357.217.261.193.495.439.755.633,1.084.808,2.068,1.183,3.326,1.611.254.087.897.492,1.147.332.117-.074.002-.13-.062-.172-.509-.338-1.343-.482-1.887-.743-.407-.195-1.157-.676-1.556-.936-.431-.282-.911-.829-1.332-1.17-.125-.102-.763-.511-.786-.588l-.147-1.583c.059-.043,1.138.462,1.372.496.863.124,1.543.009,2.355-.253.217-.07,1.55-.541,1.579-.682-.144-.29-.703.121-.945.209-.998.362-1.969.543-3.023.253-.153-.042-1.328-.555-1.362-.622l-.141-.785c.915-.428,1.667-.918,2.111-1.86.339-.718.697-1.747.587-2.543-.027-.194-.221-.645-.456-.419.443.525.231,1.433-.014,2.017-.272.647-.584,1.109-1.144,1.532-.397.3-.847.545-1.27.807-.089.024-.103-.216-.148-.304-.069-.131-.171-.251-.239-.384h-.046c-.14-.3.008-.439.046-.738.129-.045.202-.064.184-.23-.079-.034-.122.041-.138.046-.114-.206-.103-.401-.316-.548-.428-.295-.69-.247-.997.158-.034.045-.107.043-.071.159-.037.017-.081.053-.092.092Z"/>
  <polygon class="cls-3" points=".046 0 .046 46.142 46.188 46.142 46.188 46.188 0 46.188 0 0 .046 0"/>
  <path class="cls-2" d="M5.675,20.533c-.068-.033-1.024-1.022-1.055-1.091-.267-.599.192-1.011.76-1.072,1.708-.184,4.451.832,6.119,1.345.665.204,1.349.357,2.009.575.648.214,1.674.75,2.269.869.786.158,1.22-.032,2.073.372.39.185,1.133.58,1.068,1.078.732-.67,1.828-.293,2.237.553.057.002.306-.456.392-.368.005.167-.29.481-.27.611.012.082.124.19.086.311.126.013.162-.138.261-.177.264-.106-.128.38-.147.453-.052.196-.011.431-.042.65-.043.296-.197.634-.337.898.005.171,1.421.914,1.646,1.11.053.046.114.071.096.158-.107.098-1.744-.796-1.878-1.056-.367.021-.226.386-.249.659-.01.124-.088.238-.08.365.323.314.584.706.988.908.03.208-.163.19-.305.165-.357-.063-.637-.685-.889-.888-.106-.086-.295-.106-.402-.221-.142-.152-.206-.601-.295-.674-.054-.044-.164-.043-.237-.086-.295-.174-.475-.388-.69-.648-.043.003-.026.077-.02.112.027.152.381.807.484.946.18.243.693.612.797.865.012.03.029.104-.015.107l-.53-.369c-.029.037.113.368.144.433.437.913,2.115,1.62,2.972,2.103.064.036.135.037.113.14-.5-.097-.983-.334-1.431-.576-.398-.215-1.665-.942-1.883-1.255-.309-.443-.397-1.246-.706-1.647-.076-.099-.437-.41-.56-.391-.189.03-.38.198-.68.223-.683.058-1.606.018-2.307,0-.242-.006-.423-.034-.657-.059-.058-.006-.092-.088-.081.035.228.189.396.439.598.648.482.499,1.231,1.207,1.549,1.82.424.817.838,1.528,1.341,2.304.238.367.535.713.711,1.111-.08.086-.529-.542-.572-.604-.735-1.045-1.359-2.054-2.173-3.041-.544-.66-1.095-1.299-1.682-1.917-.229-.241-.252-.331-.613-.287-.754.092-1.329.323-2.182.314-.446-.005-.98-.136-1.359-.372-.058.36-.144.713-.256,1.06-.075.233-.238.694-.344.902-.197.386-1.587,1.501-2.006,1.777-.328.216-1.152.736-1.484.869-.153.062-.31.108-.478.098-.021-.096.049-.105.105-.149,1.189-.935,2.878-1.341,3.549-2.818l.545-1.693c-.792.196-1.699.246-2.517.186-.517-.038-1.033-.263-1.358-.672-.202-.254-.282-.566-.463-.829-.858-.15-2.728-.607-2.672-1.747.02-.406.398-.801.767-.944.913-.353,2.279-.32,3.234-.596.102-.03.137.02.055-.105.841.451,1.99.982,2.876,1.346,1.132.465,2.226.604,3.417.233.682.744,1.557,1.295,2.151,2.112-.686.021-1.369.137-2.054.185-1.975.138-4.121.22-6.078-.104-.482-.08-.948-.236-1.42-.356-.019.087.044.111.096.157.72.638,4.172.654,5.185.625,1.284-.037,2.599-.072,3.877-.229.224-.027.707-.041.605-.37-.587-.811-1.398-1.421-2.104-2.121.617-.243,1.737-.832,2.076-1.409.033-.056.061-.093-.023-.114-.163-.04-.399.246-.534.342-1.644,1.161-3.099,1.648-5.056.866-1.38-.552-2.749-1.294-4.076-1.946ZM19.692,22.621c-1.218.153-1.117,2.154-.521,2.896.517.644,1.131.027,1.351-.543.194-.502.203-1.374-.072-1.844-.045-.077-.343-.435-.408-.469-.132-.069-.21-.058-.351-.04ZM18.826,22.702c-.078-.015-.121.04-.16.094-.237.331-.425,2.323-.046,2.489.071.031.115.024.116-.069.002-.186-.119-.477-.134-.697-.041-.598.14-1.228.224-1.817ZM20.579,25.886c-.089-.016-.139.068-.217.083-.133.025-.358-.052-.383.124.046.192.652.039.599-.207Z"/>
  <path class="cls-2" d="M33.453,5.122c.006.025.058.127.079.139.626.074,1.256.284,1.431.958.287,1.106-.865,1.423-1.696,1.693-.646.21-1.351.358-2.028.394-.045.038.3.454.345.508,1.002,1.194,2.221,2.201,3.629,2.877,1.748.839,3.654,1.316,5.576,1.553v.137c-1.373.066-2.784-.247-4.073-.703-2.027-.717-3.687-1.781-5.106-3.395-.26-.296-.485-.632-.738-.912l-1.526.073c.39.796.541,1.709.946,2.491.69.602,1.516,1.117,2.201,1.71.395.342.872.757.614,1.336-.162.362-.683.325-1.016.369-.047.006-.101-.011-.068.068.034.082.343.493.417.588,2.002,2.571,4.482,5.074,7.533,6.366.134.057.894.231.862.383-.326.169-.859-.023-1.19-.147-2.942-1.102-5.606-4.049-7.53-6.451-.128-.16-.469-.734-.574-.81-.175-.126-.595-.023-.788-.04-.12-.01-.29-.136-.392-.095l.877-1.43c.122-.115.272-.266.344-.417.027-.057.071-.156-.045-.137-.127.021-.43.428-.484.554-.17.129-.757,1.001-.879,1.222-.048.088-.061.121.002.208-.194-.041-.354.077-.531.093-.471.042-.612-.259-.992-.416.264.049.152-.088.235-.249.212-.411.482-.793.68-1.212l.607-.938-.138-.025-.568.682c-.222.41-.511.794-.733,1.202-.081.149-.186.32-.176.494-.4-.068-.939-.359-1.154-.715-.133-.221-.129-.424-.369-.577.244-.018.216-.204.332-.383.347-.536.737-1.088,1.147-1.578.014-.017.433-.348.159-.301-.219.038-.986,1.022-1.149,1.251-.161.227-.4.577-.519.821-.035.072-.091.101-.016.19-.707-.096-1.375-1.361-1.576-1.978-.02-.02-.06-.002-.085-.006-.042-.149.108-.22.138-.277-.042.179.119.205.227.114.593-.553,1.199-1.1,1.803-1.637.075.074.11.187.231.185l1.984,1.476c-.176-.535-.335-1.078-.508-1.615-.054-.168-.122-.266-.172-.406-.021-.06,0-.17-.017-.191s-.111.009-.134-.003c-.151-.077-.252-.276-.484-.279-.201-.002-.327.176-.464.185-.129.009-.359-.08-.506-.081-.472-.005-1.036.114-1.52.131-.799.028-1.599-.018-2.396-.046-.02-.006-.075-.152-.075-.164v-1.223c-.15-.009-.192-.029-.219.125-.065.38-.087.826-.104,1.213-.369.056-1.72-.285-1.858-.613-.082-.193.098-.442.22-.587.488-.58,1.372-.559,2.063-.705,2.009-.425,3.81-.749,5.874-.909,1.226-.095,2.575-.204,3.784-.093.075.007.206.028.253-.046Z"/>
  <path class="cls-2" d="M33.407,28.239c.068.133.17.253.239.384.046.087.06.328.148.304.423-.262.873-.507,1.27-.807.56-.424.873-.885,1.144-1.532.245-.584.457-1.492.014-2.017.235-.226.429.226.456.419.111.795-.248,1.825-.587,2.543-.444.941-1.197,1.432-2.111,1.86l.141.785c.033.067,1.208.58,1.362.622,1.054.29,2.025.109,3.023-.253.242-.088.801-.499.945-.209-.029.142-1.362.612-1.579.682-.812.263-1.492.377-2.355.253-.234-.034-1.313-.539-1.372-.496l.147,1.583c.023.077.66.486.786.588.421.342.901.889,1.332,1.17.398.26,1.148.741,1.556.936.544.261,1.379.404,1.887.743.064.042.178.098.062.172-.25.159-.893-.246-1.147-.332-1.258-.428-2.242-.803-3.326-1.611-.26-.194-.493-.439-.755-.633-.049-.037-.323-.256-.357-.217l-.023,1.014c.434.299.745.661.999,1.123.823,1.498.153,3.326-.507,4.769-.05.11-.386.839-.561.661.054-.352.34-.633.475-.978.576-1.475.814-3.647-.338-4.903-.052-.056-.092-.132-.183-.117-.148.663-.437,1.351-.959,1.798-.629.538-1.294.632-2.108.65-1.509.033-2.88-.963-3.532-2.286-.305-.619-.208-1.417-.043-2.074.021-.083.179-.313.021-.303-.481.03-1.361.497-1.685.854-.897.988-1.541,2.434-1.618,3.783-.006.109.05.26.039.318-.021.118-.234.22-.261-.034-.05-.471.335-2.264.477-2.8.112-.422.793-1.497,1.123-1.794.538-.483,1.496-.871,2.224-.762l.6-.948c-.292.029-.612.02-.899.046-.486.044-1.089.191-1.567.185-.856-.01-1.865-.264-2.692-.449-.273-.061-1.118-.135-1.289-.302-.237-.232.256-.176.367-.16.535.075,1.182.308,1.674.356,1.352.131,2.393-.09,3.691-.23.399-.043.816-.019,1.202-.09l1.036-1.248c-1.012-.075-1.886-.257-2.719-.857-.551-.397-1.384-1.454-1.749-2.035-.063-.1-.185-.427.014-.384.085.018.601.844.717.99.534.671,1.187,1.202,1.997,1.51.628.239,1.444.22,2.106.382.091-.072.378-.289.349-.395-.034-.127-.439-.69-.54-.888-.202-.396-.4-.859-.448-1.306-.064-.597.176-1.957.433-2.508.173-.371.558-1.076,1.038-.969v.137c-.629.143-.967,1.108-1.056,1.691-.123.807-.079,1.323.216,2.08.193.496.495.956.652,1.47.111.087.434-.269.539-.342.085-.059.292-.113.341-.168.093-.104.058-.366.092-.485.03.199.319.164.475.129.109-.024.153-.133.263-.129.024.304.436.412.693.323-.039.3-.186.438-.046.738-.355-.312-.925-.492-1.396-.404-.158.029-.229.149-.297.166-.097.023-.229-.059-.38.081-.736.982-1.613,2.094-1.479,3.411.193,1.9,2.491,2.24,3.414.647.695-1.2.649-2.623.184-3.899Z"/>
  <path class="cls-2" d="M23.44,10.843c-.267.094-.464.335-.698.478-.77.471-1.706.662-2.575.862.051.642.143,1.261-.014,1.901-.212.865-1.892,1.56-2.607,1.984l-.888,2.48-.156-.005-.067-.101.639-2.108-3.16,1.661c-.256-.266.236-.489.441-.619.891-.568,1.968-.954,2.879-1.505.117-.255.679-1.996.574-2.117-.394-.031-.745-.598-.778-.955-.012-.131.061-.23.022-.34-.709.493-1.493.851-2.299,1.161-.401.154-1.332.528-1.714.547-.067.003-.218.023-.258-.029l-.039-.129c.027-.111.48-.143.603-.182.909-.285,1.908-.637,2.746-1.084.323-.172.626-.376.938-.563-.202-.29-.443-.565-.638-.86-.861-1.305-2.146-4.091-2.268-5.622-.008-.099.002-.2,0-.299.066-.013.108.015.129.078.059.182.07.493.124.706.232.912.691,1.924,1.099,2.777.5,1.044,1.07,2.097,1.808,2.99l.2-.244c-.298-.641-.597-1.284-.809-1.96-.403-1.282-.755-3.318-.565-4.644.015-.103.102-.299.159-.395.015,2.363.449,4.72,1.526,6.83l.206-.073c-.199-.641-.284-1.353-.232-2.027.036-.469.219-.837.178-1.333-.056-.679-.359-1.412-.173-2.099.144-.091.63.307.755.41.091.076.428.47.502.457.657-.766,1.557-1.061,2.501-1.332l1.129-.117.08-.105.575-1.963c.095-.286.306-.291.394.002.096.32.185,1.172.191,1.516.003.154-.083.351-.041.526l3.45-.584c.066-.027.087-.103.12-.158.128-.218.495-1.203.63-1.264.501-.227.603.882.7,1.145.045.123.438.085.568.077,1.004-.055,3.018-.447,3.878.045.23.132.184.163.252.371-.282-.134-.634-.24-.948-.233-3.303.074-6.377.442-9.572,1.226-.738.181-1.36.112-1.838.838-.746,1.13,1.249,1.441,1.977,1.539-.078.286-.158.576-.217.867-.077.381-.37,1.58-.341,1.878.018.185.141.235.186.043.171-.739.264-1.503.432-2.244l.17-.545.139,2.445ZM28.516,4.706c.034-.031-.184-.797-.242-.889-.036-.057-.041-.098-.127-.08l-.462,1.061.831-.092ZM23.523,5.528l.057-.939-.14-.713-.501,1.592c.155.187.384.097.584.06ZM18.271,8.029c.006-.006.023-.104.054-.152.081-.125.47-.698.448-.784-.042-.162-.624-.561-.778-.679-.046.063.143,1.373.185,1.546.013.054.012.147.091.069ZM21.917,11.627c.073-.073-.603-1.484-.681-1.695-.12-.324-.362-1.433-.585-1.584-.044-.03-.078-.059-.135-.04-.092.027-.135.265-.155.356-.11.509-.173,1.349-.197,1.88-.009.193-.025,1.399.046,1.453l.138-.115c.053-1.088.041-2.178.232-3.252.062.025.104.2.125.267.255.834.404,1.612.821,2.408.085.162.175.367.391.323ZM19.149,12.735c-.022.294-.223.719-.464.897-.099.073-.252.104-.337.171-.231.181-.479,1.474-.63,1.816l1.492-.862c.935-.518.741-1.579.678-2.483l-.738.093c-.034-.246-.366-.712-.574-.833-.11-.064-.307-.081-.304.072,0,.049.558.518.657.729.063.134.03.389.222.401Z"/>
  <path class="cls-2" d="M27.131,8.398l.231.231c-.173.158-.349.311-.507.485l-1.339,1.084c.319-.531.639-.943,1.185-1.283.075-.047.576-.222.221-.286-.253-.046-.667.266-.855.437-.253.229-.725.899-.808,1.223-.024.092-.026.185-.02.279-.489.045-.984.479-1.522.092.059.395.078.828.142,1.219.44,2.71,1.032,6.535,2.333,8.926.102.188.766,1.089.616,1.252-.064.008-.123-.021-.17-.061-.343-.291-.98-1.538-1.175-1.985-.697-1.595-.999-3.312-1.321-5.001-.244-1.278-.521-2.64-.656-3.935.162.006.127.028.138-.113.03-.37-.071-.744-.092-1.11-.027-.481-.016-.972-.047-1.453.212-.032.414.042.621.049,1.001.031,2.028-.002,3.024-.048ZM24.797,9.578c-.041-.046-.256-.331-.295-.304l-.672,1.108c.437.328.967.018,1.389-.184.052-.048,0-.08-.022-.12-.099-.179-.265-.348-.399-.501Z"/>
  <path d="M33.453,5.029c.008.024-.007.065,0,.092-.046.074-.178.053-.253.046-1.209-.112-2.558-.002-3.784.093-2.064.16-3.865.484-5.874.909-.692.146-1.575.125-2.063.705-.122.145-.301.395-.22.587.139.328,1.49.67,1.858.613.018-.387.039-.833.104-1.213.027-.155.068-.134.219-.125v1.223c0,.012.055.159.075.164.797.028,1.597.074,2.396.046.484-.017,1.048-.136,1.52-.131.146.002.377.09.506.081.137-.009.263-.187.464-.185.231.002.333.201.484.279l.023.184c-.472-.4-.568-.315-1.009.009-.138.101-.274.25-.399.361-.604.536-1.21,1.084-1.803,1.637-.108.091-.269.065-.227-.114.016-.03.029-.063.046-.092l1.339-1.084c.158-.174.334-.327.507-.485.094-.086.217-.156.277-.276-.131.006-.265-.01-.396-.002-.059.004-.106.048-.112.048-.996.046-2.023.08-3.024.048-.207-.006-.409-.08-.621-.049.031.482.02.972.047,1.453.021.367.122.74.092,1.11-.011.141.023.119-.138.113-.008-.073-.052-.151-.046-.231l-.139-2.445-.17.545c-.168.741-.261,1.505-.432,2.244-.044.192-.167.142-.186-.043-.029-.298.263-1.497.341-1.878.059-.291.138-.581.217-.867-.728-.098-2.722-.408-1.977-1.539.479-.726,1.101-.657,1.838-.838,3.195-.784,6.269-1.152,9.572-1.226.313-.007.666.1.948.233Z"/>
  <path d="M5.675,20.533c1.326.651,2.696,1.394,4.076,1.946,1.958.783,3.412.296,5.056-.866.135-.095.371-.382.534-.342.084.021.056.058.023.114-.338.577-1.459,1.166-2.076,1.409.707.7,1.517,1.31,2.104,2.121.102.329-.381.342-.605.37-1.278.157-2.593.192-3.877.229-1.013.029-4.465.013-5.185-.625-.052-.046-.114-.07-.096-.157.472.12.937.276,1.42.356,1.957.324,4.103.242,6.078.104.685-.048,1.368-.163,2.054-.185-.594-.816-1.469-1.368-2.151-2.112-1.19.371-2.285.232-3.417-.233-.886-.364-2.034-.895-2.876-1.346-.336-.18-.686-.421-1.001-.637-.062-.043-.146-.058-.06-.148Z"/>
  <path d="M33.36,28.239h.046c.464,1.277.511,2.699-.184,3.899-.923,1.593-3.221,1.253-3.414-.647-.134-1.317.743-2.429,1.479-3.411.151-.14.283-.057.38-.081.068-.017.139-.136.297-.166.472-.087,1.042.092,1.396.404ZM32.698,32.375c.218-.236.583-1.123.649-1.45.129-.636.065-1.769-.184-2.374-.147-.357-.751-.552-1.115-.494-.93.148-1.975,2.249-1.992,3.119-.027,1.433,1.662,2.259,2.642,1.199Z"/>
  <path d="M28.562,13.842c-.011-.174.095-.345.176-.494.222-.408.511-.792.733-1.202l.568-.682.138.025-.607.938c-.198.419-.468.801-.68,1.212-.083.161.029.298-.235.249l-.092-.046Z"/>
  <path d="M25.239,10.566c-.006-.094-.003-.187.02-.279.083-.324.555-.994.808-1.223.188-.17.602-.482.855-.437.355.064-.146.239-.221.286-.546.34-.867.752-1.185,1.283-.018.029-.03.062-.046.092-.031.057-.18.127-.138.277-.027-.004-.065-.003-.092,0Z"/>
  <path d="M26.993,12.551c-.075-.089-.019-.117.016-.19.119-.245.358-.594.519-.821.162-.229.93-1.213,1.149-1.251.274-.047-.145.284-.159.301-.41.49-.8,1.042-1.147,1.578-.116.18-.088.365-.332.383-.014.001-.032.002-.046,0Z"/>
  <path d="M32.068,27.085c.091-.04.217-.034.32-.074.179-.07.196-.318.437-.252.041.011.072.281.11.359.103.214.322.252.517.198.017-.005.06-.08.138-.046.018.166-.055.186-.184.23-.257.089-.669-.019-.693-.323-.11-.005-.154.105-.263.129-.155.035-.445.07-.475-.129.011-.039.055-.076.092-.092Z"/>
  <path class="cls-2" d="M32.068,27.085c-.036-.116.037-.114.071-.159.307-.405.569-.453.997-.158.213.147.202.341.316.548-.195.054-.414.016-.517-.198-.038-.078-.069-.347-.11-.359-.241-.067-.259.181-.437.252-.103.041-.229.034-.32.074Z"/>
  <path d="M31.053,12.781c.048-.036.101-.091.161-.093l.024.093-.877,1.43c-.009.004-.038.089-.069.091-.029.002-.095-.087-.116-.091-.064-.087-.05-.121-.002-.208.122-.222.709-1.093.879-1.222Z"/>
  <path class="cls-1" d="M17.488,26.024v.046h-2.307v-.046c.701.018,1.624.058,2.307,0Z"/>
  <path class="cls-5" d="M17.488,26.07c-.005.058-.069.044-.112.048-.53.051-1.545.042-2.083,0-.043-.003-.107.009-.112-.048h2.307Z"/>
  <path d="M19.692,22.621c.142-.018.219-.029.351.04.065.034.362.391.408.469.275.47.265,1.342.072,1.844-.22.57-.834,1.187-1.351.543-.596-.742-.697-2.743.521-2.896ZM19.887,22.748c-1.226.066-1.174,2.084-.508,2.7.539.5,1.017-.394,1.063-.878.031-.328-.086-1.282-.343-1.503-.152-.131-.262-.03-.211-.32Z"/>
  <path d="M18.826,22.702c-.084.589-.265,1.218-.224,1.817.015.221.136.511.134.697,0,.093-.045.099-.116.069-.378-.165-.191-2.158.046-2.489.039-.054.082-.109.16-.094Z"/>
  <path d="M20.579,25.886c.053.246-.553.399-.599.207.025-.176.25-.099.383-.124.078-.015.128-.099.217-.083Z"/>
  <path class="cls-4" d="M27.731,8.951c-.286-.158.102-.473.303-.505.298-.048.656.026.955.044l.219.323c.172.536.331,1.079.508,1.615l-1.984-1.476Z"/>
  <path class="cls-2" d="M27.5,8.767c.125-.111.261-.259.399-.361.441-.324.537-.409,1.009-.009l-.023-.184c.023.012.117-.019.134.003s-.005.131.017.191c.05.14.118.238.172.406l-.219-.323c-.3-.018-.658-.092-.955-.044-.2.032-.588.347-.303.505-.121.002-.156-.111-.231-.185Z"/>
  <path class="cls-6" d="M31.053,12.781c.054-.126.357-.534.484-.554.115-.019.072.08.045.137-.072.152-.223.302-.344.417l-.024-.093c-.06.002-.114.057-.161.093Z"/>
  <path class="cls-4" d="M19.149,12.366l.738-.093c.063.904.257,1.966-.678,2.483l-1.492.862c.15-.342.399-1.635.63-1.816.085-.066.238-.098.337-.171.241-.178.442-.602.464-.897.008-.102.013-.273,0-.369Z"/>
  <path d="M21.917,11.627c-.217.043-.306-.161-.391-.323-.417-.797-.567-1.575-.821-2.408-.02-.066-.062-.241-.125-.267-.19,1.074-.179,2.165-.232,3.252l-.138.115c-.071-.053-.055-1.26-.046-1.453.024-.531.087-1.371.197-1.88.02-.091.062-.329.155-.356.058-.018.092.011.135.04.223.151.465,1.26.585,1.584.078.211.754,1.622.681,1.695Z"/>
  <path class="cls-4" d="M18.271,8.029c-.078.078-.078-.015-.091-.069-.042-.173-.231-1.483-.185-1.546.153.118.736.517.778.679.022.086-.367.659-.448.784-.031.048-.048.147-.054.152Z"/>
  <path class="cls-4" d="M23.523,5.528c-.2.037-.43.128-.584-.06l.501-1.592.14.713-.057.939Z"/>
  <path class="cls-4" d="M28.516,4.706l-.831.092.462-1.061c.086-.018.09.023.127.08.058.092.276.857.242.889Z"/>
  <path d="M19.149,12.366c.013.096.008.268,0,.369-.192-.012-.159-.267-.222-.401-.099-.211-.656-.679-.657-.729-.002-.153.194-.137.304-.072.208.121.54.587.574.833Z"/>
  <path class="cls-4" d="M24.797,9.578c.134.153.301.322.399.501.022.04.074.072.022.12-.422.202-.952.511-1.389.184l.672-1.108c.04-.027.255.257.295.304Z"/>
  <path class="cls-4" d="M27.131,8.398c.006,0,.052-.044.112-.048.131-.008.265.008.396.002-.06.121-.183.191-.277.276l-.231-.231Z"/>
  <path class="cls-2" d="M32.698,32.375c-.98,1.061-2.67.234-2.642-1.199.017-.871,1.062-2.971,1.992-3.119.364-.058.969.137,1.115.494.249.605.313,1.738.184,2.374-.067.328-.431,1.214-.649,1.45Z"/>
  <path class="cls-2" d="M19.887,22.748c-.051.29.059.189.211.32.257.222.374,1.175.343,1.503-.045.483-.523,1.377-1.063.878-.666-.617-.717-2.634.508-2.7Z"/>
</svg>