<?xml version="1.0" encoding="UTF-8"?>
<svg id="Layer_1" data-name="Layer 1" xmlns="http://www.w3.org/2000/svg" viewBox="0 0 46.487 46.487">
  <defs>
    <style>
      .cls-1 {
        fill: #2a1302;
      }

      .cls-2 {
        fill: #e9e4a2;
      }

      .cls-3 {
        fill: #de7079;
      }

      .cls-4 {
        fill: #2c1403;
      }

      .cls-5 {
        fill: #e69f00;
      }

      .cls-6 {
        fill: #fefefe;
      }

      .cls-7 {
        fill: #2d1402;
      }

      .cls-8 {
        fill: #2c1302;
      }
    </style>
  </defs>
  <path class="cls-2" d="M46.441,0v46.441s-46.441,0-46.441,0V0h46.441ZM38.731,15.604v.952c0,.013.14.191.162.21.626.539.993-1.106,1.034-1.475.083-.751-.466-1.549-.971-.623-.161.099-.243-.08-.258-.083-.606-.154-1.266-.217-1.87-.398-.626-.187-1.344-.531-1.85-.937l-.061-1.333c.653-.292,1.465-.459,1.955-.99.072-.438-.071-.845-.574-.844-.484,0-1.32.541-1.825.684-.075.041-.102-.116-.105-.161-.015-.219.4-1.3.515-1.567.317-.739.889-1.583,1.354-2.224.08-.111.159-.371.266-.284.195.158.257.396.577.437.633.082.722-.384.499-.87-.156-.339-1.148-1.379-1.484-1.444-.583-.113-.675.546-.345.904l-2.709,3.544c-.642-.52-1.424-.875-2.233-1.065-.045-.532.344-1.802-.019-2.21-.205-.231-.582-.228-.791,0-.242.265-.408,1.328-.463,1.719-.016.11.009.235,0,.348-.303.046-.653.051-.949.096-.168.026-.477.183-.629.114-.109-.05-.721-.832-.836-.989-.582-.798-1.053-1.684-1.665-2.461l.002-.095c.323-.24,1.226-.762.988-1.263-.114-.239-.669-.132-.867-.041-.244.112-1.311.804-1.521.995-.227.208-.45.526-.109.754.315.211.558-.047.657.016.329.767.812,1.448,1.168,2.198.258.545.473,1.111.698,1.67-.209.047-.494.468-.675.445-.521-.352-.98-.785-1.557-1.046-.375-.106-.718.23-.653.606-.008.419,1.45,1.256,1.485,1.443l-.436.948c-.148.152-1.219-.037-1.486-.05-.392-.019-.824.037-1.21.002-.402-.036-.918-.234-1.303-.276-.206-.023-.431.011-.639,0-.149-.036-.029-.716-.613-.655-.04.004-.143.104-.159.133-.116.206-.186.927-.191,1.192-.006.358.102,1.249.617,1.179.405-.055.27-.549.362-.828.037-.025.538.154.636.174,1.06.223,2.113.395,3.133.861.2.091.672.365.724.576.023.092.003.194.031.294.086.305.213.596.299.9l-1.793.83c-.407.548-.087,1.125.61,1.005l1.908-.745c.359.332.669.714,1.093.965-.477,1.762-1.897,3.008-2.814,4.52l-.082.038c-.572-.325-1.199-.068-.74.598.232.336,1.13,1.051,1.531,1.116.211.034.621.045.7-.206.147-.468-.367-.742-.64-1.018-.007-.032.234-.342.281-.399.792-.97,2.099-2.245,3.098-3.008.125-.096,1.003-.725,1.067-.738.136-.029.185.086.2.2.093.701-.143,1.851.02,2.488.165.65,1.067.585,1.188-.069l-.002-2.626c.328.019.65-.081.961-.176.124-.003.744.611.877.752.824.87,1.586,1.867,2.159,2.918l.535.732c.065.118-.338.394-.35.45-.063.298.058.641.4.662.064.004.341-.031.401-.047.016-.005.223-.163.254-.182.379-.231,1.103-.786,1.357-1.152.15-.216.318-.596.062-.802-.373-.301-1.033.268-1.359.467-.584-1.183-1.457-2.189-1.926-3.439-.119-.318-.246-.694-.304-1.019.657.441,1.223,1.027,1.929,1.39.34.061.652-.127.742-.46.111-.412-.329-.67-.571-.928l-1.501-1.138-.035-.085c.078-.221.312-.249.525-.266,1.159-.094,2.352.058,3.483.189.107.012.606-.024.628-.001ZM12.224,13.663c.748-.383.862-1.34.361-1.982-.523-.669-1.48-.915-1.928-.026-.426.845-.265,2.035.808,2.191l.046.891c-1.702,1.277-3.459,2.475-5.262,3.606-.301-.079-.586-.191-.842-.369.233-.89-.662-2.389-1.678-1.867-.229.118-.718.848-.753,1.105-.073.528.088,1.055.547,1.349.388.249.758.383,1.212.319.149.139,1.065.599,1.068.738-.083.554-.087,1.119-.138,1.676-.124,1.362-.272,2.722-.371,4.088-.048.67-.07,1.154,0,1.81.018.171-.004.375-.009.549l-.768.675c-.217.003-.359-.152-.593-.179-.548-.063-.946.037-1.125.594-.623,1.931,1.646,2.655,2.285,1.078.067-.166.107-.547.14-.603.025-.043.505-.466.601-.42l7.004,1.778c.288.137.251.797.223,1.083-.024.239-.114.196-.198.359-.613,1.188.879,2.645,1.866,1.448.594-.72.537-1.759-.456-2.027-.013-.195-.133-.608-.007-.758,1.896-1.44,4.042-2.612,5.919-4.065.323-.25.253-.385.766-.229-.146,1.19,1.161,2.034,2.023,1.02.574-.676.296-1.455-.457-1.82-.587-.285-.804.022-1.298-.049-.064-.009-.523-.133-.545-.151-.049-.042-.07-.176-.081-.245-.265-1.681-.344-3.416-.631-5.128-.101-.603-.22-1.207-.357-1.802.182.066.302.217.508.258.476.096,1.051-.369,1.327-.722.938-1.199-1-2.586-1.929-1.418-.287.361-.098.801-.479.992-2.002-1.104-4.168-1.882-6.222-2.883-.188-.065-.351-.089-.544-.037l-.037-.826ZM30.279,24.799h.952c.06,0,.342-.191.393-.255.298-.38.138-.824-.323-.929-.391-.09-1.032-.003-1.463-.023-.512-.025-1.035-.159-1.581-.093-.581.07-.712.772-.172,1.01l1.047.206.073.065-.146,1.471-.559,2.251c-.195.112-.427.14-.631.228-.134.058-.719.391-.792.338.007-.138-.105-.161-.142-.215-.28-.412-.596-1.027-.95-1.363-.028-.026-.185-.179-.198-.181-.639-.136-.959.319-.705.89l1.019,1.683-.513.561c-.127.077-.631-.054-.813-.069-.649-.053-1.301-.077-1.947-.19l-1.559-.462c.056-.258.226-.442.227-.724,0-.427-.23-.536-.624-.485-.046.006-.318.283-.36.34-.384.52-1.003,1.791-.917,2.428.049.363.477.546.738.223.077-.094.227-.404.279-.52.039-.086.076-.235.1-.333.494.175.977.414,1.446.656.217.112.424.296.665.413.261.127.887.293,1.063.423.127.094.167.272.262.388.08.098.334.29.362.381.028.093-.047.957-.09.983-.398.011-.791.117-1.183.187-.238.043-.511.037-.763.12-.079.026-.313.203-.355.27-.022.035-.009.102-.031.156-.006.016-.067.017-.075.048-.129.503.473.945.945.798l1.63-.275c.15.008.094.15.131.242.166.403.271.325-.016.71-.657.882-1.27,1.295-2.098,1.931-.111.085-.344.424-.492.358-.016-.007-.175-.221-.231-.265-.239-.186-.561-.463-.798-.154-.059.308.46,1.013.635,1.301.025.042.076.054.102.097.139.229.617,1.192.786,1.257.549.212.801-.189.695-.704-.034-.167-.295-.607-.451-.687l-.003-.066c.277-.231.61-.4.91-.6.251-.168.442-.367.72-.51.445-.228.959-.373,1.411-.59l.15-.011.246.267c-.31.679-.864,1.59-.742,2.369.052.333.407.461.702.346.19-.074.445-.86.554-1.08.161-.324.372-.62.509-.956l.827.352-.226,3.269c-.413-.036-1.025.09-.869.638.3.314.711.484,1.135.558.546.095,1.49.158,2.035.106.736-.071.79-.948.033-1.106-.375-.078-.852-.091-1.236-.101-.076-.017-.036-.565-.019-.665.104-.613.562-1.704.803-2.31.023-.058.019-.123.024-.183.142-.016.298.015.439-.003.17-.021.436-.062.601-.095.147-.029.911-.301.951-.272.046.175.215.335.31.478.164.244.579,1.039.779,1.17.542.357,1.143.032,1.031-.634-.046-.273-.613-1.073-.788-1.373-.018-.031-.093-.056-.124-.128-.141-.324.097-.29.31-.467.298-.249.608-.63.854-.932.967-.03,1.938.115,2.903.209.195.019.408-.019.603.001.348.036.7.122,1.044.187-.027.441.032.846.136,1.272.511.218.824-.564.965-.941s.392-1.366.391-1.749c0-.221-.114-.431-.331-.509-.438-.158-.715.54-.832.838-.466-.16-.96-.337-1.411-.544-.891-.409-1.702-.923-2.443-1.559l-.002-.524c.253-.029.555-.056.802-.104.374-.071,1.217-.221,1.452-.498.284-.336.133-.815-.283-.881-.419-.066-.816.039-1.209.085-.294.034-.587.065-.88.101l-.06-.012c-.093-.232-.148-.313-.034-.555.232-.494,1.11-1.475,1.517-1.907.427-.454.938-.894,1.447-1.26.116-.084.304-.082.315-.264.32.334.508,1.018,1.085.973.339-.026.54-.39.47-.695-.07-.302-.684-1.174-.909-1.449-.109-.133-.673-.723-.769-.774-.495-.258-.732.256-.606.699.042.148.253.31.164.45-.015.023-.11.021-.145.052-.788.684-1.75,1.217-2.673,1.666-.394.192-.828.32-1.205.551-.291.098-.463-.234-.649-.359-.216-.145-.485-.269-.711-.402-.041-.153.063-.143.09-.195.219-.421.863-1.189.926-1.576.041-.253-.212-.621-.455-.686-.641-.171-.942.651-1.21,1.059-.066.101-.192.253-.273.351l-.328.592-.604-.075c-.13-.398-.063-.786-.096-1.181-.035-.42-.123-.869-.141-1.299l.048-1.047Z"/>
  <polygon class="cls-6" points="46.441 0 46.487 0 46.487 46.487 0 46.487 0 46.441 46.441 46.441 46.441 0"/>
  <g>
    <path class="cls-3" d="M12.224,13.663l.037.826c.193-.052.356-.028.544.037,2.054,1.001,4.22,1.778,6.222,2.883.381-.192.192-.631.479-.992.929-1.168,2.866.219,1.929,1.418-.276.353-.852.817-1.327.722-.206-.041-.326-.192-.508-.258.137.595.256,1.199.357,1.802.286,1.712.366,3.447.631,5.128.011.068.032.202.081.245.021.018.481.142.545.151.493.071.711-.236,1.298.049.752.365,1.031,1.144.457,1.82-.862,1.014-2.168.17-2.023-1.02-.512-.156-.443-.021-.766.229-1.877,1.454-4.024,2.625-5.919,4.065-.126.151-.005.563.007.758.993.268,1.05,1.307.456,2.027-.987,1.196-2.479-.26-1.866-1.448.084-.163.174-.12.198-.359.029-.286.065-.946-.223-1.083l-7.004-1.778c-.095-.045-.576.378-.601.42-.033.056-.073.437-.14.603-.639,1.577-2.908.854-2.285-1.078.179-.557.577-.657,1.125-.594.235.027.377.182.593.179l.768-.675c.005-.174.027-.378.009-.549-.07-.656-.048-1.141,0-1.81.099-1.366.247-2.726.371-4.088.051-.557.055-1.122.138-1.676-.004-.138-.92-.599-1.068-.738-.454.063-.824-.07-1.212-.319-.459-.295-.619-.821-.547-1.349.035-.257.524-.987.753-1.105,1.016-.521,1.911.978,1.678,1.867.256.178.541.29.842.369,1.804-1.13,3.56-2.329,5.262-3.606l-.046-.891c-1.074-.156-1.235-1.346-.808-2.191.448-.889,1.405-.643,1.928.026.502.642.387,1.599-.361,1.982ZM11.192,17.555c-.133.103-.2.283-.247.45-.463.549-.733,1.25-1.114,1.858-.021.033-.205.192-.263.201l.022.092c.292-.03.65.039.932.003.089-.011.044-.089.133-.1.289-.036.656.035.955.003l-.092-.092c.241-.026.536.033.769.003.089-.011.044-.089.133-.1.205-.026.464.027.676.003l-.092-.092c.184-.021.406.026.583.003.089-.011.044-.089.133-.1.363-.046.518,0,.894-.088.087-.02.413.02.433-.001v-.184c-.268.062-.231-.179-.294-.265-.063-.087-.268-.218-.342-.308-.027-.033-.003-.123-.03-.157-.118-.145-.406-.262-.357-.479l-.092.092c.062-.202-.172-.265-.264-.386-.119-.156-.179-.264-.34-.45-.338-.391-.752-.931-1.115-1.277-.033-.031-.052-.079-.11-.066-.145.025-.852,1.211-.912,1.436ZM15.465,17.88c-.004.089.017.143.064.216.155.24.684.616.896.866.027.032.002.123.03.157.071.087.248.165.265.292h.092s-.047-.092-.047-.092c.204.049.269-.08.4-.204.021-.02.012-.069.018-.075.231-.216.669-.515.836-.766.033-.049.073-.033,0-.093l-3.879-1.741-.068.022c.153.17.337.316.488.487.265.299.548.771.905.929ZM9.474,18.251c.279-.439.562-.876.789-1.347-.123-.119-2.094,1.456-2.307,1.617-.123.093-.775.483-.799.525-.022.038-.009.098.017.135.026.038.367.305.442.37.179.157.196.142.357.247.12.078.096.253.386.17-.06-.199.109-.2.171-.293.308-.462.645-.955.944-1.425ZM17.926,19.969c-.171.131-.459.095-.37.432.008.032.069.032.075.048.157.372.181.299.372.557.032.044.028.276.201.264.024.184.231.483.334.664.138.243.308.537.501.729l-.511-3.158c-.088-.093-.522.402-.604.464ZM7.013,20.527c-.038-.027-.258-.162-.278-.139.025.836-.173,1.656-.232,2.485-.035.498.013,1.01-.046,1.509l.311-.826c.055-.094.033-.253.06-.335.195-.59.481-1.286.712-1.843.015-.037.15-.107.078-.294l.092.092c.066-.263-.172-.232-.263-.294-.12-.08-.304-.265-.433-.356ZM15.883,20.898h-1.486s.019.08-.03.094c-.193.052-.585-.039-.805,0l.092.092h-1.393s.092.093.092.093c-.299.031-.666-.04-.955-.003-.089.011-.044.089-.133.1-.363.046-.517,0-.894.088-.256.06-.708-.042-.99.001l.092.092h-.372c-.058.156.069.182.077.201.045.106.159.347.217.434.615.93,1.277,1.812,1.858,2.787.369.62.943,1.344,1.393,1.95.076.103.143.222.186.279.104.139.269.252.449.2l-.092-.092h.278c-.064-.149.088-.198.092-.218.059-.262.099-.444.202-.696.162-.396.353-.843.449-1.284.004-.017.178-.121.093-.31l.092.092c-.086-.189.089-.293.093-.31.158-.722.583-1.27.745-1.979.007-.032.07-.031.076-.047.17-.42.389-.836.481-1.254.004-.017.177-.119.092-.31ZM18.762,24.66c-.139-.204-.263-.458-.388-.681-.029-.052-.119-.129-.169-.062.07-.17-.07-.229-.078-.248-.198-.493-.633-.952-.929-1.393-.065-.096-.03-.327-.294-.264.071.188-.062.256-.077.294-.255.621-.441,1.145-.681,1.734-.334.817-.862,1.65-1.269,2.446-.026.05-.006.11-.018.134-.034.065-.124.002-.091.129.154.066.192-.086.217-.092.099-.023.233.013.339-.002l-.092-.092c.106-.015.241.022.339-.001.225-.054.427-.208.743-.278.103-.023.512-.251.621-.277.121-.029.301.018.432-.001l-.092-.092h.464s-.092-.093-.092-.093c.151.029.248-.015.371-.047.433-.113.845-.29,1.3-.326-.136-.238-.292-.467-.445-.695-.034-.051-.101-.079-.112-.094ZM8.638,27.586c.99.002,1.982-.001,2.972,0,.034-.126-.059-.065-.091-.129-.131-.264-.292-.399-.451-.629-.841-1.214-1.664-2.482-2.538-3.686-.116-.16-.259-.344-.414-.484-.026-.023-.036-.053-.036-.087l-.092.022c.059.244-.16.28-.093.534l-.092-.092c.086.189-.089.293-.093.31-.073.332-.206.627-.278.929-.024.099.013.233-.001.339l-.092-.092c-.015.106.022.241-.001.339-.005.022-.169.313-.185.357-.285.777-.497,1.578-.743,2.368.742.001,1.486,0,2.229,0ZM16.463,27.725v.046c.03-.015.03-.031,0-.046ZM16.394,27.772l-2.433.84c-.187.187.009.544.019.785l2.414-1.625ZM11.099,28.793c-.3-.007-.584-.058-.906-.046-.056.002-.173-.035-.162.046l2.879.744c.035-.254-.011-.385-.093-.604-.013-.036.033-.128-.026-.141-.563-.006-1.129.015-1.692.002Z"/>
    <path class="cls-5" d="M15.883,20.898c.085.191-.088.293-.092.31-.092.418-.311.833-.481,1.254-.007.016-.069.016-.076.047-.162.71-.586,1.257-.745,1.979-.004.017-.178.121-.093.31l-.092-.092c.086.189-.089.293-.093.31-.097.44-.287.887-.449,1.284-.103.252-.143.434-.202.696-.005.02-.156.069-.092.217h-.278s.092.093.092.093c-.18.052-.345-.061-.449-.2-.042-.056-.109-.176-.186-.279-.45-.607-1.024-1.331-1.393-1.95-.58-.975-1.242-1.856-1.858-2.787-.058-.087-.171-.328-.217-.434-.008-.019-.135-.046-.077-.201h.372s-.092-.093-.092-.093c.281-.044.733.059.99-.001.377-.088.531-.042.894-.088.089-.011.044-.089.133-.1.289-.036.656.035.955.003l-.092-.092h1.393s-.092-.093-.092-.093c.22-.039.612.052.805,0,.05-.013.026-.094.03-.094h1.486Z"/>
    <path class="cls-5" d="M7.152,25.217c.016-.044.18-.335.185-.357.024-.099-.013-.234.001-.339l.092.092c.015-.106-.022-.241.001-.339.072-.302.205-.597.278-.929.004-.017.178-.121.093-.31l.092.092c-.067-.254.152-.29.093-.534l.092-.022c0,.034.01.064.036.087.155.14.298.324.414.484.874,1.203,1.697,2.472,2.538,3.686.159.23.32.365.451.629.032.064.125.002.091.129-.99,0-1.982.002-2.972,0l-.51-.489-.587-.829-.39-1.051Z"/>
    <path class="cls-5" d="M13.328,17.462c.161.186.221.293.34.45.092.121.326.184.264.386l.092-.092c-.049.217.239.334.357.479.027.033.003.123.03.157.074.09.279.221.342.308.063.087.026.327.293.265v.184c-.019.021-.345-.019-.432.001-.377.088-.531.042-.894.088-.089.011-.044.089-.133.1-.177.022-.399-.024-.583-.003l.092.092c-.213.023-.471-.029-.676-.003-.089.011-.044.089-.133.1-.233.029-.528-.029-.769-.003l.092.092c-.299.031-.666-.04-.955-.003-.089.011-.044.089-.133.1-.282.036-.64-.034-.932-.003l-.022-.092c.058-.009.242-.168.263-.201.381-.608.651-1.309,1.114-1.858.047-.166.114-.346.247-.45.237.035.444-.078.672-.095.473-.035.987.029,1.465.002Z"/>
    <path class="cls-5" d="M18.019,25.774c-.124.032-.22.076-.371.047l.092.092h-.464s.092.093.092.093c-.131.02-.312-.028-.432.001-.108.026-.518.254-.621.277-.316.07-.518.224-.743.278-.099.024-.234-.013-.339.001l.092.092c-.106.014-.24-.022-.339.002-.025.006-.063.158-.217.092-.033-.127.057-.064.091-.129.012-.024-.008-.083.018-.134.407-.796.935-1.629,1.269-2.446.241-.589.426-1.114.681-1.734.015-.038.148-.106.077-.294.264-.063.229.168.294.264.297.441.731.899.929,1.393.008.019.148.078.078.248.051-.067.14.01.169.062.125.223.249.476.388.681-.066.428-.424.671-.695.951-.021.022-.135.148-.048.163Z"/>
    <path class="cls-2" d="M15.465,17.88c-.357-.159-.64-.631-.905-.929-.152-.171-.335-.317-.488-.487l.068-.022,3.879,1.741c.074.059.034.043,0,.093-.167.251-.605.55-.836.766-.245-.414-.78-.738-1.207-.953-.179-.09-.345-.134-.511-.208Z"/>
    <path class="cls-2" d="M7.152,25.217l.39,1.051.587.829.51.489c-.742-.001-1.486.001-2.229,0,.246-.79.458-1.591.743-2.368Z"/>
    <path class="cls-2" d="M7.616,19.551c-.075-.065-.416-.332-.442-.37-.025-.037-.038-.097-.017-.135.024-.041.675-.431.799-.525.213-.161,2.184-1.735,2.307-1.617-.227.471-.51.907-.789,1.347-.726.26-1.298.791-1.858,1.3Z"/>
    <path class="cls-2" d="M13.328,17.462c-.478.027-.991-.036-1.465-.002-.228.017-.435.13-.672.095.06-.225.766-1.411.912-1.436.058-.012.077.035.11.066.363.346.776.886,1.115,1.277Z"/>
    <path class="cls-2" d="M17.926,19.969c.081-.062.515-.557.604-.464l.511,3.158c-.193-.192-.363-.486-.501-.729-.103-.181-.31-.48-.334-.664-.014-.106.021-.229-.011-.338l-.268-.963Z"/>
    <path class="cls-5" d="M7.013,20.527c.129.092.313.276.433.356.092.061.329.031.263.294l-.092-.092c.072.187-.062.256-.078.294-.231.556-.517,1.253-.712,1.843-.106-.892-.074-1.832.186-2.694Z"/>
    <path class="cls-5" d="M9.474,18.251c-.299.47-.636.963-.944,1.425-.062.093-.231.093-.171.293-.29.083-.266-.091-.386-.17-.161-.105-.177-.091-.357-.247.559-.509,1.131-1.04,1.858-1.3Z"/>
    <path class="cls-2" d="M16.394,27.772l-2.414,1.625c-.01-.24-.206-.597-.019-.785l2.433-.84Z"/>
    <path class="cls-5" d="M15.465,17.88c.166.074.332.118.511.208.427.214.962.539,1.207.953-.007.006.003.055-.018.075-.132.124-.197.253-.4.204l.047.092h-.092c-.017-.127-.193-.206-.265-.293-.027-.034-.003-.124-.03-.157-.212-.25-.741-.626-.896-.866-.047-.073-.068-.128-.064-.216Z"/>
    <path class="cls-2" d="M11.099,28.793c.072.083.389.168.49.183.118.018.488.051.603.051.183-.001.437-.067.625-.095.082.219.128.35.093.604l-2.879-.744c-.011-.081.106-.044.162-.046.322-.012.606.04.906.046Z"/>
    <path class="cls-2" d="M7.013,20.527c-.26.861-.292,1.801-.186,2.694-.027.082-.005.241-.06.335l-.311.826c.06-.498.011-1.011.046-1.509.059-.829.257-1.649.232-2.485.021-.023.24.112.278.139Z"/>
    <path class="cls-2" d="M18.762,24.66c.011.016.078.043.112.094.153.228.309.456.445.695-.455.035-.867.213-1.3.326-.087-.015.026-.142.048-.163.271-.28.629-.523.695-.951Z"/>
    <path class="cls-5" d="M17.926,19.969l.268.963c.032.109-.003.232.011.338-.173.012-.168-.22-.201-.264-.191-.258-.216-.184-.372-.557-.007-.016-.067-.016-.075-.048-.09-.337.199-.301.37-.432Z"/>
    <path class="cls-5" d="M11.099,28.793c.563.013,1.129-.008,1.692-.002.059.013.013.106.026.141-.188.027-.442.093-.625.095-.115,0-.485-.033-.603-.051-.101-.015-.418-.1-.49-.183Z"/>
    <path class="cls-2" d="M16.463,27.725c.03.015.03.031,0,.046v-.046Z"/>
  </g>
  <g>
    <g>
      <path class="cls-5" d="M30.279,24.799l-.048,1.047c.017.431.105.879.141,1.299.033.396-.034.783.096,1.181l.604.075.328-.592c.081-.098.206-.25.273-.351.268-.408.568-1.23,1.21-1.059.243.065.496.433.455.686-.063.387-.707,1.156-.926,1.576-.027.051-.131.042-.09.195.226.133.494.257.711.402.185.124.358.457.649.359.377-.231.811-.36,1.205-.551.923-.449,1.885-.982,2.673-1.666.035-.031.13-.029.145-.052.089-.139-.122-.302-.164-.45-.126-.443.111-.957.606-.699.096.05.661.641.769.774.224.275.839,1.147.909,1.449.07.306-.132.669-.47.695-.577.045-.765-.64-1.085-.973-.011.182-.198.18-.315.264-.509.366-1.02.806-1.447,1.26-.407.433-1.285,1.413-1.517,1.907-.114.243-.058.323.034.555l.06.012c.294-.036.586-.067.88-.101.393-.046.79-.151,1.209-.085.417.066.568.545.283.881-.235.277-1.078.427-1.452.498-.247.047-.549.075-.802.104l.002.524c.741.636,1.552,1.15,2.443,1.559.451.207.945.385,1.411.544.117-.297.395-.996.832-.838.217.078.331.289.331.509.001.383-.25,1.37-.391,1.749s-.453,1.159-.965.941c-.104-.425-.163-.831-.136-1.272-.343-.065-.695-.151-1.044-.187-.194-.02-.407.018-.603-.001-.966-.094-1.936-.238-2.903-.209-.246.302-.556.684-.854.932-.213.177-.451.143-.31.467.031.072.106.097.124.128.175.3.742,1.099.788,1.373.112.665-.489.991-1.031.634-.2-.131-.615-.926-.779-1.17-.096-.143-.265-.303-.31-.478-.04-.03-.805.242-.951.272-.165.033-.431.074-.601.095-.14.018-.296-.014-.439.003-.006.061-.001.125-.024.183-.241.606-.699,1.697-.803,2.31-.017.1-.057.647.019.665.384.011.861.023,1.236.101.757.158.703,1.035-.033,1.106-.545.052-1.489-.01-2.035-.106-.424-.074-.835-.244-1.135-.558-.156-.548.456-.675.869-.638l.226-3.269-.827-.352c-.137.336-.348.632-.509.956-.109.22-.365,1.007-.554,1.08-.296.115-.65-.013-.702-.346-.122-.779.432-1.69.742-2.369l-.246-.267-.15.011c-.453.217-.967.362-1.411.59-.278.143-.469.342-.72.51-.3.2-.633.368-.91.6l.003.066c.156.08.417.52.451.687.106.515-.146.916-.695.704-.168-.065-.647-1.028-.786-1.257-.026-.043-.077-.055-.102-.097-.174-.288-.693-.992-.635-1.301.236-.309.559-.032.798.154.056.044.215.258.231.265.148.066.381-.272.492-.358.828-.637,1.442-1.049,2.098-1.931.287-.385.181-.307.016-.71-.038-.092.019-.234-.131-.242l-1.63.275c-.473.147-1.074-.295-.945-.798.008-.031.069-.032.075-.048.022-.054.008-.121.031-.156.043-.067.277-.244.355-.27.252-.083.525-.078.763-.12.392-.071.784-.176,1.183-.187.042-.026.118-.89.09-.983-.027-.091-.281-.283-.362-.381-.095-.116-.135-.294-.262-.388-.176-.13-.802-.296-1.063-.423-.241-.117-.448-.301-.665-.413-.469-.243-.952-.482-1.446-.656-.024.097-.06.246-.1.333-.053.115-.203.425-.279.52-.261.322-.689.139-.738-.223-.087-.637.533-1.908.917-2.428.042-.057.314-.334.36-.34.395-.05.625.058.624.485,0,.282-.171.466-.227.724l1.559.462c.646.113,1.298.137,1.947.19.182.015.686.146.813.069l.513-.561-1.019-1.683c-.254-.571.066-1.026.705-.89.013.003.17.155.198.181.354.336.671.951.95,1.363.037.055.15.077.142.215.073.053.658-.279.792-.338.204-.088.436-.117.631-.228l.559-2.251.146-1.471-.073-.065-1.047-.206c-.54-.239-.409-.94.172-1.01.546-.066,1.069.069,1.581.093.431.021,1.072-.066,1.463.023.461.106.621.55.323.929-.051.065-.333.255-.393.255h-.952ZM32.338,31.565c-.163-.302-.458-.586-.763-.794-.283-.193-.881-.512-1.105-.082-.343.656.149,1.508.865,1.622.389.062,1.256-.112,1.107-.644-.022-.081-.093-.08-.105-.102ZM26.657,33.716c.048.194.153.011,0,.325-.046.094-.182.313-.182.395,0,.077.083.258.183.188.244-.288,1.055-.981,1.045-1.349-.015-.549-1.215-.235-1.046.442ZM32.508,35.527c.067-.249-.348-.39-.538-.414-.517-.063-1.114.345-1.321.808-.321.718-.011,1.32.76.806.061-.041.504-.391.203-.308-.115.032-.611.294-.683.223-.042-.872.77-1.352,1.579-1.115Z"/>
      <path class="cls-1" d="M32.338,31.565c.012.023.082.022.105.102.148.532-.719.706-1.107.644-.716-.114-1.208-.966-.865-1.622.224-.43.822-.111,1.105.082.305.208.6.492.763.794ZM32.044,31.487l-1.163-.584c-.357.767.704,1.365,1.302.838l-.186-.116.047-.138Z"/>
      <path class="cls-8" d="M32.508,35.527c-.808-.237-1.62.243-1.579,1.115.072.071.568-.191.683-.223.301-.083-.142.267-.203.308-.77.514-1.081-.088-.76-.806.207-.462.803-.871,1.321-.808.19.023.605.164.538.414Z"/>
      <path class="cls-8" d="M26.657,33.716c-.169-.677,1.031-.99,1.046-.442.01.368-.801,1.061-1.045,1.349-.101.07-.184-.111-.183-.188,0-.082.136-.3.182-.395l.558-.673c-.072-.008-.205.069-.257.115-.122.107-.121.363-.301.233Z"/>
      <path class="cls-5" d="M26.657,34.041c.153-.314.048-.131,0-.325.18.129.179-.127.301-.233.052-.045.185-.123.257-.115l-.558.673Z"/>
      <path class="cls-5" d="M32.044,31.487l-.047.138.186.116c-.598.526-1.659-.071-1.302-.838l1.163.584Z"/>
    </g>
    <g>
      <path class="cls-5" d="M38.731,15.604c-.022-.022-.521.014-.628.001-1.131-.131-2.324-.283-3.483-.189-.213.017-.447.045-.525.266l.035.085,1.501,1.138c.242.258.683.516.571.928-.09.333-.402.52-.742.46-.706-.363-1.273-.949-1.929-1.39.057.325.185.702.304,1.019.469,1.25,1.342,2.255,1.926,3.439.326-.199.986-.767,1.359-.467.256.206.088.586-.062.802-.254.366-.978.921-1.357,1.152-.031.019-.238.177-.254.182-.06.017-.338.051-.401.047-.341-.021-.463-.364-.4-.662.012-.056.415-.333.35-.45l-.535-.732c-.573-1.051-1.334-2.048-2.159-2.918-.133-.141-.753-.756-.877-.752-.31.095-.633.194-.961.176l.002,2.626c-.12.654-1.022.719-1.188.069-.162-.638.073-1.787-.02-2.488-.015-.114-.063-.229-.2-.2-.063.013-.941.642-1.067.738-.998.762-2.305,2.038-3.098,3.008-.047.057-.288.367-.281.399.273.276.788.55.64,1.018-.079.25-.489.24-.7.206-.401-.065-1.3-.78-1.531-1.116-.459-.666.168-.923.74-.598l.082-.038c.917-1.513,2.338-2.758,2.814-4.52-.424-.251-.735-.633-1.093-.965l-1.908.745c-.697.12-1.017-.456-.61-1.005l1.793-.83c-.087-.305-.213-.595-.299-.9-.028-.1-.009-.202-.031-.294-.052-.211-.524-.485-.724-.576-1.02-.466-2.073-.638-3.133-.861-.098-.021-.599-.199-.636-.174-.093.279.043.772-.362.828-.515.07-.623-.821-.617-1.179.005-.265.075-.986.191-1.192.016-.028.119-.129.159-.133.585-.06.464.62.613.655.208.012.434-.022.639,0,.385.042.9.241,1.303.276.385.034.817-.021,1.21-.002.266.013,1.338.202,1.486.05l.436-.948c-.035-.187-1.493-1.024-1.485-1.443-.065-.376.278-.712.653-.606.577.262,1.036.694,1.557,1.046.18.022.465-.398.675-.445-.225-.559-.44-1.126-.698-1.67-.356-.751-.839-1.432-1.168-2.198-.099-.063-.342.194-.657-.016-.341-.228-.118-.546.109-.754.21-.192,1.277-.884,1.521-.995.198-.091.754-.198.867.041.238.501-.664,1.023-.988,1.263l-.002.095c.612.777,1.082,1.663,1.665,2.461.114.157.726.939.836.989.152.069.461-.088.629-.114.296-.045.646-.051.949-.096.009-.113-.016-.238,0-.348.056-.391.221-1.455.463-1.719.208-.228.585-.231.791,0,.363.408-.025,1.678.019,2.21.809.189,1.591.545,2.233,1.065l2.709-3.544c-.33-.357-.238-1.017.345-.904.336.065,1.328,1.104,1.484,1.444.223.486.134.952-.499.87-.32-.041-.382-.28-.577-.437-.107-.086-.186.174-.266.284-.465.641-1.037,1.486-1.354,2.224-.115.267-.529,1.348-.515,1.567.003.045.03.202.105.161.505-.143,1.341-.683,1.825-.684.503,0,.647.406.574.844-.49.532-1.302.698-1.955.99l.061,1.333c.506.406,1.224.75,1.85.937.604.18,1.264.244,1.87.398.015.004.097.182.258.083.504-.926,1.053-.128.971.623-.041.369-.408,2.014-1.034,1.475-.022-.019-.162-.197-.162-.21v-.952ZM28.229,10.21c.11-.07.027-.312-.119-.355-.729-.215-1.35,1.113-.712,1.316.47.15,1.345-.627,1.535-1.047-.103-.08-1.04.616-1.277.65-.165.024-.01-.276.026-.336.007-.012.182-.202.195-.207.11-.042.293.017.353-.021ZM31.427,13.594c-.029.035-.103.041-.147.107-.299.452.182,1.697.9,1.319.665-.35.029-1.588-.606-1.622-.123.017-.089.127-.146.196ZM28.003,14.489l.026-.185c-.413-.304-.356.433-.069.623.423.281.539-.446.043-.439Z"/>
      <path class="cls-4" d="M28.229,10.21c-.06.038-.242-.021-.353.021-.013.005-.188.195-.195.207-.036.061-.19.36-.026.336.237-.034,1.174-.73,1.277-.65-.19.421-1.065,1.197-1.535,1.047-.638-.203-.016-1.531.712-1.316.145.043.229.285.119.355Z"/>
      <path class="cls-7" d="M31.427,13.594c.057-.069.023-.179.146-.196.635.033,1.271,1.271.606,1.622-.718.379-1.198-.867-.9-1.319.044-.067.119-.073.147-.107ZM31.495,14.034c-.066.142.244.957.577.692.309-.246-.367-1.203-.539-1.072.03.08.085.158.08.249-.007.119-.114.122-.118.131Z"/>
      <path class="cls-8" d="M28.003,14.489c.496-.007.38.72-.043.439-.286-.19-.344-.928.069-.623l-.026.185Z"/>
      <path class="cls-5" d="M31.495,14.034c.004-.009.111-.012.118-.131.005-.091-.05-.169-.08-.249.172-.131.848.826.539,1.072-.333.265-.643-.549-.577-.692Z"/>
    </g>
  </g>
</svg>