<?xml version="1.0" encoding="UTF-8"?>
<svg id="Layer_1" data-name="Layer 1" xmlns="http://www.w3.org/2000/svg" viewBox="0 0 46.561 46.561">
  <defs>
    <style>
      .cls-1 {
        fill: #291103;
      }

      .cls-2 {
        fill: #c76f45;
      }

      .cls-3 {
        fill: #e9e4a2;
      }

      .cls-4 {
        fill: #db707b;
      }

      .cls-5 {
        fill: #e69f00;
      }

      .cls-6 {
        fill: #2a1204;
      }

      .cls-7 {
        fill: #fefefe;
      }

      .cls-8 {
        fill: #c06971;
      }
    </style>
  </defs>
  <path class="cls-8" d="M20.839,8.233c0,.139,0,.28,0,.418-.119-.112-.079-.279-.093-.418h.093Z"/>
  <path class="cls-8" d="M20.699,8.838v.093c-.108-.005-.218.003-.325,0,.006-.007-.015-.067.006-.085l.319-.008Z"/>
  <g>
    <path class="cls-7" d="M46.561,0v46.561h-.046c.002-1.395-.002-2.792,0-4.186.019-14.109-.014-28.22,0-42.329h-27.165c-6.449.002-12.901,0-19.35,0v-.046h46.561Z"/>
    <path class="cls-2" d="M46.516.046h-27.165c-.009.284.053.569.107.848.464,2.415,1.037,4.89,1.288,7.34h.093c0,.139,0,.28,0,.418v.28c-.012-.005-.03.002-.046,0,.046.167.23.174.351.324.206.254.689.916.905,1.025.146.225.133.232.372.372.004.005-.005.043.015.079.037.065.145.088.171.107.131.226.232.339.184.626-.043.254-.276.238-.416.397-.015.002-.031-.003-.046,0l-.315.174c-.22.024-.39.089-.615.105.006.298.055.603.105.896.948,5.637,2.409,11.846,4.678,17.091.669,1.546,1.378,3.064,2.85,3.988.935.587,2.683.905,3.785.96,1.007.05,1.997-.119,3.002-.095-.035-.077-.098-.143-.093-.232.518-.161,1.058-.279,1.57-.453,1.005-.341,2.176-.783,3.122-1.251.197-.097,1.048-.635,1.17-.604.464.123.023.647-.163.82-.709.661-2.534,1.322-3.489,1.629-.606.194-1.22.318-1.839.464-.002.11.052.205.093.302.876,2.051,1.493,4.207,1.954,6.396.033.089.186.128.186.139,0,.121,0,.242,0,.363,0,.101-.038.215-.004.313.024.069.138.135.099.219,0,.067.63.369.72.407.516.222,1.24.347,1.794.42.935.123,1.566.134,2.584-.126.967-.247,1.993-.839,2.862-1.32.057-.032.042-.112.132-.089.019-14.109-.014-28.22,0-42.329ZM23.783,15.359c-.558-.302-.294-1.052-.185-1.553.441-2.044,1.302-4.811,2.09-6.748.108-.265.272-.882.583-.909.463-.041.321.566.267.829-.336,1.659-1.122,3.573-1.592,5.245-.214.761-.411,1.531-.568,2.307.026.08.346.114.439.122.871.072,1.74-.056,2.602-.094.446-.02,1.329-.108,1.72-.043.193.033.381.193.4.393.071.769-1.223.553-1.701.58-.944.053-3.274.295-4.054-.128ZM30.963,27.66c-.803.805-1.876.559-2.657-.124-.886-.776-1.538-2.937-1.779-4.082-.252-1.199-.203-2.862.686-3.801.497-.525,1.372-.492,1.997-.231,1.427.597,2.585,3.182,2.693,4.656.075,1.018-.192,2.833-.941,3.583ZM37.468,9.954c-1.428-.033-2.853.135-4.274-.053-1.309-.173-.274-1.214.18-1.716.337-.372.73-.7,1.072-1.068.378-.409.999-1.3,1.395-1.582.317-.225.746-.143.656.281-.026.122-.589.905-.707,1.064-.173.232-.364.462-.551.683-.339.399-.8.788-1.12,1.182-.034.041-.202.246-.162.279.501.057,1.007.056,1.513.049.659-.009,1.422-.147,2.08-.037.618.104.529.903-.082.92Z"/>
    <path class="cls-1" d="M41.423,33.259c-.709.661-2.534,1.322-3.489,1.629-.606.194-1.22.318-1.839.464-.138.011-.229-.261-.279-.373-.035-.077-.098-.143-.093-.232.518-.161,1.058-.279,1.57-.453,1.005-.341,2.176-.783,3.122-1.251.197-.097,1.048-.635,1.17-.604.464.123.023.647-.163.82Z"/>
    <path d="M22.789,11.464c-.043.254-.276.238-.416.397-.015.002-.031-.003-.046,0l-.315.174c-.22.024-.39.089-.615.105-.011,0-.06-.04-.113-.039-.232,0-.702.108-.771-.24-.005-.026,0-.063,0-.093-.005-.129.002-.249.046-.372.036-.041.046-.055.093-.093.329-.126.686-.086,1.024-.187.013-.019-.244-.311-.277-.349-.088-.1-.201-.267-.328-.301-.011-.027-.03-.074-.046-.093-.012-.015-.072-.057-.139-.139-.035-.043-.057-.098-.093-.139-.026-.029-.043.008-.139-.139-.015-.024-.013-.064-.046-.094-.059-.052-.047.038-.139-.139-.033-.061.004-.079-.093-.139-.066-.041-.063.073-.093-.093-.003-.015.002-.031,0-.046-.027-.149-.069-.272,0-.418.035-.04.063-.062.093-.093.108.003.217-.005.325,0,.03,0,.065-.005.093,0,.046.167.23.174.351.324.206.254.689.916.905,1.025.146.225.133.232.372.372.004.005-.005.043.015.079.037.065.145.088.171.107.131.226.232.339.184.626Z"/>
    <path class="cls-3" d="M20.653,11.303c.006-.005-.03-.064.057-.108.114-.057.325-.075.456-.079-.048-.195-.019-.475-.094-.651.126.035.239.201.328.301.033.038.291.33.277.349-.338.101-.695.061-1.024.187Z"/>
    <path d="M30.963,27.66c-.803.805-1.876.559-2.657-.124-.886-.776-1.538-2.937-1.779-4.082-.252-1.199-.203-2.862.686-3.801.497-.525,1.372-.492,1.997-.231,1.427.597,2.585,3.182,2.693,4.656.075,1.018-.192,2.833-.941,3.583Z"/>
    <path class="cls-6" d="M27.837,15.487c-.944.053-3.274.295-4.054-.128-.558-.302-.294-1.052-.185-1.553.441-2.044,1.302-4.811,2.09-6.748.108-.265.272-.882.583-.909.463-.041.321.566.267.829-.336,1.659-1.122,3.573-1.592,5.245-.214.761-.411,1.531-.568,2.307.026.08.346.114.439.122.871.072,1.74-.056,2.602-.094.446-.02,1.329-.108,1.72-.043.193.033.381.193.4.393.071.769-1.223.553-1.701.58Z"/>
    <path class="cls-6" d="M37.468,9.954c-1.428-.033-2.853.135-4.274-.053-1.309-.173-.274-1.214.18-1.716.337-.372.73-.7,1.072-1.068.378-.409.999-1.3,1.395-1.582.317-.225.746-.143.656.281-.026.122-.589.905-.707,1.064-.173.232-.364.462-.551.683-.339.399-.8.788-1.12,1.182-.034.041-.202.246-.162.279.501.057,1.007.056,1.513.049.659-.009,1.422-.147,2.08-.037.618.104.529.903-.082.92Z"/>
  </g>
  <g>
    <path class="cls-3" d="M36.189,35.654c-.041-.098-.095-.192-.093-.302-.138.011-.229-.261-.279-.373-1.005-.024-1.995.145-3.002.095-1.102-.055-2.85-.373-3.785-.96-1.471-.924-2.18-2.441-2.85-3.988-2.269-5.245-3.73-11.454-4.678-17.091-.05-.293-.098-.598-.105-.896-.011,0-.06-.04-.113-.039-.232,0-.702.108-.771-.24-.005-.026,0-.063,0-.093-.005-.129.002-.249.046-.372.036-.041.046-.055.093-.093.006-.005-.03-.064.057-.108.114-.057.325-.075.456-.079-.048-.195-.019-.475-.094-.651-.011-.027-.03-.074-.046-.093-.012-.015-.072-.057-.139-.139-.035-.043-.057-.098-.093-.139-.026-.029-.043.008-.139-.139-.015-.024-.013-.064-.046-.094-.059-.052-.047.038-.139-.139-.033-.061.004-.079-.093-.139-.066-.041-.063.073-.093-.093-.003-.015.002-.031,0-.046-.027-.149-.069-.272,0-.418.035-.04.063-.062.093-.093.006-.007-.015-.067.006-.085l.319-.008v.093c.03,0,.065-.005.093,0,.016.002.034-.005.046,0v-.28c-.119-.112-.079-.279-.093-.418-.252-2.45-.824-4.925-1.288-7.34-.054-.279-.115-.563-.107-.847-6.449,0-12.901,0-19.35,0v46.515h28.746l.225-.181c1.913-.812,3.711-1.721,5.56-2.594,1.027-.484,2.175-.899,3.132-1.52.034-.022.098-.146.122-.155.098-.04.249-.033.359-.062-.461-2.189-1.078-4.345-1.954-6.396ZM18.481,25.039c.087-.094.89-.366,1.078-.434,1.014-.367,2.095-.686,3.14-.953.191-.049.757-.162.645.223-.024.084-.522.287-.645.335-1.01.384-2.138.643-3.175,1.012-.253.09-.677.36-.931.305-.232-.051-.258-.332-.112-.488ZM23.332,26.797c.256-.132.577-.05.475.287-.054.179-1.228.903-1.465,1.048-1.399.855-2.843,1.645-4.243,2.502-.227.139-.692.519-.889.599-.121.05-.248.033-.359-.033-.267-.48.514-.824.858-1.05,1.825-1.198,3.745-2.245,5.624-3.353ZM11.538,24.082c.004-.016.222-.218.252-.222.076-.01.297-.012.365.004.037.009.012.084.098.095.081.011.285.01.365-.005.068-.014.193-.306.224-.393-.009-.085-.217-.204-.268-.271-.028-.036-.003-.123-.03-.157-.067-.082-.516-.458-.529-.492-.134-.347.043-.664.439-.532.06.02.765.807.85.916l.069.002c.032-.139.129-.068.194-.109.211-.134.07-.771.105-1.034.008-.06.179-.156.097-.346.2.058.172-.159.36-.079.09.038.277.335.198.451l.091-.093c.04.295-.052.711.003.989.029.143.343.143.463.127l-.092.092c.253-.073.21.263.452.171.093-.035.099-.22.12-.249.029-.04.537-.562.576-.571.072-.015.234-.015.305,0,.015.003.215.202.218.218.017.082.015.246-.012.327-.018.052-.685.601-.717.674-.075.172.046.153.075.213.06.129.185.256.188.274.019.1-.019.213.003.307.004.019.156.07.092.218.107.015.239-.022.339,0,.038.009.013.085.098.096.113.014.26-.029.366-.002.033.008.024.072.068.09.042.016.132-.013.149.003.016.017-.013.108.003.149.021.05.139.029.091.191-.009.031-.073.021-.091.067-.016.041.013.132-.003.149-.016.016-.107-.013-.149.003-.044.018-.035.082-.067.09-.061.015-.247.015-.308,0-.038-.009-.013-.084-.098-.095-.19-.023-.321.074-.468-.094l-.084.006c-.146.101-.169.28-.112.452.021.064.724.638.809.77.038.06-.022.162.107.203v.124c-.127.041-.069.139-.108.201-.084.134-.293.143-.438.095-.086-.029-.801-.903-.917-.92-.236-.033-.187.132-.397.097-.061.167.087.172.097.253.02.158.019.635,0,.795-.026.213-.524.235-.638.053-.023-.036-.009-.101-.032-.155-.006-.016-.067-.017-.075-.048-.032-.128.02-.322.002-.459-.012-.087-.088-.061-.096-.098-.023-.101.012-.234,0-.341-.098-.011-.212.016-.306.004-.086-.011-.06-.087-.098-.095-.065-.015-.239-.013-.306,0-.044.009-.582.638-.626.647-.355.072-.621-.027-.523-.431.008-.031.07-.032.076-.047.139-.348.314-.329.466-.557.026-.039.002-.107.017-.136.03-.06.132-.019.09-.129-.046.002-.153-.081-.17-.108-.11-.177-.07-.342-.109-.512-.004-.018-.177-.12-.091-.311-.017-.018-.322.014-.399.004-.022-.003-.332-.163-.361-.174-.182-.069-.328-.072-.261-.354ZM16.068,29.302c-.154.188-1.079.528-1.358.642-1.146.469-2.799,1.199-3.965,1.478-.244.058-1.065.268-1.157-.056-.077-.271.262-.222.414-.268,1.942-.597,3.784-1.498,5.707-2.154.277-.088.586.079.359.358ZM3.938,30.19c-.287-.363.353-.515.621-.628,1.932-.814,3.946-1.441,5.904-2.19.349-.143.614.203.36.476-.097.104-.629.276-.799.341-1.574.601-3.377,1.275-4.977,1.767-.36.111-.728.254-1.109.234ZM6.59,37.616c-.034.022-.101.009-.156.031-.016.006-.017.068-.048.075-.33.081-.513-.098-.432-.431.008-.031.07-.033.076-.048.03-.081.037-.224.147-.26.129-.043.172.081.148-.189.27.095.263-.26.28-.277.015-.015.103.009.146-.005.144-.05.161-.301.13-.431-.009-.036-.084-.028-.091-.064-.045-.203-.04-.153-.092-.283-.016-.041.013-.132-.003-.149-.016-.016-.108.013-.149-.003-.228-.092-.48-.172-.702-.262-.111-.045-.227-.092-.342-.125-.258-.205-.008-.325-.015-.542.212.022.474-.031.678-.005.086.012.06.088.098.096.069.015.49.043.52-.008.035-.059-.05-.168.1-.201l-.002-.069c-.132-.082-.342-.264-.449-.387-.027-.032-.002-.126-.03-.157-.249-.282-.343-.324-.558-.651-.021-.032-.153-.106-.157-.12-.046-.139.003-.309-.014-.453l.453.014c.38.415.781.811,1.186,1.2.041.04.036.141.127.088.03-.018.091-.274.28-.185.021-.019-.018-.35.002-.433.009-.037.084-.012.096-.098.021-.162-.04-.404-.002-.552.008-.032.069-.033.075-.048.022-.054.009-.119.032-.156.102-.161.28-.102.45-.108-.084.19.088.287.096.346.021.161-.043,1.016-.003,1.05.151-.054.175.064.201.077.066.033.291.092.342.124.07.045.107.225.2.17.003-.002-.002-.05.021-.071.252-.237.401-.461.709-.594.017-.008.016-.068.046-.077h.123c.042.127.139.069.202.108.135.084.142.294.095.437-.018.053-.723.684-.822.757l-.002.069c.113.046.153.26.203.38.006.016.068.016.076.047.024.099-.012.234,0,.34h.279l-.092.092c.106.015.241-.022.34.002.036.009.383.164.44.181.136.04.287.063.424.101l.008.393c-.137.202-.26.317-.529.253-.035-.009-.029-.083-.064-.091-.198-.045-.483-.051-.681-.095-.042-.009-.07-.208-.309.002-.036.115.06.07.09.128.143.287.183.229.359.444.028.033.003.124.03.157.208.248.276.268.466.558.076.117.243.075.169.355-.006.024-.154.067-.091.218-.157-.022-.408.04-.546-.013-.025-.009-.342-.339-.369-.373-.052-.065-.257-.465-.309-.529-.028-.035-.344-.364-.369-.373-.261-.091-.237.11-.453.079.021.214-.029.472-.004.677.007.056.25.215.007.256l-.004.067.095.052.002.09c-.159.138-.067.236-.098.406-.029.158-.518.203-.634.019-.039-.062.018-.158-.107-.203l-.004-1.236c-.073-.034-.156-.178-.198-.205-.035-.022-.102-.009-.157-.031-.043-.017-.049-.145-.283-.063-.059.021-.559.64-.677.715ZM7.024,42.468c-.009-.065.003-.125.022-.187.106-.364,1.439-1.486,1.791-1.79,1.856-1.603,3.825-3.079,5.631-4.742.324-.227.693-.074.416.323-.115.167-.731.666-.93.838-2.19,1.896-4.521,3.628-6.719,5.514l-.212.044ZM17.188,39.259c-.687.872-1.916,1.883-2.749,2.672-.135.127-.532.614-.684.577-.436-.107.347-.967.479-1.12.566-.654,1.261-1.205,1.863-1.825.202-.208.71-.917.955-.954.535-.081.348.383.137.649ZM24.094,36.763c-.009.031-.074.022-.091.067-.045.112.094.181-.187.15l.092.092h-1.116l.092-.092c-.247-.043-.23.116-.294.263-.009.022-.137.017-.063.191.02.048.695.721.742.741.058.026.16.003.172.015.016.017-.013.107.003.148.018.045.082.036.091.069.029.119-.016.301,0,.432-.217.005-.248.149-.525.091-.051-.011-.59-.657-.699-.728-.036-.023-.103-.007-.157-.031-.017-.007-.016-.067-.047-.076-.183-.056-.192.152-.285.183-.044.015-.135-.009-.148.002-.015.013-.011.342-.004.398.011.086.087.061.095.098.036.152-.023.39-.002.553.011.079.143.079.099.37-.006.046-.212.25-.256.257-.067.009-.205.009-.27-.005-.015-.004-.215-.203-.218-.218-.019-.1.018-.213-.003-.308-.03-.139-.153-.492-.184-.621-.02-.088.02-.413,0-.433-.131-.019-.312.028-.432-.002-.012-.003-.12-.072-.204-.107-.041-.018-.031-.129-.26-.075-.046.011-.553.615-.604.635-.078.03-.363.03-.442,0-.013-.005-.192-.192-.196-.205-.053-.231.06-.224.075-.261.022-.054.009-.122.031-.157.063-.098.621-.555.634-.606.054-.229-.167-.373-.2-.602-.106-.156-.194-.08-.324-.109-.036-.008-.029-.083-.064-.091-.27-.065-.783.064-1.051-.002-.031-.008-.032-.07-.048-.076-.055-.022-.122-.009-.157-.031-.017-.01-.203-.218-.205-.241-.009-.138.153-.119.098-.302.191.084.293-.088.311-.092.107-.026.794-.022.925-.005.059.008.157.18.346.097-.085-.191.088-.293.092-.311.022-.097-.023-.222,0-.311.009-.036.153-.021.093-.122-.002-.004-.05,0-.071-.022-.102-.107-.752-.704-.763-.757-.015-.072-.015-.234,0-.305.003-.014.182-.2.195-.205.174-.074.169.053.19.063.345.15.313.281.558.466.035.026.115.003.157.03.04.026.102.159.142.168.253.059.246-.082.277-.09.099-.023.234.013.34,0l.002-.991c.125-.044.068-.141.107-.203.087-.137.289-.139.437-.094.1.032.084.264.197.297l.002.991c.151-.054.175.064.201.077.066.033.291.093.342.125.071.044.106.225.2.17.003-.002-.002-.05.021-.071.097-.091.599-.643.642-.658.09-.03.26-.03.349,0,.013.005.192.191.195.205.084.4-.162.398-.355.632-.028.033-.002.124-.03.157-.072.086-.251.24-.356.294l.005.086c.022.005.064.004.072.019.034.07.087.286.122.344.007.012.191.196.205.199.287.059.782-.063,1.051.003.033.008.023.072.068.09.041.016.132-.013.148.003.016.017-.012.108.004.149.019.05.137.026.091.191ZM25.816,30.626l-1.861,2.747c-.322.356-.645.058-.392-.439.186-.365,1.421-2.133,1.699-2.348.065-.05.187-.14.262-.157.183-.041.326-.018.292.196Z"/>
    <path class="cls-5" d="M46.515,42.375c-.002,1.395.002,2.792,0,4.186h-17.769l.225-.181c1.913-.812,3.711-1.721,5.56-2.594,1.027-.484,2.175-.899,3.132-1.52.034-.022.098-.146.122-.155.098-.04.249-.033.359-.062.033.089.186.128.186.139,0,.148-.005.295-.007.443.006.157.069.358.105.449.032.08.14.024.188.086.034.043.057.098.1.124.032.019.099.052.184.089.002,0,.004.002.006.003.17.091.35.16.535.216.002,0,.003,0,.005.002.108.041.192.071.217.077.062.015.134.024.21.032.2.046.401.088.6.122.009.017.026.033.062.037.054.007.118.006.184.003.168.025.336.046.504.06.01.014.027.026.057.029.25.033,1.106.033,1.355,0,.043-.005.059-.028.067-.05.185-.023.37-.056.556-.099.123-.008.243-.019.342-.042.021-.005.027-.035.036-.06.095-.028.189-.06.284-.095.011-.004.022-.008.033-.012.823-.243,1.715-.742,2.431-1.139.057-.032.042-.112.132-.089Z"/>
    <path class="cls-5" d="M38.615,43.166c.101.064.2.169.284.213-.085-.037-.153-.07-.184-.089-.043-.026-.066-.081-.1-.124Z"/>
    <path class="cls-5" d="M39.636,43.652c.079.019.158.039.237.057-.076-.008-.148-.017-.21-.032-.025-.005-.108-.036-.217-.077.063.019.126.036.19.052Z"/>
    <path class="cls-5" d="M40.473,43.83c.082.015.164.028.246.04-.066.003-.129.004-.184-.003-.036-.005-.053-.02-.062-.037Z"/>
    <path class="cls-5" d="M42.701,43.911c-.009.022-.024.044-.067.05-.249.033-1.105.033-1.355,0-.029-.004-.046-.015-.057-.029.494.044.987.043,1.479-.02Z"/>
    <path class="cls-5" d="M43.257,43.812c.126-.029.253-.062.379-.101-.009.025-.015.055-.036.06-.099.022-.219.034-.342.042Z"/>
    <path class="cls-5" d="M46.383,42.464c-.717.397-1.608.896-2.431,1.139.852-.315,1.635-.698,2.431-1.139Z"/>
    <path class="cls-4" d="M24.094,36.763c-.009.031-.074.022-.091.067-.045.112.094.181-.187.15l.092.092h-1.116l.092-.092c-.247-.043-.23.116-.294.263-.009.022-.137.017-.063.191.02.048.695.721.742.741.058.026.16.003.172.015.016.017-.013.107.003.148.018.045.082.036.091.069.029.119-.016.301,0,.432-.217.005-.248.149-.525.091-.051-.011-.59-.657-.699-.728-.036-.023-.103-.007-.157-.031-.017-.007-.016-.067-.047-.076-.183-.056-.192.152-.285.183-.044.015-.135-.009-.148.002-.015.013-.011.342-.004.398.011.086.087.061.095.098.036.152-.023.39-.002.553.011.079.143.079.099.37-.006.046-.212.25-.256.257-.067.009-.205.009-.27-.005-.015-.004-.215-.203-.218-.218-.019-.1.018-.213-.003-.308-.03-.139-.153-.492-.184-.621-.02-.088.02-.413,0-.433-.131-.019-.312.028-.432-.002-.012-.003-.12-.072-.204-.107-.041-.018-.031-.129-.26-.075-.046.011-.553.615-.604.635-.078.03-.363.03-.442,0-.013-.005-.192-.192-.196-.205-.053-.231.06-.224.075-.261.022-.054.009-.122.031-.157.063-.098.621-.555.634-.606.054-.229-.167-.373-.2-.602-.106-.156-.194-.08-.324-.109-.036-.008-.029-.083-.064-.091-.27-.065-.783.064-1.051-.002-.031-.008-.032-.07-.048-.076-.055-.022-.122-.009-.157-.031-.017-.01-.203-.218-.205-.241-.009-.138.153-.119.098-.302.191.084.293-.088.311-.092.107-.026.794-.022.925-.005.059.008.157.18.346.097-.085-.191.088-.293.092-.311.022-.097-.023-.222,0-.311.009-.036.153-.021.093-.122-.002-.004-.05,0-.071-.022-.102-.107-.752-.704-.763-.757-.015-.072-.015-.234,0-.305.003-.014.182-.2.195-.205.174-.074.169.053.19.063.345.15.313.281.558.466.035.026.115.003.157.03.04.026.102.159.142.168.253.059.246-.082.277-.09.099-.023.234.013.34,0l.002-.991c.125-.044.068-.141.107-.203.087-.137.289-.139.437-.094.1.032.084.264.197.297l.002.991c.151-.054.175.064.201.077.066.033.291.093.342.125.071.044.106.225.2.17.003-.002-.002-.05.021-.071.097-.091.599-.643.642-.658.09-.03.26-.03.349,0,.013.005.192.191.195.205.084.4-.162.398-.355.632-.028.033-.002.124-.03.157-.072.086-.251.24-.356.294l.005.086c.022.005.064.004.072.019.034.07.087.286.122.344.007.012.191.196.205.199.287.059.782-.063,1.051.003.033.008.023.072.068.09.041.016.132-.013.148.003.016.017-.012.108.004.149.019.05.137.026.091.191Z"/>
    <path class="cls-4" d="M11.259,36.354c-.137.202-.26.317-.529.253-.035-.009-.029-.083-.064-.091-.198-.045-.483-.051-.681-.095-.042-.009-.07-.208-.309.002-.036.115.06.07.09.128.143.287.183.229.359.444.028.033.003.124.03.157.208.248.276.268.466.558.076.117.243.075.169.355-.006.024-.154.067-.091.218-.157-.022-.408.04-.546-.013-.025-.009-.342-.339-.369-.373-.052-.065-.257-.465-.309-.529-.028-.035-.344-.364-.369-.373-.261-.091-.237.11-.453.079.021.214-.029.472-.004.677.007.056.25.215.007.256l-.004.067.095.052.002.09c-.159.138-.067.236-.098.406-.029.158-.518.203-.634.019-.039-.062.018-.158-.107-.203l-.004-1.236c-.073-.034-.156-.178-.198-.205-.035-.022-.102-.009-.157-.031-.043-.017-.049-.145-.283-.063-.059.021-.559.64-.677.715-.034.022-.101.009-.156.031-.016.006-.017.068-.048.075-.33.081-.513-.098-.432-.431.008-.031.07-.033.076-.048.03-.081.037-.224.147-.26.129-.043.172.081.148-.189.27.095.263-.26.28-.277.015-.015.103.009.146-.005.144-.05.161-.301.13-.431-.009-.036-.084-.028-.091-.064-.045-.203-.04-.153-.092-.283-.016-.041.013-.132-.003-.149-.016-.016-.108.013-.149-.003-.228-.092-.48-.172-.702-.262-.111-.045-.227-.092-.342-.125-.258-.205-.008-.325-.015-.542.212.022.474-.031.678-.005.086.012.06.088.098.096.069.015.49.043.52-.008.035-.059-.05-.168.1-.201l-.002-.069c-.132-.082-.342-.264-.449-.387-.027-.032-.002-.126-.03-.157-.249-.282-.343-.324-.558-.651-.021-.032-.153-.106-.157-.12-.046-.139.003-.309-.014-.453l.453.014c.38.415.781.811,1.186,1.2.041.04.036.141.127.088.03-.018.091-.274.28-.185.021-.019-.018-.35.002-.433.009-.037.084-.012.096-.098.021-.162-.04-.404-.002-.552.008-.032.069-.033.075-.048.022-.054.009-.119.032-.156.102-.161.28-.102.45-.108-.084.19.088.287.096.346.021.161-.043,1.016-.003,1.05.151-.054.175.064.201.077.066.033.291.092.342.124.07.045.107.225.2.17.003-.002-.002-.05.021-.071.252-.237.401-.461.709-.594.017-.008.016-.068.046-.077h.123c.042.127.139.069.202.108.135.084.142.294.095.437-.018.053-.723.684-.822.757l-.002.069c.113.046.153.26.203.38.006.016.068.016.076.047.024.099-.012.234,0,.34h.279l-.092.092c.106.015.241-.022.34.002.036.009.383.164.44.181.136.04.287.063.424.101l.008.393Z"/>
    <path class="cls-4" d="M17.21,25.134c-.009.031-.073.021-.091.067-.016.041.013.132-.003.149-.016.016-.107-.013-.149.003-.044.018-.035.082-.067.09-.061.015-.247.015-.308,0-.038-.009-.013-.084-.098-.095-.19-.023-.321.074-.468-.094l-.084.006c-.146.101-.169.28-.112.452.021.064.724.638.809.77.038.06-.022.162.107.203v.124c-.127.041-.069.139-.108.201-.084.134-.293.143-.438.095-.086-.029-.801-.903-.917-.92-.236-.033-.187.132-.397.097-.061.167.087.172.097.253.02.158.019.635,0,.795-.026.213-.524.235-.638.053-.023-.036-.009-.101-.032-.155-.006-.016-.067-.017-.075-.048-.032-.128.02-.322.002-.459-.012-.087-.088-.061-.096-.098-.023-.101.012-.234,0-.341-.098-.011-.212.016-.306.004-.086-.011-.06-.087-.098-.095-.065-.015-.239-.013-.306,0-.044.009-.582.638-.626.647-.355.072-.621-.027-.523-.431.008-.031.07-.032.076-.047.139-.348.314-.329.466-.557.026-.039.002-.107.017-.136.03-.06.132-.019.09-.129-.046.002-.153-.081-.17-.108-.11-.177-.07-.342-.109-.512-.004-.018-.177-.12-.091-.311-.017-.018-.322.014-.399.004-.022-.003-.332-.163-.361-.174-.182-.069-.328-.072-.261-.354.004-.016.222-.218.252-.222.076-.01.297-.012.365.004.037.009.012.084.098.095.081.011.285.01.365-.005.068-.014.193-.306.224-.393-.009-.085-.217-.204-.268-.271-.028-.036-.003-.123-.03-.157-.067-.082-.516-.458-.529-.492-.134-.347.043-.664.439-.532.06.02.765.807.85.916l.069.002c.032-.139.129-.068.194-.109.211-.134.07-.771.105-1.034.008-.06.179-.156.097-.346.2.058.172-.159.36-.079.09.038.277.335.198.451l.091-.093c.04.295-.052.711.003.989.029.143.343.143.463.127l-.092.092c.253-.073.21.263.452.171.093-.035.099-.22.12-.249.029-.04.537-.562.576-.571.072-.015.234-.015.305,0,.015.003.215.202.218.218.017.082.015.246-.012.327-.018.052-.685.601-.717.674-.075.172.046.153.075.213.06.129.185.256.188.274.019.1-.019.213.003.307.004.019.156.07.092.218.107.015.239-.022.339,0,.038.009.013.085.098.096.113.014.26-.029.366-.002.033.008.024.072.068.09.042.016.132-.013.149.003.016.017-.013.108.003.149.021.05.139.029.091.191Z"/>
    <path d="M23.807,27.085c-.054.179-1.228.903-1.465,1.048-1.399.855-2.843,1.645-4.243,2.502-.227.139-.692.519-.889.599-.121.05-.248.033-.359-.033-.267-.48.514-.824.858-1.05,1.825-1.198,3.745-2.245,5.624-3.353.256-.132.577-.05.475.287Z"/>
    <path d="M14.884,36.072c-.115.167-.731.666-.93.838-2.19,1.896-4.521,3.628-6.719,5.514l-.212.044c-.009-.065.003-.125.022-.187.106-.364,1.439-1.486,1.791-1.79,1.856-1.603,3.825-3.079,5.631-4.742.324-.227.693-.074.416.323Z"/>
    <path d="M10.824,27.848c-.097.104-.629.276-.799.341-1.574.601-3.377,1.275-4.977,1.767-.36.111-.728.254-1.109.234-.287-.363.353-.515.621-.628,1.932-.814,3.946-1.441,5.904-2.19.349-.143.614.203.36.476Z"/>
    <path d="M16.068,29.302c-.154.188-1.079.528-1.358.642-1.146.469-2.799,1.199-3.965,1.478-.244.058-1.065.268-1.157-.056-.077-.271.262-.222.414-.268,1.942-.597,3.784-1.498,5.707-2.154.277-.088.586.079.359.358Z"/>
    <path d="M17.188,39.259c-.687.872-1.916,1.883-2.749,2.672-.135.127-.532.614-.684.577-.436-.107.347-.967.479-1.12.566-.654,1.261-1.205,1.863-1.825.202-.208.71-.917.955-.954.535-.081.348.383.137.649Z"/>
    <path d="M23.344,23.876c-.024.084-.522.287-.645.335-1.01.384-2.138.643-3.175,1.012-.253.09-.677.36-.931.305-.232-.051-.258-.332-.112-.488.087-.094.89-.366,1.078-.434,1.014-.367,2.095-.686,3.14-.953.191-.049.757-.162.645.223Z"/>
    <path d="M25.816,30.626l-1.861,2.747c-.322.356-.645.058-.392-.439.186-.365,1.421-2.133,1.699-2.348.065-.05.187-.14.262-.157.183-.041.326-.018.292.196Z"/>
  </g>
</svg>