<?xml version="1.0" encoding="UTF-8" standalone="no"?>
<svg
   width="524.96008pt"
   height="415.51004pt"
   version="1.1"
   viewBox="0 0 524.96006 415.51003"
   id="svg22732"
   xmlns="http://www.w3.org/2000/svg"
   xmlns:svg="http://www.w3.org/2000/svg">
  <defs
     id="defs22736" />
  <path
     style="stroke-width:0.759715;stroke-dasharray:none"
     d="M 180.97595,358.873 V 94.242536 l 56.70856,65.727184 c 4.0402,4.68277 9.92562,6.51104 15.44369,4.79781 5.51836,-1.71329 9.82606,-6.70919 11.30443,-13.1055 1.47822,-6.39278 -0.0993,-13.21679 -4.13673,-17.89652 L 185.67194,47.273745 c -4.70207,-5.414697 -10.8688,-8.786648 -17.46214,-9.547644 -2.1345,-0.508225 -4.33248,-0.508225 -6.46705,0 -6.5939,0.760741 -12.7602,4.132947 -17.45933,9.547644 L 69.659457,133.76551 c -4.037458,4.67956 -5.614868,11.50416 -4.136725,17.89652 1.478219,6.39599 5.788618,11.39205 11.304435,13.1055 5.518362,1.71331 11.403275,-0.11506 15.443693,-4.79781 L 148.97943,94.242536 V 358.873 c 0.28129,6.40234 3.38935,12.18494 8.22629,15.29439 4.83445,3.1101 10.71138,3.1101 15.54817,0 4.83447,-3.11011 7.94532,-8.8922 8.22347,-15.29439 z"
     id="path13610" />
  <path
     style="stroke-width:0.760063"
     d="m 349.80556,377.06082 c -6.71243,-0.67446 -13.0058,-4.05301 -17.79313,-9.54766 L 257.43136,280.9723 c -4.03743,-4.67957 -5.61483,-11.50414 -4.13669,-17.89651 1.4782,-6.39598 5.78582,-11.39204 11.30435,-13.10552 5.51833,-1.71329 11.4032,0.11507 15.44359,4.79779 l 56.70816,65.72721 V 55.864824 c 0.27854,-6.402354 3.38933,-12.184946 8.2234,-15.294398 4.83718,-3.110102 10.71414,-3.110102 15.54808,0 4.83717,3.110106 7.94525,8.892207 8.22623,15.294398 V 320.49527 l 56.70814,-65.72721 c 4.04019,-4.68273 9.92556,-6.511 15.4436,-4.79779 5.51557,1.71331 9.82601,6.70921 11.30436,13.10552 1.4782,6.39278 -0.0993,13.21678 -4.1367,17.89651 l -74.62343,86.49177 c -4.78472,5.49456 -11.08055,8.87338 -17.79031,9.54764 -1.91662,0.4443 -3.88846,0.4443 -5.80516,0 z"
     id="path22730" />
</svg>
