<svg width="524.96pt" height="415.51pt" version="1.1" viewBox="0 0 524.96 415.51" xmlns="http://www.w3.org/2000/svg">
 <path d="m379.14 415.16c-9.5078-0.82422-18.422-4.9531-25.203-11.668l-105.64-105.76c-5.7188-5.7188-7.9531-14.059-5.8594-21.871 2.0938-7.8164 8.1953-13.922 16.012-16.016 7.8164-2.0938 16.152 0.14062 21.875 5.8633l80.324 80.324v-323.4c0.39453-7.8242 4.8008-14.891 11.648-18.691 6.8516-3.8008 15.176-3.8008 22.023 0 6.8516 3.8008 11.254 10.867 11.652 18.691v323.4l80.324-80.324c5.7227-5.7227 14.059-7.957 21.875-5.8633 7.8125 2.0938 13.918 8.1992 16.012 16.016 2.0938 7.8125-0.14063 16.152-5.8594 21.871l-105.7 105.7c-6.7773 6.7148-15.695 10.844-25.199 11.668-2.7148 0.54297-5.5078 0.54297-8.2227 0zm-214.84-22.227v-323.4l80.324 80.324c5.7227 5.7227 14.059 7.957 21.875 5.8633 7.8164-2.0938 13.918-8.1992 16.012-16.016 2.0938-7.8125-0.14062-16.152-5.8594-21.871l-105.7-105.7c-6.6602-6.6172-15.395-10.738-24.734-11.668-3.0234-0.62109-6.1367-0.62109-9.1602 0-9.3398 0.92969-18.074 5.0508-24.73 11.668l-105.7 105.7c-5.7188 5.7188-7.9531 14.059-5.8594 21.871 2.0938 7.8164 8.1992 13.922 16.012 16.016 7.8164 2.0938 16.152-0.14062 21.875-5.8633l80.324-80.324v323.4c0.39844 7.8242 4.8008 14.891 11.652 18.691 6.8477 3.8008 15.172 3.8008 22.023 0 6.8477-3.8008 11.254-10.867 11.648-18.691z"/>
</svg>
